<?xml version="1.0" encoding="utf-8"?>
<!-- Generator: Adobe Illustrator 16.0.0, SVG Export Plug-In . SVG Version: 6.00 Build 0)  -->
<!DOCTYPE svg PUBLIC "-//W3C//DTD SVG 1.0//EN" "http://www.w3.org/TR/2001/REC-SVG-20010904/DTD/svg10.dtd">
<svg version="1.0" xmlns="http://www.w3.org/2000/svg" xmlns:xlink="http://www.w3.org/1999/xlink" x="0px" y="0px" width="1024px"
	 height="768px" viewBox="0 0 1024 768" enable-background="new 0 0 1024 768" xml:space="preserve">
<g id="Layer_1">
	<g>
		<path fill-rule="evenodd" clip-rule="evenodd" stroke="#000000" stroke-width="5" stroke-miterlimit="10" d="M426.774,93.5
			C592,91,757,94,922,93.5"/>
		<path fill-rule="evenodd" clip-rule="evenodd" d="M786.033,426.047c-0.411-1.066-0.283-2.343-0.382-3.527
			c-0.118-1.41-0.021-2.872-0.371-4.221c-0.697-2.694-1.909-5.274-2.419-7.994c-1.148-6.12-5.012-10.341-9.369-14.284
			c-1.416-1.28-2.793-2.501-3.053-4.599c-0.155-1.246-0.595-2.484-1.074-3.657c-0.599-1.466-1.117-3.081-2.122-4.24
			c-1.761-2.031-3.753-3.905-5.854-5.589c-2.89-2.318-3.709-5.848-5.566-8.763c0.008-0.017,0.009-0.031,0.017-0.047
			c-1.347-1.895-2.819-3.815-4.383-5.478c-1.235-1.314-2.69-2.377-4.021-3.581c-0.871-0.46-1.734-0.933-2.588-1.42
			c-0.062,0.029-0.134,0.036-0.212-0.013c-0.311-0.194-0.625-0.379-0.936-0.567c-0.025-0.005-0.051-0.009-0.077-0.023
			c-0.727-0.404-1.624-0.862-2.195-1.532c-0.661-0.439-1.327-0.872-1.984-1.317c-1.428-0.729-2.858-1.693-4.261-2.509
			c-3.546-2.064-7.009-3.237-10.758-4.706c-3.188-0.203-6.359-0.459-9.462-1.172c-0.242-0.033-0.486-0.059-0.729-0.092
			c-0.038-0.005-0.06-0.025-0.095-0.034c-0.004,0.024-0.013,0.049-0.016,0.073c-3.204-0.409-6.513-0.762-9.791-1.321
			c-2.535-0.432-4.215-2.062-5.085-4.492c2.416-2.282,4.485-4.72,5.815-7.771c1.603-3.678,3.525-7.222,5.031-10.937
			c0.911-2.25,1.295-4.713,2.009-7.436c0.249-0.075,0.595-0.18,1.022-0.31c0.043-0.033,0.067-0.073,0.119-0.101
			c1.46-0.805,2.947-1.848,4.081-3.093c0.071-0.176,0.194-0.302,0.342-0.396c0.495-0.604,0.898-1.254,1.179-1.943
			c-0.001-0.015-0.015-0.021-0.013-0.038c0.064-0.606,0.243-1.548-0.16-2.081c-0.44-0.583-1.459-0.457-2.09-0.419
			c-0.223,0.014-0.324-0.28-0.177-0.427c0.145-0.144,0.291-0.283,0.443-0.413c-0.007-0.021-0.02-0.04-0.024-0.062
			c2.351-2.791,3.596-6.099,3.924-9.803c0.185-2.082,0.197-4.521-0.439-6.542c-0.27-0.856-0.771-1.66-1.129-2.498
			c1.737-1.267,3.014-3.275,3.301-5.34c0.549-3.931-1.587-7.919-3.492-11.288c6.992-2.333,2.626-18.924-2.858-21.715
			c-0.388-0.508-0.919-0.952-1.47-1.219c-1.146-0.555-2.389-0.838-3.636-1.067c-0.689-0.243-1.401-0.45-2.163-0.575
			c-2.642-0.889-5.642-1.092-8.308-0.303c-1.217,0.12-2.43,0.414-3.635,1.002c-3.579,1.745-6.185,4.413-7.811,8.056
			c-0.493,1.104-1.051,2.182-1.653,3.229c0.027,0.52-0.285,1.056-0.957,1.046c-0.011,0-0.021,0.002-0.031,0.002
			c-0.08-0.081-0.192-0.133-0.344-0.127c-4.184,0.181-10.06,4.273-11.873,8.912c-0.448,0.832-0.701,1.716-0.56,2.604
			c-0.01,0.424,0.012,0.847,0.089,1.267c-2.16,0.948-4.245,1.961-6.025,3.482c-0.408,0.385-0.812,0.776-1.209,1.175
			c-1.989,2.185-3.102,4.723-4.648,7.173c-1.414,6.937-2.835,14.061,2.684,19.805c0.115,0.12,0.189,0.247,0.234,0.377
			c0.314,0.257,0.633,0.511,0.952,0.761c1.09,0.852,2.356,1.477,3.88,2.41c-0.638,0.052-0.909,0.053-1.173,0.1
			c-1.716,0.304-2.755,1.099-2.812,2.136c-0.08,1.429,0.978,2.696,2.42,3.354c2.162,0.986,4.079,2.152,4.742,4.824
			c1.349,5.429,3.608,10.569,6.343,15.4c1.976,3.488,4.772,6.511,7.381,9.979c-1.472,3.055-4.273,5.147-7.868,5.623
			c-6.474,0.856-12.738,2.458-18.95,4.371c-1.293,0.398-2.598,0.762-3.898,1.135c-0.259,0.074-0.584,0.235-0.797,0.211
			c-1.824,0.509-3.848,0.876-5.491,1.77c-0.761,0.414-1.504,0.826-2.275,1.172c-1.579,1.043-3.152,2.094-4.742,3.12
			c-1.706,1.101-3.401,2.236-5.196,3.176c-2.537,1.328-4.449,3.293-6.087,5.556c-3.312,4.575-6.345,9.335-9.141,14.241
			c-1.574,2.762-3.205,5.501-4.574,8.363c-0.72,1.505-1.171,3.233-1.316,4.898c-0.218,2.502-1.391,4.407-2.948,6.21
			c-0.561,0.648-1.083,1.349-1.507,2.092c-1.005,1.76-2.002,3.53-2.887,5.352c-1.14,2.346-1.159,4.933-1.467,7.463
			c-0.517,4.256,0.159,8.432,1.139,12.498c0.574,2.384,1.782,4.614,2.903,7.062c0.071,0.084,0.141,0.17,0.188,0.285
			c0.308,0.763,0.65,1.507,1.008,2.244c0.009-0.01,0.016-0.021,0.024-0.03c0.335,0.242,0.585,0.338,0.699,0.52
			c2.044,3.246,4.881,5.599,8.135,7.576c4.536,2.756,9.48,3.081,14.552,2.691c1.199-0.092,2.254,0.001,3.444,0.25
			c2.513,0.523,4.892,1.153,6.998,2.686c0.458,0.333,1.162,0.329,1.731,0.475c0.26,1.075,0.013,1.849-0.638,2.708
			c-2.632,3.479-5.243,6.982-7.675,10.604c-1.682,2.505-3.25,5.126-4.514,7.859c-1.361,2.941-2.348,6.06-3.421,9.127
			c-0.812,2.32-1.273,4.789-2.299,7.003c-2.018,4.354-3.155,8.909-4.188,13.57c-1.059,4.777-1.783,9.513-1.748,14.415
			c0.049,6.688-0.003,13.336,0.978,20.011c0.906,6.17,2.327,12.203,3.7,18.253c1.479,6.518,3.477,12.934,3.847,19.651
			c0.148,2.689,0.02,5.421-0.281,8.1c-0.336,3.001-0.956,5.974-1.549,8.939c-0.658,3.295-1.258,6.613-2.522,9.714
			c-0.545,2.751-1.811,5.384-3.361,7.794c-0.795,1.815-1.952,3.451-2.966,5.167c-1.814,3.071-3.464,6.238-5.233,9.336
			c-0.316,0.553-0.687,1.071-1.053,1.569c-0.59,1.194-1.281,2.318-2.027,3.407c3.258,1.759,6.426,3.5,9.631,5.145
			c1.108,0.568,2.341,0.979,3.564,1.229c5.021,1.029,10.018,0.174,15.003-0.402c2.048-0.236,4.073-0.694,6.093-1.129
			c1.362-0.293,2.696-0.723,4.184-1.129c0.264,1.69,0.121,3.309,0.782,4.468c1.192,2.087,2.254,4.178,2.952,6.478
			c0.287,0.945,0.924,1.217,2.045,0.995c1.11-0.22,2.122-0.61,3.035-1.144c3.311-1.316,6.23-3.646,9.062-5.744
			c1.722-1.274,3.413-2.563,4.92-4.092c1.536-1.56,1.713-3.604,2.698-5.469c0.028-0.054,0.028-0.104,0.047-0.158
			c10.289,1.441,20.425,2.86,30.653,4.293c0.436,2.461,1.823,4.443,3.774,6.021c1.446,1.17,2.996,2.212,4.466,3.354
			c0.978,0.52,1.983,0.973,2.939,1.285c0.97,0.315,1.958,0.571,2.913,0.905c0.129-0.005,0.255-0.004,0.386-0.016
			c0.496,0.217,0.978,0.442,1.415,0.601c1.655,0.599,3.469,0.406,5.126,1.058c0.532,0.209,0.916-0.062,1.092-0.46
			c0.049-0.075,0.105-0.142,0.138-0.238c0.944-2.781,0.067-5.929-0.126-8.78c-0.123-1.811,0.19-3.866,0.078-5.757
			c1.157,0.313,2.153,0.573,3.124,0.883c2.992,0.952,6.038,1.428,9.181,1.164c2.928-0.245,5.868-0.797,8.776-0.657
			c2.869,0.138,5.715-0.084,8.539-0.013c4.76,0.12,9.121-1.314,13.613-2.317c0.61-0.137,1.218-0.396,1.758-0.714
			c1.438-0.848,2.839-1.754,4.251-2.644c1.947-1.228,2.229-3.547,0.861-5.432c-2.85-3.927-5.716-7.852-8.353-11.922
			c-1.857-2.868-7.049-22.014-7.053-22.562c-0.02-2.845-0.355-26.948,0.284-30.105c0.304-1.498,0.436-7.041,0.592-12.438
			c-0.503-7.729-0.248-15.566-0.114-23.335c-0.252-2.912-0.479-5.826-0.774-8.733c-0.3-2.941-0.612-5.881-0.938-8.819
			c-0.202-2.458-0.451-4.913-0.741-7.365c-0.842-4.234-1.737-8.454-2.815-12.613c-0.251-0.246-0.335-0.62-0.262-0.965
			c-1.805-6.76-4.135-13.346-7.531-19.563c-2.119-2.822-3.902-5.921-5.87-8.917c0.987-0.935,2.05-1.94,3.083-2.917
			c1.581,1.161,1.587,1.209,2.95,1.054c1.734-0.197,3.465-0.446,5.186-0.737c2.407-0.406,4.704-1.568,7.253-1.014
			c0.292,0.063,0.651-0.018,0.939-0.133c1.954-0.782,3.992-1.418,5.824-2.426c3.465-1.905,6.529-4.284,8.82-7.478
			c0.022-0.046,0.044-0.092,0.075-0.138c0.175-0.258,0.355-0.511,0.538-0.763c0.241-0.377,0.483-0.755,0.703-1.154
			c0.306-0.555,0.782-1.015,1.381-1.774c0.006,0.023,0.006,0.045,0.011,0.067c0.239-0.35,0.465-0.709,0.681-1.075
			c-0.014-0.007-0.028-0.014-0.042-0.021c0.598-1.972,1.232-3.917,1.771-5.889C786.216,428.862,786.612,427.545,786.033,426.047z
			 M717.527,307.819c-1.686,1.862-2.538,4.246-5.049,5.116C712.684,309.145,714.413,307.247,717.527,307.819z M714.004,304.15
			c-1.693-2.116-3.264-4.079-4.932-6.164c3.303-2.554,4.671-5.986,3.412-9.986h2.921c0.041,0,0.081,0.001,0.122,0h0.853
			c0.544,1.55,1.294,2.93,1.425,4.814C718.102,297.055,716.906,301.058,714.004,304.15z M692.411,281.423
			c-0.054-0.019-0.085-0.105-0.209-0.269c4.585-3.639,6.179-8.734,6.688-14.382c2.516,0.004,4.285,1.673,6.512,2.537
			c0,3.081,0.182,6.175-0.075,9.234c-0.133,1.592-0.921,3.177-1.635,4.659c-0.562,1.167-1.612,1.468-2.809,1.077
			C698.052,283.351,695.233,282.381,692.411,281.423z M699.356,290H688.69c0.646-3,2.253-4.731,4.89-6.399
			c1.401,0.522,3.083,1.02,4.621,1.782C700.518,286.53,700.729,288,699.356,290z M707.334,270.151
			c2.125,0.128,3.084,1.1,3.659,2.992c0.974,3.206,1.861,6.407,2.124,9.75c0.192,2.445-0.301,2.892-2.634,2.5
			c-0.859-0.144-1.688-0.471-2.548-0.622c-0.758-0.133-1.539-0.138-2.649-0.227C708.459,279.978,707.407,275.088,707.334,270.151z
			 M703.136,286.583c1.973,0.338,4.139,0.708,6.238,1.068c0.672,3.032,0.925,5.836-0.885,8.221
			c-1.119-0.965-2.093-1.943-3.204-2.726c-1.153-0.812-2.439-1.435-3.574-2.086C702.21,289.491,702.644,288.128,703.136,286.583z
			 M717.096,267.306c0.062-0.256,0.124-0.512,0.179-0.77c0.041-1.086-0.031-2.153-0.153-3.215c0.153-1.396,0.263-2.795,0.238-4.215
			c-0.035-2.03-0.376-4.042-0.788-6.036C719.338,257.576,721.502,267.104,717.096,267.306z M715.852,270.439
			c0.033,0.145,0.081,0.292,0.166,0.442c1.224,2.161,2.371,4.329,3.116,6.708c0.368,1.178,0.528,2.424,0.357,3.651
			c-0.171,1.223-1.235,2.635-2.527,3.331c-0.107,0.042-0.212,0.091-0.311,0.153c-0.611,0.266-1.259,0.366-1.88,0.204
			c-0.023-0.006-0.044-0.006-0.067-0.011c0.131-0.69,0.24-1.278,0.55-1.715c0.792-1.119,0.674-2.173,0.375-3.352
			c-0.624-2.46-1.233-4.925-1.779-7.403c-0.198-0.899-0.201-1.841-0.301-2.831C714.632,269.526,715.334,269.904,715.852,270.439z
			 M709.779,258.079c0.498-1.504,0.703-3.058,0.52-4.677c-0.01-0.083-0.008-0.155-0.008-0.228c-0.039-0.191-0.12-0.382-0.21-0.572
			c-0.004-0.084-0.006-0.167-0.01-0.251c0.096-1.114,0.142-2.223-0.063-3.313c0.062-0.042,0.132-0.072,0.202-0.1
			c0.388,0.072,0.773,0.156,1.159,0.244c0.92,0.624,1.651,1.395,2.141,2.27c0.075,0.033,0.171,0.076,0.251,0.104
			c-0.035,0.042-0.047,0.075-0.08,0.114c0.581,1.129,0.872,2.409,0.967,3.726c0.066,0.195,0.119,0.396,0.172,0.597
			c0.174,2.434,0.31,4.869,0.335,7.31c-0.144,0.613-0.323,1.22-0.542,1.817c-0.308,0.84-0.4,1.881-0.621,2.881h-5.132
			c-0.847-0.22-1.627-0.517-2.246-0.872c1.06-1.425,1.762-2.967,2.054-4.58C709.172,261.086,709.539,259.594,709.779,258.079z
			 M706.036,249.609c0.083-0.229,0.229-0.377,0.394-0.489c0.433-0.639,1.584-0.717,1.784,0.239c0.516,2.457-0.021,5.142-0.759,7.525
			c-0.286,3.354-1.09,6.592-2.336,9.882c-2.41-0.23-3.975-1.654-5.707-2.519c-0.424-1.52,0.01-2.466,0.737-3.697
			c1.283-2.176,2.325-4.551,3.469-6.551h-0.009c0.348-1.126,0.912-2.002,1.646-2.751
			C705.55,250.722,705.828,250.186,706.036,249.609z M702.543,248.418c0.628-0.521,1.427-0.137,1.672,0.423
			c0.001-0.001,0.003-0.001,0.005-0.002c0.086,0.163,0.172,0.326,0.257,0.489c-3.321,3.086-4.117,7.608-6.531,11.221
			c-0.437,0.652-0.343,1.66-0.535,2.736c-1.646-0.723-3.302-1.45-4.897-2.15c0.001-0.041,0.002-0.083,0.004-0.124
			c0.599-1.36,1.191-2.583,1.671-3.846c1.156-3.04,2.926-5.528,5.928-6.899C700.938,249.668,701.76,249.068,702.543,248.418z
			 M689.519,257.689c0.037-0.043,0.074-0.086,0.111-0.13c-0.002-0.104-0.005-0.208,0.031-0.325c0.587-1.926,1.533-3.833,2.84-5.416
			c0.133-0.176,0.289-0.341,0.436-0.51c1.856-1.546,4.277-2.593,6.808-3.155c-3.881,2.357-6.964,6.019-7.928,10.398
			c-0.188,0.48-0.377,0.967-0.572,1.472c-0.362-0.342-0.746-0.671-1.092-1.038c-0.255-0.27-0.488-0.551-0.664-0.766
			C689.491,258.04,689.506,257.864,689.519,257.689z M689.331,263.75c0.093-0.095,0.17-0.163,0.237-0.218
			c0.765-0.222,1.508-0.253,2.32,0.085c1.385,0.577,2.809,1.063,4.141,1.562c1.052,6.312-1.229,11.106-5.893,15.136
			c-2.205-1.704-4.317-3.336-6.51-5.031c0.045-0.222,0.037-0.47-0.056-0.745c-0.863-2.543,1.286-5.448,2.814-7.372
			c0.618-0.777,1.251-1.543,1.901-2.294C688.622,264.486,688.975,264.117,689.331,263.75z M676.509,265.812
			c2.315-2.375,6.02-4.741,7.765-5.572c0.652-0.068,1.502-0.091,2.238,0.003c0.08,0.004,0.157,0.001,0.238,0.007
			c0.163,0.012,0.304,0.057,0.426,0.123c0.353,0.101,0.634,0.248,0.797,0.452c-1.537,1.042-2.949,3.271-3.708,4.221
			c-1.446,1.811-3.057,4.06-3.66,6.431c-1.08,1.045-3.706,0.279-5.068-0.603C674.59,269.443,675.521,267.314,676.509,265.812z
			 M669.087,302.587c0.033,0.298,0.033,0.601,0.062,1.16c-0.642-0.188-1.164-0.472-1.614-0.812
			c-0.171,0.002-0.354-0.055-0.539-0.196c-4.472-3.422-5.361-9.431-5.12-14.738c0.009-0.196,0.076-0.347,0.163-0.48
			c0.001-0.013-0.004-0.023-0.002-0.036c0.386-2.724,1.747-5.592,3.705-7.765c1.28-1.937,2.901-3.665,4.964-5.112
			c0.842-0.59,1.763-1.067,2.707-1.525c0.03-0.021,0.049-0.054,0.083-0.07c0.53-0.259,1.076-0.482,1.623-0.703
			c0.004-0.021,0.017-0.038,0.014-0.061c0.061-0.03,0.12-0.06,0.181-0.089c0.613,0.568,1.424,0.963,2.302,1.222
			c4.273,3.495,8.216,7.408,13.859,9.428c-3.425,1.607-4.616,4.571-5.817,7.435c-7.491,2.747-10.46,5.605-15.151,14.537
			c-0.094-0.102-0.286-0.237-0.265-0.301c0.878-2.583,0.278-5.219,0.342-7.833c0.071-2.936,1.13-5.604,2.978-7.891
			c2.696-3.337,5.664-6.397,9.609-8.359c-0.061-0.248-0.122-0.495-0.184-0.742c-0.549,0.037-1.23-0.122-1.624,0.145
			c-1.692,1.145-3.812,1.583-5.141,3.353c-1.526,2.033-3.324,3.862-4.825,5.912C668.396,293.159,668.567,297.857,669.087,302.587z
			 M671.545,312.775c-1.841-1.238-3.84-1.419-4.742-3.904c0.035,0.003,0.065,0.006,0.1,0.01c-0.02-0.049-0.04-0.099-0.06-0.148
			c-0.037-0.094,0.021-0.241,0.115-0.282c0.258-0.113,0.498-0.187,0.729-0.238c0.597-0.292,1.426-0.186,2.055,0.051
			c0.525,0.198,0.9,0.562,1.167,1.007c0.012,0.001,0.021,0.002,0.032,0.003c0.006,0.032,0.011,0.06,0.016,0.092
			c0.392,0.709,0.529,1.602,0.544,2.385c0.001,0.023-0.009,0.038-0.014,0.057c0.009,0.007,0.015,0.009,0.023,0.017
			c0.052,0.045,0.068,0.095,0.071,0.144c0.004,0.006,0.007,0.014,0.011,0.02c-0.002,0.033-0.01,0.063-0.009,0.097
			c0.004,0.216,0.021,0.431,0.038,0.646c-0.027,0.008-0.055,0.018-0.082,0.016C671.542,312.756,671.543,312.765,671.545,312.775z
			 M685.113,337.538c-1.666-2.211-3.19-4.528-4.796-6.786c-2.586-3.639-3.772-7.827-4.728-12.092
			c-0.197-0.881-0.356-1.772-0.51-2.664c-0.2-0.717-0.396-1.437-0.608-2.153c-0.405-1.363-0.882-2.627-1.599-3.858
			c-0.508-0.872-0.991-1.724-1.122-2.736c-0.018-0.14,0.073-0.207,0.179-0.223c0.231-0.453,0.277-1.319,0.551-1.898
			c1.181-2.503,2.293-5.322,4.258-7.119c5.422-4.959,11.753-8.144,19.454-7.324c0.699,0.074,1.414,0.276,2.055,0.567
			c2.086,0.948,4.217,1.837,6.175,3.009c0.95,0.568,1.614,1.67,2.3,2.609c1.778,2.433,3.473,4.928,5.252,7.36
			c0.745,1.019,0.757,1.842,0.157,3.026c-0.885,1.749-1.469,3.669-2.021,5.562c-1.064,3.649-1.817,7.403-3.081,10.979
			c-0.213,0.602-0.449,1.197-0.689,1.791c-0.009,0.031-0.021,0.06-0.034,0.089c-0.943,2.321-2.078,4.583-3.338,6.74
			c-0.016,0.027-0.034,0.051-0.051,0.078c-0.418,1.089-1.011,2.112-1.703,3.059c-0.676,1.369-1.557,2.591-2.941,3.42
			c-0.626,0.562-1.333,1.049-2.175,1.416c-2.783,1.211-6.362,0.935-8.852-0.779c-0.116-0.08-0.203-0.173-0.272-0.273
			C686.265,338.978,685.615,338.204,685.113,337.538z M674.304,350.855c0.111-0.091,0.247-0.164,0.431-0.194
			c4.98-0.834,11.652-1.77,13.677-7.176c0.224-0.6,0.82-0.769,1.304-0.636c0.004-0.017,0.01-0.033,0.014-0.05
			c2.359-0.262,4.682-0.521,7.249-0.806c3.54,6.031,9.783,7.16,16.474,7.607c-2.396,2.236-4.959,4-7.796,5.397
			c-7.586,3.736-15.402,3.089-23.233,1.134c-3.984-0.994-7.886-2.324-11.82-3.516c-0.349-0.106-0.664-0.321-1.511-0.741
			C670.952,351.646,672.652,351.213,674.304,350.855z M642.738,362.085c0.071-0.044,0.137-0.097,0.212-0.134
			c0.025-0.012,0.051-0.009,0.076-0.014l-0.012-0.075c2.316-1.328,4.629-2.663,6.951-3.979c0.553-0.313,1.242-0.456,1.693-0.869
			c1.673-1.532,3.797-1.557,5.746-1.419c2.915,0.207,5.464-0.824,8.103-1.642c0.879-0.272,1.715-0.677,2.67-1.06
			c2.197,2.195,4.966,2.789,7.633,3.505c3.527,0.947,7.213,1.402,10.631,2.625c3.129,1.119,6.211,1.257,9.399,1.065
			c4.098-0.248,7.954-1.537,11.655-3.161c1.85-0.812,3.442-2.232,5.107-3.438c1.966-1.426,3.883-2.918,5.844-4.397
			c1.062,0.376,2.105,0.292,3.14,0.331c2.235,0.085,4.597,0.582,6.627,1.519c3.46,1.596,6.713,3.646,10.033,5.54
			c0.592,0.338,1.091,0.842,1.843,1.436c-2.624,2.059-4.614,4.447-7.485,5.784c-0.93,0.433-1.698,1.201-2.609,1.685
			c-1.907,1.013-3.605,2.481-5.971,2.516c-0.199,0.003-0.4,0.031-0.602,0.065c-0.009,0.005-0.017,0.01-0.025,0.015
			c-0.237,0.134-0.513,0.313-0.789,0.36c-0.085,0.015-0.16,0.025-0.235,0.039c-0.514,0.272-1.042,0.506-1.6,0.611
			c-0.063,0.052-0.14,0.062-0.211,0.04c-0.072,0.009-0.147,0.007-0.221,0.011c-7.392,2.966-15.178,4.014-23.053,4.705
			c-10.084,0.885-19.843-0.712-29.456-3.597c-5.039-1.512-10.097-2.961-15.118-4.531c-1.663-0.52-3.207-1.417-4.861-1.975
			c-1.444-0.488-2.952-0.785-4.438-1.147c-0.113,0.046-0.202,0.077-0.364,0.044c-0.021-0.004-0.031-0.023-0.049-0.033
			c-0.004,0.003-0.008,0.005-0.012,0.008C642.716,362.688,642.465,362.255,642.738,362.085z M647.973,449.479
			c-0.056,0.273-0.608,0.445-0.921,0.657c-1.577-1.713-1.635-1.779-0.51-3.34c1.157-1.607,2.384-3.174,3.679-4.673
			c0.925-1.07,2.036-1.954,3.921-2.048c-0.198,0.659-0.229,1.198-0.495,1.563c-0.703,0.959-1.557,1.808-2.264,2.765
			C650.173,446.04,648.417,447.306,647.973,449.479z M661.594,446.063c-0.455,0.976-0.455,0.976-3.726,1.559
			c0.164,1.479,1.538,0.715,2.368,1.319c-0.47,0.852-0.952,1.727-1.521,2.761c-1.169-0.455-2.157-0.84-3.213-1.251
			c0.343,1.463,0.343,1.463,1.666,2.377c-0.8,0.823-1.596,1.643-2.502,2.575c-0.586-1.025-1.112-2.056-1.873-3.386
			c-0.219,1.688-1.252,2.982,0.927,3.982h-2.4c-0.124,0-0.275-0.135-0.312-0.267c-0.234-0.838-0.495-1.619-0.642-2.475
			c-0.104-0.608-0.275-1.341-0.02-1.822c1.366-2.574,2.199-5.462,4.621-7.409c1.147-0.922,2.117-2.058,3.327-3.259
			c3.953,0.551,4.204,0.726,4.245,3.317c-0.705-0.117-1.397-0.177-2.057-0.356c-0.603-0.164-1.171-0.457-1.759-0.695
			C658.398,444.532,658.398,444.533,661.594,446.063z M662.067,439.113c-0.063,0.035-0.124,0.038-0.187,0.06
			c-0.107,0.081-0.212,0.172-0.32,0.249c-0.177-0.066-0.353-0.133-0.54-0.187c-1.354-0.387-2.79-0.504-4.198-0.671
			c-1.327-0.157-2.723-1.436-2.26-2.43c1.286-2.757,0.131-5.353-0.32-7.965c-0.294-1.699-1.012-3.338-1.645-4.962
			c-0.634-1.625-1.377-3.208-2.109-4.793c-0.734-1.591-1.514-3.161-2.337-4.873c0.034-0.053,0.066-0.12,0.1-0.182
			c0.014-0.289,0.141-0.576,0.432-0.786c0.009-0.006,0.016-0.014,0.023-0.02c0.079-0.101,0.166-0.177,0.265-0.214
			c4.221-3.169,6.794-7.86,10.585-11.391c0.722-0.885,1.464-1.752,2.258-2.574c0.329-0.34,0.718-0.622,1.262-1.088
			c0.267,0.684,0.474,1.237,0.696,1.785c0.882,2.163,2.178,4.075,3.749,5.775c2.878,3.116,3.732,7.138,4.985,10.97
			c0.382,1.169,0.059,2.3-0.362,3.394c-0.207,1.908-0.883,3.926-1.483,6.341c-0.943,3.787-1.992,7.565-4.847,10.209
			c-0.526,0.714-1.061,1.562-1.731,2.133C663.454,438.429,662.78,438.717,662.067,439.113z M674.53,630.172
			c-0.018,0.038-0.038,0.072-0.056,0.11c-0.961,1.165-2.175,3.241-2.61,3.688c-1.689,1.734-4.123,2.759-6.021,4.249
			c-1.854,1.455-3.698,3.098-5.988,3.803c-0.907,0.279-1.857,0.461-2.746,0.793c-0.165-2.573-1.816-4.696-2.304-7.197
			c-0.469-2.404-0.678-2.512,1.3-3.202c0.51,2.269,0.753,4.629,2.431,6.398c0.475,0.501,1.089,0.322,1.433-0.088
			c2.521-1.059,4.551-2.815,6.566-4.64c1.065-0.964,1.935-2.106,3.039-3.039c0.787-0.664,1.516-1.262,2.147-2.015
			c0.206-0.059,0.395-0.196,0.527-0.448c0.302,0.027,0.62,0.055,0.977,0.086c-0.018,0.033-0.041,0.062-0.06,0.096
			C673.861,628.357,674.971,629.204,674.53,630.172z M657.853,631.174c0.98-0.514,2.072-0.887,2.881-1.115
			c2.977-0.841,6.034-2.554,9.215-1.981c-1.253,1.482-3.028,2.673-4.333,4.082c-1.693,1.83-3.836,3.637-6.151,4.626
			C658.405,635.2,658.3,633.05,657.853,631.174z M716.337,639.746c-1.923-1.141-5.204-4.315-6.102-6.65
			c0.875-0.736,2.062-0.633,3.065-0.88c0.17,0.175,1.642,2.229,1.844,2.445c0.812,0.862,1.774,1.578,2.715,2.291
			c2.121,1.609,3.941,2.093,6.46,2.625c0.397,0.084,0.711-0.062,0.93-0.295c0.18-0.115,0.327-0.293,0.385-0.572
			c0.339-1.62,0.706-3.199,0.583-4.863c-0.047-0.632-0.109-1.262-0.156-1.893c-0.028-0.365-0.042-0.73-0.052-1.097
			c-0.002-0.063,0.008-0.134,0.018-0.201c0.041,0.041,0.087,0.077,0.123,0.122c0.536,0.145,1.056,0.285,1.544,0.416
			c0.123,1.77,0.244,3.527,0.366,5.29c-0.007,0.329-0.008,0.652,0.007,0.959c0.03,0.624,0.107,1.271,0.193,1.927
			c0.102,1.457,0.202,2.909,0.305,4.394c-0.657-0.117-1.29-0.229-1.928-0.344c-0.044,0.032-0.1,0.043-0.147,0.067
			c-0.445-0.11-0.893-0.212-1.34-0.314c-0.009-0.007-0.016-0.016-0.025-0.022c-0.1-0.018-0.197-0.035-0.297-0.053
			c-0.135-0.032-0.271-0.062-0.405-0.096c-0.784-0.198-1.518-0.409-2.276-0.466C720.12,641.79,718.165,640.831,716.337,639.746z
			 M724.09,632.349c0.137,1.802,0.05,3.377-0.257,5.11c-0.958-0.168-1.87-0.329-2.806-0.807c-1.275-0.651-2.439-1.606-3.526-2.522
			c-0.947-0.798-1.736-1.728-2.42-2.747c0.079,0.002,0.158,0.005,0.238,0.007l0.005-0.022c0.943-0.18,1.961-0.199,2.809-0.587
			c0.774-0.354,1.366-1.108,2.285-1.898c0.469,0.155,1.2,0.335,1.892,0.643c0.359,0.072,0.697,0.168,1.008,0.3
			c0.253,0.035,0.501,0.116,0.745,0.214C723.906,630.782,724.036,631.63,724.09,632.349z M742.484,451.939
			c1.978-1.364,1.978-1.364,1.354-2.89c-1.031,0.618-2.069,1.24-3.195,1.915c-0.624-0.708-1.141-1.295-1.926-2.187
			c0.877-0.893,1.67-1.699,2.513-2.557c-1.26-0.983-2.344-0.232-3.52,0.408c-0.366-0.812-0.72-1.594-1.191-2.639
			c1.035-0.407,1.939-0.763,3.292-1.295c-1.185-0.558-2.078-0.978-3.087-1.452c0.162-0.702,0.317-1.373,0.503-2.175
			c1.423,0.313,2.615,1.917,4.327,0.508c-0.97-0.761-1.854-1.454-2.808-2.201c2.913-1.067,6.18,0.57,6.881,3.335
			c0.791,3.115,2.238,6.064,3.427,9.156C746.328,452.863,744.717,453.393,742.484,451.939z M743.589,420.606
			c1.306,2.895,2.258,5.957,3.244,8.985c0.853,2.621-0.376,4.773-1.792,6.902c-3.553-0.645-7.169-2.454-10.22,0.948
			c-3.841-3.346-8.1-6.082-11.146-10.147c-0.331-0.441-0.695-0.867-0.966-1.345c-1.254-2.21-2.507-4.422-3.708-6.66
			c-1.407-2.625-2.174-5.452-1.963-8.423c0.169-2.368,1.524-4.308,2.817-6.236c1.359-2.025,2.848-3.953,3.358-6.478
			c0.257-1.267,1.158-2.402,1.842-3.741c1.101,0.95,2.344,1.877,3.413,2.975c2.458,2.523,5.362,4.439,8.34,6.243
			c0.923,0.559,2.062,0.779,3.123,1.085c0.747,0.214,1.529,0.309,2.353,0.468c-0.113,2.636-0.285,5.087-0.306,7.54
			C741.955,415.45,742.437,418.052,743.589,420.606z M751.896,450.794c-1.342-0.723-0.961-2.113-1.321-3.24
			c-0.553-1.729-1.358-3.378-2.079-5.052c-0.5-1.161-1.041-2.306-1.556-3.462c-0.461-1.035,0.1-1.604,1.107-2.209
			c0.767,1.44,1.647,2.755,2.195,4.196c0.982,2.588,1.791,5.244,2.617,7.889C753.127,449.773,753.303,450.728,751.896,450.794z
			 M783.361,424.866c-0.166,1.614-0.205,3.228-0.565,4.856c-0.413,1.868-0.956,3.621-2.077,5.185c-0.84,1.17-1.659,2.355-2.57,3.668
			c-2.572,5.887-7.896,7.43-13.396,8.961c-2.289,1.228-4.819,2.045-7.487,2.428c-0.374,0.054-0.673-0.088-0.892-0.304
			c-0.243,0.11-0.493,0.225-0.764,0.348c-0.333-0.967-0.586-1.7-0.897-2.603c2.035-0.248,4.262,0.383,5.943-1.781
			c-2.21-1.279-4.322-0.36-6.536-0.106c-0.18-0.464-0.372-0.962-0.563-1.457c6.285-3.012,6.285-3.012,6.387-5.208
			c-2.725,0.583-4.821,2.365-7.214,3.594c-0.43-0.654-0.828-1.262-1.297-1.977c0.056-0.022,0.11-0.025,0.168-0.061
			c3.239-1.975,6.435-4.412,6.489-8.546c0.008-0.603-0.427-0.912-0.892-0.951c-0.317,2.224-1.784,4.968-3.936,5.956
			c-0.835,0.671-1.762,1.259-2.658,1.806c-0.941-1.199-1.867-2.378-2.755-3.509c1.889-2.115,1.429-4.401,0.766-6.574
			c-1.019-3.342-2.398-6.574-3.37-9.928c-1.101-3.798-0.854-7.689-0.177-11.554c0.138-0.787,0.263-1.576,0.367-2.367
			c0.294-2.215,1.237-4.094,2.801-5.691c0.667-0.682,1.27-1.432,1.848-2.191c0.624-0.82,0.574-1.625-0.39-2.444
			c-3.562,1.869-5.411,5.083-6.573,8.786c-2.896,0.914-5.102-0.553-7.189-2.099c-2.589-1.916-5.143-3.897-7.565-6.016
			c-0.02-0.014-0.039-0.021-0.059-0.036c-1.813-1.365-3.432-2.478-4.209-4.723c-0.98-2.83-0.922-5.73-0.838-8.662
			c-0.481-1.417-1.213-2.754-1.92-4.149c-0.944,0.471-0.976,1.106-0.649,1.803c1.894,4.053,1.124,8.298,0.886,12.494
			c-0.081,1.422-0.462,2.825-0.61,4.246c-0.226,2.145-1.281,3.889-2.441,5.625c-1.543,2.312-3.338,4.519-3.698,7.417
			c-0.126,1.009-0.431,2.12-0.154,3.034c1.001,3.316,1.653,6.788,3.932,9.608c0.692,0.857,1.277,1.872,1.639,2.909
			c0.567,1.633,1.531,2.939,2.665,4.19c1.124,1.241,2.113,2.605,3.258,3.827c0.691,0.738,1.579,1.29,2.354,1.955
			c1.626,1.395,3.278,2.762,4.823,4.242c0.445,0.427,0.814,1.213,0.784,1.812c-0.319,6.296,3.029,10.449,7.85,13.807
			c0.893,0.622,1.823,1.286,2.481,2.129c4.301,5.507,7.807,11.403,9.591,18.282c1.379,5.314,3.199,10.516,4.838,15.762
			c0.977,3.127,1.942,6.249,2.657,9.429c2.083,20.319,1.133,40.837,0.908,61.273c-0.06,5.413-0.17,10.94-0.07,16.465
			c-0.036,0.873-0.064,1.748-0.105,2.621c-0.168,3.569,0.005,7.055,0.878,10.465c0.241,2.166,0.548,4.317,0.94,6.444
			c1.816,9.84,7.221,18.753,12.167,27.364c-1.697,1.201-3.364,2.38-5.426,2.913c-0.383,0.099-0.828,0.002-1.183,0.147
			c-5.06,2.074-10.481,1.883-15.768,2.467c-2.118,0.233-4.3-0.124-6.453-0.197c-1.252-0.042-2.505-0.082-3.757-0.121
			c-0.029,0.008-0.046,0.026-0.077,0.032c-4.379,0.845-9.267,0.57-13.068-1.81c-0.171,0.302-0.486,0.521-0.863,0.513
			c-3.214-0.075-6.239-1.028-9.266-2.036c-0.12-0.04-0.211-0.104-0.299-0.171c-0.164,0.019-0.322,0.035-0.489,0.055
			c-0.155,1.45-1.298,2.051-2.725,2.532c-4.796,1.62-9.729,1.8-14.667,1.298c-5.227-0.529-10.417-1.401-15.628-2.095
			c-4.171-0.556-8.335-1.268-12.527-1.547c-4.527-0.303-8.922,0.267-13.389,1.646c-1.323,0.408-2.652,0.812-3.983,1.208
			c-0.27-0.018-0.539,0.065-0.746,0.221c-5.914,1.736-11.922,3.214-18.116,3.533c-4.354,0.225-8.727,1.201-13.122,0.156
			c-1.358-0.323-2.458-0.832-3.409-1.903c-0.801-0.902-1.889-1.549-3.107-2.513c-0.293-0.021-0.978,1.045-1.646-0.088
			c1.262-1.64,2.571-3.289,3.816-4.986c0.516-0.704,1.11-1.462,1.291-2.28c0.679-3.074,2.921-5.231,4.351-7.855
			c3.308-6.068,6.667-12.124,7.498-19.205c0.426-3.622,1.434-7.175,1.89-10.795c0.346-2.748,0.443-5.566,0.271-8.331
			c-0.201-3.228-0.673-6.457-1.29-9.635c-0.576-2.965-1.541-5.853-2.258-8.793c-1.188-4.872-2.344-9.752-3.451-14.644
			c-0.683-3.012-1.214-6.059-1.879-9.075c-0.968-4.392-1.03-8.856-1.137-13.316c-0.062-2.615-0.146-5.248,0.088-7.845
			c0.131-1.448,0.959-2.821,1.355-4.26c0.479-1.734,0.878-3.493,1.228-5.258c0.433-2.183,0.633-4.422,1.206-6.562
			c0.49-1.826,1.354-3.554,2.081-5.312c0.045-0.107,0.107-0.212,0.177-0.313c1.305-9.044,5.68-17.877,11.158-25.135
			c0.438-1.872,1.811-3.151,3.086-4.516c1.032-1.106,1.997-2.275,2.992-3.417c1.145,0.193,2.298,0.358,3.437,0.592
			c1.311,0.27,2.423-0.213,3.668-0.554c4.979-1.365,6.727-5.61,8.997-9.451c1.44-2.437,0.713-5.653-1.667-7.536
			c5.315-4.229,9.57-11.659,10.961-19.168c0.14-0.368,0.278-0.737,0.419-1.105c0.321-1.65,0.534-3.307,0.325-4.98
			c-0.132-0.479-0.259-0.962-0.385-1.443c-0.023-0.225-0.167-0.443-0.197-0.666c-0.632-2.221-1.579-4.331-2.579-6.425v-0.003
			c0-0.005,0.029-0.014-0.008-0.014c-0.098-0.156-0.134-0.318-0.241-0.472c-0.498-0.716-0.99-1.419-1.524-2.107
			c-1.023-1.318-1.867-2.71-2.559-4.174c-1.021-1.133-1.839-2.421-2.325-3.97c-1.468-4.676-2.797-9.456-2.346-14.391
			c0.028-0.308,0.17-0.538,0.361-0.697c-0.733-0.237-1.229-0.093-1.523,0.746c-1.282,3.644-1.035,7.71,0.59,11.078
			c-5.194,5.873-9.518,12.412-15.658,18.087c-0.354-3.318-0.64-6.206-0.977-9.089c-0.238-2.049-0.561-4.089-0.816-6.136
			c-0.204-1.624-1.159-2.345-2.906-2.432c0.182,1.299,0.419,2.525,0.515,3.763c0.313,4.024,0.532,8.056,0.877,12.077
			c0.168,1.973,0.505,3.896,1.922,5.509c0.658,0.748,0.921,1.842,1.374,2.773c1.041,2.144,2.336,4.202,3.073,6.444
			c1.015,3.087,1.645,6.303,2.369,9.48c0.349,1.532-0.254,2.909-1.092,4.724c-0.6-2.027-1.067-3.608-1.556-5.258
			c-1.885-0.396-2.427,0.805-2.214,4.849c-0.523-0.989-1.046-1.979-1.57-2.968c-1.394-2.628-2.31-2.656-4.44,0.142
			c1.692,2.163,3.438,4.395,5.343,6.828c-0.588,0.747-1.343,1.705-2.287,2.905c-2.138-1.939-4.214-3.876-6.364-5.728
			c-0.402-0.347-1.145-0.565-1.652-0.462c-0.749,0.154-0.892,0.923-0.593,1.558c0.321,0.682,0.707,1.427,1.273,1.884
			c1.855,1.5,3.819,2.866,5.711,4.323c0.312,0.24,0.473,0.679,0.691,1.008c-0.264,0.223-0.384,0.408-0.485,0.398
			c-5.156-0.51-10.304,0.786-15.492-0.129c-4.872-0.86-8.482-3.457-11.282-7.283c-4.419-6.039-6.449-13.008-6.519-20.36
			c-0.039-4.113,0.172-8.426,2.958-12.068c1.115-1.459,1.587-3.409,2.447-5.352c0.758,0.895,0.535,1.771,0.618,2.567
			c0.088,0.84,0.17,1.681,0.256,2.521c0.01,1.566,0.038,3.143,0.052,4.734c0.011,1.289,2.011,1.29,2,0
			c-0.003-0.39-0.009-0.778-0.014-1.168c0.042,0,0.08,0.005,0.124,0.004c-0.21-4.396,0.38-8.664,0.638-12.947
			c0.038-0.632,0.192-1.266,0.154-1.89c-0.013-0.207-0.019-0.41-0.02-0.612c0.35-1.514,0.814-3.014,1.451-4.498
			c0.52-1.212,1.146-2.365,1.816-3.495c1.024-0.914,1.646-2.035,2.073-3.247c1.801-2.683,3.668-5.334,4.973-8.309
			c0.082-0.186,0.092-0.364,0.073-0.534c0.348-0.639,0.683-1.285,1.064-1.901c0.714-1.151,1.45-2.291,2.229-3.397
			c1.79-2.545,3.539-5.141,6.892-5.875c0.885-0.193,1.638-0.152,2.511,0.243c1.948,0.884,3.985,1.572,5.989,2.333
			c0.298,0.113,0.64,0.138,0.912,0.29c4.883,2.717,10.403,3.561,15.638,5.211c4.619,1.456,9.422,2.355,14.173,3.36
			c5.324,1.126,10.719,1.757,16.175,1.538c1.645-0.066,3.288-0.287,4.92-0.517c5.121-0.723,10.311-1.057,15.296-2.572
			c1.134-0.345,2.204-0.903,3.341-1.236c1.325-0.388,2.668-0.723,4.003-1.076c0.859-0.421,1.737-0.803,2.631-1.147
			c0.219-0.21,0.5-0.38,0.868-0.476c1.844-0.477,3.331-1.745,4.998-2.633c0.15-0.153,0.303-0.304,0.448-0.467
			c1.082-1.207,2.771-1.85,4.112-2.849c1.787-1.332,3.499-2.765,5.243-4.154c2.992,0.481,4.805,2.802,6.99,4.522
			c0.872,0.687,1.541,1.625,2.378,2.363c1.943,1.717,3.491,3.712,4.48,6.116c0.994,2.414,2.671,4.323,4.47,6.146
			c1.565,1.586,3.213,3.098,4.697,4.756c0.724,0.808,1.271,1.825,1.703,2.831c1.881,4.371,2.8,8.959,2.926,13.715
			c0.036,1.351,0.158,2.7,0.295,4.046c0.064,0.643,0.271,1.418,1.098,1.223c0.519-0.123,1.221-0.65,1.322-1.111
			c0.219-0.992,0.086-2.06,0.128-3.095c0.054-1.337,0.137-2.672,0.225-4.342c2.226,1.431,3.489,3.239,4.869,4.904
			c2.39,2.884,3.486,6.419,4.672,9.879c0.8,2.333,1.428,4.728,2.05,7.116C783.513,420.955,783.569,422.84,783.361,424.866z"/>
	</g>
	<path fill-rule="evenodd" clip-rule="evenodd" stroke="#000000" stroke-miterlimit="10" d="M647,451.5c-69,0.5-138,0.5-207.349,0"
		/>
	<polyline fill-rule="evenodd" clip-rule="evenodd" stroke="#000000" stroke-miterlimit="10" points="923,453.5 777,453.5 
		748,453.5 	"/>
	
		<rect x="486.5" y="265.5" fill-rule="evenodd" clip-rule="evenodd" fill="none" stroke="#000000" stroke-width="5" stroke-miterlimit="10" width="13" height="40"/>
	
		<rect x="532.5" y="265.5" fill-rule="evenodd" clip-rule="evenodd" fill="none" stroke="#000000" stroke-width="5" stroke-miterlimit="10" width="13" height="40"/>
	<polyline fill-rule="evenodd" clip-rule="evenodd" stroke="#000000" stroke-width="4" stroke-miterlimit="10" points="518,94 
		518,140 518,265.5 516.917,448.25 516.659,451.5 	"/>
	<polyline fill-rule="evenodd" clip-rule="evenodd" fill="none" stroke="#000000" stroke-width="3" stroke-miterlimit="10" points="
		712.5,94 712.5,99 712.5,124 712.5,248 	"/>
	<path fill-rule="evenodd" clip-rule="evenodd" fill="none" stroke="#000000" stroke-width="3" stroke-miterlimit="10" d="M717,349
		c0-10.734,0-21.469,0-32.204v-5.734"/>
	<path fill-rule="evenodd" clip-rule="evenodd" d="M697.957,308.16c3.5-1.376,6.938-2.727,10.343-4.064
		c0.059-1.108-0.331-1.609-1.237-1.281c-2.901,1.051-5.78,2.162-8.661,3.272C697.649,306.377,697.168,306.851,697.957,308.16z"/>
	<path fill-rule="evenodd" clip-rule="evenodd" d="M688.776,307.896c-3.569-1.184-7.077-2.345-10.549-3.496
		c-0.119-1.104,0.243-1.625,1.165-1.347c2.955,0.892,5.891,1.844,8.827,2.796C688.985,306.099,689.491,306.545,688.776,307.896z"/>
	<path fill-rule="evenodd" clip-rule="evenodd" fill="none" stroke="#000000" stroke-miterlimit="10" d="M691.001,322.167
		c-0.438,0.161-1.276,0.801-0.751,1.233c0.718,0.59,3.118-0.366,3.91-0.489c0.536-0.083,1.104-0.188,1.65-0.155
		c-1.519-0.931-2.888-2.397-3.977-3.756"/>
	<g>
		<path fill-rule="evenodd" clip-rule="evenodd" fill="none" d="M688.654,333.438"/>
	</g>
	<g>
		<g>
			<path fill-rule="evenodd" clip-rule="evenodd" fill="none" stroke="#000000" stroke-miterlimit="10" d="M676.633,306.4
				c0.111,5.778,16.637,11.258,13.471,7.197c-3.166-4.062,3.235-3.422-8.881-5.71C681.223,307.887,676.623,305.878,676.633,306.4z"
				/>
			<path fill-rule="evenodd" clip-rule="evenodd" fill="none" stroke="#000000" stroke-miterlimit="10" d="M685.5,308.741
				c0,0,3.122,2.781,0.208,5.383"/>
			<path fill-rule="evenodd" clip-rule="evenodd" fill="none" stroke="#000000" stroke-miterlimit="10" d="M681.223,307.887
				c0,0-2.818,2.367-0.648,3.648"/>
		</g>
		<g>
			<path d="M677.199,305.015c0,0,0.187,0.036,0.342,0.13c0.162,0.091,0.296,0.243,0.356,0.411c0.063,0.141,0.051,0.311-0.012,0.482
				c-0.056,0.167-0.163,0.336-0.163,0.336s-0.182,0.003-0.351-0.08c-0.175-0.077-0.339-0.24-0.426-0.432
				c-0.056-0.178-0.028-0.375,0.05-0.544C677.067,305.152,677.199,305.015,677.199,305.015z"/>
		</g>
		<g>
			<path d="M676.545,306.339c0,0-0.175,0.083-0.353,0.117c-0.158,0.056-0.367,0.053-0.587-0.083l-0.156-0.146
				c-0.055-0.039-0.083-0.134-0.118-0.194c-0.071-0.13-0.056-0.291-0.035-0.4c0.077-0.224,0.242-0.315,0.242-0.315
				s0.182,0.1,0.31,0.155c0.161,0.047,0.229,0.009,0.317,0.072c0.102,0.069,0.237,0.229,0.329,0.424
				C676.563,306.148,676.545,306.339,676.545,306.339z"/>
		</g>
		<g>
			<path d="M676.785,307.396c0,0-0.091,0.173-0.236,0.3c-0.119,0.148-0.409,0.195-0.667,0.172c-0.25-0.084-0.478-0.194-0.579-0.44
				c-0.105-0.212-0.064-0.386-0.064-0.386s0.145-0.042,0.36-0.105c0.074-0.02,0.145-0.04,0.235-0.059
				c0.084-0.021,0.155-0.004,0.229,0.008c0.071,0.015,0.142,0.03,0.211,0.082c0.062,0.051,0.155,0.102,0.239,0.158
				C676.673,307.235,676.785,307.396,676.785,307.396z"/>
		</g>
	</g>
	<g>
		<g>
			<path fill-rule="evenodd" clip-rule="evenodd" fill="none" stroke="#000000" stroke-miterlimit="10" d="M709.975,306.163
				c0.107,5.778-16.2,11.877-13.189,7.7c3.011-4.179-3.361-3.297,8.659-6.041C705.444,307.822,709.965,305.641,709.975,306.163z"/>
			<path fill-rule="evenodd" clip-rule="evenodd" fill="none" stroke="#000000" stroke-miterlimit="10" d="M701.204,308.836
				c0,0-3.018,2.896-0.006,5.388"/>
			<path fill-rule="evenodd" clip-rule="evenodd" fill="none" stroke="#000000" stroke-miterlimit="10" d="M705.444,307.822
				c0,0,2.906,2.259,0.786,3.621"/>
		</g>
		<g>
			<path d="M709.356,304.8c0,0,0.137,0.132,0.215,0.296c0.085,0.166,0.12,0.362,0.071,0.542c-0.079,0.195-0.236,0.364-0.408,0.448
				c-0.166,0.09-0.348,0.093-0.348,0.093s-0.113-0.166-0.176-0.329c-0.069-0.169-0.089-0.339-0.031-0.481
				c0.055-0.17,0.182-0.327,0.341-0.424C709.171,304.844,709.356,304.8,709.356,304.8z"/>
		</g>
		<g>
			<path d="M710.062,306.099c0,0-0.025-0.19,0.037-0.371c0.084-0.199,0.214-0.363,0.312-0.437c0.086-0.067,0.155-0.032,0.314-0.084
				c0.126-0.06,0.304-0.167,0.304-0.167s0.169,0.085,0.254,0.306c0.024,0.108,0.047,0.269-0.021,0.401
				c-0.032,0.062-0.058,0.157-0.11,0.199l-0.15,0.152c-0.215,0.144-0.424,0.155-0.584,0.104
				C710.239,306.175,710.062,306.099,710.062,306.099z"/>
		</g>
		<g>
			<path d="M709.86,307.164c0,0,0.106-0.165,0.263-0.28c0.081-0.06,0.172-0.114,0.232-0.167c0.068-0.054,0.138-0.072,0.209-0.09
				c0.072-0.014,0.144-0.034,0.229-0.016c0.091,0.016,0.162,0.033,0.237,0.05c0.219,0.056,0.364,0.092,0.364,0.092
				s0.047,0.172-0.051,0.389c-0.092,0.25-0.315,0.367-0.562,0.461c-0.257,0.032-0.549-0.003-0.673-0.147
				C709.958,307.333,709.86,307.164,709.86,307.164z"/>
		</g>
	</g>
	<path fill-rule="evenodd" clip-rule="evenodd" d="M668.587,601.552c-0.155-1.263-2.157-1.278-2,0
		c0.529,4.308-1.6,8.306-3.831,11.831c-1.682,2.657-4.379,4.744-5.419,7.742c-0.425,1.222,1.508,1.742,1.928,0.531
		c0.676-1.945,2.56-3.521,3.775-5.171c1.264-1.716,2.369-3.525,3.385-5.396C667.977,608.233,668.986,604.801,668.587,601.552z"/>
	<path fill-rule="evenodd" clip-rule="evenodd" d="M729.247,624.229c-4.732-4.422-8.822-11.492-9.797-18.039
		c0.202-0.352,0.236-0.813-0.08-1.209c-0.112-0.141-0.226-0.282-0.338-0.423c-0.529-0.663-1.794-0.131-1.707,0.707
		c0.77,7.412,5.091,15.316,10.508,20.378C728.774,626.522,730.191,625.111,729.247,624.229z"/>
	<path fill-rule="evenodd" clip-rule="evenodd" d="M739.793,355.793c-5.81,6.136-13.08,10.936-21.059,13.743
		c-1.208,0.425-0.688,2.358,0.531,1.929c8.306-2.922,15.889-7.865,21.941-14.257C742.093,356.271,740.682,354.854,739.793,355.793z"
		/>
	<g>
		<path d="M685.5,329.667c0,0,0.357,0.851,1.078,2.002c0.369,0.567,0.825,1.218,1.418,1.807c0.271,0.321,0.626,0.565,0.954,0.851
			c0.173,0.129,0.367,0.229,0.551,0.346c0.182,0.123,0.374,0.225,0.583,0.289l0.606,0.239l0.636,0.111l0.315,0.057l0.317-0.008
			c0.211-0.005,0.42-0.011,0.625-0.016c0.408-0.04,0.795-0.165,1.171-0.231c0.374-0.084,0.696-0.271,1.013-0.386
			c0.314-0.125,0.603-0.243,0.834-0.396c0.24-0.139,0.449-0.259,0.622-0.358c0.352-0.195,0.552-0.307,0.552-0.307
			s-0.181,0.141-0.497,0.387c-0.161,0.122-0.356,0.269-0.581,0.438c-0.216,0.185-0.491,0.342-0.808,0.49
			c-0.316,0.144-0.637,0.359-1.021,0.479c-0.389,0.102-0.791,0.268-1.231,0.322c-0.223,0.015-0.449,0.029-0.679,0.044l-0.347,0.02
			l-0.349-0.056l-0.703-0.116l-0.672-0.253c-0.229-0.076-0.438-0.19-0.635-0.325c-0.198-0.129-0.408-0.243-0.593-0.384
			c-0.351-0.305-0.711-0.593-0.986-0.937c-0.308-0.317-0.541-0.671-0.768-1c-0.222-0.332-0.402-0.664-0.571-0.966
			C685.704,330.57,685.5,329.667,685.5,329.667z"/>
	</g>
	<g>
		<path d="M695.799,332.615c-0.061,0.03-0.126,0.053-0.217,0.027c-0.085-0.03-0.146-0.09-0.198-0.16l0.242-0.081
			c0.094,0.171,0.223,0.31,0.331,0.46c0.12,0.144,0.242,0.275,0.369,0.406c0.136,0.12,0.267,0.229,0.416,0.335
			c0.075,0.048,0.159,0.062,0.247,0.117c0.088,0.027,0.184,0.033,0.299,0.067c-0.086,0.06-0.193,0.107-0.307,0.148
			c-0.112,0.013-0.235,0.012-0.353-0.003c-0.235-0.041-0.448-0.153-0.625-0.298c-0.176-0.146-0.318-0.325-0.43-0.519
			c-0.111-0.196-0.161-0.424-0.194-0.643l0.242-0.081c0.005,0.042,0.004,0.093,0.029,0.131
			C695.672,332.556,695.733,332.589,695.799,332.615z"/>
	</g>
	<path fill-rule="evenodd" clip-rule="evenodd" stroke="#000000" stroke-width="5" stroke-miterlimit="10" d="M426.581,710.5
		C592,711,758,711,923,710.5"/>
</g>
<g id="Layer_2">
	<g>
	</g>
	<g>
	</g>
	<g>
	</g>
	<g>
	</g>
	<g>
	</g>
	<g>
	</g>
	<g>
	</g>
	<g>
	</g>
	<g>
	</g>
	<g>
	</g>
	<g>
	</g>
	<g>
	</g>
	<g>
	</g>
	<g>
	</g>
	<g>
	</g>
</g>
</svg>
