<?xml version="1.0" encoding="utf-8"?>
<!-- Generator: Adobe Illustrator 16.0.0, SVG Export Plug-In . SVG Version: 6.00 Build 0)  -->
<!DOCTYPE svg PUBLIC "-//W3C//DTD SVG 1.0//EN" "http://www.w3.org/TR/2001/REC-SVG-20010904/DTD/svg10.dtd">
<svg version="1.0" id="Layer_1" xmlns="http://www.w3.org/2000/svg" xmlns:xlink="http://www.w3.org/1999/xlink" x="0px" y="0px"
	 width="640px" height="960px" viewBox="0 0 640 960" enable-background="new 0 0 640 960" xml:space="preserve">
<path d="M287.068,754.535c0.17-1.086-1.486-1.551-1.659-0.458c-1.202-0.696-3.583-3.294-5.127-5.05
	c2.034-1.675,3.836-3.633,5.266-5.756c0.621-0.922-0.871-1.783-1.485-0.866c-1.319,1.959-3.002,3.782-4.9,5.343
	c-0.086-0.103-0.19-0.221-0.24-0.278c-1.371-1.583-2.527-3.344-3.58-5.158c2.349-1.731,4.497-3.762,6.342-5.461
	c0.819-0.753-0.402-1.965-1.216-1.218c-1.659,1.525-3.702,3.515-5.95,5.21c-0.14-0.254-0.285-0.508-0.421-0.767
	c-1.052-1.975-2.007-3.997-2.925-6.039c2.074-1.058,4.044-2.4,6.038-3.645c0.937-0.588,0.074-2.075-0.868-1.487
	c-1.937,1.212-3.856,2.564-5.891,3.604c-0.948-1.956-2.558-5.328-1.823-6.727c0.517-0.98-0.969-1.851-1.485-0.868
	c-0.91,1.727,0.212,4.147,0.8,5.793c0.302,0.844,0.629,1.681,0.976,2.508c-1.582,0.646-3.244,1.052-5.047,1.021
	c-1.109-0.021-1.107,1.7,0,1.721c2.06,0.038,3.94-0.447,5.728-1.191c0.832,1.86,1.734,3.691,2.655,5.497
	c0.274,0.531,0.569,1.05,0.86,1.573c-2.59,1.721-5.389,2.899-8.153,2.468c-1.085-0.168-1.55,1.488-0.456,1.66
	c3.308,0.515,6.513-0.764,9.444-2.679c1.156,1.919,2.464,3.735,3.89,5.477c-1.748,1.256-3.636,2.296-5.593,2.997
	c-1.036,0.373-0.588,2.035,0.458,1.66c2.186-0.785,4.279-1.938,6.207-3.337c1.61,1.886,5.583,6.522,7.536,5.819
	c0.471-0.167,0.692-0.567,0.601-1.058C287.053,754.741,287.062,754.639,287.068,754.535z"/>
<path d="M142.779,574.374c-4.344-6.801-6.895-15.356-10.708-22.581c-5.042-9.553-9.017-19.748-12.63-29.913
	c-0.739-2.072-4.064-1.181-3.319,0.915c3.067,8.626,6.547,17.051,10.366,25.367c2.071,4.511,4.481,8.845,6.751,13.254
	c2.405,4.67,3.552,9.686,6.268,14.176c0.074,0.249,0.199,0.497,0.428,0.724c0.048,0.047,0.096,0.095,0.144,0.143
	C141.445,577.82,143.849,576.048,142.779,574.374z"/>
<path d="M38.382,633.82c-0.222-0.416-0.407-0.848-0.571-1.289c-0.002-0.011-0.006-0.02-0.01-0.029
	c-0.509-1.382-0.708-2.848-0.446-4.276c0.039-0.38,0.089-0.734,0.16-1.013c0.825-3.26,3.421-4.949,6.28-6.204
	c2.028-0.889,0.275-3.854-1.737-2.97c-4.208,1.846-6.938,4.61-8.092,9.176c-0.784,3.102,0.425,7.688,3.038,9.573
	c1.267,0.913,2.485-0.287,2.484-1.527C39.025,634.798,38.639,634.304,38.382,633.82z"/>
<g>
	<path fill-rule="evenodd" clip-rule="evenodd"  fill="#000000" stroke="#000000" stroke-width="3" stroke-miterlimit="10" d="M35.611,307.354
		c-1.358,0.907-2.665,1.802-3.856,2.507c-0.855,0.502-1.683,1.028-2.5,1.558c-0.646,0.556-1.275,1.141-1.88,1.782
		c-9.298,9.855-16.798,20.748-18.122,35.109c-1.439,15.622,0.219,30.102,7.168,42.154c0.253,0.047,0.498,0.178,0.682,0.434
		c1.316,1.817,2.891,3.408,4.57,4.891c-1.161-1.716-2.193-3.449-3.062-5.01c-2.297-4.13-6.467-10.745-7.164-16.55
		c-0.116-0.25-0.14-0.54-0.065-0.808c-0.063-1.046,0.001-2.057,0.213-3.021c-0.012-1.585-0.001-3.157,0.048-4.715
		c-0.345-3.617-0.39-7.388-0.085-11.33c1.093-14.227,5.97-26.739,15.835-35.975c2.609-3.609,6.205-6.638,10.201-8.878
		c0.392-0.269,0.781-0.537,1.161-0.781c3.155-2.015,6.481-3.781,10.254-3.909c0.831-0.295,1.676-0.57,2.542-0.791
		c0.053-0.015,0.103-0.036,0.153-0.054C46.182,304.258,40.614,305.077,35.611,307.354z"/>
	<path fill-rule="evenodd" clip-rule="evenodd" stroke="#000000" stroke-width="3" stroke-miterlimit="10" d="M98.253,343.464
		c0.001-0.002,0.002-0.004,0.002-0.006c0.044-0.214,0.121-0.426,0.197-0.636c-0.012-0.067-0.004-0.138,0.001-0.212
		c-0.654,0.297-1.345,0.553-2.084,0.758c-0.07,0.177-0.172,0.346-0.355,0.483c-0.057,0.044-0.117,0.089-0.174,0.132
		c-0.041,0.03-0.11,0.024-0.162,0.043c-1.02,1.277-2.604,1.048-4.22,1.018c-0.104-0.001-0.183-0.037-0.269-0.059
		c-1.75,0.19-3.495,0.395-5.241,0.505c-1.98,0.232-3.983,0.348-5.899,0.506c-2.14,0.175-4.126,0.6-5.993,1.202
		c-9.192,4.814-15.794,13.775-18.068,24.012c-1.81,8.145-3.215,23.356,3.307,29.8c0.037,0.037,0.048,0.078,0.078,0.117
		c-0.061-0.271-0.127-0.537-0.175-0.813c-4.328-15.633-1.558-33.923,8.617-45.807c2.937-3.426,8.066-6.141,12.545-6.818
		c5.277-0.8,10.71-0.609,16.502-0.437c0.682-0.303,1.356-0.63,2.014-1.022c0.016-0.01,0.029-0.022,0.045-0.03
		c-0.493-0.545-0.706-1.195-0.732-1.87C98.087,344.075,98.083,343.777,98.253,343.464z"/>
	<path fill-rule="evenodd" clip-rule="evenodd" fill="#000000" stroke="#000000" stroke-width="3" stroke-miterlimit="10" d="M28.193,367.604
		c-9.37-20.057,10.835-52.47,31.388-51.968C36.188,324.93,28.447,343.148,28.193,367.604z"/>
	<path fill-rule="evenodd" clip-rule="evenodd" stroke="#000000" stroke-width="3" stroke-miterlimit="10" d="M51.066,349.774
		c-2.182-10.301,5.779-22.19,15.844-23.597C58.109,331.692,52.826,339.472,51.066,349.774z"/>
</g>
<path stroke="#000000" stroke-width="3" stroke-miterlimit="10" d="M96.378,343.346c-0.028,0.081-0.061,0.16-0.112,0.235
	c-0.041,0.077-0.072,0.157-0.114,0.233c-0.325,0.605-0.016,1.174,0.447,1.434c-0.201,0.368-0.227,0.835,0.111,1.238
	c3.245,3.876,0.056,12.655-0.806,17.062c-0.262,1.335-0.444,2.684-0.545,4.026c0.171,0.948,1.622,2.481,2.224,2.368
	c-0.103-0.311-0.203-0.62-0.3-0.924c0.018-0.203,0.027-0.397,0.062-0.602c0.127-4.194,1.614-8.613,2.17-12.548
	c0.443-3.14,1.003-6.712-0.467-9.564c-0.316-0.318-0.538-0.67-0.68-1.046c-0.063-0.083-0.105-0.176-0.174-0.256
	c-0.064-0.078-0.138-0.117-0.209-0.168c0.073-0.139,0.131-0.279,0.202-0.417c-0.002-0.029,0.003-0.06,0.003-0.086
	c-0.103-0.256-0.107-0.554,0.063-0.867c0.01-0.017,0.016-0.035,0.025-0.051c0.041-0.191,0.115-0.379,0.182-0.565
	c-0.033-0.159-0.036-0.333,0.038-0.533c0.176-0.482,0.403-0.936,0.634-1.39c0.181-2.457,0.456-4.952,0.192-7.354
	c-0.201-1.842-0.667-3.553-1.281-5.215c-4.008-8.679-13.341-16.065-20.933-19.573c-8.175-3.779-17.255-6.564-26.329-6.25
	c-0.95,0.034-2.839,0.127-4.91,0.4c-0.128,0.062-0.276,0.101-0.446,0.103c-0.435,0.009-0.879,0.092-1.32,0.172
	c-0.229,0.042-0.454,0.085-0.681,0.133c-4.074,1.026-8.295,4.524-11.67,6.52c-0.023,0.012-0.046,0.027-0.071,0.041
	c-0.156,0.153-0.306,0.307-0.477,0.445c-1.057,0.845,0.438,2.323,1.483,1.484c1.521-1.219,2.354-2.727,4.163-3.628
	c0.167-0.084,0.346-0.154,0.52-0.234c0.49,0.746,1.927,0.57,1.927-0.557c0-0.082,0.049-0.157,0.076-0.236
	c0.954-0.307,1.936-0.535,2.9-0.638c0.637-0.069,0.961-0.585,0.992-1.089c1.543-0.292,3.333-0.484,5.013-0.613
	c0.005,0,0.012,0,0.018-0.001c2.547-0.197,4.828-0.24,5.528-0.22c3.165,0.082,6.338,0.602,9.464,1.395
	c0.148,0.02,0.292,0.017,0.442,0.042c0.19,0.033,0.334,0.109,0.45,0.204c4.596,1.249,9.083,3.055,13.275,4.991
	C88.051,316.141,102.742,330.461,96.378,343.346z"/>
<path stroke="#000000" stroke-width="3" stroke-miterlimit="10" d="M75.352,359.149c-0.218-0.162-0.435-0.319-0.64-0.477
	c-0.009-0.005-0.009-0.011-0.014-0.017l-0.874-0.875c-0.82-0.821-2.374,0.291-1.649,1.273c0.057,0.075,0.117,0.135,0.172,0.203
	c-0.002,0.004-0.004,0.005-0.008,0.009l0.089,0.087c0.623,0.745,1.303,1.244,2.112,1.872c0.143,0.11,0.282,0.82,0.422,1.569
	c-0.506,0.1-1.012,0.117-1.525-0.104c-1.229-0.525-2.302,1.283-1.061,1.814c1.078,0.463,2.085,0.517,3.154,0.302
	c1.03,1.857,2.957,3.265,5.079,3.517c3.806,0.454,10.464-0.643,11.024-5.425C92.714,353.661,79.483,352.619,75.352,359.149z
	 M76.755,360.843c0.008-0.017,0.023-0.024,0.033-0.042c0.697-1.372,2.011-2.398,3.533-3.043c-1.392,2.51-1.343,6.123,0.154,8.371
	c-0.155-0.031-0.311-0.062-0.453-0.097C77.222,365.285,77.327,363.038,76.755,360.843z M84.842,366.127
	c-0.149-0.046-0.309-0.066-0.489-0.042c-4.032,0.564-3.926-8.639-0.071-8.963c0.104-0.009,0.185-0.048,0.273-0.079
	c2.758,0.202,5.129,1.777,5.065,5.121C89.573,364.523,87.3,365.702,84.842,366.127z"/>
<path stroke="#000000" stroke-width="3" stroke-miterlimit="10" d="M64.29,402.351c-3.469-2.046-5.596-5.698-6.825-9.452
	c-0.419-1.282-2.447-0.734-2.025,0.558c1.109,3.391,2.878,6.71,5.544,9.088c-1.313,0.704-2.311,1.469-3.71,1.983
	c-1.301,0.214-2.688,0.415-3.975,0.592c-3.784,0.127-7.657-0.114-11.371-0.857c-7.788-2.582-15.593-6.565-21.018-12.414
	c-8.209-8.854-8.079-22.771-10.002-33.957c-0.229-1.333-2.252-0.766-2.026,0.558c1.713,9.956,1.931,21.559,7.313,30.494
	c-0.363,0.373-0.5,0.984-0.042,1.476c2.714,2.913,5.283,6.097,8.449,8.541c3.932,3.04,8.56,4.834,13.231,6.413
	c1.043,0.354,2.093,0.628,3.146,0.858c0.562,0.268,1.128,0.526,1.712,0.725c2.958,0.045,5.888,0.593,8.86,0.222
	c0.013-0.001,0.027-0.005,0.04-0.005c0.278,0.001,0.558,0.005,0.837,0.005c2.17,0.004,3.955-0.075,6.054-0.561
	c1.271-0.295,2.245-1.258,3.312-2.016c-0.117,1.001-0.201,2.008-0.403,3c-0.269,1.321,1.757,1.885,2.026,0.557
	c0.329-1.62,0.333-3.289,0.7-4.9c0.067-0.292,0.007-0.542-0.111-0.748C64.101,402.458,64.197,402.403,64.29,402.351z"/>
<path d="M100.753,371.772c-0.592-1.177-1.796-2.025-2.174-3.289c-0.66-2.21-4.052-1.314-3.528,0.861
	c0.344,0.654,0.683,1.312,0.948,1.999c0.042,0.063,0.089,0.125,0.131,0.189c0.062,0.081,0.123,0.163,0.186,0.244
	c0.021,0.028,0.021,0.056,0.04,0.083c0.046,0.064,0.084,0.129,0.134,0.194c0.239,0.295,0.501,0.563,0.725,0.871
	c0.11,0.154,0.168,0.256,0.207,0.33c-0.78,0.673-2.206,0.952-3.172,1.374c-0.501,0.043-0.998,0.279-1.36,0.793
	c-1.645,2.328-0.44,3.958,0.195,6.348c0.405,1.522-2.588,2.014-3.562,2.1c-0.187,0.016-0.35,0.065-0.504,0.121
	c-0.631-0.731-1.907-0.594-2.534,0.033c-0.766,0.767-0.616,1.799,0,2.581c0.571,0.728,1.393,1.272,2.291,1.515
	c0.278,0.24,0.645,0.397,1.127,0.389c1.451-0.026,2.188,1.469,2.58,2.64c0.353,1.047-0.308,1.849-1.136,2.452
	c-0.754,1.425-2.847,1.917-4.615,2.041c-2.989,1.26-6.911,0.629-9.907,0.242c-0.027-0.003-0.047-0.019-0.074-0.025
	c-1.194-0.104-2.391-0.255-3.575-0.28c-0.444-0.008-0.776,0.142-1.053,0.347c-0.705,0.258-1.315,0.932-1.228,1.708
	c0.063,0.564,0.161,1.125,0.262,1.688c0.017,0.07,0.043,0.131,0.043,0.213v0.055c0.027,0.154,0.048,0.312,0.075,0.466
	c0.012,0.027,0.032,0.045,0.042,0.075c0.738,2.141,1.324,4.275,1.946,6.396c0.586,1.53,1.002,3.133,1.787,4.572
	c0.051,0.014,0.097,0.047,0.149,0.055c0.536,1.286,1.1,2.545,1.776,3.706c2.304,3.957,4.812,7.834,7.833,11.282
	c1.555,1.773,4.126-0.818,2.58-2.58c-3.131-3.573-5.603-7.694-7.988-11.79c-1.745-2.998-2.52-6.547-4.251-9.521
	c0.019-1-0.161-1.966-0.338-2.934c2.133,0.163,4.216,0.443,6.374,0c0.271-0.054,0.487-0.159,0.67-0.286
	c4.787,0.521,10.861-0.142,13.387-4.271c1.618-2.648,0.775-6.311-1.437-8.357c0.731-0.379,1.395-0.873,1.929-1.526
	c0.739-0.904,1.054-1.976,1.011-3.136c-0.044-1.267-1.151-2.651-0.957-3.833c1.61-0.872,3.887-1.126,4.887-2.857
	C101.272,374.014,101.291,372.836,100.753,371.772z"/>
<path d="M63.693,408.445c-0.295-2.192-3.61-1.254-3.317,0.914c0.106,0.792-0.209,1.519-0.732,2.179
	c-0.041,0.117-0.11,0.216-0.195,0.303c-0.586,1.438-1.87,2.98-2.894,3.851c-0.685,0.583-1.423,1.233-2.203,1.806
	c0.485,0.556,1.262,0.861,2.099,0.416C60.136,415.961,64.33,413.166,63.693,408.445z"/>
<path fill-rule="evenodd" clip-rule="evenodd" d="M729.553,811.03c-0.723-4.188-0.751-8.373-0.121-12.351
	c-0.114-0.078-0.196-0.165-0.222-0.258c-2.069-7.676-9.012-6.549-14.097-7.299c-9.543-1.404-19.374-0.835-28.924-2.221
	c-16.309-2.374-32.849-4.357-48.645-8.801c-22.87-6.432-45.148-11.11-68.811-3.668c-11.918,3.748-24.658,4.897-36.401,7.107
	c-1.773-17.914-4.616-33.763-4.55-49.6c0.07-15.735,0.575-31.593,9.698-46.183c14.77-23.619,22.411-49.671,17.53-77.752
	c-1.791-10.319-2.342-19.361,4.135-28.127c1.596-2.151,2.253-5.333,2.464-8.107c2.296-30.145,5.794-60.283,6.223-90.462
	c0.512-35.774-1.773-71.585-2.636-107.384c-0.548-22.691-7.226-41.86-27.568-54.809c-3.324-2.117-6.67-10.046-5.235-12.511
	c2.554-4.384,8.371-8.254,13.505-9.48c14.221-3.402,22.09-12.266,26.117-25.578c3.295-10.895,2.276-21.495-3.527-32.582
	c5.314,1.733,9.021,3.464,12.901,4.004c2.073,0.289,5.021-0.943,6.44-2.514c0.864-0.956,0.121-4.214-0.886-5.819
	c-1.806-2.876-4.333-5.303-6.595-7.884c-3.346-3.824-8.426-7.092-9.797-11.517c-0.018-0.061-0.04-0.117-0.062-0.177
	c-4.899-1.233-9.608-3.103-14.768-3.098c-1.109,0.001-1.109-1.719,0-1.72c4.924-0.005,9.445,1.645,14.1,2.887
	c-6.666-18.917-21.69-29.904-41.896-30.438c-21.951-0.58-44.267,20.317-53.355,40.146c-2.521,5.501-2.85,10.268,3.938,14.396
	c-5.754,8.602-11.267,16.807-16.732,25.047c-1.636,2.467-4.863,6.806-4.403,7.254c2.688,2.623,6.037,5.368,9.579,6.124
	c4.752,1.012,9.88,0.25,16.189,0.25c-3.521,5.032-6.011,8.587-9.204,13.146c6.024,0.49,10.857,0.882,15.689,1.275
	c0.124,0.561,0.249,1.124,0.372,1.686c-3.003,1.751-6.005,3.5-10.657,6.211c5.098,3.267,8.907,6.98,13.402,8.239
	c4.729,1.323,10.112,0.297,15.21,0.297c0.577,0.828,1.159,1.656,1.736,2.484c-2.343,2.963-4.089,6.954-7.127,8.712
	c-13.901,8.04-23.9,18.639-26.815,35.047c-2.126,11.993-5.52,23.801-7.003,35.859c-2.771,22.599-4.322,45.346-6.931,67.97
	c-0.657,5.699-2.261,11.892-5.339,16.61c-20.041,30.705-41.829,60.053-69.36,84.668c-1.777,1.588-3.817,3.941-3.991,6.08
	c-0.671,8.368-7.849,8.869-13.137,11.323c-5.151,2.393-9.574,1.362-13.397-3.797c-2.396-3.236-6.513-5.422-10.208-7.439
	c-12.049-6.578-22.003-15.04-28.82-27.309c-3.538-6.371-7.639-13.598-13.485-17.171c-5.221-3.196-16.699-4.915-19.217-1.978
	c-5.469,6.383-8.933,16.002-9.616,24.587c-0.865,10.873,1.493,22.086,3.265,33.02c0.235,1.442,1.349,2.74,2.653,4.005
	c2.143,0.24,4.738-0.428,7.041-0.804c0.915-1.125,1.659-2.28,1.883-3.531c0.897-5.02,0.251-10.316,0.251-15.497
	c0.669-0.322,1.337-0.647,2.005-0.975c6.051,5.915,12.224,11.71,18.098,17.797c2.648,2.744,6.22,5.818,6.774,9.172
	c3.282,19.862,26.184,30.425,43.143,19.408c7.84-5.094,14.905-11.322,25.208-11.624c25.164-0.735,45.927-12.408,65.225-27.388
	c1.63-1.266,3.589-2.104,6.786-3.938c-0.777,12.93-1.75,24.308-2.046,35.705c-0.196,7.63,0.183,15.331,1.039,22.915
	c0.538,4.784,3.557,9.426,3.521,14.116c-0.164,22.768-3.819,45.659,3.603,68.052c1.062,3.206,1.768,6.748,1.639,10.101
	c-0.988,25.673-2.288,51.339-3.323,77.012c-0.16,3.971-1.997,21.339-0.603,21.339c0.473,1.232,1.012,2.364,1.581,3.443
	c-9.851-0.09-19.699-0.226-29.536,0.302c0.023-0.07,0.044-0.142,0.068-0.211c-17.684,0.101-35.366,0.092-53.045-0.181
	c-19.255-0.296-38.421-6.415-57.631-9.854c-6.784-1.214-7.92-5.677-8.2-11.878c-0.618-13.635-1.486-27.335-3.62-40.788
	c-0.868-5.452,0.167-9.076,3.096-13.09c6.166-8.462,12.14-17.066,18.295-25.76c0.003,0.002,0.728,0.04,0.996,0.407
	c11.548,15.796,26.908,24.916,46.351,27.837c3.686,0.552,7.564,4.001,10.108,7.123c5.429,6.666,13.613,10.234,21.171,5.951
	c6.938-3.933,12.72-9.974,18.787-15.331c2.702-2.387,4.797-5.448,7.272-8.102c10.68-11.425,18.531-23.987,15.157-40.528
	c-0.551-2.708-2.675-6.021-4.993-7.133c-1.688-0.806-5.107,1.206-7.348,2.61c-1.864,1.172-3.021,3.405-4.685,4.964
	c-7.442,6.979-14.496,14.508-22.676,20.499c-3.138,2.299-10.148,2.995-13.257,1.032c-16.867-10.654-33.16-22.235-49.369-33.892
	c-1.963-1.412-3.211-5.214-3.116-7.85c0.487-13.365,1.971-26.705,2.221-40.071c0.187-9.918-6.562-16.606-16.554-15.396
	c-22.154,2.689-38.57-6.31-52.981-22.097c-13.657-14.958-30.81-21.274-51.231-17.276c-15.413,3.017-30.88,5.76-46.246,8.609
	c-6.569-14.05-10.489-16.438-24.192-15.473c-3.144,0.221-6.344,0.62-9.436,0.25c-2.03-0.238-4.921-1.178-5.707-2.698
	c-7.598-14.669-18.308-28.877-21.247-44.512c-3.313-17.623-11.605-35.75-4.688-54.589c0.46-1.251,0.264-2.906-0.072-4.265
	c-3.848-15.558-7.463-30.814-24.188-38.947c-1.522-0.739-2.864-1.57-4.068-2.466c-0.625,0.097-1.243,0.145-1.831,0.085
	c-1.088-0.109-2.007-0.256-2.877-0.466c0.016,0.015,0.034,0.024,0.048,0.041c0.54,0.584,0.132,1.395-0.607,1.468
	c-0.168,0.036-0.335,0.036-0.502,0c-0.192-0.024-0.341-0.106-0.465-0.209c-0.067-0.019-0.135-0.038-0.205-0.062l0.005,0.015
	c-0.036-0.016-0.071-0.031-0.108-0.047c-0.032-0.014-0.059-0.014-0.093-0.029c-0.017-0.008-0.023-0.021-0.04-0.029
	c-6.738-2.951-12.5-5.475-20.559-9.004c0.321-0.177-1.898-0.979-3.286-1.27c-0.08,0.045-0.147,0.095-0.227,0.142
	c-0.381,0.432-0.77,0.821-1.125,1.124c-0.866,0.735-1.814,1.581-2.829,2.229c-3.63,4.414-3.681,10.257-3.686,16.116
	c-0.012,15.66,0.156,31.323-0.074,46.978c-0.436,29.787-1.052,59.57-1.697,89.352c-0.184,8.521-1.14,17.041-0.999,25.552
	c0.166,9.903-1.628,18.478-8.972,26.045c-2.952,3.041-4.446,9.09-3.955,13.471c0.595,5.278,4.838,8.76,11.25,7.982
	c2.319-0.277,4.793,0.729,7.197,1.153c-0.086,0.763-0.172,1.525-0.258,2.289c-3.642,0-7.283-0.014-10.923,0.003
	c-17.74,0.072-17.74,0.077-17.418,17.27c0.01,0.572,0.013,1.146,0,1.718c-0.537,24.333-1.195,48.659-1.54,72.993
	c-0.101,7.116,0.951,14.234,1.026,21.36c0.167,15.922,0.052,31.847,0.052,50.051c-7.928,0-15.782-0.027-23.612-0.036
	c0.326,1.715,0.505,3.478,0.505,5.278c0,2.098-0.238,4.146-0.677,6.124c20.792-0.389,41.583-0.774,62.375-1.19
	c15.747-0.316,31.501-1.781,47.224-1.452c23.728,0.497,47.425,2.304,71.15,3.114c7.049,0.243,14.201-1.827,21.215-1.392
	c29.965,1.864,59.898,4.255,89.837,6.518c1.616,0.121,4.105,0.333,4.638,1.333c6.268,11.734,17.925,12.553,28.807,13.613
	c15.679,1.526,31.334,1.124,45.564-7.541c3.165-1.932,7.054-3.579,10.672-3.715c14.25-0.541,28.504-0.966,42.762-1.229
	c0.915,0.505,2.047,0.763,3.41,0.65c14.17-1.181,28.367-0.68,42.567-0.646c2.012,0.007,3.531-0.747,4.57-1.887
	c4.332,1.84,9.312,2.51,14.703,2.261c12.292-0.569,24.504-2.645,36.788-3.52c32.97-2.349,65.939-4.809,98.95-6.438
	c18.807-0.929,37.694-0.16,56.543-0.493c5.58-0.096,7.271,1.783,7.54,7.389c0.657,13.654,1.881,27.304,3.574,40.866
	c0.334,2.667,3.484,6.487,5.904,6.979c2.614,0.533,6.102-1.896,8.8-3.657c1.525-0.995,2.52-3.133,3.253-4.956
	c6.224-15.458,12.353-30.931,18.358-46.051c0.154-2.077,0.266-4.158,0.249-6.235C729.387,811.992,728.117,802.716,729.553,811.03z
	 M441.135,690.454c1.857-1.204,4.485-1.214,6.763-1.764c0.773,3.772,3.247,8.255,2.022,11.194
	c-5.405,12.977-10.997,25.744-22.247,35.567c-5.753,5.024-8.532,13.479-17.167,15.546c-6.678,1.596-13.066,2.124-17.135-5.487
	c19.212-4.775,34.762-14.46,44.753-31.806c2.394-4.159,5.208-8.345,1.068-13.256C435.894,696.541,437.342,692.91,441.135,690.454z
	 M395.653,720.395c3.973,2.574,12.378,1.238,17.281-1.218c7.959-3.989,14.708-10.383,22.715-16.318
	c-2.358,12.884-10.943,20.671-20.176,27.626c-22.118,16.664-63.767,4.343-76.68-16.913c-2.961-4.876-3.958-8.914-1.364-14.232
	c2.811-5.76,4.695-11.97,6.331-16.265C361.065,695.739,377.847,708.856,395.653,720.395z M179.26,596.009
	c15.168-2.971,30.334-5.946,45.484-8.999c21.138-4.266,38.61,1.14,53.256,17.665c9.713,10.958,21.675,19.657,36.797,22.246
	c4.484,0.771,9.233,1.608,13.629,0.927c8.127-1.26,10.924,3.264,10.406,9.602c-1.083,13.267-1.82,26.826-5.24,39.588
	c-7.106,26.525-19.039,50.779-40.305,69.266c-0.066,0.056-0.144,0.105-0.214,0.156c-1.315,1.345-2.942,2.489-4.557,3.462
	c-3.673,3.681-8.124,6.73-12.772,7.38c-15.744,8.732-29.014,3.046-37.309-13.745c-10.69-21.647-6.604-44.25-7.982-66.585
	c-0.486-7.877-1.773-15.858-4.036-23.389c-0.854-2.84-5.447-6.387-8.429-6.474c-24.865-0.736-49.756-1.108-74.631-0.844
	c-18.282,0.198-36.553,1.487-54.827,2.368c-2.761,0.133-5.502,0.689-8.706,1.109c-1.472-2.157-3.048-4.461-5.119-7.496
	c12.883-3.416,22.809-10.063,24.846-23.222c1.824-11.79-0.155-23.405-8.813-32.258c5.782-8.365,10.847-7.824,18.622-2.515
	C130.576,598.737,154.483,600.858,179.26,596.009z M60.279,647.988c-0.907-2.345-1.822-4.688-3.115-8.013
	c1.713,0.375,2.896,0.274,3.22,0.755c6.772,10.01,14.082,19.744,19.733,30.362c1.572,2.954-0.454,10.632-3.246,12.469
	c-4.733,3.112-11.388,3.298-17.235,4.716c-0.583-3.754-2.292-7.75-1.536-11.209C60.211,667.412,64.171,658.051,60.279,647.988z
	 M103.024,537.007c5.505,7.921,11.603,15.88,16.791,24.393c5.047,8.288,9.165,17.144,14.157,26.634
	C101.035,578.012,93.96,563.045,103.024,537.007z M164.795,578.576c2.303-0.057,4.729,4.812,8.153,8.578
	c-18.638,4.516-30.901,3.041-35.188-3.386C144.977,573.323,155.659,578.807,164.795,578.576z M118.622,526.203
	c7.131,14.687,14.338,28.952,20.812,43.547c0.871,1.961-1.965,5.566-3.561,9.624c-9.77-16.247-18.32-30.466-27.097-45.061
	C111.705,531.902,114.688,529.444,118.622,526.203z M55.001,567.669c0.357-13.46-0.257-26.946,0.178-40.401
	c0.701-21.676,2.332-43.326,2.771-65.005c0.259-12.797-1.022-25.625-1.706-40.536c4.494,1.529,7.356,2.725,10.333,3.466
	c6.181,1.542,12.44,2.768,18.631,4.271c3.765,0.915,9.005,0.908,10.926,3.38c9.406,12.104,16.023,25.504,13.697,42.45
	c-6.397-4.059-10.313-8.099-10.282-16.27c0.042-11.281-7.646-17.944-17.505-22.024c-4.383-1.813-9-3.064-15.265-3.505
	c2.139,2.55,3.771,6.107,6.504,7.487c15.044,7.609,19.246,14.734,17.99,31.567c-0.193,2.588-0.062,6.782,1.349,7.531
	c2.073,1.095,5.437-0.245,10.31-0.768c1.693,8.652,3.67,18.531,5.535,28.426c0.42,2.229-0.081,4.761,0.773,6.753
	c2.325,5.419-0.243,8.604-4.826,9.874c-6.077,1.682-6.757-3.536-7.97-7.621c-1.437-4.852-2.856-9.703-4.883-16.598
	c-3.405,4.173-4.967,6.089-6.835,8.379c-10.945-8.767-13.834-20.427-11.896-34.064c0.293-2.06-1.437-4.409-2.232-6.623
	c-1.151,1.873-3.077,3.654-3.316,5.637c-0.884,7.328-2.197,14.816-1.523,22.073c1.121,12.071,10.12,19.347,18.871,26.403
	c1.531,1.233,3.489,2.006,4.832,3.396c5.106,5.278,7.831,10.425,4.729,18.723c-2.332,6.24-0.834,13.971-0.73,21.03
	c0.051,3.403,2.419,8.415,0.945,9.871c-3.648,3.604-8.84,7.639-13.528,7.79c-10.561,0.334-18.743,4.263-27.974,10.922
	C53.633,585.013,54.771,576.352,55.001,567.669z M50.334,634.968c-1.803,1.402-3.882,2.384-6.193,2.511
	c-2.105,0.116-4.796-1.846-5.757-3.658c-1.169-2.199-1.606-4.774-0.579-7.105c0.839-1.906,2.53-3.077,4.49-3.453
	c1.74-0.503,3.824-0.228,5.503,0.975c1.739,1.245,3.377,2.772,4.017,4.889C52.408,631.087,52.063,633.622,50.334,634.968z
	 M48.215,616.743c-0.934-0.61-1.868-1.22-2.801-1.83c7.508-7.806,14.324-16.474,22.707-23.188
	c9.756-7.815,23.432,0.462,24.864,14.199c2.06,19.744-12.037,31.087-31.347,25.107c-1.423-0.439-2.685-1.788-3.734-2.966
	C54.6,624.354,51.433,620.526,48.215,616.743z M181.214,807.354h-61.578v-79.317h61.578V807.354z M266.002,815.47
	c-12.475-0.735-24.06-1.485-35.653-2.084c-10.84-0.562-21.692-1.338-32.534-1.28c-5.852,0.031-8.635-1.816-8.615-7.7
	c0.052-14.788,0.27-29.582-0.007-44.367c-0.213-11.397-1.263-22.775-1.581-34.172c-0.185-6.613-5.464-6.095-9.16-6.451
	c-6.521-0.632-13.161-0.167-19.745,0.033c-12.575,0.39-25.144,1.113-37.72,1.305c-6.397,0.096-9.373,2.253-9.141,9.132
	c0.798,23.709,1.147,47.43,1.827,71.146c0.131,4.602-0.405,8.017-6.155,7.847c-1.372-0.042-2.753,0.906-4.152,0.982
	c-23.65,1.3-47.303,2.533-72.779,3.878V653.609h25.508c-1.811,7.972-3.12,16.117-5.547,23.91
	c-4.677,15.014,2.619,23.556,18.104,20.571c20.102-3.877,26.245-14.496,19.697-34.047c-0.894-2.665-1.782-5.336-3.469-10.392
	c16.752,0,32.405-0.039,48.057,0.011c21.167,0.064,42.34,0.546,63.499,0.195c21.091-0.347,21.456-0.75,24.238,19.859
	c1.171,8.682,1.294,17.721,0.35,26.432c-2.54,23.45,5.273,44.079,17.206,63.2c2.637,4.225,10.453,5.826,16.225,7.291
	c4.538,1.15,9.602,0.233,14.01,0.233C267.648,785.693,266.851,800.1,266.002,815.47z M278.642,813.306
	c-1.077-13.529-2.401-26.711-2.918-39.918c-0.089-2.275,3.24-4.687,6.499-6.628c-4.044,17.877-2.141,33.371,14.87,46.546H278.642z
	 M300.428,809.795c-9.209-4.025-14.436-21.221-13.036-33.895c1.22-11.049,6.525-18.097,18.553-24.161
	c0.74,13.312,1.839,25.688,2.029,38.08c0.33,21.538,1.904,23.606,23.759,27.349c4.104,0.701,8.17,1.635,12.254,2.462
	c0.006,0.762,0.012,1.522,0.021,2.284c-3.928,0-8.172,0.971-11.728-0.183C321.503,818.234,310.809,814.33,300.428,809.795z
	 M362.413,830.536c-12.56,7.104-26.325,6.249-39.911,4.683c-5.181-0.6-10.398-2.683-15.081-5.095
	c-2.441-1.257-3.759-4.701-5.583-7.159c0.664-0.636,1.326-1.271,1.991-1.908c13.397,6.853,27.612,8.482,42.207,6.224
	c3.719-0.577,7.012-3.768,10.741-4.458c2.922-0.541,6.213,0.924,9.34,1.498C364.91,826.445,364.235,829.506,362.413,830.536z
	 M520.118,191.122c12.984-3.519,28.849,3.133,37.395,16.429c-5.06,0-9.617-0.6-13.912,0.215c-2.79,0.529-5.185,3.12-7.759,4.787
	c2.211,1.712,4.174,4.073,6.673,5.019c8.687,3.285,17.595,5.979,26.319,9.167c1.339,0.489,2.161,2.386,2.552,2.842
	c-5.189,1.163-10.363,2.324-15.538,3.485c1.986,4.61,3.765,9.323,5.996,13.812c6.871,13.834,0.163,36.161-12.524,41.616
	c-5.104-11.359-9.846-22.896-15.396-34.028c-8.942-17.923-22.649-24.492-45.824-21.839c-2.792,0.318-5.594,0.518-8.469,0.779
	C480.146,217.18,500.238,196.514,520.118,191.122z M511.091,320.257c1.662-3.258,3.242-7.914,2.071-10.864
	c-1.088-2.749-5.604-4.923-9.012-5.789c-5.373-1.366-11.078-1.426-17.375-2.12c3.334-4.686,5.807-8.158,9.215-12.947
	c-6.381,0.62-10.939,1.063-15.605,1.517c0.453-11.158,13.175-16.037,12.144-27.421c-7.774,10.014-16.965,12.53-27.538,8.861
	c4.729-9.244,9.89-17.991,13.706-27.289c2.484-6.049,6.504-6.383,11.42-5.595c26.151,4.19,45.446,24.827,47.422,51.378
	c0.21,2.767-2.782,6.739-5.399,8.56c-6.895,4.798-9.573,10.283-5.871,18.234c1.993,4.289,0.209,7.168-3.839,8.828
	c-5.847,2.394-11.58,6.383-19.487,1.634C506.541,324.288,509.804,322.778,511.091,320.257z M297.182,523.583
	c0.898-0.607,1.8-1.216,2.7-1.825c12.503,15.265,25.004,30.53,37.61,45.922c-4.112,3.61-10.871,3.384-15.455-3.01
	c-8.803-12.273-16.651-25.231-24.794-37.968C296.766,525.956,297.182,524.636,297.182,523.583z M288.258,576.774
	c-1.263,2.154-3.764,2.539-5.885,1.542c-2.692-1.267-2.682-5.443-2.941-7.898c-0.266-2.545-0.427-5.101-0.694-7.643
	c-0.022-0.212,0-0.414,0.02-0.617c-0.089-1.729-0.144-3.461-0.418-5.175c-0.093-0.575,0.328-0.965,0.771-1.054
	c0.254-0.479,0.877-0.741,1.312-0.213c1.486,1.798,3.721,2.506,5.632,3.735c0.317,0.204,0.414,0.512,0.382,0.806
	c0.492,0.715,0.806,1.583,0.904,2.518c0.212,2.039,0.343,4.088,0.542,6.129c0.064,0.663,0.129,1.331,0.206,1.996
	c0.002,0.025,0.091,0.669,0.114,0.86c0.041,0.263,0.087,0.529,0.144,0.79C288.993,573.862,288.976,575.55,288.258,576.774z
	 M316.416,576.484c-3.467-3.758-5.809-8.603-9.47-12.112c-3.829-3.676-8.251-7.27-13.092-9.224
	c-6.638-2.681-11.8-6.197-12.812-13.453c-1.124-8.062,2.704-14.141,7.966-18.188c9.119,13.818,17.803,27.39,26.926,40.663
	c6.444,9.371,16.125,11.234,27.728,8.626c3.65-0.819,8.504,3.72,13.515,6.148C346.465,589.804,326.772,587.716,316.416,576.484z
	 M386.478,587.446c-11.077,0.435-20.006,5.407-28.555,12.129c-11.297,8.882-22.079,6.52-31.308-6.519
	c23.691,8.324,39.08-10.633,58.58-16.136c2.049,2.396,4.297,5.029,7.693,9C389.657,586.714,388.077,587.382,386.478,587.446z
	 M461.911,614.439c0.503-18.02,0.98-36.036,1.598-54.051c0.054-1.58,0.704-3.403,1.679-4.645
	c6.522-8.276,14.109-15.862,19.655-24.734c11.765-18.818,23.18-37.924,33.462-57.577c11.375-21.733,20.938-44.388,23.259-69.225
	c1.086-11.637,1.291-23.365,1.569-35.059c0.034-1.406-1.959-2.86-3.011-4.29c-0.907,0.29-1.815,0.581-2.723,0.871
	c0,4.471,0.079,8.945-0.013,13.415c-0.534,26.53-5.763,51.84-18.344,75.538c-9.085,17.115-16.373,35.234-26.098,51.954
	c-19.62,33.739-45.026,61.779-82.24,77.035c-5.675,2.325-11.046,4.715-14.327-2.694c-2.729-6.16-10.037-10.764-0.983-19.487
	c38.177-36.784,70.524-78.059,89.519-128.271c5.177-13.676,8.193-28.165,12.203-42.282c-1.38-0.449-2.756-0.899-4.135-1.349
	c-1.723,3.89-3.769,7.67-5.108,11.687c-5.554,16.594-10.89,33.259-16.305,49.897c-1.034-0.226-2.066-0.451-3.103-0.678
	c0.696-9.984,0.985-20.021,2.182-29.945c1.94-16.084,3.735-32.249,7.013-48.085c2.232-10.784,6.462-21.245,10.651-31.5
	c2.164-5.298,5.635-8.14,13.366-6.875c8.173,1.338,17.901-0.234,25.46-3.741c6.768-3.138,10.966-1.984,13.492,3.041
	c5.447,10.837,11.727,21.927,13.818,33.602c2.601,14.47,1.675,29.641,1.608,44.506c-0.137,30.366-0.787,60.732-1.082,91.101
	c-0.158,16.273-0.216,32.551,0.033,48.823c0.37,24.288-10.074,41.211-32.399,51.482c-16.86,7.759-32.855,17.33-52.058,18.703
	C464.525,622.035,461.739,620.51,461.911,614.439z M688.373,812.718c-5.828,0.43-11.453,0.988-17.09,1.233
	c-23.943,1.039-47.892,2.006-71.845,2.956c-18.298,0.729-36.597,1.675-54.907,1.981c-12.53,0.21-25.077-0.694-37.616-0.724
	c-5.097-0.009-10.24,0.708-15.275,1.59c-13.045,2.293-21.544-4.189-20.964-17.244c0.45-10.221,2.345-20.37,3.333-30.577
	c2.818-29.17,1.702-57.859-4.229-86.922c-3.696-18.1-0.685-37.568-0.685-56.141c28.911,0.631,52.02-16.184,76.76-28.769
	c7.552,13.025,2.527,26.35-0.025,39.624c-3.283,17.035-10.22,32.546-19.185,47.366c-8.655,14.311-8.529,30.708-8.255,46.599
	c0.282,16.51,2.506,32.981,3.779,49.482c0.487,6.348,2.469,9.657,9.07,5.258c0.469-0.313,0.976-0.705,1.508-0.783
	c20.456-3.028,40.887-7.954,61.397-8.319c13.058-0.235,26.146,6.707,39.385,9.7c18.545,4.189,37.239,7.697,56.499,11.624
	C689.651,803.386,689.055,807.752,688.373,812.718z M700.9,863.271c-0.641-13.156-1.347-23.656-1.613-34.168
	c-0.254-10.111-0.053-20.234-0.053-30.602h22.848C717.025,820.658,715.787,842.696,700.9,863.271z"/>
<path fill-rule="evenodd" clip-rule="evenodd" d="M508.289,255.174c-0.888-2.78-3.709-4.944-6.943-8.755
	c-2.91,3.896-6.406,7.316-5.887,8.115c1.666,2.557,4.61,5.028,7.496,5.724C504.36,260.596,508.651,256.303,508.289,255.174z
	 M504.209,255.255c-0.438,0.841-1.432,1.848-2.37,1.089c-0.833-0.137-1.672-0.685-1.812-1.42c-0.137-0.262-0.199-0.562-0.111-0.921
	c0.095-0.377,0.385-0.758,0.758-1.038c0.01-0.072,0.054-0.133,0.084-0.2c0.011-0.021,0.013-0.042,0.026-0.062
	c0.05-0.099,0.111-0.173,0.195-0.242c0.057-0.053,0.124-0.084,0.191-0.12c0.04-0.017,0.061-0.055,0.104-0.064
	c0.012-0.001,0.017-0.004,0.026-0.005c0.005,0,0.012,0,0.015,0c0.034-0.01,0.067-0.015,0.104-0.021
	c0.246-0.308,0.598-0.491,1.105-0.38c0.508,0.11,0.937,0.524,1.246,1.035c0.045,0.031,0.077,0.074,0.13,0.098
	c0.364,0.162,0.475,0.457,0.435,0.749C504.504,254.197,504.48,254.735,504.209,255.255z"/>
<path d="M343.279,566.994c-9.132-2.876-17.303-16.098-22.899-23.359c-6.344-8.235-12.585-16.403-20.498-23.223
	c-1.673-1.439-4.117,0.982-2.434,2.435c9.211,7.937,16.184,17.737,23.637,27.257c5.563,7.111,12.278,17.374,21.281,20.207
	C344.486,570.981,345.387,567.659,343.279,566.994z"/>
<g>
</g>
<g>
</g>
<g>
</g>
<g>
</g>
<g>
</g>
<g>
</g>
</svg>
