<?xml version="1.0" encoding="utf-8"?>
<!-- Generator: Adobe Illustrator 16.0.0, SVG Export Plug-In . SVG Version: 6.00 Build 0)  -->
<!DOCTYPE svg PUBLIC "-//W3C//DTD SVG 1.0//EN" "http://www.w3.org/TR/2001/REC-SVG-20010904/DTD/svg10.dtd">
<svg version="1.0" xmlns="http://www.w3.org/2000/svg" xmlns:xlink="http://www.w3.org/1999/xlink" x="0px" y="0px" width="896px"
	 height="606.934px" viewBox="0 0 896 606.934" enable-background="new 0 0 896 606.934" xml:space="preserve">
<g id="scene_4_xA0_Image_1_">
	<path d="M377.019,340.924c0.166-0.343,0.342-0.678,0.535-1.005c-0.006-0.015-0.013-0.027-0.019-0.043
		c1.805-6.634,3.679-12.985,5.227-19.416c0.948-3.939,1.171-8.053,2.109-11.996c3.198-13.429,5.325-27.065,8.016-40.591
		c1.663-8.364,3.08-16.778,4.572-25.177c0.571-3.216,1.112-6.44,0.932-9.737c-0.059-1.066-0.266-1.865-1.533-2.017
		c-0.398-0.048-0.872-0.352-1.113-0.683c-0.848-1.16-1.627-2.371-2.4-3.584c-4.116-6.459-8.146-12.976-12.366-19.368
		c-2.19-3.319-4.419-6.7-7.146-9.562c-5.062-5.314-10.505-10.247-16.7-14.3c-6.351-4.155-12.816-8.099-19.571-11.56
		c-2.769-1.418-5.491-2.965-8.365-4.132c-3.615-1.468-7.37-2.588-11.051-3.896c-0.769-0.273-1.628-0.406-2.369-0.738
		c-0.485-0.025-0.967-0.168-1.379-0.406c-2.15-0.15-4.502-0.857-6.178-1.227c-2-0.44-3.916-1.131-5.879-1.65
		c-0.308-0.003-0.63-0.07-0.958-0.227c-0.62-0.054-1.246-0.108-1.853-0.163c-0.219-0.861-0.4-1.658-0.626-2.441
		c-0.228-0.791-0.151-1.343,0.383-2.141c1.406-2.098,3.376-3.563,5.144-5.26c2.279-2.188,2.576-5.423,0.821-8.041
		c-1.06-1.582-2.379-2.55-4.38-2.329c-1.243,0.138-2.49,0.229-3.816,0.348c-1.553-2.988-3.624-5.094-7.455-4.69
		c-3.382,0.356-6.006,1.8-7.85,4.618c-0.456-0.146-0.768-0.213-1.052-0.342c-3.967-1.803-9.027-0.19-11.2,3.554
		c-0.699,1.205-0.815,2.481-0.118,3.628c0.947,1.559,2.024,3.057,3.194,4.458c1.166,1.396,2.514,2.638,3.859,4.026
		c-1.533,1.451-1.674,2.97-0.181,4.48c-2.491,0.983-4.958,0.392-7.28,0.8c-6.367,1.119-12.883,0.899-19.208,2.346
		c-4.188,0.958-8.449,1.613-12.615,2.653c-5.229,1.304-9.884,3.995-14.619,6.477c-6.658,3.488-13.163,7.229-19.33,11.528
		c-3.665,2.555-7.205,5.288-10.855,7.865c-8.04,5.676-15.438,12.129-22.747,18.688c-2.794,2.507-5.381,5.243-8.109,7.826
		c-3.539,3.352-7.019,6.744-9.73,10.841c-0.966,1.459-1.79,3.313-3.181,4.113c-1.739,1-1.702,1.989-1.268,3.479
		c0.222,0.762,0.334,1.556,0.49,2.337c1.321,6.648,2.759,13.275,3.929,19.95c1.21,6.901,2.051,13.868,3.257,20.77
		c1.11,6.358,2.555,12.658,3.729,19.006c0.826,4.465,1.501,8.96,2.143,13.457c0.506,3.546,0.842,7.115,1.284,10.671
		c0.531,4.271,1.065,8.541,1.651,12.805c0.705,5.128,1.348,10.269,2.237,15.366c0.78,4.473,1.816,8.903,2.828,13.333
		c0.94,4.115,1.897,8.231,3.03,12.297c1.186,4.259,2.53,8.481,3.877,12.867c2.475,4.036,4.132,8.408,5.728,12.819
		c0.553,0.566,0.933,1.714,1.375,3.587h-0.072c0.316,0.858,0.639,1.716,0.973,2.568c0.141,0.361,0.293,0.724,0.437,1.085
		c1.14-0.057,2.28-0.122,3.419-0.206c3.794-0.277,7.157-2.966,4.989-3.336c-1.044-2.174-1.724-4.147-2.85-5.822
		c-3.394-5.05-5.094-10.81-7.101-16.432c-1.389-3.892-2.542-7.876-3.608-11.871c-1.044-3.92-1.851-7.904-2.738-11.865
		c-0.064-0.286,0.06-0.615,0.1-0.953c5.717,1.849,11.618,2.293,17.434,3.088c5.722,0.781,11.517,1.026,16.995,1.483
		c0.009,0.036,0.018,0.071,0.027,0.107c1.153,0.055,2.306,0.105,3.458,0.171l-0.001-0.023c0.701-0.038,1.401-0.122,2.1-0.107
		c4.53,0.094,9.059,0.257,13.589,0.306c4.955,0.054,9.911,0.068,14.865-0.013c3.669-0.06,7.333-0.334,11.002-0.443
		c1.514-0.046,3.036,0.177,4.549,0.122c2.383-0.086,4.767-0.48,7.143-0.426c4.601,0.105,9.176,0.219,13.765-0.445
		c0.738-0.107,1.5-0.098,2.268-0.032c0.028,0.001,0.047-0.01,0.077-0.007c0.477,0.055,0.952,0.095,1.426,0.127
		c0.118-0.063,0.253-0.108,0.407-0.127c0.711-0.085,1.376-0.029,2.043,0.12c1.436-0.131,2.85-0.467,4.29-0.62
		c0.314-0.033,0.547,0.081,0.71,0.262c0.234-0.049,0.47-0.092,0.705-0.14c0.385-0.111,0.789-0.196,1.221-0.242
		c2.579-0.518,5.162-1.011,7.759-1.417c4.714-0.736,9.455-1.308,14.719-2.023v0.508c0.942-0.189,1.888-0.349,2.837-0.461V358.1
		c1.811-0.256,3.659-0.674,5.521-0.753c7.347-0.312,14.593-1.43,21.798-2.767c4.926-0.915,9.783-2.199,14.672-3.314
		c0.522-0.119,1.05-0.216,2.025-0.415c-0.372,1.207-0.714,2.336-1.047,3.423c-0.017,0.063-0.028,0.127-0.058,0.187
		c-0.311,1.014-0.615,1.995-0.93,2.972c-1.149,3.564-2.129,7.201-3.542,10.659c-0.599,1.467-1.134,2.959-1.661,4.454
		c-1.188,3.934-2.695,7.766-4.156,11.626c-1.024,2.706-1.921,5.429-2.763,8.169c-1.177,3.987-2.318,7.985-3.453,11.985
		c-0.007,0.339,0.009,0.679,0.072,1c0.336,1.737,5.624,2.363,5.96,1.325c-0.167,0.026-0.327,0.052-0.497,0.079
		c0.379-1.315,0.639-2.291,0.944-3.253c0.505-1.591,1.1-3.156,1.539-4.765c0.182-0.666,0.488-1.155,1.008-1.391
		c0.138-0.423,0.285-0.838,0.426-1.259c0.12-0.466,0.234-0.935,0.361-1.399c-0.156,0.023-0.31,0.04-0.466,0.065
		c1.061-3.973,1.842-7.737,4.007-11.069c0.095-0.146,0.184-0.297,0.275-0.447c1.819-5.759,3.822-11.499,6.96-16.552
		c1.288-3.47,2.475-6.978,3.728-10.46c0.396-1.104,0.869-2.181,1.416-3.541c0.015,0.013,0.029,0.023,0.044,0.036
		c0.324-1.395,0.862-2.711,1.575-3.919c-0.04-0.041-0.08-0.082-0.119-0.124c0.434-1.039,0.877-2.099,1.318-3.152
		C375.229,343.831,376.009,342.291,377.019,340.924z M276.098,151.303c-0.862-0.985-1.707-2.006-2.082-3.222
		c-0.518-0.966-0.82-2.029-1.11-3.116c-0.364-1.365,0.16-2.461,1.127-3.174c0.796-0.586,1.824-0.898,2.747-0.609
		c1.531-0.159,2.806,0.527,4.198,1.751c0.883,0.777,1.827,1.583,2.47,2.581c0.383,0.593,0.753,1.4,1.292,1.915
		c0.503-0.121,1.086-0.38,1.853-0.808c0.316-2.836-2.475-3.84-3.755-6.068c1.013-0.784,1.966-1.534,2.933-2.268
		c2.539-1.926,4.403-0.646,6.037,1.944c0.583,0.925,0.922,2.003,1.39,3.048c-0.576,1.092-1.163,2.205-1.751,3.322
		c1.912,0.912,2.006,0.923,2.871-0.64c0.835-1.511,1.968-2.692,3.447-3.559c1.686-0.988,2.585-0.709,3.419,1.06
		c1.089,2.312,0.645,4.763-1.198,6.842c-1.103,1.244-2.177,2.523-3.366,3.914c-0.118,0.246-0.334,0.461-0.674,0.61
		c-1.659,0.726-2.949,2.155-4.737,0.609c-0.678-0.586-1.404-0.339-2.142-0.06c-0.163,0.106-0.327,0.209-0.491,0.322
		c-0.597,0.628-1.657,0.588-2.206-0.099c-0.147-0.074-0.292-0.162-0.438-0.272c-0.069-0.052-0.132-0.109-0.194-0.168
		c-0.087-0.04-0.169-0.08-0.261-0.119c-0.081-0.034-0.151-0.077-0.221-0.12c-0.156-0.047-0.308-0.082-0.442-0.076
		c-0.734,0.032-1.301,0.203-1.861,0.67c-0.368,0.307-0.735,0.551-1.175,0.653c-0.503,0.248-1.125,0.239-1.649-0.263
		c-0.787-0.752-1.677-1.274-2.302-2.198c-0.032-0.048-0.063-0.095-0.095-0.143c-0.278-0.258-0.509-0.587-0.68-1.011
		C276.755,152.123,276.45,151.705,276.098,151.303z M297.523,158.969h-0.107c-0.195,0.038-0.387,0.038-0.582,0h-2.139
		c0.514-0.582-0.212-1.75,0.783-1.808c0.039-0.322,0.156-0.636,0.399-0.879c0.578-0.578,1.543-0.578,2.121,0l0.188,0.188
		c0.578,0.578,0.578,1.543,0,2.121c-0.191,0.192-0.43,0.296-0.679,0.36C297.512,158.957,297.517,158.963,297.523,158.969z
		 M289.588,158.778c-0.557-0.221-0.963-0.705-0.963-1.373c0-0.766,0.684-1.568,1.5-1.5c0.356,0.03,0.633,0.085,0.944,0.267
		C292.729,157.14,291.249,159.702,289.588,158.778z M286.192,158.982c-0.152-0.246-0.304-0.49-0.461-0.744
		c-0.04,0.053-0.06,0.117-0.108,0.165c-0.578,0.578-1.543,0.578-2.121,0c-0.021-0.021-0.042-0.042-0.062-0.062
		c-0.578-0.578-0.578-1.543,0-2.121c0.578-0.578,1.543-0.578,2.121,0c0.021,0.021,0.042,0.042,0.062,0.062
		c0.05,0.05,0.072,0.117,0.113,0.172c0.407-0.115,0.754-0.195,1.013-0.083C287.464,156.679,287.236,157.723,286.192,158.982z
		 M279.438,157.155v0.125c0,1.935-3,1.935-3,0v-0.125C276.438,155.221,279.438,155.221,279.438,157.155z M157.282,226.718
		c1.905-2.25,3.714-4.604,5.805-6.67c3.972-3.926,8.018-7.789,12.211-11.476c3.586-3.153,7.406-6.041,11.149-9.012
		c2.747-2.18,5.478-4.386,8.321-6.435c5.372-3.871,10.754-7.736,16.263-11.407c2.971-1.979,6.202-3.571,9.336-5.302
		c1.947-1.075,4.006-1.963,5.882-3.146c4.801-3.029,10.088-4.739,15.566-5.925c3.726-0.806,7.479-1.486,11.228-2.181
		c1.101-0.473,2.321-0.817,3.663-1.042c5.285-0.883,11.377-1.394,16.886-0.824c3.642-0.571,7.592-0.45,10.866-0.562
		c9.67-0.333,20.844-1.031,29.884,3.126c6.128,2.273,12.374,4.3,18.294,7.032c8.109,3.742,15.793,8.305,23.17,13.406
		c5.746,3.973,10.975,8.488,15.651,13.612c2.35,2.574,4.25,5.582,6.179,8.508c2.46,3.73,4.729,7.585,7.105,11.372
		c1.991,3.173,4.024,6.32,6.021,9.491c0.236,0.375,0.359,0.821,0.682,1.577c-8.831-1.347-17.29-0.806-25.684,0.994
		c-8.384,1.797-16.361,4.716-24.15,8.657c0.962-2.205,1.984-4.386,2.859-6.624c0.398-1.02,0.607-2.144,0.697-3.238
		c0.019-0.234-0.082-0.538-0.235-0.805c-1.083,1.223-2.381,2.29-3.749,2.918c-2.956,1.359-4.506-1.117-5.812-3.392
		c-0.008-0.015-0.012-0.029-0.02-0.043c-0.248-0.125-0.504-0.24-0.786-0.327c-0.156-0.048-0.302-0.064-0.442-0.067
		c-0.045-0.087-0.101-0.167-0.146-0.255c-0.109,0.106-0.219,0.215-0.328,0.326c-0.242,0.09-0.438,0.254-0.59,0.456c0,0,0,0-0.001,0
		c-0.146,0.051-0.282,0.13-0.418,0.208c-0.005,0.012-0.006,0.023-0.012,0.035c-0.898,1.992-2.726,5.04-5.378,3.827
		c-1.143-0.522-2.233-1.619-3.099-2.773c-0.159-0.003-0.32,0.001-0.485,0.022c-0.307,0.038-0.558,0.155-0.765,0.313
		c-0.122,1.076-0.231,2.181-0.2,3.269c0.035,0.429,0.067,0.86,0.139,1.279c0.062,0.36,0.287,0.692,0.444,1.034
		c1.567,3.413,4.28,5.649,7.584,7.676c-0.587,0.054-1.273,0.335-1.746,0.127c-7.675-3.373-15.627-5.992-23.618-8.453
		c-4.713-1.452-9.56-2.557-14.416-3.437c-6.342-1.149-12.727-2.213-19.141-2.761c-5.062-0.432-10.207-0.219-15.295,0.066
		c-4.125,0.23-8.256,0.8-12.317,1.572c-4.376,0.832-8.673,2.073-13.004,3.138c-0.369,0.091-0.736,0.191-1.666,0.435
		c1.079-2.152,1.922-3.858,2.788-5.553c0.84-1.647,0.971-3.01,0.367-4.21c-1.111,1.178-2.415,2.209-3.692,2.784
		c-0.938,0.422-1.919,0.669-2.833,0.344c-0.042,0.021-0.074,0.049-0.118,0.069c-0.019-0.048-0.037-0.094-0.055-0.142
		c-0.205-0.09-0.407-0.201-0.603-0.358c-0.537-0.432-0.811-1.044-0.943-1.705c-0.083-0.214-0.146-0.431-0.19-0.648
		c-0.255-0.7-0.463-1.399-0.551-2.1c-0.297-0.312-0.595-0.624-0.898-0.929c-0.382,0.518-0.756,1.042-1.12,1.572
		c-0.231,1.196-0.839,2.317-1.73,3.068c-0.019,0.045-0.043,0.087-0.062,0.133c-0.402,0.995-1.167,1.842-1.75,2.733
		c-1.47-0.493-2.347-1.579-3.192-2.7c-1.114-0.667-2.135-1.706-2.834-2.829c-0.2-0.105-0.408-0.201-0.633-0.28
		c-1.068,2.812-0.339,5.41,0.792,8.326c-0.926-0.292-1.518-0.403-2.042-0.656c-7.554-3.652-15.634-5.383-23.86-6.618
		c-8.873-1.332-17.632-0.816-26.282,1.529c-1.141,0.31-2.229,0.814-3.697,1.361C156.849,227.566,156.983,227.072,157.282,226.718z
		 M328.229,340.042h-4.002c-0.877-3.386-1.943-6.729-2.564-10.155c-0.447-2.467-0.269-5.043-0.439-7.565
		c-0.064-0.948-0.421-1.877-0.471-2.824c-0.064-1.243,0.017-2.496,0.083-3.743c0.059-1.105,0.252-2.206,0.265-3.31
		c0.035-3.015-0.045-6.031,0.02-9.045c0.049-2.287,0.531-4.595,0.334-6.851c-0.599-6.851,0.898-13.443,1.918-20.128
		c0.763-5,2.277-9.731,3.661-14.549c1.111-3.871,3.187-7.31,4.273-11.152c0.124-0.44,0.445-0.824,0.659-1.206
		c0.969,0.138,1.822,0.26,2.74,0.391c2.623,3.602,3.473,7.896,3.778,12.139c0.48,6.679,0.353,13.402,0.479,20.107
		c0.024,1.274-0.034,2.553,0.056,3.822c0.337,4.763-0.905,9.333-1.673,13.956c-1.043,6.282-2.211,12.542-3.247,18.825
		c-0.986,5.974-1.87,11.965-4.232,17.603C329.347,337.596,328.776,338.814,328.229,340.042z M328.741,343.568
		c-1.331,2.06-1.414,2.084-3.256,0.795c0.259-0.646,0.462-1.149,0.706-1.755C327.054,342.934,327.889,343.248,328.741,343.568z
		 M293.888,340.809c-0.989-0.607-2.126-0.973-3.323-1.505c1.944-2.863,4.626-5.426,3.818-9.495c-0.477-2.4-1.198-4.594-2.859-6.621
		c1.747-1.311,3.182-3.018,5.545-3.405c2.941-0.482,5.547-0.376,8.17,1.599c3.799,2.86,6.05,6.495,7.026,11.011
		c0.524,2.423,0.101,4.583-2.278,6.002c-1.294,0.772-2.449,1.78-3.75,2.537c-0.932,0.542-1.962,1.061-3.291,0.664
		c0.419-1.56,0.776-2.891,1.271-4.731c-0.932,0.371-1.432,0.415-1.641,0.684c-0.482,0.62-0.751,1.404-1.232,2.024
		C299.226,342.303,296.866,342.636,293.888,340.809z M298.51,343.524c-0.136,1.135-0.269,2.243-0.425,3.545
		c-1.025-0.06-1.859-0.107-2.686-0.156C295.392,343.677,295.581,343.457,298.51,343.524z M235.622,339.516
		c1.306-1.957,3.191-4.078,0.17-6.683c-0.262,1.169-0.469,2.063-0.661,2.961c-0.292,1.361-2.708,3.858-4,4.014
		c-0.316,0.038-0.791-0.195-1-0.458c-2.237-2.822-2.877-6.031-2.279-9.551c0.607-3.57,2.485-6.511,4.722-9.2
		c0.597-0.717,1.915-0.929,2.95-1.166c1.463-0.335,2.996-0.374,4.452-0.729c2.033-0.496,3.943,0.026,5.881,0.431
		c1.467,0.308,2.62,1.028,3.351,2.418c0.439,0.835,1.069,1.571,1.504,2.195c-1.081,1.304-2.122,2.377-2.949,3.596
		c-1.449,2.138-1.469,4.546-0.672,6.884c0.757,2.222,0.266,3.861-1.638,5.157c-0.659,0.447-1.268,0.967-1.928,1.413
		C240.18,343.063,238.426,342.811,235.622,339.516z M239.61,347.639c-1.161-0.128-2.218-0.244-3.366-0.369v-3.736
		C237.875,343.923,238.52,344.695,239.61,347.639z M219.655,340.512c-1.738-3.554-3.414-6.955-5.065-10.368
		c-0.511-1.056-0.867-2.195-1.452-3.204c-1.032-1.779-0.531-3.717-0.69-5.573c-0.147-1.716,0.181-3.472,0.039-5.188
		c-0.15-1.822-0.271-3.568,0.103-5.415c0.358-1.771,0.161-3.66,0.163-5.497c0.007-5.098,0.001-10.196-0.02-15.294
		c-0.008-1.994-0.187-3.994-0.086-5.981c0.253-5.011,0.344-10.053,1.013-15.013c0.848-6.295,1.867-12.594,4.173-18.59
		c0.678-1.761,1.126-3.611,1.645-5.305c1.47,0.124,2.831,0.239,4.208,0.354c3.527,5.408,4.519,11.595,4.325,18.077
		c-0.353,11.804-0.666,23.609-1.008,35.414c-0.081,2.792-0.499,5.61-0.247,8.37c0.395,4.334-0.062,8.592-0.598,12.843
		c-0.366,2.906-1.177,5.756-1.765,8.637c-0.159,0.778-0.22,1.577-0.347,2.362C223.504,334.494,222.541,337.666,219.655,340.512z
		 M220.763,344.781c-0.015,1.438-0.51,1.996-1.743,1.968c-1.145-0.027-2.04-0.949-2.075-2.138c-0.033-1.115,0.763-2.276,1.596-2.329
		C219.743,342.206,220.778,343.37,220.763,344.781z M304.031,296.41c0.063,0.856,0.091,1.67-0.102,2.51
		c-0.015,0.062-0.048,0.097-0.088,0.123c0.029,0.255-0.335,0.351-0.454,0.113h0c-0.001-0.001-0.002-0.002-0.003-0.004
		c-0.005-0.01-0.017-0.012-0.021-0.023c0-0.001-0.001-0.003-0.001-0.005c-0.827-1.012-1.574-2.062-2.22-3.17
		c-1.746-0.512-2.06-1.833-2.016-3.448c0.008-0.312-0.049-0.648-0.165-0.938c-1.668-4.177-0.477-7.958,1.609-11.604
		c0.94-1.642,1.943-3.249,3.039-5.074c4.019,4.51,7.873,8.833,11.808,13.25c-2.861,2.353-2.955,6.164-4.473,9.363
		c-1.618,0.581-2.274-0.838-2.565-1.753c-0.783-2.47-1.201-5.056-1.765-7.602c-0.064,0.004-0.117,0.013-0.178,0.018
		c-1.128,1.377-1.695,3.129-2.086,4.868C304.094,294.174,303.944,295.237,304.031,296.41z M313.573,284.449
		c-2.036-2.206-4.051-4.449-5.865-6.835c-2.061-2.71-3.892-5.595-5.82-8.406c-0.09-0.131-0.133-0.297-0.233-0.417
		c-3.897-4.686-5.87-10.516-9.224-15.532c-1.358-2.032-2.3-4.301-3.203-6.613c-1.239-3.172-3.057-6.119-4.635-9.158
		c-0.385-0.742-1.069-1.389-0.67-2.65c4.382,0.883,8.773,1.565,13.054,2.673c8.258,2.137,16.278,5.014,24.189,8.213
		c1.733,0.701,3.706,0.812,5.572,1.174c0.389,0.075,0.796,0.045,1.193,0.085c2.89,0.292,3.107,0.627,2.024,3.34
		c-0.945,2.366-2.051,4.673-2.895,7.073c-2.187,6.229-4.432,12.445-6.33,18.764c-1.117,3.719-1.615,7.623-2.4,11.442
		c-0.045,0.217-0.17,0.417-0.393,0.945C316.403,287.121,314.89,285.876,313.573,284.449z M290.005,282.108
		c-0.272-2.164-1.009-4.122-1.961-6.042c-0.018-0.013-0.033-0.027-0.051-0.04c-0.495-0.344-0.858-0.93-1.172-1.469
		c-0.775-1.331-1.797-2.348-3.252-2.891c-0.002,0.004-0.005,0.006-0.007,0.01c-0.008-0.001-0.016-0.002-0.024-0.003
		c1,1.388,1.911,2.873,3.048,4.158c2.457,2.777,2.643,6.026,2.249,9.444c-0.036,0.316-0.195,0.633-0.171,0.939
		c0.304,3.927-1.664,6.574-4.682,8.772c-2.25,1.638-4.289,3.563-6.503,5.254c-0.871,0.665-1.941,1.09-2.962,1.526
		c-0.486,0.209-1.126,0.379-1.602,0.24c-3.188-0.93-6.579-1.282-9.433-3.197c-0.462-0.311-0.966-0.569-1.39-0.923
		c-2.008-1.676-3.932-3.461-6.017-5.034c-1.054-0.795-1.378-1.662-1.194-2.854c0.153-0.992,0.323-1.981,0.549-3.365
		c0.528,0.632,0.919,0.888,0.982,1.208c0.627,3.161,3.126,3.7,5.698,4.053c1.073,0.147,2.183,0.024,3.427,0.024
		c0.32-0.561,0.694-1.22,1.27-2.231c-0.616,0.182-0.916,0.254-1.204,0.361c-0.274,0.102-0.535,0.239-1.202,0.543
		c0.426-2.447,0.791-4.543,1.172-6.732c1.131,0.74,2.312,1.511,3.506,2.292c0.946-0.817,0.856-1.41-0.131-2.094
		c-2.074-1.438-4.341-2.454-6.832-2.606c-1.404-0.085-2.846,0.462-4.589,0.784c0.899-1.259,1.727-2.417,2.578-3.607
		c0.325,0.092,2.06-1.074,1.823-1.147c3.693-2.404,7.134-4.348,11.319-4.704c2.752-0.234,5.466-0.891,8.209-1.28
		c0.672-0.096,1.387,0.107,2.083,0.178c-0.008-0.01-0.015-0.021-0.023-0.032c0.02,0.007,0.035,0.019,0.054,0.026
		c1.076-1.732,3.171-1.659,4.673-2.636c1.225,0.625,1.478-0.855,2.576-1.198c1.272,3.306,3.101,6.388,3.064,10.082
		c-0.026,2.712-0.09,5.429-0.964,8.036c-1.078,3.214-1.328,6.54-1.435,9.892c-0.023,0.715-0.093,1.428-0.513,2.233
		c-0.238-1.059-0.461-2.121-0.716-3.175c-0.617-2.542-0.779-5.038-0.253-7.583C290.092,285.578,290.221,283.817,290.005,282.108z
		 M273.379,330.709c0.061-0.161,0.146-0.277,0.249-0.378c0.436-0.583,1.076-1.15,1.301-1.853c0.279-0.872,0.191-1.811,0.191-2.715
		c0-0.005,0.004-0.006,0.004-0.01c-0.04-0.278-0.079-0.548-0.121-0.842c1.521-1.388,3.816-2.11,6.102-2.459
		c1.167-0.179,2.49,0.703,3.748,1.088c0.895,0.273,1.249,0.931,1.313,1.791c0.184,2.47,0.108,4.899-0.56,7.328
		c-0.629,2.291-3.184,3.543-5.466,2.96c-1.065-0.271-1.986-1.162-2.933-1.83c-1.158-0.817-2.273-1.695-3.803-2.845
		c0.013-0.005,0.023-0.009,0.034-0.013C273.379,330.879,273.341,330.809,273.379,330.709z M271.112,330.885
		c-0.772,1.017-1.416,2.003-2.196,2.865c-1.947,2.152-3.657,4.606-6.904,5.063c-1.649,0.231-2.195,0.234-2.947-1.207
		c-1.243-2.383-2.51-4.775-2.984-7.472c-0.068-0.389-0.158-0.81-0.082-1.183c0.443-2.165,1.47-3.989,3.267-5.332
		c1.827-1.366,3.637-1.855,5.484-1.166c0.572,0.058,1.229,0.405,1.655,0.722c0.322,0.24,0.65,0.517,0.948,0.816
		c0.293,0.122,0.567,0.288,0.815,0.483c0.472,0.235,0.957,0.467,1.448,0.731C268.522,327.682,269.486,329.472,271.112,330.885z
		 M270.862,329.439c-0.005-0.005-0.011-0.01-0.016-0.016c-0.375-0.375-0.564-0.872-0.574-1.373
		c-0.001-0.008-0.006-0.016-0.007-0.024c-0.128-0.193-0.26-0.391-0.402-0.591c1.277-2.395,1.652-2.491,3.42-1.461
		c0.01,0.006,0.015,0.013,0.025,0.02c0.042,0.027,0.081,0.061,0.122,0.091c0.477,0.324,0.734,0.708,0.746,1.146
		c0.028,0.122,0.041,0.248,0.046,0.377c0.133,0.643-0.042,1.341-0.532,1.831c-0.199,0.198-0.432,0.344-0.682,0.44
		c-0.061,0.093-0.116,0.191-0.18,0.281c-0.042,0.06-0.38-0.02-0.724-0.16C271.649,329.963,271.205,329.781,270.862,329.439z
		 M285.843,321.909c-0.668-0.04-1.442-0.136-1.96-0.501c-1.5-1.06-2.964-0.905-4.514-0.227c-0.875,0.383-1.788,0.678-2.661,1.065
		c-0.641,0.285-1.527,0.501-1.81,1.018c-0.988,1.802-2.753,1.243-4.198,1.525c-0.412,0.08-1.132-0.56-1.455-1.042
		c-1.067-1.596-2.508-2.68-4.278-3.291c-2.369-0.818-4.723-0.916-6.365,1.365c-1.192,1.654-2.898,1.594-4.946,1.921
		c-1.104-1.416-2.007-3.121-3.396-4.2c-1.375-1.068-3.215-1.575-4.903-2.185c-0.622-0.224-1.391-0.035-2.278-0.035
		c0.48-1.156,0.862-2.096,1.264-3.025c0.092-0.213,0.236-0.548,0.388-0.566c1.892-0.235,3.352-1.939,5.405-1.588
		c0.463,0.079,1.056,0.048,1.355,0.322c1.62,1.485,3.661,1.44,5.62,1.624c1.265,0.119,2.551,0.001,3.826,0.033
		c1.226,0.031,2.368-0.089,3.374-0.927c1.664-1.387,3.524-2.569,5.031-4.104c1.305-1.327,2.058-3.058,0.842-5.115
		c1.948-0.335,3.723-0.64,5.729-0.984c0.025,0.451,0.247,1.046,0.05,1.423c-1.467,2.813-0.311,5.178,1.453,7.193
		c2.233,2.554,4.988,3.919,8.666,3.477c3.344-0.401,6.769-0.19,10.157-0.15c2.201,0.026,2.415,0.371,2.278,2.938
		c-1.104,0.28-2.259,0.536-3.391,0.869c-1.563,0.46-3.224,0.737-3.92,2.618c-0.126,0.343-1.049,0.508-1.619,0.545
		C288.345,321.985,287.088,321.985,285.843,321.909z M230.871,282.956c2.509-1.595,4.805-3.111,7.16-4.529
		c1.288-0.776,2.695-1.351,4.008-2.088c0.738-0.415,1.394-0.975,2.086-1.47c0,0,0.001-0.001,0.002-0.001
		c0-0.002-0.001-0.004-0.002-0.006c0.002,0.001,0.004,0.002,0.007,0.003c1.486-1.039,3.04-1.997,4.439-3.142
		c1.289-1.055,2.443-2.284,3.595-3.494c0.531-0.558,0.921-1.251,1.36-1.894c0.172-0.251,0.249-0.594,0.464-0.787
		c2.375-2.127,4.818-4.181,7.138-6.366c1.262-1.188,2.355-2.562,3.459-3.907c0.501-0.61,0.829-1.361,1.256-2.034
		c1.397-2.199,3.195-3.053,5.869-2.25c1.949,0.585,3.997,0.673,5.989,1.404c2.462,0.903,4.336,2.623,6.588,3.736
		c2.881,1.424,3.813,4.367,5.579,6.647c0.77,0.993,0.015,3.581-1.107,4.312c-2.814,1.837-5.593,3.326-9.32,2.432
		c-1.829-0.439-4.081,0.348-6.009,0.983c-3.547,1.168-7.002,2.619-10.484,3.98c-2.106,0.823-3.282,2.729-4.608,4.348
		c-3.049,3.723-4.759,8.021-4.793,12.919c-0.013,1.788-0.625,3.425-1.869,4.843c0.121-0.556,0.191-1.129,0.373-1.666
		c1.073-3.174,0.61-6.069-1.505-8.686c-0.149-0.185-0.288-0.386-0.394-0.598c-1.304-2.629-2.62-5.251-3.887-7.897
		c-0.333-0.696-0.512-1.466-0.801-2.318c-0.327-0.139-0.829-0.353-1.333-0.566l-0.005,0.003c0.615,1.61,0.958,3.407,1.904,4.792
		c1.942,2.84,2.412,6.194,3.674,9.26c0.377,0.917,0.602,2.092,0.381,3.026c-0.764,3.223-1.125,6.603-3.347,9.34
		c-0.826,1.018-1.373,2.262-2.117,3.521c1.254,0.737,2.064,0.688,3.086,0.082c2.367-1.4,3.927-3.438,5.034-5.863
		c0.853-1.869,1.587-3.791,2.331-5.586c0.783,0.486,1.595,0.958,2.373,1.483c0.527,0.355,1.144,0.691,1.481,1.195
		c1.9,2.838,5.071,3.993,7.672,5.896c0.557,0.406,1.258,0.615,1.921,0.93c0.053,2.038-0.672,3.802-1.498,5.512
		c-0.594,1.229-1.523,2.116-2.852,2.698c-4.003,1.753-7.938,1.778-12.013,0.19c-2.823-1.1-5.676-0.796-8.206,0.958
		c-0.583,0.404-0.908,1.269-1.203,1.982c-0.123,0.298-0.263,0.565-0.414,0.816c0.002,0.044,0.012,0.086-0.015,0.134
		c-0.257,0.453-0.556,0.952-1.068,1.146c-0.123,0.047-0.249,0.084-0.375,0.117c-0.411,0.204-0.881,0.342-1.439,0.391
		c-3.372,0.293-6.155,2.087-8.888,3.855c-0.926,0.599-1.511,1.724-2.569,2.987c0.186-2.552,0.214-4.731,0.538-6.866
		c0.328-2.163,0.948-4.281,1.444-6.418c0.125-0.54,0.363-1.073,0.381-1.615c0.21-6.198,0.534-12.399,0.502-18.597
		C230.833,287.706,230.243,285.182,230.871,282.956z M257.539,287.175c0.437-0.688,0.151-1.851,1.349-2.189
		c0.341-0.096,0.41-1.16,0.683-2.034c1.201,0.053,2.228-0.385,3.362,0.625c1.675,1.49,1.925,1.632,1.285,3.672
		c-0.118,0.376-0.213,0.766-0.385,1.118c-1.11,2.272-3.795,2.854-5.629,1.078C257.683,288.941,257.249,287.63,257.539,287.175z
		 M293.631,268.086c-0.621-0.825-1.138-1.514-1.629-2.166c0.565-2.987-0.557-5.768-2.679-7.948
		c-1.153-1.185-2.084-2.579-3.593-3.366c-1.19-0.622-2.408-1.191-3.985-1.967c2.552-1.042,3.881-3.87,7.138-2.739
		c0.304,0.639,0.944,1.456,1.064,2.344c0.316,2.333,1.691,4.085,2.87,5.967c1.771,2.827,3.511,5.674,5.308,8.583
		C296.502,267.261,295.08,267.669,293.631,268.086z M286.065,244.902c0.543,1.038,1.091,2.074,1.771,3.365
		c-3.438-0.201-5.396,1.753-7.683,3.913c-2.886-1.992-6.604-1.931-10.357-2.673c3.269-5.094,6.434-10.025,9.757-15.203
		c0.702,0.059,1.615,0.135,2.241,0.187c0.399,1.594,0.561,3.012,1.108,4.26C283.828,240.858,284.997,242.858,286.065,244.902z
		 M273.768,239.881c-1.306,1.414-2.143,3.586-3.244,5.244c-0.658,0.991-1.355,1.951-2.144,2.821c0.065-0.01,0.124-0.019,0.19-0.029
		c-1.446,1.555-2.598,2.842-3.801,4.08c-3.66,3.764-7.431,7.424-10.985,11.284c-3.463,3.761-7.36,7.03-11.324,10.194
		c-3.34,2.666-7.027,4.897-10.572,7.304c-0.17,0.116-0.453,0.066-0.996,0.13c0-1.536,0.035-3.008-0.009-4.478
		c-0.059-1.984-0.187-3.965-0.267-5.948c-0.048-1.196,0.01-2.4-0.105-3.589c-0.453-4.66-0.649-9.375-1.547-13.95
		c-0.615-3.13-1.481-6.378-3.648-8.894c0.154-1.32,1.878-2.376,0.004-3.714c16.775-7.617,33.931-8.759,51.748-6.216
		c-0.777,1.417-1.672,2.663-2.635,3.822C274.509,238.586,274.331,239.272,273.768,239.881z M228.532,233.299
		c-0.06,0.185-0.158,0.368-0.305,0.542c-0.429,0.507-0.886,0.984-1.37,1.432c-0.65,1.231-1.67,2.087-2.926,2.844
		c-1.055,0.635-1.915,0.676-2.872,0.135c-3.412-1.931-6.115-4.492-7.099-8.588c0.607,0.628,1.157,1.329,1.833,1.87
		c1.336,1.068,2.579,1.181,3.884,0.032c1.276-1.124,2.278-2.559,3.381-3.835c2.41,3.867,3.811,3.41,7.384,0.905
		c-0.623,1.381-0.843,2.775-1.617,3.856C228.812,232.78,228.707,233.057,228.532,233.299z M224.744,242.445
		c-0.312,1.127-1.302,1.96-2.494,1.96c-1.192,0-2.182-0.833-2.494-1.96c-0.364-1.312,0.435-2.714,1.746-3.075
		c0.25-0.069,0.5-0.083,0.748-0.073c0.248-0.01,0.499,0.004,0.748,0.073C224.31,239.73,225.108,241.132,224.744,242.445z
		 M225.628,332.897c0.27,0.847,0.448,1.309,0.563,1.785c0.391,1.606,0.56,3.307,1.218,4.791c0.351,0.791,1.466,1.369,2.36,1.758
		c0.849,0.369,1.859,0.365,2.667,0.504c0.443,1.872,0.868,3.67,1.355,5.731c-1.333,0.125-2.655,0.103-3.966,0.014
		c-2.342,0.015-4.667,0.109-6.987-0.287c-0.433-0.073-0.734-0.553-0.734-0.964c-0.001-1.099-0.019-2.185-0.186-3.271
		c-0.112-0.434-0.225-0.872-0.336-1.302C222.887,338.832,224.166,336.063,225.628,332.897z M249.052,338.571
		c1.85,0.711,2.112,3.194,3.639,4.604c1.478,1.362,2.866,2.822,4.173,4.481c-4.849,0.5-9.566,0.508-14.303-0.09
		c-0.467-1.09-0.931-2.173-1.459-3.407C244.413,343.276,246.086,340.302,249.052,338.571z M254.682,342.748
		c-1.888-1.66-2.704-3.9-3.565-6.111c-0.605-1.553-1.024-3.182-1.471-4.792c-0.993-3.575,1.604-6.715,5.657-6.554
		c-0.104,1.944-0.218,3.757-0.291,5.57c-0.125,3.107,1.197,5.727,2.961,8.125c1.21,1.646,3.123,2,4.9,1.102
		c1.892-0.957,3.865-1.801,5.31-3.454c0.08-0.091,0.271-0.083,0.676-0.193c-0.662,1.865-1.588,3.399-2.67,4.838
		c-1.66,2.207-4.21,3.623-5.525,6.165c-0.071,0.137-1.069,0.044-1.371-0.232C257.714,345.769,256.286,344.159,254.682,342.748z
		 M270.957,337.16c0.652,1.321,0.226,2.229-0.354,3.108c-1.579,2.393-3.158,4.784-4.851,7.347h-3.632
		C265.838,344.797,268.749,341.366,270.957,337.16z M272.787,339.439c1.592,2.551,3.242,5.193,5.018,8.038h-9.102
		C270.131,344.665,271.481,342.008,272.787,339.439z M276.474,342.943c-0.999-1.312-1.512-2.926-1.888-4.622
		c-0.091-0.21-0.17-0.426-0.2-0.687c-0.016-0.139,0.126-0.245,0.25-0.25c0.382-0.014,0.605,0.276,0.784,0.589
		c0.512,0.894,1.141,1.672,1.877,2.391c0.512,0.5,0.887,1.069,1.251,1.658c0.678,0.731,1.301,1.514,1.973,2.255
		c0.857,0.945,1.743,1.889,2.519,2.903c0.043,0.057,0.052,0.112,0.043,0.163c0.041,0.123,0.001,0.265-0.163,0.296
		c-1.736,0.323-2.978-0.531-4.02-1.729C277.952,345.09,277.139,344.059,276.474,342.943z M275.925,336.729
		c1.729,0.451,3.092,0.811,4.457,1.163c2.294,0.592,4.228-0.195,5.529-2.222c2.103-3.275,2.281-6.823,1.523-10.511
		c-0.076-0.369-0.135-0.742-0.203-1.122c1.155-0.822,2.064-0.521,2.722,0.452c1.896,2.805,3.037,5.83,1.644,9.174
		c-0.758,1.82-1.704,3.623-2.889,5.188c-1.607,2.123-3.086,4.223-3.339,6.962c-0.013,0.133-0.182,0.252-0.384,0.516
		C281.364,343.761,278.566,340.625,275.925,336.729z M290.098,340.995c2.867,1.37,2.34,3.595,1.629,5.967h-3.684
		C287.697,344.519,288.745,342.705,290.098,340.995z M300.385,343.197c4.381,1.491,7.319-1.019,10.31-3.363
		c0.248-0.194,0.394-0.579,0.661-0.679c1.48-0.551,2.27-1.643,2.736-3.1c0.556-1.735,0.556-3.451,0.082-5.189
		c-1.156-4.239-3.575-7.598-7.106-10.18c-0.447-0.327-0.958-0.595-1.326-0.993c-1.285-1.391-2.863-1.974-4.685-1.853
		c-0.485-1.131-0.704-2.217-1.333-2.953c-0.676-0.791-1.663-1.521-2.648-1.793c-1.356-0.374-2.845-0.438-4.263-0.371
		c-1.972,0.095-3.957,0.315-5.892,0.699c-3.014,0.598-5.928-0.283-7.76-3.218c-1.225-1.961-1.348-3.539-0.734-5.516
		c0.321-1.035,0.466-2.125,0.765-3.546c2.634-2.036,5.61-4.337,8.608-6.655c1.318,3.685,1.394,8.135,4.935,10.901
		c1.271-0.448,1.276-1.245,1.023-2.038c-1.052-3.304-1.391-6.671-0.815-10.086c0.315-1.872,0.647-3.79,1.349-5.535
		c0.945-2.348,1.186-4.736,1.404-7.209c0.302-3.421-0.329-6.648-1.299-9.867c-0.085-0.283-0.053-0.602-0.1-1.255
		c1.112,0.117,2.068,0.217,3.216,0.337c0.304-0.425,0.7-0.978,1.282-1.792c1.579,1.538,2.102,3.584,3.388,5.007
		c-1.397,2.135-2.934,4.091-4.027,6.27c-0.993,1.977-1.633,4.162-2.194,6.316c-0.613,2.352,0.525,4.525,1.089,6.748
		c0.972,3.836,3.542,6.523,6.339,9.036c2.468-0.881,2.446-0.88,2.361-3.364c-0.048-1.409-0.009-2.821-0.009-4.664
		c2.098,2.933,2.355,7.127,6.734,7.014c1.143-3.878,2.868-7.242,4.24-10.761c0.279,0.05,0.559,0.1,0.837,0.149
		c0.111,0.633,0.311,1.265,0.319,1.9c0.035,2.869-0.027,5.739,0.024,8.608c0.106,5.974,0.157,11.951,0.445,17.917
		c0.133,2.771,0.617,5.551,1.208,8.269c0.98,4.501,2.196,8.95,3.263,13.434c0.008,0.033,0.01,0.067,0.017,0.101
		c0.018,0.021,0.041,0.03,0.058,0.053c1.02,1.369,1.166,2.894,1.601,4.489c0.146,0.537-0.177,1.07-0.699,1.229
		c-0.44,0.135-0.85,0.116-1.206-0.018c-7.473,0.848-15.087,1.125-22.898,1.044C299.93,345.482,300.141,344.422,300.385,343.197z
		 M332.256,247.278c-0.188-0.685-0.063-1.373,0.276-1.935c0.377-0.909,1.252-1.563,2.301-1.563c1.341,0,2.529,1.137,2.5,2.5
		c-0.028,1.301-0.712,2.36-2.002,2.744C334.026,249.413,332.612,248.571,332.256,247.278z M333.116,242.239
		c-3.283-0.753-5.535-2.698-7.442-5.252c-0.168-0.224-0.184-0.562-0.312-0.984c3.269,2.077,5.86,2.501,8.999-3.449
		c0.683,0.765,1.327,1.517,2.003,2.238c0.664,0.708,1.333,1.23,2.275,0.97c0.01,0.003,0.018,0.009,0.028,0.012
		c1.024,0.308,1.89,0.105,2.66-0.346c0.155,0.008,0.301,0.02,0.472,0.02c-1.259,1.986-2.068,3.757-3.327,5.111
		C337.119,242.014,335.395,242.761,333.116,242.239z M171.864,334.058c-1.142-9.406-2.18-18.662-3.42-27.89
		c-0.647-4.814-1.592-9.592-2.504-14.367c-1.434-7.511-3.037-14.991-4.407-22.513c-0.842-4.621-1.285-9.314-2.088-13.943
		c-0.966-5.572-2.114-11.112-3.207-16.662c-0.368-1.873-0.808-3.731-1.308-6.021c2.286-0.853,4.373-1.864,6.576-2.403
		c4.731-1.157,9.53-2.066,14.447-1.574c8.477,0.848,17.036,1.367,25.021,4.731c3.883,1.636,7.826,3.191,11.223,5.83
		c1.002,0.779,2.213,1.49,3.734,0.998c0.608-0.197,1.377,0.101,2.124,0.18c0.125,1.72-0.311,3.109-0.899,4.617
		c-1.407,3.61-2.526,7.342-3.595,11.072c-1.652,5.765-2.248,11.712-2.875,17.656c-0.459,4.342-1.226,8.651-1.705,12.992
		c-0.235,2.134-0.187,4.307-0.157,6.46c0.02,1.394-0.479,2.324-1.573,3.239c-3.242,2.712-6.423,5.495-8.696,9.165
		c-1.002,1.618-2.202,3.161-3.536,4.519c-1.933,1.967-3.435,4.182-4.667,6.622c-1.863,3.69-4.702,6.626-7.526,9.559
		c-2.728,2.834-6.021,4.947-9.31,7.052C173.068,333.661,172.523,333.791,171.864,334.058z M173.048,342.778
		c-0.003-0.027-0.007-0.052-0.01-0.079c-0.088-0.262-0.122-0.543-0.109-0.822c-0.169-1.27-0.331-2.489-0.493-3.69
		c-0.116-0.86,0.379-1.68,1.068-1.568c2.065,0.336,3.533-1.025,5.009-1.838c2.244-1.233,4.501-2.684,6.112-4.824
		c0.235-0.313,0.509-0.638,0.614-1.001c1.127-3.891,3.881-6.688,6.423-9.628c0.209-0.241,0.456-0.453,0.642-0.71
		c2.846-3.934,5.623-7.919,8.557-11.784c1.082-1.426,2.535-2.568,3.812-3.847c0.733-0.734,1.414-1.527,2.195-2.205
		c0.428-0.371,1.015-0.557,1.897-1.018c0,2.391-0.133,4.354,0.03,6.293c0.273,3.248,0.604,6.502,1.149,9.713
		c0.771,4.544,1.702,9.064,2.685,13.568c0.334,1.529,0.984,2.999,1.578,4.461c0.927,2.281,1.93,4.532,2.937,6.881
		c-1.661,1.12-2.279,2.686-2.065,4.647c0.003,0.009,0.001,0.018,0.004,0.026c0.133,0.227,0.175,0.497,0.124,0.758
		c0.015,0.083,0.026,0.165,0.046,0.25c-0.041-0.004-0.08-0.008-0.12-0.012c-0.14,0.307-0.418,0.546-0.857,0.546
		c-0.165,0-0.301-0.041-0.423-0.098c-0.028,0.002-0.047,0.015-0.077,0.015c-0.024,0-0.049-0.002-0.073-0.002
		c-0.004,0-0.006,0.002-0.011,0.002c-0.006,0-0.01-0.003-0.016-0.003c-0.184-0.002-0.367-0.014-0.55-0.018
		c-0.035,0.005-0.062,0.021-0.1,0.021c-0.052,0-0.092-0.017-0.136-0.027c-0.018-0.001-0.036-0.002-0.054-0.002
		c-0.047,0.011-0.089,0.029-0.144,0.029c-0.075,0-0.13-0.027-0.196-0.04c-3.859-0.108-7.704-0.484-11.566-0.536
		c-0.999,0.064-1.982-0.06-2.965-0.205c-7.662-0.213-15.316-0.42-22.888-1.874c-0.247-0.048-0.45-0.135-0.63-0.239
		c-0.692-0.135-1.157-0.577-1.373-1.14H173.048z M371.652,340.744c-0.208,0.847-0.391,1.791-0.871,2.543
		c-0.021,0.065-0.025,0.131-0.064,0.196c-0.069,0.118-0.177,0.214-0.298,0.294c-0.542,0.599-1.213,0.955-1.993,1.033
		c-0.476,0.225-0.99,0.353-1.517,0.438c-1.54,0.812-3.394,1.387-5.217,1.804c-1.467,0.413-2.929,0.847-4.406,1.224
		c-0.186,0.047-0.344,0.025-0.492-0.019c-0.16,0.031-0.322,0.058-0.486,0.076c-7.845,2.373-15.952,3.513-24.004,4.857
		c-3.843,0.643-7.778,0.724-11.664,1.132c-9.348,0.983-18.71,1.859-27.964,3.577c-0.389,0.072-0.837,0.294-1.16,0.177
		c-2.21-0.799-4.36-0.175-6.568,0.015c-2.28,0.196-4.608-0.263-6.917-0.287c-1.582-0.017-3.164,0.262-4.749,0.335
		c-1.511,0.07-3.027,0.02-4.539,0.065c-2.627,0.08-5.253,0.229-7.881,0.281c-2.067,0.041-4.135-0.007-6.203-0.041
		c-0.634-0.01-1.272-0.184-1.901-0.151c-4.456,0.23-8.908,0.64-13.366,0.712c-5.587,0.091-11.178-0.082-16.767-0.148
		c-0.878-0.011-1.755-0.068-2.633-0.096c-5.583-0.168-11.175-0.193-16.747-0.533c-8.032-0.49-16.032-1.391-23.998-2.539
		c-1.234-0.178-2.414-0.724-3.949-1.201c-0.323-1.396-0.742-2.985-1.049-4.597c-0.309-1.625-0.506-3.271-0.779-5.087
		c0.637,0.26,1.12,0.359,1.484,0.622c1.375,0.992,2.81,1.043,4.497,0.957c2.676-0.137,5.391,0.221,8.071,0.527
		c4.501,0.516,8.987,1.169,13.482,1.74c4.58,0.581,9.161,1.151,13.746,1.688c2.057,0.24,4.121,0.485,6.187,0.557
		c7.496,0.26,14.994,0.443,22.492,0.661c4.623,0.135,9.245,0.327,13.869,0.401c3.275,0.053,6.552-0.023,9.828-0.086
		c7.667-0.146,15.333-0.314,23-0.478c7.423-0.157,14.848-0.255,22.268-0.503c4.141-0.138,8.271-0.592,12.411-0.793
		c8.916-0.434,17.5-2.529,26.017-5.014c5.969-1.74,11.958-3.415,17.939-5.109c0.074-0.021,0.152-0.037,0.231-0.053
		c0.013-0.005,0.028-0.002,0.042-0.007c0.146-0.127,0.312-0.184,0.48-0.206c0.056-0.03,0.108-0.064,0.166-0.094
		c0.009-0.004,0.017-0.003,0.025-0.007c0.378-0.328,0.974-0.365,1.343-0.009C371.469,339.774,371.791,340.18,371.652,340.744z
		 M332.311,344.695c-0.33,0.108-0.675,0.151-1.009,0.054c-0.553-0.161-0.936-0.584-1.104-1.128c-0.281-0.908-0.073-1.88-0.176-2.809
		c-0.035-0.314,0.141-0.597,0.39-0.781c4.542-8.246,6.337-17.798,7.464-27.753c2.057,1.739,3.635,3.18,5.326,4.474
		c1.7,1.302,3.464,2.534,5.284,3.661c4.593,2.843,9.182,5.699,13.873,8.373c3.022,1.723,6.225,3.132,9.362,4.688
		C368.298,335.444,338.452,343.916,332.311,344.695z M373.051,331.113c-4.784-1.667-8.848-4.148-12.962-6.521
		c-3.221-1.857-6.451-3.702-9.625-5.637c-1.967-1.199-4.228-2.232-5.644-3.934c-1.465-1.759-2.968-3.496-4.583-5.09
		c-1.322-1.305-1.454-2.661-1.175-4.279c0.675-3.923,1.352-7.845,1.983-11.775c0.547-3.407,0.551-6.82,0.044-10.241
		c-0.163-1.097-0.155-2.225-0.153-3.339c0.003-3.339-0.188-6.699,0.123-10.012c0.426-4.547-0.454-8.88-1.633-13.168
		c-0.731-2.657-1.885-5.197-2.907-7.945c-0.054,0.133-0.034,0.054,0.007-0.013c1.018-1.674,2.352-2.89,4.062-3.988
		c9.226-5.919,19.243-9.47,30.082-10.917c4.64-0.619,9.229-0.067,13.837,0.129c1.811,0.077,3.614,0.304,5.598,0.478
		c0,1.491,0.176,2.772-0.028,3.991c-1.592,9.502-3.31,18.984-4.881,28.49c-1.115,6.752-1.99,13.544-3.111,20.295
		c-0.717,4.319-1.712,8.591-2.537,12.893c-1.438,7.507-2.783,15.033-4.292,22.526C374.709,325.765,373.804,328.4,373.051,331.113z"
		/>
	<path fill-rule="evenodd" clip-rule="evenodd" d="M-16.303,607.182c-0.125,0.529-0.261,1.057-0.417,1.577h272.605
		c-1.815-0.127-3.629-0.344-5.446-0.365c-7.985-0.095-15.972-0.146-23.958-0.188c-4.44-0.023-8.88,0.049-13.32-0.011
		c-3.88-0.052-7.758-0.302-11.638-0.334c-9.327-0.077-18.655-0.045-27.983-0.122c-4.906-0.04-9.811-0.294-14.716-0.308
		c-4.471-0.013-8.942,0.224-13.413,0.249c-3.227,0.018-6.455-0.207-9.681-0.189c-5.542,0.03-11.084,0.224-16.626,0.238
		c-4.028,0.01-8.057-0.215-12.085-0.235c-6.85-0.035-13.701,0.044-20.551,0.009c-7.11-0.036-14.221-0.146-21.331-0.231
		c-5.01-0.061-10.02-0.132-15.03-0.204c-2.93-0.042-5.861-0.16-8.79-0.129c-3.636,0.039-7.271,0.264-10.906,0.289
		c-7.006,0.049-14.012,0.006-21.018,0.017c-6.787,0.01-13.575,0.094-20.361,0.041C-12.746,607.271-14.524,607.225-16.303,607.182z"
		/>
	<path fill-rule="evenodd" clip-rule="evenodd" d="M257.326,608.759c0.051-0.061,0.102-0.172,0.153-0.172
		c3.891-0.001,7.781,0.006,11.672,0.021c0.059,0,0.117,0.099,0.175,0.151C265.326,608.759,261.326,608.759,257.326,608.759z"/>
	<path fill-rule="evenodd" clip-rule="evenodd" d="M283.726,608.759c2.56-0.61,5.12-0.572,7.68,0
		C288.846,608.759,286.286,608.759,283.726,608.759z"/>
	<path fill-rule="evenodd" clip-rule="evenodd" d="M291.886,608.759c1.44-0.562,2.88-0.641,4.32,0
		C294.766,608.759,293.326,608.759,291.886,608.759z"/>
	<path fill-rule="evenodd" clip-rule="evenodd" d="M-29.714,169.559"/>
	<path fill-rule="evenodd" clip-rule="evenodd" d="M-29.714,113.879"/>
	<path fill-rule="evenodd" clip-rule="evenodd" d="M441.731,556.436c-0.814,1.153-1.674,1.424-2.837,1.261
		c-8.757-1.229-17.526-2.362-26.279-3.613c-6.784-0.97-13.566-1.979-20.321-3.132c-7.077-1.207-14.03-2.927-20.894-5.092
		c-5.996-1.892-12.14-3.315-18.21-4.975c-1.229-0.337-2.421-0.808-3.633-1.209c-4.891-1.617-9.954-2.096-15.062-2.39
		c-4.777-0.274-9.539-0.817-14.316-1.067c-4.694-0.245-9.399-0.353-14.101-0.374c-8.246-0.037-16.443-0.398-24.389-2.888
		c-2.892-0.905-5.775-1.847-8.632-2.856c-5.784-2.045-11.841-2.445-17.862-3.1c-3.086-0.335-6.156-0.818-9.244-1.136
		c-1.745-0.18-3.509-0.179-5.266-0.223c-1.679-0.041-3.362,0.024-5.038-0.064c-1.617-0.085-1.774-0.309-2.136-2.221
		c5.816-0.298,11.597-0.451,17.377,0.56c3.524,0.616,7.104,0.993,10.676,1.232c5.235,0.35,10.208,1.716,15.108,3.45
		c6.642,2.352,13.426,4.126,20.463,4.671c3.182,0.246,6.397,0.126,9.596,0.07c6.635-0.115,13.24,0.179,19.842,0.904
		c5.778,0.635,11.593,0.933,17.379,1.514c1.967,0.197,3.911,0.738,5.835,1.238c4.396,1.142,8.775,2.345,13.157,3.542
		c1.766,0.482,3.517,1.017,5.276,1.524c5.817,1.681,11.562,3.705,17.472,4.952c7.398,1.562,14.935,2.463,22.403,3.693
		c2.438,0.401,4.837,1.051,7.28,1.396c4.894,0.689,9.813,1.196,14.709,1.875c3.155,0.438,6.292,1.019,9.425,1.602
		C440.255,555.72,440.951,556.128,441.731,556.436z"/>
	<path fill-rule="evenodd" clip-rule="evenodd" d="M95.269,540.321c0.25-1.046,0.496-2.076,0.74-3.101
		c4.651,1.159,9.003,2.322,13.396,3.311c3.218,0.725,6.491,0.209,9.749,0.128c9.257-0.229,18.519-0.473,27.775-0.369
		c3.955,0.044,7.896,0.965,11.851,1.432c5.376,0.636,10.759,1.214,16.138,1.823c1.185,0.135,2.387,0.208,3.547,0.467
		c6.683,1.491,13.414,2.756,19.852,5.247c4.182,1.617,8.663,2.109,13.135,2.283c3.75,0.146,7.509,0.064,11.259,0.205
		c1.624,0.061,3.304,0.137,4.924,1.088c-1.03,1.233-2.347,1.569-3.67,1.562c-3.422-0.018-6.85-0.368-10.263-0.242
		c-7.463,0.274-14.565-1.178-21.561-3.669c-2.896-1.031-6.032-1.367-9.028-2.142c-7.607-1.965-15.436-2.178-23.183-3.043
		c-2.923-0.326-5.814-0.975-8.742-1.211c-4.128-0.335-8.274-0.483-12.416-0.595c-2.952-0.08-5.913-0.042-8.864,0.077
		c-4.937,0.199-9.868,0.546-14.805,0.752c-3.193,0.133-6.338-0.053-9.426-1.159c-1.848-0.662-3.863-0.92-5.827-1.181
		C98.235,541.771,96.761,541.335,95.269,540.321z"/>
	<path fill-rule="evenodd" clip-rule="evenodd" stroke="#000000" stroke-miterlimit="10" d="M242.779,256.099
		c2.894-1.746,5.62-3.696,8.293-5.743c-4.727,3.231-9.243,6.318-14.016,9.58C239.064,258.911,241.281,257.002,242.779,256.099z"/>
	<path fill-rule="evenodd" clip-rule="evenodd" fill="#FFFFFF" d="M291.727,346.962c-1.212,0-2.457,0-3.684,0
		c-0.346-2.443,0.702-4.257,2.055-5.967C292.964,342.365,292.438,344.59,291.727,346.962z"/>
	<path fill-rule="evenodd" clip-rule="evenodd" fill="#FFFFFF" d="M182.797,405.197h0.072c-0.442-1.873-0.822-3.021-1.375-3.587
		C181.927,402.806,182.357,404.003,182.797,405.197z"/>
	<path fill-rule="evenodd" clip-rule="evenodd" fill="#FFFFFF" d="M325.484,344.363c0.259-0.646,0.462-1.149,0.706-1.755
		c0.864,0.325,1.699,0.64,2.551,0.96C327.41,345.628,327.327,345.652,325.484,344.363z"/>
	<path fill-rule="evenodd" clip-rule="evenodd" d="M345.783,301.473c0.793,0.447,1.686,0.779,2.36,1.364
		c1.673,1.451,3.092,3.243,4.902,4.473c1.817,1.233,3.497,2.972,5.985,2.933c0.312-0.006,0.668,0.028,0.931,0.176
		c1.772,0.991,3.525,2.019,5.427,3.116c-0.146,0.792-0.297,1.606-0.5,2.702c-1.373-0.684-2.44-1.249-3.537-1.754
		c-1.369-0.631-2.805-1.13-4.131-1.836c-1.674-0.892-3.393-1.776-4.863-2.952c-1.725-1.378-3.175-3.095-4.797-4.608
		C346.564,304.157,345.928,303.067,345.783,301.473z"/>
	<path fill-rule="evenodd" clip-rule="evenodd" d="M242.779,256.099c2.894-1.746,5.62-3.696,8.293-5.743
		c-4.727,3.231-9.243,6.318-14.016,9.58C239.064,258.911,241.281,257.002,242.779,256.099z"/>
	<path fill-rule="evenodd" clip-rule="evenodd" d="M253.878,271.555c-1.499-0.508-1.303-1.262-0.69-1.932
		c1.128-1.235,2.433-2.314,3.504-3.593c1.655-1.976,3.512-3.699,5.731-4.991c2.464-1.435,4.973-2.812,8.082-2.506
		C263.53,261.068,258.239,265.726,253.878,271.555z"/>
	<path fill-rule="evenodd" clip-rule="evenodd" d="M254.728,276.486c0.471-1.082,0.624-1.865,1.073-2.399
		c3.803-4.526,8.682-7.084,14.551-7.753c0.125-0.014,0.265,0.117,0.568,0.261c-0.611,0.866-1.569,0.982-2.397,1.227
		c-2.753,0.814-5.329,1.955-7.585,3.769C259.024,273.128,257.083,274.632,254.728,276.486z"/>
	<path fill-rule="evenodd" clip-rule="evenodd" d="M287.434,281.328c0.514,1.663-0.879,1.595-1.565,2.3
		c0.458,0.37,0.947,0.763,1.377,1.11c-1.103,1.468-2.112,2.81-3.12,4.152c-1.366,1.821-4.343,2.521-6.392,1.486
		c-0.104-0.053-0.126-0.271-0.262-0.59c0.556-0.181,1.099-0.357,1.571-0.51c-0.498-1.839-0.985-3.639-1.497-5.529
		c-0.825-0.113-1.667,1.354-2.849,0.465c2.282-3.238,6.832-4.654,10.012-3.011C285.665,281.693,286.472,281.977,287.434,281.328z
		 M284.958,282.906c-1.471-1.418-3.066-0.725-4.552-0.856c-0.435,0.833-0.813,1.523-1.161,2.229
		c-0.609,1.236-0.512,2.437,0.19,3.617c0.717,1.204,1.641,1.554,2.709,0.717c1.502-1.177,3.389-2.243,2.578-4.742
		C284.642,283.627,284.856,283.288,284.958,282.906z"/>
	<path fill-rule="evenodd" clip-rule="evenodd" d="M274.652,279.832c2.332-3.724,9.09-4.327,11.225-0.919
		c-0.45-0.108-0.763-0.093-0.945-0.241c-1.619-1.311-3.431-0.983-5.186-0.531C278.071,278.574,276.452,279.225,274.652,279.832z"/>
	<path fill-rule="evenodd" clip-rule="evenodd" d="M272.979,285.854c0.025-0.645-0.976-0.643-1,0
		c-0.106,2.76,0.102,5.501,0.602,8.216c0.116,0.634,1.08,0.365,0.964-0.266C273.061,291.174,272.877,288.524,272.979,285.854z"/>
	<path fill-rule="evenodd" clip-rule="evenodd" d="M274.229,294.729c-0.868,0.012-1.721,0.162-2.583,0.25
		c-0.635,0.065-0.641,1.066,0,1c0.862-0.088,1.715-0.238,2.583-0.25C274.874,295.719,274.875,294.719,274.229,294.729z"/>
	<path fill-rule="evenodd" clip-rule="evenodd" d="M268.974,280.3c-2.6-3.542-9.384-3.647-11.262-0.092
		c0.441-0.141,0.754-0.149,0.925-0.31c1.518-1.427,3.35-1.232,5.132-0.91C265.472,279.296,267.134,279.827,268.974,280.3z"/>
	<path fill-rule="evenodd" clip-rule="evenodd" d="M274.934,326.333c-0.322-0.888-1.199-1.437-2.083-1.626
		c-0.763-0.163-1.414-0.028-1.938,0.293c-0.013-0.006-0.021-0.015-0.035-0.02c-1.427-0.454-1.586,2.679-1.463,3.454
		c0.165,1.039,1.084,2.065,2.081,2.357c1.07,0.313,2.151-0.555,2.728-1.36C274.877,328.521,275.336,327.442,274.934,326.333z
		 M273.69,329.439c-0.771,0.771-2.058,0.771-2.828,0c-0.005-0.005-0.011-0.01-0.016-0.016c-0.367-0.367-0.554-0.852-0.571-1.342
		c-0.028-0.13-0.046-0.263-0.046-0.4v-0.016c0-1.09,0.91-2,2-2c0.036,0,0.07,0.009,0.106,0.011c0.054-0.002,0.099-0.016,0.154-0.015
		c0.582,0.014,1.121,0.389,1.43,0.858c0.081,0.123,0.125,0.252,0.153,0.383c0.094,0.221,0.144,0.461,0.151,0.711
		C274.355,328.255,274.179,328.951,273.69,329.439z"/>
	<path fill-rule="evenodd" clip-rule="evenodd" d="M275.606,294.967c-0.15,0.217-0.162,0.546,0.121,0.735
		c0.178,0.119,0.36,0.216,0.546,0.296c-0.684,0.881-1.577,1.502-2.677,1.832c-0.86,0.257-1.834,0.425-2.722,0.199
		c-0.449-0.114-0.808-0.219-1.27-0.217c-0.645,0.002-0.645,1.002,0,1c0.688-0.002,1.335,0.284,2.029,0.317
		c0.885,0.043,1.792-0.204,2.628-0.455c1.282-0.384,2.356-1.339,3.089-2.437c0.249,0.014,0.502,0.01,0.762-0.027
		c0.215-0.031,0.319-0.164,0.348-0.32C277.406,295.903,276.22,295.657,275.606,294.967z"/>
	<path fill-rule="evenodd" clip-rule="evenodd" d="M255.021,291.979c-0.645,0-0.645,1,0,1S255.667,291.979,255.021,291.979z"/>
	<path fill-rule="evenodd" clip-rule="evenodd" d="M290.005,282.108c-0.277-2.202-1.034-4.19-2.01-6.143
		c-0.049-0.066-0.091-0.13-0.142-0.196c-0.98-1.287-1.946-2.542-2.871-3.872c-0.55-0.791-1.193-1.31-2.12-1.525
		c-0.401-0.093-0.822,0.349-0.564,0.734c0.028,0.042,0.056,0.083,0.083,0.125c0.136,0.204,0.345,0.255,0.533,0.213
		c1.049,0.411,1.592,1.497,2.133,2.412c0.659,1.115,1.637,2.018,2.417,3.042c1.586,2.083,2.265,4.368,2.265,6.998
		c0,0.27,0.177,0.42,0.381,0.464C290.116,283.604,290.099,282.85,290.005,282.108z"/>
	<path fill-rule="evenodd" clip-rule="evenodd" d="M299.618,292.671c-0.606-1.759-1.301-3.674-1.279-5.572
		c-0.032-0.197-0.071-0.44-0.063-0.666c-0.263-0.131-0.599-0.079-0.653,0.287c-0.203,1.378,0.208,2.576,0.709,3.784
		c-0.372-0.096-0.827,0.296-0.575,0.726c0.808,1.379,1.475,2.766,1.963,4.289c0.309,0.962,0.718,2.04,1.674,2.516
		c0.375,0.187,0.715-0.114,0.75-0.426c0.02,0.001,0.039-0.005,0.058-0.007C301.127,296.084,300.237,294.467,299.618,292.671z"/>
	<path fill-rule="evenodd" clip-rule="evenodd" d="M345.519,408.39c1.494-0.48,2.52-1.192,3.232-2.108
		c0.661,0.959,2.185,1.299,3.37,0.742c1.178-3.611,2.302-7.233,3.488-10.798c0.211-0.836,0.429-1.671,0.667-2.501
		c0.934-3.26,2.045-6.441,3.271-9.579c1.065-3.401,2.175-6.808,3.525-10.085c-0.344-0.559-0.955-0.875-1.636-0.942
		c2.296-5.214,4.567-10.436,7.077-15.545c1.416-2.883-2.896-5.418-4.317-2.523c-2.705,5.507-4.976,11.207-7.419,16.836
		c-1.213,4.166-2.807,8.21-4.35,12.285c-1.024,2.706-1.921,5.429-2.763,8.169c-1.44,4.879-2.826,9.775-4.214,14.67
		c-0.18,0.635-0.722,1.211-1.372,1.401C344.496,408.544,344.975,408.564,345.519,408.39z"/>
	<g>
		<path fill="none" stroke="#000000" stroke-width="4" stroke-miterlimit="10" d="M365.668,406.863
			c0.017-0.038,0.035-0.076,0.054-0.115c7.148-14.701,21.818-25.552,39.672-27.393c27.076-2.795,51.222,16.199,53.926,42.418
			c2.704,26.224-17.055,49.745-44.131,52.538c-27.076,2.794-51.218-16.199-53.922-42.422c-0.457-4.419-0.275-8.762,0.472-12.937
			c0.025-0.148,0.054-0.295,0.082-0.442c0.014-0.068,0.026-0.137,0.04-0.203c0.006-0.037,0.014-0.073,0.021-0.107
			c0.018-0.096,0.037-0.19,0.057-0.286"/>
		<path fill="none" stroke="#000000" stroke-width="6" stroke-miterlimit="10" d="M428.533,426.338
			c-0.831-8.055-8.345-13.876-16.78-13.007c-3.716,0.386-6.989,2.002-9.42,4.38c-7.467-6.379-21.109-9.449-34.562-10.706
			c-0.029-0.003-0.056-0.004-0.085-0.008c-2.888-0.27-5.768-0.456-8.574-0.572c-0.04-0.001-0.08-0.003-0.121-0.005
			c-11.046-0.459-20.945,0.142-25.847,0.883c-0.376,0.057-0.724,0.114-1.041,0.174l-4.079,13.054
			c1.582-0.278,3.162-0.531,4.744-0.733c6.86-3.068,14.922-3.717,23.127-3.014c2.646,0.225,5.308,0.59,7.948,1.061
			c0.048,0.005,0.095,0.015,0.142,0.022c0.019,0.004,0.036,0.006,0.053,0.011c0.039,0.006,0.075,0.011,0.11,0.017
			c13.423,2.426,26.254,7.466,33.764,10.289c0.005,0.432,0.021,0.868,0.065,1.306c0.832,8.056,8.344,13.878,16.781,13.007
			C423.198,441.626,429.363,434.391,428.533,426.338z"/>
		<path fill="none" stroke="#000000" stroke-width="6" stroke-miterlimit="10" d="M413.569,415.191c0,0,5.032-34.029,5.252-33.993"
			/>
		
			<line fill="none" stroke="#000000" stroke-width="6" stroke-miterlimit="10" x1="425.843" y1="422.856" x2="453.968" y2="406.303"/>
		
			<line fill="none" stroke="#000000" stroke-width="6" stroke-miterlimit="10" x1="424.917" y1="435.704" x2="450.49" y2="455.971"/>
		
			<line fill="none" stroke="#000000" stroke-width="6" stroke-miterlimit="10" x1="413.127" y1="443.095" x2="415.167" y2="476.13"/>
		<path fill="none" stroke="#000000" stroke-width="6" stroke-miterlimit="10" d="M399.357,437.822
			c-0.077-0.091-21.731,26.948-21.731,26.948"/>
		
			<line fill="none" stroke="#000000" stroke-width="6" stroke-miterlimit="10" x1="404.075" y1="416.25" x2="387.388" y2="387.093"/>
		<path fill="none" stroke="#000000" stroke-width="4" stroke-miterlimit="10" d="M359.03,406.323
			c7.719-18.706,25.625-32.784,47.698-35.062c8.141-0.84,16.055,0.008,23.373,2.253c0.451,0.139,0.899,0.282,1.345,0.431
			c4.39,1.464,8.552,3.434,12.404,5.846c14.08,8.815,24.025,23.53,25.827,40.992c1.607,15.571-3.571,30.325-13.207,41.496
			c-0.457,0.53-0.925,1.053-1.402,1.566c-0.189,0.203-0.38,0.405-0.573,0.606c-0.184,0.192-0.369,0.384-0.555,0.574
			c-0.253,0.258-0.509,0.513-0.767,0.766c-0.304,0.297-0.61,0.59-0.921,0.88c-0.879,0.823-1.785,1.621-2.718,2.39
			c-3.346,2.761-7.027,5.166-10.987,7.146c-6.189,3.094-13.058,5.15-20.385,5.906c-31.609,3.26-59.793-18.912-62.951-49.524
			c-0.552-5.351-0.302-10.608,0.655-15.654c0.008-0.051,0.018-0.101,0.028-0.148"/>
	</g>
	<path fill="none" stroke="#000000" stroke-width="2" stroke-miterlimit="10" d="M222.58,225.655c0.018,0,0.355-3.065,0.355-3.065
		c2.437-20.093,51.716-59.435,51.716-59.435s1.286-1.25,3.224-1.438"/>
	<path fill="none" stroke="#000000" stroke-width="2" stroke-miterlimit="10" d="M301.949,162.795"/>
	<path fill="none" stroke="#000000" stroke-width="2" stroke-miterlimit="10" d="M333.988,230.468l-0.009-1.789
		c0.645-25.269-33.33-65.993-33.33-65.993s-2.166-2.156-3.126-2.093"/>
	<path d="M225.21,239.719c-0.487-0.838-1.404-1.146-2.308-1.247c-0.289-0.032-0.565-0.017-0.832,0.024
		c-0.125-0.03-0.256-0.05-0.403-0.048c-1.078,0.015-2.359,0.32-2.876,1.386c-0.468,0.964-0.261,2.008,0.291,2.893
		c0.987,1.582,3.094,3.045,4.978,2.166c1.048-0.489,1.501-1.833,1.449-2.914c-0.007-0.139-0.051-0.261-0.082-0.389
		C225.595,240.965,225.54,240.287,225.21,239.719z M224.744,242.445c-0.312,1.127-1.302,1.96-2.494,1.96
		c-1.192,0-2.182-0.833-2.494-1.96c-0.364-1.312,0.435-2.714,1.746-3.075c0.25-0.069,0.5-0.083,0.748-0.073
		c0.248-0.01,0.499,0.004,0.748,0.073C224.31,239.73,225.108,241.132,224.744,242.445z"/>
	<path d="M334.833,243.78c0.467,0,0.911,0.145,1.296,0.382c-0.242-0.491-0.687-0.868-1.23-0.995
		c-0.796-0.186-1.623,0.237-1.845,1.047c-0.035,0.125-0.042,0.254-0.041,0.383C333.465,244.1,334.104,243.78,334.833,243.78z"/>
	<g>
		<path d="M224.11,224.787c-0.051,0.036-0.112,0.077-0.187,0.122c0.07-0.043,0.122-0.094,0.18-0.143
			c-0.247-0.828-0.383-1.656-0.272-2.489c-0.397-0.235-0.901-0.277-1.422,0.041c-0.188,0.115-0.353,0.261-0.509,0.417
			c0.182,2.791-1.835,5.854-4.942,5.379c-1.909-0.292-3.927-2.061-4.956-3.97c-0.691,0.647-0.851,1.8,0.24,2.264
			c2.587,1.102,3.392,5.432,6.942,4.456c1.523-0.419,2.372-1.281,3.2-2.589c0.479-0.756,0.855-1.582,1.24-2.387
			c0.153-0.321,0.305-0.641,0.462-0.959c0.016-0.032,0.028-0.044,0.043-0.07C224.124,224.835,224.117,224.811,224.11,224.787z"/>
	</g>
	<path d="M288.233,157.336c-0.602-1.129-1.825-1.414-2.996-1.329c0.112,0.063,0.229,0.118,0.323,0.213
		c0.021,0.021,0.042,0.042,0.062,0.062c0.578,0.578,0.578,1.543,0,2.121c-0.384,0.384-0.935,0.489-1.434,0.362
		c0.325,0.195,0.725,0.271,1.133,0.213c0.004,0.001,0.022,0,0.052-0.001c0.008-0.001,0.017,0.001,0.025,0
		c0.004,0,0.004-0.001,0.007-0.001c0.011-0.001,0.015-0.001,0.028-0.002c0.099-0.008,0.198,0,0.296,0.005
		c0.429,0.612,1.324,0.785,1.963,0.41C288.42,158.963,288.618,158.057,288.233,157.336z"/>
	<path d="M299.675,156.433c-0.484-1.033-1.955-1.486-2.881-0.787c-0.112,0.085-0.208,0.187-0.304,0.288
		c0.517-0.159,1.105-0.055,1.508,0.348l0.188,0.188c0.578,0.578,0.578,1.543,0,2.121c-0.578,0.578-1.543,0.578-2.121,0l-0.188-0.188
		c-0.518-0.517-0.545-1.331-0.137-1.914c-0.246-0.005-0.496,0.01-0.764,0.094c-1.801,0.565-1.082,3.347,0.688,2.916
		c0.217,0.562,0.767,0.921,1.399,0.968c0.974,0.073,1.796-0.537,2.355-1.27C300.048,158.372,300.107,157.354,299.675,156.433z"/>
	<g>
		<g>
			<path fill="none" stroke="#000000" stroke-width="4" stroke-miterlimit="10" d="M172.829,408.223
				c-0.017-0.036-0.034-0.07-0.052-0.105c-6.864-13.341-20.549-22.993-36.968-24.312c-24.901-2.004-46.663,15.925-48.601,40.036
				c-1.938,24.117,16.679,45.289,41.579,47.292c24.901,2.004,46.66-15.923,48.598-40.04c0.327-4.063,0.072-8.044-0.701-11.859
				c-0.026-0.136-0.056-0.271-0.084-0.404c-0.014-0.062-0.027-0.125-0.041-0.186c-0.006-0.034-0.014-0.067-0.021-0.099
				c-0.019-0.086-0.038-0.173-0.058-0.263"/>
			<path fill="none" stroke="#000000" stroke-width="6" stroke-miterlimit="10" d="M115.551,427.392
				c0.596-7.408,7.369-12.904,15.127-12.282c3.418,0.277,6.453,1.693,8.733,3.825c6.719-6.009,19.174-9.109,31.49-10.539
				c0.026-0.004,0.051-0.006,0.078-0.01c2.644-0.307,5.284-0.536,7.855-0.703c0.035-0.001,0.072-0.003,0.11-0.006
				c10.125-0.65,19.221-0.304,23.734,0.275c0.346,0.044,0.667,0.09,0.958,0.138l4.013,11.894c-1.456-0.225-2.912-0.424-4.368-0.576
				c-6.358-2.672-13.768-3.101-21.283-2.285c-2.423,0.26-4.857,0.649-7.269,1.138c-0.045,0.005-0.088,0.015-0.13,0.022
				c-0.018,0.005-0.034,0.007-0.049,0.011c-0.036,0.007-0.069,0.013-0.101,0.018c-12.267,2.504-23.935,7.395-30.767,10.141
				c0.003,0.396-0.001,0.796-0.033,1.199c-0.597,7.408-7.368,12.906-15.128,12.282C120.762,441.309,114.956,434.798,115.551,427.392
				z"/>
			<path fill="none" stroke="#000000" stroke-width="6" stroke-miterlimit="10" d="M129.049,416.855c0,0-5.321-31.12-5.522-31.082"
				/>
			
				<line fill="none" stroke="#000000" stroke-width="6" stroke-miterlimit="10" x1="117.947" y1="424.143" x2="91.798" y2="409.534"/>
			
				<line fill="none" stroke="#000000" stroke-width="6" stroke-miterlimit="10" x1="119.062" y1="435.91" x2="96.018" y2="455.036"/>
			
				<line fill="none" stroke="#000000" stroke-width="6" stroke-miterlimit="10" x1="130.033" y1="442.448" x2="128.846" y2="472.802"/>
			<path fill="none" stroke="#000000" stroke-width="6" stroke-miterlimit="10" d="M142.558,437.325
				c0.07-0.084,20.499,24.276,20.499,24.276"/>
			
				<line fill="none" stroke="#000000" stroke-width="6" stroke-miterlimit="10" x1="137.783" y1="417.629" x2="152.491" y2="390.53"/>
			<path fill="none" stroke="#000000" stroke-width="4" stroke-miterlimit="10" d="M178.908,407.589
				c-7.47-17.004-24.191-29.55-44.49-31.183c-7.487-0.602-14.731,0.339-21.398,2.551c-0.411,0.136-0.819,0.276-1.226,0.422
				c-3.998,1.436-7.776,3.328-11.261,5.621c-12.735,8.381-21.557,22.087-22.848,38.147c-1.152,14.319,3.904,27.75,12.976,37.8
				c0.432,0.478,0.871,0.948,1.319,1.408c0.179,0.184,0.358,0.365,0.538,0.546c0.172,0.172,0.346,0.344,0.521,0.516
				c0.237,0.23,0.477,0.458,0.72,0.687c0.285,0.265,0.572,0.528,0.863,0.788c0.824,0.735,1.671,1.449,2.543,2.136
				c3.127,2.464,6.555,4.595,10.229,6.329c5.742,2.711,12.087,4.455,18.826,4.997c29.069,2.337,54.47-18.59,56.733-46.744
				c0.396-4.921,0.058-9.739-0.925-14.35c-0.008-0.045-0.018-0.092-0.029-0.134"/>
		</g>
		<g>
			<path fill="none" stroke="#000000" stroke-width="4" stroke-miterlimit="10" d="M158.083,410.78
				c-0.048-0.129-0.097-0.257-0.146-0.386c-0.023-0.06-0.044-0.119-0.067-0.177c-0.012-0.033-0.024-0.064-0.037-0.094
				c-0.031-0.084-0.064-0.165-0.097-0.251"/>
			<path fill="none" stroke="#000000" stroke-width="4" stroke-miterlimit="10" d="M118.739,469.43
				c24.912-1.851,43.655-22.91,41.86-47.038"/>
			<path fill="none" stroke="#000000" stroke-width="4" stroke-miterlimit="10" d="M102.296,383.888
				c-19.759,5.908-33.46,24.422-31.914,45.208c1.073,14.443,9.264,26.715,21.012,33.84c0.447,0.271,0.899,0.534,1.355,0.79
				c0.229,0.127,0.458,0.253,0.688,0.377c0.285,0.153,0.571,0.303,0.86,0.45c0.144,0.075,0.288,0.147,0.434,0.22"/>
			<path fill="none" stroke="#000000" stroke-width="4" stroke-miterlimit="10" d="M152.58,400.495
				c-0.022-0.033-0.044-0.063-0.068-0.096c-5.753-7.901-14.127-13.81-23.807-16.63"/>
			<path fill="none" stroke="#000000" stroke-width="6" stroke-miterlimit="10" d="M120.362,438.623
				c-1.87,1.109-4.037,1.82-6.377,1.994c-7.764,0.578-14.502-4.965-15.054-12.372c-0.55-7.411,5.298-13.886,13.059-14.462
				c3.419-0.253,6.637,0.68,9.217,2.436c5.715-6.969,17.544-11.948,29.495-15.258c0.025-0.009,0.05-0.012,0.075-0.021
				c0.597-0.164,1.194-0.326,1.79-0.484c1.316-0.343,2.63-0.67,3.934-0.977c0.646-0.151,1.291-0.299,1.931-0.44
				c0.035-0.008,0.071-0.015,0.107-0.024c2.31-0.513,4.573-0.964,6.742-1.354"/>
			<path fill="none" stroke="#000000" stroke-width="6" stroke-miterlimit="10" d="M171.725,406.199
				c-2.885,0.313-5.807,0.897-8.714,1.678c-1.982,0.531-3.958,1.152-5.911,1.844c-0.368,0.13-0.733,0.263-1.099,0.398
				c-0.042,0.013-0.084,0.029-0.124,0.043c-0.016,0.005-0.032,0.011-0.048,0.019c-0.034,0.011-0.065,0.021-0.097,0.033
				c-6.154,2.287-12.044,5.196-17.168,7.989"/>
			<path fill="none" stroke="#000000" stroke-width="6" stroke-miterlimit="10" d="M172.277,396.549
				c4.075-0.557,7.479-0.852,9.755-0.913c0.35-0.009,0.673-0.012,0.969-0.011l5.794,11.135c-1.473,0.003-2.942,0.028-4.405,0.104
				c-2.019-0.503-4.102-0.787-6.226-0.887"/>
			<path fill="none" stroke="#000000" stroke-width="6" stroke-miterlimit="10" d="M100.412,385.896"/>
			<path fill="none" stroke="#000000" stroke-width="6" stroke-miterlimit="10" d="M110.649,415.756c0,0-4.408-13.134-7.44-21.979"
				/>
			
				<line fill="none" stroke="#000000" stroke-width="6" stroke-miterlimit="10" x1="78.679" y1="416.465" x2="72.716" y2="414.253"/>
			
				<line fill="none" stroke="#000000" stroke-width="6" stroke-miterlimit="10" x1="100.799" y1="424.664" x2="87.726" y2="419.819"/>
			<line fill="none" stroke="#000000" stroke-width="6" stroke-miterlimit="10" x1="86.465" y1="455.641" x2="83.88" y2="458.564"/>
			
				<line fill="none" stroke="#000000" stroke-width="6" stroke-miterlimit="10" x1="103.711" y1="436.121" x2="92.752" y2="448.524"/>
			
				<line fill="none" stroke="#000000" stroke-width="6" stroke-miterlimit="10" x1="115.557" y1="440.895" x2="118.86" y2="469.423"/>
			<path fill="none" stroke="#000000" stroke-width="6" stroke-miterlimit="10" d="M135.255,440.889
				c6.96,6.054,15.876,13.853,15.876,13.853"/>
			
				<line fill="none" stroke="#000000" stroke-width="6" stroke-miterlimit="10" x1="119.398" y1="415.18" x2="129.763" y2="386.142"/>
			<path fill="none" stroke="#000000" stroke-width="4" stroke-miterlimit="10" d="M163.587,409.457
				c-0.168-0.484-0.344-0.969-0.526-1.447c-0.016-0.044-0.031-0.089-0.049-0.13"/>
			<path fill="none" stroke="#000000" stroke-width="4" stroke-miterlimit="10" d="M138.538,470.902
				c17.742-9.342,29.185-28.129,27.645-48.855c-0.042-0.555-0.091-1.106-0.15-1.654"/>
			<path fill="none" stroke="#000000" stroke-width="4" stroke-miterlimit="10" d="M117.311,476.961
				c-29.083,2.158-54.357-18.92-56.449-47.087c-1.405-18.917,8.004-36.222,23.149-46.198c0.312-0.205,0.627-0.407,0.944-0.607
				c0.221-0.14,0.443-0.277,0.667-0.413c0.148-0.089,0.296-0.18,0.445-0.268c0.3-0.177,0.601-0.354,0.905-0.526
				c0.439-0.25,0.882-0.494,1.33-0.731l4.443-2.107c5.255-2.203,10.967-3.61,16.988-4.059c5.826-0.433,11.499,0.068,16.862,1.37"/>
			<path fill="none" stroke="#000000" stroke-width="4" stroke-miterlimit="10" d="M158.489,398.933
				c-3.17-4.963-7.19-9.341-11.85-12.957"/>
		</g>
	</g>
	<path fill-rule="evenodd" clip-rule="evenodd" fill="none" stroke="#000000" stroke-miterlimit="10" d="M504.381,434.48
		c-5.815,0.269-11.626,0.628-17.43,1.076"/>
	
		<line fill-rule="evenodd" clip-rule="evenodd" fill="none" stroke="#000000" stroke-miterlimit="10" x1="476.92" y1="433.883" x2="470.133" y2="433.883"/>
	<path fill-rule="evenodd" clip-rule="evenodd" fill="none" stroke="#000000" stroke-miterlimit="10" d="M458.985,433.883
		c0,0-7.275-1.674-12.308,0c0,0-9.461,0.114-18.069-0.744"/>
	<path fill-rule="evenodd" clip-rule="evenodd" fill="none" stroke="#000000" stroke-miterlimit="10" d="M354.924,426.833
		c0,0,3.412,2.312-15.256-0.87"/>
	<path fill-rule="evenodd" clip-rule="evenodd" fill="none" stroke="#000000" stroke-miterlimit="10" d="M60.724,424.143
		c0,0-5.724,8.308-60.724,3.723"/>
</g>
<g id="Layer_2">
	<path fill="#FFCB05" d="M192.354,414.58"/>
	<path fill="none" stroke="#000000" stroke-width="3" stroke-miterlimit="10" d="M191.612,414.175c0,0,6.444,31.335,76.218,26.319
		c0,0,71.723,5.227,76.249-23.645"/>
	<path fill-rule="evenodd" clip-rule="evenodd" d="M367.69,346.817c-13.746,4.401-28.461,5.983-42.706,8.001
		c-8.776,1.243-17.58,2.291-26.404,3.11c-0.401-0.419-0.972-0.699-1.726-0.7c-4.753-0.004-9.507-0.033-14.262-0.077
		c-0.88,0.113-1.761,0.22-2.646,0.301c-5.026,0.461-10.048,0.526-15.092,0.526c-9.868-0.001-19.744,0.024-29.605-0.369
		c-19.228-0.768-38.505-2.135-57.645-4.131c-0.061-0.006-0.114-0.024-0.172-0.035c-1.276-0.073-2.553-0.14-3.828-0.215
		c-3.222-0.189-3.204,4.812,0,5c0.579,0.034,1.159,0.063,1.737,0.098c0.382,0.349,0.883,0.595,1.513,0.652
		c32.667,2.992,65.653,6.748,98.491,5.54c15.764-0.58,31.493-2.219,47.118-4.349c15.493-2.111,31.614-3.747,46.556-8.53
		C372.077,350.66,370.77,345.832,367.69,346.817z"/>
	<path fill-rule="evenodd" clip-rule="evenodd" d="M236.854,348.229c-21.73-0.052-43.4-1.731-65-4c-1.923-0.202-1.904,2.8,0,3
		c21.6,2.269,43.27,3.948,65,4C238.789,351.233,238.789,348.233,236.854,348.229z"/>
</g>
<g id="Layer_3">
	<g>
		<path fill="none" stroke="#000000" stroke-width="4" stroke-miterlimit="10" d="M381.793,409.288
			c0.048-0.143,0.098-0.282,0.149-0.424c0.024-0.065,0.046-0.131,0.07-0.194c0.012-0.036,0.025-0.07,0.038-0.103
			c0.032-0.093,0.065-0.183,0.099-0.275"/>
		<path fill="none" stroke="#000000" stroke-width="4" stroke-miterlimit="10" d="M426.094,472.21
			c-27.184-1.404-48.117-23.885-46.756-50.212"/>
		<path fill="none" stroke="#000000" stroke-width="4" stroke-miterlimit="10" d="M441.902,378.623
			c21.668,5.95,37.05,25.779,35.876,48.46c-0.814,15.762-9.435,29.329-22.058,37.379c-0.48,0.307-0.966,0.604-1.457,0.895
			c-0.246,0.145-0.492,0.287-0.74,0.428c-0.306,0.174-0.615,0.344-0.926,0.512c-0.155,0.084-0.311,0.167-0.468,0.249"/>
		<path fill="none" stroke="#000000" stroke-width="4" stroke-miterlimit="10" d="M387.536,397.948
			c0.023-0.036,0.046-0.07,0.071-0.106c6.074-8.747,15.05-15.389,25.525-18.699"/>
		<path fill="none" stroke="#000000" stroke-width="6" stroke-miterlimit="10" d="M423.568,438.69
			c2.064,1.163,4.441,1.884,6.996,2.016c8.471,0.438,15.675-5.764,16.094-13.847c0.417-8.088-6.112-14.996-14.58-15.434
			c-3.731-0.19-7.213,0.902-9.981,2.88c-6.397-7.452-19.406-12.584-32.504-15.896c-0.028-0.008-0.055-0.012-0.083-0.021
			c-0.654-0.165-1.308-0.326-1.961-0.482c-1.442-0.344-2.882-0.666-4.309-0.968c-0.708-0.149-1.413-0.294-2.114-0.434
			c-0.039-0.007-0.078-0.015-0.118-0.023c-2.528-0.502-5.005-0.938-7.378-1.311"/>
		<path fill="none" stroke="#000000" stroke-width="6" stroke-miterlimit="10" d="M366.82,404.632
			c3.151,0.271,6.348,0.835,9.534,1.614c2.172,0.529,4.339,1.158,6.484,1.863c0.403,0.133,0.805,0.269,1.206,0.407
			c0.047,0.013,0.092,0.029,0.137,0.044c0.018,0.006,0.035,0.011,0.052,0.02c0.037,0.011,0.072,0.021,0.106,0.033
			c6.759,2.34,13.248,5.364,18.898,8.281"/>
		<path fill="none" stroke="#000000" stroke-width="6" stroke-miterlimit="10" d="M365.981,394.134
			c-4.452-0.506-8.167-0.744-10.649-0.755c-0.381-0.001-0.733,0.003-1.056,0.013l-6.038,12.271c1.605-0.033,3.206-0.04,4.8,0.005
			c2.188-0.597,4.449-0.958,6.76-1.119"/>
		<path fill="none" stroke="#000000" stroke-width="6" stroke-miterlimit="10" d="M433.586,413.542c0,0,4.479-14.414,7.564-24.125"
			/>
		
			<line fill="none" stroke="#000000" stroke-width="6" stroke-miterlimit="10" x1="468.43" y1="413.528" x2="474.871" y2="410.974"/>
		
			<line fill="none" stroke="#000000" stroke-width="6" stroke-miterlimit="10" x1="444.535" y1="423.005" x2="458.657" y2="417.404"/>
		
			<line fill="none" stroke="#000000" stroke-width="6" stroke-miterlimit="10" x1="460.911" y1="456.395" x2="463.797" y2="459.516"/>
		
			<line fill="none" stroke="#000000" stroke-width="6" stroke-miterlimit="10" x1="441.645" y1="435.557" x2="453.888" y2="448.798"/>
		
			<line fill="none" stroke="#000000" stroke-width="6" stroke-miterlimit="10" x1="428.858" y1="441.047" x2="425.96" y2="472.205"/>
		<path fill="none" stroke="#000000" stroke-width="6" stroke-miterlimit="10" d="M407.4,441.524
			c-7.434,6.767-16.955,15.479-16.955,15.479"/>
		
			<line fill="none" stroke="#000000" stroke-width="6" stroke-miterlimit="10" x1="424.042" y1="413.129" x2="412.038" y2="381.753"/>
		<path fill="none" stroke="#000000" stroke-width="4" stroke-miterlimit="10" d="M375.765,407.982
			c0.171-0.533,0.351-1.063,0.538-1.59c0.016-0.049,0.032-0.097,0.05-0.143"/>
		<path fill="none" stroke="#000000" stroke-width="4" stroke-miterlimit="10" d="M404.562,474.299
			c-19.556-9.738-32.483-29.923-31.314-52.54c0.031-0.604,0.072-1.206,0.123-1.805"/>
		<path fill="none" stroke="#000000" stroke-width="4" stroke-miterlimit="10" d="M415.248,370.991
			c5.811-1.551,11.978-2.235,18.335-1.907c6.57,0.34,12.827,1.733,18.605,4.003l4.892,2.187c0.493,0.248,0.982,0.503,1.467,0.765
			c0.334,0.181,0.667,0.365,0.998,0.552c0.165,0.093,0.328,0.187,0.491,0.28c0.247,0.143,0.492,0.287,0.736,0.434
			c0.351,0.209,0.698,0.422,1.043,0.639c16.743,10.495,27.418,29.113,26.353,49.755c-1.588,30.734-28.6,54.317-60.334,52.68"/>
		<path fill="none" stroke="#000000" stroke-width="4" stroke-miterlimit="10" d="M381.06,396.393
			c3.331-5.484,7.603-10.352,12.59-14.405"/>
	</g>
</g>
</svg>
