<?xml version="1.0" encoding="utf-8"?>
<!-- Generator: Adobe Illustrator 16.0.0, SVG Export Plug-In . SVG Version: 6.00 Build 0)  -->
<!DOCTYPE svg PUBLIC "-//W3C//DTD SVG 1.0//EN" "http://www.w3.org/TR/2001/REC-SVG-20010904/DTD/svg10.dtd">
<svg version="1.0" xmlns="http://www.w3.org/2000/svg" xmlns:xlink="http://www.w3.org/1999/xlink" x="0px" y="0px" width="640px"
	 height="960px" viewBox="0 0 640 960" enable-background="new 0 0 640 960" xml:space="preserve">
<g id="Layer_1">
	<g>
		<path fill-rule="evenodd" clip-rule="evenodd"  fill="#000000" stroke="#000000" stroke-width="4" stroke-miterlimit="10" d="M554.972,429.893
			c-0.935-2.427-0.644-5.333-0.867-8.03c-0.27-3.211-0.049-6.539-0.846-9.609c-1.586-6.133-4.346-12.004-5.505-18.197
			c-2.615-13.933-11.41-23.54-21.33-32.516c-3.221-2.917-6.355-5.694-6.948-10.47c-0.353-2.836-1.354-5.654-2.446-8.326
			c-1.36-3.336-2.542-7.013-4.83-9.648c-4.008-4.626-8.542-8.892-13.323-12.725c-6.578-5.277-8.443-13.314-12.671-19.948
			c0.015-0.038,0.02-0.07,0.035-0.107c-3.064-4.315-6.415-8.687-9.976-12.471c-2.813-2.99-6.125-5.411-9.153-8.151
			c-1.983-1.047-3.95-2.124-5.892-3.231c-0.144,0.063-0.308,0.08-0.481-0.029c-0.71-0.443-1.425-0.865-2.132-1.293
			c-0.058-0.01-0.118-0.019-0.175-0.054c-1.655-0.919-3.698-1.96-5.001-3.488c-1.502-1-3.018-1.983-4.513-2.998
			c-3.252-1.657-6.508-3.851-9.7-5.711c-8.073-4.701-15.956-7.366-24.489-10.712c-7.257-0.462-14.478-1.046-21.539-2.669
			c-0.552-0.075-1.109-0.134-1.658-0.21c-0.088-0.014-0.139-0.056-0.217-0.077c-0.008,0.055-0.03,0.112-0.033,0.168
			c-7.296-0.933-14.828-1.736-22.289-3.008c-5.771-0.984-9.597-4.693-11.576-10.225c5.5-5.195,10.211-10.747,13.237-17.69
			c3.646-8.372,8.026-16.438,11.455-24.896c2.071-5.119,2.948-10.727,4.572-16.926c0.566-0.171,1.353-0.411,2.327-0.707
			c0.097-0.074,0.154-0.166,0.272-0.23c3.323-1.833,6.709-4.206,9.287-7.041c0.162-0.4,0.444-0.687,0.778-0.901
			c1.129-1.376,2.047-2.855,2.685-4.424c-0.004-0.033-0.034-0.047-0.027-0.087c0.145-1.38,0.552-3.523-0.366-4.736
			c-1.002-1.327-3.32-1.041-4.758-0.954c-0.507,0.032-0.738-0.636-0.4-0.971c0.326-0.329,0.658-0.645,1.008-0.939
			c-0.015-0.049-0.043-0.093-0.056-0.142c5.352-6.352,8.184-13.884,8.934-22.316c0.417-4.739,0.448-10.293-1.003-14.892
			c-0.612-1.949-1.752-3.78-2.568-5.687c3.955-2.883,6.86-7.455,7.514-12.155c1.25-8.949-3.614-18.026-7.949-25.696
			c15.916-5.309,5.977-43.076-6.508-49.43c-0.882-1.158-2.091-2.168-3.347-2.775c-2.606-1.262-5.437-1.906-8.273-2.428
			c-1.569-0.553-3.192-1.023-4.926-1.311c-6.014-2.021-12.843-2.485-18.911-0.688c-2.77,0.272-5.533,0.943-8.273,2.281
			c-8.149,3.971-14.079,10.043-17.783,18.338c-1.119,2.513-2.39,4.967-3.761,7.353c0.062,1.184-0.65,2.403-2.179,2.381
			c-0.027,0-0.048,0.006-0.07,0.005c-0.184-0.184-0.439-0.303-0.782-0.29c-9.524,0.411-22.901,9.729-27.028,20.288
			c-1.021,1.894-1.596,3.906-1.276,5.926c-0.021,0.965,0.025,1.927,0.206,2.884c-4.92,2.16-9.665,4.465-13.718,7.927
			c-0.929,0.876-1.851,1.766-2.751,2.676c-4.53,4.975-7.062,10.75-10.584,16.33c-3.218,15.79-6.452,32.006,6.109,45.083
			c0.263,0.272,0.431,0.563,0.534,0.859c0.716,0.585,1.439,1.165,2.166,1.733c2.483,1.939,5.366,3.36,8.835,5.487
			c-1.453,0.117-2.069,0.119-2.671,0.226c-3.907,0.693-6.271,2.503-6.403,4.862c-0.181,3.253,2.225,6.137,5.51,7.637
			c4.923,2.244,9.286,4.9,10.793,10.982c3.07,12.356,8.215,24.058,14.44,35.057c4.497,7.941,10.863,14.821,16.8,22.719
			c-3.347,6.954-9.727,11.715-17.908,12.798c-14.738,1.948-28.999,5.594-43.141,9.95c-2.941,0.908-5.912,1.735-8.875,2.584
			c-0.587,0.167-1.327,0.534-1.814,0.482c-4.152,1.158-8.758,1.994-12.499,4.03c-1.733,0.939-3.424,1.877-5.18,2.667
			c-3.594,2.374-7.175,4.769-10.795,7.102c-3.883,2.508-7.743,5.091-11.828,7.23c-5.775,3.023-10.128,7.497-13.856,12.647
			c-7.541,10.415-14.443,21.251-20.808,32.418c-3.585,6.287-7.296,12.524-10.414,19.039c-1.639,3.426-2.664,7.36-2.995,11.149
			c-0.495,5.698-3.166,10.036-6.711,14.138c-1.276,1.478-2.467,3.07-3.432,4.761c-2.286,4.008-4.556,8.038-6.571,12.184
			c-2.594,5.338-2.637,11.228-3.338,16.987c-1.177,9.688,0.362,19.195,2.591,28.451c1.308,5.427,4.057,10.505,6.61,16.077
			c0.162,0.191,0.32,0.384,0.427,0.648c0.699,1.735,1.481,3.431,2.294,5.108c0.021-0.021,0.035-0.045,0.057-0.067
			c0.761,0.551,1.331,0.768,1.591,1.181c4.653,7.391,11.11,12.745,18.518,17.247c10.325,6.275,21.581,7.014,33.126,6.128
			c2.73-0.209,5.129,0.002,7.838,0.567c5.721,1.192,11.136,2.626,15.932,6.115c1.042,0.757,2.644,0.749,3.941,1.081
			c0.592,2.444,0.03,4.205-1.451,6.163c-5.99,7.921-11.936,15.896-17.473,24.138c-3.827,5.704-7.397,11.669-10.274,17.892
			c-3.099,6.695-5.345,13.794-7.785,20.776c-1.852,5.28-2.901,10.901-5.234,15.941c-4.592,9.914-7.182,20.28-9.535,30.893
			c-2.409,10.871-4.059,21.652-3.979,32.812c0.111,15.227-0.007,30.358,2.225,45.556c2.063,14.046,5.298,27.777,8.424,41.549
			c3.369,14.837,7.916,29.443,8.757,44.735c0.337,6.123,0.043,12.341-0.642,18.438c-0.766,6.83-2.175,13.599-3.526,20.35
			c-1.499,7.502-2.862,15.053-5.741,22.111c-1.239,6.265-4.122,12.258-7.652,17.743c-1.808,4.132-4.442,7.855-6.751,11.761
			c-4.13,6.993-7.885,14.201-11.912,21.255c-0.722,1.258-1.563,2.438-2.397,3.571c-1.343,2.72-2.917,5.278-4.614,7.758
			c7.415,4.003,14.627,7.966,21.923,11.71c2.522,1.294,5.328,2.227,8.113,2.795c11.432,2.346,22.803,0.398,34.152-0.917
			c4.663-0.536,9.272-1.576,13.871-2.568c3.101-0.666,6.137-1.645,9.523-2.567c0.6,3.846,0.275,7.529,1.781,10.168
			c2.714,4.752,5.129,9.513,6.719,14.746c0.655,2.151,2.104,2.771,4.656,2.264c2.525-0.498,4.831-1.387,6.908-2.601
			c7.536-2.996,14.184-8.302,20.63-13.076c3.919-2.9,7.772-5.835,11.201-9.315c3.497-3.551,3.9-8.202,6.141-12.45
			c0.064-0.121,0.064-0.236,0.107-0.358c23.421,3.283,46.497,6.512,69.779,9.771c0.99,5.604,4.15,10.115,8.594,13.708
			c3.293,2.663,6.819,5.035,10.164,7.638c2.227,1.184,4.518,2.213,6.692,2.925c2.207,0.718,4.456,1.302,6.632,2.061
			c0.291-0.013,0.578-0.009,0.875-0.037c1.132,0.498,2.228,1.01,3.224,1.368c3.766,1.362,7.894,0.923,11.668,2.408
			c1.21,0.475,2.086-0.142,2.484-1.048c0.111-0.168,0.24-0.321,0.315-0.542c2.149-6.331,0.152-13.496-0.289-19.987
			c-0.279-4.121,0.435-8.802,0.178-13.104c2.637,0.712,4.903,1.304,7.111,2.008c6.812,2.167,13.745,3.251,20.9,2.647
			c6.665-0.554,13.356-1.812,19.979-1.494c6.531,0.313,13.009-0.189,19.438-0.028c10.835,0.273,20.764-2.99,30.99-5.272
			c1.388-0.315,2.771-0.904,4.001-1.628c3.269-1.929,6.461-3.991,9.676-6.02c4.436-2.792,5.077-8.072,1.962-12.362
			c-6.488-8.941-13.012-17.875-19.012-27.138c-4.232-6.531-16.05-50.113-16.057-51.363c-0.044-6.475-0.808-61.345,0.646-68.531
			c0.692-3.411,0.992-16.03,1.349-28.316c-1.146-17.594-0.564-35.435-0.262-53.119c-0.574-6.63-1.089-13.262-1.762-19.88
			c-0.684-6.694-1.395-13.389-2.133-20.074c-0.462-5.597-1.027-11.187-1.689-16.768c-1.915-9.64-3.955-19.246-6.409-28.714
			c-0.571-0.56-0.765-1.411-0.594-2.195c-4.11-15.389-9.413-30.381-17.146-44.537c-4.823-6.425-8.884-13.477-13.362-20.296
			c2.248-2.128,4.665-4.418,7.018-6.642c3.601,2.644,3.612,2.753,6.716,2.399c3.949-0.448,7.888-1.017,11.805-1.678
			c5.48-0.927,10.709-3.571,16.512-2.309c0.663,0.145,1.479-0.039,2.136-0.301c4.449-1.78,9.088-3.229,13.261-5.522
			c7.886-4.337,14.862-9.752,20.08-17.022c0.048-0.106,0.097-0.209,0.169-0.314c0.397-0.585,0.808-1.165,1.225-1.735
			c0.552-0.861,1.1-1.719,1.601-2.628c0.695-1.262,1.781-2.311,3.143-4.038c0.014,0.053,0.014,0.101,0.026,0.153
			c0.545-0.796,1.058-1.614,1.548-2.449c-0.029-0.016-0.063-0.03-0.096-0.047c1.362-4.488,2.805-8.917,4.031-13.405
			C555.389,436.303,556.292,433.299,554.972,429.893z M399.027,160.76c-3.838,4.238-5.779,9.664-11.494,11.645
			C388.001,163.775,391.936,159.457,399.027,160.76z M391.008,152.405c-3.857-4.816-7.433-8.105-11.228-12.851
			c7.518-5.813,10.633-11.555,7.767-21.555h6.649c0.094,0,0.185,0,0.277,0h1.94c1.239,4,2.945,5.491,3.244,9.781
			C400.332,137.433,397.615,145.366,391.008,152.405z M341.851,100.67c-0.12-0.042-0.192-0.239-0.473-0.613
			c10.437-8.283,14.064-19.881,15.226-32.739c5.725,0.011,9.753,3.809,14.822,5.775c0,7.012,0.415,14.058-0.172,21.021
			c-0.302,3.625-2.097,7.232-3.719,10.604c-1.283,2.658-3.672,3.343-6.396,2.452C354.693,105.059,348.277,102.852,341.851,100.67z
			 M357.662,122h-24.28c1.469-7,5.128-11.674,11.133-15.472c3.188,1.19,7.017,2.773,10.518,4.51
			C360.305,113.648,360.788,118,357.662,122z M375.824,75.011c4.837,0.292,7.017,2.504,8.328,6.812
			c2.214,7.299,4.236,14.585,4.836,22.195c0.438,5.565-0.688,6.582-5.997,5.691c-1.955-0.327-3.844-1.071-5.8-1.416
			c-1.725-0.305-3.504-0.314-6.03-0.518C378.383,97.379,375.99,86.249,375.824,75.011z M366.269,112.415
			c4.488,0.769,9.419,1.613,14.199,2.432c1.528,6.901,2.103,13.285-2.016,18.713c-2.546-2.197-4.765-4.424-7.292-6.205
			c-2.626-1.848-5.555-3.266-8.137-4.75C364.158,119.038,365.146,115.933,366.269,112.415z M398.044,68.534
			c0.142-0.583,0.282-1.166,0.405-1.753c0.094-2.473-0.068-4.902-0.349-7.319c0.349-3.175,0.6-6.362,0.543-9.595
			c-0.079-4.621-0.854-9.2-1.793-13.741C403.147,46.385,408.076,68.074,398.044,68.534z M395.213,75.667
			c0.074,0.331,0.184,0.665,0.376,1.007c2.785,4.919,5.399,9.854,7.094,15.27c0.84,2.681,1.203,5.518,0.813,8.313
			c-0.388,2.784-2.812,5.998-5.751,7.582c-0.248,0.095-0.481,0.208-0.708,0.348c-1.392,0.605-2.862,0.835-4.279,0.464
			c-0.055-0.014-0.1-0.014-0.153-0.025c0.298-1.569,0.547-2.91,1.251-3.902c1.803-2.548,1.533-4.947,0.854-7.633
			c-1.421-5.598-2.807-11.21-4.05-16.851c-0.45-2.048-0.459-4.192-0.685-6.444C392.437,73.588,394.033,74.449,395.213,75.667z
			 M381.388,47.53c1.134-3.424,1.602-6.96,1.183-10.647c-0.02-0.189-0.016-0.352-0.016-0.52c-0.091-0.436-0.273-0.87-0.479-1.303
			c-0.008-0.19-0.013-0.38-0.021-0.572c0.217-2.535,0.324-5.06-0.144-7.542c0.142-0.094,0.297-0.163,0.459-0.228
			c0.883,0.165,1.761,0.356,2.639,0.556c2.095,1.42,3.759,3.175,4.875,5.167c0.168,0.074,0.389,0.173,0.57,0.235
			c-0.08,0.096-0.107,0.17-0.182,0.26c1.32,2.569,1.984,5.484,2.201,8.483c0.15,0.444,0.27,0.901,0.391,1.359
			c0.393,5.54,0.703,11.084,0.76,16.641c-0.325,1.394-0.735,3.72-1.23,5.08C391.69,66.411,391.479,71,390.977,72h-11.682
			c-1.929-1-3.703-2.12-5.112-2.926c2.412-3.246,4.01-7.228,4.674-10.898C380.008,54.846,380.841,50.979,381.388,47.53z
			 M372.868,28.249c0.189-0.521,0.52-0.859,0.896-1.112c0.985-1.456,3.604-1.633,4.062,0.544c1.173,5.591-0.052,11.705-1.729,17.13
			c-0.651,7.636-2.479,15.006-5.316,22.497c-5.485-0.524-9.049-3.766-12.991-5.736c-0.964-3.458,0.021-4.233,1.678-7.038
			C362.389,49.582,364.762,44,367.365,41h-0.021c0.79-2,2.077-5.934,3.75-7.639C371.762,32.16,372.395,29.561,372.868,28.249z
			 M364.916,25.538c1.429-1.188,3.249-0.313,3.806,0.962c0.002-0.002,0.008-0.004,0.013-0.004c0.195,0.37,0.389,0.741,0.584,1.113
			c-7.559,7.026-9.372,17.32-14.869,25.543c-0.992,1.484-0.779,3.778-1.219,6.229c-3.745-1.646-7.515-3.301-11.148-4.894
			c0.003-0.095,0.006-0.189,0.012-0.282c1.361-3.098,2.712-5.88,3.803-8.756c2.633-6.919,6.658-12.586,13.494-15.705
			C361.264,28.383,363.135,27.018,364.916,25.538z M335.268,46.642c0.083-0.098,0.17-0.196,0.254-0.295
			c-0.006-0.236-0.011-0.474,0.07-0.739c1.338-4.384,3.49-8.727,6.465-12.328c0.303-0.4,0.657-0.776,0.991-1.162
			c4.226-3.519,9.736-5.901,15.497-7.183c-8.834,5.367-15.854,13.702-18.047,23.672c-0.426,1.093-0.857,2.202-1.302,3.35
			c-0.825-0.776-1.697-1.527-2.485-2.361c-0.58-0.615-1.113-1.255-1.513-1.745C335.206,47.438,335.239,47.04,335.268,46.642z
			 M334.839,60.441c0.214-0.218,0.39-0.372,0.541-0.497c1.741-0.506,3.434-0.579,5.284,0.192c3.151,1.314,6.391,2.422,9.423,3.555
			c2.398,14.368-2.795,25.283-13.413,34.455c-5.02-3.879-9.827-7.595-14.818-11.453c0.102-0.505,0.085-1.068-0.125-1.694
			c-1.966-5.79,2.926-12.402,6.406-16.781c1.407-1.77,2.848-3.512,4.328-5.222C333.229,62.116,334.027,61.275,334.839,60.441z
			 M305.653,65.132c5.269-5.407,13.701-10.792,17.674-12.685c1.484-0.154,3.419-0.208,5.097,0.008
			c0.183,0.01,0.357,0.003,0.541,0.017c0.372,0.027,0.693,0.13,0.969,0.28c0.806,0.229,1.442,0.564,1.814,1.029
			c-3.497,2.373-6.712,7.446-8.439,9.608c-3.294,4.122-6.96,9.241-8.332,14.639c-2.458,2.378-8.439,0.635-11.539-1.372
			C301.283,73.4,303.404,68.554,305.653,65.132z M288.756,148.848c0.077,0.678,0.077,1.366,0.141,2.64
			c-1.46-0.428-2.651-1.075-3.675-1.849c-0.387,0.005-0.805-0.124-1.226-0.447c-10.179-7.791-12.205-21.468-11.656-33.55
			c0.021-0.445,0.172-0.791,0.371-1.093c0.002-0.027-0.009-0.052-0.002-0.081c0.875-6.199,3.976-12.73,8.432-17.677
			c2.917-4.41,6.606-8.343,11.301-11.638c1.917-1.344,4.014-2.429,6.165-3.471c0.065-0.048,0.111-0.123,0.188-0.161
			c1.205-0.59,2.45-1.098,3.695-1.6c0.008-0.046,0.04-0.084,0.029-0.138c0.14-0.067,0.274-0.136,0.415-0.204
			c1.394,1.293,3.237,2.192,5.24,2.782c9.726,7.955,18.7,16.864,31.548,21.462c-7.799,3.659-10.508,10.406-13.243,16.926
			c-17.053,6.253-23.813,12.758-34.489,33.091c-0.216-0.231-0.652-0.54-0.603-0.685c1.999-5.879,0.63-11.881,0.778-17.83
			c0.163-6.683,2.572-12.759,6.777-17.963c6.137-7.597,12.894-14.561,21.875-19.028c-0.138-0.564-0.275-1.127-0.417-1.688
			c-1.251,0.084-2.804-0.278-3.698,0.33c-3.852,2.605-8.677,3.603-11.703,7.632c-3.474,4.627-7.566,8.792-10.985,13.456
			C287.183,127.387,287.574,138.08,288.756,148.848z M294.353,172.041c-4.189-2.818-8.741-3.231-10.794-8.887
			c0.079,0.008,0.148,0.014,0.225,0.021c-0.042-0.111-0.089-0.225-0.136-0.338c-0.082-0.214,0.051-0.549,0.263-0.642
			c0.586-0.258,1.134-0.426,1.66-0.544c1.362-0.664,3.248-0.422,4.679,0.118c1.196,0.452,2.048,1.277,2.655,2.292
			c0.027,0.001,0.049,0.004,0.074,0.006c0.014,0.074,0.025,0.137,0.037,0.209c0.893,1.616,1.203,3.647,1.237,5.429
			c0.001,0.052-0.021,0.086-0.03,0.129c0.02,0.016,0.031,0.02,0.053,0.037c0.119,0.104,0.156,0.216,0.163,0.326
			c0.009,0.016,0.016,0.032,0.025,0.046c-0.005,0.074-0.023,0.145-0.019,0.22c0.007,0.493,0.047,0.982,0.083,1.472
			c-0.06,0.018-0.122,0.041-0.185,0.035C294.346,171.998,294.347,172.016,294.353,172.041z M325.239,228.411
			c-3.791-5.034-7.265-10.31-10.916-15.447c-5.888-8.285-8.589-17.817-10.763-27.528c-0.45-2.005-0.811-4.032-1.16-6.063
			c-0.454-1.632-0.901-3.272-1.386-4.901c-0.923-3.103-2.005-5.98-3.638-8.781c-1.159-1.987-2.256-3.926-2.555-6.229
			c-0.04-0.318,0.168-0.47,0.408-0.508c0.527-1.029,0.631-3.001,1.251-4.32c2.69-5.698,5.222-12.114,9.694-16.204
			c12.342-11.288,26.753-18.54,44.287-16.673c1.588,0.168,3.216,0.628,4.675,1.289c4.748,2.158,9.602,4.184,14.058,6.851
			c2.163,1.292,3.674,3.803,5.234,5.939c4.048,5.539,7.905,11.217,11.956,16.755c1.695,2.319,1.721,4.193,0.356,6.889
			c-2.014,3.979-3.342,8.352-4.603,12.661c-2.423,8.31-4.135,16.853-7.013,24.995c-0.483,1.368-1.021,2.725-1.568,4.075
			c-0.021,0.071-0.05,0.137-0.077,0.204c-2.146,5.283-4.73,10.434-7.601,15.341c-0.035,0.062-0.077,0.117-0.114,0.18
			c-0.951,2.477-2.301,4.806-3.877,6.962c-1.538,3.117-3.544,5.896-6.696,7.786c-1.424,1.278-3.034,2.39-4.948,3.223
			c-6.338,2.759-14.485,2.128-20.151-1.774c-0.266-0.181-0.463-0.393-0.621-0.624C327.858,231.687,326.382,229.926,325.239,228.411z
			 M300.632,258.726c0.253-0.208,0.564-0.373,0.98-0.444c11.335-1.899,26.527-4.027,31.134-16.336
			c0.507-1.364,1.866-1.749,2.966-1.446c0.011-0.04,0.024-0.077,0.032-0.115c5.372-0.595,10.657-1.185,16.501-1.835
			c8.059,13.73,22.271,16.301,37.503,17.318c-5.458,5.09-11.289,9.105-17.746,12.287c-17.271,8.504-35.061,7.03-52.892,2.58
			c-9.067-2.261-17.95-5.29-26.905-8.004c-0.794-0.243-1.513-0.729-3.439-1.686C293.003,260.526,296.874,259.541,300.632,258.726z
			 M228.778,284.292c0.16-0.102,0.311-0.222,0.482-0.306c0.058-0.027,0.114-0.022,0.171-0.035l-0.026-0.168
			c5.273-3.024,10.538-6.06,15.824-9.058c1.259-0.716,2.828-1.038,3.855-1.979c3.81-3.486,8.643-3.543,13.079-3.23
			c6.636,0.47,12.44-1.875,18.446-3.736c2-0.619,3.902-1.541,6.079-2.412c5.001,4.996,11.303,6.348,17.374,7.978
			c8.03,2.155,16.422,3.192,24.201,5.974c7.122,2.549,14.14,2.864,21.395,2.425c9.329-0.563,18.106-3.497,26.532-7.195
			c4.211-1.848,7.839-5.083,11.627-7.83c4.477-3.244,8.84-6.64,13.305-10.01c2.415,0.856,4.791,0.666,7.146,0.753
			c5.089,0.195,10.464,1.326,15.087,3.458c7.875,3.636,15.279,8.299,22.839,12.612c1.346,0.768,2.482,1.917,4.195,3.268
			c-5.973,4.685-10.505,10.124-17.04,13.167c-2.115,0.985-3.866,2.735-5.94,3.835c-4.34,2.307-8.209,5.65-13.591,5.728
			c-0.454,0.009-0.911,0.071-1.37,0.15c-0.021,0.01-0.038,0.024-0.055,0.035c-0.543,0.306-1.168,0.713-1.8,0.817
			c-0.194,0.035-0.363,0.06-0.535,0.09c-1.169,0.621-2.372,1.152-3.641,1.39c-0.146,0.119-0.317,0.143-0.479,0.09
			c-0.164,0.021-0.337,0.018-0.504,0.025c-16.826,6.75-34.552,9.137-52.478,10.712c-22.956,2.014-45.169-1.623-67.052-8.189
			c-11.473-3.443-22.986-6.742-34.417-10.313c-3.786-1.183-7.3-3.226-11.064-4.497c-3.289-1.11-6.723-1.787-10.104-2.611
			c-0.26,0.106-0.463,0.175-0.829,0.102c-0.051-0.011-0.073-0.053-0.114-0.076c-0.007,0.006-0.016,0.014-0.026,0.017
			C228.726,285.66,228.154,284.675,228.778,284.292z M240.69,483.234c-0.123,0.622-1.381,1.012-2.093,1.495
			c-3.591-3.9-3.722-4.049-1.163-7.602c2.636-3.66,5.426-7.229,8.375-10.638c2.105-2.436,4.634-4.447,8.926-4.664
			c-0.451,1.501-0.521,2.73-1.128,3.559c-1.602,2.184-3.545,4.118-5.153,6.295C245.7,475.404,241.705,478.285,240.69,483.234z
			 M271.698,475.457c-1.035,2.219-1.035,2.219-8.48,3.55c0.374,3.365,3.502,1.627,5.391,3.003c-1.069,1.938-2.167,3.929-3.464,6.283
			c-2.659-1.036-4.91-1.912-7.312-2.849c0.78,3.33,0.78,3.33,3.794,5.41c-1.824,1.875-3.636,3.74-5.696,5.865
			c-1.335-2.334-2.533-3.223-4.265-6.243c-0.496,3.838-2.851,6.523,2.11,10.523h-5.465c-0.28,0-0.626-1.768-0.708-2.068
			c-0.533-1.909-1.126-4.416-1.461-6.367c-0.236-1.381-0.625-3.411-0.044-4.509c3.109-5.861,5.008-12.618,10.519-17.051
			c2.615-2.1,4.822-4.778,7.575-7.513c8.999,1.255,9.569,1.61,9.664,7.51c-1.605-0.269-3.183-0.424-4.683-0.835
			c-1.373-0.374-2.665-1.051-4.005-1.592C264.424,471.982,264.424,471.973,271.698,475.457z M272.778,459.636
			c-0.145,0.08-0.284,0.088-0.427,0.138c-0.242,0.183-0.48,0.391-0.727,0.566c-0.401-0.151-0.802-0.304-1.229-0.427
			c-3.079-0.877-6.353-1.146-9.557-1.526c-3.022-0.358-6.199-3.268-5.144-5.532c2.926-6.274,0.297-12.181-0.731-18.129
			c-0.669-3.87-2.303-7.597-3.746-11.296c-1.441-3.697-3.133-7.302-4.798-10.911c-1.672-3.62-3.447-7.197-5.32-11.092
			c0.078-0.118,0.149-0.273,0.226-0.414c0.03-0.659,0.321-1.312,0.982-1.788c0.02-0.014,0.037-0.034,0.054-0.044
			c0.181-0.232,0.377-0.403,0.601-0.491c9.609-7.211,15.467-17.89,24.1-25.929c1.64-2.01,3.33-3.988,5.137-5.856
			c0.75-0.775,1.634-1.418,2.873-2.478c0.607,1.557,1.077,2.816,1.583,4.064c2.008,4.923,4.958,9.276,8.537,13.148
			c6.55,7.091,8.497,16.247,11.347,24.97c0.869,2.661,0.135,5.234-0.824,7.725c-0.472,4.346-2.01,8.938-3.378,14.435
			c-2.147,8.62-4.534,17.221-11.033,23.24c-1.197,1.623-2.413,3.555-3.941,4.854C275.935,458.078,274.401,458.734,272.778,459.636z
			 M301.147,894.562c-0.041,0.085-0.086,0.163-0.125,0.251c-2.189,2.651-4.952,7.38-5.942,8.395
			c-3.846,3.948-9.387,6.28-13.708,9.67c-4.22,3.314-8.418,7.054-13.632,8.66c-2.063,0.635-4.228,1.05-6.25,1.805
			c-0.377-5.858-4.137-10.691-5.247-16.386c-1.065-5.474-1.543-5.719,2.959-7.287c1.159,5.16,1.713,10.534,5.533,14.563
			c1.081,1.142,2.478,0.734,3.262-0.2c5.738-2.41,10.359-6.409,14.947-10.56c2.426-2.196,4.405-4.796,6.919-6.921
			c1.792-1.511,3.449-2.871,4.886-4.583c0.471-0.134,0.898-0.445,1.202-1.023c0.686,0.063,1.412,0.125,2.223,0.197
			c-0.04,0.075-0.094,0.14-0.134,0.219C299.626,890.431,302.149,892.357,301.147,894.562z M263.184,896.841
			c2.232-1.168,4.716-2.018,6.557-2.538c6.775-1.916,13.738-5.812,20.976-4.512c-2.85,3.375-6.892,6.085-9.863,9.294
			c-3.854,4.165-8.73,8.279-14.003,10.53C264.44,906.008,264.202,901.113,263.184,896.841z M396.318,916.359
			c-4.38-2.601-11.849-9.826-13.893-15.144c1.994-1.677,4.694-1.438,6.98-2.002c0.386,0.397,3.736,5.077,4.195,5.565
			c1.85,1.965,4.039,3.595,6.181,5.217c4.827,3.665,8.973,4.764,14.706,5.974c0.904,0.194,1.619-0.142,2.117-0.67
			c0.409-0.261,0.746-0.665,0.875-1.301c0.771-3.69,1.608-7.285,1.326-11.074c-0.106-1.437-0.249-2.871-0.354-4.309
			c-0.064-0.83-0.095-1.659-0.118-2.495c-0.006-0.144,0.019-0.304,0.04-0.456c0.093,0.093,0.198,0.174,0.28,0.275
			c1.221,0.332,2.4,0.65,3.515,0.947c0.281,4.03,0.556,8.031,0.831,12.044c-0.012,0.748-0.015,1.486,0.019,2.183
			c0.068,1.421,0.243,2.892,0.44,4.386c0.229,3.317,0.461,6.622,0.693,10.001c-1.496-0.267-2.937-0.522-4.389-0.782
			c-0.1,0.074-0.228,0.097-0.337,0.153c-1.014-0.252-2.031-0.483-3.048-0.715c-0.022-0.016-0.037-0.037-0.06-0.052
			c-0.225-0.04-0.449-0.078-0.675-0.121c-0.306-0.073-0.616-0.139-0.922-0.217c-1.785-0.45-3.455-0.932-5.183-1.06
			C404.928,921.008,400.479,918.827,396.318,916.359z M413.966,899.517c0.312,4.103,0.112,7.687-0.585,11.634
			c-2.181-0.383-4.257-0.751-6.386-1.837c-2.903-1.48-5.555-3.657-8.027-5.742c-2.159-1.816-3.954-3.933-5.511-6.255
			c0.18,0.005,0.36,0.012,0.544,0.017l0.011-0.05c2.147-0.41,4.465-0.454,6.393-1.335c1.764-0.81,3.11-2.524,5.204-4.323
			c1.063,0.354,2.731,0.761,4.307,1.462c0.816,0.164,1.585,0.383,2.292,0.685c0.576,0.08,1.141,0.264,1.695,0.484
			C413.549,895.951,413.842,897.88,413.966,899.517z M455.839,488.833c4.501-3.105,4.501-3.105,3.084-6.579
			c-2.348,1.408-4.71,2.827-7.274,4.358c-1.42-1.609-2.597-2.944-4.384-4.975c1.996-2.03,3.802-3.867,5.719-5.821
			c-2.867-2.238-5.334-0.53-8.009,0.931c-0.837-1.848-1.639-3.629-2.711-6.008c2.353-0.927,4.413-1.736,7.492-2.947
			c-2.697-1.271-4.73-2.227-7.03-3.307c0.37-1.599,0.723-3.125,1.146-4.952c3.239,0.714,5.954,4.364,9.854,1.159
			c-2.208-1.733-4.223-3.312-6.395-5.012c6.631-2.429,14.069,1.297,15.665,7.59c1.801,7.093,5.095,13.807,7.801,20.846
			C464.588,490.935,460.921,492.14,455.839,488.833z M458.354,417.508c2.971,6.587,5.138,13.561,7.384,20.454
			c1.941,5.965-0.854,10.867-4.079,15.71c-8.089-1.466-16.32-5.584-23.265,2.161c-8.743-7.616-18.438-13.845-25.375-23.099
			c-0.754-1.006-1.583-1.977-2.196-3.06c-2.855-5.033-5.708-10.068-8.443-15.165c-3.202-5.974-4.948-12.411-4.467-19.172
			c0.383-5.391,3.471-9.807,6.412-14.196c3.096-4.61,6.484-8.999,7.645-14.748c0.587-2.881,2.638-5.466,4.193-8.513
			c2.508,2.162,5.337,4.271,7.772,6.771c5.593,5.743,12.205,10.105,18.983,14.211c2.101,1.27,4.695,1.773,7.11,2.469
			c1.698,0.488,3.479,0.701,5.354,1.062c-0.259,6.003-0.649,11.583-0.696,17.168C454.633,405.769,455.73,411.691,458.354,417.508z
			 M477.261,486.226c-3.053-1.646-2.187-4.813-3.006-7.376c-1.258-3.933-3.092-7.691-4.735-11.5
			c-1.137-2.643-2.367-5.248-3.539-7.882c-1.049-2.355,0.225-3.65,2.521-5.027c1.745,3.279,3.748,6.271,4.998,9.551
			c2.233,5.893,4.077,11.938,5.955,17.959C480.065,483.901,480.467,486.074,477.261,486.226z M548.89,427.206
			c-0.377,3.673-0.466,7.346-1.285,11.054c-0.941,4.25-2.177,8.243-4.729,11.802c-1.913,2.66-3.775,5.363-5.852,8.349
			c-5.855,13.399-17.975,16.913-30.493,20.398c-5.21,2.797-10.971,4.657-17.045,5.526c-0.852,0.122-1.53-0.199-2.028-0.69
			c-0.555,0.253-1.124,0.512-1.739,0.789c-0.757-2.199-1.334-3.867-2.045-5.922c4.635-0.566,9.705,0.87,13.531-4.056
			c-5.033-2.911-9.839-0.821-14.88-0.242c-0.407-1.056-0.847-2.189-1.28-3.317c14.307-6.855,14.307-6.855,14.537-11.856
			c-6.202,1.328-10.974,5.384-16.422,8.182c-0.977-1.49-1.886-2.871-2.951-4.5c0.127-0.051,0.251-0.06,0.382-0.14
			c7.375-4.492,14.647-10.042,14.771-19.452c0.019-1.371-0.971-2.076-2.029-2.165c-0.722,5.061-4.061,11.307-8.958,13.558
			c-1.902,1.527-4.011,2.866-6.051,4.112c-2.144-2.73-4.25-5.414-6.271-7.989c4.301-4.814,3.254-10.017,1.74-14.965
			c-2.316-7.605-5.458-14.966-7.671-22.599c-2.504-8.645-1.944-17.503-0.403-26.302c0.316-1.791,0.599-3.587,0.838-5.386
			c0.669-5.043,2.817-9.32,6.377-12.958c1.52-1.549,2.889-3.257,4.206-4.985c1.421-1.87,1.307-3.7-0.89-5.567
			c-8.105,4.256-12.316,11.573-14.962,20.003c-6.593,2.079-11.612-1.258-16.365-4.778c-5.895-4.361-11.707-8.872-17.224-13.695
			c-0.044-0.03-0.087-0.047-0.133-0.08c-4.127-3.112-7.811-5.642-9.582-10.754c-2.231-6.439-2.098-13.043-1.907-19.716
			c-1.094-3.226-2.761-6.269-4.368-9.442c-2.151,1.072-2.222,2.517-1.479,4.102c4.31,9.226,2.558,18.89,2.014,28.443
			c-0.184,3.238-1.05,6.432-1.389,9.665c-0.512,4.881-2.915,8.852-5.557,12.805c-3.512,5.261-7.599,10.283-8.419,16.882
			c-0.285,2.297-0.98,4.828-0.353,6.908c2.278,7.549,3.766,15.451,8.951,21.871c1.576,1.951,2.909,4.265,3.73,6.624
			c1.293,3.717,3.486,6.691,6.067,9.54c2.56,2.828,4.808,5.93,7.416,8.712c1.574,1.681,3.594,2.937,5.356,4.45
			c3.701,3.176,7.463,6.287,10.979,9.655c1.014,0.973,1.854,2.763,1.786,4.127c-0.727,14.333,6.895,23.788,17.868,31.429
			c2.034,1.419,4.151,2.928,5.649,4.848c9.789,12.536,17.77,25.958,21.832,41.617c3.138,12.101,7.283,23.938,11.013,35.88
			c2.224,7.119,4.422,14.226,6.05,21.465c4.741,46.254,2.578,92.96,2.067,139.483c-0.134,12.321-0.389,24.902-0.159,37.48
			c-0.082,1.985-0.148,3.977-0.241,5.967c-0.382,8.124,0.011,16.06,1.999,23.823c0.549,4.93,1.244,9.826,2.142,14.669
			c4.133,22.397,16.437,42.688,27.696,62.29c-3.864,2.734-7.66,5.418-12.353,6.631c-0.871,0.224-1.885,0.006-2.69,0.337
			c-11.519,4.719-23.86,4.286-35.895,5.614c-4.82,0.531-9.787-0.282-14.689-0.448c-2.85-0.095-5.702-0.188-8.553-0.274
			c-0.066,0.017-0.105,0.059-0.175,0.072c-9.97,1.925-21.094,1.297-29.749-4.118c-0.389,0.686-1.106,1.184-1.967,1.165
			c-7.313-0.169-14.201-2.34-21.09-4.636c-0.273-0.088-0.481-0.238-0.681-0.389c-0.372,0.043-0.732,0.081-1.114,0.125
			c-0.355,3.302-2.955,4.67-6.202,5.766c-10.917,3.688-22.146,4.097-33.388,2.952c-11.896-1.203-23.715-3.19-35.576-4.769
			c-9.493-1.262-18.973-2.885-28.518-3.52c-10.307-0.689-20.309,0.607-30.478,3.749c-3.011,0.928-6.036,1.846-9.066,2.75
			c-0.614-0.041-1.228,0.148-1.696,0.503c-13.465,3.95-27.142,7.315-41.242,8.042c-9.913,0.51-19.866,2.733-29.871,0.355
			c-3.093-0.736-5.596-1.895-7.761-4.334c-1.823-2.054-4.299-3.526-7.074-5.718c-0.667-0.049-2.225,2.375-3.745-0.202
			c2.872-3.733,5.853-7.487,8.687-11.35c1.173-1.604,2.529-3.33,2.939-5.191c1.545-6.997,6.649-11.909,9.903-17.882
			c7.53-13.813,15.178-27.599,17.07-43.718c0.97-8.246,3.263-16.334,4.302-24.573c0.786-6.258,1.007-12.671,0.616-18.968
			c-0.458-7.345-1.531-14.697-2.937-21.932c-1.311-6.748-3.507-13.321-5.138-20.016c-2.704-11.09-5.337-22.201-7.857-33.333
			c-1.555-6.855-2.764-13.795-4.277-20.661c-2.204-9.996-2.346-20.161-2.588-30.311c-0.142-5.955-0.333-11.947,0.201-17.859
			c0.297-3.296,2.182-6.423,3.085-9.699c1.088-3.945,1.998-7.951,2.794-11.967c0.985-4.969,1.44-10.065,2.746-14.938
			c1.115-4.158,3.082-8.091,4.739-12.094c0.101-0.244,0.242-0.483,0.402-0.712c2.966-20.588,12.927-40.697,25.398-57.219
			c0.996-4.263,4.124-7.176,7.025-10.278c2.352-2.52,4.547-5.18,6.812-7.778c2.607,0.439,5.229,0.815,7.822,1.345
			c2.984,0.613,5.515-0.484,8.351-1.259c11.334-3.107,15.312-12.772,20.48-21.515c3.279-5.546,1.625-12.869-3.795-17.157
			c12.101-9.625,21.786-26.539,24.953-43.633c0.317-0.835,0.632-1.677,0.952-2.515c0.732-3.757,1.216-7.526,0.74-11.335
			c-0.298-1.094-0.587-2.191-0.874-3.288c-0.054-0.512-1.575-1.01-1.643-1.516c-1.439-5.055-6.066-9.859-7.066-14.627v-0.005
			c0-0.012,1.263-0.033,1.18-0.033c-0.227-0.355,0.29-0.723,0.046-1.075c-1.136-1.626-1.958-3.227-3.175-4.794
			c-2.329-3.001-4.095-6.167-5.672-9.501c-2.322-2.58-4.111-5.511-5.218-9.036c-3.341-10.645-6.332-21.527-5.305-32.759
			c0.066-0.7,0.408-1.226,0.843-1.589c-1.67-0.539-2.789-0.211-3.458,1.701c-2.921,8.292-2.354,17.551,1.348,25.218
			c-11.826,13.367-21.663,28.254-35.641,41.172c-0.807-7.553-1.454-14.127-2.224-20.692c-0.541-4.662-1.274-9.306-1.858-13.966
			c-0.464-3.696-2.637-5.339-6.615-5.536c0.414,2.958,0.953,5.749,1.172,8.566c0.712,9.16,1.212,18.341,1.996,27.492
			c0.381,4.491,1.148,8.872,4.375,12.54c1.497,1.706,2.095,4.196,3.127,6.315c2.37,4.878,5.316,9.566,6.995,14.671
			c2.312,7.024,3.743,14.347,5.393,21.58c0.795,3.487-0.577,6.621-2.486,10.753c-1.364-4.616-2.428-8.216-3.54-11.967
			c-4.291-0.904-5.525,1.829-5.04,11.035c-1.19-2.251-2.382-4.502-3.576-6.756c-3.17-5.983-5.256-6.047-10.107,0.321
			c3.853,4.927,7.827,10.005,12.161,15.544c-1.337,1.701-3.054,3.884-5.205,6.615c-4.867-4.415-9.592-8.824-14.489-13.039
			c-0.915-0.789-2.604-1.285-3.76-1.05c-1.706,0.35-2.031,2.098-1.347,3.544c0.729,1.551,1.608,3.25,2.897,4.288
			c4.224,3.416,8.695,6.524,13,9.842c0.71,0.545,1.076,1.546,1.573,2.295c-0.6,0.507-0.874,0.929-1.104,0.906
			c-11.738-1.161-23.454,1.788-35.267-0.293c-11.092-1.958-19.308-7.869-25.684-16.581c-10.058-13.746-14.68-29.611-14.837-46.348
			c-0.089-9.362,0.391-19.18,6.733-27.473c2.539-3.323,3.613-7.761,5.572-12.181c1.725,2.036,1.216,4.031,1.407,5.844
			c0.201,1.912,0.386,3.823,0.582,5.739c0.022,3.564,0.087,7.153,0.119,10.775c0.024,2.936,4.576,2.938,4.552,0
			c-0.007-0.887-0.02-1.77-0.032-2.656c0.096,0,0.185,0.009,0.283,0.008c-0.478-10.008,0.865-19.723,1.453-29.473
			c0.087-1.44,0.437-2.882,0.351-4.303c-0.028-0.472-0.043-0.933-0.044-1.393c0.796-3.447,1.854-6.861,3.303-10.24
			c1.182-2.758,2.608-5.385,4.135-7.955c2.333-2.082,3.747-4.633,4.719-7.393c4.1-6.107,8.35-12.142,11.319-18.912
			c0.188-0.424,0.209-0.828,0.167-1.215c0.792-1.455,1.555-2.927,2.423-4.331c1.625-2.619,3.301-5.214,5.076-7.734
			c4.074-5.791,8.057-11.703,15.688-13.375c2.015-0.439,3.729-0.347,5.718,0.554c4.432,2.011,9.071,3.581,13.631,5.311
			c0.678,0.257,1.456,0.314,2.077,0.66c11.114,6.185,23.681,8.106,35.598,11.863c10.515,3.314,21.448,5.363,32.263,7.648
			c12.119,2.563,24.4,4,36.82,3.499c3.744-0.151,7.483-0.651,11.2-1.176c11.656-1.646,23.469-2.406,34.818-5.852
			c2.581-0.786,5.018-2.059,7.604-2.816c3.019-0.886,6.076-1.647,9.112-2.45c1.956-0.959,3.954-1.827,5.991-2.61
			c0.498-0.479,1.138-0.865,1.977-1.085c4.195-1.083,7.583-3.97,11.376-5.991c0.341-0.351,0.687-0.694,1.021-1.064
			c2.463-2.745,6.308-4.209,9.36-6.483c4.067-3.033,7.966-6.293,11.937-9.456c6.811,1.095,10.937,6.379,15.912,10.294
			c1.983,1.564,3.51,3.698,5.414,5.382c4.423,3.908,7.945,8.45,10.2,13.921c2.261,5.495,6.078,9.84,10.173,13.99
			c3.565,3.611,7.313,7.052,10.691,10.828c1.648,1.837,2.895,4.154,3.878,6.443c4.281,9.951,6.375,20.394,6.661,31.223
			c0.084,3.073,0.359,6.144,0.672,9.209c0.145,1.464,0.615,3.227,2.498,2.784c1.179-0.282,2.779-1.482,3.01-2.532
			c0.499-2.259,0.195-4.688,0.292-7.044c0.122-3.043,0.311-6.083,0.512-9.883c5.064,3.255,7.941,7.374,11.083,11.167
			c5.439,6.561,7.938,14.61,10.635,22.487c1.819,5.31,3.252,10.761,4.666,16.198C549.236,418.3,549.364,422.591,548.89,427.206z"/>
	</g>
	<path fill-rule="evenodd" clip-rule="evenodd" stroke="#000000" stroke-width="6" stroke-miterlimit="10" d="M-32-157"/>
	<path fill-rule="evenodd" clip-rule="evenodd" d="M354.476,161.534c7.97-3.132,15.793-6.207,23.546-9.252
		c0.133-2.524-0.753-3.664-2.816-2.917c-6.605,2.393-13.159,4.922-19.718,7.45C353.776,157.475,352.683,158.553,354.476,161.534z"/>
	<path fill-rule="evenodd" clip-rule="evenodd" d="M333.578,160.934c-8.124-2.695-16.111-5.337-24.013-7.959
		c-0.273-2.514,0.552-3.698,2.65-3.064c6.729,2.029,13.412,4.196,20.095,6.365C334.053,156.841,335.206,157.857,333.578,160.934z"/>
	<path fill-rule="evenodd" clip-rule="evenodd" fill="none" stroke="#000000" stroke-width="3" stroke-miterlimit="10" d="
		M338.644,193.419c-0.997,0.364-2.906,1.823-1.712,2.806c1.633,1.343,7.1-0.832,8.902-1.111c1.22-0.189,2.513-0.429,3.758-0.354
		c-3.458-2.12-6.575-5.457-9.053-8.55"/>
	<g>
		<path fill-rule="evenodd" clip-rule="evenodd" fill="none" d="M333.299,219.078"/>
	</g>
	<g>
		<g>
			<path fill-rule="evenodd" clip-rule="evenodd" fill="none" stroke="#000000" stroke-width="3" stroke-miterlimit="10" d="
				M305.934,157.528c0.254,13.153,37.872,25.627,30.664,16.383c-7.206-9.247,7.366-7.79-20.214-12.999
				C316.383,160.913,305.914,156.338,305.934,157.528z"/>
			<path fill-rule="evenodd" clip-rule="evenodd" fill="none" stroke="#000000" stroke-width="3" stroke-miterlimit="10" d="
				M326.12,162.855c0,0,7.108,6.331,0.473,12.255"/>
			<path fill-rule="evenodd" clip-rule="evenodd" fill="none" stroke="#000000" stroke-width="3" stroke-miterlimit="10" d="
				M316.383,160.913c0,0-6.416,5.388-1.478,8.307"/>
		</g>
		<g>
			<path d="M307.224,154.374c0,0,0.14,0.01,0.326,0.046c0.19,0.035,0.425,0.096,0.656,0.186c0.226,0.091,0.437,0.215,0.601,0.367
				c0.083,0.076,0.156,0.158,0.211,0.248c0.064,0.083,0.097,0.192,0.14,0.273c0.147,0.297,0.052,0.687-0.178,1.113
				c-0.116,0.212-0.249,0.421-0.362,0.585c-0.11,0.162-0.201,0.277-0.201,0.277s-0.134,0.02-0.319,0.017
				c-0.188-0.001-0.428-0.028-0.673-0.1c-0.487-0.141-0.925-0.508-1.12-0.968c-0.136-0.406-0.016-0.871,0.252-1.286
				c0.136-0.207,0.292-0.393,0.428-0.531C307.116,154.463,307.224,154.374,307.224,154.374z"/>
		</g>
		<g>
			<path d="M305.734,157.388c0,0-0.117,0.08-0.287,0.168c-0.167,0.099-0.412,0.174-0.628,0.28c-0.106,0.048-0.211,0.094-0.309,0.13
				c-0.083,0.042-0.23,0.046-0.346,0.046c-0.127-0.005-0.23-0.002-0.375-0.061c-0.14-0.043-0.267-0.115-0.396-0.185
				c-0.14-0.115-0.281-0.231-0.393-0.37c-0.118-0.114-0.218-0.338-0.289-0.508c-0.166-0.348-0.105-0.766-0.025-1.047
				c0.047-0.144,0.153-0.263,0.232-0.364c0.075-0.099,0.172-0.18,0.247-0.24c0.154-0.122,0.279-0.173,0.279-0.173
				s0.115,0.044,0.316,0.123c0.185,0.063,0.394,0.143,0.597,0.17c0.232,0.003,0.349-0.012,0.48-0.069
				c0.067-0.021,0.063-0.048,0.125-0.042c0.054-0.005,0.082,0.015,0.112,0.036c0.056,0.042,0.115,0.081,0.158,0.147
				c0.036,0.055,0.123,0.147,0.174,0.239c0.065,0.094,0.092,0.188,0.173,0.319c0.066,0.125,0.116,0.253,0.153,0.379
				c0.072,0.256,0.044,0.497,0.04,0.693C305.76,157.25,305.734,157.388,305.734,157.388z"/>
		</g>
		<g>
			<path d="M306.283,159.794c0,0-0.044,0.135-0.129,0.312c-0.092,0.178-0.184,0.405-0.396,0.598
				c-0.205,0.196-0.473,0.362-0.736,0.45c-0.271,0.104-0.574,0.108-0.865,0.072c-0.299-0.076-0.578-0.177-0.825-0.396
				c-0.24-0.19-0.432-0.465-0.539-0.746c-0.108-0.264-0.126-0.572-0.104-0.768c0.019-0.201,0.07-0.327,0.07-0.327
				s0.116-0.046,0.319-0.125c0.188-0.078,0.371-0.166,0.584-0.286c0.194-0.103,0.368-0.199,0.546-0.26
				c0.155-0.046,0.343-0.082,0.493-0.042c0.323,0.052,0.678,0.333,0.947,0.701c0.138,0.198,0.334,0.375,0.445,0.538
				C306.212,159.67,306.283,159.794,306.283,159.794z"/>
		</g>
	</g>
	<g>
		<g>
			<path fill-rule="evenodd" clip-rule="evenodd" fill="none" stroke="#000000" stroke-width="3" stroke-miterlimit="10" d="
				M381.835,156.988c0.241,13.155-36.88,27.039-30.026,17.529c6.854-9.513-7.652-7.504,19.713-13.752
				C371.521,160.765,381.812,155.8,381.835,156.988z"/>
			<path fill-rule="evenodd" clip-rule="evenodd" fill="none" stroke="#000000" stroke-width="3" stroke-miterlimit="10" d="
				M361.869,163.075c0,0-6.869,6.592-0.013,12.263"/>
			<path fill-rule="evenodd" clip-rule="evenodd" fill="none" stroke="#000000" stroke-width="3" stroke-miterlimit="10" d="
				M371.521,160.765c0,0,6.616,5.145,1.789,8.242"/>
		</g>
		<g>
			<path d="M380.427,153.886c0,0,0.111,0.084,0.248,0.216c0.141,0.133,0.305,0.312,0.448,0.513c0.284,0.404,0.423,0.863,0.303,1.274
				c-0.176,0.466-0.599,0.85-1.08,1.01c-0.242,0.082-0.48,0.119-0.669,0.127c-0.185,0.011-0.319-0.003-0.319-0.003
				s-0.096-0.111-0.212-0.268c-0.12-0.159-0.261-0.363-0.386-0.569c-0.247-0.417-0.357-0.802-0.222-1.105
				c0.063-0.184,0.172-0.379,0.331-0.534c0.157-0.158,0.363-0.29,0.586-0.39c0.227-0.099,0.459-0.17,0.647-0.212
				C380.287,153.902,380.427,153.886,380.427,153.886z"/>
		</g>
		<g>
			<path d="M382.031,156.843c0,0-0.03-0.137-0.049-0.328c-0.013-0.196-0.049-0.435,0.013-0.694c0.032-0.127,0.077-0.257,0.139-0.385
				c0.075-0.134,0.1-0.229,0.161-0.325c0.048-0.094,0.132-0.189,0.165-0.246c0.041-0.067,0.099-0.109,0.153-0.153
				c0.029-0.021,0.056-0.042,0.11-0.04c0.062-0.008,0.06,0.019,0.127,0.037c0.134,0.052,0.252,0.062,0.483,0.05
				c0.202-0.035,0.407-0.122,0.59-0.192c0.198-0.085,0.312-0.134,0.312-0.134s0.126,0.047,0.285,0.163
				c0.076,0.058,0.178,0.135,0.255,0.231c0.083,0.098,0.193,0.213,0.246,0.354c0.09,0.278,0.166,0.693,0.014,1.048
				c-0.064,0.172-0.156,0.4-0.271,0.518c-0.106,0.143-0.243,0.264-0.379,0.384c-0.126,0.075-0.251,0.151-0.389,0.2
				c-0.143,0.064-0.246,0.065-0.373,0.075c-0.115,0.005-0.262,0.005-0.347-0.033c-0.1-0.033-0.205-0.074-0.313-0.119
				c-0.222-0.098-0.468-0.163-0.639-0.256C382.15,156.918,382.031,156.843,382.031,156.843z"/>
		</g>
		<g>
			<path d="M381.575,159.267c0,0,0.066-0.126,0.179-0.286c0.104-0.167,0.294-0.352,0.424-0.554c0.256-0.377,0.6-0.672,0.92-0.735
				c0.148-0.046,0.336-0.018,0.494,0.022c0.181,0.054,0.358,0.143,0.557,0.239c0.218,0.111,0.404,0.192,0.595,0.263
				c0.206,0.073,0.323,0.114,0.323,0.114s0.056,0.125,0.082,0.324c0.029,0.195,0.023,0.504-0.075,0.771
				c-0.097,0.284-0.277,0.566-0.51,0.766c-0.238,0.228-0.514,0.339-0.81,0.427c-0.29,0.047-0.593,0.054-0.867-0.039
				c-0.267-0.078-0.54-0.233-0.753-0.422c-0.22-0.186-0.319-0.409-0.418-0.583C381.625,159.4,381.575,159.267,381.575,159.267z"/>
		</g>
	</g>
	<path fill-rule="evenodd" clip-rule="evenodd" d="M287.621,829.41c-0.357-2.873-4.913-2.907-4.555,0
		c1.205,9.807-3.64,18.907-8.718,26.934c-3.829,6.05-9.969,10.799-12.337,17.625c-0.966,2.779,3.431,3.963,4.388,1.208
		c1.539-4.427,5.826-8.018,8.594-11.771c2.877-3.904,5.395-8.023,7.703-12.283C286.23,844.621,288.529,836.806,287.621,829.41z"/>
	<path fill-rule="evenodd" clip-rule="evenodd" d="M425.705,881.033c-10.773-10.067-20.083-26.16-22.301-41.062
		c0.459-0.801,0.537-1.854-0.182-2.755c-0.256-0.317-0.515-0.642-0.77-0.961c-1.203-1.512-4.085-0.299-3.887,1.607
		c1.751,16.874,11.588,34.866,23.92,46.389C424.629,886.253,427.857,883.042,425.705,881.033z"/>
	<path fill-rule="evenodd" clip-rule="evenodd" d="M449.713,269.966c-13.226,13.966-29.774,24.893-47.938,31.283
		c-2.75,0.967-1.568,5.366,1.208,4.39c18.907-6.652,36.17-17.904,49.946-32.455C454.946,271.055,451.734,267.83,449.713,269.966z"/>
	<g>
		<path d="M326.12,210.494c0,0,0.318,0.431,0.875,1.186c0.552,0.743,1.336,1.787,2.302,2.96c0.959,1.177,2.114,2.478,3.42,3.686
			c0.663,0.592,1.358,1.163,2.091,1.671c0.747,0.477,1.495,0.964,2.305,1.271c0.791,0.355,1.615,0.593,2.451,0.736
			c0.832,0.166,1.686,0.187,2.528,0.167c0.844-0.034,1.682-0.137,2.484-0.298c0.409-0.046,0.792-0.181,1.178-0.267
			c0.387-0.086,0.761-0.178,1.114-0.302c0.715-0.218,1.393-0.411,1.977-0.64c0.588-0.217,1.128-0.383,1.549-0.566
			c0.86-0.337,1.394-0.501,1.394-0.501s-0.316,0.438-0.941,1.156c-0.307,0.368-0.707,0.784-1.208,1.22
			c-0.248,0.22-0.504,0.472-0.796,0.709c-0.305,0.224-0.624,0.46-0.958,0.706c-0.331,0.256-0.711,0.47-1.106,0.696
			c-0.398,0.221-0.802,0.468-1.261,0.65c-0.895,0.405-1.897,0.75-2.991,0.958c-0.55,0.093-1.11,0.199-1.695,0.201
			c-0.293,0.011-0.587,0.021-0.882,0.032l-0.894-0.075c-0.603-0.03-1.194-0.184-1.791-0.308c-0.576-0.19-1.18-0.337-1.727-0.6
			c-1.129-0.468-2.139-1.132-3.054-1.846c-0.907-0.724-1.685-1.54-2.361-2.367c-1.333-1.673-2.236-3.408-2.826-4.941
			c-0.583-1.539-0.891-2.865-1.032-3.807C326.115,211.044,326.12,210.494,326.12,210.494z"/>
	</g>
	<g>
		<path d="M349.563,217.202l-0.232,0.471c-0.145,0.107-0.383,0.197-0.62,0.208c-0.117,0.007-0.234-0.016-0.354-0.051
			c-0.119-0.032-0.255-0.089-0.335-0.124c-0.184-0.083-0.386-0.198-0.559-0.35l2.905-0.978c0.672,0.061,1.117,0.071,1.432,0.146
			c0.311,0.072,0.485,0.187,0.558,0.365c0.034,0.089,0.04,0.199,0.022,0.345l-0.087,0.548c-0.009,0.111-0.034,0.237-0.027,0.381
			c0,0.155,0.008,0.288,0.047,0.491c0.037,0.183,0.096,0.333,0.201,0.566c0.098,0.18,0.245,0.42,0.441,0.647
			c-0.03,0.278-0.109,0.576-0.239,0.803c-0.127,0.243-0.302,0.42-0.496,0.599c-0.393,0.349-0.877,0.532-1.346,0.604
			c-0.949,0.145-1.812-0.12-2.435-0.551c-0.628-0.437-1.062-1.038-1.263-1.744c-0.098-0.356-0.135-0.739-0.111-1.133
			c0.028-0.205,0.047-0.408,0.11-0.613c0.054-0.207,0.14-0.424,0.237-0.622l2.905-0.978c-0.104-0.027-0.236-0.018-0.35,0.023
			c-0.054,0.035-0.125,0.015-0.19,0.029c-0.065,0.011-0.128,0.033-0.189,0.085c-0.118,0.084-0.208,0.193-0.221,0.349
			L349.563,217.202z"/>
	</g>
</g>
<g id="Layer_2">
	<g>
	</g>
	<g>
	</g>
	<g>
	</g>
	<g>
	</g>
	<g>
	</g>
	<g>
	</g>
	<g>
	</g>
	<g>
	</g>
	<g>
	</g>
	<g>
	</g>
	<g>
	</g>
	<g>
	</g>
	<g>
	</g>
	<g>
	</g>
	<g>
	</g>
</g>
</svg>
