<?xml version="1.0" encoding="utf-8"?>
<!-- Generator: Adobe Illustrator 16.0.0, SVG Export Plug-In . SVG Version: 6.00 Build 0)  -->
<!DOCTYPE svg PUBLIC "-//W3C//DTD SVG 1.0//EN" "http://www.w3.org/TR/2001/REC-SVG-20010904/DTD/svg10.dtd">
<svg version="1.0" xmlns="http://www.w3.org/2000/svg" xmlns:xlink="http://www.w3.org/1999/xlink" x="0px" y="0px" width="640px"
	 height="960px" viewBox="0 0 640 960" enable-background="new 0 0 640 960" xml:space="preserve">
<g id="Layer_1">
	<path d="M77.504,682.863"/>
	<path d="M30.942,687.103"/>
	<path fill="none" stroke="#000000" stroke-width="4" stroke-miterlimit="10" d="M-1.748,847.297"/>
</g>
<g id="Layer_2">
	<path fill="none" stroke="#000000" stroke-width="3" stroke-miterlimit="10" d="M390.087-9.243"/>
	<path d="M-1.748,519.399"/>
	<path d="M-12.225,482.452"/>
	<g id="Layer_3">
	</g>
	<path d="M323.176,99.581c-4.265,1.214-8.25,3.084-12.273,4.882c33.867-8.889,64.681-5.81,91.686,18.105
		c12.418,10.995,23.396,23.633,29.103,39.405c2.169,5.982,3.054,12.26,3.253,18.574c0.549-3.544,0.77-7.151,0.742-10.812
		c-0.277-2.417-0.632-4.821-1.161-7.203c-2.104-9.428-6.681-17.989-12.408-25.727c-10.549-14.251-24.326-27.958-41.085-34.65
		c-0.26,0.036-0.543,0.017-0.859-0.096c-12.835-4.59-26.321-5.042-39.827-4.741c-1.167,0.026-2.358,0.036-3.556,0.05
		C332.157,97.762,327.562,98.332,323.176,99.581z"/>
	<path d="M468.271,158.812c0.996,1.005,2.188,1.021,3.137,0.515c-7.57-6.035-12.54-17.362-14.132-26.187
		c-1.712-9.483,1.731-20.095,8.123-27.195c8.589-9.536,20.284-15.785,32.954-20.01c16.283-7.327,36.544-10.229,53.582-12.806
		c17.193-2.598,34.262-4.128,50.11,2.985c-0.087-0.782-0.521-1.52-1.48-1.974C555.657,52.945,404.897,94.899,468.271,158.812z"/>
</g>
<g id="Layer_4">
	<path fill-rule="evenodd" clip-rule="evenodd" stroke="#000000" stroke-width="3" stroke-miterlimit="10" d="M71.862,841.689
		c0.292-0.674,0.824-1.34,0.843-2.023c0.256-9.618,6.497-15.172,13.383-20.569c9.259-7.255,18.339-14.756,27.19-22.499
		c2.342-2.05,3.031-6.006,5.394-8.01c10.854-9.192,19.411-20.25,26.816-32.217c3.998-6.459,7.565-13.235,10.738-20.142
		c7.173-15.602,14.4-31.14,19.253-47.77c2.733-9.364,8.263-17.879,12.012-26.993c2.215-5.383,3.044-11.326,5.142-16.771
		c5.366-13.925,11.426-27.591,16.561-41.596c3.233-8.823,5.415-18.042,7.863-27.138c3.651-13.557,7.897-27.021,10.442-40.791
		c2.432-13.148,3.651-26.612,4.234-39.99c0.664-15.206,0.042-30.468-0.056-45.703c-0.013-1.714-0.267-3.428-0.366-4.615
		c-9.755-1.723-18.368-4.178-24.152-12.209c-8.446-11.725-10.08-25.435-9.94-39.147c0.136-13.374,1.159-26.86,3.237-40.071
		c4.53-28.807,15.646-55.201,32.972-78.63c4.175-5.647,10.789-9.838,16.961-13.575c7.852-4.752,16.027-9.695,24.739-12.14
		c11.837-3.322,24.534-2.798,36.371,0.356c8.855,2.361,16.379,8.267,22.511,15.493c7.215,8.499,16.387,12.442,27.644,11.97
		c3.369-0.141,7.094,0.49,10.139,1.89c6.21,2.858,6.84,8.815,1.707,13.243c-6.115,5.272-12.475,10.26-18.573,15.552
		c-2.742,2.382-5.119,4.918-2.497,9.253c0.941,1.556,0.409,4.536-0.368,6.504c-2.926,7.399-1.962,14.572,0.214,21.895
		c2.061,6.921-1.303,10.345-8.311,8.809c-0.706-0.155-1.439-0.197-2.926-0.392c0.439,1.596,0.65,2.806,1.104,3.915
		c1.053,2.568,1.337,4.719-1.375,6.695c-1.094,0.796-1.715,2.709-1.911,4.198c-0.959,7.305-4.286,11.354-11.019,13.563
		c-1.201,0.393-2.498,1.827-2.901,3.059c-1.343,4.084-2.264,8.303-3.411,12.454c-1.193,4.295,1.855,7.23,4.02,9.773
		c6.49,7.613,13.322,14.991,20.575,21.878c11.281,10.709,26.636,12.316,40.144,4.706c7.634-4.301,15.061-8.966,22.715-13.225
		c3.994-2.224,8.281-3.928,12.791-6.03c-0.387-1.139-0.9-2.791-1.495-4.414c-2.454-6.668-0.043-13.111,6.604-15.67
		c4.146-1.594,5.863-4.203,6.941-8.271c3.195-12.039,3.413-23.991,1.456-36.304c-0.721-4.541,1.244-9.646,2.547-14.338
		c1.758-6.35,4.06-12.55,6.128-18.814c0.604,0.153,1.206,0.306,1.81,0.458c-1.027,5.233-1.429,10.693-3.218,15.651
		c-3.266,9.05-3.283,17.963-1.617,27.275c0.766,4.272-0.008,8.84-0.249,13.263c-0.223,4.014-0.674,8.014-1.048,12.297
		c1.186,0.104,2.17,0.249,3.153,0.271c7.707,0.155,12.427,3.792,14.475,11.438c3.302,12.314-2.291,24.626-13.475,30.515
		c2.573,4.442,5.115,8.899,7.718,13.319c4.682,7.959,6.42,16.625,6.392,25.764c-0.04,13.904,0.294,27.822-0.062,41.721
		c-0.479,18.835-9.791,33.007-25.119,43.125c-6.121,4.046-13.696,4.923-21.062,4.968c-8.905,0.055-17.823,0-26.719-0.428
		c-11.342-0.545-22.042-3.604-31.988-9.228c-2.411-1.363-5.126-2.19-7.07-3c-1.236,19.546-2.315,39.003-3.748,58.434
		c-0.871,11.752-1.929,23.517-3.584,35.178c-1.033,7.278-3.649,14.316-4.954,21.571c-0.83,4.617-0.835,9.436-0.728,14.155
		c0.235,10.311,0.053,20.715,1.418,30.895c1.198,8.952,3.756,17.829,6.637,26.428c4.362,13.011,9.126,25.926,14.476,38.561
		c4.697,11.107,10.319,21.839,15.809,32.592c1.226,2.399,3.724,4.113,5.445,6.288c2.396,3.026,4.647,6.164,6.898,9.297
		c3.221,4.488,6.193,9.161,9.613,13.488c6.259,7.921,12.718,15.686,19.182,23.438c6.004,7.199,7.518,14.87,4.86,24.132
		c-4.213,14.652-13.199,25.546-25.574,33.362c-6.396,4.042-14.166,7.033-21.638,8.006c-17.172,2.234-34.554,2.787-51.824,4.325
		c-11.275,1.003-21.665-3.704-32.642-4.43c-1.972-0.131-3.993,0.125-5.916-0.209c-4.332-0.753-8.758-1.357-12.88-2.791
		c-4.017-1.396-7.706-3.751-11.885-5.858c-1.844,4.43-6.041,4.323-10.235,4.231c-5.232-0.111-10.5,0.141-15.684-0.401
		c-7.769-0.806-9.339-2.808-9.805-10.536c-0.085-1.415-0.489-2.812-0.874-4.925c-5.818,3.5-10.824,7.071-16.3,9.641
		c-5.039,2.363-10.655,3.459-15.89,5.445c-8.671,3.292-17.129,3.706-26.154,0.794c-8.005-2.586-16.774-2.899-24.671-5.715
		c-26.914-9.592-49.822-24.176-60.254-52.727c-1.371-3.756-2.088-7.749-3.108-11.634C71.862,844.087,71.862,842.889,71.862,841.689z
		 M323.424,327.761c-5.654,6.849-11.717,13.406-16.835,20.634c-4.201,5.934-6.88,12.936-10.984,18.951
		c-3.068,4.497-4.675,8.659-2.868,13.99c0.629,1.858,0.716,4.06,0.449,6.027c-0.723,5.332,0.198,6.416,5.347,5.535
		c0.838-0.146,1.668-0.329,2.5-0.497c-0.414-0.237-0.83-0.474-1.246-0.711c2.419-6.286,4.649-12.655,7.329-18.83
		c1.594-3.68,3.19-3.719,5.66-0.431c4.126,5.497,9.776,5.755,15.742,4.754c3.654-0.607,4.792-3.525,5.597-6.766
		c0.769-3.091-1.041-4.145-3.242-5.45c-2.697-1.598-5.137-3.633-7.92-5.649c2.038-0.978,4.096-1.964,6.322-3.035
		c0.35,0.71,0.525,1.286,0.868,1.729c1.345,1.728,2.464,3.897,4.235,4.909c0.888,0.509,4.167-0.927,4.312-1.818
		c0.31-1.875-0.715-3.979-1.233-5.979c-0.429-1.636-0.919-3.257-1.378-4.884c1.51,0.031,3.023,0.028,4.533,0.104
		c1.459,0.074,2.939,0.112,4.37,0.37c3.294,0.595,4.891-0.729,4.363-4.055c-0.445-2.793-1.696-5.519-1.774-8.295
		c-0.117-4.041-0.346-8.427,1.042-12.067c1.396-3.662,2.706-9.572,0.634-11.677c-2.345-2.386-7.425-2.117-11.24,0.645
		c-3.497,2.534-7.058,4.994-10.395,7.724c-1.67,1.365-2.903,3.264-4.333,4.919L323.424,327.761z M272.065,423.8
		c0.728-0.149,1.457-0.301,2.185-0.45c1.043,3.918,2.376,7.792,3.086,11.772c3.993,22.4,12.984,43.093,21.636,63.907
		c0.505,1.217,1.271,2.386,2.137,3.383c4.794,5.519,9.487,11.144,14.567,16.386c2.599,2.683,5.815,4.833,8.974,6.879
		c2.985,1.929,6.418,3.165,9.382,5.117c14.139,9.323,28.751,17.635,46.226,18.044c14.579,0.347,29.2,4.738,43.796-1.054
		c7.069-2.808,13.882-5.871,18.103-12.168c5.241-7.812,9.332-16.306,9.872-26.076c0.412-7.433,1.451-14.837,1.701-22.267
		c0.268-8.05,0.625-16.199-0.311-24.155c-1.002-8.522-2.116-17.432-7.845-24.433c-4.409-5.384-9.332-10.395-14.394-15.176
		c-3.193-3.019-7.589-3.938-11.767-2.617c-3.49,1.107-6.804,3.028-9.92,5.015c-5.231,3.34-9.794,8.345-15.449,10.257
		c-9.096,3.082-18.803,4.561-28.363,5.994c-3.146,0.473-7.179-0.432-9.849-2.173c-7.829-5.113-15.639-10.451-22.56-16.697
		c-5.248-4.738-8.812-11.289-13.687-16.511c-5.377-5.761-11.476-10.623-20.374-7.91c-3.969,1.211-8.232,1.689-11.979,3.358
		c-8.269,3.678-16.931,6.999-24.234,12.159c-6.941,4.9-12.74,11.636-18.289,18.198c-2.808,3.327-4.961,7.898-5.636,12.187
		c-1.203,7.642-0.901,15.507-1.51,23.256c-1.319,16.785-2.708,33.565-4.321,50.326c-0.395,4.092-2.055,8.05-2.638,12.144
		c-1.688,11.835-1.873,24.038-4.927,35.49c-5.384,20.171-11.86,40.113-18.992,59.749c-7.284,20.056-15.779,39.679-24.011,59.38
		c-2.975,7.118-6.885,13.843-10.081,20.874c-3.647,8.027-7.047,16.171-10.42,24.317c-3.026,7.31-4.769,15.419-9.046,21.871
		c-6.914,10.432-12.245,21.966-22.174,30.501c-10.498,9.022-19.641,19.607-29.792,29.062c-4.221,3.932-9.889,6.286-14.216,10.128
		c-3.768,3.346-7.854,7.292-9.559,11.813c-4.435,11.766-0.061,22.748,6.203,32.602c5.099,8.021,11.041,15.641,19.204,21.04
		c7.938,5.25,15.333,11.763,23.943,15.432c10.566,4.509,22.093,6.855,33.317,9.692c3.826,0.968,8.019,1.007,11.994,0.736
		c5.657-0.385,11.326-1.165,16.879-2.315c3.281-0.68,6.596-1.984,9.46-3.723c7.265-4.409,14.124-9.493,21.43-13.828
		c22.385-13.279,38.331-32.45,50.413-55.035c4.073-7.615,6.351-16.201,10.527-23.745c4.322-7.802,4.611-16.265,5.708-24.548
		c1.729-13.077,2.018-26.346,3.865-39.398c1.627-11.506,6.911-21.925,12.799-31.834c8.007-13.474,15.702-26.896,21.146-41.828
		c8.167-22.389,11.804-45.292,12.875-68.867c0.541-11.926,1.467-23.844,2.482-35.739c0.312-3.682,2.878-7.703,1.946-10.834
		c-1.423-4.786-0.824-9.088-0.065-13.583c0.789-4.677-1.106-7.658-5.195-9.712c-3.183-1.6-6.446-3.181-9.289-5.289
		c-5.52-4.094-10.456-9.037-16.202-12.752c-9.728-6.286-14.466-16.31-19.321-25.827c-4.203-8.236-6.083-17.685-8.763-26.664
		c-3.408-11.414-6.708-22.866-9.784-34.371C272.151,430.263,272.336,426.971,272.065,423.8z M328.995,679.305
		c-0.437-0.022-0.874-0.045-1.31-0.067c-0.767,2.22-1.368,4.517-2.333,6.646c-3.054,6.762-5.937,13.634-9.459,20.152
		c-4.306,7.983-9.006,15.767-13.864,23.428c-8.418,13.277-10.562,28.045-10.989,43.309c-0.49,17.463-1.465,34.621-9.434,50.956
		c-5.456,11.183-10.674,22.188-19.001,31.612c-3.921,4.438-6.951,9.694-10.108,14.75c-0.958,1.542-1.513,3.708-1.355,5.507
		c0.939,10.664,5.796,19.868,12.793,27.488c4.878,5.312,10.651,9.614,19.09,10.173c9.829,0.655,19.448,5.015,29.254,5.406
		c13.984,0.557,28.202-0.017,42.048-1.997c13.037-1.863,26.114-5.041,37.898-11.51c3.593-1.973,7.318-4.468,9.732-7.663
		c3.916-5.187,7.601-10.845,9.921-16.867c2.835-7.363,4.283-14.967-1.817-22.324c-9.218-11.116-17.9-22.696-26.404-34.372
		c-8.335-11.438-17.354-22.615-23.897-35.05c-7.389-14.045-12.65-29.257-18.244-44.186c-2.589-6.917-3.893-14.342-5.55-21.587
		c-2.193-9.594-4.411-19.199-6.117-28.887C328.992,689.353,329.244,684.283,328.995,679.305z M288.901,250.237
		c-4.536,0.828-10.799,1.476-16.745,3.211c-4.819,1.407-9.248,4.146-13.869,6.249c-15.453,7.027-24.754,20.341-33.621,33.793
		c-3.544,5.377-4.904,12.151-7.692,18.087c-6.377,13.578-10.171,27.926-12.617,42.604c-1.419,8.522-1.867,17.219-2.522,25.853
		c-1.046,13.768-0.855,27.472,4.103,40.613c1.445,3.83,2.81,8.354,5.7,10.809c3.581,3.041,8.618,4.523,13.221,6.118
		c1.615,0.56,4.361,0.101,5.637-0.997c4.824-4.159,9.748-8.377,13.744-13.294c10.461-12.874,22.781-22.642,39.439-25.882
		c3.672-0.713,5.267-2.002,4.583-6.275c-1.723-10.793,0.713-20.867,5.444-30.78c5.984-12.543,13.377-24.054,22.94-34
		c4.893-5.087,10.372-10.517,16.684-13.146c14.709-6.125,27.473-14.78,39.116-25.352c0.814-0.74,1.079-2.768,0.752-3.961
		c-1.467-5.354-5.756-4.01-9.586-3.755c-14.796,0.99-26.711-4.176-35.438-16.417c-1.503-2.108-3.477-4.11-5.662-5.465
		C312.752,252.21,301.586,251.671,288.901,250.237z M441.829,390.212c0.919,1.158,1.793,1.763,1.897,2.482
		c0.48,3.247,1.962,7.122,0.744,9.633c-1.255,2.58-5.065,5.037-8.035,5.421c-5.075,0.659-6.561-3.275-5.702-7.935
		c-0.797,0.112-1.114,0.082-1.357,0.2c-6.02,2.993-4.379,13.733,1.931,16.808c1.589,0.774,3.136,1.768,4.457,2.941
		c4.494,3.994,7.767,3.906,11.799-0.744c1.515-1.746,2.656-3.807,3.717-5.358c-1.558-0.911-3.432-1.398-3.674-2.317
		c-0.28-1.047,0.692-2.628,1.486-3.708c1.14-1.553,2.716-2.776,3.898-4.303c0.624-0.803,0.802-1.947,1.183-2.942
		c-0.302-0.144-0.601-0.292-0.905-0.437c-1.298,1.025-2.6,2.054-4.178,3.297C451.201,391.716,450.201,389.767,441.829,390.212z
		 M248.544,895.781c-3.146-1.972-6.827-4.498-10.731-6.612c-1.417-0.77-4.063-1.38-4.947-0.637c-2.698,2.27-6.167,4.943-6.822,8.001
		c-0.85,3.96,0.721,8.442,1.296,13.062c6.859-0.217,13.517,2.302,19.695,0.123C247.561,904.857,248.011,900.69,248.544,895.781z
		 M317.105,397.443c1.231-4.356,2.555-8.569,3.53-12.858c0.233-1.029-0.348-2.901-1.155-3.392c-2.917-1.768-6.086-3.112-9.535-4.799
		c-3.944,4.902-3.637,11.009-4.523,16.519C309.512,394.499,313.067,395.877,317.105,397.443z M237.027,885.113
		c5.273,2.515,9.575,4.566,13.877,6.618c0.293-0.405,0.588-0.813,0.881-1.221c-2.027-4.005-4.056-8.007-6.309-12.456
		C242.59,880.465,240.266,882.41,237.027,885.113z M435.402,402.47c5.463-2.125,6.222-4.936,2.632-8.51
		C437.167,396.767,436.375,399.328,435.402,402.47z"/>
	<path fill-rule="evenodd" clip-rule="evenodd" d="M387.193,167.815c-4.377,8.453-8.699,16.407-11.186,25.703
		c-2.521,9.429-4.354,18.873-4.534,28.688c-0.023,1.193-0.031,2.365-0.1,3.509c1.465,23.946,11.055,46.52,24.896,62.765
		c8.542,10.026,18.635,17.953,32.026,19.976c12.54,1.895,24.992,0.562,37.102-3.304c1.247-0.397,2.239-1.6,3.35-2.427
		c-0.112-0.208-0.226-0.416-0.338-0.621c-17.511,6.604-39.5,7.096-54.306-2.66c-7.509-4.562-14.361-11.746-21.072-22.256
		c-23.234-36.391-25.435-74.085-1.997-111.776c1.815-2.918,3.535-5.892,5.298-8.842l-0.907,0.021
		C392.701,160.314,389.298,163.756,387.193,167.815z"/>
	<path fill-rule="evenodd" clip-rule="evenodd" d="M478.726,207.893c-9.94,8.253-20.887,16.005-32.089,22.428
		c-4.317,2.477-9.831,7.167-15.304,9.648c0.399-0.1,0.789-0.209,1.15-0.383c16.862-8.028,33.184-16.945,47.507-29.126
		c17.522-14.903,27.588-33.767,30.158-56.625l-2.268,0.055C505.121,175.43,496.121,193.447,478.726,207.893z"/>
	<path fill-rule="evenodd" clip-rule="evenodd" d="M95.431,835.57c13.592-10.208,23.915-22.924,30.444-38.577
		c0.176-0.422,1.2-0.493,2.048-0.811C123.728,811.44,104.523,835.139,95.431,835.57z"/>
	<path fill-rule="evenodd" clip-rule="evenodd" stroke="#000000" stroke-miterlimit="10" d="M323.279,327.907
		c1.097,0.693,2.193,1.382,3.388,2.138c2.441-3.33,6.01-4.275,10.091-3.976c3.278,0.242,5.68,2.077,5.685,5.153
		c0.007,2.11-1.33,5.297-2.985,6.087c-2.401,1.149-5.865,1.337-8.441,0.538c-3.406-1.06-6.396-3.471-9.038-4.999
		c0.421-1.481,0.929-3.28,1.442-5.083C323.424,327.761,323.279,327.907,323.279,327.907z M326.967,332.087
		c4.208,4.108,6.764,3.786,8.954-0.388c0.424-0.814,0.756-2.151,0.37-2.781c-0.348-0.565-1.941-0.936-2.631-0.618
		C331.423,329.324,329.348,330.705,326.967,332.087z"/>
	<polygon fill="none" stroke="#000000" stroke-width="3" stroke-miterlimit="10" points="315.707,166.543 328.037,170.715 
		335.821,160.278 335.658,173.292 347.991,177.462 335.56,181.334 335.393,194.343 327.874,183.725 315.441,187.596 
		323.226,177.163 	"/>
	<polygon fill="none" stroke="#000000" stroke-width="3" stroke-miterlimit="10" points="263.883,127.472 283.867,134.23 
		296.488,117.315 296.223,138.41 316.21,145.168 296.059,151.443 295.789,172.529 283.604,155.318 263.453,161.593 276.07,144.679 	
		"/>
	<polygon fill="none" stroke="#000000" stroke-width="3" stroke-miterlimit="10" points="513.245,103.845 523.547,111.8 
		534.304,104.466 529.914,116.717 540.222,124.673 527.204,124.287 522.816,136.533 519.163,124.049 506.143,123.665 516.9,116.333 
			"/>
	<polygon fill="none" stroke="#000000" stroke-width="3" stroke-miterlimit="10" points="485.331,30.312 495.632,38.269 
		506.388,30.931 502,43.183 512.302,51.141 499.288,50.756 494.899,63.003 491.243,50.519 478.229,50.132 488.984,42.799 	"/>
	<polygon fill="none" stroke="#000000" stroke-width="3" stroke-miterlimit="10" points="549.467,88.987 558.215,95.747 
		567.356,89.517 563.627,99.924 572.378,106.683 561.325,106.358 557.595,116.76 554.491,106.154 543.433,105.828 552.571,99.6 	"/>
	<polygon fill="none" stroke="#000000" stroke-width="3" stroke-miterlimit="10" points="417.072,52.34 427.371,60.297 
		438.131,52.96 433.739,65.213 444.046,73.169 431.029,72.784 426.643,85.03 422.987,72.546 409.971,72.162 420.729,64.827 	"/>
	<polygon fill="none" stroke="#000000" stroke-width="3" stroke-miterlimit="10" points="339.33,27.531 356.028,40.423 
		373.465,28.534 366.351,48.393 383.055,61.287 361.954,60.663 354.842,80.515 348.917,60.277 327.82,59.653 345.256,47.767 	"/>
	<polygon fill="none" stroke="#000000" stroke-width="3" stroke-miterlimit="10" points="578.663,124.362 595.358,137.254 
		612.798,125.366 605.682,145.223 622.386,158.116 601.287,157.494 594.173,177.348 588.249,157.108 567.153,156.482 
		584.587,144.598 	"/>
</g>
</svg>
