<?xml version="1.0" encoding="utf-8"?>
<!-- Generator: Adobe Illustrator 16.0.0, SVG Export Plug-In . SVG Version: 6.00 Build 0)  -->
<!DOCTYPE svg PUBLIC "-//W3C//DTD SVG 1.0//EN" "http://www.w3.org/TR/2001/REC-SVG-20010904/DTD/svg10.dtd">
<svg version="1.0" id="Layer_1" xmlns="http://www.w3.org/2000/svg" xmlns:xlink="http://www.w3.org/1999/xlink" x="0px" y="0px"
	 width="1062px" height="861px" viewBox="0 0 1062 861" enable-background="new 0 0 1062 861" xml:space="preserve">
<g id="C1VGiU_1_">
	<g>
		<path fill-rule="evenodd" clip-rule="evenodd" d="M991,695v-8c-0.998,0.033-1.996,0.096-2.994,0.096
			c-83.484-0.017-166.968-0.037-250.451-0.068c-1.244-0.001-2.489-0.148-4.64-0.285c10.204-15.886,20.039-31.353,8.994-50.106
			c13.296-5.132,15.501-9.042,10.921-22.134c-1.791-5.118-5.608-9.587-8.817-14.13c-2.384-3.375-5.362-6.322-7.915-9.585
			c-3.122-3.992-6.21-8.024-9.023-12.233c-0.9-1.348-1.593-3.519-1.172-4.96c4.676-16,7.648-32.259,8.062-48.944
			c0.128-5.162,0.212-10.334,0.06-15.494c-0.575-19.364-0.176-38.839-2.197-58.056c-2.077-19.741-6.479-39.244-10.023-58.822
			c-1.613-8.91-4.438-17.216-13.892-21.017c-12.442-5.001-12.717-5.108-7.099-17.681c1.358-3.039,4.782-6.331,7.884-7.159
			c5.847-1.561,10.403-4.328,13.916-8.982c6.104-8.087,10.049-17.246,12.093-27.099c0.66-3.179,1.479-4.279,4.86-4.62
			c6.797-0.686,8.205-4.508,4.961-10.546c-3.379-6.288-6.302-12.82-9.268-18.923c4.402-1.644,9.474-3.188,14.188-5.47
			c1.875-0.907,2.961-3.445,4.406-5.241c-2.01-1.177-3.904-3.062-6.049-3.41c-10.453-1.701-21.208-2.083-30.247-8.734
			c-8.006-5.891-16.84-9.723-26.733-11.488c-13.214-2.357-24.753,0.934-34.698,9.516c-8.587,7.411-10.39,17.71-11.031,28.462
			c-0.853,14.262-1.178,28.734-11.375,40.469c-0.934,1.075-1.27,3.703-0.596,4.855c0.688,1.176,3.012,2.061,4.539,1.952
			c4.04-0.289,8.037-1.183,12.051-1.837c0.416,0.275,0.832,0.55,1.248,0.825c-1.837,2.888-3.661,5.785-5.516,8.661
			c-0.908,1.408-2.968,3.453-2.607,4.038c1.026,1.662,2.863,3.093,4.696,3.907c1.616,0.718,3.656,0.483,5.839,0.701
			c-0.532,1.119-0.655,1.83-0.942,1.905c-1.251,0.324-2.621,0.273-3.813,0.718c-1.445,0.539-3.452,1.144-3.929,2.266
			c-0.472,1.11,0.266,3.21,1.152,4.344c6.234,7.973,13.968,12.126,24.368,8.941c1.585-0.485,3.252-0.719,4.893-1.006
			c4.927-0.862,6.907-0.583,8.738,2.325c1.083-0.509,2.155-1.039,3.215-1.594c-0.041-0.481-0.088-0.957-0.194-1.404
			c-0.403-0.708-0.811-1.42-1.232-2.159c3.097-1.306,5.896-2.486,9.87-4.163c-1.371,5.289-2.399,9.255-3.761,14.509
			c-0.008,0.062-0.018,0.124-0.045,0.175c-0.006,0.022-0.012,0.043-0.018,0.066c-0.006-0.01-0.011-0.019-0.016-0.028
			c-0.06,0.087-0.145,0.151-0.242,0.189c-0.058,0.088-0.146,0.16-0.283,0.189c-2.166,0.455-4.307-0.37-6.505-0.182
			c-2.085,0.179-3.939,0.722-5.741,1.574c-0.498,0.325-0.988,0.659-1.454,1.025c-16.644,13.088-22.76,31.187-24.357,51.477
			c-1.511,19.193-3.189,38.374-4.942,57.547c-0.632,6.905-5.353,9.681-10.901,5.672c-8.433-6.091-16.098-13.238-24.143-19.873
			c-5.835-4.813-3.512-12.24-6.06-18.071c8.335-4.929,9.249-8.069,2.579-15.371c-4.485-4.911-10.658-8.237-15.704-12.694
			c-4.261-3.764-9.058-7.548-11.694-12.374c-3.889-7.116-7.895-13.612-14.519-18.592c-4.938-3.712-10.262-3.13-15.646-3.15
			c-0.882-0.003-2.181,1.059-2.583,1.947c-1.971,4.353-5.004,8.737-5.269,13.251c-0.698,11.901-0.384,23.881,0.002,35.815
			c0.148,4.604,4.376,2.947,7.097,3.164c2.859,0.227,4.861-0.672,4.772-4.141c-0.12-4.688-0.03-9.383-0.03-14.075l1.576-0.775
			c6.198,6.129,12.396,12.258,18.583,18.375c-6.54,7.16-6.805,18.896-0.436,25.78c2.228,2.407,5.398,4.708,8.491,5.346
			c3.542,0.731,4.945,2.212,6.102,5.359c6.808,18.536,16.038,35.811,28.588,51.089c3.729,4.54,8.44,8.598,13.439,11.681
			c5.681,3.503,12.187,5.666,18.418,8.448c2.109,11.873-1.255,25.222,8.143,35.963c-11.367,11.812-22.433,23.47-33.692,34.937
			c-4.964,5.054-4.83,12.83,1.061,16.778c2.829,1.896,6.146,3.559,9.451,4.149c7.62,1.36,15.369,2.001,24.273,3.08
			c1.138,13.976,2.312,28.39,3.491,42.881c-1.938,0.169-2.593,0.269-3.248,0.276c-53.645,0.661-107.289,1.386-160.935,1.952
			c-68.641,0.725-137.282,1.359-205.925,1.962C211.612,689.682,129.806,690.324,48,691v8c46.142-0.673,92.283-1.479,138.427-1.987
			c70.639-0.777,141.279-1.396,211.919-1.995c86.136-0.729,172.272-1.366,258.409-2.041c1.628-0.013,3.256-0.001,5.19-0.001
			c0,1.282,0.033,2.079-0.005,2.872c-0.798,16.753-1.662,33.502-2.387,50.257c-0.388,8.973-0.39,17.963-0.848,26.931
			c-0.321,6.288-1.463,12.545-1.62,18.83c-0.216,8.651,5.532,15.59,13.793,17.997c15.048,4.384,30.318,2.595,45.531,1.761
			c6.589-0.361,13.203-1.163,19.682-2.409c7.155-1.377,14.1-3.867,21.262-5.194c10.256-1.902,20.619-3.238,30.95-4.728
			c13.916-2.006,27.323-7.089,41.651-6.658c7.587,0.228,15.187,0.04,22.526,0.04c0.814,2.208,1.699,4.343,2.396,6.538
			c3.66,11.529,7.607,23.009,5.447,35.455c-0.681,3.924,3.543,7.912,6.63,6.118c3.532-2.053,7.16-4.434,9.755-7.509
			c6.577-7.8,6.476-17.366,6.167-26.971c-0.298-9.247-0.064-18.511-0.064-27.784c6.414-0.146,6.552-0.245,6.962-7.34
			c0.183-3.158,0.102-6.332,0.3-9.489c0.214-3.396-1.123-4.91-4.636-4.701c-7.718,0.46-15.446,0.758-23.058,1.117v-19.716
			c2.603-3.305,5.205-5.252,5.79-7.686c0.79-3.282-0.01-6.938-0.058-10.434c-0.041-3.043-1.629-4.739-4.549-4.821
			c-8.774-0.248-17.562-0.63-26.329-0.401c-10.628,0.275-20.587-1.091-30.514-5.652c-6.722-3.089-14.688-4.376-22.176-4.705
			c-16.426-0.723-32.149,4.02-47.837,8.164c-2.238-5.896-4.434-11.68-6.656-17.533c0.855-0.187,1.18-0.319,1.504-0.319
			C818.038,694.997,904.52,694.999,991,695z M665.284,253.067c9.354-6.995,19.484-7.97,30.117-3.475
			c4.58,1.936,9.033,4.208,13.411,6.574c7.82,4.227,15.539,8.641,23.004,12.81c-0.091,0.038-0.991,0.455-1.918,0.798
			c-7.015,2.602-7.213,4.295-2.521,10.12c3.652,4.534,6.531,9.691,9.476,15.406c-6.753-1.611-7.332,2.159-7.851,6.487
			c-1.282,10.717-5.051,20.688-11.103,29.507c-2.552,3.719-6.986,6.147-11.117,9.629c-5.08-6.155-9.37-11.353-13.848-16.778
			c4.462-4.045,6.186-8.915,3.111-14.285c-2.988-5.22-8.175-3.99-13.151-3.347c-7.839-12.426-17.58-22.625-32.851-26.853
			C650.203,268.358,656.206,259.855,665.284,253.067z M664.36,356.748c-4.399,1.373-7.844-1.434-10.801-4.671
			c8.869-5.498,6.361-12.703-0.446-15.153c0.976-4.533,2.371-8.92,2.756-13.394c0.39-4.525-1.795-5.943-6.169-4.868
			c-2.836,0.697-5.647,1.498-9.943,2.646c8.772-11.291,10.549-23.302,10.303-36.824c8.128,4.499,14.557,9.574,19.679,16.053
			c2.706,3.423,4.385,7.653,6.57,11.495c1.498,2.634,3.305,4.358,6.291,1.74c0.5-0.438,1.018-1.118,1.579-1.176
			c2.033-0.211,4.088-0.204,6.135-0.279c-0.528,2.059-0.721,4.293-1.682,6.124c-0.894,1.702-3.124,2.767-3.814,4.493
			c-0.712,1.778-0.642,4.118-0.119,5.99c0.157,0.561,2.978,0.378,4.872,0.565c3.186,4.21,6.678,8.826,11.29,14.922
			C688.401,348.664,676.464,352.971,664.36,356.748z M561.199,390.212c1.197,0.229,2.808,0.044,3.52,0.757
			c2.781,2.788,5.55,5.666,7.828,8.864c4.955,6.958,7.084,15.891,14.695,20.995c2.134,1.431,4.315,2.788,7.268,4.69
			c-7.975,1.574-13.656-0.205-17.488-6.289c-5.298-8.408-10.506-16.873-15.611-25.397
			C560.859,392.913,561.247,391.432,561.199,390.212z M551.887,433.872c-0.104,0.812-1.257,1.487-1.932,2.226
			c-0.612-0.676-1.744-1.344-1.754-2.028c-0.072-4.796,0.034-9.598,0.243-14.391c0.024-0.553,1.228-1.603,1.535-1.487
			c0.764,0.286,1.82,1.067,1.879,1.728c0.221,2.475,0.089,4.981,0.089,7.477h0.032C551.979,429.559,552.161,431.744,551.887,433.872
			z M575.852,429.323c-5.066-7.129-12.049-11.803-19.923-15.273c-3.945-1.739-7.831-3.808-7.648-8.734
			c0.22-5.931,0.943-11.941,7.419-15.532c5.184,12.509,10.504,24.162,19.543,33.799c5.729,6.107,14.646,8.944,22.58,6.193
			c2.941-1.021,11.199,5.183,10.395,8.188c-0.347,1.295-2.814,2.668-4.456,2.867C592.377,442.215,582.747,439.025,575.852,429.323z
			 M590.298,466.06c-2.744,1.789-5.548,1.398-8.118-1.006c-4.435-4.148-7.122-9.092-7.14-15.188c-0.01-3.391,1.487-5.954,5.74-6.354
			c-0.222,2.229-0.417,4.188-0.706,7.103c1.822-2.294,2.936-3.695,4.05-5.098c0.897,1.512,1.794,3.023,2.551,4.299
			c0.61-0.578,1.532-1.453,2.454-2.328c0.987,1.414,1.974,2.827,3.262,4.674c0.303-1.455,0.543-2.61,1.076-5.178
			c1.974,1.868,3.35,3.171,4.705,4.453c0.811-0.683,2.014-1.696,3.217-2.711c1.13,1.493,2.738,2.852,3.209,4.529
			c0.284,1.015-0.894,2.905-1.941,3.742C598.666,460.185,594.572,463.272,590.298,466.06z M654.028,546.117
			c12.606-1.059,18.393-8.771,23.198-18.048c7.693-14.852,12.244-30.755,16.821-46.716c3.409-11.887,5.634-23.883,5.825-36.235
			c0.033-2.135-0.22-4.362-0.859-6.383c-0.331-1.045-1.801-1.729-2.756-2.575c-0.744,1.071-2.021,2.085-2.143,3.222
			c-0.508,4.775-0.648,9.588-0.965,14.384c-1.161,17.58-6.851,34.069-12.521,50.512c-2.475,7.178-5.728,14.13-9.115,20.941
			c-5.7,11.462-13.598,19.972-31.136,11.248c-6.872-3.418-12.933-7.447-17.503-13.6c-11.803-15.889-23.413-31.896-29.946-51.243
			c3.697-2.484,7.401-4.974,11.46-7.7c1.913,2.475,3.537,5.472,5.957,7.535c7.814,6.667,15.493,13.64,24.029,19.275
			c9.918,6.549,18.983,0.937,19.685-10.904c0.656-11.083,2.143-22.115,2.946-33.193c0.83-11.44,0.697-22.978,2.034-34.349
			c1.827-15.553,9.708-27.805,22.45-37.083c10.384-7.559,32.411,2.279,33.857,14.652c1.977,16.901,5.325,33.671,8.746,50.362
			c1.908,9.308,1.534,18.855,3.08,27.905c2.14,12.52,1.848,24.848,1.673,37.213c-0.262,18.403-0.86,36.81-5.556,54.888
			c-4.109,15.823-8.21,19.796-24.758,22.787c-10.58,1.913-20.884,0.606-31.086-1.354c-2.834-0.545-6.327-4.288-7.188-7.242
			C657.61,565.315,656.088,555.889,654.028,546.117z M670.098,587.906c17.981,3.947,35.26,2.378,51.848-6.843
			c1.849,2.437,3.605,4.753,5.939,7.829c-23.833,6.051-47.104,7.69-71.247,5.107C661.205,585.981,661.21,585.956,670.098,587.906z
			 M654.952,635.304c-6.556,0.133-13.274-0.898-19.688-2.387c-9.172-2.128-10.488-7.821-3.969-14.734
			c5.257-5.573,10.338-11.331,15.892-16.59c1.653-1.565,4.748-2.634,7.004-2.375c17.566,2.016,35.115,2.889,52.71,0.568
			c8.199-1.081,16.384-2.278,22.375-3.116c4.748,3.938,8.981,6.587,12.037,10.226c3.004,3.577,5.221,7.987,7.037,12.343
			c1.987,4.766-0.009,8.619-5.165,9.887c-6.739,1.656-13.617,3.334-20.504,3.698C700.123,634.016,677.537,634.847,654.952,635.304z
			 M862.623,763.318c4.188,0.438,8.512-0.459,12.778-0.735c2.94-0.19,5.885-0.314,9.196-0.486c-0.313,3.342-0.569,6.065-0.821,8.749
			c-8.22,1.304-8.395,1.299-8.637,9.965c-0.247,8.805,0.14,17.629-0.209,26.427c-0.242,6.085-1.097,12.164-2.039,18.189
			c-0.278,1.778-1.787,3.363-2.731,5.037c-2.063-12.705-4.559-24.646-11.005-35.473c-0.651-1.095-1.148-2.464-1.175-3.717
			c-0.17-7.986-0.156-15.976-0.268-23.962C857.664,763.793,858.969,762.938,862.623,763.318z M842.546,721.626h18.914v6.828
			c-5.414,0.408-5.923,3.965-5.722,8.596c0.344,7.897,0.095,15.821,0.095,23.623c-2.828,0.534-4.438,0.838-6.468,1.222
			C849.806,747.861,839.542,735.948,842.546,721.626z M840.084,747.452c0.79,4.04,1.558,8.146,1.649,12.244
			c0.094,4.218-2.437,6.248-6.557,5.133c-9.558-2.585-19.262-4.939-28.423-8.598c-12.228-4.885-24.702-5.033-37.276-3.6
			c-14.758,1.683-28.83,6.193-42.445,12.162c-2.282,1.001-4.977,1.062-7.831,1.627c-0.169-2.425-0.322-4.055-0.391-5.688
			c-0.444-10.715-0.417-10.532,10.075-11.738c11.356-1.306,22.668-3.009,34.002-4.512c1.809-0.24,3.633-0.436,5.454-0.485
			c13.134-0.36,26.272-1.025,39.403-0.895c9.94,0.099,19.875,1.171,29.797,2C838.482,745.181,839.899,746.508,840.084,747.452z
			 M731.008,714.354c1.216,3.949,3.313,4.973,7.87,4.007c13.445-2.849,27.045-5.05,40.654-7.014
			c8.419-1.214,16.776,0.405,24.211,4.412c9.425,5.08,19.253,7.087,29.796,6.377c1.311-0.088,2.633-0.012,4.595-0.012
			c-0.39,5.492-0.736,10.396-1.064,15.028c-39.757-1.523-79.533-3.454-119.08,7.67c1.054-15.907-5.491-32.829,8.504-46.103
			C727.992,703.939,729.414,709.174,731.008,714.354z M716.468,702.558c-5.562,9.354-5.982,19.958-6.148,30.392
			c-0.17,10.642,0.508,21.298,0.854,31.946c0.19,5.822,1.553,5.726,7.068,5.465c17.215-0.815,31.938-11.47,49.067-11.904
			c10.073-0.255,20.168,0.34,30.251,0.624c0.765,0.021,1.611,0.478,2.255,0.953c8.318,6.15,18.124,8.478,27.994,9.513
			c6.134,0.644,12.525-1.106,18.793-1.852c1.772-0.21,3.516-0.663,5.65-1.078v19.205c-2.769,0.423-5.346,1.323-7.83,1.115
			c-19.171-1.603-37.584,2.919-56.161,6.428c-13.345,2.52-27.031,3.508-40.172,6.765c-20.022,4.964-40.258,6.737-60.721,6.78
			c-5.601,0.012-11.281-0.949-16.788-2.114c-6.803-1.44-10.151-7.821-8.544-14.735c4.485-19.282,4.79-38.831,4.471-58.542
			c-0.255-15.75,1.585-31.523,1.706-47.293c0.11-14.325,1.156-28.891-5.036-43.245c9.216,0,18.062,0.431,26.853-0.097
			c14.905-0.893,29.794-2.205,44.646-3.76c3.841-0.402,4.652,1.399,5.232,4.18c2.295,10.983,1.261,21.42-4.869,31.134
			C728.745,682.412,722.495,692.42,716.468,702.558z"/>
		<path fill-rule="evenodd" clip-rule="evenodd" d="M86.542,198.964c0.174-92.319,71.415-160.713,154.446-165.963
			c100.666-6.365,177.261,71.676,177.776,164.162c0.519,93.366-71.799,166.273-163.719,167.582
			C160.818,366.086,86.942,291.896,86.542,198.964z M252.588,357.027c86.819-0.269,156.016-69.769,158.314-153.555
			c2.478-90.348-69.372-163.03-157.718-163.184c-88.724-0.155-158.5,70.512-158.923,157.61
			C93.826,287.3,166.347,356.76,252.588,357.027z"/>
		<path fill-rule="evenodd" clip-rule="evenodd" fill="#FFFFFF" d="M668.855,275.215c1.616-1.238,2.239-1.691,2.836-2.176
			c11.364-9.247,17.916-9.485,29.925-1.254c1.451,0.995,3.228,1.791,4.943,2.025c1.026,0.141,2.597-0.733,3.219-1.636
			c0.41-0.594-0.093-2.389-0.768-3.072c-6.507-6.584-22.643-12.617-32.063-6.557C673.113,265.011,668.548,267.991,668.855,275.215z
			 M679.485,290.277c3.858-1.672,6.113-3.572,8.142-3.354c5.759,0.618,11.529,1.74,17.095,3.353
			c4.695,1.362,9.111,3.689,13.651,5.589c0.419-0.601,0.838-1.202,1.256-1.803c-1.068-1.699-1.733-4.15-3.271-4.972
			c-8.773-4.689-17.823-9.024-28.157-7.906c-2.574,0.278-5.239,1.968-7.314,3.675C679.831,285.727,679.994,288.075,679.485,290.277z
			 M704.645,309.792c6.862,3.641,12.413,1.878,14.241-4.322C714.088,306.925,709.915,308.192,704.645,309.792z"/>
		<path fill-rule="evenodd" clip-rule="evenodd" fill="#FFFFFF" d="M660.334,317.973c4.339,0.012,7.332-2.317,7.309-5.688
			c-0.024-3.609-5.23-8.141-9.378-8.165c-3.557-0.02-6.238,3.18-6.241,7.446C652.021,315.474,655.243,317.958,660.334,317.973z"/>
		<path fill-rule="evenodd" clip-rule="evenodd" fill="#FFFFFF" d="M719.201,766.421c-0.169-2.425-0.322-4.055-0.391-5.688
			c-0.444-10.715-0.417-10.532,10.075-11.738c11.356-1.306,22.668-3.009,34.002-4.512c1.809-0.24,3.633-0.436,5.454-0.485
			c13.134-0.36,26.272-1.025,39.403-0.895c9.94,0.099,19.875,1.171,29.797,2c0.94,0.078,2.357,1.405,2.542,2.35
			c0.79,4.04,1.558,8.146,1.649,12.244c0.094,4.218-2.437,6.248-6.557,5.133c-9.558-2.585-19.262-4.939-28.423-8.598
			c-12.228-4.885-24.702-5.033-37.276-3.6c-14.758,1.683-28.83,6.193-42.445,12.162C724.75,765.795,722.056,765.856,719.201,766.421
			z"/>
		<path fill-rule="evenodd" clip-rule="evenodd" d="M668.855,275.215c-0.308-7.224,4.258-10.204,8.092-12.67
			c9.421-6.06,25.557-0.027,32.063,6.557c0.675,0.683,1.178,2.478,0.768,3.072c-0.622,0.903-2.192,1.776-3.219,1.636
			c-1.716-0.235-3.492-1.03-4.943-2.025c-12.009-8.231-18.561-7.993-29.925,1.254C671.095,273.524,670.472,273.977,668.855,275.215z
			"/>
		<path fill-rule="evenodd" clip-rule="evenodd" d="M679.485,290.277c0.509-2.202,0.346-4.55,1.401-5.418
			c2.075-1.707,4.74-3.397,7.314-3.675c10.334-1.118,19.384,3.217,28.157,7.906c1.537,0.822,2.202,3.273,3.271,4.972
			c-0.418,0.601-0.837,1.202-1.256,1.803c-4.54-1.9-8.956-4.228-13.651-5.589c-5.565-1.613-11.336-2.735-17.095-3.353
			C685.599,286.705,683.344,288.604,679.485,290.277z"/>
		<path fill-rule="evenodd" clip-rule="evenodd" d="M704.645,309.792c5.271-1.6,9.443-2.866,14.241-4.322
			C717.058,311.669,711.507,313.433,704.645,309.792z"/>
		<path fill-rule="evenodd" clip-rule="evenodd" d="M660.334,317.973c-5.091-0.015-8.313-2.499-8.311-6.406
			c0.003-4.266,2.685-7.466,6.241-7.446c4.147,0.023,9.354,4.556,9.378,8.165C667.666,315.656,664.673,317.985,660.334,317.973z
			 M663.779,312.615c-0.968-4.002-3.972-4.329-7.151-3.803c-0.357,0.059-0.914,3.233-0.376,3.64
			C658.516,314.167,661.158,316.189,663.779,312.615z"/>
		<path fill-rule="evenodd" clip-rule="evenodd" d="M255.425,78.747c64.641-0.67,120.577,50.802,120.283,120.578
			c-0.291,69.205-55.446,120.016-120.677,119.885c-66.807-0.133-120.13-53.729-120.022-120.536
			C135.118,131.683,188.393,78.624,255.425,78.747z M255.167,313.41c61.228,0.469,113.279-49.207,114.785-111.502
			c1.562-64.674-49.769-117.55-114.196-117.707c-65.241-0.158-114.912,52.551-115.063,114.375
			C140.536,262.762,193.302,313.644,255.167,313.41z"/>
		<path fill-rule="evenodd" clip-rule="evenodd" d="M279.119,223.119c-0.161,10.492-7.175,19.798-16.861,22.683
			c-9.413,2.803-20.014-1.582-25.807-10.675c-5.405-8.483-4.801-18.873,2.451-26.68c3.745-4.031,4.544-8.525,5.129-13.481
			c2.536-21.473,5.217-42.928,7.731-64.403c0.929-7.93,1.542-15.896,2.306-23.845c0.263-2.739,0.443-5.408,4.397-5.218
			c3.632,0.175,4.249,2.436,4.42,5.358c1.706,29.176,3.403,58.353,5.207,87.522c0.298,4.816,0.293,9.45,4.852,13.304
			C277.415,211.461,279.502,217.222,279.119,223.119z M255.942,208.223c-6.895,0.407-14.874,6.153-14.668,14.974
			c0.194,8.307,6.479,14.83,14.834,14.892c8.358,0.063,14.625-5.976,14.753-14.215C270.999,214.952,264.612,208.251,255.942,208.223
			z M260.678,199.681c-0.991-16.183-1.969-32.139-2.946-48.095c-0.227-0.006-0.454-0.012-0.681-0.019
			c-1.877,16-3.753,32-5.644,48.113C255.073,199.681,257.514,199.681,260.678,199.681z"/>
	</g>
</g>
<path d="M687.049,361.288c-0.271-1.824-1.156-3.694-2.934-4.05c-2.44-0.489-3.513,3.107-1.277,3.792
	c0.112,0.349,0.162,0.728,0.234,1.086c0.209,1.035-0.146,2.048-0.402,3.033c-0.326,1.258-1.164,2.369-1.253,3.685
	c-0.175,2.576,3.827,2.559,4,0c-0.045,0.661,0.199-0.292,0.226-0.358c0.21-0.525,0.432-1.044,0.64-1.569
	c0.459-1.162,0.693-2.393,0.823-3.63c0.039-0.37,0.046-0.778,0.023-1.2C687.096,361.815,687.07,361.553,687.049,361.288z"/>
<g>
</g>
<g>
</g>
<g>
</g>
<g>
</g>
<g>
</g>
<g>
</g>
</svg>
