<?xml version="1.0" encoding="utf-8"?>
<!-- Generator: Adobe Illustrator 16.0.0, SVG Export Plug-In . SVG Version: 6.00 Build 0)  -->
<!DOCTYPE svg PUBLIC "-//W3C//DTD SVG 1.0//EN" "http://www.w3.org/TR/2001/REC-SVG-20010904/DTD/svg10.dtd">
<svg version="1.0" id="Scene_11__x28_1_x29__xA0_Image_1_"
	 xmlns="http://www.w3.org/2000/svg" xmlns:xlink="http://www.w3.org/1999/xlink" x="0px" y="0px" width="1207px" height="950px"
	 viewBox="0 0 1207 950" enable-background="new 0 0 1207 950" xml:space="preserve">
<g>
	<path fill-rule="evenodd" clip-rule="evenodd" d="M433.174,534.706c-1.661,4.261-3.307,8.47-4.94,12.685
		c-1.082,2.79-2.215,5.564-3.204,8.388c-4.918,14.05-14.553,24.663-25.28,34.399c-4.42,4.012-9.247,7.592-14.024,11.188
		c-2.598,1.955-5.544,1.849-8.907,0.318c2.528-2.98,4.853-5.784,7.244-8.53c15.501-17.797,20.743-38.707,19.723-61.905
		c-0.895-20.328-3.243-40.627-0.892-61.066c2.04-17.733,7.482-33.804,19.056-47.661c9.258-11.084,21.231-17.71,34.634-22.224
		c1.458-0.491,2.896-1.043,4.562-1.646c-2.068-6.311-4.08-12.428-6.074-18.549c-0.37-1.134-0.978-2.302-0.93-3.432
		c0.065-1.565,0.172-3.813,1.14-4.465c0.975-0.657,3.244-0.125,4.565,0.589c5.981,3.231,11.828,6.711,17.981,10.251
		c3.176-4.834,6.234-9.54,9.347-14.209c2.271-3.406,4.218-3.328,6.485-0.003c3.169,4.644,6.467,9.201,10.06,14.29
		c3.294-3.125,6.383-6.054,9.47-8.985c1.914-1.817,3.654-3.886,5.801-5.365c1.41-0.972,3.405-1.093,5.138-1.595
		c0.325,1.644,1.103,3.348,0.896,4.922c-0.885,6.734-2.06,13.43-3.183,20.483c3.016,0.726,5.854,1.617,8.759,1.983
		c0.887,0.112,2.128-1.062,2.915-1.916c6.562-7.115,12.468-14.963,19.708-21.289c10.165-8.881,23.22-11.63,36.227-13.271
		c17.682-2.232,35.158-0.555,52.224,4.704c20.017,6.168,35.131,18.118,45.475,36.657c8.031,14.394,13.847,29.304,16.881,45.494
		c0.991,5.288,3.79,10.274,6.029,15.278c1.879,4.201,5.552,5.671,9.991,5.691c2.494,0.011,4.986,0.345,7.481,0.388
		c3.008,0.052,2.842,2.021,1.896,3.65c-5.252,9.031-16.579,21.795-30.719,20.294c-4.217-0.448-8.764-1.927-12.26-4.275
		c-10.783-7.241-16.704-17.884-19.181-30.524c-0.593-3.028-1.18-6.057-1.89-9.697c-0.54,0.96-0.913,1.395-1.045,1.893
		c-5.396,20.514-17.8,35.523-36.108,45.838c-0.933,0.525-2.361,0.171-3.559,0.226c0.223-1.199,0.125-2.596,0.724-3.561
		c2.647-4.269,5.632-8.331,8.246-12.62c8.114-13.319,5.467-24.675-4.044-36.392c-9.792-12.063-23.958-15.128-40.434-9.431
		c-2.242,0.775-4.439,1.68-7.177,2.723c1.234,1.482,2.303,2.836,3.444,4.126c9.616,10.867,14.149,23.804,16.372,37.965
		c2.104,13.404,0.578,26.044-4.507,38.592c-4.662,11.505-8.496,23.379-9.769,35.813c-0.998,9.755-1.691,19.574,0.743,29.3
		c0.275,1.097-0.09,3.047-0.843,3.526c-0.879,0.561-2.834,0.407-3.765-0.238c-7.404-5.14-11.619-12.559-14.41-20.926
		c-3.262-9.776-4.221-19.896-4.555-30.499c-0.463,0.775-0.983,1.269-1.052,1.818c-1.536,12.216-7.453,22.877-11.992,34.03
		c-3.159,7.764-7.913,14.469-13.44,20.672c-1.189,1.335-2.498,2.595-3.898,3.703c-4.778,3.782-9.424,7.787-14.511,11.106
		c-3.348,2.185-7.245,4.243-11.113,4.772c-9.486,1.3-19.555,2.46-27.929-3.16c-8.149-5.471-16.631-10.708-23.149-18.449
		C444.913,571.504,439.432,553.199,433.174,534.706z M521.019,396.755c-0.666,5.611-1.19,10.932-2.016,16.208
		c-0.158,1.012-1.333,2.376-2.31,2.665c-5.71,1.692-11.423,3.788-17.283,4.473c-9.726,1.136-19.629,2.081-29.124-1.65
		c-1.26-0.495-2.655-1.663-3.166-2.867c-1.851-4.361-3.35-8.87-4.974-13.3c-24.44,6.346-41.525,19.373-50.938,45.318
		c-6.448,17.774-6.243,36.487-5.818,55.143c0.354,15.55,1.149,31.157,0.236,46.649c-0.986,16.729-7.153,31.877-18.837,44.384
		c-0.97,1.038-1.729,2.273-2.586,3.418c13.322-7.16,26.795-21.96,33.73-37.062c3.591-7.82,6.442-15.983,9.56-24.017
		c7.371-18.992,19.462-33.233,39.207-40.333c19.321-6.948,39.063-11.341,59.63-12.061c10.338-0.362,20.426-1.999,30.004-6.447
		c16.077-7.467,21.345-24.275,14.69-38.856C561.189,416.874,545.488,401.943,521.019,396.755z M724.141,470.367
		c-11.508,2.013-17.281-3.374-21.414-11.997c-0.979-2.042-1.824-4.193-2.389-6.381c-1.641-6.363-3.448-12.713-4.569-19.174
		c-2.106-12.13-8.844-22.141-14.333-32.724c-6.216-11.987-15.688-20.679-27.6-26.915c-11.118-5.82-23.204-8.137-35.392-10.029
		c-13.963-2.166-27.828-1.859-41.718,1.328c-18.635,4.276-30.304,17.424-41.908,31.511c19.955,7.327,31.933,22.658,41.58,40.387
		c9.388-11.321,31.521-14.913,44.289-7.512c10.051,5.826,17.179,13.7,20.771,25.034c3.748,11.829-0.906,21.57-7.285,31.861
		c1.289-0.572,1.531-0.633,1.717-0.77c0.482-0.355,0.935-0.751,1.407-1.121c13.665-10.7,21.253-24.995,24.832-41.719
		c0.274-1.281,1.513-2.356,2.303-3.527c0.912,1.101,2.271,2.064,2.657,3.325c1.61,5.25,2.866,10.607,4.365,15.892
		c2.691,9.495,7.836,17.442,15.469,23.704c4.5,3.693,9.547,5.861,15.566,4.856C712.15,484.783,718.016,478.098,724.141,470.367z
		 M449.658,515.444c10.579-5.787,21.462-6.563,32.672-2.685c5.265,1.822,7.929,5.072,8.049,9.432
		c0.153,5.585-3.041,12.003-7.894,12.836c-7.454,1.279-15.326,2.462-22.664,1.344c-5.911-0.9-11.312-5.233-16.886-8.145
		c-0.551-0.287-0.733-1.281-1.591-2.899c2.565,0.721,4.174,1.172,6.191,1.738c-0.14-4.19-5.045-3.636-5.825-6.923
		c-6.711,9.386-7.655,9.615-3.822,20.403c3.548,9.984,8.2,19.589,12.606,29.252c4.489,9.843,11.938,17.209,20.579,23.469
		c2.131,1.544,4.49,2.831,6.408,4.601c9.584,8.838,20.834,7.951,32.352,5.818c5.891-1.091,9.367-5.966,14.096-8.859
		c12.997-7.952,21.564-19.588,27.333-33.27c4.975-11.797,9.053-23.971,13.508-35.984c0.162-0.436,0.188-0.946,0.173-1.419
		c-0.316-9.455-0.214-18.953-1.152-28.348c-0.503-5.04-2.798-9.901-4.076-14.148c-7.366,1.916-13.743,4.165-20.311,5.16
		c-13.38,2.027-26.945,2.896-40.277,5.166c-9.909,1.688-19.571,4.83-29.343,7.324c0.087,0.324,0.173,0.649,0.261,0.974
		c11.563,2.659,14.269,4.043,15.645,8.444c-1.598-0.605-3.036-0.869-4.142-1.619c-4.968-3.366-10.363-3.57-15.801-1.93
		c-5.32,1.607-10.532,3.613-15.686,5.705C447.961,511.732,447.813,513.5,449.658,515.444z M579.748,436.583
		c-2.577,2.44-2.577,2.44-1.768,5.716c3.549,14.371-1.479,27.654-13.793,35.546c-2.364,1.515-2.253,2.77-1.381,4.917
		c3.352,8.266,5.403,16.838,5.479,25.804c0.08,9.709-0.157,19.429,0.188,29.128c0.399,11.221,2.117,22.265,8.12,32.052
		c2.286,3.729,5.396,6.952,8.13,10.406c0.274-0.229,0.548-0.458,0.821-0.687c-1.816-11.429-2.172-22.943,0.368-34.218
		c2.405-10.678,5.056-21.436,9.061-31.58c5.06-12.817,6.213-25.516,3.916-38.968C596.37,459.945,590.339,447.176,579.748,436.583z
		 M490.472,374.477c-2.582,3.902-4.848,7.276-7.062,10.685c-3.617,5.569-3.851,5.622-9.546,2.292
		c-4.013-2.346-8.062-4.631-13.036-7.481c3.739,10.942,7.218,20.717,10.368,30.598c0.873,2.736,2.407,3.845,4.98,4.201
		c11.643,1.614,23.118,0.803,34.473-2.195c2.019-0.533,2.915-1.578,3.198-3.658c0.805-5.911,1.843-11.788,2.729-17.688
		c0.642-4.273,1.187-8.56,1.888-13.665c-1.132,0.842-1.521,1.073-1.839,1.378c-3.461,3.312-6.863,6.689-10.38,9.942
		c-2.645,2.447-4.326,2.073-6.283-0.837C496.963,383.589,493.811,379.234,490.472,374.477z M468.939,514.231
		c-1.672,0-3.349-0.083-5.015,0.018c-3.641,0.22-5.857,2.265-6.843,5.69c-1.912,6.639,2.104,13.613,8.908,14.72
		c2.857,0.464,6.121,0.287,8.829-0.66c3.474-1.215,4.108-4.761,3.984-8.112C478.466,516.79,477.87,512.83,468.939,514.231z
		 M481.446,532.686c3.623-0.823,6.486-4.786,6.48-9.456c-0.005-3.897-3.035-6.953-7.348-7.955
		C480.858,520.882,481.147,526.687,481.446,532.686z M451.487,523.587c-0.483,1.613-1.397,3.138-1.007,3.628
		c1.491,1.875,3.401,3.419,5.155,5.086c-0.18-2.242-1.123-4.05-1.436-5.959c-0.335-2.04-0.075-4.178-0.075-6.679
		C451.977,520.777,448.445,520.57,451.487,523.587z M446.16,514.436c-1.236,1.363-1.938,2.137-2.833,3.123
		c1.245,1.313,2.392,2.524,3.539,3.734c0.376-0.187,0.752-0.375,1.127-0.562C447.434,518.811,446.875,516.89,446.16,514.436z"/>
	<path fill-rule="evenodd" clip-rule="evenodd" fill="#FFFFFF" d="M421.511,511.248c0.413,0.353,0.825,0.705,1.238,1.059
		c0.803-0.853,1.795-1.594,2.382-2.576c18.616-31.16,44.884-50.443,81.979-53.093c1.263-0.09,2.452-1.204,3.675-1.841
		c-1.227-0.612-2.451-1.751-3.68-1.754c-14.333-0.041-27.564,4.037-39.975,11.045c-18.341,10.355-33.182,24.279-43.597,42.712
		C422.736,508.212,422.18,509.762,421.511,511.248z M427.5,472.688c0.373,0.134,0.747,0.269,1.12,0.403
		c0.56-0.966,1.258-1.878,1.653-2.908c1.192-3.109,1.889-6.467,3.449-9.367c7.739-14.386,20.631-22.954,34.721-30.057
		c2.34-1.18,4.946-1.838,7.267-3.047c1.063-0.554,1.734-1.861,2.583-2.827c-1.352-0.249-2.7-0.531-4.061-0.723
		c-0.313-0.043-0.67,0.224-1.007,0.345c-10.283,3.72-19.294,9.551-27.466,16.715c-8.523,7.474-15.515,15.992-17.823,27.505
		C427.675,470.025,427.639,471.367,427.5,472.688z"/>
	<path fill-rule="evenodd" clip-rule="evenodd" fill="#FFFFFF" d="M608.953,382.187c1.776,0.197,3.583,0.251,5.324,0.618
		c10.925,2.296,19.552,8.106,25.994,17.2c1.019,1.438,2.033,3.598,4.052,2.07c0.589-0.446,0.025-3.333-0.801-4.576
		c-3.982-5.993-9.296-10.645-15.703-13.91c-6.99-3.562-14.209-6.43-22.328-4.794c-7.291,1.47-13.3,5.291-18.415,10.539
		c-0.811,0.831-0.938,2.329-1.38,3.519c1.082-0.497,2.418-0.739,3.206-1.529C594.454,385.757,600.813,382.117,608.953,382.187z
		 M604.347,408.54c-0.277,0.182-1.101,0.721-1.924,1.261c0.791,0.488,1.549,1.044,2.38,1.453c5.53,2.728,11.05,5.482,16.64,8.084
		c1.172,0.545,2.624,0.491,3.947,0.713c-0.442-1.212-0.539-2.803-1.384-3.576C618.716,411.641,612.424,409.029,604.347,408.54z"/>
	<path fill-rule="evenodd" clip-rule="evenodd" d="M421.511,511.248c0.669-1.486,1.225-3.036,2.023-4.449
		c10.415-18.433,25.256-32.357,43.597-42.712c12.411-7.008,25.641-11.085,39.975-11.045c1.229,0.003,2.453,1.143,3.68,1.754
		c-1.223,0.637-2.412,1.751-3.675,1.841c-37.096,2.65-63.364,21.934-81.979,53.093c-0.587,0.982-1.579,1.724-2.382,2.576
		C422.336,511.953,421.923,511.601,421.511,511.248z"/>
	<path fill-rule="evenodd" clip-rule="evenodd" d="M427.5,472.688c0.14-1.32,0.176-2.663,0.436-3.96
		c2.309-11.514,9.3-20.032,17.823-27.505c8.171-7.164,17.183-12.995,27.466-16.715c0.337-0.122,0.693-0.389,1.007-0.345
		c1.36,0.192,2.708,0.474,4.061,0.723c-0.849,0.966-1.52,2.272-2.583,2.827c-2.321,1.209-4.927,1.868-7.267,3.047
		c-14.089,7.103-26.981,15.67-34.721,30.057c-1.56,2.9-2.257,6.258-3.449,9.367c-0.395,1.029-1.093,1.942-1.653,2.908
		C428.246,472.956,427.873,472.822,427.5,472.688z"/>
	<path fill-rule="evenodd" clip-rule="evenodd" d="M608.953,382.187c-8.14-0.069-14.499,3.57-20.051,9.136
		c-0.788,0.79-2.124,1.032-3.206,1.529c0.442-1.19,0.569-2.688,1.38-3.519c5.115-5.248,11.124-9.069,18.415-10.539
		c8.119-1.636,15.338,1.232,22.328,4.794c6.407,3.265,11.721,7.917,15.703,13.91c0.826,1.243,1.39,4.13,0.801,4.576
		c-2.019,1.528-3.033-0.632-4.052-2.07c-6.442-9.094-15.069-14.904-25.994-17.2C612.536,382.438,610.729,382.384,608.953,382.187z"
		/>
	<path fill-rule="evenodd" clip-rule="evenodd" d="M604.347,408.54c8.077,0.49,14.369,3.102,19.659,7.935
		c0.845,0.773,0.941,2.364,1.384,3.576c-1.323-0.222-2.775-0.167-3.947-0.713c-5.59-2.602-11.109-5.356-16.64-8.084
		c-0.831-0.409-1.589-0.965-2.38-1.453C603.246,409.261,604.069,408.722,604.347,408.54z"/>
	<path fill-rule="evenodd" clip-rule="evenodd" d="M547.747,515.434c1.059-1.399,1.881-2.485,2.703-3.572
		c0.4,0.188,0.8,0.376,1.2,0.563c-0.407,1.495-0.859,2.979-1.207,4.488c-0.305,1.32-0.492,2.667-0.73,4.003
		c0.32,0.122,0.642,0.244,0.962,0.367c0.786-0.841,1.498-1.772,2.385-2.488c0.555-0.448,1.373-0.569,2.072-0.837
		c0.134,0.851,0.684,2.031,0.321,2.491c-1.007,1.277-2.415,2.232-3.622,3.361c-0.8,0.748-1.523,1.575-2.281,2.367
		c0.202,0.256,0.404,0.512,0.606,0.768c1.674-0.438,3.348-0.877,5.965-1.562c-0.883,1.59-1.084,2.577-1.646,2.87
		c-5.578,2.906-10.983,7.238-16.896,8.132c-7.341,1.109-15.216-0.075-22.666-1.378c-4.864-0.851-8.07-7.293-7.836-12.864
		c0.22-5.223,3.639-7.847,8.086-9.391C526.373,508.859,537.256,509.666,547.747,515.434z M530.157,514.096
		c-8.726-0.267-10.42,0.758-11.233,6.201c-0.211,1.415-0.347,2.849-0.409,4.277c-0.21,4.807,1.666,9.375,4.512,9.592
		c4.126,0.314,8.33,1.48,12.394-1.353c4.233-2.953,6.369-7.353,5.02-12.646c-1.115-4.368-3.606-5.954-9.546-6.071
		C530.297,514.086,529.699,514.096,530.157,514.096z M516.859,515.311c-4.447,0.883-7.669,4.345-7.35,8.562
		c0.354,4.698,3.438,8.489,6.48,8.666C516.283,526.738,516.576,520.932,516.859,515.311z M543.897,520.175
		c-0.726,4.146-1.404,8.023-2.25,12.852c1.466-1.889,2.223-3.846,3.561-4.398c3.415-1.412,2.423-2.747,0.399-4.354
		C547.775,521.151,547.772,521.146,543.897,520.175z"/>
	<path fill-rule="evenodd" clip-rule="evenodd" d="M487.382,576.939c7.657,1.076,14.926,0.751,22.785,0.241
		c0.874,1.314-0.856,8-3.536,10.49c-4.833,4.493-10.309,4.597-15.478,0.296C488.325,585.612,486.327,578.714,487.382,576.939z
		 M507.825,579.577c-6.181,0-12.215,0-18.134,0c0.953,4.628,4.712,8.553,8.786,8.735
		C502.528,588.494,506.416,584.717,507.825,579.577z"/>
	<path fill-rule="evenodd" clip-rule="evenodd" d="M511.21,507.386c2.138-1.53,4.092-3.477,6.445-4.518
		c10.263-4.538,19.615-1.337,28.54,4.006c0.697,0.417,0.731,1.941,1.074,2.951c-1.077,0.075-2.285,0.505-3.208,0.163
		c-3.678-1.359-7.192-3.183-10.906-4.418c-6.144-2.044-12.183-2.084-17.811,1.847c-0.953,0.665-2.328,0.725-3.509,1.063
		C511.627,508.116,511.418,507.751,511.21,507.386z"/>
	<path fill-rule="evenodd" clip-rule="evenodd" d="M499.505,531.142c0.061,0.796,0.157,1.592,0.177,2.391
		c0.157,6.298,0.211,12.602,0.533,18.892c0.054,1.039,1.438,1.948,1.873,3.051c0.272,0.688-0.026,2.336-0.16,2.346
		c-4.389,0.334-8.789,0.539-13.19,0.683c-0.286,0.01-0.592-0.633-1.83-2.049c4.416-0.281,7.883-0.503,11.594-0.738
		c-1.55-8.282-2.916-16.42-0.341-24.507C498.609,531.187,499.058,531.164,499.505,531.142z"/>
</g>
</svg>
