<?xml version="1.0" encoding="utf-8"?>
<!-- Generator: Adobe Illustrator 16.0.0, SVG Export Plug-In . SVG Version: 6.00 Build 0)  -->
<!DOCTYPE svg PUBLIC "-//W3C//DTD SVG 1.0//EN" "http://www.w3.org/TR/2001/REC-SVG-20010904/DTD/svg10.dtd">
<svg version="1.0" xmlns="http://www.w3.org/2000/svg" xmlns:xlink="http://www.w3.org/1999/xlink" x="0px" y="0px"
	 width="1047.369px" height="759.579px" viewBox="0 0 1047.369 759.579" enable-background="new 0 0 1047.369 759.579"
	 xml:space="preserve">
<g id="Layer_1">
	<path fill-rule="evenodd" clip-rule="evenodd" d="M863.887,624.127c-0.637-0.383-1.683-0.092-2.544-0.094
		c-78.1-0.249-156.198-0.498-234.297-0.739c-7.965-0.024-15.93-0.004-23.905-0.004c-0.317-1.495-0.524-2.315-0.663-3.146
		c-1.684-10.157-3.103-20.366-5.14-30.451c-1.054-5.217-1.243-9.966,2.239-14.246c5.585-6.863,9.461-14.348,8.805-23.562
		c2.189-0.705,4.188-1.277,6.137-1.991c2.83-1.036,4.06-2.68,2.945-5.966c-3.378-9.954-9.606-16.993-19.701-20.403
		c-3.957-1.337-4.851-2.972-3.408-6.88c6.085-16.482,8.38-33.533,8.069-51.032c-0.138-7.756,0.109-15.518,0.081-23.277
		c-0.033-9.081,0.05-18.172-0.352-27.239c-0.255-5.748-1.827-11.457-1.877-17.191c-0.088-10.287-3.672-19.49-7.693-28.617
		c-0.658-1.492-1.998-2.877-3.361-3.826c-3.896-2.714-7.967-5.179-12.26-7.928c0.062-0.571,0.188-1.773,0.322-2.975
		c0.539-4.838,2.168-8.148,7.433-10.352c4.679-1.958,8.846-6.066,12.185-10.098c6.03-7.281,7.946-16.453,9.702-25.764
		c1.814,0,3.734,0.354,5.433-0.107c1.479-0.401,3.3-1.458,3.865-2.72c0.465-1.038-0.432-2.951-1.169-4.218
		c-2.975-5.113-6.121-10.126-9.276-15.296c4.748-1.998,8.834-3.604,12.804-5.46c1.096-0.513,1.841-1.775,2.748-2.693
		c-1.154-0.642-2.348-1.901-3.456-1.829c-9.88,0.638-17.848-3.741-25.308-9.416c-0.742-0.564-1.128-2.161-0.995-3.19
		c0.263-2.044,1.218-4.001,1.462-6.045c0.141-1.165-0.219-2.79-0.997-3.523c-0.512-0.48-2.257,0.066-3.303,0.504
		c-1.789,0.749-3.462,1.773-5.144,2.661c-5.702-4.809-5.702-4.809-12.989-1.111c-1.019-1.188-1.902-2.587-3.127-3.55
		c-1.385-1.089-3.077-1.788-4.634-2.656c-0.497,1.667-1.385,3.329-1.41,5.004c-0.056,3.683-0.264,6.882-4.993,7.443
		c-1.25,0.148-2.437,1.111-3.584,1.812c-11.834,7.226-17.706,17.558-18.029,31.647c-0.246,10.696-1.371,21.529-9.376,31.211
		c3.176,0.333,5.64,0.994,8.001,0.731c2.513-0.279,4.928-1.434,7.693-2.303c-0.091,3.878-1.163,7.293-3.955,10.228
		c-0.749,0.786-1.365,2.378-1.094,3.332c0.889,3.13,2.446,6.073,3.308,9.209c0.895,3.255,2.755,5.453,6.016,5.565
		c5.597,0.191,11.219,0.003,16.816-0.298c2.354-0.127,3.508,0.453,3.562,2.886c0.077,3.438,0.313,6.766-2.328,9.687
		c-2.212,2.444-4.021,5.284-5.803,8.08c-9.726,15.269-17.457,31.542-24.69,48.116c-3.92,8.979-8.979,17.471-13.726,26.072
		c-1.053,1.907-2.364,4.329-5.351,3.653c-4.411-0.996-8.811-2.057-13.176-3.235c-0.821-0.222-1.798-0.972-2.128-1.729
		c-3.09-7.076-0.116-12.431,7.397-14.383c2.019-0.524,4.657-2.137,5.311-3.885c4.224-11.297,5.834-22.653-1.465-33.545
		c-0.486-0.725-0.718-1.818-0.631-2.695c0.698-6.978-3.229-10.002-8.927-7.53c-0.115-0.034-0.226-0.075-0.339-0.112
		c-1.489,0.378-3.062,0.561-4.732,0.587c-2.17,0.034-4.21,0.488-6.265,0.891c-0.001,0.001-0.002,0.002-0.003,0.003
		c-0.307,0.305-0.643,0.562-0.999,0.782c-0.161,0.119-0.324,0.23-0.489,0.328c-0.202,0.119-0.421,0.199-0.636,0.29
		c-0.717,1.477-1.64,3.38-2.5,5.153c-4.425-3.784-8.872-7.589-13.511-11.557c-0.355-0.095-0.712-0.18-1.072-0.248
		c-0.614-0.11-1.228-0.207-1.844-0.302c-1.175-0.181-2.317-0.396-3.433-0.767c-7.677-0.092-12.96,3.495-17.655,8.967
		c-5.698,6.642-6.876,14.642-6.43,22.816c0.501,9.187,5.354,13.604,14.539,14.562c1.224,0.128,2.446,0.479,3.662,0.451
		c3.167-0.071,3.416,1.787,2.775,4.113c-4.853,17.615-9.288,35.365-14.803,52.772c-3.174,10.016-8.732,19.263-12.104,29.232
		c-3.861,11.414-9.162,22.002-15.412,32.172c-16.618,27.042-38.092,50.11-60.015,72.788c-0.721,0.746-2.137,1.142-3.236,1.156
		c-21.183,0.3-42.367,0.546-63.55,0.748c-32.394,0.309-64.788,0.558-97.181,0.883c-4.306,0.043-8.609,0.38-12.914,0.58v5.175
		c56.449-0.485,112.897-0.97,170.292-1.463c-21.624,21.719-42.311,42.928-65.167,61.925c-22.867,19.006-47.38,35.643-72.626,51.899
		c4.761,1.379,9.319,2.244,13.889,2.305c24.228,0.322,48.458,0.446,72.688,0.633c28.684,0.22,57.367,0.499,86.051,0.611
		c8.851,0.035,17.704-0.597,26.555-0.564c14.398,0.053,28.807,0.867,43.188,0.484c12.758-0.339,25.493-1.777,38.223-2.906
		c8.894-0.788,13.069-6.303,12.402-15.347c-0.955-12.972-1.566-25.968-2.516-38.939c-0.761-10.403-2.114-20.769-2.632-31.181
		c-0.449-9.037-0.093-18.115-0.093-26.763c4.575,0,9.602-0.067,14.626,0.015c10.218,0.165,20.434,0.424,30.651,0.613
		c1.864,0.034,3.339,0.127,3.377,2.696c0.103,6.839,0.964,13.712,0.489,20.499c-0.361,5.164,1.357,9.092,4.539,12.515
		c2.821,3.035,3.912,6.431,3.802,10.375c-0.191,6.878-0.539,13.753-0.635,20.633c-0.115,8.106-0.09,16.216-0.013,24.323
		c0.04,4.21-1.983,6.851-5.6,8.729c-6.383,3.314-13.288,2.999-20.129,3.176c-4.527,0.117-8.837,4.165-8.899,8.501
		c-0.075,5.27,2.994,8.423,8.537,8.382c4.163-0.031,8.321-0.584,12.485-0.65c7.383-0.119,14.792,0.301,22.148-0.161
		c6.081-0.382,12.767,0.357,17.208-5.56c0.427-0.568,1.5-0.784,2.312-0.909c11.387-1.76,22.762-3.608,34.18-5.131
		c4.275-0.569,7.254-2.58,8.625-6.427c1.438-4.037,0.153-7.76-2.779-10.856c-1.348-1.423-3.065-2.588-4.098-4.2
		c-4.624-7.227-6.244-15.047-4.637-23.608c2.214-11.797,1.271-23.313-6.695-32.819c-7.133-8.512-5.396-18.822-8.125-28.625
		c2.353,0,3.941-0.009,5.529,0c83.394,0.459,166.788,0.921,250.182,1.369c1.719,0.009,3.55,0.2,5.117-0.325
		c0.913-0.306,1.964-1.889,1.927-2.859C866.155,625.741,864.857,624.711,863.887,624.127z M563.243,260.919
		c0.122-2.19,0.447-4.368,0.682-6.552c0.22-0.29,0.44-0.581,0.659-0.871c2.918,6.375,6.889,5.697,11.395,2.699
		c0.502-0.334,1.99,0.292,2.68,0.876c1.281,1.083,2.311,2.464,3.509,3.792c2.146-1.385,4.054-2.616,6.581-4.246
		c-0.52,3.525-0.694,6.403-1.465,9.112c-0.313,1.103-1.948,2.645-2.929,2.607c-5.594-0.21-11.183-0.736-16.751-1.358
		C564.111,266.587,563.067,264.06,563.243,260.919z M559.878,264.218c0.462,3.554,2.668,5.585,5.968,6.571
		c7.612,2.274,15.244,3.421,23.051,0.757c0.75-0.255,1.94,0.472,2.814,0.948c4.589,2.497,9.142,5.06,13.784,7.644
		c-1.374,0.47-3.203,1.083-5.024,1.722c-2.973,1.042-3.648,3.097-1.198,4.749c4.225,2.85,6.003,6.796,7.082,11.55
		c0.479,2.113,2.337,3.915,3.061,6.411c-0.862-0.884-1.635-1.889-2.613-2.616c-0.881-0.654-2.012-1.389-2.986-1.33
		c-0.518,0.032-1.337,1.675-1.337,2.59c0.001,7.226-2.593,13.664-5.753,19.958c-0.827,1.646-1.771,3.259-2.377,4.985
		c-1.749,4.979-4.323,9.055-9.864,10.484c-0.985,0.254-1.807,1.142-3.824,2.481c-3.05-5.774-5.921-11.071-8.605-16.461
		c-0.348-0.699,0.088-1.962,0.481-2.816c0.656-1.43,1.874-2.648,2.32-4.118c1.143-3.758-1.139-6.627-5.068-6.557
		c-1.818,0.033-3.632,0.314-4.695-0.107c-3.496-4.631-6.351-10.014-10.664-13.682c-4.339-3.689-10.129-5.672-15.878-8.717
		C537.513,282.037,548.211,266.958,559.878,264.218z M546.838,351.223c-2.908,0.392-5.051-1.144-5.953-4.317
		c-0.438-1.542-1.76-2.832-2.982-4.691c2.59-1.34,5.384-2.786,8.178-4.231c-3.225-0.148-6.05,3.379-9.463,0.35
		c6.24-5.772,7.885-10.983,4.878-15.924c-1.744,0.624-3.529,1.385-5.384,1.892c-1.765,0.482-3.603,0.698-6.265,1.188
		c5.497-10.515,8.979-20.559,8.598-32.158c7.824,1.569,13.143,5.799,17.027,11.644c2.098,3.157,3.324,6.954,4.585,10.586
		c1.229,3.54,2.205,3.9,4.947,1.636c1.387-1.146,3.257-1.705,4.908-2.53c0.411,0.383,0.821,0.766,1.231,1.149
		c-1.229,2.029-2.327,4.153-3.717,6.066c-1.91,2.63-3.744,5.144-1.207,8.719c0.896-1.63,1.632-2.97,2.068-3.766
		c3.045,5.246,6.177,10.642,9.803,16.888c-3.685,1.286-7.652,3.068-11.811,4.029C559.872,349.234,553.359,350.344,546.838,351.223z
		 M568.572,359.587c-0.39-2.514-0.779-5.024-1.247-8.044c2.514-0.681,4.894-1.326,7.551-2.045
		C575.328,357.392,574.526,358.619,568.572,359.587z M518.44,456.483c7.824-7.677,13.113-16.854,17.483-26.632
		c7.462-16.698,13.647-34.001,23.55-49.526c2.642-4.141,5.489-8.185,8.585-11.995c4.565-5.615,10.257-5.828,15.173-0.493
		c6.901,7.489,10.4,16.464,11.107,26.655c0.73,10.525,1.804,21.027,2.714,31.541c0.106,1.224,0.203,2.456,0.184,3.683
		c-0.262,16.13-0.554,32.26-0.821,48.39c-0.222,13.347-4.268,25.848-8.517,38.293c-0.25,0.734-1.291,1.589-2.062,1.697
		c-9.846,1.388-19.718,3.023-29.611,0.559c-1.313-0.327-2.744-1.5-3.46-2.682c-3.085-5.093-5.497-10.389-4.769-16.683
		c0.336-2.915,1.464-4.348,4.208-5.596c11.25-5.116,20.52-12.574,23.548-25.171c3.141-13.063,4.022-26.442,3.16-39.889
		c-0.433-6.741-0.907-13.479-1.379-20.218c-0.038-0.555-0.207-1.1-0.314-1.65c-0.311,0.051-0.621,0.102-0.931,0.152
		c0,5.275,0.125,10.554-0.027,15.823c-0.29,9.956-0.539,19.919-1.17,29.855c-1.007,15.885-14.946,35.367-33.919,38.065
		c-11.664,1.659-21.838-1.407-29.238-11.009c-0.792-0.645-1.487-1.448-2.031-2.475c-1.517-2.86-1.294-6.209-0.128-9.137
		C510.257,462.995,515.001,459.857,518.44,456.483z M591.222,524.336c-7.205,3.316-14.675,3.266-22.122,3.177
		c-2.929-0.035-5.923-0.179-8.752-0.847c-1.663-0.394-3.06-1.915-4.298-3.392c11.579,0.836,22.864,2.602,34.28-1.121
		C590.545,522.681,590.851,523.428,591.222,524.336z M512.693,454.588c-0.756,2.271-1.77,2.958-4.115,2.357
		c-4.638-1.187-9.351-2.209-14.095-2.794c-2.715-0.335-5.555,0.489-8.333,0.441c-0.922-0.016-2.234-0.915-2.672-1.768
		c-3.236-6.3-6.282-12.696-9.42-19.045c-1.286-2.604-2.653-5.168-3.989-7.761c4.987-2.228,4.34-1.859,6.812,2.482
		c3.92,6.886,8.636,13.35,13.4,19.703c1.166,1.556,3.732,2.359,5.812,2.875C501.508,452.422,507.013,453.413,512.693,454.588z
		 M506.52,477.182c-0.018,0.043-0.037,0.087-0.053,0.13c-0.062-0.031-0.125-0.063-0.188-0.095c-1.485,0.038-3.266-0.299-3.358-1.993
		c-0.185-3.376,0.836-6.65,0.724-9.973c-0.001-0.036,0.011-0.062,0.016-0.094c-0.03-0.141-0.003-0.294,0.131-0.427
		c0.625-0.62,2.298-0.391,3.104-0.479c0.024-0.003,0.043,0.009,0.065,0.01c0.251-0.121,0.618-0.065,0.75,0.273
		c0.92,2.372,0.811,5.53,0.445,8.32C508.3,474.98,507.988,476.977,506.52,477.182z M493.395,476.084
		c-3.707,0.327-7.272,1.183-10.965,0.157c0.225,0.062,3.727-1.267,4.252-1.381c1.581-0.342,2.996-0.855,4.468-1.496
		c0.638-0.278,0.604-0.989,0.248-1.448c-1.854-0.008-3.715-0.206-5.59-0.236c-2.255-0.037-4.798,0.775-6.915-0.247
		c-0.258-0.124-0.293-0.361-0.211-0.564c0.027-0.221,0.176-0.405,0.464-0.367c2.626,0.352,5.408-0.244,8-0.688
		c1.649-0.281,3.296-0.558,4.879-1.092c0.261-0.531,0.033-1.312-0.614-1.435c-2.111-0.402-4.221-0.65-6.35-0.952
		c-0.62-0.089-5.655-0.627-2.434-0.883c3.578-0.283,7.003,0.538,10.272-1.338c0.76-0.437,0.584-1.59-0.239-1.827
		c-0.533-0.154-1.069-0.285-1.605-0.422c-0.402-0.065-0.806-0.123-1.203-0.208c-1.282-0.273-2.555-0.661-3.875-0.656
		c-0.645,0.002-0.645-0.998,0-1c1.422-0.005,2.755,0.438,4.141,0.692c1.352,0.248,2.719,0.433,4.075,0.658
		c0.122,0.021,0.201,0.078,0.26,0.148c0.022-0.01,0.047-0.016,0.068-0.026c2.252,0.688,4.328,1.609,5.543,3.42
		c1.513,0.971,2.479,2.242,1.772,4.203c-0.935,2.594,0.493,6.321-3.746,7.506c-0.512,0.143-0.997,0.375-1.47,0.636
		c-0.966,2.098-3.131,3.646-4.792,5.116c-0.34,0.301-0.816,0.087-0.854-0.354c-0.101-1.194,0.967-1.893,1.693-2.671
		c0.758-0.812,1.128-1.852,1.469-2.902C493.946,476.208,493.673,476.06,493.395,476.084z M500.221,460.884
		c0.165-0.416,0.329-0.831,0.494-1.247c2.161,0.149,4.323,0.299,6.484,0.447c0.111,0.366,0.222,0.732,0.333,1.099
		c-1.379,0.621-2.75,1.688-4.143,1.717C502.347,462.922,501.277,461.604,500.221,460.884z M507.28,426.559
		c-2.208,2.951-7.899,3.012-11.921-0.163c6.387-6.922,11.158-14.511,12.521-24.163C511.09,407.593,510.583,422.142,507.28,426.559z
		 M504.335,386.208c4.514,0,4.514,7,0,7S499.821,386.208,504.335,386.208z M492.619,387.642c1.341-0.298,3.157,0.643,4.507,1.444
		c5.494,3.261,6.801,9.432,2.9,13.554c-0.944,0.998-2.325,1.583-2.882,1.948c-3.186,0.052-8.044-5.444-8.69-8.814
		C487.858,392.667,489.825,388.264,492.619,387.642z M486.213,411.257c0.7-1.64,0.931-3.479,1.405-5.359
		c7.071,5.6,8.94,5.785,16.286,1.243c-2.117,5.728-4.31,10.517-7.945,14.57c-0.41,0.456-0.908,0.832-1.319,1.288
		c-4.011,4.442-2.997,7.505,3.77,9.965c-4.667,3.857-2.881,8.992-3.447,14.151c-5.595-3.803-8.881-8.959-12.321-13.95
		c-0.897-1.302-1.529-2.798-2.193-4.245c-2.464-5.374-2.216-5.176,1.629-9.6C484.005,417.103,485.024,414.04,486.213,411.257z
		 M452.567,421.488c-4.864-0.239-7.068-3.835-8.235-7.836c-3.656-12.538,3.271-25.696,12.931-29.411
		c5.691-2.189,12.105-0.282,17.269,5.52c3.662,4.114,5.572,8.892,6.575,14.152c0.819,4.288-1.926,11.13-5.624,14.068
		c-0.847-2.104,1.1-5.488-3.225-6.309c-0.488,1.604-1.047,3.184-1.448,4.803c-0.76,3.074-2.422,5.058-5.807,5.068
		C460.857,421.557,456.704,421.691,452.567,421.488z M502.107,721.479c0.009,1.229-0.235,2.472-0.129,3.688
		c0.616,7.123-2.025,9.211-9.885,11.208c-4.697,1.193-9.747,1.098-14.65,1.356c-11.406,0.601-22.814,1.336-34.229,1.509
		c-10.578,0.16-21.166-0.507-31.75-0.501c-10.7,0.006-21.4,0.624-32.098,0.544c-12.791-0.096-25.577-0.692-38.367-0.993
		c-29.39-0.689-58.77-1.736-88.183-1.051c-9.454,0.221-18.934-0.636-28.55-1.005c0.181-0.408,0.23-0.864,0.46-0.989
		c26.69-14.625,50.856-32.821,73.554-52.927c37.292-33.033,72.122-68.525,103.958-106.876
		c23.018-27.728,38.346-59.588,49.246-93.712c5.672-17.76,11.138-35.585,13.272-54.221c0.059-0.511,0.518-0.976,1.192-2.183
		c1.173,2.391,2.037,4.204,2.945,5.994c3.829,7.545,7.44,15.217,11.667,22.531c1.067,1.848,4.083,2.616,6.269,3.755
		c0.709,0.369,1.438,0.699,2.174,1.018c-2.732-0.453-5.589-0.566-6.073,1.192c-0.457,1.66,1.354,2.632,3.511,3.25
		c-3.355-0.009-6.967-0.071-7.944,2.057c-0.201,0.438-0.164,0.842,0.156,1.212c1.287,1.488,4.031,2.032,6.723,2.324
		c-2.102,0.107-4.213-0.054-6.406,0.286c-1.235,0.191-3.329,1.056-2.359,2.711c0.827,1.411,2.93,1.938,5.311,2.088
		c-0.872,0.357-1.634,0.821-2.191,1.467c-0.222,0.258-0.384,0.628-0.257,0.974c1.166,3.162,5.92,2.966,9.789,2.466
		c0.466-0.141,0.926-0.305,1.38-0.5c0.406-0.175,1.007,0.224,0.684,0.684c-0.748,1.066-2.181,2.884-1.763,4.281
		c0.739,2.472,3.622,0.339,5.115-0.016c0.032-0.008,0.058-0.001,0.087-0.003c0.394-0.258,0.781-0.523,1.153-0.784
		c-0.241,2.082-0.618,4.234-0.615,6.389c0.023,15.471,0.221,30.941,0.204,46.41c-0.009,8.121-0.612,16.248-0.443,24.361
		c0.166,7.896,0.975,15.78,1.499,23.67c0.057,0.858,0.144,1.717,0.147,2.575c0.036,10.821-0.186,21.651,0.142,32.464
		c0.536,17.698,1.247,35.396,2.258,53.074c0.391,6.842,2.276,13.601,2.638,20.441C502.272,701.605,502.037,711.551,502.107,721.479z
		 M500.906,621.344c0-17.185,0.122-33.645-0.053-50.101c-0.084-7.819-0.863-15.629-1.091-23.45
		c-0.222-7.629-0.181-15.268-0.184-22.901c-0.005-13.65,0-27.301,0.128-40.949c0.015-1.638,0.818-3.27,1.257-4.904
		c2.567,0.765,5.622,0.909,7.58,2.448c2.516,1.977,3.788,5.494,6.234,7.609c7.495,6.478,16.611,8.188,26.198,7.538
		c3.207-0.218,3.948,0.61,3.26,3.641c-1.069,4.714,0.996,8.828,2.659,13.102c2.159,5.546,3.852,11.283,5.5,17.01
		c0.302,1.052-0.247,2.679-0.951,3.637c-3.76,5.12-7.634,10.158-11.587,15.131c-2.627,3.304-2.343,4.687,1.63,5.916
		c1.501,0.465,3.066,0.727,4.735,1.111c0.77,21.811,1.536,43.519,2.299,65.163H500.906z M545.682,552.435
		c3.469-6.716,6.555-12.893,9.889-18.932c0.534-0.967,2.172-1.842,3.321-1.868c6.737-0.157,13.523,0.415,20.208-0.189
		c4.618-0.418,9.282-1.909,13.579-3.737c2.903-1.235,4.94-0.003,6.753,1.175c4.526,2.939,8.968,6.139,10.371,11.956
		c0.319,1.326,1.405,2.467,2.672,4.585C590.189,552.927,567.621,551.338,545.682,552.435z M555.116,647.202
		c-0.583-12.396,0.086-24.971-1.79-37.16c-2.473-16.069-0.99-32.181-2.503-48.203c-0.441-4.676,0.73-5.163,5.404-5.337
		c14.86-0.55,29.706-1.489,44.557-2.282c0.468-0.025,0.934-0.085,1.524-0.14c1.363,3.325,0.897,6.43-0.669,9.304
		c-3.166,5.81-6.625,11.46-9.748,17.291c-1.722,3.214-3.486,6.536-4.401,10.026c-3.415,13.023-7.153,26.019-9.483,39.251
		c-1.99,11.296-0.935,22.796,2.059,34.025c1.739,6.521,3.709,13.094,4.328,19.759c0.399,4.291-0.877,9.016-2.446,13.148
		c-2.562,6.739-6.03,13.129-8.991,19.723c-0.676,1.504-0.845,3.236-1.264,4.929c-0.03,0.021-0.124,0.146-0.23,0.159
		c-8.246,1.027-8.328,1.025-8.226-7.131c0.149-12.052,0.511-24.103,0.608-36.155c0.033-4.172-0.175-8.393-0.821-12.505
		c-0.318-2.029-1.45-4.358-2.97-5.688C555.985,656.658,555.342,652.016,555.116,647.202z M574.918,740.997
		c-5.968,1.242-12.085,1.768-18.14,2.598c-0.029-0.174-0.057-0.347-0.086-0.521c-7.838,0-15.678-0.073-23.514,0.036
		c-3.07,0.043-5.097-0.907-5.161-4.218c-0.061-3.204,2.333-5.212,5.501-5.577c7.139-0.821,14.249-1.902,21.363-2.936
		c0.953-0.139,2.156-0.338,2.737-0.973c4.139-4.518,9.688-2.535,14.6-3.164c3.52-0.451,8.025,3.855,8.635,7.407
		C581.351,736.545,578.936,740.161,574.918,740.997z M583.126,725.045c-2.153,0.227-5.209-1.9-6.701-3.841
		c-0.96-1.249,0-4.149,0.439-6.238c0.295-1.401,1.226-2.661,1.801-4.014c3.32-7.812,10.487-13.863,9.869-23.476
		c0.528,0.052,1.058,0.104,1.586,0.154c3.874,8.051,7.748,16.1,11.621,24.15c0.266,0.553,0.497,1.125,0.788,1.664
		c2.672,4.949,2.852,5.671-2.413,7.681C594.717,723.186,588.877,724.439,583.126,725.045z M625.634,724.826
		c-0.037,2.018-2.582,4.97-4.688,5.766c-4.533,1.713-9.448,2.604-14.284,3.281c-6.652,0.931-13.377,1.352-20.258,2.009
		c-0.509-2.366-1.021-4.752-1.59-7.398c3.524-0.766,7.305-1.197,10.793-2.447c4.093-1.467,8.037-3.449,11.85-5.563
		c4.419-2.452,9.133-3.115,13.635-1.457C623.159,719.777,625.67,722.847,625.634,724.826z M609.529,662.627
		c2.047,2.391,2.839,6.314,3.148,9.643c0.8,8.557,0.797,17.188,1.558,25.749c0.352,3.949,1.687,7.818,2.686,11.696
		c0.354,1.372,1.034,2.659,1.702,4.326c-4.019,0.598-7.574,1.126-10.396,1.545c-4.857-10.41-8.687-20.827-14.309-30.166
		c-9.444-15.691-13.312-32.247-10.978-50.254c1.15-8.876,3.126-17.645,4.334-26.515c0.93-6.822,1.585-13.641,5.745-20.359
		c0.721,5.233,1.252,9.932,2.032,14.59c2.386,14.235,4.693,28.488,7.395,42.666C603.605,651.626,605.196,657.565,609.529,662.627z"
		/>
	<path fill-rule="evenodd" clip-rule="evenodd" d="M305.993,22.318c2.513,1.898,5.208,3.6,7.512,5.725
		c24.621,22.714,49.189,45.486,73.747,68.269c4.603,4.27,4.413,6.271-0.112,10.447c-17.733,16.368-35.302,32.916-53.125,49.186
		c-5.977,5.457-12.396,10.459-18.857,15.348c-6.849,5.181-14.745,5.579-22.853,3.877c-9.847-2.066-18.107-6.947-24.429-14.748
		c-7.25-8.946-5.763-21.079,3.756-27.56c11.656-7.937,20.52-8.988,33.839,0.495c6.631-6.029,13.319-12.11,20.286-18.444
		c-9.75-6.063-19.25-11.572-26.011-22.327c-5.235,5.628-9.972,11.136-15.149,16.191c-8.25,8.057-17.426,14.755-28.792,17.927
		c-13.808,3.854-25.777-0.514-32.667-13.061c-2.824-5.142-4.735-11.12-5.591-16.935c-1.459-9.904,3.232-17.409,11.746-22.375
		c9.543-5.566,19.192-5.126,28.75,0.131c0.537,0.295,1.034,0.664,1.552,0.996c0.513,0.328,1.028,0.652,2.018,1.28
		c4.038-4.424,8.192-8.752,12.092-13.299c6.732-7.847,13.511-15.669,19.863-23.819c3.362-4.314,5.86-9.301,8.762-13.975
		c0.7-1.128,1.456-2.222,2.186-3.331C305.007,22.318,305.5,22.318,305.993,22.318z M264.648,79.576
		c0.977,1.441,1.905,2.743,2.759,4.091c1.056,1.666,1.276,3.586-0.733,4.332c-0.948,0.352-3.083-0.589-3.707-1.565
		c-5.537-8.67-13.746-11.053-23.312-10.131c-8.065,0.777-15.681,7.305-16.447,14.21c-1.298,11.71,2.343,21.786,11.645,29.112
		c2.865,2.256,7.05,3.447,10.775,3.878c8.327,0.964,15.596-2.592,22.434-6.918c11.205-7.088,20.761-16.159,30.116-25.444
		c2.674-2.654,4.802-2.533,7.109,0.603c1.454,1.974,2.743,4.226,4.619,5.701c5.694,4.479,11.557,8.758,17.513,12.885
		c4.194,2.907,4.712,5.243,0.907,8.646c-7.155,6.4-14.524,12.56-21.726,18.909c-1.891,1.667-3.213,0.874-4.818-0.354
		c-8.676-6.635-16.67-6.99-25.931-1.242c-8.441,5.239-9.99,14.932-3.368,22.389c2.011,2.265,4.473,4.215,6.985,5.932
		c11.077,7.568,22.688,9.867,33.565,1.277c4.634-3.66,9.212-7.416,13.558-11.408c16.958-15.581,33.81-31.277,50.709-46.922
		c2.121-1.963,4.286-3.879,6.606-5.976c-25.977-24.032-51.593-47.733-77.049-71.284C294.595,48.715,279.692,64.227,264.648,79.576z"
		/>
	<path fill-rule="evenodd" clip-rule="evenodd" d="M707.437,167.969c5.269-4.825,10.58-9.688,15.549-14.239
		c-7.008-5.746-13.672-11.209-20.27-16.619c-6.355,5.657-13.229,12.173-20.562,18.123c-3.371,2.736-7.479,4.757-11.534,6.42
		c-13.445,5.516-25.874,0.205-31.391-13.298c-2.298-5.625-3.944-11.45-1.692-17.56c4.55-12.341,19.594-17.242,31.696-10.339
		c0.848,0.484,1.65,1.047,3.068,1.953c4.303-4.899,8.799-9.729,12.964-14.831c6.058-7.419,12.359-14.711,17.655-22.659
		c4.914-7.374,4.47-7.804,11.013-1.748c19.877,18.397,39.694,36.856,59.52,55.309c2.993,2.786,2.94,4.928-0.052,7.721
		c-14.847,13.856-29.623,27.79-44.588,41.518c-4.426,4.061-9.176,7.853-14.15,11.217c-9.107,6.158-18.457,3.716-27.251-0.727
		c-3.83-1.935-7.281-5.134-10.102-8.444c-5.843-6.859-4.729-16.51,2.538-21.815C690.571,160.122,697.945,161.274,707.437,167.969z
		 M675.111,125.29c0.195,0.282,0.654,0.862,1.022,1.497c0.895,1.542,2.601,3.357,0.146,4.599c-0.707,0.357-2.879-1.15-3.723-2.29
		c-2.642-3.566-6.143-5.589-10.309-6.676c-8.829-2.303-18.851,2.286-20.462,9.972c-1.938,9.246,1.008,17.367,7.898,23.758
		c6.296,5.84,13.685,4.9,20.773,1.885c12.394-5.27,21.656-14.794,31.015-24.051c2.242-2.218,4.114-1.963,5.464,0.137
		c4.439,6.908,11.292,10.85,17.835,15.203c3.749,2.495,4.072,4.402,0.683,7.46c-5.482,4.945-11.164,9.668-16.696,14.56
		c-1.642,1.451-2.864,1.162-4.509-0.078c-7.188-5.419-13.654-5.522-21.087-0.534c-5.972,4.008-7.357,11.546-2.69,16.984
		c4.129,4.811,9.339,8.068,15.566,10.005c6.431,2,11.773,0.335,16.939-3.186c1.316-0.898,2.55-1.94,3.729-3.017
		c14.999-13.694,29.988-27.402,44.965-41.121c2.851-2.611,5.643-5.287,8.576-8.042c-20.745-19.268-41.198-38.265-60.977-56.634
		C697.856,98.944,686.626,111.952,675.111,125.29z"/>
	<path fill-rule="evenodd" clip-rule="evenodd" d="M533.621,80.835c4.513,12.778,8.815,25.997,13.857,38.929
		c4.707,12.07,6.388,24.541,5.976,37.267c-0.343,10.622-6.642,18.082-15.844,22.349c-14.278,6.62-29.183,6.052-43.374-0.066
		c-15.665-6.754-19.992-27.458-9.185-40.57c6.958-8.442,15.462-14.026,26.826-14.133c2.387-0.023,3.029-1.035,2.203-3.293
		c-7.65-20.903-15.259-41.822-22.88-62.736c-1.811-4.969-3.746-9.898-5.353-14.933c-0.424-1.329-0.315-3.931,0.386-4.284
		c1.43-0.721,3.736-0.946,5.15-0.269c19.908,9.534,41,14.952,62.677,18.401c1.328,0.211,2.728,0.006,4.045,0.258
		c0.984,0.188,2.549,0.657,2.679,1.256c0.214,0.988-0.191,2.524-0.918,3.229c-2.733,2.65-5.5,5.354-8.625,7.493
		C545.689,73.531,539.867,76.933,533.621,80.835z M490.708,42.14c0.387,1.33,0.629,2.382,0.996,3.39
		c9.747,26.816,19.513,53.625,29.245,80.445c0.542,1.493,1.039,3.063,1.157,4.627c0.072,0.959-0.617,1.976-0.965,2.966
		c-1.025-0.424-2.356-0.577-3.017-1.324c-1.868-2.113-4.015-2.826-6.818-2.845c-10.079-0.069-17.112,5.32-23.192,12.514
		c-8.488,10.043-4.751,27.968,7.438,33.05c13.044,5.438,26.59,6.098,39.853,0.46c7.721-3.282,12.508-9.576,13.059-17.888
		c0.76-11.46-0.273-22.858-4.525-33.763c-3.081-7.902-5.98-15.875-8.882-23.846c-2.146-5.895-4.244-11.809-6.187-17.772
		c-0.559-1.716-1.467-3.718,1.322-4.915c4.474-1.92,9.002-3.842,13.152-6.352c4.184-2.53,7.934-5.776,11.874-8.708
		C532.681,57.847,511.253,52.328,490.708,42.14z"/>
	<path fill-rule="evenodd" clip-rule="evenodd" d="M845.24,246.318c-3.172,7.129-8.241,11.492-13.692,15.884
		c4.452,7.118,9.132,14.014,13.174,21.266c2.779,4.985,4.812,10.408,6.938,15.73c4.323,10.828-2.797,19.784-12.529,22.811
		c-3.706,1.152-7.693,1.742-11.58,1.9c-9.188,0.372-15.86-4.396-17.833-12.234c-1.652-6.569,2.934-15.81,9.808-19.464
		c2.017-1.071,4.24-1.75,6.809-2.786c-3.361-5.303-6.612-10.465-9.897-15.604c-5.483-8.578-11.02-17.122-16.439-25.74
		c-0.572-0.91-0.506-2.22-0.735-3.344c1.155-0.208,2.384-0.781,3.457-0.568c13.191,2.621,26.463,3.478,39.861,2.158
		C843.152,246.269,843.734,246.318,845.24,246.318z M831.98,294.54c-6.686-2.224-10.761-1.271-14.723,2.77
		c-4.814,4.912-6.337,10.724-4.133,15.784c2.497,5.734,7.446,8.677,14.746,8.069c4.003-0.333,8.062-1.161,11.868-2.445
		c6.869-2.316,11.103-8.307,10.131-14.144c-1.198-7.204-3.517-13.996-7.748-20.142c-4.52-6.567-8.574-13.455-12.882-20.171
		c-1.156-1.803-0.905-2.532,1-3.991c4.073-3.119,7.578-6.979,11.345-10.562c-13.435-0.899-26.008-1.741-38.443-2.572
		C811.992,262.651,823.508,277.116,831.98,294.54z"/>
	<path fill-rule="evenodd" clip-rule="evenodd" d="M594.25,303.729c-4.968,0.623-9.117-1.176-13.061-3.662
		c-9.138-5.76-9.145-5.75-19.245-4.818c4.279-4.442,10.885-4.955,16.126-1.277c2.61,1.832,5.173,3.749,7.897,5.394
		C588.635,300.975,591.482,302.287,594.25,303.729z"/>
	<path fill-rule="evenodd" clip-rule="evenodd" d="M553.879,284.834c-0.685-3.868,2.088-5.391,4.64-6.812
		c6.157-3.429,11.526-1.515,18.916,6.795c-0.997,0.167-1.734,0.441-2.432,0.363c-0.698-0.079-1.378-0.468-2.029-0.794
		c-3.2-1.602-6.381-4.469-9.581-4.486C560.398,279.885,557.387,282.882,553.879,284.834z"/>
	<path fill-rule="evenodd" clip-rule="evenodd" d="M595.146,309.338c-5.2,6.677-8.807,8.191-12.938,5.947
		C586.246,313.429,590.478,311.484,595.146,309.338z"/>
	<path fill-rule="evenodd" clip-rule="evenodd" d="M548.448,319.635c-2.248-2.559-4.248-3.962-4.752-5.78
		c-0.25-0.903,2.064-3.376,3.54-3.708c2.542-0.572,5.268,2.288,4.758,4.738C551.71,316.249,550.212,317.36,548.448,319.635z
		 M546.182,311.396c-1.402,5.045-0.726,5.748,4.321,4.674C551.566,312.429,549.167,311.798,546.182,311.396z"/>
</g>
<g id="Layer_2">
	<path fill-rule="evenodd" clip-rule="evenodd" d="M477.634,375.138c0.5-1.032,0.989-2.026,1.251-3.127
		c-0.098-0.393-0.172-0.793-0.253-1.193c-0.427,0.041-0.858,0.079-1.285,0.112c-0.144,1.41-0.774,2.623-1.398,3.875
		C476.515,374.916,477.076,375.027,477.634,375.138z"/>
	<g id="uV3ynZ_2_">
		<g>
			<path fill-rule="evenodd" clip-rule="evenodd" d="M507.487,346.353c-0.249-0.427-0.473-0.861-0.628-1.317
				c-0.208,0.906-0.416,1.808-0.63,2.737c-0.26-0.012-0.487-0.002-0.719,0.005c-0.096,0.038-0.195,0.072-0.315,0.059
				c-0.076-0.007-0.16-0.015-0.239-0.023c-3.116,0.332-3.09,2.661-2.343,5.655c0.218,0.156,0.435,0.248,0.646,0.287
				c-0.461-1.092-0.627-2.365-0.004-3.154c-0.001-0.032-0.008-0.07-0.007-0.102c0.013-0.615,0.223-1.538,0.975-1.651
				c0.348-0.053,0.677,0.033,0.987,0.168c0.564-0.042,1.17,0.002,1.643-0.297C507.521,348.295,507.558,347.314,507.487,346.353z"/>
			<path fill-rule="evenodd" clip-rule="evenodd" d="M456.348,291.285c-1.103,0.735-2.163,1.461-3.129,2.032
				c-0.694,0.409-1.364,0.834-2.028,1.265c-0.522,0.452-1.034,0.925-1.525,1.445c-7.542,7.994-13.624,16.829-14.698,28.478
				c-1.168,12.672,0.176,24.417,5.813,34.193c0.206,0.037,0.404,0.143,0.553,0.35c1.067,1.475,2.345,2.765,3.706,3.969
				c-0.941-1.392-1.779-2.798-2.483-4.064c-1.864-3.349-5.245-8.716-5.812-13.423c-0.093-0.203-0.113-0.438-0.051-0.655
				c-0.053-0.85,0.001-1.669,0.172-2.45c-0.011-1.285-0.002-2.561,0.039-3.825c-0.28-2.935-0.316-5.992-0.07-9.19
				c0.888-11.541,4.842-21.688,12.844-29.18c2.116-2.928,5.034-5.384,8.274-7.201c0.317-0.219,0.634-0.436,0.942-0.633
				c2.558-1.635,5.256-3.068,8.317-3.171c0.675-0.24,1.358-0.463,2.063-0.641c0.042-0.013,0.083-0.031,0.124-0.044
				C464.922,288.774,460.405,289.438,456.348,291.285z"/>
			<path fill-rule="evenodd" clip-rule="evenodd" d="M507.157,320.575c0.001-0.002,0.002-0.003,0.002-0.004
				c0.035-0.175,0.098-0.347,0.159-0.518c-0.009-0.053-0.003-0.112,0-0.171c-0.53,0.242-1.091,0.449-1.689,0.615
				c-0.056,0.144-0.141,0.281-0.289,0.393c-0.047,0.036-0.095,0.071-0.142,0.106c-0.033,0.024-0.089,0.02-0.13,0.037
				c-0.828,1.037-2.113,0.849-3.423,0.825c-0.084-0.002-0.149-0.029-0.221-0.049c-1.417,0.155-2.833,0.322-4.25,0.412
				c-1.606,0.188-3.23,0.283-4.784,0.41c-1.737,0.143-3.346,0.488-4.861,0.975c-7.456,3.904-12.811,11.174-14.655,19.478
				c-1.468,6.605-2.607,18.943,2.683,24.17c0.031,0.03,0.039,0.064,0.064,0.095c-0.05-0.219-0.104-0.435-0.142-0.659
				c-3.512-12.681-1.263-27.516,6.989-37.154c2.381-2.78,6.542-4.981,10.174-5.531c4.281-0.649,8.688-0.494,13.385-0.354
				c0.552-0.246,1.1-0.511,1.634-0.829c0.013-0.008,0.024-0.018,0.037-0.025c-0.399-0.443-0.573-0.969-0.594-1.517
				C507.022,321.07,507.019,320.827,507.157,320.575z"/>
			<path fill-rule="evenodd" clip-rule="evenodd" d="M450.331,340.154c-7.6-16.268,8.788-42.558,25.458-42.15
				C456.816,305.542,450.536,320.318,450.331,340.154z"/>
			<path fill-rule="evenodd" clip-rule="evenodd" d="M468.882,325.693c-1.77-8.355,4.688-17.999,12.852-19.14
				C474.596,311.026,470.311,317.336,468.882,325.693z"/>
		</g>
	</g>
	<path d="M500.179,360.348c-0.224,0.042-0.451,0.082-0.677,0.123c-0.51,2.709-7.495,0.943-10.061,2.326
		c-4.187,0.958-8.272,3.435-7.072,8.124c0.07,0.273,0.231,0.444,0.427,0.532c0.452,1.469,1.156,2.883,1.671,3.85
		c0.194,0.366,0.415,0.756,0.655,1.158c0.381,0.048,0.762,0.088,1.143,0.132c-1.595-1.985-2.644-4.344-2.725-7.093
		c-0.092-3.098,2.575-5.369,5.5-5.5c1.308-0.059,2.576-0.125,3.842-0.085c0.136-0.014,0.27-0.036,0.408-0.04
		c0.387-0.011,0.789-0.114,1.176-0.064c0.113,0.015,0.214,0.027,0.318,0.039c0.993-0.041,1.984-0.1,2.97-0.262
		c2.069-0.34,3.456-1.533,3.493-3.348C500.891,360.27,500.534,360.301,500.179,360.348z"/>
	<path d="M508.181,330.637c0.359-2.547,0.813-5.444-0.379-7.758c-0.256-0.257-0.437-0.542-0.551-0.849
		c-0.052-0.068-0.086-0.142-0.141-0.208c-0.053-0.063-0.113-0.094-0.17-0.136c0.06-0.113,0.106-0.226,0.163-0.339
		c-0.001-0.023,0.003-0.046,0.003-0.069c-0.083-0.208-0.087-0.451,0.051-0.704c0.008-0.014,0.013-0.028,0.021-0.042
		c0.033-0.155,0.093-0.307,0.148-0.459c-0.027-0.129-0.03-0.27,0.029-0.431c0.143-0.391,0.328-0.76,0.514-1.128
		c0.148-1.993,0.37-4.015,0.157-5.964c-0.164-1.494-0.542-2.883-1.039-4.229c-3.251-7.042-10.821-13.033-16.979-15.878
		c-6.631-3.065-13.996-5.325-21.356-5.067c-0.771,0.026-2.303,0.102-3.982,0.324c-0.104,0.05-0.224,0.081-0.363,0.084
		c-0.354,0.008-0.713,0.075-1.071,0.14c-0.185,0.033-0.368,0.069-0.552,0.106c-3.304,0.833-6.729,3.671-9.466,5.287
		c-0.019,0.012-0.037,0.024-0.057,0.035c-0.125,0.123-0.249,0.249-0.388,0.36c-0.857,0.687,0.356,1.885,1.205,1.205
		c1.233-0.988,1.908-2.21,3.375-2.942c0.136-0.068,0.282-0.126,0.422-0.19c0.397,0.605,1.563,0.463,1.563-0.451
		c0-0.067,0.04-0.128,0.062-0.191c0.774-0.25,1.57-0.434,2.352-0.518c0.516-0.056,0.781-0.475,0.805-0.884
		c1.251-0.236,2.703-0.393,4.065-0.498c0.005,0,0.01,0,0.016-0.001c2.065-0.159,3.915-0.194,4.483-0.18
		c2.566,0.067,5.139,0.489,7.675,1.132c0.121,0.016,0.237,0.014,0.359,0.035c0.155,0.026,0.271,0.088,0.365,0.165
		c3.728,1.012,7.367,2.477,10.768,4.048c8.591,3.971,20.507,15.586,15.347,26.037c-0.024,0.065-0.05,0.13-0.091,0.191
		c-0.033,0.062-0.059,0.126-0.092,0.189c-0.263,0.491-0.013,0.952,0.364,1.163c-0.164,0.297-0.185,0.678,0.089,1.005
		c2.632,3.145,0.046,10.264-0.654,13.838c-0.212,1.083-0.359,2.176-0.441,3.265c0.396,2.21,0.829,4.415,1.205,6.628
		c0.084,0.491-0.222,1.139-0.821,1.078c-0.134-0.013-0.278-0.027-0.419-0.041c-0.1,0.026-0.204,0.048-0.306,0.071
		c-0.207-0.084-0.448-0.081-0.698,0.086c-0.091,0.06-0.16,0.124-0.242,0.186c-0.135,0.062-0.259,0.135-0.356,0.232
		c-0.092,0.092-0.141,0.199-0.215,0.297c-0.105,0.123-0.195,0.249-0.273,0.378c-0.006,0.012-0.018,0.024-0.024,0.037
		c-0.404,0.688-0.473,1.473-0.395,2.399c0,0.021-0.002,0.044-0.002,0.065c-0.001,0.188,0.026,0.407,0.048,0.621
		c0.117,2.042-2.352,1.17-3.639,0.485c-0.319-0.434-1.069-0.591-1.456,0.007c-0.208,0.321-0.379,0.683-0.516,1.068
		c0.497,0.327,0.991,0.687,1.515,0.979c0.017-0.067,0.034-0.134,0.052-0.198c0.311,0.137,0.638,0.246,0.969,0.348
		c0.034-0.018,0.071-0.027,0.104-0.048c1.175,0.398,2.448,0.533,3.539,0.018c2.261-1.066,0.104-4.019,1.613-5.285
		c0.224,0.002,0.442,0.013,0.659,0.034c0.295-0.147,0.604-0.245,0.927-0.26c0.605-0.253,1.209-0.75,1.356-1.394
		c0.506-2.212-0.396-4.514-1.065-6.62c0.014-0.162,0.022-0.322,0.05-0.487C506.524,337.413,507.73,333.828,508.181,330.637z"/>
	<path d="M488.582,333.297c-0.177-0.131-0.354-0.258-0.521-0.386c-0.005-0.005-0.005-0.01-0.01-0.015l-0.709-0.709
		c-0.666-0.667-1.926,0.237-1.337,1.032c0.046,0.062,0.094,0.109,0.14,0.166c-0.001,0.003-0.004,0.004-0.007,0.006l0.072,0.072
		c0.505,0.604,1.057,1.008,1.713,1.518c0.115,0.089,0.229,0.665,0.343,1.272c-0.411,0.08-0.822,0.095-1.238-0.083
		c-0.998-0.428-1.867,1.04-0.86,1.471c0.874,0.375,1.69,0.419,2.558,0.246c0.836,1.506,2.399,2.647,4.119,2.852
		c3.089,0.367,8.49-0.521,8.944-4.401C502.665,328.846,491.931,328,488.582,333.297z M489.719,334.671
		c0.008-0.013,0.019-0.019,0.027-0.033c0.565-1.113,1.631-1.946,2.865-2.468c-1.127,2.034-1.088,4.966,0.125,6.79
		c-0.126-0.025-0.253-0.051-0.367-0.081C490.099,338.273,490.183,336.451,489.719,334.671z M496.28,338.957
		c-0.121-0.037-0.252-0.053-0.397-0.033c-3.272,0.458-3.186-7.008-0.058-7.271c0.084-0.008,0.149-0.039,0.221-0.064
		c2.238,0.165,4.161,1.442,4.107,4.153C500.117,337.656,498.273,338.612,496.28,338.957z"/>
	<path d="M479.61,368.338c-2.815-1.659-4.539-4.621-5.537-7.667c-0.339-1.04-1.985-0.595-1.642,0.453
		c0.9,2.75,2.335,5.443,4.497,7.371c-1.065,0.57-1.875,1.191-3.009,1.609c-1.057,0.174-2.181,0.337-3.225,0.48
		c-3.069,0.104-6.21-0.092-9.223-0.696c-6.316-2.094-12.648-5.324-17.048-10.068c-6.659-7.182-6.554-18.47-8.114-27.542
		c-0.186-1.082-1.827-0.622-1.642,0.453c1.388,8.075,1.565,17.486,5.932,24.733c-0.295,0.302-0.405,0.799-0.034,1.197
		c2.2,2.363,4.285,4.945,6.853,6.928c3.19,2.465,6.942,3.921,10.731,5.203c0.847,0.286,1.698,0.509,2.551,0.694
		c0.457,0.217,0.915,0.427,1.389,0.589c2.399,0.037,4.776,0.481,7.188,0.181c0.011-0.001,0.021-0.004,0.032-0.005
		c0.226,0.001,0.451,0.005,0.677,0.005c1.762,0.003,3.209-0.061,4.911-0.457c1.031-0.239,1.821-1.019,2.685-1.635
		c-0.093,0.813-0.161,1.63-0.325,2.433c-0.219,1.073,1.423,1.529,1.642,0.453c0.268-1.314,0.271-2.668,0.568-3.976
		c0.054-0.238,0.005-0.438-0.09-0.605C479.455,368.426,479.533,368.382,479.61,368.338z"/>
	<path fill-rule="evenodd" clip-rule="evenodd" d="M479.728,369.125c-0.242-1.892-3.245-1.915-3,0
		c0.583,4.556-3.081,9.617-6.123,12.627c-1.377,1.362,0.745,3.482,2.121,2.121C476.277,380.36,480.405,374.414,479.728,369.125z"/>
	<path fill-rule="evenodd" clip-rule="evenodd" d="M491.958,381.232c-4.441-2.476-8.259-6.369-8.417-11.732
		c-0.092-3.098,2.575-5.369,5.5-5.5c0.926-0.042,1.832-0.088,2.731-0.098c0.366-0.564,0.106-1.545-0.793-1.589
		c-5.499-0.267-10.136,3.439-8.941,9.039c1.588,7.44,9.073,10.888,13.796,15.793c0.896,0.931,2.309-0.485,1.414-1.414
		C495.597,384.016,493.748,382.666,491.958,381.232z"/>
	<path fill-rule="evenodd" clip-rule="evenodd" d="M498.798,352.822c-0.096-0.166-0.219-0.272-0.352-0.351
		c-0.193-0.428-0.701-0.746-1.166-0.575c-0.3,0.11-0.584,0.164-0.907,0.116c-0.539-0.079-1.072,0.125-1.23,0.699
		c-0.131,0.476,0.158,1.151,0.699,1.23c0.453,0.066,0.894,0.091,1.333,0.032c0.671,1.062,1.729,1.766,2.894,2.208
		c2.29,0.87-0.101,4.074-1.209,5.066c-0.963,0.861,0.456,2.271,1.414,1.414c1.523-1.363,2.976-3.733,2.782-5.827
		C502.814,354.231,499.897,354.726,498.798,352.822z"/>
	<g>
	</g>
	<g>
	</g>
	<g>
	</g>
	<g>
	</g>
	<g>
	</g>
	<g>
	</g>
</g>
</svg>
