<?xml version="1.0" encoding="utf-8"?>
<!-- Generator: Adobe Illustrator 16.0.0, SVG Export Plug-In . SVG Version: 6.00 Build 0)  -->
<!DOCTYPE svg PUBLIC "-//W3C//DTD SVG 1.0//EN" "http://www.w3.org/TR/2001/REC-SVG-20010904/DTD/svg10.dtd">
<svg version="1.0" id="Layer_1" xmlns="http://www.w3.org/2000/svg" xmlns:xlink="http://www.w3.org/1999/xlink" x="0px" y="0px"
	 width="1111px" height="808px" viewBox="0 0 1111 808" enable-background="new 0 0 1111 808" xml:space="preserve">
<g id="IFWVMO_1_">
	<g>
		<path d="M534.897,70.667c4.666,0,9.334,0,14,0c5.357,2.576,10.714,5.151,15.998,7.692c5.287-2.542,10.645-5.117,16.002-7.692
			c4.666,0,9.333,0,14,0c6.347,3.718,9.297,9.778,9.797,16.613c0.64,8.769-2.427,16.294-10.321,21.207
			c-4.354,2.71-8.663,5.492-14.159,8.982c2.347,0.143,3.01,0.246,3.668,0.214c29.93-1.447,59.314,2.269,88.373,9.219
			c24.426,5.842,47.209,15.363,68.685,28.522c22.143,13.568,42.413,29.248,59.716,48.596c4.968,5.554,9.367,11.711,13.382,18.003
			c8.554,13.407,17.24,26.784,24.784,40.76c4.718,8.741,7.452,18.552,11.076,27.882c0,2.667,0,5.333,0,8
			c-0.275,0.397-0.734,0.767-0.799,1.196c-3.115,20.658-6.171,41.326-9.289,61.984c-3.043,20.167-6.117,40.329-9.23,60.485
			c-3.189,20.645-6.495,41.27-9.652,61.92c-3.184,20.816-6.214,41.658-9.374,62.479c-3.533,23.275-6.933,46.574-10.805,69.793
			c-1.764,10.578-3.833,21.205-7.006,31.424c-4,12.881-12.686,21.982-25.771,26.441c-2.497,0.852-4.85,2.121-7.321,3.059
			c-11.776,4.463-23.313,9.834-35.416,13.1c-21.725,5.861-44.021,8.643-66.576,9.205c-6.266,0.158-12.507,1.25-18.76,1.914
			c-50,0-100,0-150,0c-1.434-0.359-2.851-0.939-4.303-1.047c-14.263-1.064-28.571-1.668-42.79-3.146
			c-19.21-1.998-38.209-5.348-56.253-12.625c-9.688-3.908-19.331-7.955-28.815-12.326c-7.651-3.525-13.775-8.514-17.956-16.469
			c-5.132-9.768-7.935-19.92-9.511-30.654c-3.036-20.67-6.219-41.318-9.352-61.975c-3.108-20.494-6.219-40.986-9.351-61.477
			c-3.205-20.977-6.428-41.949-9.659-62.924c-2.852-18.516-5.749-37.025-8.582-55.544c-3.16-20.652-6.223-41.319-9.429-61.964
			c-1.186-7.639-2.659-15.234-4-22.849c0-2.667,0-5.333,0-8c0.358-0.462,0.905-0.873,1.049-1.394
			c5.88-21.381,15.598-41.071,28.404-58.951c12.647-17.658,25.716-34.984,43.004-48.898c26.008-20.933,53.579-38.919,85.598-48.869
			c33.782-10.499,68.362-16.601,103.979-14.878c2.06,0.1,4.128,0.013,6.193,0.013c-4.507-4.049-9.172-7.126-13.918-10.072
			c-6.276-3.896-8.629-10.155-9.129-16.861C524.456,82.441,527.624,75.407,534.897,70.667z M797.093,311.724
			c24.638-0.038,30.387-2.299,42.762-17.748c1.347-1.681,1.911-4.903,1.368-7.037c-4.613-18.156-13.336-34.565-24.755-49.078
			c-12.218-15.529-26.257-29.615-39.3-44.507c-8.271-9.444-18.724-15.881-29.238-22.301c-4.4-2.686-8.923-5.178-13.258-7.962
			c-31.294-20.099-65.594-31.173-102.592-33.787c-18.826-1.33-37.694-2.175-56.558-2.842c-14.582-0.515-29.207-0.957-43.776-0.422
			c-13.601,0.499-27.187,2.049-40.72,3.636c-19.192,2.252-37.994,6.466-56.138,13.207c-21.827,8.109-41.055,21.09-60.802,33.056
			c-4.96,3.005-10.208,6.048-14.1,10.216c-16.236,17.383-32.854,34.525-47.671,53.083c-11.167,13.985-19.375,30.216-23.874,47.88
			c-0.47,1.845-0.396,4.474,0.6,5.944c8.667,12.802,20.788,19.389,36.359,18.562c13.245-0.704,26.663-0.845,39.643-3.216
			c22.417-4.095,43.327-11.873,57.152-31.889c2.053-2.972,4.299-4.019,7.602-0.749c10.677,10.573,23.306,17.677,38.503,19.047
			c14.031,1.266,28.101,2.182,42.172,2.899c18.418,0.939,34.768-5.452,50.384-14.564c2.018-1.178,5.882-1.306,7.836-0.146
			c16.489,9.788,33.859,15.898,53.344,14.743c8.294-0.491,16.605-0.655,24.905-1.046c19.771-0.93,37.938-5.94,52.598-20.275
			c4.115-4.024,5.556-3.683,8.754,1.079c7.218,10.748,17.516,17.845,29.049,22.76C756.342,308.364,776.423,311.841,797.093,311.724z
			 M628.294,690.789c3.04-0.223,9.003-0.656,14.965-1.102c9.778-0.727,19.666-0.785,29.313-2.334
			c19.634-3.152,39.107-7.283,58.705-10.676c13.747-2.379,26.683-6.752,38.592-14.018c9.667-5.896,17.52-13.477,19.836-25.041
			c1.82-9.092,2.826-18.348,4.215-27.527c3.125-20.656,6.066-41.346,9.543-61.943c0.802-4.746-0.104-7.521-4.295-9.631
			c-14.798-7.445-29.782-8.145-45.122-1.744c-7.266,3.031-13.2,7.586-17.758,14.029c-1.307,1.848-4.053,4.594-5.447,1.713
			c-3.416-7.059-10.001-8.951-16.145-11.336c-19.388-7.525-37.79-5.66-54.383,7.418c-7.103,5.6-6.851,5.795-15.228,1.619
			c-15.779-7.865-32.53-11.998-50.105-10.371c-10.534,0.977-19.347,6.578-25.99,15.031c-1.816,2.312-6.556,3.051-7.84,0.627
			c-3.552-6.699-10.182-9.41-16.226-12.666c-10.674-5.75-22.25-3.879-33.167-1.508c-10.098,2.191-19.715,6.629-29.508,10.178
			c-3.264,1.184-6.158,3.002-9.586-0.148c-19.645-18.047-44.275-18.27-66.394-6.121c-2.156,1.184-4.47,2.594-5.889,4.506
			c-3.519,4.744-4.127,5.184-7.321,0.441c-11.007-16.342-39.115-22.533-58.136-13.602c-9.128,4.287-9.188,4.152-8.091,13.77
			c0.113,0.992,0.111,1.998,0.261,2.982c3.932,25.73,7.968,51.447,11.77,77.197c1.34,9.074,3.765,17.43,10.68,24.027
			c11.052,10.547,24.503,16.672,39.024,19.953c18.577,4.195,37.339,7.789,56.183,10.529c18.045,2.623,36.271,4.912,54.466,5.361
			c20.576,0.506,41.206-1.793,61.812-1.783C582.47,688.633,603.908,689.945,628.294,690.789z M637.267,385.405
			c1.046-0.755,1.713-1.25,2.395-1.725c4.676-3.256,6.566-2.58,6.896,3.027c0.197,3.368-0.667,6.798-1.027,9.973
			c11.1,6.97,21.937,14.873,36.456,12.8c0.139,0.656,0.278,1.312,0.418,1.969c-5.024,3.041-10.049,6.082-14.705,8.9
			c2.934,5.512,5.771,10.73,8.5,16.006c2.418,4.672,0.817,7.172-4.479,7.199c-0.775,0.004-1.551,0.107-2.42,0.172
			c-1.372,10.994-4.451,21.135-11.226,29.689c-2.175,2.748-5.213,6.094-8.282,6.605c-8.312,1.383-11.04,6.672-12.504,13.805
			c-0.803,3.91-0.626,6.441,4.111,7.744c10.037,2.76,15.817,9.811,17.529,20.002c1.024,6.096,1.59,12.27,2.409,18.793
			c25.231-14.385,48.864-11.109,71.352,5.447c17.095-19.477,38.539-19.789,61.981-14.092c-2.64-4.064-4.55-7.789-7.173-10.912
			c-12.63-15.039-23.002-31.65-33.942-47.875c-9.846-14.604-19.537-29.328-29.925-43.539c-9.51-13.01-20.883-24.1-36.091-30.691
			c-14.153-6.132-28.33-12.287-42.08-19.251c-14.784-7.488-29.682-14.676-42.661-25.559c-17.54-14.707-30.479-31.785-35.026-54.593
			c-0.346-1.733-1.814-3.243-2.762-4.856c-1.034,1.704-2.352,3.3-3.055,5.131c-3.312,8.634-5.286,18.019-9.89,25.875
			c-11.835,20.196-29.865,34.072-50.176,45.127c-4.231,2.303-8.54,4.479-12.898,6.529c-14.863,6.991-29.918,13.595-44.589,20.966
			c-7.798,3.918-15.909,8.096-22.172,13.975c-8.669,8.139-16.245,17.607-23.357,27.199c-10.285,13.869-20.831,27.748-29.188,42.779
			c-6.48,11.654-14.597,21.734-22.61,32.104c-4.174,5.4-7.779,11.24-12.184,17.674c23.958-5.859,45.344-5.295,62.263,14.018
			c21.038-15.537,43.309-19.518,67.301-7.713c0.413-0.719,0.739-1.115,0.879-1.57c0.244-0.791,0.429-1.607,0.54-2.428
			c1.338-9.906,7.337-16.84,16.191-19.65c6.01-1.908,7.898-5.893,9.949-8.713c-6.345-5.129-13.187-9.041-17.815-14.75
			c-8.751-10.791-12.412-23.762-11.234-37.783c0.992-11.814,4.569-22.914,14.46-30.01c5.976-4.287,10.875-8.066,9.317-17.002
			c3.158,1.105,5.292,2.475,7.378,2.406c2.101-0.07,4.154-1.568,6.644-2.617c0.676,0.547,1.771,1.434,2.834,2.293
			c8.108-5.398,8.709-5.07,9.426,4.312c7.238,2.014,14.381,3.521,21.157,6.023c6.441,2.377,10.23,7.396,9.81,14.645
			c-0.426,7.393-0.848,14.811-1.868,22.135c-0.533,3.82-2.476,7.428-3.54,11.199c-0.547,1.938-1.255,4.242-0.698,6.004
			c1.901,6.004,1.844,6.406-4.486,7.895c-0.827,4.789-5.592,8.029-5.176,13.459c0.06,0.777-3.143,2.549-4.86,2.582
			c-5.354,0.102-10.721-0.408-16.548-0.705c-2.624,4.688-0.46,9.717,2.945,13.814c3.583,4.312,7.471,8.395,14.541,7.436
			c4.253-0.576,9.108,0.816,13.19,2.523c1.895,0.793,2.619,4.434,3.826,6.807c1.643,3.232,2.435,7.537,5.019,9.518
			c5.86,4.492,12.594,7.844,19.172,11.777c9.469-7.637,19.641-14.359,32.889-14.209c1.114,0.014,2.733-2.129,3.303-3.588
			c3.298-8.463,7.432-16.283,14.834-21.961c1.981-1.518,4.52-2.855,5.566-4.908c1.229-2.406,1.107-5.5,1.572-8.297
			c-1.946-0.303-3.898-0.887-5.838-0.848c-4.8,0.096-9.595,0.717-14.389,0.682c-5.047-0.039-10.121-4.477-10.758-9.459
			c-0.162-1.27,1.224-3.104,2.4-4.062c0.909-0.742,2.603-0.52,5.219-0.922c-2.015-0.619-2.774-0.898-3.556-1.084
			c-6.645-1.594-6.761-2.238-3.035-7.926c1.656-2.529,2.457-5.619,4.037-9.383c-6.367,1.844-11.056,4.518-16.364,1.902
			c1.881-3.668,4.258-6.828,5.161-10.367c1.839-7.197,3.168-14.557,4.197-21.92c2.364-16.912,7.372-31.883,25.604-38.056
			c0.756-0.255,1.427-0.758,1.647-0.878c-0.193-3.51-0.362-6.565-0.584-10.571c6.142,2.573,10.895,3.559,14.521-1.549
			C633.962,382.244,635.508,383.723,637.267,385.405z M324.093,532.877c0.476,0.352,0.952,0.703,1.429,1.055
			c0.267-0.812,0.396-1.705,0.819-2.426c10.88-18.492,26.076-33.873,36.807-52.639c9.948-17.396,22.455-33.342,33.987-49.82
			c9.427-13.471,20.082-25.832,35.09-33.347c10.074-5.043,20.611-9.155,30.759-14.061c21.045-10.174,42.34-19.705,60.948-34.487
			c15.316-12.167,23.03-28.056,28.305-46.604c-18.906,5.055-37.596,5.533-56.353,5.062c-4.474-0.112-8.932-0.763-13.406-0.952
			c-20.443-0.861-39.619-4.932-54.186-21.369c-17.409,19.834-39.224,32.093-64.909,34.947c-24.927,2.769-50.553,5.303-73.87-11.498
			C301.171,382.976,312.632,457.928,324.093,532.877z M840.276,306.747c-23.28,16.742-48.744,14.219-73.526,11.526
			c-25.861-2.81-47.783-15.118-64.951-34.598c-4.008,3.305-7.521,6.656-11.473,9.37c-9.977,6.854-21.362,9.739-33.25,10.744
			c-19.525,1.649-39.046,3.647-58.614,0.176c-6.771-1.2-13.651-1.779-20.414-2.633c4.556,24.326,24.602,49.043,50.052,61.234
			c21.69,10.39,43.74,20.073,65.079,31.133c9.429,4.887,19.186,11.002,25.827,19.018c14.176,17.105,26.601,35.686,39.376,53.92
			c6.944,9.91,12.886,20.518,19.741,30.494c6.392,9.301,13.388,18.188,20.134,27.244c2.219,2.979,4.488,5.92,7.281,9.598
			C817.168,457.896,828.625,382.956,840.276,306.747z M630.788,462.025c4.354,4.6,8.487,8.42,11.948,12.775
			c3.428,4.311,6.532,2.453,9.74,0.277c1.335-0.906,2.338-2.344,3.384-3.627c5.129-6.287,6.866-13.881,8.111-21.615
			c0.663-4.125,1.032-8.297,1.602-13.002c3,1.746,5.223,3.041,7.445,4.336c0.48-0.451,0.96-0.904,1.44-1.355
			c-3.971-6.754-7.942-13.506-12.48-21.225c2.765-1.305,6.528-3.08,10.293-4.855c-8.921-0.588-15.257-6.045-22.306-9.938
			c-2.231-1.23-4.854-2.297-7.344-2.408c-5.642-0.252-11.323-0.047-16.966,0.33c-4.006,0.268-7.009-0.357-7.008-5.207
			c-12.587,4.509-22.03,16.386-22.418,28.107c14.987,0.963,21.936,11.869,28.562,22.734c3.549,0.586,7.852,0.965,9.832,3.309
			C637.781,454.395,635.515,458.42,630.788,462.025z M494.963,499.219c0-10.846-0.531-20.621,0.148-30.312
			c0.688-9.824,9.554-24.188,21.735-23.445c4.102,0.25,8.253-0.445,12.386-0.564c6.789-0.195,8.722-1.471,10.33-7.1
			c1.815-6.352,0.548-10.662-5.32-13.316c-5.509-2.492-11.507-3.986-17.395-5.516c-2.485-0.646-5.786-1.598-6.279,3.055
			c-0.071,0.67-2.419,1.482-3.753,1.564c-5.472,0.332-11.165,1.402-16.389,0.324c-6.782-1.4-9.967,2.416-13.342,6.561
			c-9.134,11.221-10.47,24.285-7.381,37.697C472.887,481.992,480.452,492.9,494.963,499.219z M566.048,83.603
			c-6.062-2.521-10.982-5.511-16.271-6.472c-4.42-0.803-10.402-0.796-13.712,1.594c-8.727,6.301-7.669,17.917,1.35,23.897
			c8.274,5.485,16.674,10.783,25.139,15.967c1.107,0.678,3.303,0.785,4.368,0.134c8.895-5.435,17.714-11.003,26.407-16.754
			c4.844-3.205,7.497-10.301,6.004-14.804c-2.605-7.856-6.317-10.829-14.047-10.657C577.657,76.678,570.567,78.549,566.048,83.603z
			 M607.189,473.414c-0.638,7.125-4.493,10.338-10.188,11.703c0.85,4.066,3.226,5.232,6.869,5.582
			c13.796,1.326,24.424-5.479,34.841-12.35c-3.814-5.098-7.306-9.766-10.796-14.43c-0.747,1.402-1.66,3.115-2.732,5.125
			c-1.049-5.117,0.477-8.525,4.407-11.227c1.133-0.777,1.257-3.023,1.844-4.598c-1.767-0.459-3.55-1.326-5.295-1.258
			c-1.504,0.061-2.966,1.186-4.513,1.869c-5.979-11.193-11.784-22.117-25.338-25.893c-2.41,10.98-4.781,21.781-7.19,32.756
			c0.929-0.332,1.825-0.766,2.771-0.969c2.442-0.525,4.907-0.947,7.363-1.41c0.313,2.986,1.129,6.029,0.79,8.941
			c-0.305,2.615-1.877,5.082-3.323,8.697C600.552,475.021,603.461,474.316,607.189,473.414z M603.354,533.732
			c17.562,0.723,33.267,5.035,48.197,12.314c2.993,1.459,4.816-0.762,4.591-3.189c-0.793-8.549-1.003-17.391-3.505-25.48
			c-3.327-10.762-17.836-16.941-26.26-12.219C615.308,511.367,608.863,521.482,603.354,533.732z M498.058,487.021
			c2.777,1.025,5.516,1.449,7.521,2.893c5.143,3.703,10.963,3.537,16.714,3.453c3.982-0.059,4.705-1.893,1.994-4.848
			c-2.713-2.959-1.42-4.309,1.527-5.287c1.388-0.459,2.89-0.578,4.34-0.852c-0.316-0.355-0.632-0.713-0.949-1.068
			c2.028-1.84,4.056-3.68,6.083-5.518c-0.164-4.26,0.598-8.621,1.707-12.891c1.328-5.113,4.327-9.996,2.523-14.439
			c-6.513,0.178-12.214,0.666-17.88,0.404c-7.227-0.336-13.014,2.006-17.336,7.754C497.294,465.943,497.382,476.691,498.058,487.021
			z M512.219,533.576c-2.005-3.119-4.065-7.244-6.971-10.648c-5.959-6.98-20.235-7.881-26.911-1.824
			c-5.059,4.588-8.239,10.385-9.189,17.246c-0.449,3.244,6.306,8.746,9.294,7.645C489.397,541.963,500.356,537.938,512.219,533.576z
			 M517.437,518.76c-11.633-3.703-15.241-15.697-12.862-26.246c-1.785-0.357-3.556-0.713-6.008-1.203
			c1.309,5.418,2.408,9.965,3.743,15.492c-6.765-2.541-9.272,0.928-11.602,5.887c10.791-0.396,17.71,5.115,22.912,14.293
			C515.094,523.809,516.193,521.439,517.437,518.76z M622.127,386.919c-0.638,10.827,0.225,11.711,10.332,10.971
			c1.492-0.109,3.013-0.33,4.482-0.162c3.235,0.367,5.111-0.823,5.432-4.149c0.209-2.17,0.393-4.343,0.719-7.971
			c-5.411,5.999-8.412,2.956-11.451-1.615C629.364,389.121,626.029,389.414,622.127,386.919z M509.806,408.729
			c-4.021,1.055-6.272,6.467-9.854,1.68c-1.565,1.133-2.874,2.08-4.154,3.008c-1.524-1.002-2.83-1.859-4.839-3.18
			c0,3.424-0.84,8.031,0.154,8.469c3.285,1.445,7.231,1.752,10.927,1.773c2.464,0.014,6.112,1.234,6.955-2.809
			C509.554,414.99,509.517,412.184,509.806,408.729z M533.585,533.74c-1.898-3.838-2.716-7.33-4.904-9.305
			c-1.599-1.443-6.171-2.094-7.34-0.957c-2.029,1.971-3.41,5.627-3.319,8.521c0.132,4.186,3.787,1.52,5.889,1.689
			C526.537,533.902,529.192,533.74,533.585,533.74z M626.307,500.119c2.103,0,4.249,0,6.337,0c0.284-2.262,0.417-4.064,0.757-5.828
			c0.358-1.857,0.913-3.678,1.442-5.754C626.142,490.072,625.509,490.943,626.307,500.119z"/>
		<path fill-rule="evenodd" clip-rule="evenodd" fill="#FFFFFF" d="M642.955,415.348c0.188-0.795,0.374-1.592,0.562-2.387
			c-3.604-1.904-7.071-4.152-10.839-5.643c-8.837-3.492-17.008-0.094-20.934,8.484c-0.415,0.908,0.046,2.217,0.101,3.34
			c0.344,0.299,0.687,0.596,1.03,0.895C620.907,406.1,631.953,410.859,642.955,415.348z M646.973,433.357
			c0.285-0.857,0.57-1.715,0.855-2.574c-6.325-2.316-12.509-5.27-19.026-6.729c-4.424-0.99-7.257,3.457-5.424,7.102
			c4.984-4.553,6.388-4.418,12.618-1.229C639.358,431.648,643.295,432.25,646.973,433.357z M654.497,445.777
			c-3.435,1.266-6.87,2.531-10.407,3.836C647.522,453.262,650.799,452.441,654.497,445.777z"/>
		<path fill-rule="evenodd" clip-rule="evenodd" d="M565.038,376.571c1.631-2.532,3.004-4.236,3.918-6.159
			c2.855-6.004,8.145-7.56,14.033-7.564c6.149-0.005,9.53,4.114,11.813,9.237c4.686,10.514,1.82,19.655-5.086,28.175
			c-7.308,9.016-14.415,18.193-21.575,27.326c-2.174,2.771-4.24,2.855-6.439,0.062c-7.283-9.25-14.565-18.498-21.884-27.719
			c-6.009-7.571-9.192-15.774-5.746-25.444c2.03-5.697,4.898-10.991,11.665-11.528c6.646-0.528,12.504,1.291,15.47,8.286
			C561.946,372.986,563.448,374.405,565.038,376.571z M564.899,420.299c7.287-8.484,14.588-17.045,21.959-25.545
			c6.019-6.941,5.514-14.685,2.367-22.414c-0.704-1.73-3.635-3.346-5.697-3.572c-4.742-0.52-8.569,1.845-11.627,5.506
			c-6.932,8.3-6.807,8.139-14.225-0.038c-2.113-2.33-5.189-4.189-8.184-5.228c-5.317-1.843-8.154-0.148-9.78,5.306
			c-2.306,7.729-1.945,14.917,3.943,21.37C550.922,403.646,557.767,411.994,564.899,420.299z"/>
		<path fill-rule="evenodd" clip-rule="evenodd" d="M642.955,415.348c-11.002-4.488-22.048-9.248-30.08,4.689
			c-0.344-0.299-0.687-0.596-1.03-0.895c-0.055-1.123-0.516-2.432-0.101-3.34c3.926-8.578,12.097-11.977,20.934-8.484
			c3.768,1.49,7.235,3.738,10.839,5.643C643.329,413.756,643.143,414.553,642.955,415.348z"/>
		<path fill-rule="evenodd" clip-rule="evenodd" d="M646.973,433.357c-3.678-1.107-7.614-1.709-10.977-3.43
			c-6.23-3.189-7.634-3.324-12.618,1.229c-1.833-3.645,1-8.092,5.424-7.102c6.518,1.459,12.701,4.412,19.026,6.729
			C647.543,431.643,647.258,432.5,646.973,433.357z"/>
		<path fill-rule="evenodd" clip-rule="evenodd" d="M654.497,445.777c-3.698,6.664-6.975,7.484-10.407,3.836
			C647.627,448.309,651.062,447.043,654.497,445.777z"/>
		<path fill-rule="evenodd" clip-rule="evenodd" d="M503.07,426.658c-5.296,3.602-9.546,6.594-13.924,9.385
			c-0.931,0.594-2.33,0.453-3.513,0.65c0.196-1.158-0.018-2.912,0.656-3.375c3.741-2.57,7.597-5.023,11.64-7.068
			C499.146,425.635,501.09,426.457,503.07,426.658z"/>
		<path fill-rule="evenodd" clip-rule="evenodd" d="M495.239,445.031c-8.006,6.033-12.723,12.604-11.444,22.924
			c-4.058-6.445-2.068-11.984,1.592-17.523C487.237,447.633,489.209,444.301,495.239,445.031z"/>
		<path fill-rule="evenodd" clip-rule="evenodd" d="M612.743,449.91c-1.765,1.51-3.483,3.16-5.385,4.564
			c-2.907,2.145-5.255-0.092-6.113-2.084c-0.956-2.219-1.041-5.422-0.1-7.582c0.443-1.018,4.608-1.463,6.313-0.613
			C609.63,445.277,611.017,447.932,612.743,449.91z M607.358,452.227c0.388-1.002,0.776-2.002,1.165-3.004
			c-1.861-0.777-3.681-1.744-5.619-2.176c-0.4-0.088-1.245,1.818-1.885,2.807C603.133,450.645,605.245,451.436,607.358,452.227z"/>
		<path fill-rule="evenodd" clip-rule="evenodd" d="M513.305,462.098c2.49-0.316,4.98-0.633,7.471-0.949
			c-0.014-0.441-0.028-0.885-0.042-1.328c-2.423-0.357-4.846-0.717-7.27-1.074c0.062-0.502,0.124-1.002,0.186-1.502
			c4.441-0.559,8.87-1.406,13.326-1.592c4.345-0.18,7.198,2.674,7.262,6.457c0.072,4.258-2.414,7.467-6.786,7.57
			c-3.438,0.082-6.901-0.922-10.354-1.445c-0.003-0.502-0.007-1.006-0.011-1.508c1.238-0.672,2.477-1.344,3.715-2.016
			c-0.099-0.445-0.199-0.891-0.298-1.334c-2.409,0-4.818,0-7.227,0C513.287,462.949,513.295,462.523,513.305,462.098z
			 M532.955,462.506c-2.496-1.613-4.106-3.422-5.77-3.473c-1.185-0.033-3.665,2.676-3.413,3.496c0.558,1.812,2.478,3.205,3.842,4.77
			C529.092,465.973,530.569,464.646,532.955,462.506z"/>
	</g>
</g>
<g>
</g>
<g>
</g>
<g>
</g>
<g>
</g>
<g>
</g>
<g>
</g>
</svg>
