<?xml version="1.0" encoding="utf-8"?>
<!-- Generator: Adobe Illustrator 16.0.0, SVG Export Plug-In . SVG Version: 6.00 Build 0)  -->
<!DOCTYPE svg PUBLIC "-//W3C//DTD SVG 1.0//EN" "http://www.w3.org/TR/2001/REC-SVG-20010904/DTD/svg10.dtd">
<svg version="1.0" xmlns="http://www.w3.org/2000/svg" xmlns:xlink="http://www.w3.org/1999/xlink" x="0px" y="0px" width="640px"
	 height="960px" viewBox="0 0 640 960" enable-background="new 0 0 640 960" xml:space="preserve">
<g id="Layer_1">
	<path fill-rule="evenodd" clip-rule="evenodd" d="M508.015,861.097c-5.622-8.79-7.593-18.302-5.639-28.716
		c2.692-14.347,1.548-28.354-8.144-39.915c-8.675-10.354-6.562-22.894-9.881-34.816c2.862,0,4.793-0.01,6.725,0
		c49.69,0.274,99.38,0.543,149.07,0.815c-0.277-2.21-0.46-4.436-0.538-6.673c-42.179-0.133-84.357-0.269-126.537-0.398
		c-9.688-0.031-19.373-0.008-29.075-0.008c-0.385-1.814-0.639-2.814-0.806-3.823c-2.048-12.356-3.773-24.772-6.251-37.039
		c-1.281-6.344-1.512-12.12,2.725-17.325c6.79-8.347,11.506-17.451,10.708-28.658c2.661-0.857,5.094-1.553,7.462-2.42
		c3.442-1.262,4.939-3.261,3.584-7.258c-4.109-12.104-11.685-20.667-23.963-24.814c-4.812-1.627-5.898-3.616-4.146-8.367
		c7.402-20.047,10.192-40.786,9.813-62.068c-0.165-9.435,0.135-18.875,0.102-28.311c-0.042-11.047,0.06-22.103-0.43-33.132
		c-0.31-6.99-2.221-13.935-2.283-20.909c-0.105-12.512-4.464-23.704-9.355-34.805c-0.8-1.815-2.432-3.499-4.088-4.653
		c-4.739-3.301-9.69-6.299-14.912-9.644c0.074-0.693,0.229-2.156,0.394-3.618c0.653-5.885,2.636-9.911,9.039-12.59
		c5.69-2.381,10.76-7.378,14.818-12.282c7.335-8.855,9.666-20.011,11.801-31.335c2.207,0,4.543,0.431,6.607-0.13
		c1.799-0.489,4.015-1.773,4.701-3.308c0.566-1.264-0.525-3.589-1.422-5.13c-3.617-6.22-7.445-12.316-11.281-18.604
		c5.773-2.43,10.743-4.383,15.573-6.641c1.33-0.624,2.237-2.159,3.341-3.276c-1.403-0.78-2.854-2.312-4.203-2.224
		c-12.017,0.776-21.709-4.551-30.78-11.452c-0.903-0.686-1.372-2.627-1.211-3.88c0.32-2.486,1.481-4.866,1.777-7.352
		c0.172-1.417-0.266-3.393-1.213-4.285c-0.622-0.585-2.743,0.08-4.016,0.613c-2.178,0.911-4.211,2.157-6.255,3.236
		c-6.937-5.849-6.937-5.849-15.8-1.351c-1.239-1.446-2.312-3.146-3.802-4.318c-1.686-1.324-3.744-2.174-5.637-3.23
		c-0.605,2.027-1.685,4.048-1.715,6.086c-0.069,4.48-0.322,8.37-6.073,9.052c-1.521,0.181-2.964,1.352-4.359,2.204
		c-14.394,8.788-21.534,21.355-21.928,38.491c-0.298,13.009-1.667,26.185-11.403,37.959c3.862,0.406,6.859,1.209,9.732,0.89
		c3.056-0.34,5.993-1.744,9.356-2.8c-0.111,4.716-1.415,8.87-4.811,12.439c-0.912,0.957-1.66,2.894-1.33,4.053
		c1.08,3.807,2.973,7.386,4.021,11.2c1.089,3.959,3.352,6.632,7.317,6.769c6.807,0.232,13.646,0.004,20.452-0.363
		c2.863-0.154,4.267,0.551,4.332,3.511c0.095,4.182,0.383,8.229-2.83,11.782c-2.69,2.973-4.892,6.427-7.059,9.826
		c-11.829,18.571-21.23,38.363-30.029,58.522c-4.767,10.921-10.921,21.249-16.694,31.71c-1.281,2.318-2.875,5.265-6.507,4.443
		c-5.366-1.211-10.718-2.5-16.026-3.936c-0.999-0.27-2.188-1.182-2.588-2.101c-3.758-8.608-0.141-15.12,8.998-17.495
		c2.455-0.638,5.663-2.599,6.46-4.723c5.136-13.742,7.096-27.553-1.782-40.8c-0.592-0.881-0.874-2.211-0.768-3.278
		c0.849-8.487-3.928-12.165-10.858-9.158c-0.139-0.042-0.274-0.092-0.412-0.137c-1.81,0.46-3.724,0.683-5.755,0.714
		c-2.641,0.042-5.121,0.594-7.621,1.083c-0.001,0.001-0.002,0.003-0.003,0.005c-0.374,0.371-0.781,0.682-1.215,0.951
		c-0.195,0.145-0.393,0.28-0.594,0.398c-0.246,0.144-0.512,0.242-0.774,0.353c-0.871,1.795-1.995,4.111-3.041,6.267
		c-5.381-4.602-10.791-9.23-16.433-14.056c-0.432-0.116-0.866-0.219-1.304-0.302c-0.747-0.134-1.494-0.252-2.243-0.367
		c-1.43-0.221-2.817-0.482-4.175-0.934c-9.336-0.111-15.763,4.25-21.473,10.907c-6.93,8.078-8.364,17.808-7.82,27.751
		c0.61,11.173,6.512,16.544,17.683,17.713c1.489,0.154,2.974,0.582,4.454,0.548c3.851-0.088,4.154,2.173,3.375,5.001
		c-5.902,21.425-11.296,43.015-18.005,64.186c-3.86,12.183-10.62,23.428-14.721,35.556c-4.696,13.882-11.143,26.76-18.745,39.13
		c-20.211,32.887-46.329,60.945-72.994,88.528c-0.876,0.907-2.599,1.385-3.936,1.403c-25.763,0.365-51.528,0.665-77.292,0.911
		c-35.665,0.341-71.332,0.627-106.997,0.971c0.051,1.109,0.087,2.223,0.087,3.343c0,1.184-0.035,2.359-0.092,3.53
		c59.707-0.515,119.526-1.026,180.217-1.55c-26.3,26.416-51.46,52.212-79.259,75.317c-27.812,23.113-57.626,43.351-88.332,63.122
		c5.791,1.677,11.334,2.73,16.892,2.803c29.467,0.394,58.938,0.541,88.408,0.77c34.887,0.268,69.772,0.609,104.66,0.745
		c10.765,0.042,21.533-0.728,32.298-0.688c17.512,0.063,35.036,1.056,52.527,0.59c15.517-0.414,31.006-2.163,46.489-3.536
		c10.817-0.959,15.896-7.665,15.085-18.664c-1.162-15.778-1.905-31.584-3.06-47.36c-0.926-12.654-2.571-25.263-3.201-37.925
		c-0.547-10.99-0.114-22.032-0.114-32.551c5.564,0,11.679-0.08,17.79,0.018c12.429,0.204,24.853,0.518,37.28,0.747
		c2.267,0.042,4.062,0.154,4.106,3.278c0.126,8.318,1.173,16.68,0.595,24.933c-0.439,6.282,1.649,11.059,5.521,15.223
		c3.431,3.689,4.757,7.82,4.624,12.618c-0.232,8.364-0.656,16.728-0.772,25.094c-0.141,9.86-0.109,19.722-0.018,29.584
		c0.05,5.118-2.411,8.33-6.811,10.615c-7.763,4.033-16.162,3.649-24.481,3.863c-5.507,0.142-10.748,5.066-10.824,10.34
		c-0.092,6.408,3.642,10.245,10.382,10.195c5.063-0.038,10.121-0.712,15.186-0.791c8.98-0.145,17.992,0.365,26.938-0.196
		c7.396-0.464,15.527,0.434,20.929-6.762c0.519-0.691,1.826-0.955,2.812-1.105c13.849-2.141,27.684-4.39,41.572-6.242
		c5.198-0.691,8.82-3.136,10.49-7.815c1.748-4.91,0.185-9.438-3.382-13.203C511.36,864.473,509.271,863.056,508.015,861.097z
		 M483.152,778.459c1.409,7.392,3.344,14.614,8.613,20.772c2.491,2.908,3.452,7.68,3.83,11.727
		c0.973,10.408,0.969,20.907,1.895,31.318c0.427,4.804,2.051,9.509,3.265,14.228c0.432,1.667,1.258,3.234,2.07,5.259
		c-4.886,0.728-9.212,1.371-12.644,1.881c-5.907-12.662-10.565-25.33-17.401-36.689c-11.488-19.086-16.192-39.223-13.352-61.121
		c1.397-10.798,3.8-21.461,5.27-32.25c1.132-8.297,1.929-16.592,6.987-24.763c0.879,6.366,1.524,12.081,2.473,17.745
		C477.061,743.881,479.866,761.214,483.152,778.459z M435.471,310.652c0.148-2.664,0.543-5.312,0.829-7.968
		c0.268-0.353,0.537-0.706,0.802-1.059c3.55,7.754,8.378,6.929,13.86,3.283c0.609-0.407,2.42,0.355,3.258,1.066
		c1.558,1.318,2.811,2.997,4.267,4.612c2.61-1.685,4.931-3.182,8.006-5.165c-0.633,4.288-0.846,7.788-1.782,11.083
		c-0.382,1.342-2.37,3.217-3.562,3.171c-6.805-0.255-13.602-0.895-20.374-1.652C436.526,317.547,435.257,314.472,435.471,310.652z
		 M431.379,314.665c0.562,4.323,3.244,6.793,7.259,7.992c9.257,2.766,18.54,4.161,28.034,0.92c0.911-0.311,2.359,0.574,3.423,1.153
		c5.582,3.037,11.12,6.154,16.765,9.296c-1.67,0.572-3.895,1.318-6.109,2.094c-3.616,1.268-4.439,3.768-1.459,5.776
		c5.14,3.465,7.303,8.266,8.613,14.048c0.585,2.569,2.843,4.761,3.724,7.797c-1.048-1.076-1.988-2.298-3.178-3.182
		c-1.072-0.795-2.447-1.69-3.633-1.617c-0.631,0.039-1.626,2.036-1.626,3.15c0.001,8.789-3.153,16.619-6.997,24.274
		c-1.007,2.002-2.153,3.963-2.891,6.063c-2.128,6.055-5.259,11.013-11.997,12.751c-1.2,0.309-2.198,1.389-4.651,3.018
		c-3.71-7.023-7.202-13.466-10.467-20.021c-0.424-0.85,0.105-2.387,0.585-3.425c0.797-1.74,2.279-3.221,2.822-5.009
		c1.39-4.57-1.386-8.06-6.163-7.975c-2.213,0.04-4.42,0.382-5.713-0.129c-4.25-5.632-7.724-12.181-12.97-16.641
		c-5.276-4.487-12.319-6.899-19.312-10.603C404.176,336.337,417.188,317.997,431.379,314.665z M415.518,420.485
		c-3.536,0.478-6.143-1.391-7.24-5.25c-0.532-1.875-2.141-3.444-3.628-5.706c3.151-1.63,6.55-3.388,9.948-5.147
		c-3.923-0.179-7.359,4.11-11.511,0.426c7.589-7.02,9.589-13.357,5.933-19.367c-2.12,0.758-4.292,1.685-6.548,2.301
		c-2.146,0.586-4.382,0.849-7.619,1.445c6.686-12.79,10.919-25.004,10.458-39.112c9.514,1.908,15.985,7.053,20.709,14.162
		c2.552,3.838,4.043,8.458,5.576,12.875c1.495,4.306,2.683,4.743,6.018,1.99c1.686-1.394,3.961-2.075,5.968-3.077
		c0.501,0.465,1.001,0.931,1.499,1.397c-1.495,2.468-2.831,5.051-4.521,7.378c-2.324,3.198-4.554,6.255-1.469,10.604
		c1.092-1.983,1.986-3.612,2.516-4.58c3.705,6.38,7.513,12.943,11.923,20.54c-4.48,1.563-9.308,3.73-14.364,4.899
		C431.37,418.066,423.45,419.416,415.518,420.485z M441.951,430.658c-0.473-3.057-0.947-6.111-1.516-9.785
		c3.057-0.828,5.951-1.612,9.183-2.488C450.169,427.988,449.192,429.481,441.951,430.658z M380.979,548.509
		c9.516-9.336,15.95-20.499,21.265-32.392c9.074-20.31,16.598-41.354,28.641-60.236c3.215-5.036,6.678-9.956,10.444-14.589
		c5.552-6.829,12.473-7.088,18.452-0.6c8.395,9.109,12.65,20.025,13.51,32.419c0.888,12.801,2.195,25.574,3.302,38.36
		c0.129,1.489,0.247,2.988,0.222,4.481c-0.317,19.616-0.672,39.235-0.997,58.854c-0.271,16.233-5.19,31.437-10.358,46.572
		c-0.305,0.894-1.572,1.933-2.508,2.067c-11.976,1.687-23.982,3.676-36.015,0.677c-1.597-0.397-3.337-1.822-4.208-3.262
		c-3.753-6.194-6.686-12.634-5.801-20.289c0.409-3.546,1.78-5.287,5.119-6.806c13.684-6.223,24.957-15.295,28.64-30.613
		c3.821-15.89,4.893-32.161,3.844-48.516c-0.525-8.2-1.104-16.394-1.677-24.59c-0.046-0.674-0.252-1.338-0.384-2.008
		c-0.377,0.063-0.755,0.124-1.13,0.185c0,6.416,0.151,12.836-0.034,19.246c-0.353,12.108-0.656,24.225-1.423,36.313
		c-1.224,19.317-18.177,43.013-41.255,46.297c-14.185,2.017-26.56-1.713-35.56-13.392c-0.965-0.782-1.808-1.761-2.471-3.009
		c-1.844-3.479-1.572-7.553-0.155-11.114C371.025,556.428,376.796,552.613,380.979,548.509z M469.499,631.036
		c-8.762,4.031-17.848,3.972-26.905,3.863c-3.562-0.044-7.203-0.218-10.646-1.031c-2.021-0.478-3.721-2.328-5.227-4.125
		c14.083,1.02,27.808,3.166,41.692-1.361C468.678,629.021,469.048,629.93,469.499,631.036z M373.989,546.205
		c-0.92,2.763-2.153,3.598-5.005,2.866c-5.642-1.445-11.375-2.687-17.145-3.399c-3.302-0.406-6.756,0.596-10.135,0.537
		c-1.122-0.018-2.718-1.111-3.25-2.148c-3.937-7.663-7.641-15.442-11.458-23.163c-1.565-3.168-3.226-6.286-4.851-9.438
		c6.064-2.71,5.278-2.263,8.285,3.019c4.769,8.374,10.503,16.235,16.297,23.965c1.417,1.891,4.539,2.868,7.069,3.493
		C360.385,543.571,367.08,544.774,373.989,546.205z M366.48,573.683c-0.021,0.053-0.044,0.106-0.064,0.158
		c-0.075-0.038-0.151-0.078-0.229-0.116c-1.806,0.046-3.973-0.363-4.084-2.422c-0.224-4.107,1.018-8.089,0.881-12.131
		c-0.002-0.044,0.014-0.075,0.02-0.113c-0.037-0.172-0.005-0.358,0.157-0.521c0.762-0.753,2.797-0.474,3.775-0.583
		c0.028-0.002,0.053,0.012,0.08,0.014c0.306-0.147,0.751-0.08,0.912,0.332c1.118,2.884,0.985,6.726,0.541,10.119
		C368.646,571.005,368.267,573.434,366.48,573.683z M350.518,572.348c-4.508,0.398-8.845,1.439-13.337,0.192
		c0.274,0.076,4.534-1.541,5.172-1.68c1.922-0.417,3.644-1.041,5.434-1.82c0.777-0.34,0.736-1.203,0.302-1.761
		c-2.254-0.01-4.518-0.252-6.799-0.288c-2.743-0.044-5.835,0.943-8.41-0.302c-0.314-0.15-0.357-0.438-0.258-0.686
		c0.034-0.268,0.214-0.494,0.564-0.445c3.195,0.428,6.578-0.298,9.731-0.836c2.005-0.344,4.009-0.68,5.934-1.329
		c0.317-0.646,0.04-1.595-0.747-1.745c-2.568-0.487-5.133-0.791-7.723-1.159c-0.754-0.107-6.878-0.762-2.959-1.071
		c4.352-0.346,8.518,0.651,12.494-1.629c0.925-0.529,0.71-1.933-0.291-2.221c-0.648-0.188-1.3-0.348-1.952-0.514
		c-0.489-0.08-0.981-0.152-1.463-0.254c-1.559-0.332-3.107-0.804-4.713-0.798c-0.784,0.002-0.784-1.215,0-1.217
		c1.729-0.004,3.352,0.531,5.038,0.844c1.645,0.3,3.306,0.525,4.956,0.799c0.148,0.024,0.244,0.097,0.317,0.181
		c0.026-0.011,0.057-0.019,0.082-0.03c2.739,0.837,5.264,1.957,6.743,4.157c1.84,1.182,3.016,2.727,2.156,5.113
		c-1.137,3.155,0.6,7.688-4.556,9.128c-0.623,0.174-1.211,0.458-1.788,0.773c-1.174,2.553-3.808,4.434-5.827,6.225
		c-0.414,0.365-0.993,0.104-1.038-0.433c-0.123-1.45,1.175-2.3,2.06-3.247c0.922-0.988,1.372-2.253,1.786-3.53
		C351.188,572.499,350.855,572.319,350.518,572.348z M358.818,553.86c0.201-0.506,0.402-1.012,0.601-1.517
		c2.629,0.184,5.259,0.365,7.886,0.545c0.137,0.444,0.271,0.89,0.405,1.336c-1.677,0.755-3.345,2.053-5.038,2.088
		C361.405,556.34,360.104,554.738,358.818,553.86z M367.405,512.112c-2.686,3.59-9.608,3.664-14.499-0.197
		c7.768-8.419,13.57-17.649,15.229-29.389C372.04,489.045,371.424,506.742,367.405,512.112z M363.823,463.036
		c5.49,0,5.49,8.514,0,8.514C358.333,471.55,358.333,463.036,363.823,463.036z M349.573,464.78c1.63-0.363,3.839,0.782,5.481,1.757
		c6.683,3.966,8.272,11.472,3.528,16.486c-1.149,1.213-2.827,1.925-3.505,2.369c-3.875,0.062-9.784-6.622-10.571-10.721
		C343.783,470.893,346.176,465.537,349.573,464.78z M341.783,493.502c0.851-1.994,1.131-4.232,1.708-6.519
		c8.6,6.81,10.874,7.036,19.809,1.511c-2.574,6.967-5.241,12.792-9.662,17.724c-0.5,0.553-1.105,1.011-1.605,1.564
		c-4.878,5.404-3.645,9.128,4.586,12.12c-5.677,4.691-3.504,10.938-4.192,17.212c-6.806-4.625-10.803-10.897-14.986-16.968
		c-1.092-1.583-1.86-3.401-2.668-5.163c-2.996-6.535-2.694-6.294,1.982-11.674C339.097,500.611,340.335,496.887,341.783,493.502z
		 M300.861,505.946c-5.916-0.292-8.597-4.664-10.016-9.53c-4.446-15.25,3.978-31.253,15.727-35.772
		c6.923-2.663,14.723-0.343,21.004,6.713c4.454,5.004,6.776,10.814,7.996,17.213c0.996,5.216-2.342,13.537-6.84,17.11
		c-1.03-2.56,1.337-6.675-3.922-7.673c-0.593,1.951-1.274,3.873-1.761,5.842c-0.925,3.739-2.945,6.152-7.062,6.164
		C310.943,506.029,305.892,506.194,300.861,505.946z M361.113,870.812c0.012,1.494-0.285,3.006-0.157,4.486
		c0.749,8.663-2.463,11.203-12.023,13.632c-5.713,1.451-11.854,1.335-17.818,1.649c-13.873,0.729-27.749,1.625-41.632,1.834
		c-12.865,0.194-25.743-0.617-38.615-0.607c-13.014,0.006-26.029,0.758-39.039,0.66c-15.558-0.116-31.109-0.842-46.664-1.208
		c-35.746-0.839-71.479-2.112-107.253-1.278c-11.498,0.27-23.027-0.774-34.724-1.222c0.22-0.496,0.28-1.052,0.56-1.203
		c32.461-17.787,61.854-39.919,89.461-64.372c45.357-40.177,87.718-83.344,126.439-129.988
		c27.995-33.725,46.638-72.475,59.895-113.977c6.899-21.603,13.546-43.283,16.143-65.949c0.071-0.619,0.629-1.185,1.45-2.654
		c1.426,2.908,2.478,5.113,3.582,7.292c4.656,9.176,9.049,18.508,14.191,27.404c1.298,2.247,4.965,3.181,7.624,4.567
		c0.862,0.447,1.749,0.85,2.644,1.237c-3.323-0.552-6.798-0.689-7.387,1.451c-0.555,2.019,1.646,3.2,4.271,3.951
		c-4.081-0.012-8.474-0.088-9.662,2.501c-0.245,0.535-0.198,1.025,0.19,1.475c1.564,1.811,4.901,2.471,8.176,2.826
		c-2.557,0.13-5.125-0.063-7.792,0.348c-1.502,0.232-4.048,1.285-2.868,3.298c1.005,1.716,3.563,2.356,6.459,2.541
		c-1.061,0.434-1.987,0.997-2.665,1.782c-0.271,0.314-0.467,0.762-0.313,1.184c1.417,3.848,7.201,3.609,11.906,3
		c0.567-0.172,1.126-0.371,1.679-0.607c0.494-0.214,1.225,0.271,0.832,0.831c-0.909,1.298-2.653,3.506-2.145,5.207
		c0.898,3.006,4.404,0.412,6.221-0.02c0.039-0.011,0.07,0,0.107-0.004c0.478-0.314,0.949-0.636,1.402-0.954
		c-0.293,2.533-0.752,5.149-0.749,7.771c0.028,18.816,0.269,37.633,0.249,56.444c-0.011,9.88-0.746,19.762-0.54,29.632
		c0.201,9.602,1.185,19.191,1.824,28.788c0.069,1.045,0.175,2.087,0.178,3.132c0.045,13.16-0.225,26.334,0.173,39.485
		c0.651,21.524,1.516,43.051,2.747,64.552c0.476,8.32,2.767,16.541,3.207,24.86C361.313,846.64,361.028,858.735,361.113,870.812z
		 M359.653,749.02c0-20.901,0.149-40.919-0.064-60.935c-0.103-9.51-1.051-19.008-1.327-28.521
		c-0.27-9.276-0.221-18.568-0.224-27.853c-0.006-16.604,0-33.205,0.156-49.805c0.018-1.991,0.995-3.978,1.528-5.967
		c3.122,0.93,6.837,1.105,9.22,2.979c3.06,2.404,4.605,6.682,7.582,9.254c9.116,7.879,20.202,9.96,31.864,9.17
		c3.899-0.266,4.801,0.742,3.965,4.428c-1.303,5.732,1.211,10.737,3.234,15.934c2.624,6.746,4.684,13.724,6.688,20.689
		c0.367,1.279-0.301,3.258-1.155,4.423c-4.574,6.227-9.285,12.354-14.094,18.402c-3.195,4.018-2.85,5.701,1.982,7.196
		c1.825,0.565,3.729,0.883,5.759,1.351c0.938,26.527,1.868,52.931,2.797,79.255H359.653z M414.112,665.21
		c4.22-8.167,7.973-15.681,12.027-23.025c0.65-1.178,2.642-2.241,4.038-2.273c8.193-0.189,16.448,0.506,24.579-0.229
		c5.617-0.51,11.289-2.322,16.515-4.545c3.531-1.503,6.009-0.004,8.213,1.429c5.507,3.574,10.908,7.464,12.614,14.541
		c0.389,1.611,1.709,3,3.25,5.576C468.245,665.81,440.794,663.877,414.112,665.21z M425.585,780.47
		c-0.709-15.077,0.105-30.369-2.176-45.196c-3.008-19.543-1.203-39.137-3.044-58.625c-0.538-5.688,0.888-6.282,6.571-6.494
		c18.073-0.665,36.13-1.809,54.192-2.774c0.57-0.031,1.136-0.102,1.854-0.169c1.658,4.043,1.092,7.818-0.813,11.316
		c-3.852,7.065-8.057,13.938-11.857,21.029c-2.094,3.907-4.24,7.948-5.352,12.196c-4.154,15.838-8.701,31.644-11.535,47.738
		c-2.42,13.739-1.137,27.727,2.504,41.382c2.116,7.931,4.511,15.926,5.264,24.032c0.485,5.219-1.066,10.966-2.974,15.992
		c-3.115,8.197-7.334,15.969-10.936,23.989c-0.822,1.827-1.029,3.934-1.538,5.992c-0.037,0.028-0.151,0.18-0.279,0.196
		c-10.031,1.247-10.129,1.245-10.005-8.675c0.182-14.657,0.621-29.313,0.739-43.975c0.04-5.073-0.213-10.206-1-15.208
		c-0.387-2.469-1.763-5.301-3.609-6.918C426.643,791.971,425.861,786.327,425.585,780.47z M449.671,894.548
		c-7.258,1.512-14.699,2.151-22.062,3.162c-0.035-0.212-0.07-0.424-0.104-0.634c-9.532,0-19.067-0.09-28.6,0.042
		c-3.733,0.055-6.199-1.103-6.276-5.129c-0.074-3.897,2.838-6.338,6.691-6.781c8.684-1.001,17.33-2.316,25.982-3.572
		c1.16-0.167,2.622-0.411,3.33-1.183c5.032-5.495,11.782-3.082,17.756-3.85c4.28-0.548,9.762,4.69,10.502,9.011
		C457.494,889.136,454.557,893.534,449.671,894.548z M459.654,875.149c-2.62,0.273-6.337-2.311-8.15-4.671
		c-1.169-1.521,0-5.047,0.533-7.588c0.359-1.707,1.491-3.237,2.19-4.883c4.038-9.502,12.755-16.861,12.005-28.552
		c0.643,0.062,1.285,0.126,1.928,0.188c4.713,9.792,9.424,19.58,14.136,29.372c0.321,0.674,0.604,1.369,0.957,2.024
		c3.249,6.021,3.468,6.896-2.936,9.342C473.75,872.886,466.647,874.412,459.654,875.149z M505.65,881.895
		c-5.514,2.082-11.49,3.168-17.371,3.991c-8.091,1.131-16.271,1.643-24.639,2.442c-0.618-2.878-1.244-5.78-1.934-8.998
		c4.285-0.932,8.885-1.455,13.126-2.979c4.978-1.783,9.775-4.195,14.413-6.764c5.373-2.982,11.107-3.79,16.581-1.773
		c2.515,0.926,5.57,4.659,5.526,7.066C511.31,877.335,508.214,880.927,505.65,881.895z"/>
	<path fill-rule="evenodd" clip-rule="evenodd" d="M100.147,122.529c2.452,1.852,5.081,3.512,7.329,5.585
		c24.021,22.161,47.99,44.378,71.95,66.605c4.491,4.166,4.306,6.119-0.109,10.193c-17.302,15.969-34.442,32.114-51.831,47.988
		c-5.832,5.323-12.094,10.205-18.398,14.974c-6.682,5.055-14.385,5.442-22.296,3.783c-9.606-2.016-17.666-6.777-23.834-14.388
		c-7.073-8.728-5.622-20.565,3.665-26.889c11.372-7.743,20.02-8.769,33.015,0.483c6.47-5.882,12.994-11.815,19.792-17.995
		c-9.513-5.915-18.781-11.29-25.377-21.783c-5.108,5.491-9.729,10.865-14.78,15.797c-8.049,7.86-17.002,14.396-28.091,17.491
		c-13.471,3.759-25.149-0.502-31.871-12.743c-2.755-5.017-4.62-10.849-5.455-16.521c-1.423-9.663,3.154-16.985,11.46-21.83
		c9.31-5.43,18.724-5.001,28.049,0.128c0.524,0.288,1.009,0.647,1.514,0.971c0.5,0.32,1.002,0.636,1.969,1.249
		c3.939-4.316,7.992-8.539,11.797-12.975c6.568-7.656,13.182-15.287,19.379-23.239c3.28-4.208,5.717-9.074,8.548-13.634
		c0.683-1.101,1.42-2.167,2.132-3.25C99.186,122.529,99.667,122.529,100.147,122.529z M59.81,178.392
		c0.953,1.406,1.858,2.676,2.692,3.991c1.03,1.625,1.245,3.5-0.715,4.227c-0.925,0.343-3.007-0.575-3.616-1.527
		c-5.402-8.458-13.411-10.784-22.744-9.884c-7.869,0.758-15.299,7.126-16.046,13.864c-1.267,11.425,2.286,21.255,11.361,28.403
		c2.795,2.201,6.878,3.363,10.512,3.784c8.124,0.94,15.216-2.529,21.888-6.75c10.932-6.916,20.255-15.765,29.382-24.824
		c2.609-2.59,4.685-2.471,6.936,0.588c1.418,1.926,2.676,4.124,4.506,5.562c5.556,4.37,11.275,8.544,17.086,12.571
		c4.092,2.836,4.597,5.115,0.885,8.435c-6.98,6.244-14.17,12.254-21.196,18.448c-1.845,1.626-3.135,0.853-4.701-0.345
		c-8.464-6.474-16.264-6.82-25.299-1.212c-8.235,5.111-9.747,14.568-3.286,21.843c1.962,2.209,4.364,4.112,6.815,5.787
		c10.807,7.384,22.135,9.626,32.747,1.246c4.521-3.571,8.988-7.234,13.228-11.13c16.545-15.202,32.986-30.515,49.474-45.779
		c2.069-1.916,4.182-3.784,6.445-5.83c-25.344-23.447-50.336-46.57-75.172-69.547C89.027,148.283,74.487,163.416,59.81,178.392z"/>
	<path fill-rule="evenodd" clip-rule="evenodd" d="M491.81,264.63c5.14-4.707,10.322-9.452,15.17-13.892
		c-6.837-5.605-13.339-10.936-19.775-16.214c-6.201,5.519-12.907,11.876-20.062,17.682c-3.289,2.669-7.298,4.642-11.254,6.264
		c-13.117,5.381-25.243,0.199-30.625-12.974c-2.242-5.488-3.849-11.171-1.651-17.132c4.438-12.041,19.116-16.822,30.924-10.087
		c0.827,0.472,1.61,1.022,2.994,1.905c4.197-4.779,8.584-9.492,12.647-14.469c5.91-7.238,12.059-14.353,17.226-22.106
		c4.794-7.194,4.36-7.614,10.744-1.705c19.393,17.949,38.727,35.958,58.069,53.961c2.92,2.718,2.868,4.808-0.051,7.533
		c-14.485,13.518-28.901,27.113-43.502,40.506c-4.317,3.961-8.952,7.662-13.806,10.943c-8.885,6.008-18.007,3.625-26.586-0.709
		c-3.737-1.888-7.104-5.008-9.855-8.238c-5.701-6.692-4.613-16.107,2.476-21.284C475.354,256.975,482.549,258.099,491.81,264.63z
		 M460.271,222.991c0.191,0.275,0.639,0.841,0.998,1.46c0.873,1.504,2.537,3.275,0.142,4.487c-0.689,0.349-2.809-1.122-3.632-2.234
		c-2.577-3.479-5.993-5.453-10.058-6.513c-8.613-2.247-18.391,2.23-19.963,9.729c-1.892,9.021,0.983,16.944,7.706,23.179
		c6.143,5.698,13.351,4.781,20.268,1.839c12.091-5.142,21.128-14.434,30.259-23.465c2.188-2.164,4.014-1.916,5.33,0.134
		c4.332,6.74,11.018,10.585,17.4,14.832c3.658,2.434,3.974,4.295,0.666,7.279c-5.349,4.824-10.892,9.432-16.289,14.205
		c-1.602,1.416-2.795,1.134-4.399-0.076c-7.012-5.288-13.321-5.388-20.572-0.521c-5.826,3.91-7.179,11.264-2.625,16.57
		c4.028,4.693,9.111,7.872,15.187,9.762c6.274,1.951,11.487,0.327,16.527-3.108c1.284-0.876,2.487-1.893,3.638-2.944
		c14.634-13.36,29.258-26.734,43.87-40.119c2.78-2.547,5.505-5.158,8.367-7.845c-20.24-18.799-40.194-37.333-59.491-55.254
		C482.462,197.288,471.506,209.978,460.271,222.991z"/>
	<path fill-rule="evenodd" clip-rule="evenodd" d="M322.229,179.62c4.403,12.466,8.601,25.363,13.519,37.98
		c4.592,11.776,6.232,23.942,5.83,36.359c-0.335,10.363-6.48,17.641-15.458,21.804c-13.931,6.459-28.472,5.904-42.317-0.064
		c-15.283-6.589-19.505-26.789-8.961-39.582c6.789-8.237,15.086-13.684,26.172-13.789c2.329-0.022,2.956-1.009,2.149-3.213
		c-7.463-20.394-14.887-40.803-22.323-61.208c-1.767-4.848-3.654-9.657-5.222-14.568c-0.414-1.296-0.308-3.835,0.377-4.18
		c1.395-0.703,3.645-0.923,5.024-0.262c19.423,9.302,40.001,14.588,61.15,17.953c1.295,0.207,2.661,0.006,3.946,0.252
		c0.96,0.184,2.487,0.641,2.614,1.225c0.208,0.964-0.186,2.462-0.896,3.15c-2.667,2.586-5.366,5.224-8.416,7.311
		C334.003,172.494,328.322,175.812,322.229,179.62z M280.361,141.868c0.377,1.297,0.614,2.324,0.971,3.308
		c9.509,26.162,19.038,52.318,28.533,78.485c0.529,1.457,1.014,2.989,1.129,4.515c0.071,0.936-0.602,1.928-0.941,2.894
		c-1-0.414-2.299-0.563-2.943-1.292c-1.823-2.061-3.917-2.757-6.652-2.776c-9.833-0.067-16.695,5.191-22.626,12.209
		c-8.282,9.799-4.636,27.286,7.256,32.245c12.727,5.306,25.942,5.949,38.882,0.449c7.533-3.202,12.203-9.342,12.74-17.452
		c0.742-11.181-0.267-22.301-4.415-32.94c-3.005-7.709-5.835-15.488-8.666-23.265c-2.093-5.751-4.14-11.521-6.036-17.339
		c-0.545-1.674-1.431-3.628,1.29-4.795c4.365-1.874,8.783-3.749,12.832-6.197c4.083-2.468,7.741-5.636,11.585-8.496
		C321.312,157.192,300.406,151.807,280.361,141.868z"/>
	<path fill-rule="evenodd" clip-rule="evenodd" d="M626.254,341.071c-3.094,6.956-8.04,11.212-13.358,15.497
		c4.344,6.944,8.909,13.673,12.853,20.748c2.712,4.863,4.695,10.154,6.769,15.347c4.218,10.563-2.729,19.302-12.224,22.254
		c-3.616,1.124-7.506,1.7-11.298,1.854c-8.965,0.362-15.474-4.289-17.398-11.937c-1.612-6.409,2.862-15.425,9.568-18.99
		c1.968-1.045,4.137-1.707,6.643-2.718c-3.279-5.173-6.451-10.209-9.656-15.224c-5.35-8.369-10.751-16.704-16.039-25.113
		c-0.558-0.888-0.493-2.166-0.717-3.262c1.127-0.203,2.325-0.762,3.372-0.555c12.87,2.557,25.818,3.393,38.891,2.105
		C624.218,341.022,624.785,341.071,626.254,341.071z M613.317,388.117c-6.522-2.169-10.498-1.24-14.363,2.703
		c-4.697,4.792-6.183,10.463-4.032,15.399c2.436,5.595,7.265,8.466,14.387,7.873c3.905-0.325,7.866-1.133,11.579-2.385
		c6.701-2.26,10.832-8.104,9.884-13.8c-1.169-7.028-3.431-13.655-7.56-19.651c-4.409-6.408-8.365-13.127-12.567-19.68
		c-1.128-1.759-0.884-2.47,0.976-3.894c3.974-3.043,7.394-6.809,11.068-10.305c-13.107-0.877-25.374-1.698-37.507-2.509
		C593.816,357.005,605.053,371.118,613.317,388.117z"/>
	<path fill-rule="evenodd" clip-rule="evenodd" d="M473.183,362.721c-6.042,0.757-11.089-1.431-15.885-4.453
		c-11.114-7.006-11.123-6.994-23.406-5.861c5.202-5.403,13.239-6.027,19.613-1.553c3.174,2.228,6.291,4.56,9.604,6.56
		C466.354,359.371,469.816,360.967,473.183,362.721z"/>
	<path fill-rule="evenodd" clip-rule="evenodd" d="M424.081,339.74c-0.832-4.704,2.539-6.556,5.643-8.285
		c7.489-4.17,14.021-1.842,23.008,8.265c-1.213,0.203-2.109,0.538-2.958,0.442c-0.85-0.095-1.675-0.569-2.467-0.966
		c-3.893-1.948-7.761-5.436-11.653-5.456C432.01,333.72,428.348,337.366,424.081,339.74z"/>
	<path fill-rule="evenodd" clip-rule="evenodd" d="M474.272,369.542c-6.325,8.121-10.711,9.962-15.735,7.233
		C463.448,374.518,468.596,372.153,474.272,369.542z"/>
	<path fill-rule="evenodd" clip-rule="evenodd" d="M417.476,382.066c-2.733-3.111-5.167-4.819-5.779-7.029
		c-0.305-1.1,2.511-4.107,4.307-4.511c3.092-0.696,6.405,2.782,5.786,5.762C421.443,377.949,419.621,379.3,417.476,382.066z
		 M414.72,372.046c-1.706,6.136-0.883,6.991,5.256,5.684C421.268,373.301,418.353,372.535,414.72,372.046z"/>
</g>
<g id="Layer_2">
	<path fill-rule="evenodd" clip-rule="evenodd" d="M331.348,449.572c0.608-1.256,1.203-2.465,1.521-3.804
		c-0.119-0.477-0.21-0.965-0.308-1.451c-0.52,0.05-1.043,0.097-1.562,0.136c-0.176,1.714-0.943,3.191-1.701,4.712
		C329.987,449.302,330.668,449.437,331.348,449.572z"/>
	<g id="uV3ynZ_2_">
		<g>
			<path fill-rule="evenodd" clip-rule="evenodd" stroke="#000000" stroke-width="3" stroke-miterlimit="10" d="M367.657,414.562
				c-0.305-0.519-0.576-1.047-0.764-1.602c-0.253,1.101-0.507,2.199-0.767,3.33c-0.317-0.015-0.593-0.003-0.875,0.005
				c-0.115,0.046-0.235,0.087-0.383,0.073c-0.093-0.009-0.195-0.018-0.291-0.028c-3.79,0.402-3.759,3.236-2.85,6.878
				c0.266,0.189,0.528,0.302,0.786,0.349c-0.561-1.329-0.763-2.877-0.005-3.836c-0.001-0.039-0.009-0.085-0.008-0.124
				c0.016-0.748,0.271-1.87,1.187-2.007c0.422-0.064,0.823,0.041,1.2,0.205c0.686-0.051,1.424,0.002,1.998-0.361
				C367.699,416.924,367.743,415.731,367.657,414.562z"/>
			<path fill-rule="evenodd" clip-rule="evenodd" stroke="#000000" stroke-width="3" stroke-miterlimit="10" d="M305.459,347.585
				c-1.341,0.895-2.63,1.778-3.806,2.472c-0.844,0.498-1.66,1.015-2.467,1.539c-0.635,0.549-1.258,1.126-1.854,1.758
				c-9.171,9.723-16.57,20.468-17.876,34.636c-1.42,15.413,0.214,29.697,7.071,41.588c0.25,0.044,0.491,0.174,0.672,0.426
				c1.299,1.793,2.853,3.363,4.508,4.828c-1.144-1.693-2.163-3.403-3.02-4.943c-2.267-4.074-6.379-10.602-7.068-16.326
				c-0.113-0.248-0.138-0.533-0.062-0.797c-0.064-1.033,0.001-2.029,0.21-2.979c-0.013-1.562-0.002-3.114,0.047-4.652
				c-0.341-3.569-0.385-7.288-0.085-11.177c1.08-14.037,5.889-26.378,15.621-35.49c2.574-3.562,6.123-6.548,10.064-8.759
				c0.386-0.265,0.771-0.53,1.146-0.77c3.111-1.989,6.392-3.732,10.115-3.857c0.821-0.292,1.653-0.562,2.509-0.779
				c0.051-0.016,0.101-0.037,0.151-0.054C315.887,344.531,310.393,345.34,305.459,347.585z"/>
			<path fill-rule="evenodd" clip-rule="evenodd" stroke="#000000" stroke-width="3" stroke-miterlimit="10" d="M367.255,383.209
				c0.002-0.003,0.003-0.004,0.004-0.005c0.043-0.213,0.119-0.422,0.194-0.63c-0.012-0.064-0.005-0.135,0-0.208
				c-0.645,0.295-1.328,0.547-2.055,0.748c-0.069,0.175-0.171,0.343-0.351,0.478c-0.059,0.043-0.116,0.086-0.173,0.129
				c-0.04,0.029-0.108,0.025-0.158,0.045c-1.007,1.261-2.57,1.032-4.163,1.003c-0.103-0.002-0.181-0.035-0.269-0.06
				c-1.724,0.188-3.446,0.392-5.168,0.501c-1.954,0.229-3.93,0.343-5.819,0.498c-2.112,0.173-4.069,0.594-5.913,1.187
				c-9.068,4.748-15.581,13.59-17.824,23.689c-1.785,8.034-3.171,23.04,3.264,29.397c0.038,0.036,0.047,0.078,0.077,0.115
				c-0.061-0.267-0.126-0.53-0.172-0.802c-4.271-15.423-1.536-33.466,8.5-45.189c2.896-3.381,7.958-6.059,12.375-6.727
				c5.207-0.789,10.566-0.601,16.28-0.43c0.672-0.3,1.338-0.623,1.988-1.009c0.014-0.01,0.028-0.021,0.043-0.03
				c-0.485-0.538-0.697-1.179-0.721-1.844C367.091,383.812,367.087,383.517,367.255,383.209z"/>
			<path fill-rule="evenodd" clip-rule="evenodd" stroke="#000000" stroke-width="3" stroke-miterlimit="10" d="M298.14,407.022
				c-9.243-19.786,10.688-51.762,30.964-51.266C306.028,364.925,298.39,382.897,298.14,407.022z"/>
			<path fill-rule="evenodd" clip-rule="evenodd" stroke="#000000" stroke-width="3" stroke-miterlimit="10" d="M320.704,389.435
				c-2.153-10.162,5.701-21.892,15.631-23.28C327.653,371.596,322.44,379.27,320.704,389.435z"/>
		</g>
	</g>
	<path stroke="#000000" stroke-width="3" stroke-miterlimit="10" d="M358.769,431.583c-0.272,0.05-0.549,0.1-0.824,0.149
		c-0.621,3.295-9.116,1.147-12.237,2.829c-5.093,1.165-10.061,4.179-8.601,9.881c0.084,0.333,0.281,0.54,0.518,0.647
		c0.55,1.787,1.407,3.506,2.033,4.683c0.237,0.445,0.506,0.92,0.798,1.408c0.463,0.059,0.926,0.107,1.389,0.162
		c-1.939-2.414-3.215-5.284-3.313-8.628c-0.113-3.767,3.132-6.529,6.688-6.689c1.591-0.071,3.133-0.153,4.674-0.104
		c0.165-0.016,0.328-0.043,0.495-0.049c0.472-0.012,0.959-0.138,1.431-0.077c0.137,0.018,0.26,0.033,0.386,0.047
		c1.208-0.049,2.413-0.121,3.613-0.318c2.516-0.413,4.203-1.864,4.248-4.071C359.635,431.489,359.201,431.526,358.769,431.583z"/>
	<path stroke="#000000" stroke-width="3" stroke-miterlimit="10" d="M368.501,395.448c0.438-3.098,0.989-6.621-0.461-9.436
		c-0.312-0.313-0.531-0.66-0.67-1.033c-0.063-0.083-0.104-0.173-0.171-0.252c-0.064-0.077-0.138-0.115-0.207-0.166
		c0.072-0.137,0.129-0.275,0.197-0.413c-0.001-0.029,0.005-0.057,0.005-0.083c-0.104-0.253-0.107-0.549,0.061-0.856
		c0.01-0.017,0.018-0.034,0.026-0.051c0.041-0.189,0.113-0.373,0.18-0.559c-0.033-0.156-0.036-0.328,0.036-0.524
		c0.174-0.476,0.397-0.924,0.625-1.373c0.18-2.423,0.45-4.882,0.191-7.253c-0.199-1.817-0.66-3.506-1.264-5.143
		c-3.954-8.564-13.16-15.851-20.651-19.312c-8.066-3.728-17.022-6.477-25.974-6.163c-0.938,0.032-2.801,0.125-4.843,0.393
		c-0.126,0.061-0.272,0.098-0.441,0.103c-0.431,0.01-0.867,0.09-1.303,0.17c-0.224,0.04-0.447,0.083-0.671,0.129
		c-4.019,1.013-8.184,4.464-11.513,6.43c-0.023,0.015-0.045,0.03-0.069,0.043c-0.153,0.149-0.302,0.302-0.472,0.437
		c-1.043,0.835,0.434,2.293,1.466,1.465c1.499-1.202,2.32-2.688,4.104-3.579c0.166-0.083,0.342-0.153,0.514-0.231
		c0.483,0.735,1.901,0.562,1.901-0.549c0-0.082,0.048-0.155,0.075-0.233c0.941-0.303,1.909-0.528,2.861-0.63
		c0.626-0.067,0.949-0.578,0.979-1.075c1.521-0.287,3.288-0.479,4.944-0.606c0.005,0,0.012,0,0.02-0.001
		c2.511-0.193,4.761-0.236,5.453-0.218c3.121,0.082,6.25,0.595,9.335,1.377c0.146,0.02,0.289,0.018,0.437,0.042
		c0.188,0.033,0.33,0.107,0.444,0.201c4.534,1.23,8.96,3.012,13.096,4.924c10.45,4.83,24.943,18.957,18.666,31.667
		c-0.029,0.08-0.06,0.159-0.11,0.232c-0.04,0.077-0.071,0.153-0.112,0.23c-0.319,0.597-0.017,1.158,0.442,1.414
		c-0.2,0.361-0.225,0.824,0.108,1.223c3.201,3.825,0.056,12.484-0.795,16.831c-0.259,1.317-0.437,2.646-0.536,3.971
		c0.481,2.689,1.007,5.369,1.465,8.062c0.102,0.598-0.271,1.385-0.999,1.312c-0.162-0.017-0.337-0.034-0.509-0.05
		c-0.123,0.032-0.249,0.059-0.373,0.086c-0.252-0.102-0.545-0.098-0.849,0.104c-0.111,0.073-0.195,0.151-0.295,0.227
		c-0.164,0.075-0.314,0.165-0.433,0.282c-0.112,0.111-0.171,0.241-0.262,0.361c-0.128,0.148-0.237,0.302-0.332,0.459
		c-0.008,0.015-0.021,0.03-0.029,0.045c-0.491,0.838-0.575,1.792-0.479,2.919c0,0.026-0.003,0.052-0.003,0.079
		c-0.001,0.229,0.032,0.495,0.058,0.755c0.144,2.484-2.859,1.423-4.425,0.589c-0.388-0.528-1.3-0.718-1.77,0.009
		c-0.252,0.39-0.461,0.831-0.627,1.299c0.604,0.397,1.205,0.834,1.843,1.191c0.02-0.081,0.04-0.163,0.063-0.241
		c0.378,0.167,0.775,0.299,1.178,0.423c0.041-0.021,0.086-0.034,0.126-0.059c1.429,0.484,2.978,0.647,4.305,0.021
		c2.749-1.297,0.126-4.887,1.96-6.427c0.272,0.002,0.538,0.016,0.802,0.041c0.359-0.179,0.734-0.297,1.129-0.315
		c0.736-0.308,1.471-0.913,1.648-1.696c0.615-2.69-0.481-5.49-1.295-8.051c0.017-0.196,0.026-0.392,0.061-0.592
		C366.486,403.688,367.952,399.329,368.501,395.448z"/>
	<path stroke="#000000" stroke-width="3" stroke-miterlimit="10" d="M344.664,398.683c-0.216-0.159-0.431-0.313-0.633-0.469
		c-0.006-0.006-0.006-0.013-0.013-0.018l-0.862-0.863c-0.811-0.811-2.343,0.287-1.626,1.255c0.055,0.075,0.113,0.133,0.169,0.202
		c-0.001,0.004-0.004,0.005-0.009,0.007l0.087,0.087c0.615,0.735,1.286,1.227,2.085,1.847c0.139,0.108,0.278,0.808,0.417,1.548
		c-0.5,0.098-1,0.116-1.506-0.102c-1.213-0.52-2.27,1.265-1.045,1.789c1.063,0.455,2.056,0.51,3.111,0.299
		c1.018,1.832,2.918,3.22,5.009,3.469c3.756,0.447,10.325-0.634,10.877-5.354C361.791,393.269,348.738,392.241,344.664,398.683z
		 M346.047,400.354c0.008-0.017,0.022-0.023,0.032-0.041c0.688-1.354,1.984-2.368,3.484-3.002c-1.371,2.474-1.323,6.041,0.153,8.258
		c-0.154-0.03-0.308-0.062-0.445-0.098C346.508,404.735,346.61,402.52,346.047,400.354z M354.026,405.566
		c-0.146-0.044-0.307-0.064-0.483-0.041c-3.98,0.557-3.875-8.523-0.07-8.842c0.102-0.01,0.182-0.048,0.269-0.079
		c2.721,0.201,5.061,1.754,4.995,5.051C358.692,403.985,356.451,405.147,354.026,405.566z"/>
	<path stroke="#000000" stroke-width="3" stroke-miterlimit="10" d="M333.751,441.301c-3.424-2.017-5.521-5.619-6.734-9.324
		c-0.413-1.265-2.414-0.723-1.997,0.551c1.094,3.344,2.839,6.62,5.469,8.965c-1.295,0.694-2.281,1.449-3.659,1.957
		c-1.286,0.212-2.653,0.411-3.923,0.585c-3.731,0.126-7.553-0.112-11.217-0.848c-7.683-2.546-15.383-6.475-20.734-12.245
		c-8.1-8.735-7.972-22.464-9.869-33.499c-0.227-1.316-2.223-0.756-1.998,0.551c1.689,9.821,1.904,21.267,7.215,30.081
		c-0.359,0.368-0.492,0.972-0.041,1.456c2.675,2.874,5.211,6.015,8.334,8.427c3.88,2.998,8.444,4.769,13.053,6.328
		c1.029,0.348,2.064,0.619,3.102,0.844c0.556,0.265,1.113,0.52,1.69,0.717c2.917,0.045,5.808,0.584,8.742,0.22
		c0.014-0.001,0.026-0.005,0.039-0.006c0.275,0.002,0.549,0.006,0.825,0.006c2.143,0.003,3.903-0.074,5.973-0.556
		c1.253-0.29,2.215-1.239,3.266-1.988c-0.113,0.989-0.196,1.983-0.396,2.959c-0.266,1.304,1.731,1.859,1.998,0.551
		c0.325-1.6,0.329-3.245,0.69-4.835c0.066-0.289,0.007-0.533-0.109-0.736C333.562,441.408,333.657,441.355,333.751,441.301z"/>
	<path fill-rule="evenodd" clip-rule="evenodd" stroke="#000000" stroke-width="3" stroke-miterlimit="10" d="M333.895,442.258
		c-0.295-2.3-3.947-2.328-3.649,0c0.709,5.542-3.746,11.697-7.447,15.358c-1.675,1.656,0.906,4.236,2.58,2.58
		C329.698,455.923,334.719,448.691,333.895,442.258z"/>
	<path fill-rule="evenodd" clip-rule="evenodd" stroke="#000000" stroke-width="3" stroke-miterlimit="10" d="M348.77,456.984
		c-5.401-3.01-10.045-7.747-10.237-14.27c-0.113-3.767,3.132-6.529,6.688-6.689c1.127-0.05,2.228-0.107,3.322-0.119
		c0.444-0.686,0.13-1.879-0.964-1.933c-6.688-0.325-12.329,4.182-10.875,10.994c1.932,9.049,11.035,13.243,16.781,19.208
		c1.089,1.132,2.807-0.59,1.72-1.721C353.195,460.37,350.947,458.728,348.77,456.984z"/>
	<path fill-rule="evenodd" clip-rule="evenodd" stroke="#000000" stroke-width="3" stroke-miterlimit="10" d="M357.089,422.43
		c-0.117-0.202-0.268-0.331-0.429-0.427c-0.235-0.521-0.853-0.908-1.418-0.699c-0.365,0.135-0.71,0.199-1.103,0.142
		c-0.655-0.096-1.304,0.152-1.496,0.85c-0.159,0.579,0.192,1.4,0.85,1.497c0.551,0.081,1.087,0.11,1.622,0.039
		c0.816,1.292,2.102,2.147,3.519,2.686c2.786,1.058-0.122,4.956-1.471,6.161c-1.171,1.048,0.556,2.763,1.721,1.72
		c1.853-1.657,3.619-4.541,3.384-7.086C361.974,424.144,358.426,424.746,357.089,422.43z"/>
	<g>
	</g>
	<g>
	</g>
	<g>
	</g>
	<g>
	</g>
	<g>
	</g>
	<g>
	</g>
</g>
</svg>
