<?xml version="1.0" encoding="utf-8"?>
<!-- Generator: Adobe Illustrator 16.0.0, SVG Export Plug-In . SVG Version: 6.00 Build 0)  -->
<!DOCTYPE svg PUBLIC "-//W3C//DTD SVG 1.0//EN" "http://www.w3.org/TR/2001/REC-SVG-20010904/DTD/svg10.dtd">
<svg version="1.0" id="Layer_1" xmlns="http://www.w3.org/2000/svg" xmlns:xlink="http://www.w3.org/1999/xlink" x="0px" y="0px"
	 width="1121px" height="777px" viewBox="0 0 1121 777" enable-background="new 0 0 1121 777" xml:space="preserve">
<g id="ROsWdt_1_">
	<g>
		<path fill="#FFFFFF" d="M645.26,514.992c-0.039,9.205,1.613,18.417,2.645,28.829c6.826-1.284,14.23-1.952,21.158-4.132
			c13.754-4.326,26.703-1.605,39.996,2.133c9.182,2.582,18.795,3.735,28.275,5.114c5.551,0.807,11.266,0.476,16.812,1.292
			c2.955,0.436,6.99-0.221,8.193,4.242c0.109,0.407,1.766,0.551,2.705,0.558c49.49,0.375,98.979,0.722,148.467,1.067
			c0.164,0.001,0.326-0.062,0.488-0.096V195.129H149.086v402.867c255.028,0,509.972,0,764.914-0.002V562H763.543
			c-3.883,9.766-7.863,19.837-11.908,29.883c-0.426,1.06-1.004,2.302-1.891,2.881c-1.568,1.023-3.596,2.436-5.115,2.126
			c-1.406-0.286-3.238-2.507-3.432-4.057c-0.984-7.884-1.695-15.817-2.078-23.755c-0.156-3.257-1.139-4.35-4.383-4.293
			c-10.955,0.192-21.934-0.253-32.865,0.287c-19.188,0.946-38.352,2.375-57.516,3.741c-7.141,0.509-14.238,1.715-21.383,2.046
			c-7.348,0.34-13.402-2.226-16.295-9.745c-21.559,0-43.049-0.093-64.537,0.036c-12.162,0.072-24.325,0.412-36.478,0.874
			c-2.104,0.079-4.363,1.037-6.203,2.159c-8.271,5.037-17.371,5.271-26.484,4.384c-6.325-0.616-13.102-1.093-16.744-7.913
			c-0.31-0.58-1.757-0.704-2.696-0.775c-17.402-1.314-34.801-2.704-52.218-3.787c-4.077-0.254-8.234,0.949-12.331,0.809
			c-13.791-0.472-27.564-1.522-41.356-1.811c-9.139-0.191-18.296,0.66-27.449,0.844c-36.433,0.73-72.868,1.356-109.3,2.081
			c-10.493,0.208-20.981,0.642-31.474,0.915c-2.72,0.071-5.54,0.172-5.587-3.857c-0.046-3.973,2.642-4.004,5.444-4.035
			c30.823-0.335,61.646-0.698,92.47-1.006c8.625-0.086,17.252-0.013,26.016-0.013c0-10.581,0.067-19.837-0.03-29.092
			c-0.043-4.141-0.655-8.28-0.596-12.415c0.2-14.145,0.583-28.285,0.895-42.428c0.007-0.333,0.006-0.667,0-1
			c-0.188-9.992-0.188-9.994,10.124-10.037c2.117-0.009,4.233-0.002,6.35-0.002c0.05-0.443,0.1-0.887,0.15-1.33
			c-1.397-0.246-2.835-0.832-4.184-0.67c-3.727,0.451-6.194-1.572-6.539-4.641c-0.286-2.547,0.583-6.062,2.298-7.83
			c4.269-4.398,5.311-9.383,5.215-15.139c-0.083-4.946,0.473-9.898,0.58-14.852c0.375-17.311,0.733-34.623,0.987-51.936
			c0.133-9.101,0.036-18.205,0.043-27.307c0.003-4.91-0.01-9.83,6.311-12.218c-1.471-0.234-2.935-0.537-4.415-0.69
			c-15.797-1.636-23.071-7.966-27.219-23.376c-3.548-13.178,3.703-37.242,16.803-45.252c20.888-12.773,46.062-2.516,50.792,18.473
			c0.638,2.831-0.056,5.949-0.923,9.119c0,0,0.001,0,0.001-0.001c0.369-0.705,1.068-1.228,2.109-1.228
			c1.027,0,1.723,0.509,2.096,1.2c0.39,0.517,0.537,1.215,0.231,2.048c-0.013,0.036-0.03,0.068-0.043,0.104
			c-0.051,0.162-0.115,0.319-0.196,0.468c-0.88,2-2.307,3.578-3.209,5.551c0.19,0.666,0.096,1.391-0.269,2.001
			c0.195,1.552,1.037,3.109,0.519,4.682c-0.666,2.018-1.951,3.804-2.401,5.878c-0.442,2.037-0.913,3.916-1.735,5.829
			c-0.782,1.818-2.927,1.43-4.027,0.251c-0.195-0.049-0.382-0.134-0.563-0.231c0.016,0.261,0.001,0.528-0.074,0.8
			c-0.236,0.857-0.962,1.528-1.806,1.756c0.076,0.027,0.148,0.064,0.226,0.085c3.105,0.854,1.785,5.678-1.329,4.821
			c-0.559-0.153-1.056-0.403-1.541-0.672c-0.942,0.546-1.889,1.018-2.867,1.093c-2.57,0.198-5.211-0.526-7.796-0.853
			c-1.959,7.288-0.406,12.809,6.002,15.924c9.721,4.727,11.823,13.595,14.059,22.638c0.195,0.789,0.31,1.751,0.042,2.479
			c-4.021,10.95,0.799,21.487,2.725,31.73c1.708,9.087,7.933,17.346,12.35,25.873c0.457,0.883,2.138,1.43,3.317,1.568
			c1.797,0.213,3.657-0.018,5.484-0.146c7.966-0.561,10.244,0.827,14.062,8.994c8.932-1.657,17.922-3.251,26.881-5.004
			c11.87-2.324,21.84,1.346,29.778,10.041c8.376,9.177,17.918,14.407,30.796,12.845c5.808-0.704,9.73,3.185,9.622,8.949
			c-0.146,7.769-1.009,15.522-1.291,23.292c-0.056,1.531,0.671,3.742,1.811,4.562c9.422,6.774,18.893,13.507,28.696,19.7
			c1.806,1.141,5.882,0.735,7.706-0.601c4.754-3.481,8.854-7.859,13.18-11.916c0.967-0.905,1.639-2.203,2.723-2.883
			c1.303-0.817,3.291-1.987,4.271-1.519c1.348,0.646,2.582,2.572,2.902,4.146c1.961,9.614-2.604,16.916-8.811,23.557
			c-1.439,1.542-2.656,3.322-4.227,4.709c-3.528,3.115-6.889,6.625-10.921,8.911c-4.393,2.49-9.149,0.415-12.306-3.459
			c-1.479-1.815-3.732-3.819-5.875-4.141c-11.301-1.697-20.229-6.998-26.941-16.179c-0.156-0.215-0.577-0.236-0.58-0.237
			c-3.577,5.052-7.049,10.054-10.634,14.973c-1.701,2.333-2.303,4.438-1.799,7.608c1.24,7.82,1.745,15.783,2.104,23.708
			c0.163,3.604,0.823,6.198,4.767,6.904c11.166,1.999,22.306,5.557,33.498,5.729c32.314,0.496,64.648-0.422,96.974-0.624
			c3.387-0.021,4.809-1.025,4.945-4.4c0.602-14.923,1.357-29.84,1.932-44.764c0.074-1.947-0.336-4.007-0.953-5.871
			c-4.314-13.016-2.189-26.32-2.094-39.554c0.02-2.727-1.734-5.425-2.047-8.205c-0.498-4.409-0.719-8.885-0.604-13.32
			c0.172-6.624,0.736-13.239,1.189-20.755c-1.859,1.066-2.998,1.555-3.945,2.29c-11.217,8.707-23.285,15.491-37.912,15.92
			c-5.988,0.175-10.096,3.796-14.652,6.756c-9.857,6.403-23.169,0.265-25.077-11.28c-0.322-1.949-2.398-3.735-3.938-5.332
			c-3.414-3.537-7.002-6.906-10.519-10.344c-0.389,0.189-0.776,0.378-1.165,0.566c0,3.012,0.375,6.09-0.147,9.008
			c-0.13,0.727-0.562,1.398-1.094,2.053c0.585-0.096,1.14-0.159,1.622-0.129c3.202,0.202,3.221,5.203,0,5
			c-3.229-0.203-6.719,1.606-9.637-0.592c-1.086-0.817-1.646-2.141-0.897-3.42c0.628-1.073,2.329-1.719,3.42-0.896
			c0.396,0.299,0.875,0.446,1.398,0.504c-0.759-0.736-1.406-1.49-1.542-2.328c-1.03-6.355-2.401-12.873-1.898-19.192
			c0.397-4.989,2.411-10.581,5.59-14.292c1.463-1.708,8.136-0.708,11.17,1.148c3.397,2.078,5.781,6.278,7.838,9.981
			c3.962,7.131,9.749,12.05,16.752,15.874c2.148,1.172,4.541,2.442,5.934,4.324c2.223,2.998,4.793,3.598,7.787,2.207
			c3.074-1.427,7.246-1.718,7.637-6.582c0.1-1.243,1.285-2.611,2.318-3.534c16.004-14.308,28.668-31.366,40.316-49.214
			c1.789-2.742,2.721-6.342,3.104-9.654c1.516-13.15,2.418-26.373,4.029-39.509c0.861-7.008,2.834-13.872,4.07-20.842
			c1.693-9.538,7.506-15.699,15.586-20.372c1.766-1.022,2.781-3.342,4.143-5.064c-0.336-0.481-0.674-0.963-1.01-1.444
			c-2.963,0-6.092,0.597-8.84-0.172c-2.613-0.732-4.828-2.891-7.791-4.789c2.705-1.576,4.449-2.593,6.195-3.61
			c-0.072-0.327-0.145-0.654-0.217-0.98c-2.809-0.228-5.617-0.456-9.119-0.74c1.855-2.65,3.303-4.717,5.35-7.642
			c-3.668,0-6.648,0.443-9.41-0.146c-2.059-0.439-4.006-2.035-5.568-3.56c-0.268-0.26,1.609-2.782,2.561-4.216
			c3.176-4.789,6.381-9.559,9.725-14.558c-3.945-2.4-3.754-5.17-2.289-8.368c5.283-11.525,18.254-23.672,31.014-23.335
			c11.744,0.31,20.477,6.697,24.352,17.692c0.885,0.236,1.775,0.447,2.688,0.59c0.637,0.1,0.365,1.063-0.266,0.964
			c-0.688-0.108-1.363-0.263-2.033-0.432c0.012,0.035,0.025,0.068,0.035,0.103c0.797,2.572,3.75,4.472,5.695,6.694
			c1.314,1.501,2.783,2.912,3.832,4.583c0.586,0.933,1.018,2.827,0.516,3.382c-0.824,0.913-2.539,1.629-3.744,1.461
			c-2.254-0.313-4.41-1.319-7.498-2.328c3.373,6.445,3.965,12.606,2.049,18.938c-2.34,7.738-6.914,12.89-15.18,14.867
			c-2.984,0.713-6.365,2.963-7.85,5.511c-0.834,1.433,1.111,6.042,3.043,7.272c11.824,7.526,15.705,18.669,16.023,31.858
			c0.502,20.809,1.83,41.624,1.533,62.417c-0.25,17.542-2.283,35.06-3.617,52.581c-0.123,1.613-0.506,3.463-1.432,4.714
			c-3.766,5.094-3.445,10.351-2.404,16.348c2.838,16.322-1.604,31.466-10.189,45.194
			C645.594,496.628,645.301,505.846,645.26,514.992z M359.584,293.583c-0.573-0.048-1.01-0.132-1.512-0.425
			c-1.175-0.686-1.585-2.246-0.897-3.42c0.678-1.157,2.192-1.565,3.362-0.923c0.009,0.003,0.017,0.008,0.026,0.012
			c0.01,0.006,0.022,0.008,0.032,0.015c0.015,0.009,0.029,0.017,0.044,0.026c0.844,0.395,1.444,1.169,1.444,2.216
			C362.084,292.36,360.944,293.697,359.584,293.583z"/>
		<path fill-rule="evenodd" clip-rule="evenodd" d="M913.512,554.096c-49.488-0.346-98.977-0.692-148.467-1.067
			c-0.939-0.007-2.596-0.15-2.705-0.558c-1.203-4.463-5.238-3.807-8.193-4.242c-5.547-0.816-11.262-0.485-16.812-1.292
			c-9.48-1.379-19.094-2.532-28.275-5.114c-13.293-3.738-26.242-6.459-39.996-2.133c-6.928,2.18-14.332,2.848-21.158,4.132
			c-1.031-10.412-2.684-19.624-2.645-28.829c0.041-9.146,0.334-18.364,5.637-26.845c8.586-13.729,13.027-28.872,10.189-45.194
			c-1.041-5.997-1.361-11.254,2.404-16.348c0.926-1.251,1.309-3.101,1.432-4.714c1.334-17.521,3.367-35.04,3.617-52.581
			c0.297-20.794-1.031-41.609-1.533-62.417c-0.318-13.189-4.199-24.332-16.023-31.858c-1.932-1.23-3.877-5.84-3.043-7.272
			c1.484-2.548,4.865-4.797,7.85-5.511c8.266-1.977,12.84-7.129,15.18-14.867c1.916-6.333,1.324-12.494-2.049-18.938
			c3.088,1.008,5.244,2.014,7.498,2.328c1.205,0.167,2.92-0.548,3.744-1.461c0.502-0.555,0.07-2.449-0.516-3.382
			c-1.049-1.671-2.518-3.082-3.832-4.583c-1.945-2.222-4.898-4.122-5.695-6.694c-0.01-0.035-0.023-0.068-0.035-0.103
			c-2.848-0.717-5.586-1.803-8.584-1.8c-0.645,0-0.645-1,0-1c2.861-0.003,5.49,0.956,8.195,1.678
			c-3.875-10.995-12.607-17.382-24.352-17.692c-12.76-0.337-25.73,11.81-31.014,23.335c-1.465,3.198-1.656,5.968,2.289,8.368
			c-3.344,5-6.549,9.769-9.725,14.558c-0.951,1.434-2.828,3.956-2.561,4.216c1.562,1.525,3.51,3.121,5.568,3.56
			c2.762,0.588,5.742,0.146,9.41,0.146c-2.047,2.925-3.494,4.991-5.35,7.642c3.502,0.284,6.311,0.512,9.119,0.74
			c0.072,0.327,0.145,0.654,0.217,0.98c-1.746,1.018-3.49,2.035-6.195,3.61c2.963,1.898,5.178,4.057,7.791,4.789
			c2.748,0.769,5.877,0.172,8.84,0.172c0.336,0.481,0.674,0.963,1.01,1.444c-1.361,1.722-2.377,4.042-4.143,5.064
			c-8.08,4.673-13.893,10.833-15.586,20.372c-1.236,6.97-3.209,13.834-4.07,20.842c-1.611,13.136-2.514,26.359-4.029,39.509
			c-0.383,3.312-1.314,6.912-3.104,9.654c-11.648,17.848-24.312,34.906-40.316,49.214c-1.033,0.923-2.219,2.291-2.318,3.534
			c-0.391,4.864-4.562,5.155-7.637,6.582c-2.994,1.391-5.564,0.791-7.787-2.207c-1.393-1.882-3.785-3.152-5.934-4.324
			c-7.004-3.824-12.791-8.743-16.752-15.874c-2.057-3.703-4.44-7.903-7.838-9.981c-3.034-1.857-9.707-2.857-11.17-1.148
			c-3.179,3.711-5.192,9.302-5.59,14.292c-0.503,6.319,0.868,12.837,1.898,19.192c0.136,0.838,0.783,1.592,1.542,2.328
			c1.246,0.14,2.754-0.248,4.093-0.467c0.531-0.654,0.964-1.326,1.094-2.053c0.522-2.918,0.147-5.996,0.147-9.008
			c0.389-0.188,0.776-0.377,1.165-0.566c3.517,3.438,7.104,6.807,10.519,10.344c1.54,1.597,3.616,3.383,3.938,5.332
			c1.907,11.545,15.219,17.684,25.077,11.28c4.557-2.96,8.664-6.581,14.652-6.756c14.627-0.429,26.695-7.213,37.912-15.92
			c0.947-0.735,2.086-1.224,3.945-2.29c-0.453,7.516-1.018,14.131-1.189,20.755c-0.115,4.436,0.105,8.911,0.604,13.32
			c0.312,2.78,2.066,5.479,2.047,8.205c-0.096,13.233-2.221,26.538,2.094,39.554c0.617,1.864,1.027,3.924,0.953,5.871
			c-0.574,14.924-1.33,29.841-1.932,44.764c-0.137,3.375-1.559,4.379-4.945,4.4c-32.326,0.202-64.66,1.12-96.974,0.624
			c-11.192-0.172-22.332-3.729-33.498-5.729c-3.943-0.706-4.604-3.3-4.767-6.904c-0.359-7.925-0.864-15.888-2.104-23.708
			c-0.504-3.17,0.098-5.275,1.799-7.608c3.585-4.919,7.057-9.921,10.634-14.973c0.003,0.001,0.424,0.022,0.58,0.237
			c6.712,9.181,15.641,14.481,26.941,16.179c2.143,0.321,4.396,2.325,5.875,4.141c3.156,3.874,7.913,5.949,12.306,3.459
			c4.032-2.286,7.394-5.796,10.921-8.911c1.57-1.387,2.787-3.167,4.227-4.709c6.207-6.641,10.771-13.942,8.811-23.557
			c-0.32-1.574-1.555-3.5-2.902-4.146c-0.98-0.469-2.969,0.701-4.271,1.519c-1.084,0.68-1.756,1.978-2.723,2.883
			c-4.326,4.057-8.426,8.435-13.18,11.916c-1.824,1.336-5.9,1.741-7.706,0.601c-9.804-6.193-19.274-12.926-28.696-19.7
			c-1.14-0.819-1.866-3.03-1.811-4.562c0.282-7.77,1.145-15.523,1.291-23.292c0.108-5.765-3.814-9.653-9.622-8.949
			c-12.878,1.562-22.42-3.668-30.796-12.845c-7.938-8.695-17.909-12.365-29.778-10.041c-8.959,1.753-17.949,3.347-26.881,5.004
			c-3.818-8.167-6.096-9.555-14.062-8.994c-1.828,0.129-3.687,0.359-5.484,0.146c-1.18-0.139-2.861-0.686-3.317-1.568
			c-4.417-8.527-10.642-16.786-12.35-25.873c-1.926-10.244-6.746-20.781-2.725-31.73c0.268-0.728,0.153-1.689-0.042-2.479
			c-2.236-9.043-4.338-17.912-14.059-22.638c-6.409-3.116-7.962-8.636-6.002-15.924c2.584,0.327,5.226,1.051,7.796,0.853
			c0.978-0.075,1.925-0.546,2.867-1.093c-0.49-0.271-0.971-0.554-1.466-0.817c-2.048,0.091-3.975,0.281-5.756-0.135
			c-3.598-0.841-6.188-0.644-6.444,4.018c-8.495-7.993-9.483-17.17-4.006-27.854c4.033-7.866,19.11-16.679,27.708-12.785
			c2.287,5.826-3.385,10.47-3.688,14.938c0.279-0.103,0.571-0.145,0.861-0.157c0.017-0.671,0.208-1.313,0.514-1.906
			c0.49-2.959,2.815-4.988,3.904-7.955c0.098-0.267,0.234-0.489,0.384-0.689c0.867-3.17,1.562-6.288,0.923-9.119
			c-4.73-20.989-29.904-31.246-50.792-18.473c-13.1,8.01-20.351,32.074-16.803,45.252c4.148,15.41,11.422,21.74,27.219,23.376
			c1.479,0.153,2.943,0.457,4.415,0.69c-6.321,2.389-6.308,7.309-6.311,12.218c-0.007,9.103,0.09,18.207-0.043,27.307
			c-0.253,17.313-0.611,34.625-0.987,51.936c-0.107,4.953-0.663,9.905-0.58,14.852c0.096,5.756-0.946,10.74-5.215,15.139
			c-1.716,1.768-2.584,5.283-2.298,7.83c0.345,3.068,2.812,5.092,6.539,4.641c1.348-0.162,2.787,0.424,4.184,0.67
			c-0.05,0.443-0.1,0.887-0.15,1.33c-2.117,0-4.233-0.007-6.35,0.002c-10.311,0.043-10.311,0.045-10.124,10.037
			c0.006,0.333,0.007,0.667,0,1c-0.312,14.143-0.695,28.283-0.895,42.428c-0.059,4.135,0.553,8.274,0.596,12.415
			c0.097,9.255,0.03,18.511,0.03,29.092c-8.763,0-17.39-0.073-26.016,0.013c-30.824,0.308-61.647,0.671-92.47,1.006
			c-2.802,0.031-5.491,0.062-5.444,4.035c0.047,4.029,2.867,3.929,5.587,3.857c10.492-0.273,20.98-0.707,31.474-0.915
			c36.433-0.725,72.868-1.351,109.3-2.081c9.153-0.184,18.31-1.035,27.449-0.844c13.792,0.288,27.566,1.339,41.356,1.811
			c4.097,0.141,8.254-1.062,12.331-0.809c17.417,1.083,34.816,2.473,52.218,3.787c0.939,0.071,2.386,0.195,2.696,0.775
			c3.643,6.82,10.419,7.297,16.744,7.913c9.113,0.887,18.213,0.653,26.484-4.384c1.84-1.122,4.1-2.08,6.203-2.159
			c12.153-0.462,24.316-0.802,36.478-0.874c21.488-0.129,42.979-0.036,64.537-0.036c2.893,7.52,8.947,10.085,16.295,9.745
			c7.145-0.331,14.242-1.537,21.383-2.046c19.164-1.366,38.328-2.795,57.516-3.741c10.932-0.54,21.91-0.095,32.865-0.287
			c3.244-0.057,4.227,1.036,4.383,4.293c0.383,7.938,1.094,15.871,2.078,23.755c0.193,1.55,2.025,3.771,3.432,4.057
			c1.52,0.31,3.547-1.103,5.115-2.126c0.887-0.579,1.465-1.821,1.891-2.881c4.045-10.046,8.025-20.117,11.908-29.883H914v-8
			C913.838,554.033,913.676,554.097,913.512,554.096z M540.367,480.385c1.08-0.699,2.607-0.705,3.932-1.024
			c0.449,2.192,1.887,4.798,1.176,6.507c-3.143,7.543-6.393,14.963-12.932,20.674c-3.344,2.92-4.959,7.834-9.979,9.035
			c-3.882,0.928-7.594,1.234-9.959-3.188c11.167-2.776,20.206-8.405,26.012-18.487c1.393-2.418,3.027-4.852,0.621-7.705
			C537.32,483.923,538.164,481.812,540.367,480.385z M513.931,497.788c2.31,1.496,7.195,0.719,10.045-0.708
			c4.626-2.318,8.549-6.036,13.204-9.484c-1.371,7.488-6.361,12.014-11.727,16.057c-12.856,9.688-37.064,2.523-44.571-9.83
			c-1.721-2.834-2.3-5.181-0.792-8.272c1.633-3.349,2.729-6.958,3.679-9.454C493.827,483.456,503.582,491.082,513.931,497.788z
			 M388.152,425.488c8.816-1.727,17.631-3.456,26.438-5.231c12.287-2.478,22.442,0.664,30.956,10.269
			c5.646,6.369,12.599,11.426,21.388,12.932c2.606,0.447,5.367,0.934,7.923,0.537c4.724-0.731,6.349,1.898,6.048,5.582
			c-0.629,7.711-1.058,15.593-3.045,23.01c-4.132,15.418-11.067,29.516-23.428,40.261c-0.039,0.033-0.084,0.061-0.125,0.092
			c-0.764,0.781-1.71,1.446-2.648,2.013c-2.135,2.138-4.722,3.911-7.424,4.288c-9.151,5.077-16.865,1.771-21.686-7.988
			c-6.214-12.583-3.839-25.722-4.64-38.704c-0.283-4.578-1.03-9.217-2.346-13.594c-0.497-1.651-3.166-3.713-4.899-3.764
			c-14.453-0.428-28.921-0.644-43.38-0.489c-10.626,0.114-21.247,0.864-31.868,1.376c-1.605,0.076-3.199,0.4-5.061,0.645
			c-0.856-1.254-1.771-2.594-2.976-4.356c7.489-1.986,13.258-5.851,14.442-13.498c1.061-6.853-0.089-13.605-5.123-18.75
			c3.361-4.862,6.305-4.548,10.824-1.462C359.854,427.074,373.75,428.308,388.152,425.488z M318.993,455.701
			c-0.527-1.363-1.06-2.725-1.811-4.656c0.996,0.217,1.683,0.159,1.872,0.438c3.937,5.818,8.185,11.477,11.47,17.648
			c0.914,1.717-0.264,6.181-1.887,7.248c-2.751,1.809-6.619,1.917-10.018,2.74c-0.339-2.181-1.333-4.504-0.893-6.515
			C318.954,466.993,321.255,461.551,318.993,455.701z M343.839,391.193c3.199,4.604,6.744,9.23,9.759,14.178
			c2.935,4.817,5.328,9.965,8.229,15.481C342.683,415.027,338.571,406.328,343.839,391.193z M379.744,415.355
			c1.338-0.033,2.749,2.797,4.739,4.986c-10.833,2.625-17.961,1.768-20.453-1.969C368.225,412.303,374.434,415.488,379.744,415.355z
			 M352.906,384.913c4.145,8.536,8.334,16.829,12.097,25.312c0.506,1.141-1.142,3.236-2.069,5.594
			c-5.679-9.443-10.649-17.708-15.751-26.191C348.885,388.225,350.619,386.797,352.906,384.913z M328.381,315.815
			c0.943,2.965,1.864,5.857,3.233,10.16c-3.978-1.742-7.349-3.219-12.089-5.295C323.453,318.522,326.014,317.116,328.381,315.815z
			 M295.878,303.458c-3.924-6.758-5.481-13.994-3.95-21.603c2.067-10.272,4.052-20.792,13.775-27.175
			c14.048-9.223,33.914-6.97,43.752,8.729c0.928,1.48,1.32,3.297,2.106,5.334c-29.163,1.844-42.869,22.198-30.321,43.751
			C312.778,315.843,300.485,311.392,295.878,303.458z M315.926,409.015c0.208-7.823-0.15-15.662,0.103-23.482
			c0.408-12.6,1.355-25.184,1.61-37.785c0.15-7.438-0.594-14.895-0.992-23.562c2.612,0.888,4.276,1.583,6.006,2.015
			c3.593,0.896,7.231,1.608,10.83,2.483c2.188,0.532,5.234,0.528,6.351,1.965c5.467,7.035,9.314,14.824,7.961,24.674
			c-3.718-2.359-5.994-4.708-5.977-9.457c0.024-6.557-4.444-10.43-10.175-12.801c-2.548-1.054-5.231-1.781-8.873-2.038
			c1.244,1.483,2.192,3.549,3.78,4.352c8.745,4.423,11.187,8.564,10.457,18.349c-0.112,1.503-0.036,3.942,0.784,4.376
			c1.205,0.637,3.16-0.142,5.992-0.446c0.985,5.029,2.133,10.77,3.217,16.523c0.244,1.295-0.047,2.767,0.449,3.925
			c1.351,3.15-0.141,5.001-2.805,5.739c-3.532,0.978-3.928-2.055-4.633-4.429c-0.835-2.819-1.66-5.641-2.838-9.648
			c-1.979,2.426-2.887,3.54-3.973,4.871c-6.362-5.096-8.041-11.874-6.915-19.8c0.17-1.198-0.835-2.562-1.297-3.85
			c-0.669,1.089-1.789,2.124-1.928,3.277c-0.514,4.259-1.277,8.611-0.885,12.83c0.651,7.017,5.882,11.245,10.968,15.346
			c0.89,0.717,2.028,1.167,2.809,1.974c2.968,3.069,4.552,6.06,2.749,10.884c-1.355,3.626-0.485,8.12-0.424,12.224
			c0.029,1.979,1.406,4.891,0.549,5.737c-2.12,2.095-5.138,4.44-7.863,4.527c-6.138,0.194-10.894,2.479-16.26,6.349
			C315.131,419.097,315.792,414.062,315.926,409.015z M313.213,448.133c-1.048,0.815-2.256,1.386-3.6,1.46
			c-1.223,0.067-2.788-1.073-3.347-2.126c-0.679-1.279-0.933-2.776-0.336-4.131c0.488-1.107,1.471-1.789,2.61-2.007
			c1.011-0.293,2.223-0.132,3.199,0.566c1.012,0.724,1.963,1.611,2.335,2.842C314.418,445.878,314.217,447.351,313.213,448.133z
			 M311.981,437.54c-0.543-0.354-1.085-0.709-1.628-1.063c4.364-4.537,8.326-9.576,13.199-13.479
			c5.671-4.543,13.619,0.268,14.452,8.254c1.197,11.477-6.996,18.069-18.221,14.594c-0.827-0.256-1.56-1.039-2.17-1.725
			C315.692,441.965,313.852,439.738,311.981,437.54z M389.287,548.334h-35.792V502.23h35.792V548.334z M438.571,553.051
			c-7.251-0.428-13.985-0.863-20.723-1.211c-6.301-0.326-12.609-0.777-18.911-0.744c-3.401,0.019-5.019-1.056-5.007-4.476
			c0.03-8.597,0.157-17.195-0.004-25.788c-0.124-6.625-0.734-13.239-0.919-19.863c-0.107-3.844-3.176-3.543-5.324-3.75
			c-3.79-0.367-7.65-0.098-11.477,0.02c-7.31,0.227-14.615,0.646-21.925,0.758c-3.718,0.057-5.448,1.31-5.313,5.309
			c0.464,13.781,0.667,27.569,1.062,41.353c0.077,2.676-0.235,4.661-3.578,4.562c-0.797-0.023-1.6,0.527-2.413,0.572
			c-13.747,0.755-27.495,1.472-42.303,2.253v-93.075h14.827c-1.053,4.635-1.813,9.368-3.225,13.898
			c-2.718,8.727,1.522,13.691,10.523,11.956c11.684-2.253,15.255-8.425,11.449-19.788c-0.52-1.551-1.036-3.104-2.017-6.041
			c9.737,0,18.835-0.022,27.933,0.006c12.303,0.037,24.61,0.317,36.909,0.114c12.259-0.202,12.471-0.437,14.088,11.542
			c0.681,5.047,0.752,10.301,0.204,15.364c-1.477,13.63,3.064,25.62,10.001,36.735c1.532,2.456,6.076,3.387,9.431,4.238
			c2.638,0.669,5.581,0.135,8.144,0.135C439.527,535.744,439.064,544.117,438.571,553.051z M445.918,551.793
			c-0.626-7.864-1.396-15.525-1.697-23.203c-0.052-1.322,1.883-2.724,3.777-3.852c-2.35,10.392-1.244,19.396,8.644,27.055H445.918z
			 M458.581,549.752c-5.352-2.34-8.39-12.334-7.577-19.701c0.709-6.422,3.793-10.518,10.784-14.043
			c0.431,7.738,1.069,14.932,1.18,22.133c0.192,12.521,1.107,13.723,13.811,15.897c2.386,0.408,4.748,0.95,7.122,1.431
			c0.004,0.443,0.008,0.886,0.013,1.328c-2.283,0-4.75,0.564-6.816-0.105C470.831,554.658,464.615,552.389,458.581,549.752z
			 M494.61,561.809c-7.3,4.129-15.302,3.633-23.198,2.721c-3.012-0.348-6.044-1.559-8.766-2.961c-1.419-0.73-2.185-2.732-3.245-4.16
			c0.386-0.37,0.771-0.74,1.157-1.109c7.787,3.982,16.05,4.93,24.533,3.617c2.161-0.336,4.076-2.189,6.243-2.592
			c1.698-0.314,3.611,0.538,5.429,0.872C496.062,559.43,495.669,561.209,494.61,561.809z M640.805,199.475
			c7.547-2.045,16.768,1.821,21.734,9.55c-2.939,0-5.59-0.349-8.086,0.125c-1.621,0.308-3.014,1.813-4.51,2.783
			c1.285,0.995,2.426,2.367,3.879,2.917c5.049,1.91,10.227,3.476,15.299,5.329c0.777,0.284,1.256,1.386,1.482,1.652
			c-3.016,0.676-6.023,1.351-9.031,2.026c1.154,2.68,2.188,5.419,3.484,8.028c3.994,8.042,0.096,21.019-7.279,24.19
			c-2.967-6.603-5.723-13.309-8.949-19.779c-5.197-10.418-13.164-14.236-26.635-12.694c-1.623,0.185-3.252,0.301-4.922,0.453
			C617.57,214.621,629.248,202.608,640.805,199.475z M635.557,274.535c0.967-1.893,1.885-4.6,1.205-6.314
			c-0.633-1.598-3.258-2.861-5.238-3.365c-3.123-0.794-6.439-0.829-10.1-1.232c1.938-2.724,3.375-4.742,5.355-7.525
			c-3.709,0.36-6.359,0.618-9.07,0.882c0.264-6.485,7.658-9.321,7.059-15.939c-4.52,5.821-9.861,7.283-16.006,5.151
			c2.748-5.374,5.748-10.458,7.967-15.862c1.443-3.516,3.779-3.71,6.637-3.252c15.201,2.436,26.416,14.431,27.564,29.864
			c0.121,1.608-1.617,3.917-3.139,4.976c-4.008,2.789-5.564,5.977-3.412,10.599c1.158,2.492,0.121,4.166-2.232,5.13
			c-3.398,1.392-6.73,3.711-11.326,0.951C632.912,276.879,634.809,276,635.557,274.535z M511.221,392.72
			c0.522-0.354,1.046-0.708,1.569-1.062c7.268,8.873,14.534,17.746,21.862,26.693c-2.391,2.099-6.32,1.966-8.984-1.75
			c-5.116-7.134-9.679-14.666-14.412-22.069C510.979,394.098,511.221,393.332,511.221,392.72z M506.034,423.637
			c-0.734,1.253-2.188,1.477-3.42,0.896c-1.565-0.735-1.56-3.163-1.709-4.591c-0.155-1.479-0.249-2.964-0.404-4.442
			c-0.013-0.123,0-0.241,0.011-0.359c-0.051-1.005-0.083-2.012-0.243-3.008c-0.053-0.334,0.191-0.561,0.448-0.612
			c0.147-0.277,0.51-0.431,0.763-0.124c0.864,1.046,2.164,1.457,3.274,2.172c0.185,0.119,0.241,0.298,0.222,0.468
			c0.286,0.416,0.468,0.921,0.525,1.464c0.124,1.186,0.199,2.376,0.315,3.562c0.038,0.387,0.075,0.774,0.12,1.161
			c0.001,0.014,0.053,0.388,0.066,0.499c0.023,0.153,0.051,0.308,0.083,0.46C506.461,421.944,506.451,422.926,506.034,423.637z
			 M522.401,423.469c-2.015-2.185-3.376-5.001-5.504-7.041c-2.226-2.137-4.796-4.225-7.609-5.361
			c-3.858-1.558-6.859-3.602-7.448-7.819c-0.653-4.687,1.572-8.219,4.631-10.571c5.301,8.031,10.349,15.92,15.651,23.634
			c3.746,5.448,9.373,6.53,16.117,5.015c2.121-0.477,4.943,2.162,7.855,3.574C539.867,431.211,528.421,429.997,522.401,423.469z
			 M563.125,429.84c-6.439,0.254-11.629,3.145-16.598,7.05c-6.566,5.163-12.834,3.79-18.198-3.788
			c13.77,4.838,22.715-6.181,34.049-9.379c1.191,1.393,2.498,2.922,4.473,5.232C564.973,429.415,564.055,429.803,563.125,429.84z
			 M606.971,445.53c0.293-10.474,0.57-20.946,0.93-31.417c0.031-0.918,0.408-1.979,0.975-2.699
			c3.791-4.812,8.201-9.222,11.426-14.379c6.838-10.937,13.473-22.042,19.449-33.466c6.611-12.632,12.17-25.801,13.52-40.238
			c0.631-6.764,0.75-13.581,0.912-20.378c0.02-0.817-1.139-1.662-1.75-2.493c-0.527,0.168-1.055,0.337-1.582,0.506
			c0,2.599,0.045,5.199-0.008,7.797c-0.311,15.421-3.35,30.132-10.662,43.907c-5.281,9.949-9.518,20.479-15.17,30.198
			c-11.404,19.611-26.172,35.909-47.803,44.777c-3.299,1.353-6.42,2.741-8.328-1.565c-1.586-3.58-5.834-6.256-0.57-11.328
			c22.189-21.38,40.992-45.372,52.033-74.557c3.008-7.949,4.762-16.371,7.092-24.576c-0.801-0.262-1.602-0.523-2.402-0.784
			c-1.002,2.261-2.191,4.458-2.971,6.793c-3.227,9.645-6.328,19.332-9.477,29.003c-0.602-0.131-1.201-0.262-1.803-0.394
			c0.404-5.804,0.572-11.637,1.268-17.406c1.127-9.349,2.172-18.745,4.076-27.949c1.299-6.269,3.756-12.349,6.191-18.31
			c1.258-3.08,3.275-4.732,7.77-3.997c4.75,0.777,10.404-0.137,14.799-2.175c3.934-1.824,6.373-1.153,7.842,1.768
			c3.166,6.298,6.816,12.745,8.033,19.531c1.51,8.411,0.973,17.229,0.934,25.869c-0.08,17.651-0.457,35.302-0.629,52.953
			c-0.092,9.459-0.125,18.921,0.02,28.379c0.215,14.116-5.855,23.954-18.832,29.924c-9.801,4.51-19.098,10.072-30.26,10.871
			C608.49,449.945,606.871,449.059,606.971,445.53z M738.604,560.781c-3.389,0.249-6.658,0.574-9.934,0.717
			c-13.918,0.604-27.838,1.166-41.76,1.719c-10.637,0.422-21.273,0.972-31.916,1.15c-7.283,0.122-14.576-0.404-21.865-0.42
			c-2.961-0.006-5.951,0.41-8.879,0.924c-7.582,1.332-12.521-2.437-12.186-10.023c0.262-5.941,1.363-11.84,1.938-17.773
			c1.639-16.955,0.99-33.631-2.457-50.523c-2.148-10.521-0.398-21.838-0.398-32.631c16.805,0.365,30.236-9.408,44.617-16.723
			c4.389,7.57,1.469,15.314-0.016,23.031c-1.908,9.902-5.939,18.918-11.15,27.532c-5.031,8.317-4.957,17.85-4.799,27.085
			c0.164,9.597,1.457,19.172,2.197,28.762c0.283,3.689,1.436,5.614,5.271,3.057c0.273-0.182,0.568-0.41,0.877-0.455
			c11.891-1.76,23.766-4.623,35.688-4.836c7.59-0.137,15.197,3.898,22.893,5.639c10.779,2.436,21.646,4.475,32.84,6.757
			C739.346,555.356,739,557.894,738.604,560.781z M745.885,590.165c-0.373-7.647-0.783-13.751-0.938-19.861
			c-0.148-5.877-0.031-11.761-0.031-17.786h13.281C755.258,565.396,754.537,578.205,745.885,590.165z"/>
		<path fill-rule="evenodd" clip-rule="evenodd" fill="#FFFFFF" d="M328.712,313.804c-0.218-0.205-0.43-0.41-0.638-0.617"/>
		<path fill-rule="evenodd" clip-rule="evenodd" fill="#FFFFFF" d="M361.828,420.853c-19.145-5.825-23.257-14.524-17.988-29.66
			c3.199,4.604,6.744,9.23,9.759,14.178C356.533,410.188,358.926,415.336,361.828,420.853z"/>
		<path fill-rule="evenodd" clip-rule="evenodd" fill="#FFFFFF" d="M456.642,551.793c-4.608,0-7.507,0-10.724,0
			c-0.626-7.864-1.396-15.525-1.697-23.203c-0.052-1.322,1.883-2.724,3.777-3.852C445.648,535.13,446.754,544.135,456.642,551.793z"
			/>
		<path fill-rule="evenodd" clip-rule="evenodd" d="M301.674,279.301c-1.248-11.952,7.354-23.691,15.674-20.818
			C309.315,263.59,304.064,270.386,301.674,279.301z"/>
		<path fill-rule="evenodd" clip-rule="evenodd" d="M327.122,265.881c-8.236,4.26-11.573,11.885-14.182,20.034
			C311.397,275.451,318.268,265.538,327.122,265.881z"/>
		<path fill-rule="evenodd" clip-rule="evenodd" d="M633.928,236.706c-0.516-1.616-2.156-2.874-4.035-5.089
			c-1.691,2.264-3.725,4.252-3.422,4.716c0.969,1.486,2.68,2.923,4.357,3.327C631.645,239.857,634.139,237.362,633.928,236.706z
			 M631.557,236.752c-0.254,0.489-0.832,1.074-1.377,0.633c-0.484-0.08-0.973-0.398-1.055-0.825
			c-0.078-0.153-0.115-0.327-0.062-0.535c0.055-0.22,0.223-0.441,0.439-0.603c0.006-0.042,0.031-0.078,0.049-0.117
			c0.006-0.013,0.008-0.025,0.016-0.037c0.029-0.057,0.064-0.1,0.113-0.141c0.033-0.031,0.072-0.049,0.111-0.069
			c0.023-0.009,0.035-0.032,0.061-0.037c0.006-0.001,0.01-0.002,0.016-0.003c0.002,0,0.006,0,0.008,0
			c0.02-0.006,0.039-0.009,0.061-0.012c0.143-0.179,0.348-0.286,0.643-0.221c0.295,0.064,0.545,0.305,0.725,0.602
			c0.025,0.018,0.045,0.043,0.074,0.057c0.213,0.094,0.277,0.266,0.254,0.435C631.729,236.138,631.715,236.45,631.557,236.752z"/>
	</g>
</g>
<path fill-rule="evenodd" clip-rule="evenodd" d="M344.125,280.149c-2.315-1.435-5.932-0.715-8.049,0.813
	c-0.49-0.217-0.887-0.728-1.306-1.066c-0.497-0.401-1.209,0.302-0.707,0.707c0.531,0.429,1.011,0.938,1.57,1.232
	c-0.199,0.25-0.366,0.517-0.512,0.793c-0.076,0.015-0.152,0.044-0.224,0.101c-0.571,0.449-1.533,0.26-2.181,0.122
	c-0.629-0.135-0.896,0.829-0.266,0.964c0.731,0.157,1.513,0.249,2.226,0.066c-0.073,0.354-0.103,0.712-0.085,1.067
	c-0.615,0.402-1.266,0.791-2.007,0.885c-0.631,0.08-0.639,1.081,0,1c0.814-0.104,1.522-0.422,2.207-0.835
	c0.24,0.698,0.698,1.348,1.418,1.875c2.432,1.782,6.401,0.857,8.528-0.931C346.911,285.114,346.434,281.579,344.125,280.149z
	 M344.664,285.5c-0.906,1.602-3.071,2.223-4.952,2.24c-0.029,0.001-0.057,0.009-0.087,0.01c-0.049,0-0.094-0.004-0.143-0.004h-0.008
	v0c-0.864-0.003-1.625-0.136-2.423-0.524c-0.298-0.145-0.538-0.37-0.731-0.633c-0.764-0.881-0.863-2.128-0.379-3.246
	c0.07-0.315,0.169-0.616,0.361-0.932c0.309-0.512,0.658-0.785,1.125-1.139c0.48-0.364,1.083-0.58,1.66-0.744
	c0.388-0.11,0.781-0.106,1.156-0.026c0.003,0,0.006-0.001,0.009-0.001c0.002,0,0.005,0.001,0.007,0.001
	c0.517-0.051,1.038-0.068,1.559-0.029C344.378,280.668,345.997,283.144,344.664,285.5z"/>
<path fill-rule="evenodd" clip-rule="evenodd" d="M349.712,288.96c-0.068-0.235-0.115-0.474-0.128-0.71
	c-0.033-0.582,0.078-1.145,0.279-1.676c-0.196-0.289-0.765-0.317-0.928,0.127c-0.448,1.22-0.227,2.463,0.03,3.706
	c0.288,1.397,0.86,2.677,0.615,4.156c-0.241,1.453-1.902,1.801-2.876,2.48c-1.646,1.147,0.264,4.172-0.301,5.498
	c-0.1,0.08-0.166,0.202-0.151,0.375c0.035,0.431-2.034,0.387-2.293,0.394c-1.566,0.042-2.829-0.711-3.854-1.831
	c-0.11-0.121-0.329-0.188-0.486-0.128c-0.451,0.17-0.92,0.32-1.401,0.167c-0.616-0.197-0.877,0.769-0.266,0.964
	c0.309,0.099,0.573,0.099,0.819,0.086c0.093,2.063,1.612,4.108,3.863,4.097c0.328-0.001,1.731-0.557,1.801,0.177
	c0.05,0.526-0.623,1.159-0.933,1.485c-0.214,0.225-0.482,0.475-0.775,0.716c-0.034,0.008-0.064,0.021-0.096,0.036
	c-0.109,0.001-0.22,0.036-0.316,0.152c-0.241,0.29-0.575,0.43-0.935,0.516c-0.111-0.039-0.238-0.028-0.37,0.067
	c-0.248,0.04-0.495,0.074-0.725,0.122c-0.167,0.035-0.25,0.133-0.301,0.248c-0.357-0.002-0.66-0.015-0.816-0.016
	c-0.645-0.001-0.645,0.999,0,1c1.171,0.002,3.507,0.129,4.051-1.191c1.029-0.755,1.895-1.79,2.176-2.792
	c0.197-0.702-0.249-1.397-0.901-1.645c-0.554-0.21-1.007-0.065-1.573,0.069c-1.797,0.429-2.972-1.417-3.146-2.927
	c0.114,0.057,0.231,0.129,0.354,0.244c0.761,0.709,1.836,1.189,2.864,1.31c0.901,0.106,3.451,0.394,4.104-0.645
	c1.593-1.338-1.628-4.47,0.597-6.021c1.575-1.097,2.598-1.206,2.957-3.372C350.943,292.418,349.935,290.711,349.712,288.96z"/>
<path d="M340.375,280.812c0.64-0.043,0.644-1.043,0-1c-3.59,0.241-4.232,8.809-0.188,8.5c0.639-0.049,0.644-1.049,0-1
	C337.5,287.518,338.103,280.965,340.375,280.812z"/>
<path d="M450.815,517.633c0.099-0.631-0.864-0.901-0.964-0.267c-0.699-0.405-2.083-1.916-2.981-2.935
	c1.183-0.975,2.23-2.111,3.062-3.347c0.361-0.536-0.505-1.036-0.863-0.504c-0.767,1.14-1.745,2.198-2.848,3.105
	c-0.05-0.058-0.11-0.128-0.139-0.161c-0.796-0.92-1.469-1.943-2.081-2.998c1.366-1.006,2.614-2.188,3.687-3.174
	c0.476-0.438-0.233-1.143-0.707-0.707c-0.964,0.886-2.152,2.041-3.459,3.027c-0.081-0.148-0.166-0.296-0.245-0.445
	c-0.611-1.147-1.166-2.324-1.7-3.51c1.206-0.615,2.351-1.396,3.509-2.12c0.545-0.341,0.043-1.206-0.505-0.863
	c-1.125,0.703-2.241,1.49-3.423,2.095c-0.551-1.137-1.487-3.099-1.06-3.911c0.3-0.569-0.563-1.075-0.863-0.504
	c-0.529,1.004,0.124,2.41,0.465,3.367c0.175,0.49,0.366,0.977,0.567,1.459c-0.918,0.375-1.885,0.61-2.933,0.592
	c-0.645-0.012-0.644,0.988,0,1c1.197,0.021,2.29-0.26,3.329-0.692c0.484,1.081,1.008,2.146,1.543,3.194
	c0.159,0.311,0.331,0.611,0.5,0.915c-1.506,1.001-3.132,1.685-4.739,1.435c-0.63-0.098-0.901,0.866-0.266,0.965
	c1.923,0.299,3.786-0.444,5.49-1.557c0.672,1.116,1.432,2.172,2.261,3.183c-1.016,0.73-2.113,1.334-3.25,1.742
	c-0.603,0.217-0.343,1.183,0.266,0.965c1.271-0.456,2.487-1.127,3.608-1.938c0.936,1.096,3.245,3.791,4.379,3.383
	c0.274-0.099,0.402-0.331,0.35-0.615C450.807,517.752,450.812,517.692,450.815,517.633z"/>
<path d="M366.947,412.912c-2.525-3.953-4.008-8.926-6.225-13.125c-2.931-5.553-5.241-11.479-7.341-17.386
	c-0.429-1.207-2.362-0.687-1.929,0.531c1.783,5.013,3.806,9.91,6.025,14.744c1.204,2.622,2.604,5.141,3.924,7.704
	c1.397,2.715,2.064,5.63,3.643,8.24c0.043,0.145,0.116,0.288,0.249,0.42c0.028,0.027,0.056,0.056,0.083,0.083
	C366.172,414.915,367.569,413.886,366.947,412.912z"/>
<path d="M306.266,447.467c-0.129-0.242-0.236-0.494-0.332-0.75c-0.002-0.006-0.004-0.012-0.006-0.018
	c-0.296-0.802-0.411-1.653-0.26-2.484c0.023-0.222,0.052-0.428,0.093-0.59c0.479-1.894,1.988-2.876,3.65-3.605
	c1.179-0.517,0.16-2.24-1.01-1.727c-2.446,1.073-4.032,2.68-4.704,5.334c-0.456,1.803,0.247,4.469,1.766,5.564
	c0.736,0.53,1.444-0.167,1.443-0.888C306.64,448.034,306.415,447.748,306.266,447.467z"/>
<path d="M538.016,417.953c-5.308-1.673-10.058-9.358-13.31-13.579c-3.688-4.786-7.315-9.534-11.916-13.498
	c-0.972-0.837-2.393,0.571-1.414,1.414c5.354,4.613,9.406,10.31,13.738,15.844c3.235,4.133,7.138,10.098,12.37,11.746
	C538.718,420.271,539.241,418.339,538.016,417.953z"/>
<g>
</g>
<g>
</g>
<g>
</g>
<g>
</g>
<g>
</g>
<g>
</g>
</svg>
