<?xml version="1.0" encoding="utf-8"?>
<!-- Generator: Adobe Illustrator 16.0.0, SVG Export Plug-In . SVG Version: 6.00 Build 0)  -->
<!DOCTYPE svg PUBLIC "-//W3C//DTD SVG 1.0//EN" "http://www.w3.org/TR/2001/REC-SVG-20010904/DTD/svg10.dtd">
<svg version="1.0" id="Layer_1" xmlns="http://www.w3.org/2000/svg" xmlns:xlink="http://www.w3.org/1999/xlink" x="0px" y="0px"
	 width="640px" height="960px" viewBox="0 0 640 960" enable-background="new 0 0 640 960" xml:space="preserve">
<g id="IFWVMO_1_">
	<g>
		<path d="M286.595,154.891c5.195,0,10.393,0,15.589,0c5.965,2.654,11.93,5.308,17.813,7.926c5.887-2.619,11.853-5.272,17.816-7.926
			c5.197,0,10.394,0,15.59,0c7.067,3.832,10.353,10.076,10.909,17.12c0.713,9.036-2.702,16.79-11.493,21.853
			c-4.849,2.792-9.646,5.66-15.766,9.256c2.613,0.146,3.352,0.252,4.084,0.22c33.326-1.49,66.046,2.338,98.403,9.5
			c27.197,6.02,52.565,15.831,76.479,29.391c24.657,13.981,47.227,30.139,66.492,50.076c5.533,5.724,10.431,12.067,14.902,18.552
			c9.524,13.815,19.196,27.599,27.597,42.001c5.253,9.007,8.297,19.117,12.333,28.732c0,2.747,0,5.496,0,8.243
			c-0.307,0.41-0.817,0.791-0.891,1.233c-3.467,21.288-6.87,42.584-10.343,63.872c-3.388,20.781-6.811,41.557-10.277,62.327
			c-3.553,21.274-7.233,42.527-10.748,63.808c-3.545,21.448-6.919,42.926-10.438,64.381c-3.936,23.982-7.72,47.993-12.031,71.917
			c-1.964,10.901-4.268,21.851-7.802,32.382c-4.453,13.272-14.125,22.651-28.695,27.248c-2.781,0.877-5.4,2.186-8.152,3.149
			c-13.113,4.601-25.96,10.136-39.436,13.5c-24.19,6.039-49.019,8.904-74.132,9.485c-6.979,0.163-13.927,1.289-20.889,1.973
			c-55.675,0-111.35,0-167.024,0c-1.597-0.371-3.175-0.969-4.792-1.078c-15.882-1.099-31.815-1.72-47.646-3.244
			c-21.39-2.059-42.545-5.51-62.638-13.008c-10.787-4.028-21.524-8.197-32.086-12.704c-8.519-3.631-15.338-8.771-19.993-16.97
			c-5.715-10.064-8.836-20.525-10.59-31.588c-3.38-21.299-6.925-42.575-10.414-63.861c-3.461-21.117-6.924-42.234-10.412-63.349
			c-3.569-21.616-7.158-43.228-10.755-64.841c-3.176-19.079-6.401-38.153-9.556-57.235c-3.519-21.281-6.929-42.578-10.498-63.852
			c-1.321-7.872-2.961-15.698-4.455-23.545c0-2.748,0-5.496,0-8.243c0.399-0.477,1.008-0.9,1.168-1.437
			c6.547-22.032,17.368-42.322,31.627-60.747c14.082-18.196,28.634-36.05,47.885-50.388c28.959-21.57,59.66-40.104,95.312-50.357
			c37.616-10.818,76.121-17.107,115.779-15.332c2.293,0.103,4.596,0.013,6.896,0.013c-5.018-4.172-10.212-7.343-15.499-10.379
			c-6.988-4.015-9.607-10.464-10.165-17.375C274.969,167.024,278.496,159.776,286.595,154.891z M578.547,403.291
			c27.436-0.04,33.836-2.369,47.615-18.289c1.501-1.732,2.129-5.052,1.523-7.252c-5.136-18.708-14.849-35.618-27.563-50.573
			c-13.604-16.001-29.237-30.517-43.761-45.863c-9.209-9.731-20.848-16.365-32.556-22.979c-4.899-2.769-9.937-5.336-14.763-8.206
			c-34.847-20.711-73.039-32.122-114.236-34.815c-20.963-1.371-41.972-2.242-62.977-2.928c-16.236-0.531-32.521-0.986-48.744-0.435
			c-15.145,0.514-30.272,2.112-45.342,3.747c-21.371,2.321-42.306,6.663-62.509,13.609c-24.304,8.356-45.714,21.732-67.703,34.063
			c-5.523,3.097-11.365,6.233-15.7,10.527c-18.08,17.913-36.583,35.577-53.082,54.699c-12.435,14.412-21.574,31.136-26.583,49.338
			c-0.523,1.901-0.441,4.611,0.667,6.125c9.651,13.192,23.147,19.979,40.486,19.127c14.749-0.726,29.689-0.871,44.142-3.314
			c24.962-4.22,48.244-12.234,63.639-32.86c2.286-3.063,4.788-4.142,8.465-0.772c11.889,10.895,25.951,18.215,42.873,19.627
			c15.624,1.304,31.291,2.249,46.959,2.988c20.508,0.967,38.713-5.618,56.101-15.008c2.247-1.214,6.55-1.346,8.727-0.149
			c18.359,10.085,37.701,16.382,59.396,15.192c9.236-0.506,18.49-0.675,27.732-1.078c22.015-0.958,42.244-6.122,58.567-20.894
			c4.581-4.146,6.187-3.795,9.747,1.112c8.037,11.075,19.504,18.389,32.346,23.454C533.172,399.828,555.531,403.411,578.547,403.291
			z M390.591,793.901c3.386-0.229,10.025-0.677,16.664-1.135c10.887-0.749,21.898-0.81,32.64-2.405
			c21.863-3.249,43.547-7.507,65.368-11.002c15.308-2.451,29.711-6.958,42.971-14.445c10.766-6.074,19.51-13.887,22.089-25.802
			c2.025-9.37,3.146-18.908,4.693-28.366c3.479-21.286,6.754-42.606,10.625-63.83c0.894-4.892-0.115-7.75-4.782-9.925
			c-16.477-7.672-33.163-8.393-50.244-1.796c-8.09,3.123-14.697,7.816-19.772,14.456c-1.454,1.903-4.513,4.733-6.064,1.765
			c-3.805-7.272-11.137-9.223-17.979-11.682c-21.587-7.755-42.078-5.832-60.554,7.645c-7.909,5.77-7.629,5.971-16.956,1.668
			c-17.57-8.105-36.223-12.364-55.791-10.687c-11.73,1.006-21.544,6.778-28.941,15.489c-2.021,2.383-7.3,3.143-8.73,0.645
			c-3.953-6.902-11.336-9.695-18.066-13.05c-11.884-5.925-24.774-3.998-36.93-1.554c-11.245,2.257-21.953,6.831-32.857,10.487
			c-3.635,1.218-6.857,3.093-10.674-0.154c-21.874-18.596-49.299-18.825-73.929-6.306c-2.401,1.219-4.977,2.672-6.557,4.642
			c-3.919,4.889-4.596,5.341-8.152,0.455c-12.256-16.839-43.555-23.22-64.734-14.016c-10.164,4.417-10.231,4.278-9.009,14.188
			c0.126,1.024,0.123,2.061,0.291,3.075c4.377,26.514,8.872,53.014,13.106,79.549c1.492,9.35,4.192,17.959,11.891,24.759
			c12.307,10.868,27.284,17.18,43.454,20.562c20.686,4.321,41.577,8.024,62.559,10.85c20.094,2.703,40.388,5.061,60.648,5.522
			c22.911,0.522,45.881-1.845,68.827-1.837C339.566,791.678,363.438,793.031,390.591,793.901z M400.583,479.216
			c1.164-0.778,1.907-1.289,2.665-1.778c5.207-3.354,7.312-2.658,7.679,3.12c0.219,3.471-0.741,7.005-1.145,10.277
			c12.36,7.182,24.427,15.324,40.595,13.189c0.153,0.676,0.309,1.352,0.464,2.029c-5.594,3.133-11.188,6.266-16.372,9.17
			c3.266,5.681,6.425,11.058,9.464,16.493c2.693,4.815,0.91,7.391-4.987,7.42c-0.863,0.004-1.727,0.11-2.694,0.177
			c-1.528,11.328-4.956,21.778-12.499,30.594c-2.422,2.832-5.805,6.279-9.223,6.808c-9.256,1.425-12.292,6.874-13.924,14.225
			c-0.893,4.028-0.696,6.637,4.58,7.98c11.175,2.843,17.611,10.107,19.518,20.61c1.141,6.282,1.77,12.644,2.683,19.364
			c28.095-14.822,54.41-11.447,79.449,5.614c19.035-20.071,42.912-20.392,69.016-14.521c-2.938-4.188-5.065-8.026-7.986-11.243
			c-14.063-15.498-25.612-32.615-37.796-49.333c-10.962-15.051-21.754-30.224-33.32-44.865
			c-10.589-13.407-23.253-24.835-40.187-31.629c-15.759-6.317-31.545-12.659-46.855-19.836
			c-16.462-7.717-33.051-15.124-47.503-26.338c-19.531-15.154-33.938-32.753-39.003-56.255c-0.384-1.786-2.02-3.342-3.074-5.004
			c-1.15,1.755-2.619,3.4-3.401,5.287c-3.688,8.897-5.886,18.568-11.012,26.663c-13.178,20.811-33.255,35.11-55.872,46.502
			c-4.711,2.373-9.509,4.615-14.362,6.728c-16.549,7.205-33.313,14.008-49.649,21.605c-8.684,4.038-17.715,8.343-24.688,14.4
			c-9.653,8.386-18.089,18.144-26.008,28.026c-11.452,14.292-23.195,28.596-32.501,44.083c-7.215,12.01-16.254,22.396-25.177,33.082
			c-4.647,5.564-8.662,11.583-13.566,18.211c26.677-6.037,50.49-5.455,69.33,14.445c23.426-16.011,48.224-20.112,74.939-7.948
			c0.459-0.74,0.823-1.148,0.979-1.618c0.271-0.815,0.478-1.656,0.602-2.502c1.489-10.207,8.169-17.351,18.028-20.248
			c6.691-1.967,8.795-6.072,11.078-8.978c-7.065-5.285-14.684-9.316-19.837-15.2c-9.744-11.119-13.821-24.485-12.509-38.935
			c1.105-12.173,5.087-23.612,16.101-30.923c6.653-4.418,12.109-8.312,10.375-17.52c3.517,1.14,5.893,2.55,8.215,2.479
			c2.34-0.072,4.626-1.617,7.398-2.697c0.752,0.563,1.973,1.477,3.156,2.363c9.028-5.563,9.697-5.226,10.495,4.443
			c8.059,2.075,16.013,3.629,23.558,6.208c7.173,2.448,11.392,7.621,10.924,15.09c-0.475,7.617-0.944,15.261-2.08,22.809
			c-0.594,3.938-2.757,7.654-3.942,11.54c-0.609,1.996-1.398,4.371-0.777,6.188c2.117,6.187,2.053,6.602-4.995,8.135
			c-0.92,4.934-6.226,8.273-5.763,13.869c0.066,0.8-3.5,2.626-5.412,2.659c-5.962,0.106-11.938-0.419-18.427-0.727
			c-2.922,4.83-0.512,10.015,3.28,14.235c3.989,4.445,8.319,8.651,16.191,7.663c4.736-0.595,10.142,0.841,14.688,2.6
			c2.11,0.818,2.916,4.569,4.26,7.015c1.829,3.33,2.711,7.766,5.587,9.808c6.525,4.628,14.023,8.082,21.348,12.137
			c10.544-7.87,21.871-14.799,36.622-14.644c1.24,0.016,3.044-2.192,3.678-3.695c3.673-8.721,8.274-16.781,16.517-22.63
			c2.207-1.563,5.033-2.944,6.198-5.06c1.369-2.479,1.233-5.667,1.751-8.549c-2.166-0.312-4.341-0.913-6.501-0.874
			c-5.343,0.1-10.682,0.74-16.021,0.702c-5.62-0.04-11.27-4.611-11.979-9.747c-0.182-1.308,1.362-3.196,2.672-4.185
			c1.014-0.766,2.899-0.536,5.812-0.951c-2.243-0.638-3.09-0.925-3.959-1.117c-7.399-1.641-7.527-2.307-3.379-8.167
			c1.843-2.606,2.734-5.791,4.494-9.669c-7.09,1.901-12.311,4.655-18.223,1.962c2.095-3.781,4.742-7.038,5.748-10.685
			c2.048-7.415,3.527-14.999,4.674-22.587c2.633-17.427,8.21-32.854,28.511-39.214c0.841-0.264,1.589-0.781,1.834-0.906
			c-0.215-3.616-0.404-6.764-0.649-10.893c6.838,2.652,12.13,3.668,16.167-1.596C396.902,475.957,398.623,477.481,400.583,479.216z
			 M51.866,631.178c0.53,0.364,1.06,0.727,1.591,1.089c0.297-0.839,0.441-1.757,0.912-2.501
			c12.114-19.055,29.036-34.904,40.984-54.241c11.078-17.927,25.003-34.358,37.844-51.338c10.496-13.882,22.36-26.619,39.073-34.362
			c11.217-5.198,22.95-9.436,34.25-14.489c23.434-10.484,47.146-20.305,67.866-35.538c17.053-12.538,25.643-28.91,31.518-48.024
			c-21.052,5.209-41.863,5.702-62.749,5.216c-4.981-0.116-9.945-0.787-14.928-0.981c-22.764-0.887-44.115-5.082-60.336-22.02
			C148.506,394.427,124.215,407.06,95.615,410c-27.756,2.853-56.29,5.464-82.254-11.848
			C26.342,476.713,39.104,553.947,51.866,631.178z M626.633,398.162c-25.923,17.252-54.276,14.652-81.872,11.877
			c-28.795-2.895-53.206-15.579-72.322-35.652c-4.464,3.405-8.375,6.858-12.774,9.656c-11.109,7.062-23.787,10.035-37.023,11.071
			c-21.742,1.7-43.479,3.758-65.267,0.181c-7.54-1.236-15.201-1.833-22.732-2.713c5.073,25.066,27.395,50.537,55.732,63.1
			c24.153,10.706,48.706,20.684,72.467,32.081c10.498,5.036,21.361,11.336,28.757,19.596c15.784,17.626,29.621,36.772,43.847,55.562
			c7.731,10.213,14.347,21.144,21.981,31.423c7.116,9.586,14.906,18.742,22.418,28.074c2.471,3.07,4.997,6.101,8.107,9.89
			C600.901,553.916,613.658,476.691,626.633,398.162z M393.369,558.169c4.849,4.74,9.449,8.678,13.305,13.165
			c3.816,4.441,7.272,2.528,10.845,0.285c1.486-0.933,2.603-2.415,3.769-3.736c5.711-6.479,7.645-14.305,9.03-22.273
			c0.739-4.251,1.15-8.551,1.784-13.399c3.34,1.8,5.815,3.134,8.29,4.468c0.535-0.464,1.069-0.93,1.604-1.396
			c-4.421-6.959-8.844-13.916-13.897-21.87c3.079-1.344,7.269-3.175,11.462-5.004c-9.934-0.604-16.988-6.228-24.838-10.239
			c-2.483-1.268-5.404-2.367-8.178-2.483c-6.281-0.257-12.608-0.047-18.891,0.342c-4.461,0.275-7.804-0.367-7.803-5.366
			c-14.016,4.647-24.531,16.887-24.963,28.965c16.688,0.99,24.426,12.229,31.805,23.426c3.951,0.604,8.742,0.995,10.947,3.41
			C401.154,550.307,398.632,554.454,393.369,558.169z M242.129,596.495c0-11.176-0.591-21.248,0.165-31.235
			c0.766-10.124,10.638-24.923,24.201-24.16c4.568,0.259,9.19-0.458,13.792-0.581c7.559-0.201,9.712-1.515,11.502-7.314
			c2.022-6.546,0.61-10.988-5.924-13.723c-6.135-2.569-12.812-4.108-19.369-5.684c-2.767-0.667-6.443-1.646-6.992,3.147
			c-0.079,0.691-2.693,1.526-4.18,1.612c-6.093,0.341-12.432,1.444-18.249,0.333c-7.552-1.442-11.098,2.491-14.856,6.762
			c-10.17,11.562-11.658,25.024-8.218,38.845C217.546,578.744,225.971,589.983,242.129,596.495z M321.281,168.222
			c-6.751-2.598-12.229-5.68-18.117-6.67c-4.923-0.827-11.583-0.821-15.27,1.643c-9.718,6.493-8.54,18.463,1.504,24.625
			c9.212,5.653,18.566,11.112,27.992,16.454c1.232,0.698,3.677,0.809,4.863,0.138c9.904-5.601,19.725-11.338,29.405-17.265
			c5.393-3.301,8.348-10.615,6.686-15.254c-2.903-8.095-7.036-11.158-15.642-10.981
			C334.208,161.085,326.312,163.014,321.281,168.222z M367.092,569.905c-0.712,7.342-5.003,10.652-11.346,12.059
			c0.947,4.191,3.592,5.393,7.65,5.753c15.361,1.367,27.194-5.646,38.794-12.726c-4.247-5.253-8.134-10.063-12.021-14.87
			c-0.832,1.446-1.85,3.211-3.042,5.281c-1.169-5.272,0.529-8.783,4.906-11.568c1.261-0.8,1.399-3.114,2.053-4.736
			c-1.967-0.475-3.952-1.367-5.895-1.297c-1.676,0.062-3.304,1.22-5.025,1.926c-6.657-11.534-13.123-22.791-28.214-26.681
			c-2.685,11.313-5.324,22.444-8.007,33.752c1.034-0.341,2.032-0.788,3.085-0.996c2.72-0.542,5.464-0.977,8.2-1.454
			c0.349,3.077,1.256,6.213,0.879,9.214c-0.339,2.695-2.091,5.237-3.7,8.961C359.7,571.562,362.94,570.835,367.092,569.905z
			 M362.82,632.06c19.558,0.745,37.043,5.19,53.668,12.689c3.333,1.503,5.364-0.784,5.112-3.286
			c-0.884-8.808-1.116-17.919-3.903-26.256c-3.704-11.091-19.859-17.457-29.239-12.592
			C376.132,609.015,368.955,619.438,362.82,632.06z M245.575,583.927c3.092,1.057,6.142,1.493,8.374,2.981
			c5.727,3.815,12.208,3.645,18.611,3.557c4.435-0.06,5.239-1.949,2.219-4.994c-3.021-3.049-1.581-4.44,1.7-5.449
			c1.546-0.472,3.219-0.596,4.834-0.877c-0.353-0.366-0.705-0.734-1.056-1.1c2.257-1.897,4.515-3.793,6.773-5.688
			c-0.182-4.389,0.666-8.884,1.9-13.282c1.479-5.27,4.818-10.3,2.811-14.88c-7.253,0.185-13.602,0.687-19.911,0.417
			c-8.046-0.347-14.49,2.066-19.303,7.989C244.724,562.206,244.822,573.281,245.575,583.927z M261.343,631.9
			c-2.233-3.215-4.527-7.467-7.762-10.974c-6.637-7.192-22.532-8.121-29.965-1.88c-5.634,4.729-9.175,10.7-10.232,17.771
			c-0.5,3.342,7.021,9.012,10.349,7.878C235.932,640.541,248.133,636.395,261.343,631.9z M267.153,616.633
			c-12.953-3.817-16.971-16.177-14.322-27.047c-1.988-0.367-3.959-0.733-6.689-1.239c1.458,5.582,2.681,10.268,4.168,15.964
			c-7.533-2.618-10.324,0.957-12.919,6.066c12.016-0.408,19.72,5.27,25.512,14.729C264.544,621.834,265.767,619.393,267.153,616.633
			z M383.726,480.776c-0.711,11.156,0.249,12.067,11.504,11.306c1.66-0.114,3.354-0.342,4.991-0.167
			c3.603,0.377,5.69-0.849,6.047-4.276c0.233-2.236,0.438-4.476,0.802-8.213c-6.026,6.182-9.368,3.046-12.752-1.664
			C391.783,483.045,388.069,483.347,383.726,480.776z M258.656,503.25c-4.477,1.086-6.984,6.662-10.972,1.73
			c-1.743,1.168-3.2,2.144-4.626,3.099c-1.697-1.033-3.151-1.916-5.389-3.276c0,3.528-0.936,8.276,0.172,8.727
			c3.658,1.489,8.051,1.806,12.167,1.829c2.743,0.013,6.806,1.271,7.745-2.895C258.375,509.702,258.334,506.81,258.656,503.25z
			 M285.134,632.069c-2.114-3.956-3.024-7.554-5.46-9.589c-1.781-1.486-6.873-2.157-8.173-0.986c-2.26,2.03-3.798,5.798-3.696,8.782
			c0.146,4.312,4.216,1.565,6.558,1.74C277.286,632.236,280.243,632.069,285.134,632.069z M388.378,597.424c2.342,0,4.732,0,7.057,0
			c0.316-2.331,0.465-4.189,0.844-6.007c0.398-1.913,1.017-3.789,1.606-5.929C388.195,587.07,387.49,587.968,388.378,597.424z"/>
		<path fill-rule="evenodd" clip-rule="evenodd" fill="#FFFFFF" d="M406.916,510.069c0.209-0.818,0.418-1.639,0.626-2.458
			c-4.014-1.964-7.874-4.28-12.068-5.815c-9.841-3.598-18.938-0.097-23.311,8.743c-0.462,0.936,0.051,2.284,0.111,3.441
			c0.383,0.309,0.766,0.613,1.148,0.922C382.366,500.541,394.666,505.444,406.916,510.069z M411.389,528.628
			c0.318-0.884,0.636-1.766,0.953-2.651c-7.043-2.389-13.928-5.431-21.186-6.934c-4.926-1.021-8.079,3.562-6.039,7.316
			c5.551-4.691,7.113-4.552,14.05-1.265C402.912,526.867,407.295,527.487,411.389,528.628z M419.769,541.426
			c-3.824,1.305-7.65,2.608-11.589,3.954C412.003,549.139,415.65,548.294,419.769,541.426z"/>
		<path fill-rule="evenodd" clip-rule="evenodd" d="M320.156,470.113c1.815-2.609,3.345-4.366,4.362-6.346
			c3.18-6.188,9.07-7.79,15.627-7.795c6.847-0.005,10.61,4.239,13.153,9.519c5.218,10.834,2.028,20.254-5.663,29.033
			c-8.137,9.289-16.051,18.746-24.024,28.156c-2.419,2.856-4.721,2.944-7.169,0.065c-8.11-9.53-16.219-19.061-24.368-28.563
			c-6.691-7.801-10.235-16.254-6.398-26.219c2.26-5.87,5.454-11.326,12.988-11.879c7.4-0.545,13.923,1.33,17.227,8.539
			C316.713,466.418,318.386,467.88,320.156,470.113z M320.002,515.172c8.114-8.743,16.243-17.563,24.451-26.323
			c6.701-7.152,6.139-15.133,2.637-23.097c-0.785-1.783-4.049-3.448-6.346-3.681c-5.279-0.536-9.541,1.901-12.945,5.674
			c-7.719,8.552-7.579,8.386-15.84-0.039c-2.353-2.401-5.777-4.317-9.111-5.387c-5.921-1.899-9.081-0.153-10.891,5.467
			c-2.567,7.964-2.166,15.37,4.392,22.021C304.438,498.013,312.061,506.614,320.002,515.172z"/>
		<path fill-rule="evenodd" clip-rule="evenodd" d="M406.916,510.069c-12.25-4.625-24.55-9.528-33.493,4.833
			c-0.383-0.309-0.766-0.613-1.148-0.922c-0.061-1.157-0.573-2.506-0.111-3.441c4.372-8.84,13.47-12.341,23.311-8.743
			c4.194,1.535,8.055,3.852,12.068,5.815C407.334,508.431,407.125,509.251,406.916,510.069z"/>
		<path fill-rule="evenodd" clip-rule="evenodd" d="M411.389,528.628c-4.094-1.141-8.477-1.761-12.222-3.533
			c-6.937-3.287-8.499-3.427-14.05,1.265c-2.04-3.755,1.113-8.338,6.039-7.316c7.258,1.503,14.143,4.545,21.186,6.934
			C412.024,526.862,411.707,527.744,411.389,528.628z"/>
		<path fill-rule="evenodd" clip-rule="evenodd" d="M419.769,541.426c-4.118,6.868-7.766,7.713-11.589,3.954
			C412.118,544.034,415.944,542.73,419.769,541.426z"/>
		<path fill-rule="evenodd" clip-rule="evenodd" d="M251.155,521.725c-5.897,3.712-10.629,6.796-15.504,9.67
			c-1.036,0.613-2.594,0.468-3.911,0.672c0.219-1.194-0.02-3,0.73-3.478c4.165-2.648,8.459-5.177,12.961-7.284
			C246.787,520.671,248.95,521.519,251.155,521.725z"/>
		<path fill-rule="evenodd" clip-rule="evenodd" d="M242.435,540.659c-8.915,6.215-14.167,12.985-12.743,23.62
			c-4.518-6.641-2.302-12.349,1.773-18.058C233.526,543.339,235.722,539.904,242.435,540.659z"/>
		<path fill-rule="evenodd" clip-rule="evenodd" d="M373.276,545.685c-1.966,1.557-3.88,3.257-5.996,4.703
			c-3.237,2.21-5.852-0.095-6.808-2.147c-1.064-2.286-1.159-5.585-0.111-7.811c0.494-1.051,5.133-1.509,7.031-0.633
			C369.809,540.911,371.353,543.646,373.276,545.685z M367.28,548.071c0.432-1.031,0.863-2.062,1.298-3.095
			c-2.074-0.801-4.1-1.797-6.257-2.242c-0.447-0.089-1.388,1.874-2.1,2.892C362.574,546.441,364.927,547.257,367.28,548.071z"/>
		<path fill-rule="evenodd" clip-rule="evenodd" d="M262.551,558.244c2.773-0.326,5.546-0.652,8.319-0.978
			c-0.016-0.455-0.032-0.912-0.047-1.368c-2.698-0.37-5.396-0.739-8.094-1.107c0.069-0.518,0.137-1.032,0.207-1.549
			c4.944-0.575,9.876-1.447,14.838-1.639c4.838-0.187,8.014,2.753,8.086,6.652c0.08,4.389-2.688,7.693-7.557,7.802
			c-3.828,0.084-7.685-0.951-11.528-1.489c-0.004-0.518-0.008-1.037-0.012-1.555c1.378-0.691,2.758-1.383,4.137-2.078
			c-0.11-0.458-0.221-0.917-0.332-1.373c-2.681,0-5.365,0-8.046,0C262.531,559.122,262.541,558.683,262.551,558.244z
			 M284.433,558.666c-2.78-1.665-4.572-3.528-6.425-3.579c-1.318-0.034-4.081,2.756-3.8,3.602c0.623,1.868,2.759,3.304,4.279,4.915
			C280.13,562.236,281.776,560.87,284.433,558.666z"/>
	</g>
</g>
<g>
</g>
<g>
</g>
<g>
</g>
<g>
</g>
<g>
</g>
<g>
</g>
</svg>
