<?xml version="1.0" encoding="utf-8"?>
<!-- Generator: Adobe Illustrator 16.0.0, SVG Export Plug-In . SVG Version: 6.00 Build 0)  -->
<!DOCTYPE svg PUBLIC "-//W3C//DTD SVG 1.0//EN" "http://www.w3.org/TR/2001/REC-SVG-20010904/DTD/svg10.dtd">
<svg version="1.0" xmlns="http://www.w3.org/2000/svg" xmlns:xlink="http://www.w3.org/1999/xlink" x="0px" y="0px"
	 width="791.28px" height="610.561px" viewBox="0 0 791.28 610.561" enable-background="new 0 0 791.28 610.561"
	 xml:space="preserve">
<g id="scene4_xA0_Image_1_" display="none">
	<path display="inline" fill-rule="evenodd" clip-rule="evenodd" d="M560.415,624.862c0.758-0.148,1.512-0.412,2.273-0.432
		c15.744-0.367,31.49-0.689,47.236-1.07c2.93-0.07,5.854-0.398,8.783-0.525c3.957-0.172,7.918-0.299,11.879-0.385
		c15.811-0.348,31.623-0.67,47.434-1.008c3.1-0.066,6.197-0.203,9.297-0.232c2.543-0.025,5.092,0.16,7.633,0.078
		c6.918-0.223,13.834-0.57,20.754-0.807c5.574-0.191,11.152-0.291,16.729-0.436c11.146-0.289,22.293-0.537,33.436-0.895
		c4.211-0.137,8.41-0.623,12.621-0.777c3.391-0.125,6.793,0.096,10.186,0.012c3.639-0.092,7.271-0.363,10.908-0.557
		c1.107-0.059,2.213-0.129,3.322-0.174c1.311-0.053,2.475-0.441,3.471-1.615c-0.312-1.85,0.346-4.012-1.021-5.912
		c-0.174-0.242,0.309-0.955,0.496-1.473c-0.461-0.09-0.766-0.148-1.314-0.254c1.742-1.717-0.061-3.094-0.266-4.807
		c0.76-0.756,1.525-1.633,0.502-2.889c-0.219-0.268-0.084-0.9,0.016-1.336c0.289-1.254,0.314-1.248-0.639-2.523
		c0.191-0.518,0.336-1.145,0.643-1.676c0.371-0.643,0.695-1.012,0.02-1.83c-0.336-0.406,0.383-1.68,0.686-2.781
		c-0.574-0.625-1.367-1.49,0.24-2.459c0.238-0.143,0.223-0.922,0.127-1.363c-0.275-1.256,0.016-2.303,1.102-3.326
		c-0.525-0.279-0.967-0.514-1.436-0.762c0.227-0.975,0.859-1.281,1.754-0.984c0.842,0.279,0.803,0.932,0.783,1.734
		c-0.064,2.525,0.039,5.055,0.078,7.582c1.4,1.361,0.023,3.164,0.768,4.777c0.406,0.881,0.4,2.652-0.973,3.576
		c-0.215,0.145-0.377,0.484-0.414,0.756c-0.141,1-0.219,2.008-0.32,3.021c1.199,0.023,2.648,1.639,2.139,1.963
		c-1.264,0.803,0.039,1.658-0.322,2.229c-0.543,0.861,0.15,1.482,0.107,2.139c-0.098,1.508-0.578,2.992-0.967,4.781
		c0.025,0.029,0.314,0.291,0.535,0.604c1.949,2.768,3.154,3.383,6.523,3.35c2.555-0.027,5.111-0.027,7.668-0.039
		c-0.191,0.305,0.49,1.008-0.459,0.977c-0.559-0.02-1.119,0.018-1.68,0.031C733.971,621.052,647.192,622.958,560.415,624.862z"/>
	<path display="inline" fill-rule="evenodd" clip-rule="evenodd" d="M306.555,630.438c0.667-0.146,1.33-0.41,2-0.426
		c20.531-0.471,41.063-0.908,61.595-1.375c6.786-0.154,13.569-0.416,20.354-0.559c10.86-0.227,21.722-0.395,32.581-0.59
		c1.756-0.033,3.51-0.111,5.264-0.105c0.514,0.002,1.025,0.225,1.537,0.346C388.776,628.634,347.665,629.536,306.555,630.438z"/>
	<path display="inline" fill-rule="evenodd" clip-rule="evenodd" d="M31.56,635.519c2.338,0.072,4.69,0.662,7.003-0.189
		c3.972,1.186,7.964-0.164,11.972,0.084c4.681,0.289,9.406-0.156,14.113-0.244c3.456-0.064,6.916,0.006,10.369-0.119
		c1.993-0.072,3.973-0.541,5.965-0.596c2.505-0.07,5.017,0.111,7.526,0.158c0.943,0.016,1.89-0.09,2.83-0.045
		c0.245,0.012,0.473,0.379,0.708,0.584c-20.155,0.441-40.31,0.885-60.465,1.328C31.574,636.157,31.567,635.837,31.56,635.519z"/>
	<path display="inline" fill-rule="evenodd" clip-rule="evenodd" d="M430.366,627.72c0.758-0.146,1.514-0.404,2.275-0.422
		c11.994-0.273,23.986-0.52,35.98-0.752c0.363-0.008,0.729,0.201,1.094,0.309C456.598,627.144,443.483,627.431,430.366,627.72z"/>
	<path display="inline" fill-rule="evenodd" clip-rule="evenodd" d="M505.708,626.065c0.346-0.139,0.691-0.393,1.041-0.4
		c8.713-0.182,17.428-0.34,26.141-0.482c0.375-0.006,0.754,0.17,1.131,0.26C524.583,625.649,515.145,625.858,505.708,626.065z"/>
	<path display="inline" fill-rule="evenodd" clip-rule="evenodd" d="M93.006,635.13c0.653-0.352,1.305-0.998,1.959-1.002
		c2.534-0.016,5.073,0.125,7.604,0.305c1.611,0.115,3.292-0.59,4.833,0.381C102.604,634.919,97.805,635.024,93.006,635.13z"/>
	<path display="inline" fill-rule="evenodd" clip-rule="evenodd" d="M185.144,633.106c0.371-1.314,1.405-0.92,2.286-0.844
		c0.06,0.004,0.077,0.516,0.114,0.791C186.744,633.071,185.944,633.089,185.144,633.106z"/>
	<path display="inline" fill-rule="evenodd" clip-rule="evenodd" d="M500.428,626.181c1.588-0.576,3.186-0.658,4.799-0.105
		C503.627,626.11,502.028,626.146,500.428,626.181z"/>
	<path display="inline" fill-rule="evenodd" clip-rule="evenodd" d="M109.802,634.761c1.265-0.689,2.548-0.574,3.839-0.084
		C112.362,634.704,111.082,634.733,109.802,634.761z"/>
	<path display="inline" fill-rule="evenodd" clip-rule="evenodd" d="M429.735,145.766c0.758,0.73,1.047,1.634,0.416,2.714
		c-0.119,0.204-0.145,0.463-0.27,0.663c-2.439,3.926-1.715,8.237-1.623,12.506c0.129,6.06,0.037,12.125,0.094,18.187
		c0.045,4.695,0.172,9.391,0.27,14.086c0.049,2.312-0.109,4.556-0.703,6.845c-0.465,1.795-0.15,3.799-0.133,5.71
		c0.012,1.036,0.168,2.07,0.189,3.107c0.51,23.669,0.994,47.34,1.514,71.01c0.436,19.886,0.926,39.771,1.354,59.658
		c0.199,9.178,0.279,18.357,0.461,27.535c0.24,12.125,0.521,24.248,0.795,36.371c0.273,12.117,0.537,24.234,0.848,36.352
		c0.311,12.123,0.695,24.246,1.006,36.371c0.164,6.357,0.188,12.719,0.365,19.076c0.311,11.102,0.723,22.201,1.031,33.303
		c0.211,7.576,0.312,15.158,0.475,22.736c0.203,9.516,0.365,19.033,0.654,28.547c0.102,3.291,0.592,6.568,0.793,9.857
		c0.092,1.502-0.08,3.02-0.141,4.531c-0.037,0.953-0.146,1.906-0.131,2.857c0.051,3.439-0.049,6.896,0.277,10.312
		c0.264,2.773,0.635,5.516,0.457,8.312c-0.133,2.123-0.658,2.682-2.779,2.625c-0.869-0.021-1.736-0.105-2.604-0.092
		c-0.375,0.008-0.748,0.191-1.227,0.322c0.154,0.477,0.297,0.916,0.453,1.406c-0.422,0.406-0.863,0.832-1.404,1.352
		c-1.346-0.873-2.688-1.744-4.08-2.648c0.131-0.23,0.516-0.633,0.551-1.062s-0.23-0.914-0.447-1.33
		c-1.842-3.52-3.713-7.023-5.557-10.541c-3.223-6.146-6.411-12.312-9.649-18.451c-3.276-6.209-6.622-12.383-9.891-18.596
		c-6.165-11.723-12.302-23.457-18.427-35.199c-0.501-0.961-0.822-2.014-1.322-3.26c1.029-0.084,1.717-0.139,2.426-0.197
		c15.461,28.402,29.896,57.223,45.49,85.422c0.158-0.037,0.316-0.076,0.475-0.113c-0.639-29.104-1.277-58.207-1.916-87.26
		c-4.586,0.102-9.09,0.18-13.594,0.303c-5.835,0.16-11.668,0.363-17.502,0.535c-21.334,0.633-42.668,1.24-64,1.896
		c-13.885,0.426-27.768,0.922-41.652,1.387c-14.055,0.469-28.11,0.924-42.164,1.416c-3.907,0.137-7.81,0.4-11.716,0.557
		c-1.233,0.049-2.05,0.311-2.452,1.711c-0.725,2.52-1.647,4.988-2.591,7.439c-3.314,8.6-6.692,17.174-9.996,25.779
		c-0.61,1.59-0.884,3.311-1.496,4.9c-0.704,1.828-1.708,3.541-2.415,5.367c-4.668,12.059-9.284,24.137-13.941,36.199
		c-0.414,1.072-0.52,2.037-0.154,3.178c0.502,1.564-0.038,2.947-1.211,3.447c-0.52,0.221-1.214,0.281-1.76,0.141
		c-1.522-0.389-3.029-0.869-4.501-1.422c-0.757-0.283-1.427-0.797-2.005-1.662c0.835-0.066,1.671-0.201,2.504-0.186
		c1.288,0.023,2.127-0.543,2.569-1.715c1.998-5.299,3.955-10.613,5.984-15.9c2.145-5.586,4.39-11.137,6.526-16.727
		c3.532-9.244,7.001-18.512,10.517-27.764c2.042-5.373,4.139-10.725,6.171-16.1c0.663-1.758,1.585-3.279,3.087-4.451
		c0.525-0.408,0.905-1.004,1.764-1.984c-3.365,0.074-6.124,0.094-8.879,0.207c-2.533,0.104-5.06,0.383-7.593,0.457
		c-11.185,0.328-22.372,0.566-33.555,0.922c-9.955,0.316-19.905,0.795-29.86,1.107c-8.15,0.256-16.304,0.373-24.456,0.553
		c-3.581,0.078-7.161,0.156-10.952,0.24c-0.355,20.873-0.708,41.578-1.062,62.396c-2.575,0.553-4.469,0.107-5.808-1.783
		c0.037-2.797,0.085-5.57,0.107-8.344c0.038-4.705,0.044-9.41,0.094-14.113c0.062-5.826,0.12-11.654,0.245-17.48
		c0.104-4.779,0.335-9.557,0.446-14.338c0.046-1.99-0.073-3.984-0.119-6.082c-3.628-0.293-7.248,0.91-11.083,0.131
		c0.814-1.379,1.493-2.525,2.364-4c0.265,1.074,0.471,1.912,0.67,2.721c2.603-0.057,5.277-0.115,8.013-0.176
		c0.123-2.459,0.317-4.68,0.331-6.9c0.054-9.104,0.069-18.207,0.062-27.311c-0.002-2.861-0.15-5.721-0.174-8.58
		c-0.009-1.029,0.216-2.061,0.22-3.09c0.013-3.352-0.081-6.705-0.036-10.055c0.102-7.662,0.273-15.32,0.395-22.982
		c0.082-5.186,0.107-10.373,0.192-15.559c0.104-6.381,0.258-12.762,0.364-19.143c0.041-2.477-0.007-4.957,0.012-7.436
		c0.039-5.107-0.107-10.227,0.188-15.32c0.568-9.803,0.807-19.607,0.763-29.424c-0.02-4.465,0.09-8.932,0.172-13.396
		c0.137-7.408,0.312-14.816,0.445-22.225c0.086-4.785,0.104-9.572,0.195-14.357c0.139-7.34,0.282-14.68,0.484-22.019
		c0.148-5.403,0.495-10.803,0.566-16.206c0.083-6.301-0.051-12.604-0.068-18.907c-0.029-10.624-0.048-21.247-0.048-31.872
		c0-1.03,0.179-2.06,0.251-3.092c0.193-2.761,0.716-5.489-0.411-8.253c-0.48-1.18-0.208-2.689-0.183-4.047
		c0.14-7.336,0.311-14.671,0.47-22.007c0.08-3.668,0.136-7.336,0.243-11.003c0.148-5.1,0.365-10.197,0.495-15.296
		c0.128-5.027,0.166-10.056,0.281-15.083c0.04-1.747,0.192-3.491,0.279-4.99c1.103-0.985,1.985-1.886,2.987-2.624
		c0.53-0.391,1.265-0.692,1.915-0.706c6.389-0.137,12.779-0.247,19.17-0.281c6.538-0.036,13.075,0.034,19.613,0.033
		c8.542-0.001,17.083-0.039,25.625-0.039c5.729,0,11.459,0.049,17.188,0.06c7.179,0.013,14.359,0.002,21.539,0.015
		c6.31,0.011,12.62,0.018,18.93,0.064c8.224,0.061,16.447,0.204,24.671,0.226c5.595,0.015,11.19-0.098,16.785-0.19
		c3.772-0.062,7.543-0.291,11.314-0.263c6.591,0.05,13.181,0.259,19.772,0.364c2.716,0.043,5.434-0.004,8.151-0.016
		c9.175-0.04,18.35-0.094,27.524-0.119c7.668-0.021,15.335-0.043,23.002-0.002c10.535,0.057,21.07,0.219,31.606,0.246
		c4.786,0.012,9.571-0.241,14.356-0.276C424.551,145.477,427.098,145.667,429.735,145.766z M306.189,198.351
		c0.692,1.153,1.763,1.448,3.035,1.458c3.081,0.023,5.997-0.759,8.884-1.703c0.441-0.144,0.834-0.433,1.25-0.655
		c-4.968,0.001-9.738-0.543-14.347-1.829c-0.639,1.193,0.344,1.358,0.78,1.822c-0.294,0.168-0.588,0.337-0.883,0.506
		c0.244,0.27,0.468,0.564,0.75,0.784C305.707,198.772,306.006,198.487,306.189,198.351z M122.917,492.868
		c-0.412-0.572-0.824-1.145-1.222-1.699c-1.008,0.164-1.925,0.311-2.946,0.477c0.066,3.014,0.13,5.936,0.199,9.047
		c1.029-0.121,1.871-0.219,3.021-0.352c-0.556,0.492-0.822,0.729-1.355,1.201c2.724-0.342,5.138-0.648,7.553-0.943
		c0.386-0.047,0.781-0.062,1.168-0.039c1.42,0.082,2.841,0.295,4.257,0.264c6.141-0.143,12.28-0.359,18.419-0.539
		c4.769-0.137,9.54-0.223,14.307-0.396c4.844-0.178,9.683-0.463,14.526-0.648c4.787-0.184,9.578-0.268,14.366-0.453
		c6.598-0.254,13.192-0.637,19.792-0.832c9.181-0.271,18.366-0.41,27.549-0.625c2.303-0.053,4.607-0.139,6.904-0.307
		c0.436-0.031,0.839-0.518,0.963-0.6c1.473,0.203,2.749,0.549,4.017,0.52c2.914-0.068,5.822-0.379,8.736-0.482
		c11.089-0.393,22.182-0.719,33.271-1.115c8.933-0.32,17.863-0.734,26.797-1.057c13.319-0.479,26.641-0.922,39.962-1.359
		c5.832-0.189,11.666-0.328,17.5-0.484c6.135-0.166,12.271-0.309,18.406-0.488c6.199-0.182,12.396-0.383,18.594-0.609
		c0.764-0.029,1.521-0.273,2.19-0.398c0.39-1.207,0.706-2.191,1.169-3.625c0.48,1.146,0.932,1.779,0.986,2.443
		c0.125,1.508,0.98,1.842,2.266,1.76c0.758-0.047,1.52-0.039,2.186-0.053c0.117,0.361,0.166,0.438,0.158,0.508
		c-0.016,0.152-0.008,0.359-0.1,0.441c-1.07,0.969-1.547,1.922-0.168,3.059c0.217,0.18,0.135,0.725,0.205,1.178
		c-0.812-0.518-1.57-0.869-2.156-1.41c-0.834-0.77-0.742-0.793-1.43-0.066c-0.281,0.297-0.975,0.674-1.113,0.561
		c-1.006-0.818-1.188,0.139-1.557,0.65c-0.127,0.176-0.145,0.426-0.215,0.654c-0.577-0.527-0.854-0.779-1.112-1.018
		c-0.901,1.211-1.947,0.941-3.106,0.549c0.652-1.73,1.667-0.027,2.422-0.477c0.312-0.752,0.174-1.186-0.775-1.172
		c-2.468,0.035-4.939-0.023-7.404,0.07c-7.797,0.303-15.59,0.701-23.388,0.971c-3.522,0.121-7.053,0.02-10.579,0.029
		c-0.379,0-0.758,0.061-1.01,0.084c-0.233,0.525-0.404,0.91-0.747,1.68c-0.252-0.818-0.375-1.217-0.54-1.754
		c-10.947,0.375-21.876,0.748-32.805,1.121c-1.193,0.041-2.387,0.076-3.58,0.125c-8.063,0.322-16.129,0.615-24.19,1
		c-1.876,0.09-3.861-0.605-5.621,0.609c-1.809-1.371-3.848,0.586-5.684-0.393c-5.182,0.258-10.362,0.572-15.546,0.76
		c-8.629,0.312-17.26,0.561-25.891,0.801c-18.19,0.502-36.383,0.947-54.572,1.486c-10.977,0.324-21.949,0.785-32.923,1.176
		c-8.939,0.32-17.879,0.631-26.819,0.938c-8.305,0.285-16.611,0.561-24.916,0.838c-0.852,0.029-1.703,0.039-2.826,0.064
		c0.369,5.6-0.213,10.902,0.394,16.252c8.834-0.381,17.409-0.75,25.752-1.107c0.565-0.855,0.982-1.482,1.616-2.439
		c0.479,1.518,1.021,2.484,2.461,2.178c0.345-0.418,0.719-0.871,1.172-1.42c0.51,0.604,0.895,1.059,1.135,1.342
		c0.809-0.08,1.374-0.166,1.941-0.188c1.114-0.045,2.465,0.318,3.296-0.111c1.929-0.996,3.791,0.176,5.726-0.332
		c1.914-0.504,4.06-0.088,6.101-0.154c1.271-0.041,2.538-0.326,3.808-0.332c2.389-0.016,4.782,0.184,7.169,0.129
		c4.071-0.096,8.121-0.578,12.198-0.666c7.455-0.158,14.907-0.398,22.36-0.633c4.179-0.131,8.355-0.346,12.535-0.469
		c6.513-0.191,13.027-0.303,19.54-0.512c9.436-0.305,18.868-0.711,28.303-0.994c12.78-0.385,25.563-0.682,38.344-1.037
		c5.982-0.168,11.962-0.402,17.944-0.574c8.684-0.252,17.369-0.43,26.051-0.723c8.218-0.277,16.43-0.707,24.646-0.99
		c8.311-0.285,16.625-0.479,24.938-0.701c1.516-0.039,3.031-0.008,4.547-0.045c1.596-0.039,3.19-0.127,4.785-0.18
		c1.52-0.051,3.062,0.066,4.552-0.166c1.476-0.23,2.935-0.428,4.425-0.422c0.898,0.004,1.74-0.139,2.262-1.018
		c0.02-0.033,0.42,0.158,0.932,0.359c-0.215-9.787-0.426-19.369-0.641-29.189c-0.635,0.016-1.443-0.17-2.074,0.086
		c-1.67,0.672-3.348,0.691-5.079,0.494c-0.552-0.062-1.118,0.002-1.679,0.023c-8.605,0.328-17.209,0.701-25.816,0.984
		c-16.844,0.555-33.689,1.07-50.536,1.584c-5.798,0.176-11.599,0.264-17.396,0.461c-9.09,0.311-18.177,0.73-27.268,1.014
		c-12.548,0.391-25.1,0.674-37.648,1.047c-8.583,0.256-17.165,0.59-25.747,0.877c-5.795,0.191-11.592,0.346-17.387,0.547
		c-6.94,0.242-13.878,0.523-20.817,0.771c-9.562,0.342-19.126,0.664-28.689,1.002c-5.91,0.207-11.823,0.369-17.73,0.658
		c-7.582,0.373-15.158,0.855-22.737,1.289c-0.315,0.018-0.641,0.09-0.943,0.035c-2.077-0.365-2.075-0.375-2.414,1.666
		L122.917,492.868z M280.782,232.044c0.615-0.749,1.119-1.251,1.494-1.837c2.542-3.967,5.062-7.948,7.577-11.933
		c3.068-4.859,6.212-9.673,9.15-14.61c1.67-2.808,4.092-5.281,3.939-9.007c-0.064-1.567,1.585-2.521,2.989-2.15
		c6.279,1.656,12.611,1.733,18.993,0.759c0.627-0.096,1.318-0.202,1.902-0.035c0.541,0.154,1.236,0.584,1.389,1.049
		c0.152,0.464-0.105,1.335-0.492,1.659c-2.742,2.294-5.624,4.429-9.14,5.381c-3.501,0.949-7.045,1.735-10.541,2.585
		c1.669,4.557,12.75,26.027,14.144,27.233c0.707-0.689,0.771-2.075,2.113-2.137c0.116-0.005,0.251-0.373,0.315-0.59
		c0.335-1.132,1.102-2.216,0.328-3.243c1.18-1.038,2.363-1.799,3.15-2.855c0.708-0.949-0.049-2.644,1.441-3.354
		c-0.917-2.292,0.962-3.115,2.307-4.318c-0.123-0.479-0.256-0.999-0.357-1.392c0.928-0.986,2.068-1.746,2.541-2.805
		c0.807-1.807,1.482-3.781,1.927-5.635c0.593-2.469,2.147-4.452,2.662-6.873c0.034-0.164,0.44-0.22,0.552-0.401
		c0.992-1.606,2.559-0.71,4.018-0.864c0.8-1.717,1.578-3.463,2.421-5.179c1.441-2.934,2.892-5.865,4.4-8.765
		c0.726-1.393,1.819-2.628,2.349-4.08c0.842-2.306,1.416-2.784,3.807-2.398c1.882,0.304,3.773,0.576,5.672,0.734
		c2.381,0.199,4.791,0.127,7.157,0.423c4.659,0.583,8.993-0.598,13.304-2.095c0.963-0.334,1.96-0.668,2.964-0.765
		c0.993-0.095,1.567,0.949,0.891,1.583c-1.298,1.213-1.975,3.042-3.823,3.726c-0.729,0.27-1.382,0.801-2.002,1.298
		c-2.357,1.893-5.171,3.024-7.986,3.644c-4.342,0.956-8.832,1.429-13.168-0.428c-0.394-0.169-0.898-0.076-1.59-0.12
		c0.281,0.718,0.398,1.261,0.681,1.699c3.728,5.803,7.49,11.583,11.218,17.385c3.75,5.835,7.474,11.687,11.2,17.537
		c2.272,3.567,4.505,7.16,6.812,10.705c0.436,0.67,0.725,1.807,1.697,1.29c0.182,0.879,0.193,1.756,0.544,2.466
		c1.028,2.084,2.137,3.986,1.982,6.565c-0.188,3.145,0.459,6.33,0.519,9.501c0.375,19.98,0.632,39.963,1.041,59.943
		c0.221,10.777,0.718,21.551,0.994,32.328c0.371,14.459,0.646,28.92,0.967,43.381c0.073,3.275,0.205,6.551,0.238,9.826
		c0.084,8.055,0.143,16.107,0.183,24.162c0.026,5.17,0.346,10.363-1.017,15.449c-0.108,0.404,0.068,0.883,0.125,1.467
		c10.385-0.195,20.587-0.279,30.859-1.24c0.109-1.012,0.311-1.945,0.293-2.875c-0.125-6.65-0.273-13.303-0.455-19.953
		c-0.189-6.852-0.441-13.699-0.633-20.551c-0.141-5.076-0.219-10.154-0.344-15.23c-0.264-10.781-0.562-21.562-0.803-32.346
		c-0.258-11.582-0.451-23.164-0.693-34.744c-0.391-18.612-0.777-37.225-1.209-55.836c-0.385-16.63-0.795-33.261-1.289-49.889
		c-0.07-2.373-0.59-4.718,0.332-7.038c0.137-0.344,0.016-0.792,0.008-1.192c-0.301-13.672-0.596-27.344-0.914-41.016
		c-0.021-0.922-0.227-1.84-0.342-2.732c-0.456-0.042-0.693-0.084-0.93-0.084c-7.907,0.008-15.814,0.016-23.721,0.035
		c-3.438,0.008-6.875,0.069-10.312,0.054c-9.343-0.042-18.685-0.118-28.026-0.172c-5.99-0.035-11.98-0.069-17.971-0.078
		c-7.506-0.012-15.014-0.017-22.521,0.012c-4.957,0.019-9.913,0.124-14.87,0.149c-4.386,0.022-8.771-0.024-13.158-0.021
		c-3.837,0.003-7.674,0.048-11.511,0.05c-4.702,0.002-9.405-0.022-14.108-0.02c-0.119,0-0.237,0.174-0.463,0.351
		c0.123,0.508,0.257,1.064,0.438,1.806c-2.546-2.326-2.546-2.325-6.257-2.182c-0.156,0.006-0.313-0.05-0.471-0.052
		c-6.863-0.077-13.726-0.163-20.588-0.224c-5.67-0.051-11.341-0.116-17.012-0.1c-10.065,0.027-20.13,0.116-30.196,0.17
		c-3.346,0.018-6.693,0.04-10.039-0.002c-6.464-0.08-12.926-0.252-19.391-0.297c-8.304-0.059-16.608-0.042-24.913-0.031
		c-2.373,0.003-4.746,0.097-7.268,0.152c-0.148,2.576-0.339,4.946-0.41,7.319c-0.129,4.306-0.153,8.615-0.284,12.921
		c-0.238,7.817-0.543,15.631-0.776,23.448c-0.09,3.034,0,6.073-0.102,9.106c-0.105,3.107-0.241,6.22-0.554,9.311
		c-0.302,2.976,0.203,5.929-0.165,8.933c-0.453,3.703-0.24,7.487-0.326,11.235c-0.161,7.016-0.321,14.032-0.5,21.048
		c-0.165,6.455-0.357,12.91-0.53,19.365c-0.16,5.979-0.336,11.96-0.458,17.939c-0.111,5.425-0.143,10.851-0.239,16.275
		c-0.059,3.323-0.164,6.647-0.27,9.97c-0.071,2.223-0.24,4.445-0.258,6.67c-0.028,3.492,0.107,6.986,0.039,10.479
		c-0.101,5.176-0.381,10.348-0.472,15.523c-0.107,6.145-0.053,12.293-0.144,18.439c-0.114,7.732-0.327,15.463-0.447,23.195
		c-0.047,3.027,0.106,6.059,0.058,9.086c-0.09,5.656-0.302,11.311-0.387,16.969c-0.086,5.826-0.075,11.654-0.118,17.48
		c-0.022,3.025-0.068,6.049-0.105,9.199c2.064-0.047,4.174-0.092,6.257-0.139c0.071-0.746,0.027-1.303,0.188-1.793
		c0.444-1.352,1.047-2.652,1.457-4.012c1.032-3.424,1.99-6.869,2.982-10.307c2.61-9.043,5.236-18.082,7.825-27.131
		c0.897-3.137,1.649-6.316,2.569-9.447c1.032-3.514,2.219-6.984,3.243-10.5c0.203-0.697,0.258-1.705-0.101-2.256
		c-2.891-4.43-5.192-9.154-7.285-13.994c-1.832-4.234-4.181-8.232-5.234-12.822c-0.37-1.615-0.217-3.998-3.094-4.289
		c1.509-2.025,2.708-3.9,4.167-5.545c4.184-4.715,8.482-9.328,12.717-13.998c3.864-4.26,7.647-8.594,11.571-12.799
		c3.754-4.021,7.215-8.328,11.498-11.85c0.597-0.49,0.929-1.443,1.13-2.245c0.478-1.909,0.804-3.855,1.238-6.021
		c2.519,0.385,4.854,0.803,7.205,1.08c1.325,0.156,2.752,0.373,4.001,0.051c2.39-0.613,4.666-0.402,7.056-0.074
		c2.318,0.318,3.922,1.498,5.179,3.154c4.622-3.145,9.083-6.181,13.776-9.374c-0.3-0.796-0.413-2.136-1.141-2.767
		c-1.017-0.88-0.998-1.729-0.732-2.729c0.525-1.974,0.913-3.913,0.837-6.011c-0.113-3.169,0.136-6.353,0.265-9.529
		c0.18-4.42,0.412-8.84,0.58-13.262c0.093-2.44-0.252-4.995,0.117-7.303c0.634-3.957,0.165-7.982,1.052-11.838
		c0.365-1.586-1.556-1.956-1.078-3.31c0.018-0.049-0.698-0.356-1.705-0.86c2.462-0.674,3.674-2.007,4.566-3.751
		c0.644-1.261,1.495-2.439,2.39-3.544c1.808-2.231,3.708-4.388,5.571-6.576c4.71-5.53,9.41-11.07,14.136-16.587
		c3.376-3.941,6.79-7.85,10.184-11.775c4.069-4.707,8.119-9.43,12.233-14.095c0.325-0.368,1.233-0.631,1.621-0.439
		c0.612,0.303,1.522,1.181,1.413,1.557c-0.396,1.362,0.347,2.36,0.787,3.397c2.436,5.728,4.967,11.414,7.463,17.115
		c3.392,7.747,6.777,15.497,10.175,23.241C278.156,226.186,279.424,228.996,280.782,232.044z M267.544,442.528
		c-0.123-0.645-0.185-0.953-0.239-1.262c-0.621-3.549-0.938-7.039,0.13-10.627c1.393-4.678,2.128-9.488,1.868-14.418
		c-0.134-2.551-0.299-5.137-0.029-7.664c0.456-4.271,1.246-8.506,1.895-12.758c0.516-3.385,1.932-6.355,3.872-9.17
		c1.799-2.609,4.237-4.541,6.442-6.725c3.399-3.367,7.729-5.076,12.164-6.359c3.113-0.902,6.409-1.234,9.647-1.623
		c3.295-0.396,6.606-0.842,9.925,0.094c2.912,0.818,5.9,1.373,8.811,2.197c4.441,1.258,8.101,3.973,10.984,7.371
		c2.782,3.281,4.608,7.357,5.598,11.557c1.387,5.885,2.647,11.85,3.28,17.852c1.01,9.602,0.568,19.242-0.615,29.062
		c6.73-0.307,13.391-0.611,20.043-0.914c0.063-4.805,0.172-9.34,0.173-13.877c0.001-8.867-0.083-17.736-0.083-26.605
		c-0.001-6.221,0.092-12.441,0.121-18.66c0.035-7.738,0.031-15.477,0.078-23.215c0.022-3.752,0.159-7.502,0.176-11.254
		c0.011-2.529-0.099-5.059-0.159-7.812c-1.688,0.037-3.11,0.086-4.534,0.098c-7.429,0.062-14.858,0.141-22.287,0.166
		c-10.302,0.037-20.605-0.074-30.904,0.07c-13.028,0.182-26.054,0.559-39.081,0.84c-1.266,0.027-2.605-0.287-3.786,0.025
		c-2.884,0.764-5.816-0.105-8.901,0.639c0.04,0.947,0.549,2.416,0.036,3.031c-1.157,1.387-0.825,2.842-0.874,4.283
		c-0.129,3.826-0.159,7.656-0.231,11.484c-0.036,1.912-0.078,3.824-0.117,5.736c-0.052,2.525-0.371,5-0.75,7.51
		c-0.578,3.834-0.323,7.797-0.353,11.707c-0.049,6.459-0.033,12.918-0.064,19.379c-0.027,5.348-0.093,10.693-0.123,16.041
		c-0.014,2.471,0.077,4.941,0.016,7.41c-0.124,5.008-0.328,10.012-0.471,15.02c-0.017,0.598,0.142,1.203,0.214,1.77
		C255.504,442.794,261.397,442.665,267.544,442.528z M143.451,398.712c-0.481,0.6-1.291,1.158-1.248,1.641
		c0.097,1.09-0.632,1.764-0.889,2.648c-1.088,3.758-2.228,7.5-3.326,11.254c-0.313,1.072-0.776,2.17-0.76,3.248
		c0.016,1.066-0.967,2.127-0.717,2.646c0.502,1.045-1.121,1.367-0.368,2.471c0.568,0.832-1.026,1.488-1.214,2.459
		c-0.059,0.309-0.241,0.59-0.326,0.895c-1.417,5.07-2.834,10.141-4.229,15.217c-0.226,0.818-0.348,1.666-0.562,2.713
		c2.112,0.105,3.976,0.199,5.841,0.293c-1.791,0.656-3.632,1.047-5.471,1.445c-0.639,0.139-1.276,0.299-0.951,1.293
		c2.443-0.129,4.896,0.35,7.247-0.645c0.306-0.131,0.842-0.145,1.066,0.039c0.728,0.598,1.329-0.016,1.972-0.1
		c0.187-0.023,0.341-0.299,0.51-0.459c0.773,0.963,1.779,0.25,2.666,0.385c6.036,0.908,12.078,0.068,18.114,0.064
		c4.135-0.002,8.27-0.334,12.404-0.541c3.018-0.152,6.031-0.422,9.05-0.5c5.527-0.146,11.058-0.152,16.585-0.291
		c4.465-0.111,8.928-0.326,13.392-0.506c0.598-0.023,1.194-0.105,1.563-0.141c-0.606-1.539-1.306-2.945-1.719-4.434
		c-1.129-4.068-2.095-8.182-3.205-12.256c-1.628-5.98-3.384-11.926-4.969-17.918c-0.913-3.451-1.529-6.98-2.397-10.445
		c-1.352-5.4-2.805-10.773-4.216-16.168c-0.688,0.229-1.254,0.416-2.151,0.713c0.04-0.943-0.042-1.648,0.118-2.295
		c0.557-2.244,1.118-4.492,1.824-6.691c2.118-6.605,4.315-13.186,6.457-19.783c0.475-1.463,0.848-2.959,1.324-4.637
		c-3.994,1.109-7.629,2.285-11.343,3.104c-3.49,0.77-7.13,0.896-10.579,1.791c-3.478,0.904-6.889,0.748-10.389,0.664
		c-2.155-0.051-4.551-0.832-6.525,0.934c-0.24,0.215-0.774,0.143-1.171,0.133c-2.464-0.051-4.93-0.107-7.394-0.188
		c-6.668-0.219-13.144-1.379-19.345-3.922c-0.981-0.402-2.03-0.639-3.297-1.027c0.603,2.795,1.238,5.119,2.363,7.357
		c2.393,4.762,4.474,9.68,6.918,14.414c1.249,2.418,1.562,5.385,4,7.068c-0.226,0.26-0.494,0.424-0.515,0.617
		c-0.157,1.396-0.001,2.818-0.849,4.123c-0.329,0.508-0.039,1.281,1.162,1.326c0.422-1.049,0.877-2.182,1.441-3.584
		c0.696,0.354,1.381,0.648,2.009,1.035c1.654,1.018,3.444,1.428,5.374,1.543c1.643,0.1,3.364,0.217,4.875,0.789
		c1.24,0.471,2.416,0.688,3.695,0.713c1.57,0.029,3.14,0.117,4.723,0.18c0.225,1.215,0.392,2.121,0.603,3.262
		c-0.729,0.412-1.426,0.941-2.211,1.225c-2.094,0.76-4.23,1.402-6.343,2.111c-1.499,0.502-2.953,1.285-4.489,1.502
		c-2.666,0.377-5.378,0.459-8.075,0.574c-1.445,0.061-2.052-0.475-2.269-2.016c-0.138-0.984-0.037-2.014,0.049-3.016
		c0.052-0.6,0.28-1.184,0.436-1.803c-2.705-1.115-1.81,1.574-3.04,2.191c0.722,0.154,1.124,0.24,1.615,0.346
		c-0.881,1.248-2.593,1.449-2.764,3.016C143.382,396.144,142.279,397.501,143.451,398.712z M389.091,242.641
		c-0.612,0.187-0.978,0.313-1.351,0.409c-4.785,1.229-9.536,2.615-14.365,3.637c-5.437,1.15-10.992,1.763-16.406,2.998
		c-4.836,1.104-9.668,1.307-14.486,0.619c-3.979-0.566-8.088-1.113-11.365-3.921c-0.482-0.413-1.182-0.573-1.781-0.851
		c-0.107,0.107-0.217,0.216-0.325,0.324c1.654,3.137,3.309,6.275,5.087,9.646c0.279-2.518,0.279-2.518,1.836-3.471
		c0.185,0.73,0.48,1.388,0.495,2.051c0.067,3.02,0.069,6.039,0.071,9.059c0.004,7.73-0.01,15.461-0.007,23.19
		c0.003,7.188,0.015,14.374,0.026,21.562c0.002,0.838,0.035,1.675,0.055,2.58c0.589-0.076,0.825-0.078,1.045-0.139
		c5.295-1.454,10.545-3.053,16.186-2.246c2.859,0.408,4.006,1.414,4.277,4.406c0.1,1.104,0.361,2.197,0.616,3.279
		c0.226,0.959,0.854,1.01,1.874,0.478c-0.169-0.856-0.273-1.784-0.539-2.663c-0.783-2.598-0.83-3.396,2.359-5.076
		c0.965-0.509,2.104-0.718,3.184-0.977c1.473-0.352,2.977-0.573,4.447-0.934c2.012-0.492,3.977-1.043,6.09-0.34
		c0.697,0.232,1.6,0.041,2.361-0.146c1.508-0.367,2.445,0.261,3.14,1.504c1.083,1.938,1.417,4.107,1.39,6.229
		c-0.052,4.217-0.202,8.455-0.691,12.641c-0.418,3.564-0.656,7.344-3.85,9.904c-0.199,0.16-0.195,0.57-0.309,0.938
		c-2.77,0.209-5.502,0.414-8.063,0.607c0.224,1.375,0.542,2.574,0.587,3.783c0.055,1.508-0.169,3.023-0.18,4.537
		c-0.043,6.387-0.045,12.773-0.078,19.158c-0.027,5.346-0.076,10.689-0.119,16.035c-0.041,5.27-0.108,10.539-0.125,15.809
		c-0.021,7.271-0.027,14.543-0.002,21.814c0.018,4.877,0.096,9.754,0.155,14.631c0.021,1.648,0.069,3.295,0.11,5.141
		c7.166-0.223,14.135-0.146,21.361-0.9c-0.532-2.643-1.022-5.08-1.559-7.746c0.777,0.285,1.327,0.486,2.154,0.789
		c0.088-5.383,0.315-10.553,0.228-15.719c-0.261-15.332-0.626-30.662-0.989-45.994c-0.23-9.752-0.572-19.504-0.783-29.256
		c-0.252-11.662-0.417-23.324-0.622-34.986c-0.031-1.76-0.076-3.52-0.114-5.278c-0.039-1.759-0.078-3.519-0.117-5.278
		c-0.038-1.76-0.076-3.519-0.115-5.277c-0.037-1.68-0.075-3.359-0.11-5.039c-0.036-1.759-0.108-3.519-0.095-5.277
		c0.016-1.751,0.385-3.545,0.107-5.238c-0.282-1.715,0.004-3.354-0.033-5.025c-0.186-8.156-0.361-16.313-0.544-24.471
		C389.2,243.756,389.149,243.361,389.091,242.641z M409.09,513.927c-3.607-0.279-7.014,0.643-10.397-0.164
		c-0.296-0.07-0.634,0.025-0.951,0.062c-1.331,0.152-2.657,0.4-3.991,0.453c-4.697,0.182-9.398,0.293-14.098,0.441
		c-2.754,0.088-5.508,0.188-8.262,0.303c-1.874,0.078-3.758,0.104-5.615,0.33c-0.695,0.084-1.332,0.668-1.992,1.027
		c-0.197,0.107-0.387,0.229-0.68,0.402c-0.115-0.615-0.213-1.139-0.332-1.785c-0.837,0.02-1.664-0.109-2.409,0.08
		c-2.445,0.621-4.928,0.137-7.396,0.352c-4.534,0.395-9.111,0.281-13.669,0.41c-1.856,0.055-3.709,0.213-5.564,0.285
		c-1.587,0.064-3.203,0.27-4.757,0.055c-1.629-0.227-3.208,0.686-4.802,0.021c-0.52,0.824-0.926,0.273-1.488-0.021
		c-1.272-0.668-2.466,0.441-3.655,0.393c-6.178-0.26-12.338,0.529-18.512,0.227c-0.233-0.012-0.468,0.043-0.703,0.059
		c-2.673,0.17-5.344,0.387-8.02,0.492c-3.588,0.141-7.179,0.201-10.77,0.283c-2.925,0.066-5.852,0.182-8.775,0.137
		c-1.49-0.023-2.998-0.643-4.367,0.465c-0.144,0.115-0.44,0.057-0.665,0.055c-2.206-0.02-4.413-0.033-6.619-0.072
		c-5.849-0.104-11.67,0.58-17.537,0.42c-3.954-0.107-7.936,0.494-11.926,0.344c-1.573-0.059-3.155,0.076-4.731,0.16
		c-5.692,0.297-11.381,0.686-17.077,0.889c-3.77,0.135-7.549-0.035-11.324,0.018c-5.282,0.074-10.532,0.717-15.845,0.508
		c-5.181-0.203-10.386,0.207-15.581,0.326c-3.998,0.092-7.996,0.137-11.994,0.234c-0.923,0.023-1.843,0.256-2.764,0.252
		c-4.718-0.016-9.437-0.162-14.154-0.104c-6.073,0.072-12.144,0.293-18.215,0.471c-0.286,0.008-0.565,0.227-0.988,0.406
		c0.11,5.025,0.22,10.023,0.332,15.104c0.758,0.102,1.431,0.193,2.083,0.281c0.632-1.934,0.785-2.064,2.458-1.963
		c1.345,0.082,2.691,0.318,4.031,0.283c6.499-0.172,13.016-0.031,19.461-1.172c1.09-0.193,2.235-0.076,3.354-0.102
		s2.241-0.016,3.358-0.084c1.194-0.072,2.413-0.43,3.566-0.268c0.905,0.125,1.704-1.6,2.572-0.092
		c1.294-1.191,2.855-0.271,4.271-0.535c2.451-0.459,4.904-0.52,7.349,0.107c0.531,0.137,1.167,0.32,1.64,0.154
		c3.541-1.234,7.221-0.484,10.813-0.693c8.245-0.479,16.523-0.361,24.786-0.561c4.401-0.105,8.798-0.396,13.198-0.557
		c12.378-0.445,24.757-0.861,37.135-1.301c11.095-0.395,22.19-0.801,33.284-1.213c9.579-0.355,19.155-0.75,28.734-1.082
		c14.85-0.516,29.7-0.986,44.549-1.488c12.426-0.42,24.852-0.883,37.277-1.277c6.15-0.197,12.303-0.281,18.271-0.412
		c1.148-0.996,1.715-2.324,3.619-3.029c-0.34,1.084-0.559,1.691-0.721,2.312c-0.238,0.916,0.342,1.691,1.053,1.322
		c1.451-0.75,1.795,0.629,2.785,1.41c-0.092-4.133-0.174-7.854-0.256-11.605c-0.963,0.178-1.795,0.332-2.586,0.479
		c-0.191-0.277-0.389-0.455-0.447-0.67c-0.496-1.803-1.672-2.23-3.432-1.984c-2.508,0.352-5.065,0.377-7.551,0.826
		c-0.672,0.121-0.727-0.064-1.174-0.312c-1.232-0.684-1.928,0.479-2.818,1.582C409.288,514.815,409.197,514.405,409.09,513.927z
		 M338.292,439.978c0.098-1.617,0.168-3.031,0.271-4.443c0.188-2.543,0.523-5.082,0.564-7.627
		c0.085-5.199-0.479-10.355-1.413-15.469c-1.309-7.166-3.13-14.137-6.608-20.645c-2.758-5.16-7.039-8.092-12.429-9.678
		c-2.442-0.719-4.944-1.256-7.444-1.746c-1.475-0.291-3.036-0.605-4.496-0.42c-3.705,0.469-7.425,0.748-11.115,1.482
		c-4.81,0.959-9.16,2.754-12.938,5.779c-2.038,1.631-3.971,3.525-5.488,5.635c-1.455,2.021-2.78,4.369-3.317,6.762
		c-0.725,3.232-0.841,6.643-0.865,9.98c-0.048,6.539,0.068,13.084,0.282,19.623c0.091,2.773,0.603,5.535,0.913,8.303
		c0.122,1.084,0.209,2.172,0.322,3.258c0.047,0.455,0.123,0.906,0.211,1.547C295.958,441.536,317.075,440.759,338.292,439.978z
		 M137.897,449.817c-2.797,0.062-5.409,0.141-8.021,0.168c-1.276,0.012-2.566,0.029-3.827-0.135
		c-2.014-0.262-4.009-0.67-6.197-1.049c-0.136,4.152-0.262,7.986-0.389,11.867c2.352-0.051,4.384,0.062,6.375-0.174
		c3.729-0.443,7.561,0.6,11.212-0.811c1.398,0.852,2.701,0.145,4.102-0.096c2.385-0.414,2.412-0.256,2.975-2.369
		c0.043,0.066,0.111,0.127,0.125,0.199c0.044,0.234,0.069,0.473,0.099,0.711c0.154,1.236,1.034,1.934,2.347,1.846
		c2.561-0.172,5.111-0.152,7.683-0.09c3.574,0.086,7.304,0.865,10.795-0.775c0.16-0.074,0.424,0.068,0.639,0.115
		c0.743,0.164,1.51,0.539,2.225,0.455c3.242-0.377,6.542,0.102,9.752-0.693c0.199-0.049,0.482-0.039,0.638,0.07
		c0.933,0.648,1.793,0.336,2.684-0.098c0.264-0.127,0.608-0.139,0.913-0.127c2.465,0.09,4.93,0.279,7.394,0.279
		c3.437,0,6.875-0.111,10.311-0.221c5.728-0.184,11.454-0.439,17.182-0.6c3.839-0.107,7.683-0.061,11.523-0.164
		c5.891-0.16,11.78-0.396,17.67-0.586c6.386-0.203,12.772-0.414,19.16-0.578c7.842-0.201,15.685-0.359,23.527-0.531
		c1.257-0.027,2.516,0.004,3.771-0.043c3.501-0.131,7.002-0.271,10.5-0.467c0.303-0.016,0.583-0.463,0.672-0.539
		c0.525,0.256,1.012,0.695,1.48,0.676c0.901-0.037,1.788-0.461,2.687-0.484c0.906-0.023,1.824,0.389,2.729,0.361
		c4.032-0.125,8.06-0.377,12.091-0.514c4.039-0.137,8.081-0.195,12.121-0.283c10.218-0.227,20.437-0.439,30.654-0.678
		c13.581-0.316,27.161-0.648,40.741-0.98c4.471-0.109,8.939-0.27,13.411-0.352c1.206-0.021,2.03-0.316,2.132-1.676
		c0.023-0.309,0.215-0.602,0.273-0.912c0.15-0.791,0.5-1.457,1.4-1.227c0.75,0.193,1.531,0.557,1.447,1.611
		c-0.061,0.752-0.08,1.508-0.127,2.48c0.895-0.428,1.58-0.961,1.143-1.639c-0.465-0.723-0.064-1.129,0.018-1.723
		c0.434-3.15,0.16-6.289-0.275-9.549c-0.859,0.018-1.568,0.027-2.277,0.051c-17.07,0.52-34.143,1.035-51.213,1.566
		c-18.195,0.564-36.392,1.131-54.587,1.721c-10.135,0.33-20.269,0.711-30.404,1.068c-14.277,0.504-28.553,1.031-42.831,1.5
		c-9.574,0.314-19.151,0.525-28.725,0.834c-1.137,0.037-2.263,0.396-3.445,0.617c-0.467-0.127-1.077-0.422-1.693-0.434
		c-1.251-0.021-2.503,0.135-3.756,0.172c-6.694,0.207-13.388,0.396-20.083,0.602c-3.504,0.107-7.008,0.223-10.511,0.361
		c-3.223,0.127-6.444,0.328-9.668,0.424c-2.66,0.08-5.325,0.004-7.984,0.09c-3.154,0.1-6.304,0.307-9.457,0.447
		c-1.511,0.068-3.262-0.373-4.479,0.248c-1.622,0.828-2.98,0.59-4.52,0.291c-0.517-0.1-1.085,0.064-1.551,0.1
		c-0.132,0.885,1.391,1.477-0.179,2.127C138.168,451.487,138.06,450.817,137.897,449.817z M126.777,486.241
		c0.804-0.363,1.097-0.121,1.776,0.346c0.64,0.439,1.963,0.123,2.894-0.162c1.119-0.344,1.552,1.561,2.649,0.67
		c0.453-0.367,0.757-0.201,1.237-0.127c1.082,0.166,2.369,0.432,3.264,0.008c1.119-0.531,2.052-0.17,2.992-0.008
		c1.021,0.174,1.852-1.48,2.876-0.205c4.409-0.096,8.818-0.193,13.401-0.293c0.242-0.615,0.528-1.344,0.83-2.111
		c0.434,1.494,1.04,2.209,1.338,1.898c0.905-0.949,1.636,0.072,2.44,0.021c2.726-0.172,5.467-0.104,8.198-0.213
		c7.106-0.283,14.212-0.592,21.315-0.943c1.579-0.078,3.281,0.285,4.645-0.934c0.616,0.691,1.359,0.209,2.052,0.248
		c0.482,0.027,0.955,0.373,1.43,0.371c1.512-0.01,3.022-0.133,4.534-0.18c5.881-0.184,11.763-0.334,17.644-0.541
		c5.141-0.182,10.281-0.4,15.419-0.666c0.728-0.037,1.437-0.436,2.151-0.666c0.192,0.18,0.606,0.682,0.698,0.629
		c0.738-0.43,1.415-0.963,2.095-1.451c0.771,1.359,2.313,1.479,3.969,1.27c0.893-0.113,1.779-0.27,2.671-0.387
		c0.758-0.1,1.692,1.119,2.355-0.354c0.061-0.137,1.497,0.365,2.301,0.539c1.14,0.25,2.184-0.451,3.456-0.107
		c1.287,0.348,2.815-0.033,4.203-0.287c1.111-0.203,2.169-0.693,3.27-1.064c0.038,0.379,0.067,0.672,0.088,0.881
		c0.909,0.539,1.728-1.113,2.565,0.059c2.418-0.678,4.847-0.018,7.269-0.068c4.298-0.092,8.594-0.252,12.89-0.412
		c7.474-0.279,14.948-0.582,22.422-0.875c9.239-0.363,18.477-0.756,27.719-1.078c7.75-0.27,15.503-0.551,23.258-0.654
		c7.936-0.104,15.862-0.494,23.799-0.574c3.586-0.035,7.167-0.395,10.753-0.521c7.903-0.279,15.808-0.623,23.713-0.65
		c1.673-0.006,1.782-1.607,3.067-1.848c0.357-0.066,0.725-1.391,0.67-2.107c-0.133-1.701-0.326-3.381,0.051-5.076
		c0.072-0.32-0.004-0.672-0.01-0.982c-1.463,0.191-2.719,0.477-3.98,0.502c-10.867,0.223-21.735,0.416-32.604,0.574
		c-2.793,0.039-5.59-0.18-8.381-0.102c-8.91,0.25-17.817,0.637-26.729,0.863c-4.786,0.121-9.58-0.08-14.367,0.037
		c-9.971,0.242-19.937,0.633-29.907,0.904c-10.458,0.283-20.918,0.484-31.376,0.748c-5.271,0.133-10.54,0.328-15.81,0.48
		c-11.861,0.344-23.722,0.684-35.583,1.018c-7.906,0.223-15.811,0.449-23.718,0.641c-12.691,0.307-25.383,0.574-38.075,0.879
		c-10.067,0.242-20.132,0.52-30.199,0.771c-4.348,0.109-8.696,0.193-13.089,0.291c-0.335,4.01-0.497,7.857-0.191,11.811
		c0.778-0.246,1.338-0.621,1.833-0.549c4.158,0.605,4.154,0.631,6.189-2.9C126.991,484.718,126.884,485.479,126.777,486.241z
		 M197.977,380.679c1.263,0.461,2.024,1.002,2.362,2.283c2.358,8.945,4.875,17.848,7.261,26.787
		c2.283,8.549,4.49,17.119,6.691,25.691c0.739,2.881,1.359,5.791,2.054,8.771c0.054,0.008,0.288,0.066,0.521,0.061
		c7.109-0.201,14.218-0.398,21.326-0.633c0.76-0.025,1.512-0.281,2.292-0.434c0.083-2.982,0.183-5.768,0.23-8.553
		c0.043-2.557-0.021-5.113,0.051-7.668c0.119-4.223,0.349-8.443,0.459-12.666c0.127-4.865,0.16-9.73,0.261-14.596
		c0.134-6.451,0.324-12.904,0.435-19.355c0.09-5.266,0.093-10.533,0.143-15.801c0.047-4.947,0.106-9.896,0.154-14.846
		c0.02-1.998,0.017-3.994,0.031-5.99c0.022-2.959,1.26-4.256,4.163-4.354c1.016-0.035,2.032-0.047,3.049-0.07
		c-0.638-0.367-1.269-0.404-1.899-0.398c-4.233,0.045-8.466,0.131-12.699,0.127c-0.929,0-2.167,0.004-2.723-0.543
		c-1.319-1.297-2.833-1.625-4.512-1.674c-5.484-0.158-10.973-0.205-16.451-0.471c-3.746-0.18-7.538,0.693-11.414-0.328
		c2.533,2.924,5.065,5.848,7.569,8.738c0.617-0.186,1.125-0.338,1.702-0.51c0.757,1.908,0.09,3.508-0.553,5.086
		c-0.718,1.766-1.573,3.477-2.236,5.262c-0.663,1.783-1.166,3.625-1.731,5.443c-0.492,1.584-0.912,3.191-1.471,4.752
		C201.192,369.948,200.451,375.452,197.977,380.679z M207.341,462.921c-0.528-1.182-1.502-1.301-2.685-1.271
		c-13.309,0.336-26.62,0.582-39.929,0.928c-8.166,0.211-16.328,0.572-24.493,0.826c-2.117,0.064-4.243-0.102-6.357-0.004
		c-0.817,0.039-1.712,0.904-2.404,0.729c-3.1-0.783-6.17-0.137-9.107,0.172c-0.931,0.516-1.862,1.031-3.039,1.682
		c0.035,1.588,0.076,3.451,0.121,5.48c0.295-0.271,0.472-0.408,0.617-0.574c0.204-0.23,0.383-0.484,0.574-0.727
		c1.617,1.27,1.617,1.27,3.241,0.033c0.47,1.225,1.354,1.553,2.634,1.404c1.093-0.127,2.231,0.17,3.339,0.109
		c0.895-0.049,1.776-0.354,2.916-0.598c0.106,0.076,0.503,0.361,1.03,0.738c0.16-0.754,0.269-1.27,0.378-1.783
		c0.201,1.18,0.624,1.758,2.016,1.617c2.338-0.238,4.706-0.186,7.058-0.312c0.157-0.01,0.278-0.502,0.435-0.758
		c0.053-0.088,0.165-0.139,0.2-0.166c0.266,0.389,0.52,0.76,0.989,1.447c0.338-0.592,0.572-1,0.818-1.428
		c0.943,1.523,2.358,0.939,3.512,1.037c3.229,0.273,6.398-0.564,9.686-0.402c5.429,0.27,10.893-0.178,16.342-0.338
		c5.383-0.158,10.765-0.363,16.149-0.494c7.714-0.188,15.43-0.301,23.144-0.492c11.164-0.273,22.327-0.574,33.489-0.9
		c2.55-0.074,5.095-0.34,7.645-0.449c2.393-0.104,4.791-0.109,7.186-0.17c7.43-0.188,14.859-0.383,22.288-0.57
		c6.224-0.158,12.448-0.279,18.671-0.477c7.504-0.238,15.005-0.609,22.511-0.791c5.823-0.143,11.653,0,17.475-0.137
		c6.939-0.16,13.875-0.561,20.814-0.717c7.744-0.174,15.49-0.176,23.236-0.281c5.096-0.07,10.19-0.182,15.286-0.287
		c5.358-0.109,10.716-0.229,16.073-0.357c0.539-0.014,1.076-0.131,1.588-0.197c0.221-2.672,0.432-5.207,0.662-8.01
		c-1.381,0.029-2.564,0.055-3.75,0.082c-16.615,0.404-33.229,0.814-49.846,1.207c-10.931,0.26-21.862,0.49-32.793,0.736
		c-12.681,0.287-25.361,0.58-38.042,0.865c-7.638,0.172-15.277,0.309-22.914,0.512c-8.29,0.223-16.577,0.547-24.867,0.746
		c-6.29,0.15-12.584,0.125-18.875,0.275c-5.309,0.127-10.616,0.361-15.92,0.613c-2.065,0.098-4.257-0.361-6.08,1.143
		C208.144,462.794,207.776,462.796,207.341,462.921z M305.581,319.854c0.137-1.469,0.322-2.797,0.371-4.13
		c0.077-2.104,0.388-2.655,2.426-3.23c1.297-0.366,2.642-0.581,3.977-0.788c5.297-0.82,10.612-1.109,15.958-0.488
		c1.609,0.188,2.649,0.953,3.056,2.552c0.354,1.39,0.717,2.778,1.121,4.153c0.344,1.166,0.997,1.766,2.348,1.005
		c-0.194-0.638-0.197-1.425-0.594-1.815c-1.801-1.779-2.086-4.067-2.104-6.344c-0.043-5.238-0.353-10.447-0.777-15.669
		c-0.351-4.312,0.03-8.678-0.027-13.019c-0.039-2.973-0.255-5.943-0.435-8.914c-0.039-0.658-0.027-2.491-0.024-3.038
		c0.009-2.442,0.849-5.023-1.159-7.132c1.432-1.538-0.375-2.575-0.482-3.859c0.661-0.591,0.661-0.591,0.745-1.544
		c-5.428,2.938-13.063,4.451-18.464,3.948c-2.854-0.266-5.709-0.512-8.56-0.812c-3.874-0.407-7.784-0.604-11.405-2.332
		c-0.831-0.396-1.858-0.381-2.797-0.551c-2.823-0.512-5.67-0.92-8.464-1.561c-2.612-0.6-5.167-1.445-7.828-2.206
		c-0.098,3.36-0.261,6.538-0.271,9.717c-0.026,7.976-0.044,15.954,0.046,23.929c0.122,10.713,0.33,21.424,0.553,32.135
		c0.028,1.32,0.377,2.635,0.591,4.035c1.085-0.023,1.925-0.041,2.894-0.062c0.304-1.561,0.723-3.027,0.844-4.518
		c0.127-1.557-0.033-3.136-0.074-5.029c2.402-0.193,4.597-0.391,6.795-0.539c0.937-0.062,1.883,0.016,2.821-0.039
		c2.931-0.174,5.857-0.43,8.791-0.562c3.196-0.143,4.042,1.203,4.636,4.242c0.173,0.886,0.466,1.749,0.69,2.572
		C302.439,319.925,303.79,319.894,305.581,319.854z M206.339,333.095c2.554,0.119,5.021,0.258,7.491,0.344
		c2.39,0.084,4.781,0.1,7.171,0.174c2.43,0.076,4.858,0.186,7.302,0.281c0.121-0.604,0.229-0.908,0.235-1.213
		c0.086-4.057,0.181-8.113,0.228-12.172c0.042-3.605,0.997-4.879,4.42-5.768c0.535-0.14,1.04-0.402,1.579-0.521
		c3.469-0.771,6.876-1.994,10.542-1.129c3.528,0.833,5.638,1.945,6.11,7.043c0.051,0.547,0.148,1.094,0.256,1.633
		c0.095,0.473,0.235,0.936,0.414,1.629c1.403-1.748,1.252-3.334,0.775-5.014c-0.648-2.285-0.408-2.711,1.723-3.705
		c3.842-1.793,7.815-1.982,11.897-1.028c0.652,0.152,1.331,0.194,2.159,0.311c0.033-6.079,0.065-11.886,0.097-17.714
		c-6.378-0.354-12.57-0.746-18.768-1.029c-7.878-0.358-15.76-0.645-23.642-0.929c-4.685-0.169-9.372-0.282-14.059-0.401
		c-0.459-0.012-0.989-0.01-1.372,0.196c-1.809,0.978-3.663,1.907-5.345,3.077c-3.533,2.457-6.849,5.243-10.478,7.541
		c-3.706,2.346-6.797,5.365-10.072,8.215c0.104,0.381,0.215,0.788,0.425,1.557c-1.105-0.338-1.893-0.578-2.459-0.75
		c-0.551,0.412-0.995,0.744-1.506,1.126c1.003,1.11,1.987,2.153,2.919,3.24c4.154,4.845,8.302,9.696,12.429,14.563
		c0.552,0.652,1.129,0.941,2.017,1c1.801,0.117,3.051-0.441,3.419-2.205C205.375,331.009,205.375,331.009,206.339,333.095z
		 M386.692,237.012c-1.601-2.81-3.151-5.758-4.91-8.577c-5.277-8.457-10.611-16.878-15.969-25.285
		c-3.773-5.92-7.634-11.786-11.418-17.7c-0.367-0.575-0.68-1.216-1.393-0.902c-0.455,0.2-0.74,0.813-1.073,1.262
		c-0.353,0.475-0.653,0.99-1.011,1.46c-0.369,0.485-0.9,0.88-1.154,1.414c-2.787,5.827-5.546,11.667-8.289,17.514
		c-2.605,5.551-5.181,11.115-7.773,16.672c-1.484,3.182-3.002,6.347-4.452,9.544c-0.583,1.286-0.681,2.995-1.603,3.882
		c-2.126,2.043-1.943,3.905-0.387,6.02c0.137,0.187,0.241,0.397,0.358,0.592c1.819,0.407,3.769,0.479,5.351,1.278
		c2.678,1.353,5.529,1.613,8.344,1.732c6.134,0.26,12.276,0.148,18.258-1.6c1.068-0.312,2.174-0.523,3.275-0.685
		c6.891-1.006,13.459-3.223,20.061-5.312C384.157,237.928,385.385,237.466,386.692,237.012z M255.686,183.635
		c-0.283,0.117-0.468,0.137-0.56,0.241c-4.186,4.702-8.429,9.354-12.528,14.13c-7.889,9.192-15.693,18.457-23.539,27.686
		c-1.858,2.187-3.793,4.31-5.591,6.543c-1.201,1.492-0.965,2.535,0.825,3.359c3.32,1.529,6.71,2.906,10.074,4.34
		c0.144,0.061,0.31,0.084,0.468,0.092c5.949,0.294,11.877,1.059,17.856,0.665c7.793-0.514,15.523-1.539,23.237-2.715
		c2.361-0.36,4.743-0.63,6.827-1.958c1.503-0.957,3.069-1.564,5.341-0.284c-3.317-9.432-7.476-17.846-11.135-26.461
		C263.312,200.681,259.453,192.178,255.686,183.635z M322.706,313.756c-2.422,0.245-4.706,0.446-6.979,0.726
		c-0.787,0.097-1.187,0.631-1.282,1.484c-0.157,1.422-0.467,2.826-0.664,4.244c-0.169,1.215-0.835,1.812-2.041,1.941
		c-3.005,0.32-5.999,0.811-9.011,0.971c-2.215,0.119-4.451-0.188-6.679-0.283c-3.117-0.133-3.743-0.732-4.106-3.746
		c-0.127-1.055-0.464-2.084-0.72-3.185c-2.506,0.347-4.666,0.646-6.703,0.928c-0.481,2.134-0.961,4.22-1.42,6.31
		c-0.569,2.59-1.397,3.424-3.99,3.461c-3.341,0.049-6.689-0.006-10.027-0.154c-3.067-0.135-3.085-0.27-3.793-3.434
		c-0.503-2.25-1.231-4.418-2.761-6.16c-1.473,0.057-1.984,0.669-1.601,2.023c0.193,0.68,0.378,1.42,0.311,2.107
		c-0.315,3.236-1.166,5.889-5.327,6.004c-1.425,0.039-2.859-0.039-4.28-0.16c-1.981-0.172-3.96-0.393-5.929-0.674
		c-1.085-0.154-1.839-0.527-1.753-2.002c0.097-1.646-0.242-3.322-0.448-4.98c-0.193-1.541-1.247-2.922-2.27-3.093
		c-2.822-0.47-5.224,1.531-5.259,4.396c-0.019,1.518,0.007,3.035-0.019,4.551c-0.055,3.176-0.13,6.352-0.194,9.373
		c1.63,1.316,3.302,1.359,4.987,1.242c6.895-0.479,13.835,0.336,20.707-0.744c1.925,0.982,3.937,0.248,5.888,0.213
		c21.084-0.379,42.16-0.85,63.257-0.664c13.373,0.119,26.801,0.273,40.147-1.293c0.767-0.09,1.197-0.377,1.802-0.807
		c1.543-1.096,1.566-2.674,1.674-4.188c0.297-4.209,0.666-8.43,0.577-12.637c-0.036-1.684,0.268-3.689-1.108-5.303
		c-2.029,0.943-4.565-0.042-6.402,2.026c0.377,0.823,0.861,1.646,1.142,2.533c1.026,3.256,0.481,4.694-2.995,5.22
		c-0.942,0.143-1.935-0.008-2.865,0.176c-3.396,0.67-6.608-0.064-9.821-1.063c-1.312-0.409-1.958-1.243-2.231-2.513
		c-0.348-1.619-0.733-3.229-1.158-5.082c-2.066,0.583-3.996,1.127-5.954,1.679c0.724,2.821,1.534,5.339,0.772,8.218
		c-1.855,0.318-3.721,0.697-5.604,0.953c-3.764,0.512-7.457-0.295-11.18-0.639c-1.74-0.16-2.789-0.789-3.191-2.544
		C323.797,317.418,323.244,315.683,322.706,313.756z M274.303,242.381c-0.904,0.02-1.304-0.014-1.691,0.043
		c-4.405,0.653-8.788,1.532-13.215,1.931c-5.635,0.509-11.303,0.808-16.96,0.864c-4.05,0.041-8.118-0.342-12.153-0.77
		c-2.435-0.26-4.854-0.85-7.217-1.516c-1.512-0.426-2.875-1.357-4.368-1.887c-2.129-0.757-4.314-1.353-6.732-2.097
		c-0.919,17.723-1.11,35.232-1.938,52.787c2.555-0.264,5.162-0.77,7.764-0.75c5.238,0.038,10.473,0.381,15.711,0.564
		c5.974,0.211,11.951,0.367,17.925,0.583c4.933,0.179,9.864,0.429,14.797,0.603c0.835,0.029,1.678-0.163,2.55-0.257
		c0.101-3.603,0.198-6.937,0.285-10.269c0.089-3.422,0.202-6.842,0.241-10.264c0.065-5.743,0.052-11.486,0.139-17.229
		c0.02-1.325-0.008-2.515-1.284-2.974c-0.194-1.613,2.259-1.184,1.722-2.912c-1.414-0.552-3.025-0.981-3.358-2.839
		c1.701-1.825,3.539-1.143,5.501-0.255C272.725,244.702,273.375,243.745,274.303,242.381z M170.948,307.007
		c-0.562,0.788-1.008,1.537-1.577,2.176c-0.568,0.639-1.18,1.5-1.913,1.676c-1.466,0.349-2.333,1.326-3.232,2.318
		c-8.039,8.873-16.08,17.744-24.076,26.654c-1.801,2.008-3.49,4.123-5.118,6.271c-1.024,1.354-0.61,2.32,1.099,2.648
		c1.347,0.258,2.609,0.541,3.671,1.502c0.391,0.354,0.99,0.533,1.525,0.658c2.164,0.502,4.319,1.166,6.516,1.375
		c4.833,0.461,9.701,1.031,14.546,0.314c5.808-0.857,11.58-0.652,17.37,0.039c0.865,0.104,1.759,0.109,2.625,0.023
		c5.661-0.561,11.11-2.107,16.536-3.709c1.542-0.455,2.96-1.326,4.439-2.008C192.452,333.505,181.766,320.339,170.948,307.007z
		 M329.519,253.317c-8.853-16.881-17.312-34.087-25.973-51.68c-1.16,1.594-2.231,2.921-3.146,4.348
		c-3.912,6.105-7.789,12.234-11.657,18.367c-2.214,3.511-4.344,7.075-6.604,10.556c-0.773,1.192-1.33,2.326-0.718,3.798
		c-2.639,1.146-3.865,3.383-5.13,5.616c-1.275,2.248-2.645,4.441-4.195,7.03c3.962,0.933,7.512,1.805,11.08,2.595
		c2.171,0.48,4.383,0.777,6.554,1.258c3.02,0.667,6,1.531,9.034,2.113c1.866,0.359,3.816,0.253,5.704,0.524
		c6.546,0.941,12.881,0.509,18.844-2.643c0.981-0.519,1.909-1.214,2.951-1.521C327.35,253.36,328.548,253.411,329.519,253.317z
		 M164.637,389.88c-1.976-0.68-3.719-1.484-5.551-1.857c-2.443-0.496-4.955-0.658-7.761-1.004c-0.125,0.932-0.293,2.158-0.455,3.385
		c-0.16,1.213-0.313,2.426-0.47,3.641C154.827,394.384,160.102,392.86,164.637,389.88z M355.256,178.922
		c5.133,6.044,18.259,5.04,23.193-0.169C370.596,180.831,363.004,178.698,355.256,178.922z M172.629,305.296
		c3.909,0.062,7.75,0.842,10.992-2.081c-3.367-1.572-7.343-0.36-10.257-3.452C172.914,301.842,171.948,303.381,172.629,305.296z
		 M426.065,466.464c0.209-0.744,0.617-1.49,0.588-2.217c-0.109-2.754-0.359-5.5-0.557-8.244c-1.514,0.066-1.443,0.086-1.742,1.15
		c-0.309,1.107-0.826,2.131-0.203,3.332c0.158,0.305-0.262,0.91-0.416,1.375c-0.424-0.328-0.43-0.617-0.521-0.875
		c-0.08-0.23-0.256-0.428-0.467-0.764C421.34,464.155,421.819,465.05,426.065,466.464z M426.872,477.339
		c-0.375-3.43,0.551-6.996-0.998-10.434c-0.668,0.117-1.199,0.211-1.746,0.307c-0.102,1.188-0.465,2.361,1.135,2.596
		c-0.25,2.648-0.496,5.26-0.756,8C425.5,477.61,426.135,477.485,426.872,477.339z M184.729,308.757
		c-2.754,0.061-5.312,0.117-8.221,0.181c1.121,1.308,2.127,2.482,3.202,3.735C181.458,311.31,183.04,310.075,184.729,308.757z
		 M271.585,442.325c-0.277-1.811-0.536-3.506-0.794-5.199c-0.173,0.018-0.346,0.035-0.519,0.055
		c-0.061,1.713-0.121,3.426-0.186,5.279C270.75,442.399,271.114,442.368,271.585,442.325z M278.946,335.312
		c-0.012,0.145-0.024,0.287-0.037,0.432c2.894-0.064,5.787-0.129,9.206-0.203c-0.68-0.26-0.873-0.4-1.064-0.396
		C284.349,335.188,281.647,335.253,278.946,335.312z M267.745,335.942c-0.021-0.121-0.043-0.242-0.065-0.363
		c-1.013,0.023-2.03,0.107-3.04,0.055c-2.015-0.104-2.013-0.133-3.11,0.445C263.736,336.032,265.741,335.987,267.745,335.942z
		 M289.904,335.188c-0.007,0.131-0.015,0.262-0.022,0.393c1.203-0.025,2.406-0.053,3.608-0.078
		c-0.001-0.131-0.003-0.264-0.004-0.395C292.292,335.136,291.098,335.161,289.904,335.188z M421.51,457.95
		c1.816-0.096,1.816-0.096,1.264-2.283C422.231,456.647,421.87,457.298,421.51,457.95z M256.706,335.745
		c-0.014,0.102-0.028,0.205-0.042,0.307c1.124-0.023,2.247-0.049,3.37-0.074c-0.002-0.102-0.004-0.203-0.007-0.307
		C258.92,335.696,257.812,335.72,256.706,335.745z M298.233,335.265c0.019-0.086,0.038-0.172,0.057-0.26
		c-0.915,0.021-1.83,0.041-2.745,0.061c0.001,0.086,0.002,0.172,0.003,0.258C296.443,335.304,297.339,335.284,298.233,335.265z
		 M299.666,335.071c1.053,0.867,1.518,0.227,2.357-0.191C301.137,334.952,300.583,334.997,299.666,335.071z M324.398,236.604
		c0.519-1.239,0.517-1.809-0.765-1.878C323.867,235.299,324.042,235.728,324.398,236.604z"/>
	<path display="inline" fill-rule="evenodd" clip-rule="evenodd" d="M807.284,542.913c0.207,1.246-0.256,2.141-1.268,2.377
		c0.658,0.883,1.541,1.535,1.609,2.262c0.189,2.041,0.936,4.117-0.211,6.18c-0.383,0.689-0.242,1.67-0.357,2.666
		c-1.436,0.281-1.52-1.812-2.947-1.748c0.262-1.238,0.615-2.287,0.662-3.352c0.039-0.859-0.471-1.912,0.037-2.568
		c0.582-0.748-0.232-1.643,0.531-2.279c0.121-0.102-0.232-0.82-0.422-1.229c-0.52-1.115-0.439-2.123,0.566-3.113
		C806.036,542.354,806.657,542.634,807.284,542.913z M806.432,552.177c-0.127,0.031-0.254,0.062-0.381,0.094
		c0.086,0.572,0.174,1.146,0.262,1.721c0.053-0.008,0.105-0.016,0.158-0.023C806.458,553.37,806.446,552.774,806.432,552.177z"/>
	<path display="inline" fill-rule="evenodd" clip-rule="evenodd" d="M806.932,565.255c1.328,2.045,1.311,4.348-0.211,5.637
		c0.561,0.209,1.023,0.381,1.617,0.602c-0.236,0.592-1.238,0.844-0.695,1.84c0.641,1.172,0.35,2.494-0.121,3.861
		c-0.688-0.504-1.299-0.951-1.812-1.326c0.145-1.846,0.287-3.658,0.428-5.471c-0.121-0.025-0.242-0.051-0.365-0.076
		c-0.139,0.373-0.279,0.744-0.529,1.414c-0.344-1.25-0.23-2.156,0.08-3.15c0.318-1.016,0.4-2.137-1.006-2.68
		c0.254-0.402,0.502-0.791,0.924-1.459c0.227,0.551,0.35,0.85,0.488,1.188c0.418-0.111,0.842-0.223,1.264-0.334L806.932,565.255z"/>
	<path display="inline" fill-rule="evenodd" clip-rule="evenodd" d="M805.344,522.321c-0.314-1.316-0.629-2.635-1.01-4.236
		c0.832,0.289,1.402,0.488,1.977,0.688c-0.172,1.195-0.334,2.332-0.498,3.467C805.657,522.267,805.5,522.294,805.344,522.321z"/>
	<path display="inline" fill-rule="evenodd" clip-rule="evenodd" d="M807.018,560.823c-0.773,0.99-1.396,1.785-2.02,2.582
		c-0.123-0.051-0.246-0.102-0.371-0.152c0.217-0.514,0.572-1.012,0.625-1.543C805.411,560.146,805.364,560.14,807.018,560.823z"/>
	<path display="inline" fill-rule="evenodd" clip-rule="evenodd" d="M807.788,578.312c-0.896,0.766,0.043,2.445-1.805,2.656
		c0.785-0.85,0.785-0.85-0.324-2.727C806.293,578.263,806.905,578.282,807.788,578.312z"/>
	<path display="inline" fill-rule="evenodd" clip-rule="evenodd" d="M807.032,536.634c-0.463,0.955-0.863,1.777-1.262,2.602
		c-0.121-0.037-0.244-0.074-0.365-0.113c0.035-0.637,0.07-1.275,0.107-1.963C805.987,536.995,806.5,536.817,807.032,536.634z"/>
	<path display="inline" fill-rule="evenodd" clip-rule="evenodd" d="M805.883,526.099c-1.438-1.445,0.297-1.748,0.521-2.471
		C806.256,524.329,806.11,525.03,805.883,526.099z"/>
	<path display="inline" fill-rule="evenodd" clip-rule="evenodd" d="M806.993,565.3c-0.256-0.598-1.02-1.166-0.15-1.826
		c0.133-0.102,0.551-0.062,0.646,0.061c0.643,0.82,0.002,1.264-0.561,1.719C806.932,565.255,806.993,565.3,806.993,565.3z"/>
	<path display="inline" fill-rule="evenodd" clip-rule="evenodd" d="M287.371,143.171c-0.11-0.443-0.22-0.886-0.33-1.329
		c0.225,0.159,0.519,0.274,0.651,0.489c0.098,0.158-0.016,0.446-0.036,0.676C287.562,143.062,287.466,143.116,287.371,143.171z"/>
	<path display="inline" fill-rule="evenodd" clip-rule="evenodd" d="M183.798,629.698c0.383,0.168,0.772,0.324,1.141,0.52
		c0.036,0.02-0.055,0.393-0.078,0.391c-0.413-0.018-0.825-0.068-1.237-0.111C183.682,630.231,183.74,629.964,183.798,629.698z"/>
	<path display="inline" fill-rule="evenodd" clip-rule="evenodd" d="M804.856,529.61c0.049-0.248,0.096-0.494,0.145-0.742
		c0.096,0.021,0.191,0.043,0.289,0.066c-0.066,0.244-0.131,0.488-0.195,0.732C805.014,529.649,804.936,529.63,804.856,529.61z"/>
	<path display="inline" fill-rule="evenodd" clip-rule="evenodd" fill="#FFFFFF" d="M286.522,306.86
		c0.778,0.22,1.354,0.386,1.933,0.544c0.917,0.251,1.797,0.622,2.525-0.503c0.197-0.303,0.995-0.281,1.521-0.299
		c7.897-0.281,15.795-0.529,23.692-0.826c1.347-0.051,2.7-0.273,3.444-1.896c-0.755-0.342-1.423-0.645-2.132-0.965
		c0.045-0.635,0.069-1.187,0.125-1.736c0.213-2.113,0.67-4.234,0.6-6.338c-0.106-3.174-0.629-6.33-0.886-9.5
		c-0.648-8.004-4.571-12.496-11.58-14.227c-2.201-0.543-4.379-0.484-6.529,0.564c-3.225,1.572-5.607,3.916-7.154,7.119
		c-1.928,3.994-2.834,8.3-3.513,12.629c-0.467,2.98-0.707,6.021-0.729,9.037C287.823,302.702,287.368,304.788,286.522,306.86z"/>
	<path display="inline" fill-rule="evenodd" clip-rule="evenodd" fill="#FFFFFF" d="M355.256,178.922
		c7.748-0.224,15.34,1.909,23.193-0.169C373.515,183.962,360.389,184.966,355.256,178.922z"/>
	<path display="inline" fill-rule="evenodd" clip-rule="evenodd" fill="#FFFFFF" d="M305.791,197.444
		c-0.437-0.464-1.419-0.629-0.78-1.822c4.609,1.285,9.379,1.83,14.347,1.829c-0.416,0.222-0.809,0.511-1.25,0.655
		c-2.887,0.943-5.803,1.726-8.884,1.703c-1.272-0.01-2.343-0.305-3.035-1.458C306.056,198.049,305.924,197.747,305.791,197.444z"/>
	<path display="inline" fill-rule="evenodd" clip-rule="evenodd" fill="#FFFFFF" d="M426.065,466.464
		c-4.246-1.414-4.725-2.309-3.318-6.242c0.211,0.336,0.387,0.533,0.467,0.764c0.092,0.258,0.098,0.547,0.521,0.875
		c0.154-0.465,0.574-1.07,0.416-1.375c-0.623-1.201-0.105-2.225,0.203-3.332c0.299-1.064,0.229-1.084,1.742-1.15
		c0.197,2.744,0.447,5.49,0.557,8.244C426.682,464.974,426.274,465.72,426.065,466.464z"/>
	<path display="inline" fill-rule="evenodd" clip-rule="evenodd" fill="#FFFFFF" d="M426.872,477.339
		c-0.736,0.146-1.371,0.271-2.365,0.469c0.26-2.74,0.506-5.352,0.756-8c-1.6-0.234-1.236-1.408-1.135-2.596
		c0.547-0.096,1.078-0.189,1.746-0.307C427.422,470.343,426.497,473.909,426.872,477.339z"/>
	<path display="inline" fill-rule="evenodd" clip-rule="evenodd" fill="#FFFFFF" d="M271.585,442.325
		c-0.472,0.043-0.835,0.074-1.499,0.135c0.065-1.854,0.125-3.566,0.186-5.279c0.173-0.02,0.346-0.037,0.519-0.055
		C271.05,438.819,271.309,440.515,271.585,442.325z"/>
	<path display="inline" fill-rule="evenodd" clip-rule="evenodd" fill="#FFFFFF" d="M278.946,335.312
		c2.702-0.059,5.403-0.123,8.105-0.168c0.191-0.004,0.384,0.137,1.064,0.396c-3.418,0.074-6.312,0.139-9.206,0.203
		C278.921,335.599,278.934,335.456,278.946,335.312z"/>
	<path display="inline" fill-rule="evenodd" clip-rule="evenodd" fill="#FFFFFF" d="M267.745,335.942
		c-2.004,0.045-4.009,0.09-6.214,0.137c1.097-0.578,1.095-0.549,3.11-0.445c1.01,0.053,2.026-0.031,3.04-0.055
		C267.702,335.7,267.724,335.821,267.745,335.942z"/>
	<path display="inline" fill-rule="evenodd" clip-rule="evenodd" fill="#FFFFFF" d="M289.904,335.188
		c1.194-0.027,2.388-0.053,3.582-0.08c0.001,0.131,0.003,0.264,0.004,0.395c-1.203,0.025-2.405,0.053-3.608,0.078
		C289.89,335.45,289.897,335.319,289.904,335.188z"/>
	<path display="inline" fill-rule="evenodd" clip-rule="evenodd" fill="#FFFFFF" d="M421.51,457.95
		c0.359-0.652,0.721-1.303,1.264-2.283C423.327,457.854,423.327,457.854,421.51,457.95z"/>
	<path display="inline" fill-rule="evenodd" clip-rule="evenodd" fill="#FFFFFF" d="M256.706,335.745
		c1.107-0.025,2.214-0.049,3.321-0.074c0.002,0.104,0.005,0.205,0.007,0.307c-1.124,0.025-2.247,0.051-3.37,0.074
		C256.678,335.95,256.691,335.847,256.706,335.745z"/>
	<path display="inline" fill-rule="evenodd" clip-rule="evenodd" fill="#FFFFFF" d="M298.233,335.265
		c-0.895,0.02-1.79,0.039-2.685,0.059c-0.001-0.086-0.002-0.172-0.003-0.258c0.915-0.02,1.83-0.039,2.745-0.061
		C298.271,335.093,298.252,335.179,298.233,335.265z"/>
	<path display="inline" fill-rule="evenodd" clip-rule="evenodd" fill="#FFFFFF" d="M305.791,197.444
		c0.133,0.302,0.265,0.604,0.398,0.907c-0.183,0.136-0.482,0.421-0.53,0.383c-0.283-0.219-0.507-0.514-0.75-0.784
		C305.203,197.782,305.497,197.613,305.791,197.444z"/>
	<path display="inline" fill-rule="evenodd" clip-rule="evenodd" fill="#FFFFFF" d="M299.666,335.071
		c0.917-0.074,1.471-0.119,2.357-0.191C301.184,335.298,300.719,335.938,299.666,335.071z"/>
	<path display="inline" fill-rule="evenodd" clip-rule="evenodd" fill="#FFFFFF" d="M324.398,236.604
		c-0.356-0.875-0.531-1.304-0.765-1.878C324.915,234.795,324.917,235.365,324.398,236.604z"/>
	<path display="inline" fill-rule="evenodd" clip-rule="evenodd" fill="#FFFFFF" d="M806.432,552.177
		c0.014,0.598,0.025,1.193,0.039,1.791c-0.053,0.008-0.105,0.016-0.158,0.023c-0.088-0.574-0.176-1.148-0.262-1.721
		C806.178,552.239,806.305,552.208,806.432,552.177z"/>
	<path display="inline" fill-rule="evenodd" clip-rule="evenodd" d="M145.759,195.833c0.061,0.595,0.125,1.215,0.19,1.855
		c0.114-0.014,0.254,0.01,0.338-0.048c0.19-0.129,0.338-0.411,0.528-0.436c5.527-0.717,11.065-1.184,15.417,3.297
		c4.495,4.628,6.318,10.213,4.385,16.464c-1.884,6.091-6.448,9.666-12.631,10.665c-6.736,1.089-14.186-3.183-16.153-10.138
		c-0.968-3.422-0.591-6.596,0.222-9.854c0.355-1.423,0.878-2.788,1.659-4.064c0.572-0.935,0.958-1.99,1.373-3.014
		C141.974,198.375,143.029,196.369,145.759,195.833z M161.36,210.135c0.537-2.04-0.335-4.023-1.129-5.852
		c-0.811-1.866-2.185-3.604-4.587-3.679c-2.177-0.067-4.387-0.212-6.529,0.077c-1.601,0.217-3.09,0.991-4.457,2.093
		c-2.131,1.72-2.861,4.09-3.818,6.441c-1.154,2.835-1.041,5.543,0.143,8.32c1.642,3.853,4.777,5.937,8.932,5.94
		c3.267,0.003,5.795-1.585,8.042-3.674C160.71,217.241,161.623,213.932,161.36,210.135z"/>
	<path display="inline" fill-rule="evenodd" clip-rule="evenodd" d="M174.008,202.965c-1.541-0.604-2.847-1.116-4.004-1.569
		c-0.625-2.842,1.857-2.264,2.96-3.229c-0.025-1.126-0.051-2.325-0.085-3.888c1.258,0.39,2.247,0.599,3.15,0.999
		c1.333,0.591,2.532,0.934,4.026,0.245c0.972-0.448,2.233-0.269,3.866-0.415c-0.827,1.567-1.393,2.642-1.964,3.725
		c0.636,1.358,1.283,2.741,1.986,4.243c-0.504,0.92-1.369,1.162-2.346,0.703c-1.282-0.602-2.252-0.249-3.243,0.632
		C175.334,207.097,174.857,206.75,174.008,202.965z M176.4,204.285c0.554-0.671,1.029-1.65,1.808-2.083
		c0.859-0.476,1.997-0.451,3.333-0.705c-1.87-1.303-0.993-2.925-0.857-4.491c-3.301-0.313-5.833,0.717-7.46,3.238
		C174.222,201.514,175.218,202.781,176.4,204.285z"/>
	<path display="inline" fill-rule="evenodd" clip-rule="evenodd" d="M286.958,157.895c0.019,0.837,0.033,1.497,0.052,2.351
		C286.139,159.385,286.005,158.723,286.958,157.895z"/>
	<path display="inline" fill-rule="evenodd" clip-rule="evenodd" d="M122.839,492.933c1.079,0.137,1.224,1.021,1.056,1.742
		c-0.29,1.246-0.84,2.434-1.281,3.645c-0.2-0.066-0.399-0.133-0.598-0.199c0.21-0.781,0.388-1.572,0.64-2.34
		c0.315-0.959,0.859-1.881,0.265-2.916C122.917,492.868,122.839,492.933,122.839,492.933z"/>
	<path display="inline" fill-rule="evenodd" clip-rule="evenodd" d="M424.596,497.944c-0.404,0.988,0.836,2.264-1.119,2.602
		c-0.201-0.834-0.404-1.682-0.641-2.658C423.36,497.903,423.813,497.919,424.596,497.944z"/>
	<path display="inline" fill-rule="evenodd" clip-rule="evenodd" d="M422.815,501.896c-0.514,0.299-0.797,0.463-1.08,0.627
		c-0.104-0.248-0.322-0.52-0.275-0.736c0.039-0.186,0.373-0.412,0.588-0.426C422.233,501.349,422.434,501.614,422.815,501.896z"/>
	<path display="inline" fill-rule="evenodd" clip-rule="evenodd" d="M287.872,355.663c1.016-3.285,2.186-6.238,4.438-8.578
		c2.231-2.318,5.179-3.08,8.266-3.031c5.228,0.084,9.406,2.131,11.785,7.045c0.568,1.174,1.09,2.398,1.399,3.656
		c0.093,0.379-0.503,1.156-0.965,1.387c-0.683,0.344-1.529,0.494-2.306,0.496c-6.288,0.002-12.577-0.006-18.863-0.121
		C290.406,356.493,289.196,355.978,287.872,355.663z M292.824,353.739c4.949-0.109,9.606-0.211,14.547-0.32
		c1.098-1.207,1.318-1.633,0.624-2.205c-1.664-1.369-3.177-2.996-5.392-3.553C298.739,346.69,294.75,348.022,292.824,353.739z"/>
	<path display="inline" fill-rule="evenodd" clip-rule="evenodd" d="M348.765,352.675c-0.97,2.02-2.287,2.762-4.138,2.648
		c-3.882-0.238-7.777-0.293-11.65-0.629c-2.736-0.236-5.566,0.178-8.149-0.869c-1.209-3.248,0.085-5.273,2.655-7.084
		c2.734-1.926,5.604-2.9,8.922-2.711c2.033,0.117,3.834,0.668,5.542,1.883C344.567,347.778,346.77,350.001,348.765,352.675z
		 M342.408,351.567c-0.892-1.887-2.788-2.281-4.098-3.363c-0.675-0.559-1.735-0.924-2.614-0.91c-2.87,0.043-5.223,1.301-7.47,3.736
		C333.145,351.216,337.621,351.386,342.408,351.567z"/>
	<path display="inline" fill-rule="evenodd" clip-rule="evenodd" d="M265.298,356.696c-2.59,0.057-4.742,0.23-6.879,0.121
		c-3.215-0.162-4.628-3.021-3.124-5.857c2.069-3.902,5.399-5.615,9.647-5.824c1.824-0.092,3.652-0.082,5.479-0.121
		c1.688-0.037,2.935,0.682,3.586,2.242c0.549,1.312,1.092,2.646,1.442,4.021c0.984,3.857-1.704,5.652-4.899,5.623
		C268.653,356.884,266.755,356.757,265.298,356.696z M258.987,353.513c4.386-0.096,8.688-0.191,13.186-0.289
		c-0.458-1.35-0.776-2.58-1.306-3.711c-0.225-0.48-0.854-0.992-1.369-1.078c-2.941-0.494-5.802-0.338-8.494,1.213
		C259.641,350.433,258.799,351.388,258.987,353.513z"/>
	<path display="inline" fill-rule="evenodd" clip-rule="evenodd" d="M160.148,361.483c0.366,0.043,0.655,0.078,1.062,0.127
		c0.075-0.59,0.155-1.217,0.229-1.803c4.507,0.818,8.902,1.262,13.35,0.492c2.48-0.43,3.842,0.428,4.628,2.908
		c0.309,0.977,0.486,1.994,0.749,2.986c0.963,3.635-2.368,6.9-5.337,7.203c-2.298,0.234-4.685,0.078-7.036-0.496
		c-3.117-0.762-4.888-2.85-6.132-5.5C160.834,365.642,159.546,363.944,160.148,361.483z M162.989,363.276
		c0.065,3.074,1.872,5.586,4.433,6.037c2.09,0.367,4.243,0.377,6.217,0.533c0.899-1.828,1.638-3.332,2.382-4.846
		C171.529,364.376,167.14,365.726,162.989,363.276z"/>
	<path display="inline" fill-rule="evenodd" clip-rule="evenodd" d="M153.257,402.819c3.453-0.383,6.767-0.623,10.03-1.168
		c1.611-0.271,3.241-0.912,4.658-1.738c1.531-0.893,2.648-0.605,3.673,0.236c-0.224,1.475-0.362,2.748-0.619,3.996
		c-0.596,2.908-2.64,4.637-5.122,5.873c-2.478,1.234-5.198,1.393-7.923,1.488c-1.26,0.045-2.526,0.236-3.763,0.492
		c-0.673,0.139-1.416,0.805-1.891-0.018c-0.219-0.379,0.188-1.121,0.316-1.721c-0.66-0.742-1.385-1.559-2.154-2.424
		c0.862-0.855,2.524-0.385,2.628-1.932C153.164,404.806,153.21,403.706,153.257,402.819z M155.637,409.585
		c4.86-0.182,8.913-1.594,12.209-4.896c0.206-0.205,0.138-0.684,0.224-1.189c-4.058,0.43-7.933,0.84-11.872,1.258
		C156.02,406.288,155.842,407.817,155.637,409.585z"/>
	<path display="inline" fill-rule="evenodd" clip-rule="evenodd" d="M141.813,358.813c1.04,0.045,1.98,0.045,2.912,0.129
		c3.088,0.283,6.15,0.436,9.246-0.135c2.535-0.465,3.56,0.471,3.529,3.049c-0.016,1.32-0.331,2.648-0.597,3.955
		c-1.056,5.184-5.379,5.084-8.69,3.74c-3.485-1.414-5.437-4.309-6.656-7.684C141.258,361.042,141.697,359.948,141.813,358.813z
		 M154.259,362.673c-3.769-0.439-7.349-0.857-10.925-1.273c0.806,1.514,2.741,3.727,3.837,4.385
		C150.363,367.702,153.804,366.116,154.259,362.673z"/>
	<path display="inline" fill-rule="evenodd" clip-rule="evenodd" d="M184.133,359.341c1.238,0.113,2.011,0.137,2.768,0.26
		c2.786,0.459,5.499-0.068,8.221-0.543c1.662-0.291,1.943-0.092,2.304,1.436c0.086,0.361,0.131,0.766,0.324,1.066
		c0.783,1.223,0.494,2.422,0.02,3.635c-1.351,3.459-6.232,5.99-9.425,4.451c-2.051-0.988-4.032-2.627-4.295-5.252
		C183.894,362.845,184.088,361.261,184.133,359.341z M195.849,362.388c-3.111-0.031-6.158-0.062-9.27-0.094
		c-0.807,3.475,0.478,3.377,3.958,4.887C192.49,368.028,194.72,365.884,195.849,362.388z"/>
	<path display="inline" fill-rule="evenodd" clip-rule="evenodd" d="M138.544,444.005c-0.403,0.01-0.806,0.018-1.208,0.027
		c-0.002-0.072-0.005-0.145-0.007-0.215c0.403-0.01,0.806-0.018,1.209-0.027C138.541,443.862,138.542,443.935,138.544,444.005z"/>
	<path display="inline" fill-rule="evenodd" clip-rule="evenodd" d="M379.126,299.015c-1.132,0.17-1.979,0.426-2.819,0.404
		c-5.652-0.146-11.303-0.354-16.953-0.539c-0.559-0.018-1.152,0.109-1.671-0.041c-1.819-0.523-3.456-0.066-4.478,0.494
		c-1.602-0.191-2.652-0.316-4.055-0.484c-0.16-0.564-0.568-1.359-0.584-2.163c-0.107-5.267-0.34-10.546-0.111-15.802
		c0.165-3.797,0.826-7.596,1.581-11.33c0.279-1.381,1.236-2.805,2.265-3.824c5.277-5.236,11.605-6.361,18.562-4.191
		c4.137,1.29,6.194,4.469,6.544,8.595c0.473,5.563,0.629,11.152,0.922,16.73c0.159,3.012,0.754,6.001,0.102,9.05
		C378.253,296.739,378.813,297.724,379.126,299.015z M375.774,296.048c-0.315-4.041-0.613-8.006-0.938-11.967
		c-0.216-2.616-0.368-5.242-0.739-7.838c-0.417-2.929-1.824-5.14-4.756-6.354c-2.88-1.191-5.873-1.285-8.689-0.59
		c-4.658,1.152-9.563,3.89-9.116,10.669c0.292,4.435,0.047,8.907,0.017,13.362c-0.006,0.768-0.139,1.535-0.23,2.479
		C359.331,295.888,367.331,295.966,375.774,296.048z"/>
	<path display="inline" fill-rule="evenodd" clip-rule="evenodd" d="M386.354,353.868c2.029,1.768,2.227,4.115,0.35,6.318
		c-1.273,1.496-2.859,2.75-4.41,3.98c-1.521,1.205-3.354,1.297-5.246,1.17c-1.411-0.094-2.205-0.699-2.508-2.049
		c-0.279-1.242-0.592-2.477-0.881-3.717c-0.567-2.43,0.627-3.74,3.045-2.986c2.188,0.684,4.098,0.252,5.998-0.652
		C383.983,355.323,385.18,354.54,386.354,353.868z M378.202,363.501c0.684-0.102,1.47,0.018,1.871-0.32
		c1.627-1.367,3.157-2.852,4.662-4.354c0.248-0.248,0.191-0.799,0.244-1.057c-2.585,0.531-5.037,1.035-7.658,1.574
		C377.594,360.636,377.883,362.003,378.202,363.501z"/>
	<path display="inline" fill-rule="evenodd" clip-rule="evenodd" d="M133.858,452.745c-0.897,0.332-1.794,0.664-3.042,1.127
		c0.638-2.168,2.117-1.127,2.952-1.734C133.798,452.339,133.829,452.542,133.858,452.745z"/>
	<path display="inline" fill-rule="evenodd" clip-rule="evenodd" d="M121.279,454.911c-0.241-0.438-0.481-0.875-0.722-1.312
		c0.194-0.104,0.389-0.207,0.583-0.309c0.207,0.441,0.415,0.883,0.622,1.324C121.602,454.714,121.44,454.812,121.279,454.911z"/>
	<path display="inline" fill-rule="evenodd" clip-rule="evenodd" d="M125.16,478.782c0.282,0.451,0.564,0.902,0.846,1.352
		c-0.152,0.094-0.305,0.188-0.458,0.281c-0.246-0.471-0.491-0.939-0.737-1.408C124.928,478.933,125.043,478.856,125.16,478.782z"/>
	<path display="inline" fill-rule="evenodd" clip-rule="evenodd" d="M229.456,394.446c-0.759-0.057-1.402,0.09-1.626-0.15
		c-1.755-1.893-4.108-1.307-6.195-1.434c-3.879-0.236-7.78-0.156-11.671-0.135c-0.575,0.004-1.21,0.314-1.71,0.646
		c-1.61,1.066-2.489,0.859-2.813-0.975c-0.358-2.029-0.639-4.105-0.621-6.16c0.029-3.094,0.331-6.188,0.551-9.277
		c0.09-1.268,0.192-2.543,0.423-3.789c0.667-3.594,1.353-7.186,2.125-10.756c0.864-4,3.722-6.385,7.11-8.178
		c0.845-0.447,2.02-0.418,3.032-0.373c3.098,0.137,6.09,0.805,8.136,3.344c1.021,1.266,1.829,2.832,2.293,4.393
		c0.63,2.121,1.008,4.354,1.194,6.562c0.355,4.207,0.716,8.434,0.668,12.648C230.302,385.317,229.781,389.815,229.456,394.446z
		 M226.786,389.946c0.118-1.172,0.405-2.506,0.356-3.828c-0.14-3.822-0.417-7.639-0.635-11.457
		c-0.152-2.664-0.946-5.162-2.021-7.576c-1.583-3.555-5.491-5.566-9.258-4.502c-3.005,0.85-4.671,3.18-5.417,6.135
		c-0.33,1.309-0.528,2.66-0.675,4.004c-0.404,3.717-0.78,7.436-1.104,11.16c-0.178,2.039-0.107,4.082,0.131,6.043
		C214.496,389.933,220.528,389.938,226.786,389.946z"/>
	<path display="inline" fill-rule="evenodd" clip-rule="evenodd" d="M286.522,306.86c0.846-2.072,1.301-4.158,1.316-6.396
		c0.021-3.016,0.261-6.057,0.729-9.037c0.679-4.329,1.585-8.635,3.513-12.629c1.546-3.203,3.929-5.547,7.154-7.119
		c2.15-1.049,4.329-1.107,6.529-0.564c7.009,1.73,10.932,6.223,11.58,14.227c0.257,3.17,0.78,6.326,0.886,9.5
		c0.07,2.104-0.387,4.225-0.6,6.338c-0.055,0.55-0.08,1.102-0.125,1.736c0.708,0.32,1.377,0.623,2.132,0.965
		c-0.744,1.623-2.097,1.846-3.444,1.896c-7.896,0.297-15.795,0.545-23.692,0.826c-0.526,0.018-1.325-0.004-1.521,0.299
		c-0.728,1.125-1.608,0.754-2.525,0.503C287.877,307.246,287.301,307.08,286.522,306.86z M291.302,303.761
		c7.755-0.371,15.283-0.732,22.938-1.1c0.091-2.117,0.356-4.104,0.218-6.062c-0.184-2.609-0.573-5.215-1.065-7.787
		c-0.939-4.906-3.817-8.068-8.7-9.436c-1.887-0.529-3.594-0.389-5.323,0.433c-4.016,1.909-6.208,5.269-6.897,9.462
		c-0.705,4.291-0.936,8.662-1.353,13.002C291.083,302.653,291.209,303.051,291.302,303.761z"/>
	<path display="inline" fill-rule="evenodd" clip-rule="evenodd" d="M227.546,287.593c-0.201-0.994-0.457-1.76-0.495-2.535
		c-0.196-3.987-0.093-7.954,0.483-11.927c0.455-3.143,0.476-6.345,0.833-9.505c0.566-5.007,4.999-9.262,9.995-9.665
		c2.944-0.237,5.833-0.019,8.699,0.874c4.481,1.396,7.333,4.424,8.83,8.697c0.725,2.071,1.163,4.32,1.276,6.512
		c0.253,4.918,0.959,9.86-0.208,14.769c-0.125,0.524-0.114,1.11-0.034,1.648c0.237,1.591,0.264,1.587-0.541,3.076
		c-7.589-2.118-15.442-1.333-23.156-2.087c-1-0.098-2.035,0.221-3.057,0.264C229.391,287.747,228.604,287.647,227.546,287.593z"/>
	<path display="inline" fill-rule="evenodd" clip-rule="evenodd" fill="#FFFFFF" d="M229.903,284.804
		c0.059-1.07,0.1-2.01,0.164-2.946c0.264-3.812,0.573-7.62,0.792-11.435c0.203-3.529,2.956-7.306,6.405-7.945
		c2.225-0.412,4.656-0.465,6.87-0.035c6.118,1.186,9.016,5.104,9.823,11.076c0.17,1.262,0.301,2.549,0.247,3.816
		c-0.123,2.842-0.374,5.678-0.562,8.359C245.773,285.399,237.99,285.108,229.903,284.804z"/>
</g>
<g id="Layer_2">
	<path fill="#FFFFFF" stroke="#000000" stroke-width="2" stroke-miterlimit="10" d="M91.64,432.614"/>
	<path fill-rule="evenodd" clip-rule="evenodd" fill="none" stroke="#000000" stroke-width="2" stroke-miterlimit="10" d="
		M288.94,131.851c-31.011,19.985-67.59-1.943-67.59-1.943l41.371-57.891L288.94,131.851z"/>
	<path fill-rule="evenodd" clip-rule="evenodd" fill="none" stroke="#000000" stroke-width="2" stroke-miterlimit="10" d="
		M282.134,147.435c0,0,39.155-57.117,38.791-54.828c-0.365,2.289,28.94,54.828,28.94,54.828S327.484,165.843,282.134,147.435z"/>
	
		<polyline fill-rule="evenodd" clip-rule="evenodd" fill="#FFFFFF" stroke="#000000" stroke-width="2" stroke-miterlimit="10" points="
		282.134,147.435 283.579,208.321 283.579,223.178 	"/>
	
		<line fill-rule="evenodd" clip-rule="evenodd" fill="#FFFFFF" stroke="#000000" stroke-width="2" stroke-miterlimit="10" x1="288.94" y1="131.851" x2="288.94" y2="137.54"/>
	<polyline fill-rule="evenodd" clip-rule="evenodd" fill="none" stroke="#000000" stroke-width="2" stroke-miterlimit="10" points="
		221.35,129.908 221.35,186.197 282.134,186.522 283.062,186.522 	"/>
	<path fill-rule="evenodd" clip-rule="evenodd" fill="none" stroke="#000000" stroke-width="2" stroke-miterlimit="10" d="
		M340.277,130.803l30.014-56.629l39.385,60.522c-34.306,19.287-63.796,5.562-63.796,5.562"/>
	
		<polyline fill-rule="evenodd" clip-rule="evenodd" fill="#FFFFFF" stroke="#000000" stroke-width="2" stroke-miterlimit="10" points="
		221.35,186.197 190.659,210.451 210.432,232.148 240.917,232.399 245.402,232.399 	"/>
	<path fill-rule="evenodd" clip-rule="evenodd" fill="#FFFFFF" stroke="#000000" stroke-width="2" stroke-miterlimit="10" d="
		M203.723,244.688"/>
	<polyline fill-rule="evenodd" clip-rule="evenodd" fill="none" stroke="#000000" stroke-width="2" stroke-miterlimit="10" points="
		209.707,231.478 223.397,245.383 208.056,281.583 206.849,284.44 227.189,348.985 134.382,348.985 156.444,285.666 137.73,249.109 
		183.222,202.821 190.545,210.451 	"/>
	<path fill-rule="evenodd" clip-rule="evenodd" fill="#FFFFFF" stroke="#000000" stroke-width="2" stroke-miterlimit="10" d="
		M199.535,295.247"/>
	<g>
		<path fill-rule="evenodd" clip-rule="evenodd" fill="none" stroke="#000000" stroke-width="2" stroke-miterlimit="10" d="
			M159.391,267.615c5.693-0.383,5.684-7.083,5.684-7.083s-11.512,0.182-11.463,0.182
			C153.611,260.714,153.857,267.986,159.391,267.615z"/>
	</g>
	<g>
		<path fill-rule="evenodd" clip-rule="evenodd" fill="none" stroke="#000000" stroke-width="2" stroke-miterlimit="10" d="
			M180.05,267.615c5.693-0.383,5.684-7.083,5.684-7.083s-11.512,0.182-11.463,0.182C174.271,260.714,174.517,267.986,180.05,267.615
			z"/>
	</g>
	<g>
		<path fill-rule="evenodd" clip-rule="evenodd" fill="none" stroke="#000000" stroke-width="2" stroke-miterlimit="10" d="
			M202.501,266.283c5.693-0.383,5.684-7.082,5.684-7.082s-11.512,0.182-11.463,0.182
			C196.721,259.383,196.968,266.655,202.501,266.283z"/>
	</g>
	<path fill-rule="evenodd" clip-rule="evenodd" fill="none" stroke="#000000" stroke-width="2" stroke-miterlimit="10" d="
		M137.73,249.109c0,0,39.873,21.614,85.667-3.726"/>
	<path fill-rule="evenodd" clip-rule="evenodd" fill="none" stroke="#000000" stroke-width="3" stroke-miterlimit="10" d="
		M220.193,291.58h20.341c0,0,0.862-23.787,0-26.545c0,0-2.349-6.736-9.979-7.335c-7.63-0.599-9.5,7.852-9.5,7.852L220.193,291.58z"
		/>
	<path fill-rule="evenodd" clip-rule="evenodd" fill="none" stroke="#000000" stroke-width="3" stroke-miterlimit="10" d="
		M367.861,193.57h21.024c0,0,0.891-23.788,0-26.546c0,0-2.428-6.736-10.314-7.335c-7.886-0.599-9.819,7.852-9.819,7.852
		L367.861,193.57z"/>
	<path fill-rule="evenodd" clip-rule="evenodd" fill="none" stroke="#000000" stroke-width="3" stroke-miterlimit="10" d="
		M307.672,203.478h16.94c0,0,0.718-23.786,0-26.545c0,0-1.956-6.736-8.311-7.335c-6.354-0.599-7.912,7.852-7.912,7.852
		L307.672,203.478z"/>
	<path fill-rule="evenodd" clip-rule="evenodd" fill="none" stroke="#000000" stroke-width="3" stroke-miterlimit="10" d="
		M242.007,173.807h21.881c0,0,0.928-16.585,0-18.509c0,0-2.526-4.696-10.734-5.115c-8.208-0.417-10.219,5.476-10.219,5.476
		L242.007,173.807z"/>
	<polyline fill-rule="evenodd" clip-rule="evenodd" fill="none" stroke="#000000" stroke-width="2" stroke-miterlimit="10" points="
		380.999,348.766 379.03,348.766 257.513,348.766 259.645,238.071 384.216,238.071 384.216,348.985 	"/>
	
		<line fill-rule="evenodd" clip-rule="evenodd" fill="none" stroke="#000000" stroke-width="2" stroke-miterlimit="10" x1="227.189" y1="348.985" x2="257.513" y2="348.766"/>
	<g>
		<path fill-rule="evenodd" clip-rule="evenodd" fill="none" stroke="#000000" stroke-width="2" stroke-miterlimit="10" d="
			M283.372,245.664c-16.645,1.004-16.356,10.861-16.356,10.861s33.679-1.165,33.538-1.157
			C300.554,255.367,299.548,244.685,283.372,245.664z"/>
	</g>
	<path fill-rule="evenodd" clip-rule="evenodd" fill="none" stroke="#000000" stroke-width="2" stroke-miterlimit="10" d="
		M283.062,348.985l0.518-48.87c0,0-0.598-26.962,40.773-24.213c25.848,1.717,31.572,22.264,32.227,37.441v35.642"/>
	
		<line fill-rule="evenodd" clip-rule="evenodd" fill="#FFFFFF" stroke="#000000" stroke-width="2" stroke-miterlimit="10" x1="409.676" y1="134.695" x2="409.676" y2="348.766"/>
	<g>
		<path fill-rule="evenodd" clip-rule="evenodd" fill="none" stroke="#000000" stroke-width="2" stroke-miterlimit="10" d="
			M323.623,246.25c-16.675,0.137-16.899,9.995-16.899,9.995s33.693,0.588,33.553,0.588
			C340.277,256.833,339.827,246.113,323.623,246.25z"/>
	</g>
	<g>
		<path fill-rule="evenodd" clip-rule="evenodd" fill="none" stroke="#000000" stroke-width="2" stroke-miterlimit="10" d="
			M362.284,245.656c-16.674,0.138-16.898,9.996-16.898,9.996s33.693,0.588,33.553,0.588
			C378.938,256.24,378.488,245.519,362.284,245.656z"/>
	</g>
	<polyline fill-rule="evenodd" clip-rule="evenodd" fill="none" stroke="#000000" stroke-width="2" stroke-miterlimit="10" points="
		259.645,238.071 245.402,238.071 245.402,234.435 245.402,215.042 259.645,215.042 259.645,223.146 267.718,223.49 
		267.016,215.042 282.134,215.042 282.134,223.146 291.816,223.361 291.816,214.182 307.672,214.182 307.672,223.62 
		316.639,223.361 317.164,214.182 332.282,214.182 332.282,223.103 339.651,223.103 339.651,214.182 350.48,214.182 
		352.192,214.182 354.001,214.182 354.001,223.62 362.162,223.361 362.162,214.182 373.523,214.182 375.333,214.182 375.333,223.49 
		380.999,223.62 383.608,223.62 383.608,214.182 397.571,214.182 397.571,236.677 397.571,238.071 384.216,238.071 	"/>
	
		<line fill-rule="evenodd" clip-rule="evenodd" fill="#FFFFFF" stroke="#000000" stroke-width="2" stroke-miterlimit="10" x1="349.864" y1="147.435" x2="349.864" y2="214.182"/>
	
		<ellipse fill-rule="evenodd" clip-rule="evenodd" fill="none" stroke="#000000" stroke-width="2" stroke-miterlimit="10" cx="133.017" cy="128.27" rx="15.678" ry="14.5"/>
	<polygon fill-rule="evenodd" clip-rule="evenodd" fill="none" stroke="#000000" stroke-width="2" stroke-miterlimit="10" points="
		154.814,94.472 152.599,98.955 154.814,102.62 150.27,100.841 147.535,104.801 146.318,100.197 141.965,98.86 145.025,96.807 
		146.035,96.083 146.702,92.086 150.031,95.725 	"/>
	<polygon fill-rule="evenodd" clip-rule="evenodd" fill="none" stroke="#000000" stroke-width="2" stroke-miterlimit="10" points="
		201.347,85.647 199.131,90.13 201.347,93.795 196.802,92.016 194.067,95.976 192.85,91.373 188.498,90.035 191.557,87.982 
		192.567,87.259 193.234,83.262 196.563,86.9 	"/>
	<polygon fill-rule="evenodd" clip-rule="evenodd" fill="none" stroke="#000000" stroke-width="2" stroke-miterlimit="10" points="
		198.603,113.961 196.387,118.444 198.603,122.109 194.059,120.33 191.324,124.29 190.106,119.687 185.754,118.349 188.813,116.296 
		189.824,115.573 190.49,111.576 193.819,115.214 	"/>
	<polygon fill-rule="evenodd" clip-rule="evenodd" fill="none" stroke="#000000" stroke-width="2" stroke-miterlimit="10" points="
		176.574,104.293 174.358,108.776 176.574,112.441 172.03,110.662 169.295,114.622 168.078,110.019 163.725,108.681 
		166.785,106.628 167.795,105.905 168.461,101.908 171.791,105.546 	"/>
	<polygon fill-rule="evenodd" clip-rule="evenodd" fill="none" stroke="#000000" stroke-width="2" stroke-miterlimit="10" points="
		173.528,127.128 171.312,131.611 173.528,135.276 168.984,133.497 166.249,137.457 165.032,132.854 160.679,131.516 
		163.739,129.463 164.749,128.74 165.416,124.743 168.745,128.381 	"/>
	<polyline fill-rule="evenodd" clip-rule="evenodd" fill="none" stroke="#000000" stroke-width="2" stroke-miterlimit="10" points="
		184.884,348.985 132.667,348.985 139.164,369.97 398.033,369.97 410.949,348.766 363.627,348.766 	"/>
	<polyline fill-rule="evenodd" clip-rule="evenodd" fill="none" stroke="#000000" stroke-width="2" stroke-miterlimit="10" points="
		139.164,369.97 139.164,379.32 397.034,379.32 398.033,369.97 	"/>
	<polyline fill-rule="evenodd" clip-rule="evenodd" fill="none" stroke="#000000" stroke-width="2" stroke-miterlimit="10" points="
		144.162,402.766 144.162,413.797 382.042,413.797 384.412,402.766 	"/>
	<polyline fill-rule="evenodd" clip-rule="evenodd" fill="none" stroke="#000000" stroke-width="2" stroke-miterlimit="10" points="
		151.658,440.688 151.658,451.031 363.627,453.788 365.959,453.788 368.549,444.137 	"/>
	<polyline fill-rule="evenodd" clip-rule="evenodd" fill="none" stroke="#000000" stroke-width="2" stroke-miterlimit="10" points="
		691.973,348.766 410.949,348.766 409.676,366.526 397.034,379.32 384.412,402.766 144.162,402.766 139.164,379.32 132.667,369.97 
		132.667,348.985 7.974,348.985 	"/>
	<polyline fill-rule="evenodd" clip-rule="evenodd" fill="none" stroke="#000000" stroke-width="2" stroke-miterlimit="10" points="
		397.034,379.32 398.033,396.176 382.042,413.797 368.549,444.137 151.658,440.688 144.162,413.797 139.164,395.486 139.164,379.32 
			"/>
	<path fill-rule="evenodd" clip-rule="evenodd" fill="none" stroke="#000000" stroke-width="2" stroke-miterlimit="10" d="
		M382.042,413.797v12.719l-16.083,27.272c0,0-71.578,118.794-25.682,156.772"/>
	<path fill-rule="evenodd" clip-rule="evenodd" fill="none" stroke="#000000" stroke-width="2" stroke-miterlimit="10" d="
		M144.162,413.797v16.165l7.496,21.069c0,0-7.085,136.721,34.076,159.529"/>
	<path fill-rule="evenodd" clip-rule="evenodd" fill="none" stroke="#000000" stroke-width="3" stroke-miterlimit="10" d="
		M168.556,341.359h22.469c0,0,0.951-33.55,0-37.44c0,0-2.595-9.501-11.023-10.348c-8.428-0.844-10.493,11.077-10.493,11.077
		L168.556,341.359z"/>
</g>
</svg>
