<?xml version="1.0" encoding="utf-8"?>
<!-- Generator: Adobe Illustrator 16.0.0, SVG Export Plug-In . SVG Version: 6.00 Build 0)  -->
<!DOCTYPE svg PUBLIC "-//W3C//DTD SVG 1.0//EN" "http://www.w3.org/TR/2001/REC-SVG-20010904/DTD/svg10.dtd">
<svg version="1.0" xmlns="http://www.w3.org/2000/svg" xmlns:xlink="http://www.w3.org/1999/xlink" x="0px" y="0px" width="640px"
	 height="940px" viewBox="0 0 640 940" enable-background="new 0 0 640 940" xml:space="preserve">
<g id="Layer_1">
	<g>
		<path fill-rule="evenodd" clip-rule="evenodd" stroke="#000000" stroke-width="3" stroke-miterlimit="10" d="M820.183,718.35
			c0.782,4.524,0.771,8.31,1.587,8.557c4.749,1.42,3.471,5.466,3.467,8.826c-0.076,46.285-0.215,92.566-0.357,138.847
			c-0.011,2.541-0.192,5.078-0.319,8.312c-29.351,1.034-58.126,2.054-87.465,3.087c0-4.114,0.004-6.962-0.004-9.807
			c-0.14-45.758-0.266-91.515-0.43-137.269c-0.022-6.048-0.281-12.088-0.357-18.135c-0.047-4.07-1.742-5.472-5.28-5.094
			c-9.647,1.021-19.303,2.298-28.973,2.596c-40.479,1.267-80.962,2.355-121.448,3.115c-6.036,0.114-7.324,2.527-7.227,8.814
			c0.737,47.844,1.218,95.688,1.749,143.536c0.018,1.506-0.26,3.012-0.362,4.104h-90.307c-0.12-2.694-0.234-4.247-0.251-5.804
			c-0.462-46.007-0.905-92.019-1.394-138.029c-0.032-3.134,0.056-6.414-0.727-9.346c-0.484-1.822-2.318-4.092-3.873-4.485
			c-13.852-3.499-13.522-3.994-14.785-19.684c-2.56-31.859,8.953-60.896,13.108-91.381c0.234-1.725,1.34-3.332,2.15-4.919
			c4.283-8.369-6.109,3.446-8.151,22.102c-0.652,5.938-1.547,12.042-3.446,17.581c-8.438,24.627-7.671,49.744-3.646,76.067
			c-8.747,0-17.238,0.247-25.696-0.234c-1.443-0.082-3.681-3.095-3.951-5.042c-1.109-7.962-2.657-16.127-2.111-24.046
			c1.648-23.875,2.307-47.578-1.619-71.289c-3.701-22.35-5.025-44.672,3.865-66.177c16.544,2.016,33.331,2.339,49.568-4.09
			c5.439-2.155,7.527,0.009,7.711,5.579c0.278,8.248,1.293,20.506,1.959,18.365c0.717-6.39,0.568-12.914-0.232-19.306
			c-0.078-0.627-0.004-1.192,0.145-1.709c-0.146-1.761,0.284-3.504,1.695-4.756c1.734-1.538,3.843-2.729,6.008-3.505
			c1.216-0.769,2.68-1.459,4.513-2.065c-7.019-7.905-13.191-14.376-18.808-21.422c-2.263-2.839-4.914-7.112-4.633-10.434
			c1.318-15.567,3.983-30.981,5.434-46.54c2.121-22.698,3.863-45.448,5.244-68.219c0.49-8.055,0.01-16.32-1.005-24.329
			c-1.937-15.31-4.988-30.44-6.805-45.761c-1.742-14.705-7.525-25.019-20.423-29.525c-1.411-0.497-3.117-2.481-3.409-4.076
			c-1.17-6.39,4.717-19.458,10.044-20.551c13.262-2.719,17.291-14.574,21.297-26.331c2.215-6.5,3.169-13.553,4.678-20.292
			c8.893-0.761,9.787-2.404,6.077-11.319c-2.524-6.061-5.183-12.053-7.56-17.562c5.202-3.543,10.538-7.174,15.873-10.807
			l-0.754-3.416c-12.071,3.354-22.01-1.965-31.549-8.633c-4.89-3.419-9.189-8.255-14.395-10.705
			c-20.715-9.744-45.114,7.038-51.161,32.988c-4.215,18.096-1.484,38.357-13.8,53.964c0.426,0.648,0.849,1.3,1.272,1.95
			c5.415-1.134,10.829-2.266,18.306-3.828c-3.076,6.896-5.592,12.535-8.322,18.656c3.082,0.881,5.745,1.641,8.405,2.403
			c0.071,0.591,0.143,1.183,0.212,1.774c-2.299,1.009-4.598,2.019-7.495,3.286c1.366,6.45,3.854,11.991,10.206,12.939
			c5.647,0.844,11.517,1.155,17.151,0.386c5.663-0.768,9.312,0.643,11.395,7.543c-15.369,11.001-24.99,26.954-30.664,46.176
			c-3.664,12.415-6.792,25.055-10.96,37.242c-6.823,19.956-15.856,38.467-29.645,53.59c-0.077,0.081-0.148,0.151-0.222,0.23
			c-0.131,0.092-0.251,0.208-0.343,0.355c-0.083,0.086-0.169,0.178-0.252,0.264c-1.858,0.803-3.797,1.73-5.736,1.481
			c-0.935-3.625-2.388-9.913-5.56-12.102c-0.465,0.488,1.142,5.452,1.715,6.876c0.827,2.06,1.366,4.268,1.942,6.429
			c0.017,0.066,0.05,0.102,0.074,0.161c-0.001,0.081-0.007,0.156,0.014,0.245c1.561,6.567-0.457,12.99-0.963,19.548
			c-0.213-0.104-0.34,2.423-0.132,2.49c0.008,0.568,0.294,0.928,0.66,1.068c0.146,0.388,0.448,0.703,0.927,0.717
			c2.198,0.06,5.51-1.853,7.4-0.153c0.02,0.019,0.043,0.022,0.064,0.037c0.068,0.026,0.128,0.073,0.193,0.112
			c0.035,0.017,0.069,0.049,0.105,0.063v0.006c0.428,0.303,0.755,0.836,1.015,1.442c1.008,0.972,1.986,2.139,2.924,3.531
			c2.28,3.381,5.922,5.645,9.097,8.167c7.267,5.765,15.621,7.153,24.222,7.398c4.961,0.146,7.363,2.864,7.863,8.648
			c0.372,4.271,1.837,8.418,2.815,12.624c-0.171-2.625-0.325-5.243-0.519-7.864c-0.663-8.953,0.634-15.448,8.547-21.446
			c18.686-14.162,27.068-35.892,27.967-61.058c0.566-15.914,0.102-31.88,0.102-47.822c-0.766-0.008-1.536-0.017-2.304-0.028
			c-0.707,18.421-1.964,36.839-1.976,55.258c-0.015,24.154-18.042,52.271-43.624,56.042c-13.749,2.026-24.688-4.32-32.343-16.722
			c-1.812-2.933-1.33-7.542-1.71-11.682c0.079-1.591-0.143-3.238-0.307-4.778c-0.055-0.52-0.18-1.301-0.292-2.173
			c0.13-1.636,0.202-3.25,0.105-4.809c0.042-0.061,0.076-0.128,0.119-0.19c0.145-0.117,0.262-0.258,0.327-0.427
			c1.421-1.738,3.5-3.009,5.076-4.656c11.511-12.017,19.056-26.771,24.032-43.46c2.146-7.192,5.098-14.074,7.27-21.258
			c2.161-7.152,4.086-14.428,5.608-21.787c2.894-13.981,9.346-25.856,17.854-35.879c11.607-13.683,32.684-8.009,37.505,10.641
			c4.521,17.488,7.135,35.698,9.627,53.764c3.877,28.106-2.352,55.903-3.254,83.891c-0.513,15.891-3.252,31.696-5.089,47.527
			c-0.764,6.616-4.014,10.348-10.136,10.46c-8.763,0.16-17.534,0.754-26.285,0.503c-7.508-0.217-13.626-3.71-16.528-12.33
			c1.218,5.306,2.136,10.741,3.73,15.902c2.37,7.681,1.338,14.166-4.682,18.752c-5.217,3.976-10.83,7.276-17.644,11.79
			c4.018,1.426,6.709,2.701,9.513,3.317c10.009,2.19,11.208,5.197,8.027,16.691c-1.981,7.155-3.926,14.795-3.756,22.156
			c0.306,13.343,2.306,26.627,3.416,39.959c1.713,20.586,6.478,40.919,3.327,61.899c-0.99,6.618-1.556,13.61-0.792,20.198
			c0.956,8.246,1.035,9.038-6.542,9.161c-19.206,0.312-38.411,0.604-57.618,0.854c-1.067,0.017-2.138-0.443-2.126-0.443
			c-3.055-11.888-4.924-23.352-8.898-33.773c-8.877-23.297-18.895-46.027-28.258-69.091c-2.68-6.606-4.71-13.556-7.037-20.348
			c2.361,9.125,4.08,18.55,7.226,27.316c5.474,15.271,12.122,29.993,17.729,45.207c5.966,16.17,11.294,32.642,17.48,50.669h-41.951
			c2.075,51.628,4.148,103.141,6.275,156.068h-88.156V725.039c-10.099-0.651-18.799-1.555-27.506-1.724
			c-38.43-0.746-76.863-1.152-115.288-2.028c-6.395-0.146-8.287,2.094-8.386,9.384c-0.63,45.451-1.671,90.903-2.648,136.354
			c-0.072,3.385-0.716,6.758-1.229,11.343c-33.167-1.058-66.154-2.102-99.476-3.159c-0.285-2.439-0.661-4.172-0.664-5.906
			c-0.039-24.175,0.088-48.354-0.122-72.524c-0.046-5.168,1.665-7.963,5.424-10.68c6.812-4.925,13.364-10.399,19.621-16.208
			c17.528-16.271,34.959-32.689,52.229-49.318c23.097-22.227,46.928-43.618,68.769-67.352
			c27.651-30.048,57.133-58.161,78.562-95.205c12.465-21.55,26.404-42.087,33.468-66.787c7.531-26.334,13.699-53.177,20.443-80.145
			c0.024-0.103,0.038-0.202,0.078-0.302c0.291-1.162,2.907,0.519,3.88,2.228c-0.006,0.007-0.011,0.007-0.014,0.011
			c2.618,4.908,5.326,9.946,7.557,15.247c0.107,0.253,0.22,0.494,0.33,0.746c2.105,4.295,4.544,8.757,7.819,11.708
			c0.087,0.337,0.3,0.623,0.711,0.711c0.071,0.015,0.143,0.028,0.211,0.045c0.129,0.1,0.389,0.156,0.389,0.078
			c5.499,1.185,10.998,2.051,16.597,2.306c0.211,0.01,0.418,0.01,0.626,0.01c-0.015,0.439-0.002,0.876,0.005,1.315
			c-0.297,2.055-0.105,4.249,0.045,6.367c-0.043,0.558-0.077,1.12-0.19,1.677c-0.003,0.014,0.002,0.024-0.001,0.037
			c-0.037-0.004-0.073-0.008-0.112-0.014c-0.027,10.175-0.177,19.906,0.056,29.603c0.51,21.168-0.231,42.575,2.393,63.423
			c2.286,18.153,7.875,35.957,17.997,51.141c-3.456-9.941-6.957-19.873-10.38-29.85c-7.567-22.034-7.195-45.227-7.487-68.285
			c-0.189-14.786-0.064-29.616-0.046-45.196c0.004-0.047,0.025-0.082,0.023-0.137c-0.011-0.84-0.053-1.679-0.1-2.515
			c0.109-2.055-0.073-4.114-0.097-6.179c0.055-0.333,0.119-0.662,0.227-0.958c0.054-0.143,0.068-0.284,0.078-0.417
			c4.621-0.116,9.221-0.884,13.822-1.483c0.044-0.813,0.085-1.626,0.128-2.439c-4.362,0.534-8.71,1.199-13.097,1.471
			c-3.583,0.22-11.453-0.33-11.888-0.37c-1.394-0.129-6.344-1.464-7.645-1.745c0.052-0.041,0.088-0.098,0.145-0.133
			c-2.053-2.006-3.814-4.508-5.28-7.617c-2.61-5.538-5.225-11.118-8.209-16.395c-1.201-2.984-2.274-6.046-3.661-8.929
			c2.364-0.786,4.841-1.628,7.232-2.692c0.067,0.211,0.136,0.42,0.203,0.631c0.055-0.031,0.118-0.059,0.174-0.093
			c0.875,5.605,4.628,10.36,6.546,15.559c0.993,2.69,1.917,5.548,3.104,8.206c0.328,0.506,0.638,1.022,0.973,1.518
			c1.23,1.81,2.551,3.617,4.321,4.663c5.335,0.636,10.587,0.652,15.859,0.583c3.841-0.3,11.529-2.396,11.542-3.207
			c-8.967,0.209-18.211,2.313-27.028,0.451c-0.069-0.014-0.124,0.007-0.19,0.006c-0.011-0.027-0.025-0.056-0.037-0.082
			c-0.049-0.108-0.1-0.217-0.151-0.325c-0.365-0.764-0.749-1.532-1.18-2.314c-1.048-1.9-2.24-3.669-3.466-5.403
			c-0.599-1.598-1.147-3.207-1.698-4.736c-1.875-5.215-6.188-10.556-6.624-16.189c0.245-0.176,0.671-0.792,0.641-0.943
			c9.655-6.434,11.154-16.962,11.243-29.073c0.765,5.109,3.975,10.035,8.514,10.886c3.369,0.631,6.548-0.759,9.226-3.097
			c1.126-0.659,2.291-1.317,3.483-1.892c-0.259,1.132-0.488,2.27-0.619,3.436c-0.933,3.125-1.935,6.487-3.29,9.67
			c-1.176,2.763-3.367,4.986-5.171,7.381c-2.555,3.395-4.108,5.487-4.562,7.119c2.062,5.482,7.22,6.777,12.845,6.659
			c0.216-0.084,0.431-0.182,0.654-0.236c5.555-1.401,7.191-5.616,7.582-10.579c0.301-3.827,0.522-7.683,0.621-11.538
			c-0.309-5.436-0.576-10.92-2.654-15.922c-0.646-1.552-1.117-3.097-1.398-4.668c2.526-5.57,1.721-15.195-5.271-15.064
			c-0.269,0.005-0.468,0.12-0.632,0.272c-5.36-5.436-13.861-4.45-19.867,0.962c-0.111,0.28-0.223,0.552-0.346,0.797
			c-0.931,1.875-1.879,3.74-2.515,5.005c-0.133-0.108-0.255-0.208-0.381-0.31c0.208,0.551,0.385,1.134,0.537,1.744
			c1.096,2.905,1.335,6.405,1.063,9.79c0.072,2.081-0.08,4.149-0.487,6.212c0.644,9.232-3.582,15.649-9.76,20.636
			c-0.425,0.025-0.842,0.312-1.005,0.784c-0.128,0.096-0.439,0.31-0.469,0.316c-0.003,0.001-0.01,0.001-0.015,0.005
			c-1.657,0.317-6.297,1.556-8.809,3.186c-2.645,1.122-16.452,0.615-19.125-0.656c-2.72-1.295-8.073-4.173-9.049-8.152
			c-1.721-2.611-2.636-5.787-2.676-9.484c-0.007-0.034-0.007-0.071-0.013-0.101c-0.024-0.07-0.066-0.111-0.082-0.183
			c-0.796-3.256-0.871-6.728-0.457-10.203c-3.916,5.808-2.246,12.584-0.564,18.469c3.566,12.474,14.426,12.058,24.889,15.004
			c-2.18,9.553-3.893,18.928-6.462,27.989c-6.922,24.4-12.548,49.529-21.886,72.709c-7.288,18.093-18.591,34.377-29.503,50.228
			c-14.932,21.691-30.039,43.521-47.187,62.874c-17.973,20.281-38.597,37.512-57.763,56.466
			c-9.231,9.126-17.366,19.691-26.705,28.662c-22.241,21.354-44.844,42.234-67.446,63.104c-4.852,4.478-10.324,8.089-15.508,12.107
			c-0.729-0.458-1.457-0.905-2.185-1.358v-57.635c-8.577,0-15.741,0.119-22.901-0.02c-42.37-0.81-84.741-1.646-127.11-2.578
			c-5.28-0.119-7.375,2.18-7.422,8.356c-0.193,23.922-0.814,47.844-1.137,71.771c-0.972,72.043-1.879,144.09-2.811,216.138
			c-0.911,70.468-1.928,140.935-2.701,211.402c-0.678,61.804-1.087,123.604-1.607,185.405c-0.037,4.378-0.003,8.76-0.003,13.331
			H35.851c0.29-2.208,0.557-3.996,0.75-5.793c0.225-2.08,0.262-4.196,0.588-6.259c6.371-39.88,20.03-76.801,40.219-109.676
			c25.945-42.244,57.697-78.401,95.611-107.648c67.975-52.438,141.827-82.414,224.738-81.172
			c20.583,0.311,41.191-1.816,61.775-1.528c18.405,0.264,37.109,0.268,55.13,3.91c83.642,16.902,143.739,73.93,190.647,150.496
			c27.764,45.314,41.389,98.158,53.7,151.052c1.407,6.05,3.48,7.21,8.344,7.2c67.408-0.145,134.812-0.094,202.221-0.112
			c2.19-0.002,4.374-0.258,6.227-0.374c-0.211-4.927-0.582-9.051-0.531-13.167c0.167-11.837,0.685-23.669,0.745-35.5
			c0.591-121.261,1.16-242.521,1.646-363.773c0.151-37.62-0.065-75.238,0.095-112.854c0.047-9.923,0.878-19.846,1.346-29.773V718.35
			H820.183z M372.703,456.115c0.332-4.175,1.016-8.363,0.875-12.528c0.268-2.649,0.316-5.315-0.132-8.027
			c1.758,0,3.437-0.634,5.11-1.314c-0.154,1.51,0.029,3.203,0.268,4.908c-0.461,5.704-1.672,11.538,0.373,16.718
			C377.129,454.971,374.955,455.89,372.703,456.115z M467.542,167.477c2.95,2.062,5.775,4.365,8.809,6.248
			c7.899,4.916,15.882,9.665,23.62,14.352c-2.928,1.417-7.209,3.495-10.943,5.303c4.903,8.726,9.576,17.045,14.25,25.37
			c-0.574,0.722-1.146,1.447-1.718,2.173c-2.49-1.426-4.98-2.853-7.357-4.215c-1.392,8.264-2.395,16.798-4.363,25.034
			c-1.302,5.443-3.348,10.985-6.191,15.576c-8.476,13.691-14.505,10.871-22.435,0.603c-3.796-4.912-8.179-10.567-3.693-19.294
			c3.497-6.801-1.207-10.319-11.356-8.331c-6.342-15.089-16.005-26.47-30.87-30.663
			C416.755,173.252,444.475,151.366,467.542,167.477z M422.76,282.676c-2.268-0.227-4.299-3.559-6.747-5.725
			c8.269-6.805,8.304-10.106,2.248-14.132c0.668-6.312,1.28-12.097,1.894-17.882h-13.773c1.733-6,4.004-12.788,5.617-19.77
			c1.56-6.767,2.445-13.737,3.735-21.263c15.508,5.009,22.041,18.633,28.868,32.778c1.465-0.963,2.865-2.385,4.466-2.81
			c1.787-0.475,3.757-0.039,5.649,0.003c-0.384,2.184-0.29,4.698-1.25,6.481c-1.664,3.096-3.98,5.741-6.649,9.438
			c3.33,0.302,5.713-0.267,6.398,0.705c4.239,6.024,8.092,12.392,12.444,19.228C453.334,280.849,438.579,284.258,422.76,282.676z
			 M455.979,296.958c-2.59-5.276-4.382-8.927-6.567-13.387c2.855-1.379,5.65-2.73,9.506-4.594
			C457.913,285.115,457.096,290.123,455.979,296.958z M478.267,516.584c-5.215,8.014-35.842,9.024-41.633,0H478.267z
			 M424.62,547.845c-0.875-0.23-1.725-0.682-2.51-1.183c-0.328-0.208-0.456-0.814-0.435-0.778
			c5.275-5.862,10.277-11.827,15.728-17.207c1.439-1.42,4.251-1.326,6.449-1.42c8.288-0.347,16.63,0.054,24.86-0.893
			c5.105-0.584,10.046-3.084,16.229-5.103c2.801,3.42,6.291,7.875,9.971,12.117c2.786,3.213,2.044,5.636-1.111,7.34
			c-2.903,1.564-5.931,3.004-9.039,3.893C464.92,550.258,444.931,553.148,424.62,547.845z M311.849,404.172
			c-2.537,8.802-10.193,9.567-16.709,2.072c7.467-9.17,14.848-18.594,15.238-32.367C313.907,383.848,314.733,394.17,311.849,404.172
			z M310.273,365.355c-0.504-1.469-0.97-2.937-1.426-4.231c-0.48-1.358-1.075-2.545-1.745-3.598
			C310.017,358.273,310.731,361.98,310.273,365.355z M288.404,359.355c0.489-1.46,1.292-2.68,2.281-3.651
			c0.303-0.733,0.913-1.151,1.583-1.231c3.025-1.874,7.031-1.931,10.146,0.295c5.959,4.251,7.123,13.396,3.424,20.009
			c-1.83,2.69-4.239,4.768-7.098,5.83c-2.73,0.422-5.575-0.868-7.951-4.184c-1.242-1.737-2.29-3.777-2.9-5.842
			c0.102-0.427,0.021-0.889-0.31-1.247c-0.179-0.887-0.275-1.772-0.25-2.626c-0.162-0.279-0.347-0.602-0.494-0.855
			C286.911,363.382,287.514,361.192,288.404,359.355z M967.596,1424.141H770.388c-11.098-35.849-21.505-71.908-33.405-107.313
			c-19.392-57.671-54.697-101.761-95.742-140.648c-36.871-34.935-78.919-57.148-126.301-65.991
			c-30.555-5.705-61.357-3.711-92.096-2.747c-16.411,0.513-32.803,2.012-49.213,2.255c-41.638,0.604-81.163,11.604-119.852,28.583
			c-46.572,20.436-88.512,49.631-125.448,87.127c-40.822,41.441-74.025,89.808-90.542,150.468
			c-4.336,15.918-7.269,32.325-11.082,49.579c-67.042-1.042-135.022-2.104-203.523-3.17c2.977-230.287,5.948-460.188,8.918-690.124
			h141.16v151.64c39.796,1.351,77.632,2.64,116.192,3.946c1.372-53.038,2.709-104.887,4.065-157.384
			c45.16,0.852,89.534,1.691,135.074,2.549v8.139c0,45.768,0.111,91.538-0.12,137.305c-0.033,6.749,1.382,9.208,7.705,9.002
			c27.77-0.899,55.547-1.315,83.325-1.794c14.441-0.249,14.166-0.124,13.111-16.85c-1.173-18.58-1.84-37.207-2.609-55.818
			c-1.057-25.703-2.008-51.41-2.992-77.117c-0.059-1.527-0.007-3.066-0.007-5.568h147.598c0,2.23-0.024,5.009,0.002,7.785
			c0.462,47.335,0.936,94.667,1.371,142c0.036,3.904-0.086,7.272,4.88,7.248c32.887-0.155,65.78-0.106,98.667-0.164
			c0.878-0.002,1.749-0.41,2.741-0.661V730.683c48.416-1.566,97.089-3.144,146.685-4.753c0,3.572,0.009,6.359,0,9.147
			c-0.112,51.281-0.186,102.568-0.408,153.856c-0.015,4.471,1.368,6.205,5.227,6.061c23.36-0.87,46.723-1.68,70.087-2.46
			c7.168-0.236,14.411-1.048,21.491-0.221c6.463,0.746,7.919-1.711,7.889-8.538c-0.188-48.924-0.097-97.846-0.095-146.774v-8.242
			h137.995C969.955,960.748,968.781,1191.769,967.596,1424.141z"/>
		<path fill-rule="evenodd" clip-rule="evenodd" stroke="#000000" stroke-width="3" stroke-miterlimit="10" d="M241.701,351.9
			c-2.828,2.735-5.337,5.704-7.026,9.213c-0.037,0.1-0.082,0.191-0.133,0.289c-1.384,2.984-2.169,6.358-2.073,10.299
			c1.078-4.924,2.997-9.694,5.143-13.711C238.814,355.735,240.189,353.71,241.701,351.9z"/>
		<path fill-rule="evenodd" clip-rule="evenodd" stroke="#000000" stroke-width="3" stroke-miterlimit="10" d="M472.017,189.596
			c-12.786-8.082-25.278-12.259-36.892,2.304C437.839,177.857,459.162,176.188,472.017,189.596z"/>
		<path fill-rule="evenodd" clip-rule="evenodd" stroke="#000000" stroke-width="3" stroke-miterlimit="10" d="M445.651,206.929
			c6.804-8.501,22.248-5.124,34.46,7.211C468.711,210.634,459.17,197.89,445.651,206.929z"/>
		<path fill-rule="evenodd" clip-rule="evenodd" stroke="#000000" stroke-width="3" stroke-miterlimit="10" d="M421.987,238.897
			c-2.827-3.63-4.961-6.373-7.094-9.114c2.395-2.345,5.53-7.117,7.029-6.528c3.116,1.23,5.364,5.297,7.968,8.199
			C427.574,233.636,425.255,235.819,421.987,238.897z M422.759,236.606c1.971-3.016,3.19-4.876,4.407-6.737
			c-1.915-1.5-3.696-3.594-5.808-4.209c-0.89-0.258-3.78,3.203-3.516,3.953C418.642,231.877,420.54,233.642,422.759,236.606z"/>
	</g>
	<path fill-rule="evenodd" clip-rule="evenodd" stroke="#000000" stroke-width="3" stroke-miterlimit="10" d="M252.083,344.018
		c-0.258,0.078-0.53,0.1-0.808,0.042c-0.429,0.092-0.86,0.182-1.294,0.271c-0.02,0.014-0.04,0.025-0.06,0.039
		c-0.552,0.354-1.074,0.39-1.538,0.256c-0.215,0.037-0.429,0.065-0.645,0.098c-6.822,3.201-12.38,10.087-15.11,18.019
		c-0.324,0.672-0.616,1.366-0.883,2.071c-0.401,1.232-0.777,2.517-1.132,3.834c-0.292,1.3-0.525,2.615-0.635,3.949
		c-0.448,1.866-0.705,3.777-0.71,5.74c-0.154,1.811-0.087,3.64,0.306,5.515c0.075,0.359,0.305,0.601,0.582,0.737
		c0.455,0.614,1.345,0.636,1.706,0.061c0.059-0.026,0.102-0.081,0.15-0.133c-1.391-7.452,0.69-15.849,3.794-22.816
		c-0.098-0.132-0.214-0.25-0.346-0.331c1.598-3.761,3.911-7.229,6.706-9.99c3.01-3.43,6.605-5.922,10.819-7.142
		c-0.234-0.011-0.464-0.028-0.68-0.101C252.224,344.11,252.159,344.056,252.083,344.018z"/>
	<path fill-rule="evenodd" clip-rule="evenodd" stroke="#000000" stroke-width="3" stroke-miterlimit="10" d="M285.484,365.503
		c-1.888-9.668-9.028-16.472-17.439-19.736c0.844-2.209,1.88-4.121,2.345-6.344c-0.12-0.554-0.215-1.125-0.315-1.691
		c-0.533,0.059-1.07,0.112-1.603,0.159c-0.235,2.62-1.513,4.76-2.452,7.172c-4.534-1.422-9.322-1.815-13.795-1.121
		c-0.225,0.09-0.458,0.12-0.698,0.107c-0.648,0.118-1.284,0.273-1.915,0.439c-0.242,0.108-0.476,0.175-0.702,0.178
		c-1.728,0.505-3.381,1.187-4.916,2.068c-0.357,0.238-0.701,0.488-1.028,0.765c-0.479,0.895,0.435,2.295,1.456,1.663
		c10.81-6.7,28.843-2.395,36.173,9.744c0.973,1.158,1.644,2.702,2.089,4.478c0.006,0.018,0.015,0.038,0.021,0.057
		c0.335,0.89,0.593,1.836,0.776,2.821C283.869,367.604,285.772,366.973,285.484,365.503z"/>
	<path fill-rule="evenodd" clip-rule="evenodd" stroke="#000000" stroke-width="3" stroke-miterlimit="10" d="M290.134,353.312
		c-0.471-0.322-0.97-0.555-1.483-0.768c-5.167-0.119-9.103-6.328-11.139-12.609c-0.393,0.29-0.966,0.335-1.389-0.068
		c2.205,6.358,6.455,12.813,11.202,14.829c0.049,0.029,0.091,0.071,0.142,0.099c0.241,0.147,0.473,0.158,0.685,0.112
		c0.311,0.137,0.611,0.29,0.907,0.493C290.238,356.207,291.304,354.117,290.134,353.312z"/>
	
		<line fill-rule="evenodd" clip-rule="evenodd" stroke="#000000" stroke-width="3" stroke-miterlimit="10" x1="298.684" y1="453.412" x2="298.684" y2="443.897"/>
	<path stroke="#000000" stroke-width="3" stroke-miterlimit="10" d="M304.273,411.894c-1.591,4.251-4.91,7.114-6.144,11.624
		c-0.771,2.816-1.853,6.913-0.59,9.716c0.624,1.386,2.459,0.162,1.834-1.218c-1.126-2.507,0.535-7.456,1.452-9.863
		c1.274-3.346,4.017-5.654,5.284-9.042C306.638,411.695,304.808,410.464,304.273,411.894z"/>
	<path stroke="#000000" stroke-width="3" stroke-miterlimit="10" d="M493.575,561.666c-0.074-0.535-0.146-1.068-0.26-1.598
		c-0.333-1.514-2.384-0.872-2.049,0.64c1.276,5.832-6.968,26.317-8.508,31.349c-0.451,1.475,1.605,2.104,2.053,0.646
		c0.815-2.672,6.639-12.381,7.219-15.181C492.543,575.037,493.675,564.42,493.575,561.666z"/>
	<path stroke="#000000" stroke-width="3" stroke-miterlimit="10" d="M318.618,597.891c-2.17-5.911-3.988-13.455-7.715-18.337
		c-0.899-1.181-2.397,0.535-1.503,1.708c3.242,4.246,5.303,12.16,7.17,17.272c2.381,6.53,5.979,14.389,6.782,21.409
		c0.174,1.52,2.302,1.54,2.124,0C324.623,612.472,321.162,604.819,318.618,597.891z"/>
	<path fill-rule="evenodd" clip-rule="evenodd" d="M483.196,587.969c-0.113,0.446-0.256,0.881-0.379,1.323
		c-0.662,0.09-1.234,0.528-1.371,1.427c-0.32,2.098-1.693,3.832-2.554,5.74c-0.956,2.123-1.952,4.223-2.821,6.385
		c-0.377,0.938-0.009,1.661,0.631,2.059c-1.561,3.321-3.178,6.62-4.679,9.963c-1.048,2.333,2.398,4.369,3.453,2.02
		c4.121-9.175,9.089-18.028,11.577-27.854C487.688,586.53,483.829,585.469,483.196,587.969z"/>
	<path fill-rule="evenodd" clip-rule="evenodd" d="M370.657,455.106c-3.339,1.737-5.419,0.21-7.993-1.833
		c-1.736-1.378-3.53-1.868-5.696-1.369c-0.038,0.009-0.068,0.025-0.104,0.035c-1.82,0.021-3.713,0.402-5.427,0.56
		c-0.919,0.035-1.836,0.017-2.751-0.055c-3.579-0.209,0.277-3.424,2.081-3.922c1.931-0.534,3.482-1.182,4.773-2.733
		c0.814-0.979,0.784-2.444-0.405-3.141c-2.943-1.725-6.956-0.996-10.207-1.498c-0.681-0.105-1.121-0.25-1.375-0.422
		c0.043-0.309,0.037-0.623-0.021-0.928c0.815-0.881,3.381-1.849,4.446-2.035c2.196-0.383,4.426-0.361,6.554-1.086
		c1.593-0.543,2.048-2.749,0.478-3.656c-2.014-1.163-4.306-1.45-6.562-1.877c-4.332-0.82-0.575-1.524,1.62-1.674
		c3.424-0.235,7.753,1.469,10.882,0.098c1.032-0.452,1.176-1.858,0.718-2.736c-0.056-0.107-0.124-0.194-0.184-0.294
		c-0.023-0.578-0.309-1.143-0.974-1.516c-1.955-1.095-4.044-1.623-6.181-2.248c-1.585-0.464-3.662-1.859-1.583-3.393
		c0.796-0.587,2.386-0.232,3.257-0.091c3.575,0.576,9.169,2.133,11.146,5.468c1.314,2.216,4.772,0.206,3.454-2.019
		c-0.691-1.166-1.647-2.123-2.731-2.936c0.119-0.051,0.056-0.142-0.236-0.282c-0.145-0.07-0.299-0.144-0.459-0.221
		c-1.369-0.904-2.896-1.602-4.372-2.176c-2.856-1.112-6.945-2.676-10.085-1.93c-0.175,0.042-0.352,0.093-0.529,0.153
		c-1.702,0.307-3.142,1.128-4.064,2.726c-2.256,3.904-0.957,5.527,1.38,6.553c0.364,0.33,0.763,0.612,1.19,0.859
		c-0.238-0.014-0.456-0.022-0.628-0.015c-2.686,0.111-5.418,0.498-7.568,2.2c-0.398,0.315-0.662,0.686-0.829,1.085
		c-9.198,0.879-18.47-0.051-27.667,1.241c-2.888,0.193-5.801,0.299-8.606,0.904c-3.151,0.679-1.814,5.499,1.329,4.821
		c3.466-0.748,7.187-0.591,10.71-1.036c0.233-0.029,0.443-0.09,0.642-0.166c7.871-0.717,15.818-0.011,23.67-0.771
		c0.463-0.045,0.851-0.197,1.18-0.41c0.497,0.524,1.107,0.898,1.793,1.171c-2.202,0.579-4.114,1.515-5.025,3.321
		c-9.269-0.03-19.169-0.47-28.196,1.425c-3.155,0.662-1.816,5.482,1.329,4.821c8.504-1.785,18.06-1.289,26.835-1.247
		c1.283,2.263,4.696,2.383,7.896,2.462c-0.244,0.09-0.486,0.19-0.722,0.309c-1.658,0.835-2.521,1.758-3.552,3.296
		c-1.45,2.162-0.458,5.404,1.678,6.655c3.368,1.974,8.294,0.698,11.871,0.448c0.695-0.048,1.289-0.143,1.801-0.267
		c1.913,0.172,4.147,2.855,5.83,3.584c2.815,1.218,5.588,0.606,8.208-0.757C374.965,457.369,372.942,453.917,370.657,455.106z"/>
</g>
<g id="Layer_3">
	<g>
		<path fill-rule="evenodd" clip-rule="evenodd" stroke="#000000" stroke-width="3" stroke-miterlimit="10" d="M141.67,5.798
			c2.8,0.582,5.605,1.143,8.401,1.751c23.989,5.219,39.963,26.495,38.694,53.032c-1.231,25.785-20.303,43.354-41.5,46.749
			c-28.529,4.57-52.806-11.206-59.192-38.835C81.151,38.537,101.78,9.16,131.879,6.608c0.656-0.055,1.278-0.53,1.916-0.81
			C136.42,5.798,139.046,5.798,141.67,5.798z M137.991,102.994c23.816,0.771,45.868-21.225,45.871-45.862
			c0.003-21.485-17.917-45.604-45.94-46.025c-24.771-0.372-46.356,21.412-46.086,46.303
			C92.131,84.701,116.053,103.932,137.991,102.994z"/>
		<path fill-rule="evenodd" clip-rule="evenodd" stroke="#000000" stroke-width="3" stroke-miterlimit="10" d="M470.063,97.115
			c-2.65-2.492-4.629-4.629-6.891-6.407c-2.574-2.023-2.303-4.605-0.817-6.536c0.912-1.187,3.516-1.792,5.184-1.533
			c3.863,0.6,7.69,1.684,11.404,2.951c2.8,0.957,4.652,0.259,6.457-1.905c3.537-4.244,7.286-8.313,10.843-12.541
			c2.172-2.583,4.609-3.747,8.062-2.898c3.655,0.896,4.935,3.551,5.199,6.727c0.41,4.916,1.075,9.956,0.41,14.775
			c-0.611,4.426,1.805,4.463,4.582,4.924c3.548,0.587,7.148,0.974,10.613,1.88c1.369,0.356,3.614,2.287,3.438,2.792
			c-0.742,2.121-1.817,4.922-3.568,5.724c-3.501,1.599-7.483,2.351-11.345,2.882c-3.438,0.472-5.348,1.423-4.716,5.375
			c0.525,3.275,0.829,6.645,0.677,9.946c-0.098,2.169-1.184,4.291-1.825,6.434c-2.261-0.69-5.093-0.749-6.68-2.185
			c-5.057-4.583-9.832-9.518-14.354-14.635c-2.68-3.031-5.381-3.378-8.873-2.04c-4.216,1.615-8.521,2.988-12.764,4.535
			c-3.104,1.132-6.574,1.5-8.172-1.589c-1.528-2.952,0.42-5.732,3.068-7.848C463.266,103.331,466.305,100.436,470.063,97.115z
			 M525.913,99.626c-1.375-0.871-2.031-1.61-2.768-1.702c-3.58-0.442-7.175-0.898-10.772-0.987
			c-3.761-0.094-6.015-1.082-5.978-5.496c0.04-5.072-0.435-10.159-0.894-15.221c-0.395-4.344-3.548-5.772-7.005-3.122
			c-1.694,1.296-2.959,3.159-4.384,4.795c-12.715,14.622-6.412,14.138-24.205,7.59c-1.021-0.376-2.413,0.268-3.634,0.437
			c-0.095,0.394-0.193,0.786-0.29,1.179c3.384,2.948,6.762,5.899,10.357,9.036c-5.586,5.029-10.685,9.622-15.922,14.337
			c2.832,2.844,5.169,0.991,7.56,0.389c5.604-1.414,11.203-2.878,16.879-3.912c1.429-0.262,3.604,0.571,4.644,1.66
			c4.3,4.506,8.274,9.327,12.431,13.977c0.831,0.93,1.934,1.618,3.943,3.262c0-7.548,0-13.699,0-19.974
			C512.568,104.425,520.021,105.36,525.913,99.626z"/>
		<path fill-rule="evenodd" clip-rule="evenodd" stroke="#000000" stroke-width="3" stroke-miterlimit="10" d="M350.003,81.016
			c-1.482-1.659-2.905-2.792-3.683-4.263c-0.635-1.202-1.009-3.024-0.526-4.162c0.308-0.729,2.765-1.401,3.594-0.929
			c7.73,4.396,12.653,0.581,17-5.394c0.594-0.815,1.329-1.563,2.112-2.202c3.041-2.481,7.016-1.083,7.481,2.799
			c0.345,2.87,0.417,5.847,0.056,8.706c-0.419,3.308,0.332,4.808,3.96,4.898c2.521,0.063,5.019,1.076,7.435,1.646
			c-0.052,5.034-0.052,5.034-12.747,7.428c0,4.2,0,8.543,0,13.005c-5.499,0.351-7.934-3.429-9.871-6.333
			c-4.345-6.516-9.35-7.987-16.122-4.425c-0.636,0.334-1.396,0.703-2.064,0.646c-1.764-0.15-3.508-0.529-5.261-0.816
			c0.696-1.736,1.026-3.789,2.18-5.135C345.218,84.534,347.483,83.094,350.003,81.016z M384.92,85.446
			c-0.047-0.574-0.098-1.147-0.147-1.721c-1.098-0.259-2.184-0.64-3.297-0.757c-7.905-0.833-8.4-2.067-8.555-10.929
			c-0.013-0.856,0.519-1.767,0.366-2.568c-0.245-1.286-0.545-3.18-1.39-3.561c-0.931-0.422-2.85,0.201-3.725,1.023
			c-2.211,2.076-4.276,4.38-6.034,6.852c-1.984,2.788-4.186,3.051-7.088,1.717c-2.035-0.935-4.216-1.551-6.332-2.309
			c-0.336,0.507-0.672,1.015-1.008,1.522c2.371,1.569,4.742,3.139,7.354,4.87c-4.542,3.919-7.861,6.786-11.182,9.652
			c0.173,0.377,0.346,0.752,0.519,1.128c1.689-0.399,3.397-0.732,5.061-1.211c6.47-1.863,12.755-3.298,17.198,3.964
			c1.049,1.715,2.767,3.021,4.176,4.518c0.413-0.119,0.825-0.239,1.234-0.358c0.46-3.312,0.918-6.622,1.364-9.84
			C377.228,86.78,381.074,86.114,384.92,85.446z"/>
		<path fill-rule="evenodd" clip-rule="evenodd" stroke="#000000" stroke-width="3" stroke-miterlimit="10" d="M39.437,186.019
			c-1.618-1.817-3.063-3.089-4.024-4.655c-0.566-0.925-0.832-2.561-0.378-3.433c0.438-0.842,1.951-1.166,3.037-1.604
			c0.357-0.144,0.937-0.065,1.278,0.138c7.569,4.518,12.311,0.369,16.579-5.344c0.518-0.694,1.094-1.562,1.832-1.832
			c1.521-0.555,3.404-1.404,4.701-0.932c1.286,0.468,2.69,2.324,2.881,3.729c0.427,3.142,0.364,6.406,0.058,9.575
			c-0.246,2.552,0.679,3.368,3.031,3.584c2.006,0.181,4.038,0.593,5.936,1.253c1.038,0.361,2.691,1.699,2.559,2.16
			c-0.387,1.333-1.3,3.112-2.432,3.511c-3.1,1.09-6.415,1.563-10.421,2.455c0,4.113,0,8.458,0,12.93
			c-5.482,0.278-7.935-3.469-9.868-6.385c-4.348-6.555-9.277-7.696-16.199-4.527c-1.99,0.912-6.279,0.893-6.973-0.246
			c-1.842-3.031,1.56-4.667,3.575-6.425C36.019,188.739,37.508,187.591,39.437,186.019z M33.302,193.979
			c0.15,0.464,0.301,0.929,0.451,1.393c1.7-0.4,3.421-0.724,5.097-1.21c6.471-1.875,12.754-3.316,17.2,3.95
			c1.054,1.72,2.771,3.036,4.182,4.539c0.413-0.116,0.825-0.231,1.238-0.348c0.462-3.311,0.928-6.624,1.366-9.761
			c3.88-0.805,7.806-1.62,11.732-2.436c-0.057-0.477-0.114-0.951-0.17-1.428c-1.512-0.394-3.015-0.832-4.54-1.173
			c-6.845-1.532-8.386-3.737-7.48-10.792c0.074-0.577,0.382-1.183,0.272-1.711c-0.296-1.426-0.759-2.819-1.155-4.226
			c-1.505,0.528-3.364,0.67-4.439,1.662c-2.333,2.151-4.074,4.958-6.447,7.053c-1.126,0.992-3.239,1.525-4.746,1.28
			c-2.648-0.431-5.172-1.618-7.748-2.489c-0.35,0.503-0.7,1.007-1.051,1.51c2.392,1.531,4.784,3.062,7.339,4.698
			c-2.833,2.555-4.416,4.049-6.072,5.454C36.694,191.336,34.981,192.638,33.302,193.979z"/>
		<path fill-rule="evenodd" clip-rule="evenodd" stroke="#000000" stroke-width="3" stroke-miterlimit="10" d="M313.304,40.388
			c2.255,5.762-1.814,7.545-4.701,9.097c-3.74,2.01-3.695,4.027-1.867,7.174c1.395,2.402,2.417,5.02,3.667,7.669
			c-5.013,2.426-8.454-0.304-11.839-1.765c-10.615-4.575-7.291-4.669-15.91,2.663c-1.769,1.505-5.152,3.44-6.429,2.729
			c-2.917-1.624-0.846-4.522,0.229-6.868c0.84-1.835,1.592-3.709,2.549-5.95c-2.082-0.799-4.069-1.303-5.757-2.31
			c-0.929-0.553-1.897-1.982-1.844-2.961c0.05-0.92,1.381-1.811,2.24-2.618c0.266-0.248,0.838-0.262,1.262-0.24
			c7.179,0.36,10.605-3.217,11.673-10.18c0.46-2.992,0.683-7.184,5.393-7.306c4.396-0.113,4.914,3.931,6.511,6.667
			c1.15,1.971,1.924,4.162,2.96,6.46C305.353,41.903,309.268,41.156,313.304,40.388z M312.368,44.002
			c-0.314-0.468-0.629-0.938-0.944-1.407c-1.109,0.231-2.238,0.399-3.326,0.706c-8.05,2.262-9.893,1.314-12.875-6.702
			c-0.153-0.408-0.168-0.92-0.432-1.228c-0.939-1.091-1.958-2.114-2.945-3.163c-1.092,1.161-2.641,2.144-3.177,3.52
			c-1.104,2.829-1.392,5.982-2.562,8.772c-0.581,1.381-2.212,2.801-3.655,3.231c-2.582,0.77-5.384,0.805-8.095,1.145
			c-0.045,0.408-0.091,0.815-0.136,1.224c2.713,0.931,5.426,1.863,8.202,2.817c-1.869,4.37-3.539,8.276-5.211,12.183
			c0.276,0.241,0.549,0.482,0.824,0.724c1.21-0.825,2.456-1.603,3.618-2.488c1.961-1.492,3.924-2.992,5.788-4.6
			c2.755-2.376,5.493-2.693,8.771-0.865c2.684,1.5,5.678,2.443,8.536,3.633c0.357-0.275,0.715-0.548,1.074-0.823
			c-0.999-3.198-2.001-6.394-3.004-9.606C305.841,48.836,309.105,46.42,312.368,44.002z"/>
		<path fill-rule="evenodd" clip-rule="evenodd" stroke="#000000" stroke-width="3" stroke-miterlimit="10" d="M19.535,111.829
			c-2.446-0.398-4.261-0.416-5.832-1.043c-1.154-0.462-2.449-1.574-2.806-2.677c-0.227-0.7,1.139-1.933,1.837-2.89
			c0.149-0.206,0.5-0.326,0.775-0.37c7.648-1.214,10.214-5.976,9.362-13.233c-0.133-1.131,0.105-2.329,0.312-3.47
			c0.808-4.438,4.74-5.938,7.943-2.792c2.776,2.725,5.104,5.908,7.966,9.284c2.287-1.134,4.771-2.57,7.415-3.592
			c1.252-0.485,2.812-0.177,4.231-0.229c-0.098,1.727,0.377,3.805-0.418,5.109c-1.554,2.544-3.818,4.656-6.046,7.248
			c1.782,2.109,3.679,4.093,5.248,6.311c0.925,1.306,1.329,2.981,1.966,4.491c-1.614,0.439-3.263,1.343-4.835,1.226
			c-3.612-0.271-7.221-0.891-10.771-1.646c-3.4-0.722-5.912-0.086-7.625,3.21c-1.066,2.053-2.319,4.139-3.957,5.726
			c-1.279,1.238-3.28,1.731-4.96,2.555c-0.451-1.71-1.325-3.44-1.254-5.13C18.193,117.365,18.958,114.839,19.535,111.829z
			 M13.895,106.465c-0.002,0.459-0.004,0.92-0.007,1.38c2.837,0.333,5.676,0.664,8.56,1.002c-0.819,4.747-1.533,8.892-2.248,13.037
			c0.37,0.15,0.74,0.303,1.11,0.454c2.417-2.946,4.917-5.83,7.229-8.854c2.293-3,4.965-4.045,8.733-2.981
			c2.844,0.804,5.878,0.934,8.828,1.363c0.294-0.339,0.59-0.677,0.885-1.015c-1.695-2.866-3.389-5.73-4.96-8.388
			c2.519-3.017,5.076-6.078,7.632-9.137c-0.42-0.445-0.84-0.89-1.258-1.334c-1.353,0.633-2.773,1.152-4.048,1.917
			c-6.181,3.707-7.717,3.43-12.093-2.414c-0.521-0.698-0.803-1.643-1.445-2.165c-1.211-0.987-2.603-1.749-3.92-2.604
			c-0.757,1.44-1.945,2.815-2.176,4.334c-0.411,2.715-0.428,5.527-0.266,8.277c0.168,2.854-1.031,4.254-3.7,4.918
			C18.426,104.835,16.176,105.718,13.895,106.465z"/>
		<path fill-rule="evenodd" clip-rule="evenodd" stroke="#000000" stroke-width="3" stroke-miterlimit="10" d="M155.846,185.998
			c-3.645-1.779-7.46-3.279-10.898-5.394c-8.524-5.238-6.296-4.748-13.936,0.274c-1.215,0.798-2.301,1.968-3.628,2.376
			c-1.514,0.466-3.231,0.271-4.86,0.363c0.06-1.633-0.368-3.502,0.284-4.851c1.238-2.561,3.092-4.825,4.908-7.534
			c-2.013-1.197-3.87-2.038-5.374-3.299c-0.827-0.696-1.596-2.198-1.414-3.149c0.171-0.894,1.568-1.633,2.543-2.259
			c0.422-0.272,1.165-0.219,1.713-0.095c6.994,1.571,10.585-1.71,12.778-8.107c1.017-2.966,1.816-7.354,6.721-6.654
			c4.331,0.618,4.104,4.754,5.273,7.682c0.844,2.114,1.235,4.409,1.79,6.482c4.182,0,8.183,0,12.471,0
			c0.886,7.791-6.684,6.713-10.318,10.46c1.065,3.721,2.261,7.895,3.457,12.068C156.854,184.909,156.35,185.453,155.846,185.998z
			 M131.373,169.369c-2.525,4.042-4.843,7.752-7.161,11.462c0.236,0.292,0.471,0.581,0.707,0.873
			c1.324-0.623,2.693-1.163,3.96-1.883c1.76-1.001,3.455-2.121,5.159-3.215c3.951-2.537,7.685-2.667,11.535,0.438
			c2.022,1.632,4.503,2.696,6.776,4.016c0.361-0.25,0.722-0.499,1.083-0.748c-0.51-3.315-1.02-6.629-1.494-9.721
			c3.466-1.861,6.971-3.743,10.476-5.625c-0.219-0.495-0.437-0.988-0.656-1.483c-1.544,0-3.1-0.128-4.628,0.022
			c-6.929,0.682-8.728-0.585-10.256-7.402c-0.191-0.851-0.145-1.807-0.527-2.552c-0.594-1.158-1.548-3.115-2.194-3.057
			c-1.29,0.121-2.957,1.099-3.609,2.222c-1.525,2.617-2.693,5.476-3.717,8.34c-0.92,2.576-2.355,3.689-5.176,3.379
			c-2.468-0.271-4.988-0.055-7.486-0.055c-0.095,0.392-0.192,0.785-0.291,1.179C126.215,166.749,128.557,167.938,131.373,169.369z"
			/>
		<path fill-rule="evenodd" clip-rule="evenodd" stroke="#000000" stroke-width="3" stroke-miterlimit="10" d="M230.316,122.891
			c-3.292-1.492-6.629-2.894-9.86-4.509c-1.809-0.905-3.509-2.07-5.135-3.285c-2.228-1.666-4.194-1.372-6.304,0.24
			c-2.193,1.674-4.403,3.42-6.854,4.628c-1.498,0.739-3.466,0.522-5.222,0.733c0.196-1.865-0.027-3.915,0.691-5.55
			c1.029-2.341,2.748-4.378,4.454-6.976c-1.936-1.121-3.834-1.9-5.287-3.183c-0.894-0.787-1.591-2.404-1.456-3.537
			c0.09-0.752,1.807-1.316,2.806-1.946c0.107-0.069,0.294-0.061,0.429-0.028c8.624,2.135,12.185-3.038,14.618-10.007
			c0.927-2.656,2.316-5.812,5.671-4.639c1.991,0.697,3.711,3.247,4.732,5.36c1.291,2.674,1.745,5.75,2.551,8.62
			c4.107,0,8.105,0,12.419,0c0.896,7.772-6.596,6.763-10.296,10.427c1.067,3.737,2.258,7.91,3.45,12.08
			C231.254,121.844,230.785,122.368,230.316,122.891z M237.147,101.565c-0.264-0.643-0.529-1.286-0.795-1.929
			c-1.503,0.122-3.043,0.081-4.504,0.396c-7.271,1.567-8.95,0.502-10.613-6.957c-0.19-0.852-0.141-1.812-0.527-2.552
			c-0.602-1.15-1.586-3.094-2.224-3.024c-1.296,0.142-2.95,1.13-3.598,2.262c-1.58,2.76-2.814,5.747-3.91,8.745
			c-0.839,2.296-2.166,3.143-4.582,2.95c-2.532-0.203-5.093-0.045-7.64-0.045c-0.049,0.465-0.097,0.928-0.146,1.394
			c2.343,1.182,4.687,2.365,7.162,3.612c-2.566,4.048-4.866,7.677-7.166,11.305c1.853,0.333,3.23-0.089,4.46-0.774
			c1.77-0.985,3.429-2.17,5.144-3.258c4.085-2.585,7.974-2.81,11.938,0.479c1.913,1.586,4.291,2.61,6.458,3.89
			c0.385-0.219,0.77-0.437,1.153-0.655c-0.472-3.297-0.944-6.593-1.403-9.798C229.813,105.667,233.48,103.617,237.147,101.565z"/>
		<path fill-rule="evenodd" clip-rule="evenodd" stroke="#000000" stroke-width="3" stroke-miterlimit="10" d="M581.829,63.468
			c-2.04-1.143-3.855-1.836-5.223-3.037c-0.907-0.796-1.657-2.36-1.562-3.506c0.061-0.749,1.751-1.369,2.727-2.031
			c0.106-0.071,0.297-0.063,0.431-0.029c8.582,2.102,12.271-2.914,14.69-9.97c0.91-2.648,2.28-5.849,5.658-4.684
			c1.995,0.688,3.736,3.232,4.756,5.345c1.296,2.686,1.742,5.779,2.627,8.949c3.954-0.254,7.931-0.509,12.326-0.792
			c0.942,8.34-6.971,7.181-10.357,11.207c0.713,2.139,1.709,4.691,2.38,7.327c0.31,1.216,0.328,3.566-0.109,3.718
			c-1.439,0.503-3.404,0.778-4.709,0.162c-3.267-1.543-6.361-3.497-9.367-5.524c-2.888-1.946-5.34-1.569-7.931,0.511
			c-1.926,1.544-3.925,3.145-6.153,4.122c-1.621,0.712-3.67,0.447-5.527,0.618c0.224-1.753,0.053-3.695,0.77-5.217
			C578.398,68.209,580.133,66.059,581.829,63.468z M578.315,73.07c0.288,0.362,0.576,0.724,0.865,1.087
			c3.561-1.99,7.141-3.944,10.678-5.981c2.951-1.699,5.592-1.644,8.447,0.49c3.181,2.369,6.678,4.311,11.165,7.154
			c-1.502-5.093-2.653-8.998-3.787-12.847c3.555-2.48,8.676-2.519,11.221-8.028c-2.391,0.219-3.933,0.2-5.403,0.522
			c-7.202,1.58-8.703,0.671-10.476-6.608c-0.242-0.989-0.183-2.1-0.616-2.981c-0.569-1.156-1.599-3.078-2.236-3.004
			c-1.296,0.154-2.938,1.149-3.586,2.284c-1.578,2.763-2.814,5.75-3.907,8.75c-0.841,2.313-2.199,3.11-4.598,2.922
			c-2.553-0.201-5.138-0.045-7.707-0.045c-0.043,0.46-0.083,0.921-0.126,1.381c2.362,1.182,4.729,2.363,7.245,3.62
			C582.929,65.816,580.624,69.443,578.315,73.07z"/>
	</g>
</g>
<g id="Layer_2">
	<g>
		<path fill-rule="evenodd" clip-rule="evenodd" stroke="#000000" stroke-width="3" stroke-miterlimit="10" d="M306.087,303.059
			c-0.312-0.605-0.589-1.219-0.784-1.865c-0.259,1.285-0.519,2.562-0.785,3.88c-0.326-0.019-0.608-0.005-0.898,0.006
			c-0.119,0.053-0.243,0.102-0.393,0.083c-0.096-0.009-0.201-0.02-0.298-0.035c-3.889,0.472-3.857,3.771-2.925,8.017
			c0.274,0.221,0.543,0.353,0.807,0.406c-0.575-1.548-0.783-3.352-0.005-4.469c0-0.046-0.009-0.1-0.008-0.143
			c0.016-0.873,0.278-2.18,1.217-2.342c0.434-0.074,0.846,0.046,1.232,0.239c0.705-0.061,1.461,0.001,2.05-0.422
			C306.131,305.813,306.174,304.422,306.087,303.059z"/>
		<path fill-rule="evenodd" clip-rule="evenodd" stroke="#000000" stroke-width="3" stroke-miterlimit="10" d="M242.265,225.019
			c-1.375,1.039-2.698,2.069-3.905,2.876c-0.866,0.58-1.703,1.183-2.53,1.794c-0.653,0.639-1.292,1.312-1.903,2.048
			c-9.413,11.33-17.004,23.851-18.344,40.361c-1.457,17.956,0.222,34.603,7.255,48.458c0.257,0.055,0.505,0.204,0.692,0.499
			c1.331,2.09,2.926,3.918,4.625,5.622c-1.175-1.974-2.22-3.967-3.1-5.759c-2.326-4.748-6.546-12.353-7.252-19.024
			c-0.117-0.289-0.142-0.621-0.065-0.928c-0.065-1.206,0.001-2.364,0.216-3.474c-0.013-1.821-0.002-3.629,0.05-5.421
			c-0.351-4.159-0.395-8.491-0.087-13.022c1.106-16.355,6.043-30.739,16.03-41.355c2.641-4.147,6.28-7.631,10.326-10.207
			c0.396-0.309,0.791-0.617,1.175-0.896c3.193-2.318,6.561-4.348,10.38-4.495c0.841-0.337,1.696-0.656,2.574-0.909
			c0.053-0.016,0.104-0.042,0.155-0.062C252.965,221.457,247.328,222.399,242.265,225.019z"/>
		<path fill-rule="evenodd" clip-rule="evenodd" stroke="#000000" stroke-width="3" stroke-miterlimit="10" d="M305.676,266.527
			c0.001-0.004,0.001-0.007,0.002-0.007c0.044-0.249,0.122-0.493,0.199-0.734c-0.012-0.076-0.004-0.158,0.001-0.242
			c-0.663,0.341-1.361,0.636-2.109,0.871c-0.071,0.203-0.175,0.398-0.361,0.556c-0.057,0.049-0.117,0.103-0.176,0.151
			c-0.041,0.035-0.112,0.029-0.163,0.05c-1.033,1.469-2.637,1.207-4.271,1.17c-0.104-0.001-0.186-0.042-0.273-0.068
			c-1.771,0.222-3.537,0.456-5.305,0.583c-2.005,0.267-4.032,0.401-5.972,0.582c-2.166,0.199-4.175,0.689-6.065,1.381
			c-9.305,5.534-15.988,15.836-18.292,27.604c-1.832,9.36-3.253,26.848,3.349,34.254c0.038,0.042,0.048,0.091,0.079,0.134
			c-0.062-0.311-0.129-0.615-0.177-0.933c-4.382-17.973-1.578-38.997,8.722-52.657c2.973-3.94,8.167-7.06,12.699-7.838
			c5.341-0.919,10.841-0.701,16.704-0.503c0.69-0.348,1.373-0.724,2.039-1.175c0.016-0.012,0.029-0.025,0.045-0.035
			c-0.499-0.627-0.714-1.374-0.74-2.147C305.507,267.23,305.502,266.886,305.676,266.527z"/>
		<path fill-rule="evenodd" clip-rule="evenodd" stroke="#000000" stroke-width="3" stroke-miterlimit="10" d="M234.755,294.277
			c-9.485-23.058,10.967-60.316,31.773-59.739C242.849,245.222,235.013,266.165,234.755,294.277z"/>
		<path fill-rule="evenodd" clip-rule="evenodd" stroke="#000000" stroke-width="3" stroke-miterlimit="10" d="M257.909,273.78
			c-2.208-11.841,5.849-25.509,16.039-27.124C265.039,252.994,259.69,261.936,257.909,273.78z"/>
	</g>
	<path stroke="#000000" stroke-width="3" stroke-miterlimit="10" d="M306.954,280.785c0.449-3.607,1.016-7.712-0.472-10.992
		c-0.321-0.365-0.546-0.77-0.688-1.204c-0.064-0.093-0.106-0.2-0.176-0.292c-0.065-0.093-0.141-0.136-0.213-0.195
		c0.076-0.158,0.133-0.321,0.205-0.479c-0.003-0.034,0.004-0.068,0.003-0.097c-0.105-0.295-0.11-0.64,0.064-0.999
		c0.01-0.021,0.016-0.042,0.026-0.06c0.041-0.219,0.115-0.437,0.185-0.65c-0.035-0.184-0.036-0.382,0.037-0.614
		c0.178-0.552,0.41-1.076,0.643-1.597c0.183-2.823,0.461-5.689,0.195-8.453c-0.204-2.117-0.676-4.083-1.298-5.994
		c-4.057-9.975-13.504-18.468-21.19-22.501c-8.274-4.345-17.465-7.545-26.652-7.183c-0.96,0.04-2.874,0.146-4.969,0.46
		c-0.129,0.069-0.279,0.115-0.453,0.118c-0.44,0.011-0.889,0.107-1.336,0.198c-0.231,0.047-0.459,0.1-0.688,0.153
		c-4.125,1.179-8.397,5.201-11.815,7.491c-0.023,0.019-0.045,0.035-0.071,0.049c-0.159,0.176-0.311,0.354-0.483,0.513
		c-1.07,0.973,0.442,2.67,1.502,1.707c1.539-1.402,2.382-3.135,4.213-4.17c0.169-0.096,0.352-0.181,0.527-0.271
		c0.494,0.858,1.95,0.655,1.95-0.638c0-0.095,0.049-0.182,0.075-0.272c0.968-0.353,1.961-0.615,2.937-0.732
		c0.644-0.081,0.974-0.673,1.005-1.253c1.562-0.336,3.374-0.557,5.073-0.706c0.005,0,0.013,0,0.02-0.001
		c2.578-0.225,4.886-0.276,5.596-0.253c3.202,0.095,6.415,0.692,9.579,1.602c0.151,0.024,0.296,0.021,0.448,0.049
		c0.193,0.039,0.338,0.127,0.455,0.235c4.653,1.436,9.194,3.514,13.438,5.739c10.722,5.625,25.595,22.088,19.152,36.9
		c-0.029,0.094-0.061,0.184-0.113,0.269c-0.042,0.09-0.073,0.181-0.115,0.271c-0.328,0.696-0.016,1.348,0.452,1.648
		c-0.202,0.422-0.229,0.958,0.114,1.423c3.284,4.455,0.057,14.547-0.816,19.615c-0.266,1.534-0.448,3.083-0.551,4.627
		c0.494,3.131,1.034,6.253,1.504,9.391c0.104,0.698-0.277,1.617-1.025,1.53c-0.168-0.02-0.347-0.04-0.523-0.059
		c-0.124,0.039-0.255,0.067-0.381,0.101c-0.259-0.119-0.56-0.116-0.873,0.122c-0.112,0.085-0.197,0.175-0.301,0.263
		c-0.169,0.09-0.323,0.19-0.446,0.33c-0.114,0.13-0.175,0.28-0.267,0.418c-0.131,0.174-0.242,0.354-0.34,0.538
		c-0.008,0.016-0.021,0.029-0.031,0.052c-0.504,0.976-0.59,2.087-0.492,3.399c0,0.033-0.001,0.063-0.001,0.093
		c-0.002,0.268,0.033,0.575,0.059,0.879c0.146,2.896-2.935,1.661-4.541,0.688c-0.396-0.615-1.333-0.839-1.817,0.009
		c-2.01,3.542-1.436,10.471,2.889,10.354c0.356,4.869-9.21,1.938-12.594,4.012c-5.227,1.356-10.325,4.868-8.827,11.513
		c0.088,0.39,0.288,0.631,0.533,0.754c0.564,2.082,1.443,4.087,2.085,5.459c2.104,4.486,6.432,11.52,11.637,10.624
		c1.352-0.235,0.777-2.561-0.565-2.329c-4.899,0.847-15.342-16.671-10.521-19.723c0.437-0.278,0.565-0.731,0.502-1.158
		c1.221-1.191,2.915-2.032,4.699-2.565c0.422,0.248,0.958,0.199,1.295-0.339c1.697-0.38,3.367-0.529,4.647-0.5
		c0.243,0.006,0.43-0.086,0.585-0.207c1.44-0.06,2.875-0.141,4.302-0.406c3.207-0.597,5.147-3.036,4.111-6.751
		c-0.162-0.575-0.573-0.824-0.992-0.834c-0.149-0.04-0.313-0.051-0.493-0.009c-2.513,0.603-2.583-2.938-1.982-5.275
		c0.39,0.195,0.794,0.348,1.209,0.492c0.042-0.025,0.09-0.039,0.128-0.066c1.467,0.562,3.056,0.756,4.417,0.025
		c2.822-1.51,0.129-5.694,2.013-7.49c0.279,0.003,0.552,0.019,0.821,0.048c0.368-0.209,0.754-0.346,1.158-0.367
		c0.756-0.358,1.51-1.063,1.693-1.977c0.63-3.136-0.495-6.399-1.33-9.381c0.019-0.231,0.028-0.457,0.062-0.691
		C304.885,290.389,306.391,285.311,306.954,280.785z"/>
	<path stroke="#000000" stroke-width="3" stroke-miterlimit="10" d="M282.493,284.556c-0.219-0.185-0.44-0.365-0.648-0.547
		c-0.007-0.007-0.007-0.015-0.013-0.02l-0.886-1.006c-0.831-0.943-2.404,0.335-1.669,1.463c0.056,0.085,0.117,0.155,0.173,0.234
		c-0.002,0.005-0.004,0.006-0.008,0.01l0.09,0.101c0.631,0.856,1.32,1.43,2.138,2.152c0.144,0.127,0.286,0.941,0.428,1.803
		c-0.512,0.115-1.025,0.135-1.544-0.119c-1.245-0.603-2.331,1.474-1.074,2.084c1.092,0.533,2.11,0.595,3.192,0.35
		c1.043,2.132,2.994,3.751,5.141,4.042c3.854,0.52,10.593-0.741,11.16-6.238C300.067,278.249,286.674,277.05,282.493,284.556z
		 M283.914,286.502c0.007-0.016,0.022-0.026,0.032-0.043c0.707-1.577,2.036-2.759,3.576-3.5c-1.408,2.885-1.359,7.04,0.156,9.623
		c-0.157-0.036-0.315-0.071-0.458-0.113C284.386,291.611,284.493,289.03,283.914,286.502z M292.1,292.579
		c-0.15-0.053-0.314-0.076-0.496-0.047c-4.083,0.647-3.975-9.932-0.071-10.307c0.104-0.008,0.187-0.055,0.277-0.09
		c2.791,0.232,5.191,2.044,5.126,5.885C296.889,290.735,294.587,292.091,292.1,292.579z"/>
	<path stroke="#000000" stroke-width="3" stroke-miterlimit="10" d="M271.296,334.218c-3.512-2.352-5.665-6.548-6.908-10.864
		c-0.426-1.472-2.478-0.843-2.051,0.642c1.124,3.899,2.914,7.714,5.612,10.447c-1.329,0.808-2.339,1.688-3.754,2.28
		c-1.318,0.245-2.722,0.476-4.024,0.679c-3.831,0.149-7.751-0.13-11.51-0.985c-7.885-2.966-15.786-7.548-21.278-14.269
		c-8.309-10.181-8.178-26.176-10.124-39.035c-0.232-1.534-2.279-0.881-2.049,0.641c1.732,11.445,1.954,24.782,7.402,35.055
		c-0.368,0.428-0.506,1.129-0.042,1.695c2.748,3.349,5.347,7.009,8.553,9.817c3.979,3.494,8.665,5.558,13.394,7.374
		c1.057,0.406,2.118,0.719,3.184,0.985c0.569,0.309,1.143,0.606,1.733,0.834c2.995,0.052,5.96,0.683,8.968,0.256
		c0.014-0.001,0.028-0.005,0.042-0.006c0.282,0.001,0.562,0.006,0.846,0.006c2.197,0.003,4.003-0.086,6.129-0.646
		c1.285-0.338,2.272-1.445,3.351-2.318c-0.118,1.151-0.202,2.31-0.407,3.45c-0.272,1.519,1.777,2.167,2.049,0.64
		c0.335-1.862,0.339-3.781,0.71-5.633c0.068-0.336,0.006-0.623-0.113-0.86C271.104,334.345,271.2,334.28,271.296,334.218z"/>
	<g>
	</g>
	<g>
	</g>
	<g>
	</g>
	<g>
	</g>
	<g>
	</g>
	<g>
	</g>
</g>
</svg>
