<?xml version="1.0" encoding="utf-8"?>
<!-- Generator: Adobe Illustrator 16.0.0, SVG Export Plug-In . SVG Version: 6.00 Build 0)  -->
<!DOCTYPE svg PUBLIC "-//W3C//DTD SVG 1.0//EN" "http://www.w3.org/TR/2001/REC-SVG-20010904/DTD/svg10.dtd">
<svg version="1.0" xmlns="http://www.w3.org/2000/svg" xmlns:xlink="http://www.w3.org/1999/xlink" x="0px" y="0px" width="640px"
	 height="960px" viewBox="0 0 640 960" enable-background="new 0 0 640 960" xml:space="preserve">
<g id="Layer_1">
	<g>
		<path stroke="#000000" stroke-width="4" stroke-miterlimit="10" d="M393.274,562.978c-0.605,0.264-1.217,0.516-1.822,0.777
			c0.451,1.217,0.811,2.475,1.047,3.77c0.354,1.307,0.473,2.658,0.429,4.025c0.325,9.611-3.909,20.244-8.863,27.395
			c-0.528,0.764-1.079,1.521-1.638,2.275c2.198-1.891,3.843-3.48,4.51-4.504c3.348-5.154,4.777-10.959,6.803-16.586
			c0.188-0.521,0.252-1.125,0.229-1.682C393.752,573.312,393.512,568.171,393.274,562.978z"/>
		<path stroke="#000000" stroke-width="4" stroke-miterlimit="10" d="M381.128,614.735c3.39-1.049,6.54-2.707,9.59-4.865
			c0.696-0.494,1.591,0.168,1.608,0.965c0.006,0.301,0.012,0.602,0.018,0.904c0.49-0.559,1.011-1.107,1.278-1.764
			c0.383-0.941,0.097-2.178,0.107-3.285C393.007,606.761,386.025,611.155,381.128,614.735z"/>
		<path stroke="#000000" stroke-width="2" stroke-miterlimit="10" d="M430.857,514.938c-0.079-0.055-0.157-0.1-0.231-0.186
			c-0.671-0.811-1.435-1.58-2.217-2.348c-3.745-1.982-7.39-4.137-8.828-8.678c-1.848-5.832-4.906-10.789-8.86-15.123
			c-3.452-3.783-7.661-6.832-11.011-10.703c-1.666-1.922-3.472-3.523-5.378-4.902c-3.604-1.676-7.408-2.973-11.047-4.184
			c-10.773-3.588-21.091-7.777-32.503-4.41c-10.737,3.17-20.804,7.947-31.927,9.736c-5.482,0.883-13.049,3.26-19.193,2.49
			c-0.586,0.525-1.177,1.049-1.774,1.584c3.983,5.305,8.422,9.934,15.232,10.887c2.476,0.346,4.997,0.344,7.471,0.701
			c2.417,0.35,4.804,0.957,7.21,1.449c-2.871,5.5,1.637,18.572,7.73,22.502c0.9-2.154,0.9-2.154-0.945-6.77
			c3.546-2.791,7.815-3.654,11.981-4.721c0.39,1.602,0.831,3.41,1.371,5.639c3.1-4.004,3.951-7.807,1.287-12.18
			c4.327,1.41,11.159,11.832,12.314,13.9c2.129,3.818,4.541,7.549,6.068,11.629c1.667,4.457,2.457,9.27,3.657,13.92
			c0.179,0.689,0.476,1.367,0.812,1.994c1.611,2.973,3.255,5.932,4.917,8.953c-3.381,1.67-6.383,3.154-9.457,4.678
			c0.502-3.623,1.529-6.988,1.252-10.236c-0.241-2.932-1.837-5.768-2.983-8.582c-0.495-1.219-1.207-2.432-2.106-3.342
			c-0.455-0.465-1.889-0.639-2.253-0.268c-0.499,0.51-0.426,1.652-0.556,2.531c-0.056,0.4-0.001,0.822,0,1.238l0.661,1.406
			c2.833,3.045,4.221,6.369,3.07,10.826c-0.573,2.234,0.033,4.805,0.097,7.129c-5.559,4.146-11.556,8.664-17.627,13.064
			c-0.534,0.389-1.606,0.115-2.39-0.043c-2.897-0.594-5.79-1.223-8.656-1.945c-1.211-0.301-2.358-0.867-3.627-1.346
			c1.934-2.029,1.828-10.977,1.832-13.096c0.006-1.457,0-2.906,0-4.43c-3.745,0.756-11.356,8.928-11.825,12.773
			c-4.546-2.623-9.439-4.578-13.268-7.881c-4.104-3.541-7.262-8.295-10.684-12.648c-0.599-0.768-0.648-2.17-0.625-3.27
			c0.147-7.652,1.959-14.84,5.429-21.625c0.933-1.836,1.883-3.504,3.118-5.084c2.699-5.055,6.197-10.613,10.015-14.582
			c-3.141-0.492-4.581,1.441-5.783,3.365c-2.457,3.926-4.059,8.648-7.129,11.887c-0.161,0.172-0.299,0.35-0.455,0.52
			c-1.339,2.955-2.898,5.781-4.266,8.742c-2.098,4.537-2.772,8.598-3.157,13.527c-0.013,0.182-0.058,0.332-0.078,0.504
			c0.04,2.768-0.435,5.332-3.25,6.945c-1.819,1.045-4.114,1.102-6.298,0.584c-0.045,0.277-0.089,0.555-0.106,0.861
			c0.021,0.004,0.045,0.006,0.069,0.008c-0.025,0.01-0.047,0.016-0.073,0.027c0,0.014-0.003,0.025-0.003,0.041
			c0.021,0.033,0.049,0.059,0.072,0.09c0.146,0.006,0.288,0.041,0.438,0.037c0.246,0.018,0.431,0.115,0.59,0.24
			c4.079-0.055,10.313,0.148,11.277,3.793c0.041,0.156,0.026,0.334,0.031,0.504c0.032,0.025,0.061,0.051,0.091,0.074
			c-0.01,0.008-0.019,0.016-0.029,0.021c0.506,0.611,0.929,1.289,1.309,1.994c0.538,0.688,1.074,1.377,1.576,2.09
			c0.309,0.15,0.607,0.332,0.852,0.541c2.733,2.33,5.289,4.902,8.114,7.094c1.803,1.398,3.648,2.74,5.513,4.051
			c2.999,1.449,5.865,3.188,9.095,4.275c3.083,1.035,6.161,2.076,9.295,2.904c1.149,0.035,2.304,0.033,3.412,0.281
			c1.33-0.193,3.375,0.982,4.878,1.365c-2.382,2.75-4.433,4.932-6.268,7.297c-1.552,2.004-2.971,4.143-4.234,6.355
			c-2.274,3.99-1.481,7.854,0.007,11.697c2.908-6.32,9.984-10.105,15.617-13.252c7.533-4.209,15.158-7.758,23.24-10.666
			c5.808-2.092,11.577-4.211,17.285-6.514c0.26-0.201,0.515-0.293,0.871-0.35c3.069-1.254,6.128-2.549,9.153-3.965
			c2.594-1.213,5.342-2.406,7.953-3.787c2.407-2.035,4.682-4.219,6.611-6.713c3.382-4.367,5.238-9.432,7.011-14.6
			c0.032-0.25,0.062-0.508,0.104-0.76c0.906-5.477,1.696-10.971,2.61-16.918c1.132,1.277,2.326,2.604,3.504,3.949
			c0.326,0.379,0.532,1.014,0.924,1.17c5.017,2.01,6.3,6.662,7.607,11.367c0.352,1.258,1.381,2.312,1.71,3.566
			c1.004,3.852,1.819,7.762,2.712,11.646c1.135,4.891,2.17,9.805,3.437,14.652c1.376,5.252-0.032,10.262-1.003,15.277
			c-1.96,10.119-7.264,18.18-14.83,24.617c-3.749,3.191-7.773,6.045-11.744,8.945c-5.366,3.924-9.231,9.133-11.623,15.393
			c-0.71,1.855-0.109,4.254-0.109,6.832c-1.755-3.908-5.485-2.229-8.175-3.564c-0.061-0.031-0.114-0.086-0.171-0.127
			c0.565,1.365,1.276,2.725,2.176,4.074c2.58,3.871,4.982,7.484,5.179,12.307c0.401-0.574,0.82-1.506,1.218-2.594
			c1.771-5.572,0.189-11.648,3.215-16.9c2.712-4.699,6.242-8.793,10.329-12.24c1.266-1.068,2.758-2.027,4.344-2.961
			c3.564-3.121,7.337-5.99,10.203-9.934c2.202-3.029,4.62-5.875,6.479-9.148C448.434,567.161,447.209,535.581,430.857,514.938z
			 M329.969,559.835c-2.113,0.158-5.066-0.558-6.122-2.58c-0.527-1.009-0.393-2.237,0.162-3.168c0.313-1.024,0.977-1.96,1.794-2.627
			c0.672-0.548,0.831-0.652,1.258-1.101c0.185-0.511,0.402-1.013,0.661-1.507c0.759-1.447,2.743-1.875,4.104-1.077
			c0.444,0.261,0.775,0.615,1.018,1.015c0.61,0.644,0.919,1.577,0.611,2.718c-0.438,1.624-0.271,3.194-0.598,4.611
			C333.167,557.759,332.052,559.679,329.969,559.835z M335.042,501.858c-1.402-0.188-3.708-0.529-3.942-1.326
			c-0.767-2.627-0.887-5.488-0.959-8.273c-0.007-0.475,1.537-1.539,2.188-1.408c5.148,1.066,10.252,2.357,15.474,3.6
			C346.003,499.017,339.671,502.464,335.042,501.858z M361.401,568.327c-7.79,4.285-15.006,9.713-22.477,14.639
			c0.005-0.027,0.013-0.053,0.017-0.08c-0.799,0.717-1.675,1.23-2.537,0.984c-0.835,0.25-1.635-0.82-1.177-1.654
			c0.54-0.988,1.124-1.922,1.738-2.824c4.766-7.273,12.273-12.775,19.701-16.604c4.616-2.377,9.331-4.883,14.177-6.721
			c2.468-0.93,6.684-3.037,9.328-2.006c0.012,0.006,0.02,0.016,0.032,0.023c1.25,0.174,2.934,1.283,4.259,1.916
			c0.701,0.336,1.152,1.246,1.171,1.264C377.635,560.86,369.23,564.024,361.401,568.327z M415.413,529.097
			c-2.411,7.217-4.004,15.068-10.699,19.811c-2.603,1.838-5.222,3.652-7.875,5.41c-0.557,0.365-1.427,0.787-1.929,0.588
			c-3.38-1.365-6.723-2.842-10.027-4.396c-0.605-0.285-1.151-0.967-1.471-1.615c-3.274-2.057-4.843-6.729-6.022-10.301
			c-1.907-5.773-5.272-11.23-6.724-17.156c-0.105-0.123-0.196-0.27-0.237-0.479c-0.774-3.775-1.999-7.625-3.65-11.314
			c-0.341-0.77-0.72-1.525-1.086-2.283c-3.655-7.229-8.993-13.621-15.841-17.285c-6.54-3.5-13.213-4.588-20.523-4.518
			c-5.231,0.047-9.345-0.801-14.329-2.064c-0.786-0.197-0.902-1.014-0.605-1.594c0.125-0.242,0.329-0.428,0.582-0.523
			c0.223-0.172,0.516-0.258,0.859-0.178c0.885,0.211,2.081-0.199,2.993-0.242c0.128-0.006,0.256-0.004,0.383-0.008
			c4.382-0.842,8.453-1.592,12.33-2.85c6.451-2.096,12.634-5.062,18.973-7.537c4.041-1.574,8.177-2.189,12.514-1.166
			c6.188,1.459,12.591,2.131,18.601,4.129c8.22,2.73,16.34,6.029,22.206,13.277c2.066,2.557,4.582,4.744,6.45,7.436
			c1.998,2.879,3.481,6.148,5.162,9.26c0.477,0.885,0.82,1.846,1.291,2.729C418.097,508.771,416.56,525.687,415.413,529.097z"/>
		<path stroke="#000000" stroke-width="4" stroke-miterlimit="10" d="M281.339,535.862c-0.768-0.391-1.489-0.867-2.18-1.426
			c-1.733-1.012-3.384-2.279-5.02-3.662c-2.107-1.779-4.433-3.348-6.889-4.564c-3.031-0.775-6.265-0.895-9.462-0.48
			c-13.016,1.691-25.877,11.148-35.576,19.965c-5.171,4.699-10.029,9.84-14.103,15.615c-4.121,5.844-7.36,12.258-11.534,18.062
			c-3.578,4.971-7.374,9.92-11.204,14.688c-1.579,2.6-3.326,5.078-5.414,6.873c1.643-0.135,3.284-0.076,4.905,0.125
			c0.886-0.812,1.776-1.625,2.677-2.43c2.338-3.109,4.805-6.283,6.912-9.707c2.768-4.498,4.52-9.729,7.57-13.969
			c4.575-6.361,9.865-12.16,14.906-18.145c3.533-4.199,6.915-8.588,10.827-12.375c3.36-3.25,7.207-6.059,11.145-8.527
			c3.86-2.416,8.101-4.17,12.186-6.189c4.329-2.137,8.801-0.393,13.205-0.451c1.485-0.023,2.972,0.482,4.467,0.686
			c2.271,0.314,4.107,1.105,5.612,3.189c1.417,1.961,3.586,3.309,5.195,5.15c0.711,0.809,1.104,2.143,1.195,3.275
			c0.004,0.061,0.005,0.121,0.012,0.178c-0.003-0.402-0.002-0.807,0-1.213c-0.043-0.107-0.072-0.215-0.118-0.322
			c-0.171-0.404-0.112-0.9,0.121-1.256c0.001-0.049-0.003-0.094,0-0.143c0.02-0.701,0.671-1.305,1.355-1.078
			c0.005,0.002,0.013,0.004,0.019,0.006C281.927,537.097,281.651,536.474,281.339,535.862z"/>
		<path stroke="#000000" stroke-width="4" stroke-miterlimit="10" d="M38.98,802.683c-0.294,0.398-0.564,0.807-0.792,1.211
			c-0.662,1.17-1.718,3.207-1.66,4.904c0.125,0.15,0.131,0.361,0.075,0.555c0.069,0.328,0.173,0.648,0.363,0.926
			c0.128-0.764,0.281-1.623,0.565-2.449c0.564-1.624,1.307-3.181,1.952-4.774C39.304,802.942,39.137,802.817,38.98,802.683z"/>
		<path stroke="#000000" stroke-width="4" stroke-miterlimit="10" d="M330.272,621.739c-0.461-3.234-1.117-5.826-1.117-8.414
			c0-2.562,0.667-5.127,1.054-7.787c4.287,0.412,22.772-20.65,26.032-25.98c-0.714,0.338-1.395,0.699-2.073,1.061
			c-0.484,0.555-1.087,1.035-1.608,1.449c-0.013,0.01-0.028,0.01-0.04,0.018c-3.948,4.262-8.499,7.908-12.874,11.676
			c-1.367,1.178-3.052,2.377-4.826,3.459c-0.543,0.441-1.127,0.883-1.751,1.279c-0.178,0.227-0.409,0.365-0.687,0.389
			c-0.331,0.18-0.658,0.359-0.997,0.492c-3.854,2.016-8.043,2.256-12.877,0.723c-0.128-0.041-0.256-0.086-0.386-0.127
			c-2.614-0.334-5.155-0.916-7.127-1.549c-5.729-1.84-11.012-5.828-15.356-10.094c-4.721-4.631-8.346-10.066-11.628-15.879
			c-2.348-4.164-3.002-7.758-3.312-11.773c-0.018-0.059-0.043-0.113-0.062-0.172c-0.08-0.246-0.058-0.453,0.003-0.641
			c-0.021-0.338-0.046-0.678-0.068-1.021c-0.058-0.289-0.146-0.566-0.168-0.869c-1.466,1.223-3.208,4.141-3.208,4.141
			c-0.372-0.072-0.717-0.133-1.08-0.199c-0.055-0.008-0.107-0.014-0.159-0.029c-1.75-0.32-3.434-0.605-5.06-1.027
			c-5.912-1.525-11.773-2.055-17.767-0.213c-5.715,1.758-11.408,2.994-15.769,8.053c-5.093,5.9-8.116,12.615-9.246,20.266
			c-0.566,3.828-0.529,7.666,0.215,11.416c0.794,2.992,2.021,5.807,3.766,8.291c4.077,2.795,8.167,5.613,12.472,7.982
			c0.488,0.27,1.054,0.375,1.625,0.428c-4.152,3.545-8.163,5.895-14.041,6.639c-4.861,0.621-9.656,0.621-14.408,1.969
			c-8.164,2.318-15.511,11.068-19.133,18.637c-0.573,1.201-1.028,2.451-1.421,3.721c-0.532-0.117-1.065-0.238-1.6-0.357
			c-0.314,0.076-0.65,0.119-1.037,0.088c-9.889-0.908-18.797-5.109-27.279-10.121c-5.47-3.236-11.303-6.121-15.94-10.498
			c-0.247-0.215-0.482-0.441-0.706-0.684c-0.895-0.902-1.759-1.846-2.54-2.891c-0.662,0.383-1.437,0.877-2.138,1.369
			c0.099,0.68,0.023,1.355-0.513,1.896c-0.503,0.508-1.257,0.625-1.948,0.533c-4.076,5.791-8.57,11.148-13.934,15.709
			c-2.796,2.379-5.368,5.045-8.04,7.578c-3.563,3.371-7.421,6.473-10.603,10.195c-2.704,3.166-4.969,6.867-6.83,10.652
			c-0.6,1.223-1.193,2.451-1.79,3.68c-2.179,4.859-3.92,9.916-5.272,15.18c-1.548,6.027-2.756,12.166-4.06,18.262
			c0.247,0.24,0.387,0.592,0.256,1.037c-1.011,3.475-1.953,6.975-2.869,10.482c-0.203,1.92-0.424,3.832-0.744,5.732
			c-0.655,3.912-2.348,7.633-3.565,11.445c-0.215,0.676-0.423,1.354-0.634,2.031c-0.854,3.227-1.76,6.436-2.701,9.633
			c-0.351,1.602-0.842,3.145-1.388,4.67c-3.181,10.428-4.939,22.635-10.838,31.816c-1.905,2.967-8.265,10.635-13.442,13.135
			c-0.129,0.186-0.272,0.355-0.428,0.512c-0.855,1.279-1.904,2.268-3.62,2.221c-1.16-0.029-2.403-0.502-3.522-1.197
			c0.127,0.508,0.289,0.92,0.468,1.262c1.281,0.543,2.562,1.945,3.996,1c0.188-0.125,0.361-0.1,0.5-0.004
			c0.019-0.02,0.042-0.025,0.061-0.047c0.345-0.398,0.868-0.049,0.914,0.393c0.035,0.342-0.009,0.645-0.074,0.941
			c0.029,0.059,0.066,0.109,0.074,0.176c0.225,2.424-0.107,4.836-0.134,7.26c-0.003,0.141-0.067,0.232-0.136,0.32
			c0.006,0.248,0.002,0.498,0.012,0.748c0.133,3.104-1.557,3.072-3.069,2.998c-0.206,0.119-0.454,0.053-0.623-0.121
			c-2.809,0.234-3.626-6.012-4.03-8.059c-0.347-1.762-0.936-4.193,0.663-5.449c0.249-0.195,0.494-0.301,0.736-0.346
			c-0.055-0.268-0.11-0.535-0.165-0.799c0.267-0.094,0.533-0.186,0.796-0.281c-0.88-0.549-1.671-1.23-2.291-1.953
			c-0.083-0.044-0.167-0.084-0.25-0.127c0.214,1.749-0.375,3.612-1.768,4.716c0.069,3.302,1.426,6.412,1.426,9.688
			c0.1,0.484,0.134,0.957,0.138,1.455c0,0.08-0.042,0.127-0.066,0.186c0.106,0.217,0.048,0.406-0.076,0.541
			c0.024,0.389-0.286,0.523-0.589,0.457c-0.192,0.07-0.429,0.037-0.583-0.092c-1.436-1.199-4.127-1.49-6.351-2.221
			c-1.146,0.166-2.279,0.449-3.436,0.568c-0.289,0.031-0.537-0.275-0.535-0.557c0.015-1.258,0.119-2.51,0.134-3.77
			c0.002-0.227,0.122-0.354,0.268-0.439c0.009-0.232,0.015-0.465,0.058-0.723c0.305-1.844,1.27-4.193,2.669-6.056
			c-0.488-0.705-0.777-1.543-0.874-2.406c-2.133,2.66-3.402,6.216-3.513,9.757c-0.087,2.965-0.18,6.193-1.636,8.715
			c-0.195,0.955-0.607,1.889-1.391,2.824c-0.558,0.668-0.818,1.633-1.13,2.496c-1.332,3.689-1.2,7.377-0.736,11.297
			c0.769,6.438,0.872,12.969,1.076,19.469c0.037,1.193-0.595,2.527-1.232,3.588c-0.843,1.398-2.05,2.549-3.008,3.877
			c-2.79,3.869-1.546,7.604,0.482,11.254c1.137,2.049,5.913,3.758,8.429,3.279c1.21-0.234,2.562,0.172,3.714-0.186
			c1.59-0.492,3.882-1.043,4.41-2.256c1.49-3.426,2.512-7.146,3.183-10.855c0.589-3.24,0.446-6.621,0.631-9.979
			c0.029,0.012,0.088-0.033,0.14-0.064c0.012-0.074,0.017-0.158,0.036-0.227c0.062-0.604,0.216-1.15,0.411-1.674
			c0.241-1.602,1.149-3.27,1.783-4.523c1.331-2.643,2.61-5.404,4.071-7.967c1.526-2.668,3.754-6.375,6.872-7.139
			c1.169-0.287,2.248,0.898,3.297,1.869c4.339,2.602,8.721,5.217,13.094,7.871c2.856,1.73,15.875,6.48,19.352,7.602
			c7.958,2.559,29.019,8.094,31.522,8.668c6.688,1.529,13.312,3.369,19.989,4.953c5.248,0.322,10.498,0.488,15.759,0.141
			c12.647-0.838,26.393-5.58,31.971-17.615c0-0.033,0.004-0.062,0.004-0.096c-0.009-0.43,0.186-0.715,0.449-0.889
			c-0.069-3.895-0.171-7.789-0.204-11.697c-0.097-10.777,2.041-33.033,2.885-42.408c0.45-10.762,0.872-21.523,1.062-32.297
			c-0.577-3.248-0.9-6.646-0.875-9.887c-0.869,5.133-1.822,10.273-2.73,15.486c-0.109-0.877-3.81,53.025-4.973,71.018
			c0.677,4.195,0.151,8.713-1.619,11.867c-2.18,3.883-5.581,6.225-9.445,7.658c-0.215,0.25-0.554,0.387-0.996,0.361
			c-4.283,1.396-9.04,1.771-13.312,1.916c-10.917,0.365-21.946-1.027-32.728-2.793c-5.797-0.947-13.119-1.914-18.452-5.393
			c-4.14-0.656-8.197-1.885-12.288-2.867c-5.567-1.33-11.129-2.674-16.694-4.004c-0.666-0.16-1.432-0.109-1.989-0.447
			c-4.193-2.541-8.354-5.135-12.499-7.76c-2.913-1.846-4.927-4.525-6.267-7.615c-0.102-0.086-0.192-0.199-0.257-0.346
			c-0.04-0.09-0.068-0.176-0.106-0.264h-0.002c-0.008-0.025-0.017-0.049-0.025-0.072c-0.69-1.598-1.24-3.172-1.637-4.713
			c-1.638-5.098-2.802-10.607-1.355-15.744c0.693-2.461,1.746-4.74,3.005-6.898c0.15-0.541,0.312-1.014,0.489-1.34
			c0.828-1.498,1.686-3.039,2.8-4.297c1.251-1.418,2.503-2.859,3.791-4.25c0.622-1.787,1.349-3.539,2.075-5.291
			c1.395-3.363,2.688-6.74,4.22-10.041c1.596-3.438,3.094-6.904,4.519-10.424c0.753-1.859,1.499-3.748,2.485-5.488
			c0.589-1.041,1.244-2.016,1.768-3.072c3.724-12.949,5.957-26.264,8.868-39.537c2.626-11.971,5.157-24.125,9.684-35.502
			c2.949-7.406,7.139-16.963,14.608-20.52c0.566-0.65,1.104-1.326,1.693-1.959c0.154-0.164,0.315-0.248,0.476-0.299
			c0.569-0.633,1.127-1.273,1.664-1.934c0.155-0.193,0.326-0.285,0.498-0.334c6.232-6.322,13.588-11.932,18.629-18.232
			c0.192-0.242,0.429-0.34,0.665-0.348c0.625-0.232,1.43,0.129,1.43,0.998c0,0.498-0.088,0.811-0.258,1.102
			c-2.305,8.205-3.548,16.426-2.819,25.002c0.021,0.234-0.035,0.414-0.12,0.574c0.261,5.85,0.938,11.535,3.985,16.264
			c6.045,2.559,13.272,1.545,18.921-1.984c0.287-0.461,0.527-0.947,0.655-1.49c0.081-0.354,0.123-0.705,0.146-1.057
			c-0.267-0.832-0.743-1.643-1.005-2.441c-2.658-4.699-3.526-11.275-4.116-16.885c-0.285-1.441-0.5-2.639-0.641-3.113
			c-1.542-5.178-3.042-10.367-4.565-15.549c0.234-0.182,0.466-0.365,0.699-0.547c3.361,2.529,6.55,5.363,10.122,7.521
			c4.637,2.809,19.398,8.941,30.59,12.871c-0.316,3.139-0.313,6.35-0.153,9.506c0.132,2.604,0.371,5.168,0.633,7.631
			c0.161,1.514,0.325,3.113,0.506,4.746c0.781-0.422,1.59-0.768,2.428-1.035c-0.217-1.943-0.418-3.844-0.604-5.59
			c-0.349-3.328-0.57-6.713-0.499-10.064c0.029-1.441,0.112-2.877,0.261-4.307c0.036,0.016,0.071,0.025,0.111,0.039
			c0.044-1.225,0.262-2.451,0.577-3.705c0.058-0.488,0.161-0.928,0.294-1.373c0.148-0.643,0.307-1.285,0.477-1.928
			c0.037-0.145,0.097-0.264,0.146-0.395c-0.044-0.01-0.086-0.016-0.13-0.023c0.675-2.195,1.562-4.33,2.737-6.373
			c2.694-4.66,6.607-8.174,10.831-11.254c5.06-3.689,10.722-3.918,16.641-4.42c8.49-0.715,13.468-3.531,19.583-9.1
			c0.019,0.035,0.034,0.066,0.052,0.102c0.138-0.076,0.299-0.127,0.492-0.127c0.748,0,1.076,0.65,1.013,1.254
			c1.79,2.65,2.993,5.488,5.134,7.918c0.228,0.256,0.452,0.516,0.677,0.773c5.556,4.203,11.695,6.705,18.395,7.729
			c1.366,0.209,2.831-0.365,4.22-0.24c1.712,0.156,3.75,0.158,5.02,1.127c3.271,2.488,7.031,1.646,10.543,2.34
			c2.18,0.434,4.494,0.244,6.611,0.848c3.428,0.971,6.686,0.492,9.901-0.594c4.671-1.584,9.301-3.314,13.909-5.1
			c0.836-0.324,1.806-1.053,2.153-1.857c1.104-2.588,8.12-9.586,15.331-16.363c1.087-1.41,2.195-2.803,3.2-4.291
			c1.421-2.105,3.037-4.057,4.589-6.059c-2.34,1.941-4.682,3.881-7.031,5.807C339.544,614.267,335.202,617.749,330.272,621.739z
			 M42.88,843.61c-0.738,3.979-0.132,8.209-0.586,12.27c-0.643,5.781,0.251,12.15-4.71,16.594c-2.345,2.1-7.608,1.336-9.829-1.289
			c-2.401-2.846-1.951-6.578,1.049-9.32c1.256-1.145,2.431-2.387,3.609-3.621c0.198-0.584,0.336-1.215,0.45-1.859
			c0.417-8.877-2.437-17.613-2.337-26.541c0.041-3.643,0.437-7.824,2.796-10.732c0.21-0.258,0.448-0.529,0.696-0.799
			c1.055-1.789,2.562-2.947,4.742-2.875c0.021-0.041,0.035-0.084,0.059-0.125c4.349-0.121,6.903,2.697,7.276,7.234
			C46.708,829.907,44.176,836.62,42.88,843.61z M46.853,845.149c0.315-8.668,0.62-17.152,0.946-26.051
			c2.45-1,5.236,3.455,7.865-0.754c1.225,3.135,2.194,5.619,3.133,8.02C55.003,832.329,51.051,838.544,46.853,845.149z
			 M154.994,645.954c0.07,0.672,0.133,1.385,0.196,2.088c1.711,5.047,1.421,11.523,2.788,16.664
			c1.473,2.682,2.999,5.342,4.515,8.057c-0.212,0.143-0.431,0.252-0.648,0.377c0.006,0.033,0.022,0.053,0.026,0.088
			c0.266,2.736-3.126,3.807-5.132,4.066c-0.784,0.1-1.653,0.135-2.5,0.045c-2.958,0.531-6.032-0.328-7.524-3.166
			c-2.942-2.91-3.329-9.217-3.649-13.496c-0.422-5.65-0.129-11.535,1.28-17.041c1.097-4.287,1.761-9.537,4.162-13.264
			c0.145-0.227,0.343-0.371,0.558-0.457c0.099-0.477,0.212-0.955,0.359-1.43c0.113,0.473,0.23,0.945,0.345,1.418
			c0.067,0.023,0.134,0.029,0.2,0.066c0.597,0.334,0.83,0.508,1.114,0.881C154.77,634.167,154.509,641.382,154.994,645.954z
			 M324.993,628.411c-4.837,2.004-9.633,4.26-14.651,5.588c-1.167,0.307-2.371,0.484-3.582,0.615
			c-4.633,1.812-10.439,2.043-14.228,1.545c-12.357-1.635-28.014-5.811-36.32-16.254c-0.495-0.623-0.216-1.391,0.27-1.748
			c0.072-0.332,0.291-0.613,0.738-0.676c1.93-0.277,4.188-0.553,6.58-0.904c0.68-0.266,1.366-0.518,2.061-0.738
			c4.524-1.445,9.15-2.545,13.74-3.77c0.865-0.475,1.695-0.986,2.455-1.562c0.06-0.307,0.016-0.668-0.181-1.117
			c-0.15-0.344-0.874-0.539-1.625-0.594c-1.893,0.73-3.927,1.197-5.872,1.68c-4.381,1.088-8.781,1.545-13.228,1.707
			c-0.709,0.096-1.416,0.221-2.128,0.293c-1.561,0.154-3.092,0.049-4.596-0.223c-10.161-0.168-19.761-3.588-22.888-14.824
			c-2.456-8.832-0.87-19.695,5.802-26.225c3.878-3.793,8.91-6.467,14.17-7.412c2.531-0.455,5.309-1.027,8.053-1.211
			c0.112-0.014,0.219-0.043,0.333-0.055c2.079-0.258,4.256,0.107,6.363,0.396c3.035,0.424,6.054,0.979,9.055,1.604
			c2.357,0.486,4.627,0.705,5.073,4.309c0.497,4.029,1.337,8.293,3.17,11.805c3.151,6.029,7.051,11.643,13.532,14.566
			c1.768,0.795,3.059,2.719,4.814,3.57c3.018,1.469,6.236,2.494,9.358,3.727c0.16,0.062,0.354,0.139,0.548,0.223
			c2.71,0.475,5.452,1.08,8.052,2.016c2.358,0.846,7.021,2.809,5.847,5.652c-0.559,5.154-2.764,10.611,0.484,15.975
			C326.384,626.685,325.59,628.165,324.993,628.411z"/>
	</g>
	<path fill-rule="evenodd" clip-rule="evenodd" fill="#FFFFFF" d="M308.476,526.05c0.569,2.064,1.033,3.797,1.522,5.521
		c0.746,2.637,1.469,5.283,2.309,7.887c0.131,0.412,0.882,0.939,1.242,0.863c0.462-0.098,1.111-0.713,1.163-1.166
		c0.117-1.01,0.064-2.105-0.194-3.09c-0.615-2.365-1.356-4.701-2.107-7.027c-0.571-1.764-1.238-3.496-1.965-5.533
		C309.344,524.927,308.753,525.688,308.476,526.05z"/>
	<path fill="#FFFFFF" d="M358.786,488.509c2.525,3.121,5.193,6.277,7.708,9.561c3.135,4.1,6.106,8.342,9.224,12.463
		c1.492,1.969,3.151,3.799,4.998,6C384.173,508.784,369.854,489.351,358.786,488.509z"/>
	<path fill="#FFFFFF" d="M401.55,505.95c-0.831-1.152-1.533-2.434-2.113-3.75c-3.072-5.117-6.683-9.881-11.072-14.248
		c-4.007-3.986-8.32-7.289-13.361-9.586c5.066,3.762,9.553,8.65,12.997,13.031c7.484,9.514,14.109,19.285,16.39,31.176
		c0.514-0.139,1.338-0.602,1.512-1.012c0.41-0.986,0.968-1.938,1.354-2.936C405.571,514.208,403.701,509.979,401.55,505.95z"/>
	<path fill-rule="evenodd" clip-rule="evenodd" d="M361.554,533.546c0.591,4.93,1.354,9.852,1.675,14.803
		c0.094,1.443-1.062,2.977-1.763,4.758c-0.884-1.131-1.504-1.916-2.253-2.871c-3.274,3.059-7.352,3.857-11.465,2.904
		c-0.355,1.754-0.678,3.35-1.072,5.289c-11.933-9.523-11.964-23.781-5.245-28.846c0,2.139,0,4.061,0,5.807
		c3.647-1.926,10.499-2.668,14.592-1.529c-0.823-1.486-1.768-3.105-2.612-4.779c-0.181-0.355-0.163-1.176,0.04-1.303
		c0.402-0.258,1.16-0.424,1.487-0.191c2.029,1.451,3.978,3.02,5.954,4.553C361.114,532.606,361.333,533.077,361.554,533.546z
		 M359.364,536.72c-1.881,0.619-7.487,0.402-9.02,0.736c-2.981,0.641-5.856,2.223-8.642-0.787c-0.274,0.195-0.547,0.389-0.821,0.584
		c0.959,4.35,1.918,8.701,2.946,13.371c0.643-0.627,1.071-1.26,1.251-1.191c4.908,1.865,7.952-1.838,11.461-4.121
		c0.871-0.562,2.283-1.107,2.413-1.857C359.363,541.075,359.28,538.606,359.364,536.72z"/>
	<path fill-rule="evenodd" clip-rule="evenodd" d="M308.476,526.05c0.278-0.361,0.868-1.123,1.97-2.545
		c0.727,2.037,1.394,3.77,1.965,5.533c0.751,2.326,1.492,4.662,2.107,7.027c0.258,0.984,0.311,2.08,0.194,3.09
		c-0.052,0.453-0.701,1.068-1.163,1.166c-0.359,0.076-1.111-0.451-1.242-0.863c-0.84-2.604-1.563-5.25-2.309-7.887
		C309.509,529.847,309.044,528.114,308.476,526.05z"/>
	
		<line fill-rule="evenodd" clip-rule="evenodd" stroke="#000000" stroke-width="3" stroke-miterlimit="10" x1="320.941" y1="522.618" x2="323.185" y2="530.421"/>
	<path fill-rule="evenodd" clip-rule="evenodd" d="M401.55,505.95c-0.831-1.152-1.533-2.434-2.113-3.75
		c-3.072-5.117-6.683-9.881-11.072-14.248c-4.007-3.986-8.32-7.289-13.361-9.586c5.066,3.762,9.553,8.65,12.997,13.031
		c7.484,9.514,14.109,19.285,16.39,31.176c0.514-0.139,1.338-0.602,1.512-1.012c0.41-0.986,0.968-1.938,1.354-2.936
		C405.571,514.208,403.701,509.979,401.55,505.95z"/>
	<path fill-rule="evenodd" clip-rule="evenodd" d="M380.716,516.532c-1.847-2.201-3.506-4.031-4.998-6
		c-3.117-4.121-6.089-8.363-9.224-12.463c-2.515-3.283-5.183-6.439-7.708-9.561C369.854,489.351,384.173,508.784,380.716,516.532z"
		/>
	<path fill-rule="evenodd" clip-rule="evenodd" d="M431.581,562.196c-1.023-6.709-4.854-11.797-7.895-17.354
		c0.046,0.182,0.096,0.365,0.147,0.547c0.241,0.826,0.482,1.654,0.747,2.477c0.481,1.508,0.81,3.123,1.108,4.744
		c0.206,0.953,0.378,1.924,0.517,2.914c0.059,0.328,0.117,0.664,0.177,0.99c0.982,5.191,2.044,10.668,1.189,15.963
		c-1.739,10.855-7.689,20.141-15.013,27.828c1.065,1.135,2.574,1.318,3.979-0.047c0.728-0.701,1.338-1.547,1.964-2.355
		c5.682-7.32,9.168-15.74,11.621-24.736C431.104,569.548,432.199,566.249,431.581,562.196z"/>
	<path fill-rule="evenodd" clip-rule="evenodd" d="M410.728,563.241c0.06,0.598-0.266,1.25-1.014,1.25
		c-0.107,0-0.188-0.033-0.277-0.059c-0.617,1.154-1.123,2.098-0.962,2.889c1.838,8.877-1.344,16.291-5.666,23.498
		c-0.673,1.121-0.905,2.529-1.587,4.514C412.965,589.065,414.504,573.487,410.728,563.241z"/>
	<g>
		<line fill-rule="evenodd" clip-rule="evenodd" x1="341.909" y1="520.515" x2="326.133" y2="526.179"/>
		<path d="M341.909,520.515c0,0-0.203,0.211-0.578,0.522c-0.374,0.315-0.92,0.73-1.595,1.177c-1.35,0.892-3.237,1.835-5.209,2.544
			c-1.971,0.71-4.027,1.185-5.636,1.354c-0.805,0.084-1.491,0.11-1.98,0.104c-0.488-0.002-0.779-0.037-0.779-0.037
			s0.202-0.212,0.577-0.524c0.373-0.316,0.919-0.732,1.594-1.179c1.349-0.893,3.237-1.834,5.21-2.54
			c1.972-0.707,4.029-1.18,5.637-1.351c0.804-0.084,1.49-0.112,1.979-0.106C341.618,520.48,341.909,520.515,341.909,520.515z"/>
	</g>
	
		<polygon fill-rule="evenodd" clip-rule="evenodd" fill="#FFFFFF" stroke="#000000" stroke-width="4" stroke-miterlimit="10" points="
		195.987,669.122 195.992,669.2 196.71,676.202 	"/>
	<path d="M276.362,632.585c-0.576,0.617-0.561,1.898,0.483,2.266c4.623,1.635,9.417,1.816,14.239,2.25
		c0.714,0.062,1.092-0.416,1.176-0.98C287.25,635.446,281.721,634.341,276.362,632.585z"/>
	<path d="M46.767,796.379c-0.561-0.957-1.379-1.466-2.391-1.839c-0.795-0.293-1.627-0.446-2.438-0.688
		c-2.089-0.621-4.352,0.726-4.92,2.794c-0.587,2.135,0.705,4.3,2.793,4.921c0.811,0.24,1.643,0.395,2.438,0.688
		c0.966,0.355,2.223,0.101,3.083-0.403c0.894-0.524,1.563-1.391,1.838-2.391C47.454,798.429,47.308,797.303,46.767,796.379z"/>
</g>
<g id="Layer_2">
	
		<ellipse fill="none" stroke="#000000" stroke-width="9" stroke-miterlimit="10" cx="444.67" cy="217.274" rx="121.872" ry="201.283"/>
	<path fill="none" stroke="#000000" stroke-width="9" stroke-miterlimit="10" d="M538.878,217.275
		c0,85.926-42.179,155.583-94.206,155.583c-52.023,0-94.202-69.657-94.202-155.583c0-85.93,42.178-155.585,94.202-155.585
		C496.699,61.69,538.878,131.345,538.878,217.275z"/>
	<path fill="none" stroke="#000000" stroke-width="9" stroke-miterlimit="10" d="M527.142,192.236"/>
	
		<line fill="none" stroke="#000000" stroke-width="8" stroke-miterlimit="10" x1="403.743" y1="650.481" x2="403.743" y2="865.495"/>
	<g>
		<path d="M269.76,676.202c0.195,0.935,0.345,1.869,0.513,2.804c0.173,0.935,0.29,1.869,0.438,2.804
			c0.292,1.869,0.542,3.738,0.767,5.607l-1.717-1.718c3.476-0.432,6.952-0.757,10.428-1.057c1.738-0.127,3.476-0.286,5.214-0.385
			c1.738-0.109,3.476-0.23,5.214-0.307c1.738-0.086,3.476-0.182,5.214-0.233c1.738-0.057,3.476-0.137,5.214-0.163
			c3.476-0.095,6.952-0.117,10.428-0.137l5.214,0.035c1.738,0.003,3.476,0.065,5.214,0.096c3.476,0.082,6.952,0.206,10.428,0.392
			c3.476,0.169,6.952,0.412,10.428,0.691c3.476,0.298,6.952,0.626,10.428,1.06l-1.726,1.726c0.226-1.869,0.477-3.738,0.77-5.607
			c0.148-0.935,0.267-1.869,0.44-2.804c0.169-0.935,0.319-1.869,0.516-2.804c0.196,0.935,0.347,1.869,0.516,2.804
			c0.173,0.935,0.292,1.869,0.44,2.804c0.293,1.869,0.544,3.738,0.77,5.607l0.18,1.488l-1.906,0.237
			c-3.476,0.434-6.952,0.762-10.428,1.06c-3.476,0.279-6.952,0.522-10.428,0.691c-3.476,0.186-6.952,0.31-10.428,0.392
			c-1.738,0.03-3.476,0.093-5.214,0.096l-5.214,0.035c-3.476-0.02-6.952-0.042-10.428-0.137c-1.738-0.025-3.476-0.106-5.214-0.163
			c-1.738-0.052-3.476-0.147-5.214-0.233c-1.738-0.076-3.476-0.197-5.214-0.307c-1.738-0.099-3.476-0.258-5.214-0.385
			c-3.476-0.3-6.952-0.625-10.428-1.057l-1.896-0.236l0.179-1.481c0.225-1.869,0.475-3.738,0.767-5.607
			c0.148-0.935,0.265-1.869,0.438-2.804C269.415,678.071,269.564,677.137,269.76,676.202z"/>
	</g>
	<g>
		<path d="M269.76,752.382c0.195,0.935,0.345,1.869,0.513,2.803c0.173,0.935,0.29,1.869,0.438,2.804
			c0.292,1.869,0.541,3.737,0.767,5.606l-1.717-1.718c3.476-0.432,6.952-0.757,10.428-1.057c1.738-0.127,3.476-0.286,5.214-0.385
			c1.738-0.109,3.476-0.23,5.214-0.307c1.738-0.086,3.476-0.182,5.214-0.233c1.738-0.057,3.476-0.137,5.214-0.163
			c3.476-0.095,6.952-0.117,10.428-0.137l5.214,0.035c1.738,0.003,3.476,0.065,5.214,0.096c3.476,0.082,6.952,0.206,10.428,0.392
			c3.476,0.169,6.952,0.412,10.428,0.691c3.476,0.298,6.952,0.626,10.428,1.06l-1.726,1.726c0.226-1.869,0.476-3.737,0.77-5.606
			c0.148-0.935,0.268-1.869,0.44-2.804c0.169-0.934,0.319-1.868,0.516-2.803c0.196,0.935,0.347,1.869,0.516,2.803
			c0.173,0.935,0.292,1.869,0.44,2.804c0.293,1.869,0.544,3.737,0.77,5.606l0.18,1.488l-1.906,0.237
			c-3.476,0.434-6.952,0.762-10.428,1.06c-3.476,0.279-6.952,0.522-10.428,0.691c-3.476,0.186-6.952,0.31-10.428,0.392
			c-1.738,0.03-3.476,0.093-5.214,0.096l-5.214,0.035c-3.476-0.02-6.952-0.042-10.428-0.137c-1.738-0.026-3.476-0.106-5.214-0.163
			c-1.738-0.052-3.476-0.147-5.214-0.233c-1.738-0.076-3.476-0.197-5.214-0.307c-1.738-0.099-3.476-0.258-5.214-0.385
			c-3.476-0.3-6.952-0.625-10.428-1.057l-1.896-0.236l0.179-1.481c0.226-1.869,0.475-3.737,0.767-5.606
			c0.148-0.935,0.265-1.869,0.438-2.804C269.415,754.251,269.564,753.316,269.76,752.382z"/>
	</g>
	<g>
		<path d="M455.569,676.202c0.195,0.935,0.345,1.869,0.513,2.804c0.173,0.935,0.29,1.869,0.438,2.804
			c0.291,1.869,0.541,3.738,0.767,5.607l-1.718-1.718c3.476-0.432,6.952-0.757,10.428-1.057c1.737-0.127,3.476-0.286,5.214-0.385
			c1.737-0.109,3.476-0.23,5.214-0.307c1.737-0.086,3.476-0.182,5.213-0.233c1.738-0.057,3.477-0.138,5.214-0.163
			c3.477-0.095,6.952-0.117,10.428-0.137l5.214,0.035c1.737,0.003,3.476,0.065,5.214,0.096c3.476,0.082,6.951,0.206,10.427,0.392
			c3.477,0.169,6.952,0.412,10.428,0.691c3.476,0.298,6.952,0.626,10.428,1.06l-1.726,1.726c0.226-1.869,0.477-3.738,0.77-5.607
			c0.148-0.935,0.268-1.869,0.44-2.804c0.169-0.935,0.319-1.869,0.516-2.804c0.196,0.935,0.347,1.869,0.516,2.804
			c0.173,0.935,0.292,1.869,0.44,2.804c0.293,1.869,0.544,3.738,0.77,5.607l0.181,1.488l-1.906,0.237
			c-3.476,0.434-6.952,0.762-10.428,1.06c-3.476,0.279-6.951,0.522-10.428,0.691c-3.476,0.186-6.951,0.31-10.427,0.392
			c-1.738,0.03-3.477,0.093-5.214,0.096l-5.214,0.035c-3.476-0.02-6.951-0.042-10.428-0.137c-1.737-0.025-3.476-0.106-5.214-0.163
			c-1.737-0.052-3.476-0.147-5.213-0.233c-1.738-0.076-3.477-0.197-5.214-0.307c-1.738-0.099-3.477-0.258-5.214-0.385
			c-3.476-0.3-6.952-0.625-10.428-1.057l-1.896-0.236l0.179-1.481c0.226-1.869,0.476-3.738,0.767-5.607
			c0.148-0.935,0.266-1.869,0.438-2.804C455.225,678.071,455.374,677.137,455.569,676.202z"/>
	</g>
	<g>
		<path d="M455.569,757.989c0.195,0.935,0.345,1.868,0.513,2.803c0.173,0.935,0.29,1.868,0.438,2.803
			c0.292,1.868,0.541,3.737,0.767,5.605l-1.717-1.717c3.476-0.433,6.952-0.758,10.428-1.058c1.737-0.127,3.476-0.286,5.214-0.385
			c1.737-0.109,3.476-0.23,5.214-0.307c1.737-0.086,3.476-0.182,5.213-0.233c1.738-0.057,3.477-0.137,5.214-0.163
			c3.477-0.095,6.952-0.117,10.428-0.137l5.214,0.035c1.737,0.003,3.476,0.065,5.214,0.096c3.476,0.082,6.951,0.206,10.427,0.392
			c3.477,0.169,6.952,0.412,10.428,0.691c3.476,0.298,6.952,0.627,10.428,1.06l-1.726,1.726c0.226-1.868,0.477-3.737,0.77-5.605
			c0.148-0.935,0.268-1.868,0.44-2.803c0.169-0.935,0.319-1.868,0.516-2.803c0.196,0.935,0.347,1.868,0.516,2.803
			c0.173,0.935,0.292,1.868,0.44,2.803c0.293,1.868,0.544,3.737,0.77,5.605l0.18,1.488l-1.905,0.237
			c-3.476,0.433-6.952,0.762-10.428,1.06c-3.476,0.279-6.951,0.522-10.428,0.691c-3.476,0.186-6.951,0.31-10.427,0.392
			c-1.738,0.03-3.477,0.093-5.214,0.096l-5.214,0.035c-3.476-0.02-6.951-0.042-10.428-0.137c-1.737-0.026-3.476-0.106-5.214-0.163
			c-1.737-0.052-3.476-0.147-5.213-0.233c-1.738-0.076-3.477-0.197-5.214-0.307c-1.738-0.099-3.477-0.258-5.214-0.385
			c-3.476-0.3-6.952-0.625-10.428-1.058l-1.896-0.235l0.179-1.481c0.226-1.868,0.475-3.737,0.767-5.605
			c0.147-0.935,0.265-1.868,0.438-2.803C455.225,759.857,455.374,758.924,455.569,757.989z"/>
	</g>
	<g>
		<path d="M269.76,824.604c0.195,0.935,0.345,1.869,0.513,2.803c0.173,0.935,0.29,1.869,0.438,2.804
			c0.292,1.869,0.541,3.737,0.767,5.606l-1.717-1.718c3.476-0.432,6.952-0.757,10.428-1.057c1.738-0.127,3.476-0.286,5.214-0.385
			c1.738-0.109,3.476-0.23,5.214-0.307c1.738-0.086,3.476-0.182,5.214-0.233c1.738-0.057,3.476-0.137,5.214-0.163
			c3.476-0.095,6.952-0.117,10.428-0.137l5.214,0.035c1.738,0.003,3.476,0.065,5.214,0.096c3.476,0.082,6.952,0.206,10.428,0.392
			c3.476,0.169,6.952,0.412,10.428,0.691c3.476,0.298,6.952,0.626,10.428,1.06l-1.726,1.726c0.226-1.869,0.476-3.737,0.77-5.606
			c0.148-0.935,0.268-1.869,0.44-2.804c0.169-0.934,0.319-1.868,0.516-2.803c0.196,0.935,0.347,1.869,0.516,2.803
			c0.173,0.935,0.292,1.869,0.44,2.804c0.293,1.869,0.544,3.737,0.77,5.606l0.18,1.488l-1.906,0.237
			c-3.476,0.434-6.952,0.762-10.428,1.06c-3.476,0.279-6.952,0.522-10.428,0.691c-3.476,0.186-6.952,0.31-10.428,0.392
			c-1.738,0.03-3.476,0.093-5.214,0.096l-5.214,0.035c-3.476-0.02-6.952-0.042-10.428-0.137c-1.738-0.026-3.476-0.106-5.214-0.163
			c-1.738-0.052-3.476-0.147-5.214-0.233c-1.738-0.076-3.476-0.197-5.214-0.307c-1.738-0.099-3.476-0.258-5.214-0.385
			c-3.476-0.3-6.952-0.625-10.428-1.057l-1.896-0.236l0.179-1.481c0.226-1.869,0.475-3.737,0.767-5.606
			c0.148-0.935,0.265-1.869,0.438-2.804C269.415,826.474,269.564,825.539,269.76,824.604z"/>
	</g>
	<g>
		<path d="M455.569,824.604c0.195,0.935,0.345,1.869,0.513,2.803c0.173,0.935,0.29,1.869,0.438,2.804
			c0.292,1.869,0.542,3.737,0.768,5.606l-1.718-1.718c3.476-0.432,6.952-0.757,10.428-1.057c1.737-0.127,3.476-0.286,5.214-0.385
			c1.737-0.109,3.476-0.23,5.214-0.307c1.737-0.086,3.476-0.182,5.213-0.233c1.738-0.057,3.477-0.137,5.214-0.163
			c3.477-0.095,6.952-0.117,10.428-0.137l5.214,0.035c1.737,0.003,3.476,0.065,5.214,0.096c3.476,0.082,6.951,0.206,10.427,0.392
			c3.477,0.169,6.952,0.412,10.428,0.691c3.476,0.298,6.952,0.626,10.428,1.06l-1.726,1.726c0.226-1.869,0.477-3.737,0.77-5.606
			c0.148-0.935,0.268-1.869,0.44-2.804c0.169-0.934,0.319-1.868,0.516-2.803c0.196,0.935,0.347,1.869,0.516,2.803
			c0.173,0.935,0.292,1.869,0.44,2.804c0.293,1.869,0.544,3.737,0.77,5.606l0.181,1.488l-1.906,0.237
			c-3.476,0.434-6.952,0.762-10.428,1.06c-3.476,0.279-6.951,0.522-10.428,0.691c-3.476,0.186-6.951,0.31-10.427,0.392
			c-1.738,0.03-3.477,0.093-5.214,0.096l-5.214,0.035c-3.476-0.02-6.951-0.042-10.428-0.137c-1.737-0.026-3.476-0.106-5.214-0.163
			c-1.737-0.052-3.476-0.147-5.213-0.233c-1.738-0.076-3.477-0.197-5.214-0.307c-1.738-0.099-3.477-0.258-5.214-0.385
			c-3.476-0.3-6.952-0.625-10.428-1.057l-1.896-0.236l0.179-1.481c0.226-1.869,0.476-3.737,0.768-5.606
			c0.147-0.935,0.265-1.869,0.438-2.804C455.225,826.474,455.374,825.539,455.569,824.604z"/>
	</g>
	<polyline fill="none" stroke="#000000" stroke-width="8" stroke-miterlimit="10" points="588.757,726.329 588.757,802.841 
		577.588,802.841 214.776,802.841 	"/>
	<polyline fill="none" stroke="#000000" stroke-width="8" stroke-miterlimit="10" points="588.757,802.841 588.757,865.495 
		577.588,865.495 214.776,865.495 214.776,650.481 572.486,650.481 577.588,650.481 588.757,650.481 588.757,726.329 
		577.961,726.329 214.776,726.329 	"/>
	<path fill="none" stroke="#000000" stroke-width="8" stroke-miterlimit="10" d="M588.757,650.481
		c-0.084-31.553-0.084-62.818-0.084-94.084c-47.08,0-92.021,0-138.501-0.24"/>
	<path fill="none" stroke="#000000" stroke-width="8" stroke-miterlimit="10" d="M214.776,650.481c0-5.42,0-10.832,0-16.252"/>
	<g id="Layer_3">
	</g>
	<path fill="none" stroke="#000000" stroke-miterlimit="10" d="M87.449,733.915"/>
	<path fill="none" stroke="#000000" stroke-miterlimit="10" d="M588.757,733.915"/>
</g>
<g id="Layer_4">
	<path fill-rule="evenodd" clip-rule="evenodd" stroke="#000000" stroke-width="4" stroke-miterlimit="10" d="M198.548,741.538
		c-0.003-0.023-0.016-0.037-0.023-0.061c0.211-8.477,0.417-16.953,0.367-25.434c-0.08-13.25,2.434-27.396-0.097-40.459
		c-0.273-1.41-2.336-0.812-2.064,0.594c1.272,6.564,0.842,13.32,0.487,19.957c-0.395,7.342-0.498,14.596-0.453,21.949
		c0.059,9.887-0.255,19.771-0.503,29.656c-0.084,0.832-0.151,1.658-0.13,2.436c0.006,0.268,0.037,0.537,0.048,0.803
		c-0.105,4.498-0.189,8.996-0.199,13.49c-0.005,1.396,1.991,1.428,2.117,0.115c-0.026-1.73-0.074-3.471-0.118-5.213
		c0.534-0.135,1.03-0.643,0.937-1.363c-0.392-2.99-0.6-6.068-0.679-9.082C198.171,746.464,198.925,743.966,198.548,741.538z"/>
	<path fill-rule="evenodd" clip-rule="evenodd" d="M365.57,568.831c-5.604,3.979-9.239,10.045-14.125,14.832
		c-0.675,0.658-0.217,1.566,0.456,1.812c2.859-3.545,6.071-6.723,9.394-9.785c1.634-1.814,3.364-3.518,5.354-4.932
		C367.784,569.956,366.714,568.019,365.57,568.831z"/>
	<path fill-rule="evenodd" clip-rule="evenodd" d="M373.747,565.325c-1.891,2.764-2.976,6.074-4.428,9.1
		c-2.169,4.514-4.756,8.793-7.534,12.922c-6.268,9.311-13.575,17.691-21.042,25.91c-0.948,1.041,0.562,2.625,1.513,1.578
		c2.892-3.186,5.692-6.398,8.433-9.658c0.164-0.209,0.326-0.412,0.486-0.621c0.03-0.037,0.071-0.045,0.104-0.076
		c3.507-4.197,6.907-8.49,10.189-12.984c2.938-4.021,5.578-8.205,7.981-12.598c2.198-4.016,3.568-8.684,6.144-12.447
		C376.398,565.276,374.54,564.163,373.747,565.325z"/>
	<path fill-rule="evenodd" clip-rule="evenodd" d="M421.078,610.974c3.561-3.111,7.322-5.977,10.182-9.914
		c2.182-3.006,4.576-5.828,6.428-9.068c8.395-19.344,9.514-42.875,1.781-62.109c-0.347-0.568-0.672-1.137-1.038-1.697
		c-0.104-0.16-0.221-0.295-0.338-0.428c-3.773-7.795-8.973-14.857-15.41-20.631c-3.122-2.799-7.684,1.918-4.538,4.736
		c13.079,11.729,19.92,28.738,20.424,46.348c0.266,9.121-1.645,18.234-3.91,26.988c-1.115,4.311-2.684,7.602-4.724,10.471
		c-1.013,1.152-2.086,2.258-3.229,3.305c-11.379,10.41-24.182,15.803-27.63,30.932c-4.985-6.352-1.438-15.146,0.358-23.205
		c0.757-3.393-2.943-5.424-5.365-3.26c-1.022,0.914-2.086,1.668-3.163,2.355c-0.182,0.094-0.356,0.205-0.525,0.34
		c-4.396,2.662-9.194,3.852-14.152,5.693c-0.544,0.199-1.119,0.438-1.706,0.682c8.314-6.393,16.065-14.1,19.027-23.68
		c2.6-8.406,4.982-23.148,0.213-31.055c-2.2-3.646-7.756-0.283-5.545,3.381c0.222,0.367,0.414,0.764,0.592,1.182
		c0.157-0.031,0.332-0.051,0.549-0.076c0.095-0.043,0.193-0.088,0.29-0.133c0.618-0.275,1.376-0.094,1.571,0.67
		c0.061,0.24,0.098,0.471,0.145,0.705c0.5,1.299,0.884,2.646,1.138,4.037c0.353,1.301,0.471,2.646,0.429,4.012
		c0.323,9.607-3.911,20.24-8.865,27.391c-4.202,6.061-9.386,11.877-15.362,16.393c2.225,0.299,4.448,0.775,6.746,0.553
		c5.665-0.551,10.584-2.701,15.27-6.02c0.696-0.494,1.591,0.168,1.608,0.965c0.188,8.213-0.291,15.443,4.446,22.547
		c2.589,3.883,5,7.508,5.185,12.35c0,0.014-0.007,0.025-0.007,0.041c0.5-0.365,0.934-0.832,1.197-1.41
		c-0.15-0.229-0.207-0.527-0.083-0.883c1.975-5.674,0.225-11.914,3.319-17.285c2.712-4.699,6.242-8.793,10.329-12.24
		C417.989,612.88,419.485,611.911,421.078,610.974z"/>
	<path fill-rule="evenodd" clip-rule="evenodd" stroke="#000000" stroke-width="4" stroke-miterlimit="10" d="M163.864,672.806
		c-2.35-3.465-4.808-5.998-5.79-10.363c-0.962-4.27-1.013-8.76-1.811-13.074c-0.376-2.029-0.922-4.021-1.477-6.012
		c0.061,0.918,0.124,1.807,0.207,2.598c0.256,2.432,0.46,5.104,0.735,7.822c0.462,2.053,0.918,4.107,1.29,6.174
		c0.399,2.221,0.708,4.48,1.298,6.633c0.754,1.996,1.71,3.848,2.974,5.438c0.106,0.135,0.136,0.277,0.176,0.416
		c0.212,0.18,0.372,0.443,0.405,0.791c0.017,0.168-0.021,0.312-0.031,0.471c0.059,0.076,0.121,0.15,0.177,0.232
		C162.808,675.097,164.666,673.983,163.864,672.806z"/>
	<path fill-rule="evenodd" clip-rule="evenodd" stroke="#000000" stroke-width="4" stroke-miterlimit="10" d="M325.774,600.94
		c-0.623-0.291-1.265-0.523-1.908-0.75c-4.296,0.32-9.436-0.664-12.87-1.764c-5.729-1.84-11.012-5.828-15.356-10.094
		c-2.833-2.779-5.243-5.871-7.45-9.137c-3.574-5.914-7.117-11.922-3.798-19.098c2.977-6.436,10.266-10.07,16.19-12.846
		c0.125-0.061,0.187-0.15,0.289-0.221c1.875,1.531,4.504-1.371,2.73-3.381c-0.936-1.059-2.019-1.955-2.996-2.977
		c-0.369-0.387-0.649-0.826-0.901-1.279c-0.012-0.07,0.007-0.129-0.012-0.203c-1.31-5.109-1.064-10.748,0.177-16.207
		c0.101-0.594,0.224-1.186,0.379-1.764c1.158-4.271,2.66-8.346,4.616-12.287c3.081-6.213,7.705-14.088,12.778-18.789
		c0.306-0.285,0.721-0.33,1.085-0.213c0.084-0.031,0.173-0.066,0.261-0.084c0.346-0.191,0.688-0.342,1.011-0.396
		c2.722-0.43,1.561-4.73-1.137-4.303c-5.39,0.85-11.753,13.557-14.723,17.803c-6.272,8.965-10.676,21.693-9.341,33.16
		c-0.342,0.188-0.684,0.336-1.026,0.494c-0.068-0.219-0.208-0.393-0.403-0.498c-0.319,0.273-0.664,0.537-1.075,0.771
		c-2.364,1.357-5.531,1.057-8.218-0.037c-3.193-0.711-5.343-2.455-7.736-5.182c-4.731-5.398-11.748-6.816-18.552-5.932
		c-13.016,1.691-25.877,11.148-35.576,19.965c-5.171,4.699-10.029,9.84-14.103,15.615c-4.121,5.844-7.36,12.258-11.534,18.062
		c-2.099,2.916-4.278,5.811-6.489,8.68c-1.615,2.588-3.396,5.027-5.44,7.18c-1.454,2.275-3.06,4.396-4.947,5.938
		c-3.703,3.031-6.565,2.602-11.059,2.916c-7.219,0.5-15.528,2.795-19.746,9.523c-1.494,2.383-2.261,5.24-3.173,7.951
		c-0.318-0.074-0.646-0.127-0.975-0.148c-1.638-0.109-3.303,0.293-4.585,1.385c-1.244,1.064-1.546,3.039-0.865,4.512
		c0.786,1.695,2.518,2.443,4.251,2.371c1.375-0.059,1.38-2.291,0-2.234c-0.85,0.035-1.717-0.127-2.225-0.91
		c-0.108-0.168-0.178-0.35-0.215-0.529c-0.017-0.035-0.04-0.061-0.049-0.096c-0.051-0.094-0.117-0.176-0.148-0.281
		c-0.228-0.75,0.137-1.324,0.674-1.689c0.667-0.824,1.821-1.078,3.032-0.959c0.352,0.035,0.767,0.18,0.924,0.553
		c0.451,1.066,0.815,2.391-0.103,3.32c-0.148,0.148-0.322,0.256-0.505,0.346c0.172,0.166,0.329,0.352,0.531,0.473
		c0.172,0.371,0.432,0.736,0.807,1.072c0.573,0.512,1.176,0.961,1.78,1.402c-0.001,0.203,0.09,0.41,0.25,0.6
		c0.072-0.123,0.131-0.256,0.208-0.373c0.334-0.52,0.926-0.701,1.463-0.402c0.542,0.303,0.784,0.482,1.037,0.795
		c0.611,0.541,1.108,1.191,1.53,1.912c4.487,1.945,9.453,2.539,14.381,2.148c0.052-0.027,0.089-0.064,0.152-0.082
		c11.42-3.404,23.956-15.281,12.635-27.027c-0.419-0.438-0.403-1.143,0-1.58c4.935-5.363,10.722-9.814,15.881-14.98
		c1.473-2.305,2.869-4.67,4.247-7.049c6.981-12.047,15.105-22.648,24.616-32.611c9.221-9.66,22.564-20.35,36.067-21.436
		c15.875-1.273,18.287,17.32,17.214,29.449c-0.024-0.012-0.048-0.02-0.075-0.031v1.385c0,0.689-0.637,1.227-1.283,1.08
		c-0.252,0.021-0.505-0.045-0.723-0.188c-15.755-4.688-36.671-4.895-44.767,13.033c-5.238,11.6-5.366,26.939,3.006,36.129
		c0.441,0.361,0.872,0.729,1.357,1.062c4.178,2.881,9.166,4.689,14.442,5.594c0.143-0.078,0.303-0.133,0.502-0.133
		c0.343,0,0.6,0.137,0.771,0.344c1.779,0.252,3.583,0.412,5.396,0.467c0.037-0.035,0.081-0.055,0.121-0.084
		c0.069-0.336,0.289-0.623,0.74-0.686c7.972-1.141,21.428-2.189,27.417-9.439c-0.109-0.504-0.309-0.994-0.601-1.416
		c-2.666,2.242-6.299,3.016-9.659,3.85c-6.471,1.605-12.987,1.852-19.618,1.787c-10.284-0.1-20.062-3.471-23.222-14.834
		c-2.456-8.832-0.87-19.695,5.802-26.225c3.878-3.793,8.91-6.467,14.17-7.412c3.925-0.703,8.433-1.703,12.5-1.043
		c5.556,0.238,10.926,1.662,14.599,4.578c0.644,6.197,4.8,12.059,7.811,17.371c0.53,0.93,1.381,1.191,2.163,1.025
		c1.165,2.779,2.503,5.428,4.37,7.678c5.545,6.684,12.154,9.941,20.34,11.742c4.428,0.975,12.294,0.58,11.891,7.088
		c-0.513,8.283-4.378,14.967-10.945,19.51c-3.985,2.76-8.557,4.021-13.293,4.33c-3.072,0.42-6.115,0.391-8.412,0.088
		c-12.357-1.635-28.014-5.811-36.32-16.254c-0.21-0.266-0.279-0.562-0.255-0.842c-1.479,0.238-2.476,1.479-2.814,2.811
		c0.75,1.301,1.541,2.576,2.468,3.791c0.255,0.197,0.519,0.574,0.788,1.018c0.892,1.012,1.768,2.023,2.589,3.082
		c2.681,1.928,5.5,3.328,8.527,4.693c7.872,3.551,15.493,7.021,24.171,7.859c12.279,1.189,26.785-1.26,34.267-12.812
		C330.938,621.804,336.493,605.97,325.774,600.94z M181.087,615.368c7.191,10.748-25.07,21.836-31.777,9.289
		c-0.154-0.287-0.148-0.557-0.08-0.803c-0.019-0.148-0.024-0.295-0.005-0.449c-0.314-1.951,1.224-4.883,1.764-6.281
		c1.551-4.02,4.433-6.666,8.165-8.389C166.331,605.417,176.678,608.78,181.087,615.368z M280.394,557.927
		c-0.058-0.848-0.047-1.693-0.006-2.537c-0.019-0.35-0.035-0.682-0.057-1.039c-0.016-0.281,0.067-0.49,0.188-0.66
		c0.166-1.855,0.39-3.709,0.357-5.582c-0.041-2.445-0.109-4.883-0.099-7.324c4.965,1.549,9.905,2.162,14.773-0.094
		c0.388,0.838,0.801,1.652,1.403,2.402c0.204,0.254,0.446,0.463,0.665,0.697c-6.944,3.342-13.372,7.604-17.118,14.688
		C280.459,558.296,280.41,558.118,280.394,557.927z"/>
	<path fill-rule="evenodd" clip-rule="evenodd" d="M165.682,614.144c-5.202-0.08-10.312,2.324-13.16,6.875
		c-0.222,0.355-0.203,0.693-0.072,0.977c2.32,8.32,20.473,6.465,20.473-2.059c0.015-0.059,0.044-0.104,0.05-0.168
		C173.38,615.396,169.081,614.196,165.682,614.144z M154.667,621.728c2.304-3.35,5.649-4.627,9.495-5.209
		c1.992-0.303,5.718-0.293,6.516,1.971l-0.066,0.07c-0.023,0.023-0.031,0.049-0.045,0.076c0.218,0.447,0.213,0.938,0.062,1.404
		c0.052,0.062,0.092,0.135,0.155,0.182C170.364,625.687,156.801,627.046,154.667,621.728z"/>
	<path fill-rule="evenodd" clip-rule="evenodd" stroke="#000000" stroke-width="4" stroke-miterlimit="10" d="M114.414,657.444
		c-5.87,9.826-11.525,19.398-15.206,30.373c-2.32,6.92-4.266,13.998-6.038,21.129c0.089,0.209,0.131,0.449,0.047,0.732
		c-0.561,1.936-1.103,3.879-1.629,5.824c-1.438,6.137-2.782,12.295-4.139,18.412c-1.217,5.467-2.482,10.971-3.976,16.393
		c-0.443,0.008-0.845,0.172-1.2,0.393c-0.213,0.771-0.451,1.527-0.709,2.281c0.528,1.391-2.65,7.375-3.228,8.869
		c-2.111,5.457-4.245,10.443-7.444,15.342c-5.755,8.805-12.955,16.877-15.463,27.268c0.106,1.803-0.033,3.605-0.115,5.41
		c1.118,0.949,3.455,0.395,3.7-1.662c0.009-0.068,0.025-0.127,0.035-0.193c0.079,0.836,0.549,1.385,1.174,1.631
		c-0.094-2.039,0.072-4.064,0.627-6.035c1.795-6.375,5.993-11.535,10.008-16.551c0.638-1.869,1.394-3.697,2.151-5.525
		c1.395-3.363,2.688-6.74,4.22-10.041c1.596-3.438,3.094-6.904,4.519-10.424c0.753-1.859,1.499-3.748,2.485-5.488
		c0.611-1.078,1.296-2.084,1.829-3.188c3.698-12.912,5.904-26.189,8.808-39.422c2.626-11.971,5.157-24.125,9.684-35.502
		c2.804-7.047,6.731-16.051,13.54-19.973C117.321,656.288,115.383,655.819,114.414,657.444z"/>
	<path fill-rule="evenodd" clip-rule="evenodd" d="M177.731,853.431c-3.167,0.312-6.058-5.516-7.82-10.438
		c0.819-0.201,1.662-0.328,2.526-0.309c1.382,0.029,1.378-2.203,0-2.232c-1.13-0.023-2.214,0.121-3.245,0.408
		c-0.535-1.715-0.884-3.141-0.997-3.881c-0.002-0.012-0.004-0.031-0.007-0.041c0.896-0.062,1.817-0.045,2.645-0.115
		c1.364-0.119,1.375-2.352,0-2.234c-0.989,0.084-2,0.119-2.985,0.215c-0.106-0.678-0.218-1.434-0.327-2.258
		c0.982,0.107,1.926,0.318,2.626,0.467c1.347,0.291,1.921-1.861,0.569-2.152c-0.986-0.215-2.207-0.461-3.452-0.551
		c-0.182-1.898-0.266-3.816-0.071-5.252c-1.12-0.07-2.276,0.627-2.245,2.135c0.021,1.049,0.121,2.102,0.218,3.158
		c-1.334,0.154-2.561,0.604-3.382,1.635c-0.878,1.098,0.629,2.686,1.513,1.578c0.494-0.615,1.256-0.906,2.113-1.021
		c0.119,0.877,0.264,1.75,0.418,2.621c-1.356,0.385-2.56,1.109-3.409,2.631c-0.696,1.246,1.154,2.371,1.848,1.127
		c0.482-0.865,1.183-1.348,1.98-1.625c0.303,1.455,0.654,2.893,1.024,4.314c-1.338,0.695-2.534,1.691-3.515,3.025
		c-0.842,1.139,1.02,2.25,1.847,1.125c0.627-0.854,1.415-1.453,2.259-1.938c0.011,0.037,0.021,0.076,0.031,0.117
		c1.164,4.051,3.128,10.609,7.722,11.645c1.438,0.328,2.398-0.754,2.596-1.926C178.028,853.614,177.856,853.546,177.731,853.431z"/>
	<path fill-rule="evenodd" clip-rule="evenodd" d="M55.796,800.192c-0.716,0.727-1.6,1.197-2.808,1.164
		c-1.449-0.035-3.027-0.762-4.329-1.754c-0.161-0.016-0.319-0.043-0.479-0.049c-1.291-0.055-1.354,1.867-0.236,2.172
		c0.051-0.049,0.086-0.105,0.143-0.148c1.333-1.049,2.592,0.367,3.931,0.93c0.424,0.082,0.848,0.139,1.275,0.16
		c0.211-0.045,0.42-0.105,0.637-0.246c0.184-0.123,0.343-0.078,0.48,0.008c0.026-0.023,0.055-0.031,0.08-0.059
		c0.234-0.271,0.542-0.186,0.734,0.031c0.11-0.035,0.219-0.049,0.33-0.098C56.503,801.913,56.433,800.601,55.796,800.192z"/>
	<path fill-rule="evenodd" clip-rule="evenodd" d="M35.622,816.44c0.282-0.217,0.583-0.404,0.905-0.555
		c0.571-0.752,0.017-2.148-1.068-1.777c-9.166,3.137-7.53,16.84-6.232,24.545c0.194,1.152,1.573,0.957,1.964,0.094
		c-0.225-1.691-0.422-3.387-0.541-5.084C29.889,827.2,29.912,818.786,35.622,816.44z"/>
</g>
</svg>
