<?xml version="1.0" encoding="utf-8"?>
<!-- Generator: Adobe Illustrator 16.0.0, SVG Export Plug-In . SVG Version: 6.00 Build 0)  -->
<!DOCTYPE svg PUBLIC "-//W3C//DTD SVG 1.0//EN" "http://www.w3.org/TR/2001/REC-SVG-20010904/DTD/svg10.dtd">
<svg version="1.0" xmlns="http://www.w3.org/2000/svg" xmlns:xlink="http://www.w3.org/1999/xlink" x="0px" y="0px" width="640px"
	 height="960px" viewBox="0 0 640 960" enable-background="new 0 0 640 960" xml:space="preserve">
<g id="scene_4_xA0_Image_1_">
	<path d="M-16.12,699.142c-0.963,0.585-2.073,0.944-3.264,0.944h-2.541c-0.13,0.445-0.259,0.891-0.385,1.336
		c-0.009,0.432,0.011,0.868,0.092,1.279c0.429,2.221,7.191,3.021,7.623,1.695c-0.213,0.033-0.417,0.065-0.635,0.101
		c0.485-1.682,0.817-2.93,1.208-4.161c0.125-0.395,0.261-0.786,0.392-1.182C-14.462,699.19-15.292,699.175-16.12,699.142z"/>
	<path d="M183.096,499.988c-1.881-3.819-2.079-7.806-2.006-12.035c0.068-3.971,0.942-7.843,0.881-11.808
		c-0.017-1.089,1.208-2.227,1.121-3.28c-0.25-2.999-0.555-6.071-1.459-8.917c-0.947-2.978-2.594-5.74-3.988-8.57
		c-0.328-0.667-0.852-1.241-1.321-1.83c-0.859-1.081-1.864-2.064-2.593-3.224c-1.741-2.776-3.471-5.53-6.372-7.264
		c-3.771-2.255-4.045-6.674-6.097-9.995c-0.097-0.159-0.021-0.429-0.024-0.648c-0.062-5.006,1.089-9.857,2.312-14.629
		c0.674-2.623,0.932-5.198,0.624-7.75c-0.341-2.808-1.192-5.409-4.718-6.212c-2.517-0.574-3.957-2.93-5.244-5.095
		c-0.297-0.5-0.296-1.304-0.173-1.915c0.75-3.716,1.593-7.409,2.366-11.119c0.198-0.955,0.28-1.938,0.371-2.914
		c0.16-1.716,0.255-3.439,0.44-5.153c0.164-1.489,0.559-2.965,0.601-4.455c0.151-5.502-5.275-8.918-10.391-6.348
		c-0.246,2.629-0.55,5.387-0.75,8.155c-0.202,2.788-0.256,5.587-0.457,8.375c-0.149,2.062-0.512,4.107-0.631,6.17
		c-0.469,8.157-0.908,16.317-1.305,24.478c-0.471,9.672-0.565,19.377-1.46,29.008c-0.458,4.938-0.088,10.005-1.676,14.865
		c-0.438,1.343,0.076,3.007,0.186,4.521c0.077,1.085,0.376,2.179,0.292,3.247c-0.301,3.779-0.42,7.536-0.269,11.345
		c0.183,4.55-0.285,9.126-0.492,13.69c-0.008,0.174-0.237,0.34-0.387,0.542c-1.387,0.13-2.781,0.266-4.053,0.386
		c-0.627,0.535-1.309,0.989-2.026,1.389c-2.848,3.368-4.375,7.245-4.826,11.756c-1.318-0.594-2.269-1.024-3.26-1.475
		c0.595-2.74,0.625-5.346-0.84-7.696c-1.195-1.915-2.483-3.781-3.878-5.551c-2.191-2.781-4.473-5.427-6.307-8.539
		c-2.185-3.709-5.277-6.871-7.887-10.337c-0.957-1.271-1.581-2.792-2.502-4.094c-1.128-1.594-2.304-3.095-4.589-3.235
		c-1.675-0.103-3.325-0.662-4.243-0.858c-0.96-2.114-1.445-3.642-2.295-4.926c-0.85-1.285-2.072-2.321-2.377-4.552
		c3.568,1.929,6.819,3.478,9.444-1.024c-0.479-1.134-0.905-2.48-1.58-3.685c-2.13-3.808-4.116-7.649-5.233-11.92
		c-0.796-3.046-1.3-5.886,2.035-7.857c-2.279-3.503-0.207-6.85-0.735-10.619c1.947,0.27,3.334,0.375,4.681,0.662
		c4.136,0.883,8.251,2.056,12.526,1.648c5.662-0.539,11.46-0.382,15.91-5.21c2.795-3.031,4.188-6.285,4.021-10.289
		c-0.091-2.189-0.877-4.014-3.083-4.966c-0.77-0.332-1.423-0.94-2.368-1.584c0.426-0.301,0.698-0.472,0.948-0.669
		c3.128-2.471,6.325-4.862,9.358-7.446c2.458-2.093,3.401-9.268,1.739-11.93c-0.283-0.45-0.645-0.922-1.088-1.188
		c-1.474-0.887-2.918-1.939-4.523-2.472c-5.366-1.782-10.846-1.978-16.356-0.622c-2.398,0.591-4.793,1.192-7.441,1.851
		c-0.433-1.607-1.047-3.035-1.164-4.504c-0.256-3.221-2.164-5.088-4.711-6.591c-2.969-1.752-6.129-2.704-9.833-2.195
		c-0.302-2.083-0.617-3.887-0.814-5.703c-0.378-3.47-2.682-5.281-5.691-5.9c-3.585-0.739-7.267-1.025-10.947-0.064
		c-5.148,1.344-9.195,3.963-10.904,9.268c-0.729,2.267-1.132,4.65-1.558,7.002c-0.573,3.159-1.023,6.341-1.618,10.086
		c-1.276-1.471-2.145-2.54-3.083-3.542c-5.873-6.284-12.424-11.404-20.985-13.636c-6.759-1.762-10.897,0.485-13.551,6.158
		c-0.54,1.158-1.1,2.304-1.695,3.55c-5.81-0.317-10.572,1.632-14.957,5.697c-5.578,5.172-7.205,11.195-5.739,18.301
		c0.85,4.112,3.463,7.451,5.634,10.927c0.805,1.286,1.181,2.354,1.01,3.874c-0.45,3.982-0.062,7.823,2.599,11.123
		c0.608,0.752,1.076,1.658,1.433,2.564c1.326,3.366,4.125,4.373,7.308,4.441c6.631,0.143,12.155-2.714,17.068-6.911
		c1.891-1.615,3.611-3.431,6.244-4.367c-0.101,2.588-0.134,4.88-2.201,6.692c-0.839,0.736-1.342,1.967-1.76,3.064
		c-1.796,4.689-3.117,9.481-3.581,14.535c-0.29,3.146,0.009,6.066,1.317,8.908c1.04,2.262,2.063,4.531,3.084,6.773
		c-0.224,0.364-0.356,0.671-0.566,0.91c-4.792,5.477-7.354,11.678-6.235,19.113c0.093,0.619-0.158,1.284-0.222,1.931
		c-0.139,1.41-0.278,2.821-0.388,4.234c-0.46,5.96-0.75,11.938-1.397,17.878c-1.136,10.393-2.519,20.756-3.739,31.139
		c-1.155,9.841-2.2,19.695-3.368,29.536c-0.264,2.21-1.044,4.31-0.833,6.643c0.182,2.006,0.11,4.192-0.51,6.081
		c-1.169,3.562-1.891,7.276-3.76,10.634c-1.369,2.456-2.09,5.266-3.265,7.844c-3.066,6.735-6.133,13.475-9.378,20.124
		c-1.962,4.021-4.004,7.95-4.701,12.462c-0.828,5.349,0.95,9.299,5.609,11.913c1.659,0.932,3.298,1.901,5.343,3.079
		c-0.062,0.025-0.113,0.044-0.173,0.069c4.229,2.578,6.428,7.659,8.737,11.995c0.528,0.991,0.784,2.058,0.836,3.118
		c0.196-0.06,0.384-0.113,0.58-0.171c0.603,1.1,2.022,1.539,3.676,1.784c2.651,0.39,5.256,1.091,7.898,1.566
		c1.27,0.229,2.578,0.337,3.868,0.343c7.386,0.036,14.774,0.036,22.159,0.019c1.162-0.002,1.991,0.371,2.809,1.281
		c1.65,1.832,2.491,3.524,2.532,5.325c1.505,0.227,3.004,0.492,4.486,0.84c0.07-2.401-0.344-4.788-1.493-7.223h8.657
		c2.525,3.347,1.999,6.567,0.778,9.844c0.757,0.323,1.517,0.639,2.265,1.012c1.6,0.794,3.112,1.687,4.59,2.625
		c0.748-0.733,1.513-1.454,2.282-2.169c0.663-0.938,1.296-1.873,1.874-2.838c1.647-2.748-0.17-5.654-0.28-8.251
		c4.683-0.367,9.084-0.893,13.496-0.979c2.006-0.04,3.406-0.601,4.298-2.258c0.758-1.416,1.469-2.908,1.87-4.45
		c1.019-3.933,1.854-7.912,2.892-12.433c3.672,6,8.505,8.409,15.091,7.101c-0.141,0.711-0.189,1.122-0.305,1.514
		c-0.615,2.069-1.581,4.093-1.816,6.202c-0.863,7.76,0.651,15.212,3.582,22.371c0.949,2.316,1.069,4.327-0.422,6.458
		c-0.796,1.141-1.394,2.501-1.747,3.85c-0.87,3.311,0.279,5.006,3.324,6.428c3.714,1.73,7.128,0.888,10.687-0.393
		c6.914-2.493,12.426-7.089,17.771-11.885c3.603-3.232,4.543-7.814,5.195-12.384c0.187-1.312-0.163-2.677-1.549-3.344
		c-1.366-0.66-2.147,0.362-3.096,1.12c-2.96,2.365-5.979,4.661-9.008,6.938c-1.212,0.912-2.52,1.681-4.291,1.308
		c-0.532-3.286-0.832-6.462,0.247-9.694c1.688-5.057,3.33-10.133,4.751-15.269c0.599-2.161,0.77-4.489,0.82-6.749
		c0.159-7.049,0.333-5.612-4.168-9.783c7.221-5.909,10.255-13.924,10.814-22.915c0.278-4.448-1.307-8.411-5.812-10.436
		c-2.255-1.017-4.522-2-6.878-3.04c-0.583-1.912-1.238-4.06-1.89-6.196c1.252-0.254,2.733-0.112,3.467-0.787
		c2.135-1.969,4.295-4.06,5.853-6.489c2.468-3.848,2.943-8.14,1.053-12.478c-2.412-5.541-6.668-9.396-11.755-12.291
		c-3.305-1.881-6.889-3.263-10.488-4.933c4.833-3.685,8.838-8.058,12.103-13.152c1.603-2.501,2.236-5.146,2.267-8.046
		c0.054-4.978-0.833-9.705-3.471-13.856c2.575-1.124,5.175-1.934,7.412-3.333c2.064-1.29,3.985-3.016,5.496-4.926
		c1.008-1.273,1.37-3.176,1.693-4.859c0.315-1.638,0.536-3.311,0.632-4.982c-1.393-3.518-4.794-6.461-8.363-7.138
		c-0.062-0.015-0.102-0.041-0.15-0.062c-0.177,0.006-0.349,0.011-0.513,0.012c-0.643,0.007-1.282,0.393-2.429,0.774
		c0.27-6.085,0.649-11.713,0.736-17.349c0.127-8.185,0.017-16.374,0.059-24.561c0.028-5.236,0.042-10.477,0.261-15.706
		c0.204-4.891,0.627-9.772,1.036-14.65c0.347-4.109,0.887-8.202,1.204-12.313c0.438-5.641,1.414-11.255,0.91-16.949
		c-0.209-2.375-0.637-4.761-0.546-7.126c0.204-5.359,1.703-10.646,0.513-16.407c0.82,0.336,1.235,0.428,1.562,0.652
		c3.457,2.369,5.129,9.064,3.081,13.353c-2.007,4.202-2.771,8.671-3.223,13.194c-0.512,5.13,2.484,9.373,7.42,10.339
		c1.488,0.292,2.236,0.939,2.5,2.032c0.418,1.745,0.782,3.621,0.58,5.373c-0.442,3.849-1.294,7.646-1.888,11.48
		c-0.229,1.485,0.14,3.143-0.373,4.488c-1.162,3.049-0.587,6.01,0.012,8.962c0.217,1.071,0.986,2.183,1.804,2.949
		c2.133,1.993,4.479,3.751,6.64,5.716c0.932,0.847,1.719,1.902,2.384,2.979c1.129,1.827,2.123,3.739,3.149,5.627
		c1.503,2.766,2.846,5.632,4.524,8.285c1.282,2.029,1.982,4.154,1.89,6.467c-0.221,5.42-0.245,10.887-1.021,16.236
		c-0.771,5.303-0.099,10.156,2.323,14.832c0.244,0.473,0.806,0.776,1.26,1.195c0.269-0.421,0.464-0.59,0.479-0.774
		C183.195,500.848,183.271,500.346,183.096,499.988z M140.548,495.578v2.628c0.087,0.021,0.162,0.07,0.237,0.12
		c-0.003,0.366-0.008,0.733-0.009,1.1c0,0.056,0.019,0.1,0.029,0.151c-0.112,0.063-0.225,0.124-0.339,0.189
		c-0.075,0.004-0.13-0.013-0.197-0.017c-0.214,0.086-0.427,0.134-0.628,0.12c-0.102,0.007-0.205-0.017-0.308-0.07
		c-0.521-0.181-0.932-0.695-1.065-1.451c-0.195-1.105,0.074-2.323,0.785-3.19c0.038-0.099,0.077-0.202,0.117-0.293
		c0.123-0.288,0.349-0.378,0.573-0.352c0.005-0.002,0.007-0.005,0.01-0.008C140.445,494.061,141.07,495.06,140.548,495.578z
		 M94.004,442.406c1.5,3.232,3.419,6.271,5.303,9.659c-3.421,2.823-7.024-0.296-10.874,0.708c1.301,2.102,2.344,3.787,3.395,5.481
		c-2.858,0.389-4.029-0.313-5.472-3.366c-0.988,0.504-1.972,1.007-3.166,1.615c3.404,1.637,6.553,3.151,9.938,4.781
		c-0.823,0.227-1.814,0.858-2.328,0.583c-3.751-1.999-7.964-1.695-11.92-2.616c-1.438-0.334-3.06-0.097-4.159-1.462
		c-0.167-0.208-0.618-0.331-0.899-0.279c-3.291,0.602-5.176-2.127-7.684-3.324c-1.867-0.888-3.314-2.364-3.711-4.667
		c-0.151-0.878-0.917-1.647-1.495-2.623c2.832-3.993,5.665-8.096,6.071-13.325c7.974,0.072,15.682,1.103,23.125-1.313
		C91.475,435.841,92.527,439.222,94.004,442.406z M66.071,425.274c-1.099-0.482-2.264-0.438-3.291-0.748
		c-5.235-1.578-10.851-2.009-15.682-4.812c1.083-4.325,4.965-6.996,9.001-6.251c1.487,0.274,2.919,0.842,4.403,1.155
		c2.428,0.514,4.869,1.255,7.318,1.309c3.821,0.086,7.043,1.63,10.411,3.113c2.021,0.89,4.359,1.222,6.589,1.418
		c2.684,0.234,5.404,0.054,8.107,0.054c0.16,0.263,0.318,0.524,0.479,0.786c-0.699,0.675-1.287,1.575-2.113,1.987
		c-3.754,1.87-7.823,2.538-11.966,2.667c-3.258,0.103-6.521,0.076-9.778-0.01C68.376,425.912,67.13,425.738,66.071,425.274z
		 M127.965,410.443c-2.1,0.654-3.396,1.221-4.745,1.451c-6.577,1.119-13.094,1.028-19.59-0.793
		c-1.964-0.549-4.135-0.355-6.343-0.512c0.318-0.785,1.378-1.226,2.364-1.69c3.445-1.619,7.019-2.87,10.819-3.269
		c2.887-0.302,5.789-0.506,8.691-0.623c2.355-0.094,4.476,0.801,6.283,2.25C126.294,407.938,126.844,408.995,127.965,410.443z
		 M123.125,382.722c3.029,0.006,5.934,0.877,8.545,2.528c-3.726,5.35-9.513,6.423-15.06,7.609c-4.898,1.047-9.617,2.429-14.17,4.492
		c-3.337,1.514-6.827,2.726-10.052,4.446c-1.961,1.046-3.58,2.763-5.29,4.251c-1.63,1.419-3.219,2.893-4.749,4.421
		c-1.128,1.127-2.058,0.749-3.064-0.023c0.099-0.333,0.111-0.578,0.229-0.745c3.588-5.04,7.257-10.022,10.758-15.124
		c2.327-3.387,5.653-5.252,9.236-6.858C107.027,384.349,114.923,382.71,123.125,382.722z M96.252,372.048
		c1.98,0.177,3.999,0.944,5.8,1.845c2.342,1.171,2.331,3.972,0.131,5.416c-1.271,0.833-2.547,1.75-3.954,2.259
		c-2.682,0.97-4.573,2.801-6.315,4.946c-3.566,4.388-7.248,8.666-10.132,13.592c-1.24,2.119-3.115,3.862-5.049,6.196
		c-0.652-1.309-1.286-2.219-1.577-3.229c-1.375-4.775-1.472-9.62-0.58-14.502c0.918-5.022,4.274-8.4,7.683-11.8
		C86.185,372.859,90.978,371.579,96.252,372.048z M67.064,378.7c0.449-3.441,0.982-6.886,1.75-10.27
		c0.8-3.536,3.201-5.846,6.462-7.251c3.551-1.532,7.216-1.293,10.855-0.468c1.83,0.417,2.021,0.769,3.079,2.824
		c-11.506,4.768-18.861,12.706-19.533,26.528c-0.89-2.939-1.66-5.195-2.237-7.5C67.128,381.317,66.899,379.955,67.064,378.7z
		 M39.995,367.513c7.833,1.237,13.965,4.835,18.595,11.695c4.353,6.45,6.603,13.551,8.738,20.849
		c-7.515-6.605-16.622-9.466-25.776-12.226c-1.14-0.346-2.285-0.743-3.456-0.907c-4.812-0.67-7.002-3.807-7.969-8.239
		C28.73,372.286,31.823,366.223,39.995,367.513z M10.829,398.155c-2.265,0.057-3.131-0.987-3.12-3.231
		c0.02-3.48,0.852-6.702,3.211-9.37c1.151-1.299,2.397-2.514,3.544-3.818c2.796-3.185,6.511-3.514,10.286-3.635
		c3.407,5.433,5.475,11.215,10.975,15.115c-0.98,0.19-1.532,0.384-2.086,0.393c-5.739,0.087-11.017,2.182-16.441,3.678
		C15.146,397.853,12.961,398.101,10.829,398.155z M34.362,410.933c-2.306,2.061-4.788,3.697-7.411,5.245
		c-3.187,1.881-6.606,1.993-10.073,1.514c-3.037-0.42-3.817-1.695-2.546-4.511c1.437-3.184,3.561-5.794,7.114-7.021
		c6.283-2.168,12.688-3.61,19.339-3.747c1.668-0.035,3.344,0.313,5.017,0.486C41.453,404.968,37.798,407.862,34.362,410.933z
		 M46.147,425.048c5.856,1.727,11.418,3.366,17.326,5.108c-0.475,1.716-0.801,3.517-1.471,5.179
		c-1.862,4.622-4.86,8.435-8.78,11.471c-0.817,0.632-2.02,0.742-2.904,1.311c-2.167,1.39-4.253,2.906-6.373,4.373
		C38.771,443.534,39.827,430.714,46.147,425.048z M20.314,634.856c-3.377,2.049-7.653-0.628-8.046-4.652
		c-0.367-3.734,0.661-7.272,2.334-10.4c5.253-9.828,8.896-20.287,12.605-30.738c0.108-0.309,0.269-0.597,0.635-1.396
		c2.41,0.313,4.726,0.614,7.333,0.953c-0.736,2.554-1.485,4.801-2.027,7.096c-1.856,7.822-3.604,15.668-5.463,23.488
		c-0.804,3.381-1.859,6.7-2.66,10.085C24.382,631.992,22.359,633.618,20.314,634.856z M45.718,618.935
		c1.569,4.148,2.832,8.429,3.975,12.721c0.486,1.817,0.343,3.808,0.521,6.172c-6.449-0.129-12.007-1.085-17.652-3.418
		c0.662-2.586,1.284-4.964,1.881-7.35c1.792-7.167,3.428-14.378,5.41-21.494c1.191-4.282,2.919-8.407,4.393-12.608
		c0.25-0.714,0.465-1.443,0.655-2.179c0.646-2.492,0.639-2.494,3.705-2.663c0.897,1.966,0.168,4.004,0.086,6.002
		c-0.093,2.167-0.159,4.343-0.45,6.482c-0.29,2.133-0.787,4.244-1.301,6.34c-0.413,1.686-1.007,3.324-1.487,4.997
		C44.777,614.292,44.806,616.522,45.718,618.935z M101.462,635.963c-0.643,3.639-1.615,7.221-2.49,10.818
		c-0.604,2.479-1.701,4.376-4.69,4.494c-2.691,0.105-5.368,0.714-8.055,0.756c-10.096,0.161-20.196,0.104-30.292,0.277
		c-7.576,0.132-15.149,0.494-22.723,0.752c-2.711-3.854-5.145-7.315-7.73-10.991c0.952-0.353,1.897-0.703,2.844-1.056
		c4.723,2.762,9.691,4.381,15.139,4.628c4.178,0.187,7.862-1.398,11.48-3.008c1.332-0.591,2.085-2.5,3.404-4.196
		c0.321,0.084,1.121,0.268,1.912,0.493c2.592,0.74,5.117,1.167,7.927,1c7.037-0.42,13.574-2.646,20.187-4.696
		c3.001-0.932,4.785-3.25,6.383-5.967h7.492C103.046,631.66,101.842,633.804,101.462,635.963z M54.881,587.379
		c4.093-1.028,8.033-2.021,12.189-3.065c1.189,3.249,2.3,6.41,3.508,9.535c0.588,1.52,1.102,3.175,2.086,4.418
		c4.82,6.088,7.528,13.204,10.158,20.37c0.821,2.236,1.588,4.49,2.356,6.748c0.611,1.798-0.08,3.399-0.728,5.042
		c-0.732,1.854-2.121,2.143-3.894,2.251c-2.798,0.175-5.624,1.134-8.354,0.877c-3.059-0.29-6.06-1.469-9.023-2.452
		c-1.278-0.425-2.467-1.237-3.566-2.052c-0.553-0.406-0.944-1.163-1.188-1.843c-1.696-4.704-3.622-9.346-3.748-14.481
		c-0.03-1.279-0.628-2.533-0.785-3.822c-0.125-1.043-0.044-2.127,0.069-3.178c0.265-2.48,0.773-4.941,0.879-7.423
		C54.993,594.712,54.881,591.107,54.881,587.379z M96.252,622.399c-0.864-0.411-1.67-1.353-2.082-2.245
		c-0.998-2.168-1.815-4.433-2.588-6.699c-1.944-5.704-4.735-10.946-7.86-16.095c-3.107-5.117-5.004-10.824-6.399-16.83
		c2.909-1.191,5.646-2.129,8.214-3.41c2.599-1.295,5.033-2.93,7.85-4.6c2.09,5.217,3.833,10.036,5.933,14.689
		c2.33,5.159,4.783,10.292,7.581,15.206c1.589,2.794,3.973,5.134,6.005,7.671c0.544,0.678,1.123,1.33,1.668,2.005
		c2.992,3.721,2.03,8.299-2.213,10.555c-0.384,0.205-0.765,0.453-1.177,0.558C106.124,624.508,101.091,624.693,96.252,622.399z
		 M103.535,568.018c6.176,5.673,12.414,10.848,19.029,15.533c2.997,2.123,6.532,3.469,9.042,6.313
		c0.288,0.328,0.627,0.608,0.91,0.938c3.704,4.319,3.45,8.351-1.009,11.837c-1.862,1.455-4.039,2.566-6.198,3.561
		c-2.146,0.987-3.914,0.458-5.475-1.413c-0.969-1.162-1.865-2.429-2.563-3.768c-5.038-9.659-9.806-19.438-13.054-29.888
		C103.903,570.12,103.759,569.054,103.535,568.018z M145.646,646.984c-1.907,6.132-3.685,12.325-6.009,18.299
		c-1.727,4.438-1.198,8.774-0.706,13.19c0.18,1.613,3.082,2.927,5.427,2.591c2.789-0.401,5.048-1.867,7.092-3.753
		c1.882-1.733,3.825-3.404,5.741-5.106l0.442,0.337c-0.372,0.714-0.614,1.549-1.139,2.117c-5.498,5.971-11.917,10.399-20.084,11.763
		c-0.816,0.137-1.725,0.127-2.517-0.091c-1.944-0.525-2.47-1.791-1.688-3.675c0.662-1.598,1.347-3.188,1.975-4.799
		c0.865-2.224,0.926-4.427-0.075-6.664c-2.941-6.587-4.046-13.532-3.744-20.71c0.157-3.754,1.289-6.953,4.934-8.898
		c1.992-1.062,3.743-2.601,5.548-3.997c2.11-1.629,3.649-1.214,4.62,1.368C146.464,641.604,146.471,644.332,145.646,646.984z
		 M144.62,601.16c2.576-0.069,4.713,1.41,6.725,2.699c1.024,0.657,1.758,2.58,1.75,3.926c-0.05,7.309-2.073,13.925-7.497,19.168
		c-3.9,3.77-7.471,7.957-12.227,10.677c-2.414,1.381-5.066,2.493-7.749,3.213c-4.393,1.179-8.194-0.781-10.223-4.858
		c-1.25-2.518-2.425-5.075-3.64-7.624c2.66-0.837,5.097-1.673,7.571-2.366c4.683-1.311,8.661-6.589,6.727-12.298
		c-0.233-0.685-0.149-1.479-0.234-2.486C133.473,610.06,139.756,607.048,144.62,601.16z M141.959,568.821
		c3.519,4.247,2,12.347-2.766,14.886c-0.579,0.308-1.67,0.051-2.346-0.294c-5.64-2.88-10.498-6.859-15.17-11.088
		c-1.85-1.671-3.714-3.331-5.501-5.068c-0.995-0.972-1.843-2.096-2.913-3.328c2.291-1.812,4.225-3.347,6.162-4.872
		c1.546-1.223,3.264-1.587,5.176-1.068C131.47,559.85,137.381,563.3,141.959,568.821z M139.866,525.905
		c-0.067,0.319-0.164,0.65-0.142,0.968c0.456,6.722-3.488,11.401-7.249,16.257c-2.262,2.922-5.482,4.574-8.157,6.93
		c-1.103,0.976-2.934,1.166-4.471,1.57c-0.932,0.245-1.943,0.163-2.903,0.32c-6.155,1.005-12.123-2.808-13.514-8.922
		c-0.31-1.353,0.219-2.966,0.613-4.391c0.268-0.97,0.879-2.033-0.127-2.637c-0.791-0.473-2.013-0.613-2.922-0.391
		c-1.121,0.271-2.177,0.979-3.152,1.66c-2.953,2.063-6.358,2.743-9.798,3.186c-1.116,0.145-2.395-0.233-3.475-0.68
		c-3.005-1.239-6.088-2.4-8.864-4.058c-1.994-1.19-3.735-2.969-5.256-4.769c-4.097-4.858-6.323-10.482-7.046-16.892
		c-0.618-5.498-2-10.908-3.01-16.367c-0.269-1.459-0.407-2.944-0.64-4.674c-1.661,0.292-3.086,0.544-4.867,0.857
		c-0.068,3.48-0.507,6.882-0.116,10.182c0.668,5.616,1.569,11.242,2.943,16.717c0.778,3.11,2.507,6.035,4.136,8.849
		c1.958,3.381,4.032,6.753,6.506,9.752c1.749,2.123,4.035,4.036,6.466,5.295c3.234,1.673,6.756,3.027,10.309,3.769
		c4.885,1.022,9.325-1.15,13.942-3.274c1.86,5.829,5.899,9.675,12.033,11.946c-7.014,3.478-13.515,6.457-19.782,9.871
		c-8.463,4.612-17.543,7.467-26.767,9.834c-4.585,1.18-9.404,1.674-14.145,1.903c-3.852,0.188-7.764,0.598-11.656-0.501
		c-1.878-0.528-4.057,0.106-6.028-0.222c-1.757-0.294-3.416-1.187-5.354-1.902c-0.158-2.484,0.116-5.003,1.598-7.355
		c-0.417-3.036,2.387-27.269,3.31-35.566c0.554-4.975,0.952-9.968,1.514-14.942c0.805-7.138,1.894-14.25,2.497-21.403
		c0.662-7.877,2-15.719,1.612-23.667c-0.14-2.893,0.711-5.321,2.759-7.403c2.569-2.612,4.856-5.538,7.612-7.921
		c1.394-1.205,3.517-1.642,5.381-2.186c1.547-0.452,3.192-0.723,4.8-0.747c0.973-0.014,2.187,0.332,2.895,0.967
		c3.352,3.003,7.204,5.154,11.349,6.692c2.603,0.965,5.411,1.409,8.151,1.955c2.41,0.483,4.951,0.496,6.823,2.48
		c0.277,0.293,0.727,0.518,1.128,0.579c4.044,0.623,8.097,1.204,11.602,1.718c1.576,1.844,2.874,3.274,4.065,4.788
		c0.992,1.261,1.827,2.647,2.796,3.926c0.85,1.123,1.753,2.209,2.696,3.256c2.965,3.298,6.148,6.418,8.875,9.904
		c1.712,2.19,2.789,4.892,4.086,7.396c0.58,1.117,1,2.32,1.572,3.673c-2.245,0.401-4.579,0.599-6.766,1.271
		c-2.233,0.688-4.322,1.844-6.551,2.827c-0.582-3.308-1.059-6.314-1.65-9.297c-0.728-3.659-2.608-6.658-5.435-9.065
		c-0.415-0.354-0.884-0.688-1.173-1.13c-2.236-3.42-5.892-4.543-9.42-5.741c-2.349-0.794-4.83-1.263-7.286-1.662
		c-5.233-0.852-10.486-1.572-15.737-2.322c-0.734-0.105-1.486-0.078-2.498-0.125v4.263c3.059,0.993,6.127,2.228,9.643,2.565
		c5.69,0.545,11.547,0.952,16.81,3.364c5.987,2.746,10.362,7.167,11.158,14.188c0.526,4.634,0.916,9.284,1.404,14.308
		c1.632-0.71,3.054-1.195,4.339-1.92c5.239-2.962,10.639-4.306,16.498-1.992c0.176,0.069,0.421-0.037,0.766-0.074
		c0.254-0.46,0.542-0.981,0.929-1.682c2.044,2.56,4.136,4.906,7.2,6.071c0.467,0.177,1.01,0.64,1.161,1.088
		C138.833,520.01,140.537,522.692,139.866,525.905z M148.707,494.655c-0.004,0.021-0.007,0.044-0.01,0.064
		c0.057-0.005,0.115,0.005,0.173,0.002c0.118,1.853-0.207,3.754-1.093,5.382c-0.422,0.773,0.752,1.464,1.173,0.69
		c0.986-1.812,1.365-3.871,1.277-5.916c0.524,0.138,1.038,0.366,1.535,0.654c0.006,1.884,0.033,3.744-0.816,5.484
		c-0.385,0.785,0.788,1.479,1.174,0.688c0.818-1.678,0.967-3.397,0.993-5.191c0.51,0.46,0.968,0.99,1.358,1.556
		c-0.031,1.591-0.229,2.959-1.259,4.313c-0.535,0.699,0.647,1.378,1.173,0.688c0.644-0.849,1.007-1.723,1.209-2.647
		c0.243,0.897,0.284,1.805,0.047,2.643c0.056,0.177,0.111,0.344,0.068,0.465c-1.545,4.649-4.308,8.25-8.866,10.255
		c-0.686,0.304-1.43,0.481-2.159,0.675c-1.533,0.409-3.073,0.789-4.937,1.267c0.225,0.119-0.07,0.06-0.1-0.069
		c-0.52-2.169-1.447-4.015-3.602-5.011c-0.37-0.172-0.659-0.57-0.93-0.905c-1.198-1.477-3.25-2.439-3.265-4.645
		c-0.018-3.04,0.004-6.196,1.937-8.737c0.684-0.897,1.587-1.635,2.564-2.414c0.036-0.041,0.063-0.087,0.114-0.124
		c0.223-0.162,0.441-0.33,0.661-0.496c0.085-0.066,0.167-0.132,0.251-0.201c0.002,0.01,0,0.018,0.002,0.024
		c0.492-0.35,1.007-0.651,1.627-0.763c0.631-0.11,0.992,0.571,0.796,1.001c-0.066,0.069-0.128,0.144-0.192,0.22
		c-0.068,0.044-0.146,0.078-0.244,0.098c-0.789,0.138-1.392,0.661-2.01,1.139c-0.073,0.803-0.191,1.604-0.209,2.417
		c-0.003,0.101,0.019,0.189,0.05,0.266c-0.021,0.102-0.048,0.2-0.053,0.301c-0.036,0.945,0.054,2.014,0.464,2.84
		c0.978,1.951,3.559,1.744,5.045-0.365c0.936-1.334,1.985-2.646,2.59-4.13C145.919,494.526,147.019,494.566,148.707,494.655z"/>
	<path fill-rule="evenodd" clip-rule="evenodd" d="M-157.714,346.092"/>
	<path fill-rule="evenodd" clip-rule="evenodd" d="M-157.714,290.412"/>
	<path fill-rule="evenodd" clip-rule="evenodd" d="M97.693,510.499c1.145,2.746,0.856,4.983-1.013,7.08
		c-2.602,0.325-4.726-0.984-6.603-2.647c-6.112-5.417-10.472-12.163-13.956-19.47c-0.803-1.682-0.76-3.806-0.931-5.742
		c-0.042-0.479,0.521-1.347,0.947-1.45c0.594-0.144,1.607,0.04,1.942,0.471c1.842,2.385,3.54,4.881,5.271,7.349
		c3.171,4.514,6.025,9.308,10.76,12.441C95.276,509.303,96.565,509.886,97.693,510.499z"/>
	<path fill-rule="evenodd" clip-rule="evenodd" d="M65.363,492.326c2.574,2.187,4.752,3.751,5.796,6.273
		c3.73,9,8.936,16.697,17.922,21.157c2.646,1.316,2.645,4.284,4.412,6.075c-1.488,1.552-2.84,1.55-4.343,0.852
		c-3.81-1.766-7.042-4.303-9.81-7.436c-4.765-5.395-9.001-11.152-12.318-17.594C65.602,498.894,65.89,496.014,65.363,492.326z"/>
	<path fill-rule="evenodd" clip-rule="evenodd" d="M72.793,446.958c1.474,0.076,2.635,0.134,3.908,0.199c0-2.019,0-4.227,0-6.684
		c-0.694,0.105-1.502,0.396-2.254,0.289c-0.575-0.081-1.079-0.667-1.901-1.223c1.299-0.48,2.178-0.654,2.891-1.099
		c3.375-2.104,6.779-1.853,10.193-0.213c0.809,0.388,1.961,0.91,2.141,1.588c0.433,1.611,0.725,3.426,0.397,5.018
		c-0.256,1.244-1.425,2.374-2.368,3.386c-2.629,2.821-8.685,3.28-11.711,0.895C73.555,448.691,73.329,447.875,72.793,446.958z
		 M77.79,446.849c2.02,0.263,3.372,0.481,4.734,0.604c2.155,0.197,2.835-1.599,3.753-2.98c0.926-1.394,0.393-2.915-0.491-3.914
		c-1.343-1.519-3.237-1.861-5.251-1.207C79.663,441.735,78.825,444.022,77.79,446.849z"/>
	<path fill-rule="evenodd" clip-rule="evenodd" d="M-12.989,699.128c-1.051,0.073-2.096,0.06-3.138,0.019
		c-0.961,0.581-2.069,0.939-3.256,0.939h-2.543c-0.454,1.589-0.907,3.178-1.357,4.769c-0.229,0.812-0.922,1.549-1.753,1.793
		c0.533,0.169,1.145,0.196,1.842-0.028c1.911-0.613,3.223-1.524,4.134-2.694c0.845,1.226,2.794,1.659,4.309,0.948
		c0.627-1.925,1.242-3.842,1.858-5.762C-12.925,699.114-12.957,699.124-12.989,699.128z"/>
	<g>
		<path fill="none" stroke="#000000" stroke-width="4" stroke-miterlimit="10" d="M-48.501,716.706
			c0.024-0.05,0.049-0.102,0.074-0.154c9.716-20.091,29.657-34.921,53.924-37.434c36.803-3.819,69.623,22.137,73.299,57.967
			c3.675,35.836-23.181,67.982-59.986,71.798c-36.804,3.816-69.619-22.139-73.294-57.974c-0.62-6.04-0.375-11.975,0.642-17.68
			c0.034-0.202,0.073-0.401,0.11-0.604c0.02-0.093,0.036-0.187,0.054-0.278c0.009-0.051,0.019-0.099,0.028-0.147
			c0.024-0.13,0.05-0.259,0.078-0.391"/>
		<path fill="none" stroke="#000000" stroke-width="6" stroke-miterlimit="10" d="M36.949,743.322
			c-1.129-11.007-11.342-18.963-22.808-17.773c-5.052,0.525-9.5,2.735-12.804,5.984c-10.151-8.718-28.694-12.912-46.979-14.631
			c-0.04-0.004-0.077-0.006-0.116-0.011c-3.925-0.368-7.84-0.624-11.653-0.782c-0.055-0.002-0.108-0.003-0.164-0.006
			c-8.357-0.35-16.205-0.247-22.69,0.086c-2.363,5.369-4.735,10.732-7.13,16.087c7.929-2.335,16.701-2.778,25.611-2.011
			c3.596,0.308,7.215,0.805,10.803,1.449c0.066,0.005,0.129,0.02,0.193,0.032c0.026,0.005,0.049,0.007,0.073,0.013
			c0.053,0.008,0.102,0.015,0.15,0.024c18.245,3.313,35.685,10.202,45.894,14.06c0.007,0.591,0.029,1.187,0.088,1.785
			c1.13,11.008,11.342,18.964,22.811,17.773C29.697,764.215,38.077,754.328,36.949,743.322z"/>
		<path fill="none" stroke="#000000" stroke-width="6" stroke-miterlimit="10" d="M16.609,728.09c0,0,6.84-46.504,7.14-46.453"/>
		<line fill="none" stroke="#000000" stroke-width="6" stroke-miterlimit="10" x1="33.292" y1="738.563" x2="71.522" y2="715.943"/>
		<line fill="none" stroke="#000000" stroke-width="6" stroke-miterlimit="10" x1="32.034" y1="756.123" x2="66.794" y2="783.818"/>
		<line fill="none" stroke="#000000" stroke-width="6" stroke-miterlimit="10" x1="16.008" y1="766.222" x2="18.78" y2="811.367"/>
		<path fill="none" stroke="#000000" stroke-width="6" stroke-miterlimit="10" d="M-2.708,759.017
			c-0.104-0.124-29.539,36.826-29.539,36.826"/>
		<line fill="none" stroke="#000000" stroke-width="6" stroke-miterlimit="10" x1="3.703" y1="729.535" x2="-18.978" y2="689.69"/>
		<path fill="none" stroke="#000000" stroke-width="4" stroke-miterlimit="10" d="M-57.524,715.972
			c10.493-25.565,34.833-44.804,64.834-47.915c11.066-1.148,21.822,0.012,31.771,3.078c0.612,0.189,1.221,0.386,1.828,0.588
			c5.966,2,11.624,4.691,16.86,7.989c19.138,12.047,32.656,32.156,35.107,56.019c2.184,21.281-4.855,41.442-17.952,56.71
			c-0.622,0.723-1.258,1.438-1.907,2.139c-0.257,0.277-0.517,0.556-0.778,0.829c-0.25,0.262-0.501,0.525-0.755,0.785
			c-0.343,0.353-0.691,0.701-1.042,1.047c-0.413,0.403-0.83,0.805-1.251,1.203c-1.194,1.124-2.426,2.213-3.694,3.264
			c-4.548,3.773-9.552,7.061-14.935,9.766c-8.413,4.228-17.748,7.039-27.708,8.072c-42.965,4.455-81.274-25.846-85.566-67.679
			c-0.75-7.312-0.41-14.496,0.891-21.393c0.012-0.07,0.023-0.137,0.038-0.204"/>
	</g>
	<g>
		<path d="M263.238,619.271c0.43-0.313,0.878-0.574,1.344-0.773c0.261-0.141,0.522-0.282,0.785-0.421
			c0.274-0.214,0.542-0.431,0.834-0.623c-0.008-0.065-0.008-0.135-0.021-0.201c-15.266,4.95-23.793,16.121-31.096,30.302
			c-3.363,6.53-6.121,13.326-9.146,20.02c-2.606,5.772-5.261,11.605-6.523,17.812c0.254-0.165,0.485-0.396,0.674-0.715
			c6.326-10.693,11.405-22.046,17.118-33.069c2.719-5.244,5.679-10.349,8.936-15.277c3.242-4.905,8.67-13.357,14.995-15.708
			C261.823,620.14,262.524,619.695,263.238,619.271z"/>
		<path d="M612.157,560.021c-2.153-0.035-5.199-0.218-6.448-2.266c-1.269-1.507-1.09-4.293-0.423-6.248
			c-3.293-0.345-6.259-0.283-9.704,0.778c-2.04,0.631-3.874,0.591-5.799-0.334c-0.233-0.113-0.379-0.277-0.494-0.455
			c-0.382,0.245-0.698,0.59-0.86,0.976c-0.499,1.176,0.116,2.229,1.121,2.816c0.67,0.393,1.396,0.688,2.14,0.863
			c-0.012,0.101-0.002,0.205,0,0.309c-1.208-0.019-1.933,0.911-2.056,1.909c7.268,4.27,17.084,4.848,24.893,1.622
			C613.707,560.027,612.909,560.03,612.157,560.021z M596.3,556.348c0.312-0.498,0.618-1.002,0.885-1.529
			c0.054-0.104,0.085-0.21,0.116-0.321c1.553-0.473,3.114-0.401,4.704-0.211c-0.588,1.636-0.388,3.121,0.279,4.421
			C600.08,558.291,597.98,557.484,596.3,556.348z"/>
		<path d="M635.038,594.744c-0.35-2.086-0.855-4.151-1.491-6.196c-1.166-2.83-2.205-5.732-3.3-8.597
			c-1.66-3.742-3.492-7.385-5.164-10.908c-3.917-8.255-6.325-16.586-8.099-25.307c-2.815-8.098-5.868-19.373-4.216-24.888
			c0.775-4.583,2.636-9.083,2.438-13.817c-0.072-1.71-1.736-2.562-3.212-1.854c-3.741,1.802-6.983,4.339-10.266,6.835
			c-0.026-0.115-0.079-0.217-0.115-0.329c-0.901,0.92-1.896,1.731-3.024,2.487c-0.077,0.051-0.153,0.085-0.23,0.127
			c-1.002,0.805-2.059,1.479-3.212,1.952c0.754-6.959-3.394-14.41-8.382-18.925c-2.438-2.211-5.361-3.675-8.48-4.601
			c-5.366-2.931-11.491-4.889-17.337-3.668c-1.582,0.33-2.001,1.736-1.624,2.94c-0.05,1.034,0.425,2.128,1.624,2.605
			c5.172,2.062,9.163,8.062,11.128,13.638c-1.401-0.513-2.807-1.014-4.217-1.503c-1.453-0.859-2.827-1.706-4.021-2.209
			c-2.592-1.095-5.234-2.042-7.915-2.858c-0.977-0.455-1.96-0.897-2.952-1.3c-7.048-2.856-14.174-5.777-21.795-6.608
			c-8.248-0.9-22.727-2.784-29.001,4.108c-0.299,0.331-0.46,0.685-0.532,1.039c-0.314,0.244-0.538,0.551-0.665,0.895
			c-0.043,0.022-0.085,0.046-0.127,0.066c-0.015,0.008-0.028,0.01-0.041,0.016c-0.053,0.04-0.104,0.08-0.156,0.121
			c11.839-2.418,29.492,1.733,36.141,12.831l0.013,0.019c0.11,0.188,0.226,0.373,0.332,0.565c0.192,0.342,0.381,0.692,0.554,1.072
			c1.067,2.372-1.631,4.491-3.34,3.472c-0.041,0.053-0.069,0.111-0.111,0.16c-0.044-0.018-0.088-0.033-0.132-0.051
			c-9.402-6.656-21.706-10.584-32.974-8.703c-7.206,1.202-14.04,3.505-20.75,6.368c-1.533,0.656-3.406,1.238-5.234,1.951
			c-0.451,0.039-0.818,0.204-1.097,0.451c-1.905,0.823-3.677,1.844-4.848,3.338c4.907,0.208,10.59,2.329,13.953,3.134
			c8.093,1.937,21.812-0.929,28.142,5.934c1.15,1.247,0.784,2.894-0.496,3.85c-1.227,0.912-2.481,1.32-3.817,1.678
			c-0.084,0.053-0.149,0.115-0.244,0.159c-9.564,4.502-19.916,7.147-30.399,8.297c-4.255,0.467-9.51,2.257-14.335,2.335
			c-9.076,1.483-18.413,1.462-27.555,2.148c-1.782,0.133-2.916,2.27-1.508,3.66c4.799,4.737,10.603,7.589,16.956,9.185
			c0.245,0.004,0.505,0.033,0.782,0.131c0.245,0.085,0.491,0.147,0.739,0.229c2.352,0.511,4.772,0.865,7.241,1.085
			c-0.246,0.071-0.495,0.138-0.745,0.204c8.575,1.071,17.228-1.061,25.617-4.1c-1.241,1.238-2.387,2.517-3.42,3.485
			c-2.711,2.553-5.783,4.695-8.894,6.72c-2.399,1.563-5.176,2.465-7.559,3.992c-2.158,0.491-4.334,0.938-6.542,1.282
			c-1.571,0.245-3.317,0.549-5.146,0.837c-4.341,0.917-8.735,1.525-13.191,1.597c-6.712,0.106-13.473-0.536-20.185-0.259
			c-0.07,0.003-0.141,0.006-0.213,0.007c-1.977,0.088-3.95,0.28-5.916,0.574c-0.949,0.727-1.182,2.208-0.255,3.224
			c3.673,4.017,8.423,6.373,13.577,7.761c2.349,1.293,4.789,2.447,7.677,3.111c2.673,0.615,5.404,0.818,8.139,0.745
			c-0.562,0.222-1.127,0.443-1.692,0.649c-2.351,0.854-4.752,2.044-7.218,2.949c-1.671,0.432-3.359,0.806-5.045,0.986
			c-1.574,0.641-3.254,0.777-4.972,1.015c-0.488,0.095-0.984,0.163-1.502,0.184c-0.106,0.006-0.201-0.008-0.3-0.016
			c-9.834,2.419-20.005,3.7-30.573,3.38c-19.888-0.611-39.207-6.641-58.878-9.104c-2.704-0.339-5.292-0.215-7.801,0.187
			c-0.113,0.055-0.225,0.113-0.354,0.151c-4.351,1.392-8.739,2.791-13.019,4.445c-5.454,0.724-10.519,4.117-15.606,6.111
			c-2.956,1.159-5.648,2.532-7.947,4.476c-7.838-10.665-25.274-6.774-34.382-0.362c-12.694,8.938-20.37,24.192-27.152,37.73
			c-7.017,14.006-13.625,28.161-20.217,42.359c-0.38,0.992-0.756,1.982-1.148,2.967c-0.1,0.159-0.208,0.324-0.312,0.483
			c-0.086,0.237-0.19,0.472-0.287,0.708c-0.048,0.13-0.104,0.259-0.156,0.388c-0.063,0.144-0.125,0.289-0.188,0.43
			c-0.69,1.6-1.616,3.106-2.714,4.506c-2.941,3.895-7.022,7.065-11.321,8.843c-0.037,0.018-0.074,0.038-0.114,0.059
			c-7.376,3.555-14.206,5.146-20.874,0.386c-0.124,0.131-0.216,0.283-0.293,0.448c1.105,4.025,4.358,8.249,6.707,10.712
			c3.164,3.322,6.627,5.789,10.977,7.116c0.684,0.066,1.367,0.126,2.035,0.163c2.277,0.004,4.566-0.248,6.835-0.601
			c-0.152,0.214-0.299,0.434-0.456,0.643c-2.054,1.775-4.06,3.391-5.625,4.757c-1.946,1.697-4.134,3.342-6.456,4.732
			c-0.6,0.644-1.289,1.229-2.023,1.766c-2.128,1.2-4.282,2.346-6.475,3.463c-0.034,0.018-0.071,0.031-0.104,0.045
			c-3.497,1.491-6.982,2.513-10.583,2.795c3.851,1.633,7.475,3.663,11.63,4.694c4.735,1.174,9.699,0.682,14.397-0.356
			c11.307-2.495,20.576-10.968,28.733-18.691c4.411-4.172,8.687-8.334,12.5-12.923c3.238-4.222,6.247-8.637,9.399-13.073
			c0.905-1.453,1.7-2.941,2.146-4.314c2.287-4.681,4.386-9.445,6.061-14.371c1.889-5.55,2.809-11.475,4.669-17.003
			c0.031,8.399,1.013,16.875,1.427,25.302c0.483,9.835-1.141,19.016-6.002,27.629c-4.185,7.409-10.859,13.125-14.405,20.904
			c-2.493,5.47-2.41,11.904-3.208,17.752c-1.298,9.501-5.469,18.434-9.864,26.832c-2.749,5.253-7.474,11.429-7.607,17.63
			c-0.15,6.974,6.179,12.514,4.32,19.338c-1.26,4.626-3.756,8.784,0.162,12.708c3.337,3.339,9.24,4.261,13.67,3.493
			c8.117-1.413,7.606-15.971,0.427-18.497c0.455-1.08,0.775-2.265,0.927-3.559c0.623-5.308-0.348-10.479-0.593-15.781
			c-0.283-6.096,2.134-12.52,4.099-18.199c2.161-6.249,4.466-12.451,9.242-17.145c3.166-3.113,6.795-5.434,9.79-8.779
			c2.29-2.557,3.696-5.616,4.79-8.855c0.08-0.054,0.148-0.126,0.219-0.19c0.317-0.935,0.624-1.87,0.884-2.818
			c-0.021-0.117-0.039-0.235-0.071-0.352c1.422-5.038,2.551-10.259,5.31-14.582c9.819-15.404,26.025-25.367,39.109-37.875
			c0.198,0.161,0.436,0.3,0.722,0.392c0.794,0.252,1.574,0.596,2.349,0.976c0.092,0.038,0.179,0.09,0.268,0.141
			c0.391,0.198,0.783,0.389,1.169,0.614c0.327,0.094,0.648,0.284,0.947,0.587c0.291,0.191,0.58,0.372,0.865,0.577
			c-0.031,0.044-0.053,0.094-0.081,0.139c4.295,1.51,7.939,6.9,10.366,10.122c4.92,6.533,6.433,12.744,4.662,20.727
			c-0.012,1.018-0.089,2.045-0.25,3.084c-0.233,1.498-0.556,2.971-0.909,4.437c0.258,0.258,0.367,0.637,0.171,1.101
			c-0.655,1.569-1.249,3.18-1.81,4.807c-0.449,1.455-0.912,2.903-1.376,4.354c-1.156,4.103-1.972,8.317-2.385,12.547
			c0.122-0.382,0.238-0.764,0.37-1.142c-0.174,0.822-0.33,1.645-0.48,2.472c-1.458,4.412-2.357,8.998-3.35,13.538
			c-0.007,0.023-0.004,0.043-0.011,0.069c-0.652,0.65-0.915,1.749-0.129,2.637c7.762,8.801,11.973,19.996,18.169,29.864
			c-0.178,0.7,0.01,1.493,0.792,1.987c1.547,0.974,3.017,2.047,4.447,3.165c2.929,1.473,5.594,3.554,8.42,5.578
			c2.255,1.615,4.148,3.46,5.896,5.408c1.163,0.811,2.181,1.841,3.228,2.82c1.016,0.281,2,0.641,3.089,0.862
			c0.574,0.118,1.126,0.131,1.665,0.094c2.268-1.669,4.777-2.99,7.195-4.44c0.748-0.78,1.473-1.587,2.167-2.414
			c-0.007-0.107-0.003-0.218-0.023-0.324c0.501-0.649,0.858-1.385,0.88-2.239c0.04-1.539-1.369-2.474-2.698-2.765
			c-1.8-0.393-3.628-0.212-5.449-0.078c-0.583-0.479-1.146-0.978-1.665-1.523c-0.06,0.049-0.12,0.089-0.167,0.15
			c-0.386-0.363-0.753-0.725-1.111-1.088c-1.451-1.07-2.616-2.454-3.726-3.901c-1.648-1.324-4.043-3.191-4.809-4.974
			c-0.364-0.305-0.716-0.625-1.034-0.993c-3.044-3.517-5.136-7.648-7.927-11.344c-5.626-7.445-11.187-16.008-10.896-25.79
			c0.375-12.585,6.348-23.321,12.205-34.119c0.776-2.667,1.776-5.276,2.923-7.871c3.069-6.953,5.533-14.021,8.172-21.133
			c0.146-0.397,0.426-0.631,0.741-0.744c0.021-0.255,0.012-0.501-0.057-0.719l0.184-0.432c12.616,6.146,26.764,9.012,40.544,10.869
			c13.845,1.863,27.345,2.512,41.158,0.351c5.918-0.924,11.833-1.849,17.79-2.503c0.975-0.104,2.722-0.418,4.622-0.655
			c1.932-0.447,3.931-0.628,5.744-0.399c0.16-0.013,0.32-0.029,0.481-0.03c1.029-0.026,1.991,0.393,2.75,1.054
			c0.292,0.164,0.571,0.342,0.835,0.545c0.17-0.033,0.338-0.076,0.497-0.155c4.279,7.558,9.208,14.804,14.625,22.062
			c7.305,9.789,14.476,19.453,20.274,29.942c-0.144,0.062-0.269,0.159-0.396,0.246c0.591,0.798,1.015,1.703,1.16,2.729
			c0.322,2.301-0.108,4.321-1.079,6.118c-0.724,2.562-2.081,4.994-3.805,7.289c-2.933,3.906-7.803,7.044-9.734,11.585
			c-3.085,7.246-5.333,13.977-12.976,14.128c-0.036,0.073-0.075,0.143-0.102,0.229c0.003-0.076,0.003-0.148,0.004-0.221
			c-0.01,0-0.019,0-0.029,0c-1.424,1.411-2.965,2.81-3.031,5.01c-0.148,5.02,0.963,13.23,5.187,16.632
			c4.4,3.542,5.912,0.811,6.667-2.732c-0.169-1.007-0.005-2.022,0.482-2.894c0.149-1.092,0.287-2.124,0.461-2.947
			c0.873-4.08,4.554-8.128,8.17-11.238c5.724-6.894,13.343-12.742,18.955-19.696c2.415,8.761,3.996,17.771,5.891,26.649
			c0.229,1.078,0.521,2.125,0.84,3.159c0.194,0.334,0.388,0.663,0.578,0.98c2.056,3.41,5.188,6.604,6.491,10.406
			c0.593,1.726,0.977,3.487,1.3,5.259c1.673,3.437,3.201,6.965,4.524,10.677c0.873,2.445,2.368,5.625,4.616,6.391
			c3.569-2.689,7.624-5.108,10.224-8.83c0.1-0.142,0.221-0.244,0.344-0.326c0.08-0.49,0.149-0.985,0.213-1.478
			c-1.095-0.82-2.292-1.474-3.325-2.322c-0.542-0.117-1.065-0.345-1.536-0.72c0.049-0.294,0.068-0.602,0.074-0.919
			c-0.01-0.014-0.025-0.029-0.037-0.045c-0.241-0.401-0.207-0.779-0.049-1.096c-0.154-0.997-0.515-2.099-1.145-3.325
			c-1.047-2.025-2.104-3.766-3.062-5.507c-0.523-1.072-1.054-2.143-1.584-3.215c-0.604-1.415-1.119-2.926-1.464-4.685
			c-0.14-0.722-0.274-1.473-0.416-2.23c-0.329-0.639-0.676-1.271-1.063-1.882c-1.813-2.855-3.299-5.521-3.491-8.599
			c-0.854-3.309-1.585-6.647-2.203-9.961c-1.563-8.352-1.449-16.917-2.382-25.311c-1.494-3.348-2.684-6.862-3.88-10.281
			c-2.572-7.351-3.986-15.744-4.582-23.521c-0.28-3.679,0.229-7.468-0.14-11.106c-0.163-1.59-0.485-3.235-0.634-4.877
			c-1.007-2.002-0.918-4.303-0.045-6.312c1.37-6.388,4.608-12.3,7.96-17.827c0.17-0.274,0.26-0.543,0.315-0.805
			c1.74-2.945,3.261-6.009,4.484-9.211c-0.004-0.103,0-0.207-0.004-0.312c0.826-2.025,1.528-4.148,2.122-6.317
			c0.067-0.263,0.141-0.524,0.206-0.791c1.727-6.692,2.327-13.783,1.626-19.982c-0.139-1.232-0.369-2.441-0.633-3.646
			c0.065-0.121,0.135-0.238,0.202-0.359c-0.239-4.498,5.988-11.842,7.561-14.023c3.12-4.327,6.141-8.956,8.96-13.757
			c2.5-4.429,4.846-8.994,6.677-13.712c0.464-1.191,0.884-2.462,1.307-3.747c1.041-6.344,3.129-12.771,8.802-16.287
			c4.362-2.705,8.333-0.533,12.044,2.728c1.881,1.014,3.686,2.186,5.118,3.746c1.194,1.296,2.539,2.266,3.924,3.194
			c0.284,0.12,0.559,0.246,0.846,0.364c2.606,1.06,4.968,2.236,6.962,4.104c1.93,0.938,3.632,2.534,5.117,4.437
			c3.042,3.899,3.849,10.976,7.578,14.045c1.483,1.221,2.935,1.335,4.397,1.032c1.733-0.906,3.516-1.822,4.21-3.974
			c0.234-0.729,1.097-1.17,1.792-0.732c7.608,4.805,12.566-5.72,13.732-11.455C635.512,600.428,635.284,597.624,635.038,594.744z
			 M433.853,584.855c-2.647-0.652-5.049-2.18-7.483-3.671c1.262-0.083,2.531-0.263,3.768-0.435c1.645,0.13,3.295,0.266,4.958,0.36
			c5.237,0.301,10.517-0.4,15.666-1.282c4.664-0.799,9.292-2.038,13.816-3.603c0.025-0.017,0.048-0.037,0.078-0.054
			c3.88-2.061,7.472-4.549,10.763-7.404c0.184-0.161,0.368-0.32,0.548-0.478c1.373-1.223,2.693-2.512,3.957-3.864
			c-0.121,0.066-0.236,0.135-0.355,0.203c0.349-0.296,0.707-0.635,1.073-0.994c0.276-0.308,0.558-0.605,0.828-0.917
			c2.921-3.371,5.775-6.764,9.28-9.4c-0.228-0.117-0.495-0.171-0.803-0.112c-0.771,0.145-1.529,0.451-2.267,0.862
			c-1.271,0.129-2.541,0.272-3.811,0.418c-4.623,0.667-9.272,1.169-13.918,1.537c-6.73,0.527-13.137,1.066-19.664-0.179
			c-2.605-0.807-5.61-1.187-7.733-2.946c-0.603-0.499-1.117-1.097-1.637-1.689c1.642,0.16,3.38,0.66,4.968,0.766
			c4.226,0.278,8.634-0.004,12.855-0.263c7.509-0.459,15.024-2.449,22.405-3.821c9.244-1.714,20.271-3.412,29.614-7.455
			c3.938-3.042,7.945-5.607,8.364-11.168c-2.74-5.546-7.309-9.827-13.555-11.501c-4.171-1.116-9.108-0.877-13.371-0.817
			c-0.12,0.001-0.243-0.006-0.365-0.006c0.153-0.208,0.287-0.439,0.383-0.72c0.025-0.074,0.071-0.141,0.105-0.209
			c1.006-0.189,2.005-0.389,2.985-0.624c1.696-0.404,3.601-0.834,5.592-1.229c0.495,0.014,0.926,0.024,1.237,0.023
			c6.094-0.037,11.854-0.755,17.647,1.791c0.214,0.096,0.425,0.197,0.639,0.295c0.673,0.254,1.334,0.525,1.984,0.82
			c0.834,0.261,1.633,0.655,2.446,1.045c0.241-0.06,0.502-0.065,0.778,0.055c4.879,2.088,10.445,3.561,15.747,2.543
			c2.361-0.455,4.673-0.949,7.023-1.236c-0.043-0.32-0.146-0.63-0.314-0.911c-0.007-0.054,0.001-0.099-0.007-0.155
			c-0.08-0.654-0.395-1.15-0.816-1.491c-0.007-0.326-0.087-0.67-0.285-1.021c-1.888-3.342-3.741-6.64-6.255-9.557
			c-0.225-0.266-0.474-0.514-0.715-0.765c-1.615-2.083-3.457-3.953-5.777-5.534c-0.467-0.317-0.96-0.602-1.458-0.871
			c2.834,0.777,5.634,1.694,8.391,2.711c2.888,2.054,7.623,2.68,10.446,3.342c8.244,1.927,16.239,4.609,24.168,7.583
			c1.49,0.557,3.117-0.872,3.089-2.365c-0.107-5.528-2.63-9.153-5.65-13.578c-0.81-1.185-1.803-2.917-2.999-4.416
			c3.678,1.163,7.231,3.247,10.061,5.199c6.302,4.348,8.229,10.294,8.341,17.699c0.008,0.516,0.155,0.938,0.375,1.285
			c-3.513,0.266-6.919-0.966-10.645-1.159c-1.384,0.224-2.942,0.226-4.557,0.084c-0.19,0.013-0.386,0.016-0.576,0.031
			c-0.072,0.023-0.127,0.06-0.203,0.08c-2.668,0.756-5.333,1.502-7.996,2.262c-1.676,0.642-3.354,1.284-5.014,1.978
			c-1.416,0.567-2.819,1.175-4.199,1.789c-1.89,0.771-3.753,1.637-5.607,2.582c-7.706,3.681-14.893,8.38-22.024,13.157
			c-0.489,0.459-1.009,0.888-1.532,1.306c-5.203,5.084-10.436,10.131-16.063,14.719c-0.468,0.382-0.948,0.749-1.419,1.123
			c0.036-0.021,0.073-0.046,0.111-0.067c0.116-0.067,0.229-0.143,0.344-0.212c-1.281,1.366-2.517,2.767-3.742,4.179
			c-1.943,3.138-3.806,6.327-5.571,9.585c-1.887,3.487-3.672,6.794-6.33,9.533c0.038,0.033,0.073,0.069,0.112,0.1
			c-0.705,0.708-1.423,1.402-2.173,2.071c-0.16,0.143-0.335,0.264-0.5,0.402c-0.238,0.028-0.479,0.089-0.725,0.21
			c-6.735,3.298-13.968,3.445-21.251,3.404c-3.39,0.678-6.844,1.118-10.395,1.308c-0.081,0.017-0.164,0.032-0.245,0.051
			c-3.965-0.145-8.532,0.637-11.501,0.732C442.933,586.044,438.088,585.907,433.853,584.855z M252.525,653.577
			c-3.76,5.495-5.547,11.791-7.163,18.315c-2.05,8.282-5.174,15.934-8.842,23.491c0.083,0.11,0.138,0.239,0.176,0.379
			c-0.016,0.05-0.028,0.097-0.044,0.148c-0.412,0.765-0.84,1.519-1.269,2.271c-1.274,2.231-2.644,4.408-4.028,6.572
			c-0.44,0.543-0.875,1.082-1.287,1.617c-4.428,5.742-9.364,10.672-14.733,15.506c-9.107,8.196-23.343,19.487-36.638,16.867
			c3.35-1.816,6.633-3.72,9.917-5.896c4.694-3.115,7.525-6.591,10.182-11.075c0.528-0.903,1.042-1.821,1.536-2.752
			c0.082-0.197,0.141-0.393,0.154-0.578c0.172-0.223,0.33-0.456,0.497-0.684c0.477-0.931,0.938-1.87,1.397-2.812
			c-6.921,4.691-16.438,6.825-23.352,2.207c-0.22-0.086-0.44-0.166-0.658-0.259c-0.035-0.111-0.097-0.225-0.166-0.334
			c-0.434-0.336-0.862-0.69-1.272-1.091c-0.129-0.123-0.21-0.257-0.271-0.394c-1.346-1.303-2.484-2.8-3.415-4.422
			c2.49,1.051,5.062,1.3,7.639,0.956c6.811-1.474,11.957-5.428,17.141-9.989c3.849-3.386,6.493-7.084,9.238-11.018
			c0.04-0.064,0.081-0.129,0.12-0.193c0.009-0.006,0.019-0.012,0.03-0.018c0.121-0.177,0.245-0.352,0.365-0.527
			c0.057-0.118,0.109-0.237,0.163-0.358c0.08-0.126,0.158-0.252,0.236-0.38c0.159-0.257,0.247-0.509,0.276-0.751
			c4.825-10.589,9.437-21.274,14.664-31.409c6.4-12.414,12.05-25.181,20.379-36.472c4.56-6.185,10.239-11.57,17.176-14.92
			c6.154-2.972,18.504-3.343,22.789,3.093c0.046,0.07,0.102,0.122,0.151,0.184c-0.915,0.84-1.826,1.681-2.722,2.474
			c-5.009,4.447-10.654,7.878-15.26,12.802c-4.621,4.941-7.808,11.005-10.162,17.307
			C253.973,645.44,253.056,649.493,252.525,653.577z M232.019,825.873c0.885,8.309-11.665,7.572-12.684,1.109
			c0.134-0.05,0.271-0.108,0.414-0.172c2.682-1.107,5.263-2.489,7.354-4.315C229.539,821.456,231.572,821.695,232.019,825.873z
			 M367.862,811.847c0.723,0.248,1.24,1.303,0.64,1.934c-0.052,0.197-0.15,0.379-0.309,0.521c-2.52,2.283-5.578,5.051-9.206,4.263
			c-0.1,0.074-0.204,0.144-0.304,0.219c-0.12-0.055-0.234-0.117-0.347-0.187c0-0.008-0.078-0.071-0.147-0.129
			c-0.002-0.011-0.002-0.011-0.013-0.027c0.003-0.037-0.009-0.074-0.009-0.112c-0.854-0.146-1.219-1.279-0.729-1.957
			c0.024-0.343,0.185-0.684,0.539-0.932c0.521-0.358,1.013-0.746,1.501-1.131C361.268,811.633,364.773,810.781,367.862,811.847z
			 M352.707,693.643c-0.058,0.137-0.144,0.329-0.232,0.541c-0.092,0.089-0.168,0.194-0.247,0.305
			c-0.024,0.267-0.133,0.526-0.35,0.742c-0.087,0.267-0.172,0.532-0.26,0.797c-0.034,0.063-0.062,0.131-0.096,0.19
			c-0.072,0.136-0.151,0.268-0.229,0.4c-0.013,0.017-0.014,0.022-0.022,0.036c-0.064,0.07-0.104,0.15-0.155,0.228
			c0.023,0.227-0.031,0.472-0.205,0.722c-0.032,0.043-0.057,0.093-0.084,0.136c-0.01,0.192-0.002,0.38,0.047,0.562
			c-4.454,13.658-8.815,26.941-15.597,39.743c-6.338,11.956-8.727,22.332-3.125,35.128c5.242,11.972,14.742,24.646,25.353,32.409
			c0.959,1.235,1.978,2.438,3.041,3.596c-2.118,1.108-5.342,3.708-6.664,6.293c-4.94-5.112-9.931-10.179-15.8-14.19
			c-0.021-0.038-0.034-0.073-0.057-0.112c-4.071-6.142-7.266-12.836-10.891-19.246c-0.729-1.008-1.467-2.016-2.27-2.982
			c-2.116-2.557-4.265-5.235-5.291-8.408c-0.121-0.145-0.238-0.292-0.356-0.438c0.034-0.094,0.071-0.188,0.095-0.297
			c0.008-0.041,0.017-0.079,0.024-0.117c-0.014-0.042-0.016-0.084-0.029-0.125c-0.026-0.11-0.064-0.219-0.088-0.328
			c-0.004-0.019,0.001-0.03,0-0.048c-0.342-1.806,0.809-4.197,0.95-5.79c0.125-1.42,0.263-2.81,0.457-4.19
			c0.514-6.971,2.422-13.955,4.987-20.399c-0.058-0.042-0.108-0.097-0.173-0.132c1.619-4.179,2.847-8.432,2.85-12.945
			c2.212-7.752,0.669-15.439-3.443-22.511c-2.729-4.698-6.528-9.865-11.13-13.529c4.82-1.537,9.59-3.268,14.521-4.365
			c8.341-1.855,15.806,2.381,22.766,6.461c0.655,0.384,1.33,0.733,1.996,1.094C352.898,693.144,352.803,693.405,352.707,693.643z
			 M485.622,815.507c-0.226,0.619-0.151,1.262,0.114,1.802c-0.025-0.001-0.048-0.007-0.073-0.008
			c-0.493-0.027-0.948-0.111-1.378-0.23c-0.211-0.03-0.421-0.096-0.607-0.222c-5.106-2.084-5.186-11.115-5.072-16.895
			c0.385,2.034,1.052,4.404,2.508,5.955c0.883,0.941,2.443,1.948,3.727,3.1c0.2,0.104,0.363,0.252,0.479,0.455
			c0.137,0.136,0.271,0.269,0.397,0.408c-0.047,0.145-0.082,0.293-0.128,0.44c0.377,1.702,0.209,3.408-0.03,5.133
			C485.584,815.462,485.599,815.488,485.622,815.507z M487.393,805.733c-1.688-1.473-6.034-5.878-4.226-6.281
			c2.651-0.59,4.568-1.27,6.666-3.056c2.286-1.948,2.483-5.116,2.535-7.902c0.1-5.371,6.091-7.45,9.296-11.308
			c3.698-4.439,6.837-9.54,7.211-15.159c1.963,4.099,3.686,8.35,5.122,12.789C506.435,785.96,493.335,793.663,487.393,805.733z
			 M545.351,833.767c1.167-0.341,2.337-0.554,3.555-0.573c0.084-0.002,0.487,0.095,0.652,0.102
			c-0.965,1.913-3.218,3.431-4.846,4.672c-1.296,0.982-2.649,1.896-3.948,2.871c-0.501,0.086-1.006,0.098-1.488,0.005
			c-0.436-0.081-0.78-0.265-1.052-0.515c-0.05-0.178-0.123-0.361-0.248-0.548c-0.186-0.282-0.359-0.572-0.526-0.867
			c-0.136-0.547-0.181-1.146-0.184-1.726c0.495-0.025,0.998-0.195,1.466-0.568C540.548,835.175,543.168,834.405,545.351,833.767z
			 M632.091,606.8c-0.12,1.1-0.996,2.248-1.641,3.054c-0.724,0.907-1.646,1.485-2.763,1.658c-3.012,1.983-6.655,2.738-8.006-1.465
			c-0.121-0.188-0.203-0.408-0.174-0.704c0.019-0.177-0.006-0.347-0.014-0.519c-0.213-0.548-0.459-1.074-0.777-1.541
			c-0.89-1.296-1.987-2.404-3.019-3.584c-0.717-0.823-1.477-1.689-2.041-2.64c-0.262,0.545-0.317,1.204,0.013,1.892
			c1.503,3.156,3.772,5.156,3.946,8.869c0.04,0.855-0.072,1.857-0.379,2.784c-0.028,0.063-0.057,0.13-0.075,0.197
			c-0.508,1.375-1.464,2.547-3.08,2.726c-3.3,0.364-4.191-2.889-4.814-5.069c-1.571-5.519-1.726-10.602-6.713-14.299
			c-4.122-3.061-8.984-4.657-13.501-6.959c-1.483-1.44-3.248-2.317-5.107-3.288c-0.247-0.13-0.48-0.274-0.718-0.419
			c-0.984-0.757-1.987-1.548-3.016-2.289c-1.005-0.844-2.006-1.693-3.115-2.385c-3.161-1.965-7.252-0.868-10.739,0.669
			c0.584-1.904,1.217-3.792,1.869-5.675c0.585-3.511,1.919-6.734,2.927-10.131c0.924-3.111,1.664-6.278,2.828-9.311
			c0-0.002,0-0.004-0.002-0.005c-3.821,8.835-7.271,17.805-11.636,26.397c-2.312,9.733-7.408,18.552-11.323,27.781
			c-4.247,10-8.449,20.085-16.203,27.897c-0.031,0.038-0.072,0.063-0.11,0.095c-0.029,0.034-0.051,0.079-0.088,0.111
			c-0.025,0.017-0.049,0.034-0.073,0.056c-0.217,0.169-0.478,0.283-0.745,0.321c-0.354,0.836-1.473,1.158-2.114,0.192
			c-5.897-8.894-7.245-18.061-7.104-28.512c-0.976,0.112-1.926,0.784-2.04,2.03c-1.049,11.483,5.272,21.544,8.427,32.203
			c0.045,0.147,0.075,0.305,0.116,0.453c-0.057,0.107-0.118,0.215-0.174,0.319c1.921,5.605,2.021,11.369,1.121,17.126
			c0.508,8.842-2.251,18.467-9.428,23.556c-0.477,0.651-0.962,1.301-1.48,1.932c-1.734,3.095-3.296,6.281-4.525,9.584
			c0.011-0.404,0.016-0.809,0.048-1.211c-1.398-3.525-3.365-6.781-5.908-9.931c-6.93-8.579-18.74-15.766-18.676-28.064
			c0.016-2.768-4.253-2.763-4.269,0c-0.049,9.205,5.753,16.256,11.816,22.567c5.745,5.985,11.05,11.258,13.652,18.787
			c2.839,3.569,2.771,10.407,2.855,14.292c0.031,1.419,0.002,2.854-0.044,4.296c0.562,6.972,1.029,13.957,2.557,20.887
			c0.592,2.692,1.255,5.307,1.879,7.916c0.482,0.755,0.845,1.547,1.089,2.365c-0.007-0.041-0.012-0.079-0.02-0.12
			c1.201,3.578,1.933,7.253,2.438,10.976c3.008,12.015,4.643,24.459,7.808,36.379c-0.129,0.081-0.242,0.179-0.35,0.286
			c1.987,4.246,3.575,8.362,5.092,12.995c1.802,5.524,4.667,10.588,6.492,16.103c0.307,0.931-0.476,1.522-1.232,1.493
			c-1.367,1.75-5.339,2.332-6.622,2.504c-0.787-3.638-1.224-7.475-2.584-10.819c-1.645-4.049-3.116-8.512-5.906-11.928
			c-0.173-0.212-0.362-0.358-0.556-0.463c-3.94-12.253-5.655-25.188-8.473-37.796c-0.172-0.039-0.344-0.067-0.521-0.063
			c-5.041-14.055-12.488-26.647-21.581-38.997c-11.277-15.319-23.281-30.175-29.831-48.308c-1.708-4.735-2.935-9.663-4.319-14.503
			c-1.619-5.673-3.999-11.119-5.379-16.844c-2.951-12.253,1.6-25.355,3.622-37.4c0.453-2.707-3.657-3.865-4.116-1.139
			c-1.712,10.19-4.471,20.222-4.598,30.613c-0.132,10.44,4.784,20.334,7.581,30.214c2.396,8.474,5.604,16.276,9.454,23.72
			c-1.674-0.326-3.492-0.268-5.078-0.246c-5.748,0.081-11.51,0.997-17.188,1.812c-14.451,2.079-27.789,3.29-42.481,1.68
			c-9.549-1.047-19.021-2.661-28.312-5.121c-9.881-2.613-18.479-7.124-27.39-11.973c-5.777-3.142-12.034-4.864-18.593-3.998
			c-6.828,0.901-13.401,3.861-20.009,5.768c-0.383-0.184-0.77-0.361-1.163-0.524c0.81-0.845,1.612-1.698,2.387-2.573
			c10.973-12.369,12.951-28.91,13.028-44.898c0.015-2.769-4.253-2.766-4.268,0c-0.035,7.353-0.642,14.706-2.039,21.926
			c-1.857,9.605-6.769,17.081-13.512,23.988c-13.151,13.472-28.986,23.676-40.497,38.876c-3.927,5.184-5.245,11.108-6.989,16.982
			c-0.23,0.346-0.342,0.735-0.344,1.125c-0.723,2.345-1.54,4.669-2.653,6.93c-4.018,8.154-13.599,11.204-17.481,19.788
			c-3.957,8.746-7.647,18.209-8.494,27.843c-0.402,4.58,0.712,9.286,0.866,13.868c0.121,3.586-0.867,6.269-2.675,8.358
			c-1.637,0.97-3.191,2.334-4.765,3.375c0.988-3.278,1.566-6.326,0.058-9.818c-1.056-2.448-2.497-4.689-3.437-7.19
			c-1.492-3.97,0.517-8.169,2.229-11.668c5.802-11.858,12.319-22.657,14.638-35.9c0.929-5.303,0.869-10.711,2.479-15.888
			c2.157-6.939,8.436-12.449,12.525-18.312c13.359-19.153,6.737-41.377,7.688-62.915c-0.085-0.243-0.145-0.511-0.147-0.816
			c-0.027-3.281-0.229-6.351,1.147-9.41c0.054-0.118,0.126-0.222,0.202-0.322c0.345-1.754,0.767-3.499,1.294-5.233
			c3.889-12.777,12.611-19.739,22.449-27.774c3.583-2.929,7.211-6.625,11.06-10.067c0.949-0.491,1.928-0.93,2.93-1.34
			c12.243-2.71,22.717-11.256,35.964-10.226c20.599,1.6,40.343,8.535,61.137,9.169c11.621,0.354,22.889-1.326,33.78-4.434
			c4.186-0.034,8.161-1.527,12.091-3.156c2.838-1.178,5.699-2.228,8.597-3.245c2.391-0.84,4.618-2.048,6.889-3.143
			c0.352-0.013,0.752-0.047,1.178-0.088c4.128-1.863,9.316-0.886,13.666-0.684c6.885,0.317,13.072-0.536,19.71-2.111
			c8.831-4.562,14.737-13.018,20.384-20.962c7.395-10.408,17.075-21.003,28.207-29.267c2.705-1.795,5.464-3.513,8.291-5.134
			c4.941-2.833,10.11-5.25,15.377-7.438c2.673-0.866,5.39-1.533,8.138-2.021c2.198-0.819,4.509-1.273,6.872-1.552
			c0.021-0.024,0.045-0.048,0.063-0.073c0.494-0.038,0.993-0.059,1.49-0.087c8.078-0.71,16.633,0.166,23.402-4.441
			c0.028-0.057,0.062-0.112,0.093-0.169c0.117-0.087,0.239-0.165,0.358-0.253c0.071-0.008,0.138-0.038,0.208-0.056
			c0.082-0.061,0.171-0.118,0.252-0.182c0.233-0.181,0.467-0.291,0.693-0.371c0.142-0.148,0.269-0.312,0.364-0.493
			c2.665-1.99,5.268-4.068,8.074-5.834c-0.456,3.501-1.551,6.867-2.121,10.325c0.008,0.032,0.019,0.056,0.026,0.087
			c1.883,8.383,1.848,17.111,4.471,25.332c1.057,3.304,1.969,6.648,2.848,10.002c0.766,2.19,1.538,4.376,2.276,6.569
			c0.096,0.184,0.158,0.385,0.196,0.593c0.111,0.333,0.227,0.664,0.334,0.995c0.805,2.162,1.639,4.314,2.565,6.435
			c2.747,6.308,5.684,12.518,8.042,18.989c0.47,1.289,1.077,2.92,1.641,4.681c0.27,0.463,0.483,0.937,0.661,1.419
			c-0.036,0-0.067,0.009-0.102,0.011c0.392,0.495,0.444,1.204-0.037,1.674c-1.881,1.831-2.916,3.737-3.488,5.9
			c-0.034,0.005-0.064,0.028-0.098,0.038c0.076,0.964,0.312,2.102,0.491,2.669c0.126,0.407,0.389,1.299,0.666,2.044
			c0.251-0.493,0.347-1.003,0.5-1.545c0.109-0.392,0.386-0.641,0.709-0.771c-0.01-0.036-0.023-0.072-0.03-0.107
			c-0.038-0.118-0.063-0.24-0.092-0.36c-0.005-0.021-0.01-0.027-0.012-0.044c0.002-0.02,0.009-0.056,0.01-0.118
			c0.019-0.819-0.565-1.521-1.316-1.752c0.292-1.202,0.815-2.816,1.782-3.545c0.272-0.471,0.803-0.664,1.357-0.577
			c0.243,0.042,0.46,0.179,0.643,0.349c0.047,0.009,0.091,0.022,0.135,0.028c0.011,0.048,0.017,0.095,0.027,0.142
			c0.172,0.234,0.275,0.519,0.248,0.816c-0.01,0.079-0.036,0.144-0.053,0.215C633.43,601.884,633.135,604.604,632.091,606.8z"/>
	</g>
	<polyline fill="none" stroke="#000000" stroke-width="4" stroke-miterlimit="10" points="111.272,710.989 205.738,686.259 
		207.491,685.386 	"/>
	
		<line fill="none" stroke="#000000" stroke-width="4" stroke-miterlimit="10" x1="116.354" y1="725.271" x2="171.925" y2="710.446"/>
	
		<line fill="none" stroke="#000000" stroke-width="4" stroke-miterlimit="10" x1="239.888" y1="692.867" x2="255.746" y2="686.985"/>
	
		<line fill="none" stroke="#000000" stroke-width="4" stroke-miterlimit="10" x1="246.457" y1="676.511" x2="254.386" y2="673.539"/>
	<path fill="none" stroke="#000000" stroke-miterlimit="10" d="M608.884,510.302c0,0-8.617,10.898-7.371,14.654"/>
	<path fill-rule="evenodd" clip-rule="evenodd" fill="none" stroke="#000000" stroke-miterlimit="10" d="M508.875,762.027"/>
	<path fill-rule="evenodd" clip-rule="evenodd" fill="none" stroke="#000000" stroke-miterlimit="10" d="M-11.168,730.206
		c-0.115,2-4.606,1.021-6.027,0.829"/>
</g>
<g id="Layer_2">
	<path fill-rule="evenodd" clip-rule="evenodd" d="M74.672,682.505c4.189-4.135,8.13-8.433,12.392-12.468
		c0.417-1.015-0.24-1.938-1.168-2.313c0.004-0.008,0.008-0.015,0.011-0.022c0.821-2.027-1.737-3.092-3.199-2.032
		c-0.87-0.813-2.391-0.968-3.161,0.369c-3.794,6.571-9.035,13.046-15.326,17.284c-2.171,1.463-0.133,5.019,2.058,3.54
		c0.552-0.372,1.082-0.776,1.618-1.176c-0.235,0.63-0.426,1.295-0.523,2.055c-0.159,1.253,0.691,1.888,1.658,1.933
		c0.649,1.056,2.034,1.58,2.985,0.345c0.339-0.441,0.671-0.888,1.004-1.333C71.19,687.496,73.229,683.928,74.672,682.505z"/>
	<path fill-rule="evenodd" clip-rule="evenodd" d="M70.575,664.597c0.095-1.978-2.165-2.47-3.362-1.488
		c-0.675,0.259-1.179,0.864-1.111,1.83c0.059,0.847-0.032,1.751-0.241,2.675c-0.535,1.428-1.353,2.721-2.257,4.113
		c-1.292,1.993-2.904,4.617-4.932,5.963c-1.639,1.088-0.901,3.355,0.5,3.806c0.73,0.482,1.737,0.604,2.593-0.076
		c2.63-2.071,4.26-4.9,5.833-7.812c0.851-1.576,1.628-3.107,2.109-4.727C70.187,667.559,70.5,666.167,70.575,664.597z"/>
</g>
<g id="Layer_3">
	<g>
		<path fill="none" stroke="#000000" stroke-width="4" stroke-miterlimit="10" d="M-26.583,720.022
			c0.066-0.194,0.134-0.386,0.203-0.579c0.034-0.09,0.063-0.179,0.096-0.266c0.016-0.049,0.034-0.096,0.051-0.142
			c0.042-0.124,0.089-0.248,0.134-0.375"/>
		<path fill="none" stroke="#000000" stroke-width="4" stroke-miterlimit="10" d="M33.634,806.009
			c-36.95-1.917-65.405-32.64-63.554-68.617"/>
		<path fill="none" stroke="#000000" stroke-width="4" stroke-miterlimit="10" d="M55.122,678.117
			c29.453,8.13,50.361,35.229,48.766,66.222c-1.107,21.541-12.826,40.083-29.983,51.082c-0.652,0.422-1.313,0.828-1.98,1.223
			c-0.334,0.197-0.668,0.395-1.005,0.585c-0.416,0.238-0.835,0.469-1.258,0.699c-0.211,0.115-0.423,0.229-0.636,0.341"/>
		<path fill="none" stroke="#000000" stroke-width="4" stroke-miterlimit="10" d="M-18.776,704.526
			c0.03-0.051,0.062-0.096,0.096-0.146c8.255-11.955,20.457-21.03,34.695-25.555"/>
		<path fill="none" stroke="#000000" stroke-width="6" stroke-miterlimit="10" d="M30.201,760.204
			c2.806,1.589,6.038,2.574,9.509,2.753c11.514,0.6,21.307-7.876,21.876-18.924c0.568-11.051-8.309-20.493-19.818-21.09
			c-5.072-0.261-9.805,1.232-13.567,3.938c-8.696-10.187-26.378-17.197-44.183-21.725c-0.037-0.01-0.075-0.015-0.112-0.027
			c-0.889-0.225-1.778-0.445-2.666-0.66c-1.961-0.47-3.917-0.909-5.857-1.322c-0.962-0.205-1.92-0.402-2.873-0.592
			c-0.053-0.01-0.106-0.021-0.16-0.031c-3.437-0.688-6.803-1.282-10.029-1.791"/>
		<path fill="none" stroke="#000000" stroke-width="6" stroke-miterlimit="10" d="M-46.934,713.658
			c4.282,0.371,8.628,1.142,12.959,2.207c2.952,0.724,5.897,1.583,8.813,2.547c0.547,0.18,1.095,0.366,1.639,0.557
			c0.063,0.017,0.126,0.038,0.186,0.06c0.025,0.006,0.048,0.016,0.07,0.026c0.051,0.014,0.098,0.03,0.145,0.045
			c9.188,3.197,18.008,7.332,25.688,11.317"/>
		<path fill="none" stroke="#000000" stroke-width="6" stroke-miterlimit="10" d="M-71.391,713.436
			c-0.268,0.545-0.533,1.089-0.8,1.632c5.269-0.139,10.462-1.126,15.712-1.521"/>
		<path fill="none" stroke="#000000" stroke-width="6" stroke-miterlimit="10" d="M43.818,725.836c0,0,6.088-19.698,10.28-32.969"/>
		<line fill="none" stroke="#000000" stroke-width="6" stroke-miterlimit="10" x1="91.179" y1="725.817" x2="99.935" y2="722.324"/>
		<line fill="none" stroke="#000000" stroke-width="6" stroke-miterlimit="10" x1="58.7" y1="738.767" x2="77.895" y2="731.114"/>
		<line fill="none" stroke="#000000" stroke-width="6" stroke-miterlimit="10" x1="80.959" y1="784.396" x2="84.883" y2="788.662"/>
		<line fill="none" stroke="#000000" stroke-width="6" stroke-miterlimit="10" x1="54.771" y1="755.922" x2="71.412" y2="774.017"/>
		<line fill="none" stroke="#000000" stroke-width="6" stroke-miterlimit="10" x1="37.391" y1="763.422" x2="33.452" y2="806.003"/>
		<path fill="none" stroke="#000000" stroke-width="6" stroke-miterlimit="10" d="M8.224,764.076
			c-10.104,9.246-23.046,21.153-23.046,21.153"/>
		<line fill="none" stroke="#000000" stroke-width="6" stroke-miterlimit="10" x1="30.844" y1="725.271" x2="14.528" y2="682.395"/>
		<path fill="none" stroke="#000000" stroke-width="4" stroke-miterlimit="10" d="M-34.776,718.238
			c0.233-0.729,0.477-1.453,0.731-2.174c0.021-0.066,0.044-0.131,0.068-0.192"/>
		<path fill="none" stroke="#000000" stroke-width="4" stroke-miterlimit="10" d="M4.366,808.865
			c-26.582-13.31-44.153-40.891-42.563-71.8c0.042-0.826,0.098-1.648,0.168-2.467"/>
		<path fill="none" stroke="#000000" stroke-width="4" stroke-miterlimit="10" d="M75.751,673.539
			c0.67,0.34,1.335,0.688,1.995,1.045c0.454,0.246,0.906,0.498,1.356,0.754c0.224,0.127,0.446,0.255,0.668,0.383
			c0.334,0.193,0.667,0.393,1,0.591c0.476,0.286,0.948,0.578,1.418,0.874c22.757,14.344,37.268,39.787,35.82,67.995
			c-2.158,42-38.875,74.229-82.011,71.991"/>
		<path fill="none" stroke="#000000" stroke-width="4" stroke-miterlimit="10" d="M18.89,667.687
			c7.899-2.119,16.282-3.055,24.922-2.607c8.929,0.466,17.435,2.371,25.29,5.471"/>
		<path fill="none" stroke="#000000" stroke-width="4" stroke-miterlimit="10" d="M-27.579,702.4
			c4.528-7.495,10.334-14.148,17.113-19.687"/>
	</g>
</g>
</svg>
