<?xml version="1.0" encoding="utf-8"?>
<!-- Generator: Adobe Illustrator 16.0.0, SVG Export Plug-In . SVG Version: 6.00 Build 0)  -->
<!DOCTYPE svg PUBLIC "-//W3C//DTD SVG 1.1//EN" "http://www.w3.org/Graphics/SVG/1.1/DTD/svg11.dtd">
<svg version="1.1" id="Layer_1" xmlns="http://www.w3.org/2000/svg" xmlns:xlink="http://www.w3.org/1999/xlink" x="0px" y="0px"
	 width="640px" height="960px" viewBox="0 0 640 960" enable-background="new 0 0 640 960" xml:space="preserve">
<path d="M413.191,235.119c-2.512-1.208-5.104-2.315-7.76-3.308c-1.691-0.311-3.476-0.602-4.906-1.688
	c-1.271-0.397-2.576-0.714-3.868-1.064c-6.601-0.614-13.282-0.415-18.83-0.191c-14.252,0.57-29.244,2.902-42.163,9.31
	c-25.302,12.547-33.383,38.591-47.616,60.883c6.547-7.524,12.452-15.549,16.947-24.403c4.458-8.781,10.948-15.701,18.356-21.698
	c8.525-6.904,18.289-12.104,28.515-15.99c5.341-2.03,11.362-2.735,17.132-3.067c7.102-0.413,14.266,0.093,21.396,0.378
	c9.319,0.368,18.317,1.992,26.351,7.2c1.452,0.942,2.992,2.559,5.11,0.903c-0.102-0.541-0.025-1.39-0.331-1.556
	C418.586,239.178,416.014,236.972,413.191,235.119z"/>
<path d="M357.99,266.908c-4.926,5.297-9.062,11.537-13.578,16.944c-8.688,10.403-17.904,20.26-25.243,31.686
	c1.065-0.625,2.104-1.276,2.901-2.148c6.486-7.073,12.775-14.329,19.181-21.484c3.117-3.481,6.34-6.873,9.507-10.316
	c1.387-1.509,2.754-3.038,4.117-4.572c5.182-5.822,11.132-10.714,18.141-14.121c3.883-1.882,7.997-3.371,12.133-4.616
	c6.153-1.855,12.291-2.961,18.877-1.19c3.547,0.951,7.268,1.901,11.077,1.799C399.132,249.421,373.168,256.993,357.99,266.908z"/>
<path d="M313.204,647.167c1.519,0.273,3.087,0.556,4.723,0.853c0.856,10.858,2.997,20.758,13.896,25.863
	c-0.556,3.038-2.416,3.106-4.636,2.768c-4.25-0.644-7.091-3.375-9.466-6.571C312.435,662.961,310.379,657.49,313.204,647.167z"/>
<path d="M510.812,652.582c2.151-4.494,2.951-5.576,2.951-5.576l-1.605-1.38l-2.601,2.762l1.011,4.564
	C510.652,652.829,510.729,652.703,510.812,652.582z"/>
<path d="M612.511,569.072"/>
<!-- g id="bounds">
	<rect width="640" height="960" />
</g -->
<g>
	<path fill="#000000" stroke="#000000" stroke-width="6.3438" stroke-miterlimit="10" d="M633.246,623.035c-4.295,1.873-8.55,2.563-11.376-2.566
		c0.352-1.464,0.285-3.233,1.114-4.331c3.137-4.138,1.595-7.984,0.043-12.135c-3.66-9.803-12.551-10.296-19.436-6.937
		c-1.181,0.571-2.252,1.212-3.312,1.626c-0.183,0.279-0.481,0.471-0.937,0.423c-0.149-0.018-0.295-0.048-0.443-0.062
		c-0.748,0.102-1.505,0.014-2.306-0.358c-1.37-0.228-2.739-0.442-4.15-0.369c-0.304,0.017-0.53-0.082-0.715-0.225
		c-9.303,0.841-17.706,4.489-25.83,8.806c-5.7,3.032-11.073,6.681-16.688,9.884c-6.021,3.438-12.152,6.684-17.793,9.771
		c-2.826-3.423-5.791-7.213-8.979-10.81c-2.898-3.259-6.16-6.197-9-9.498c-9.549-9.076-17.954-19.373-26.272-29.663
		c-1.433-1.185-2.659-2.544-3.536-4.184c-3.542-6.646-0.418-12.009-1.253-18.477c-0.122-0.531-0.221-1.071-0.293-1.613
		c-0.056-0.227-0.099-0.447-0.162-0.68c-0.114-0.418-0.104-0.791-0.027-1.132c-0.034-0.519-0.07-1.032-0.087-1.558
		c-0.853-1.846-1.767-3.656-2.802-5.42c-0.134-0.229-0.175-0.451-0.23-0.676c-4.852-5.028-8.945-10.605-12.521-16.642
		c-0.984-1.664-2.866-3.021-4.63-3.966c-7.109-3.834-14.455-7.252-21.479-11.231c-4.119-2.332-7.547-5.654-8.05-10.854
		c-0.574-6.009-0.861-12.05-1.661-18.028c-0.672-5.001-1.064-10.314-3.114-14.787c-2.046-4.452-5.823-8.188-9.166-11.951
		c-5.538-6.242-12.954-9.442-20.634-12.218c-1.82-0.657-3.592-2.033-4.863-3.523c-5.305-6.229-8.873-13.352-11.473-21.181
		c-3.301-9.944-4.459-19.81-2.182-30.103c0.503,0.163,0.998,0.35,1.51,0.503c0.938,0.282,1.879,0.501,2.819,0.729
		c2.06,0.89,4.237,1.151,6.515,1.164c8.033,0.916,16.102,0.033,23.893-2.223c0.049,0.7,0.088,1.456,0.07,2.213
		c-0.191,8.532,0.832,16.944,3.126,25.131c1.107,3.957,2.745,7.665,5.291,10.875c1.05,0.949,1.978,2.084,3.192,2.599
		c1.436-5.931,1.795-12.034,4.215-17.978c2.349-5.773,5.131-11.062,8.7-16.191c8.197-11.774,20.647-21.693,31.647-31.495
		c0.026-0.06,0.055-0.112,0.081-0.169c3.767-5.691,6.545-11.646,5.859-18.59c1.203-3.347,2.1-6.963,2.734-10.69
		c0.112-0.328,0.161-0.689,0.151-1.076c1.577-10.169,1.182-21.128-1-30.188c-3.043-12.643-13.777-26.459-25.664-32.482
		c0.248-0.837,0.477-1.673,0.647-2.517c1.361-2.914,1.054-6.296,0.528-9.828c-0.034-0.221-0.087-0.434-0.122-0.653
		c-1.763-15.576-13.479-30.848-25.808-38.853c-19.441-12.625-49.439-15.509-73-11.083c-0.76,0.054-1.521,0.116-2.279,0.162
		c-0.661,0.224-1.312,0.471-1.967,0.718c-1.473,0.344-2.92,0.71-4.325,1.114c-23.284,6.694-44.457,24.559-57.258,44.688
		c-8.863,13.938-13.444,30.343-21.197,44.906c-2.057,3.862-4.933,8.159-8.366,12.276c-4.888,4.379-9.868,8.662-14.966,12.791
		c-0.831,0.675-1.684,1.336-2.551,1.988c-3.342,1.723-6.789,2.888-10.236,3.193c-2.04,0.182-3.248,1.676-3.427,3.261
		c-0.005,0.006-0.012,0.01-0.018,0.011c0.006,0.008,0.013,0.014,0.018,0.02c-0.155,1.486,0.591,3.049,2.481,3.682
		c0.463,0.154,0.928,0.325,1.39,0.487c2.75,2.737,5.728,5.191,9.155,7.116c6.667,3.747,14.002,5.518,21.611,6.176
		c8.461,0.727,16.951,1.815,25.065-1.954c1.533-0.715,3.068-1.428,4.608-2.127c3.89-1.763,7.781-3.519,11.816-5.339
		c0.603,6.488,0.844,12.338,1.759,18.078c0.94,5.882,1.714,11.775,6.118,16.691c2.346,2.612,4.149,3.371,6.785,2.307
		c0.095-3.419,0.082-6.666-1.416-9.708c-0.308-0.625,0.261-1.853,0.705-2.645c3.297-5.896,6.669-11.748,10.01-17.62
		c1.459-2.562,2.894-5.145,4.664-8.285c1.588,9.75,5.422,17.034,12.137,25.521c0.56,0.743,1.14,1.469,1.733,2.185
		c0,0,8.234,9.892,11.387,12.077c-6.4,12.408-16.648,18.462-29.994,19.729c-1.091,0.103-2.273-0.177-3.34-0.506
		c-5.733-1.771-11.243-3.912-16.487-7.032c-2.967-1.765-7.202-2.696-10.58-2.166c-2.922,0.458-5.822,1.381-8.64,2.519
		c-6.851,2.419-13.354,6.774-18.955,10.994c-3.817,2.874-8.607,6.853-10.95,11.591c-2.488,3.051-4.723,6.302-6.82,9.662
		c-1.386,1.878-2.738,3.779-4.005,5.734c-6.53,10.072-12.575,20.464-18.824,30.722c-0.88,1.448-1.602,3.018-2.638,4.344
		c-6.026,7.732-12.119,15.418-18.204,23.109c-3.159,3.989-7.646,5.868-12.293,7.883c-0.018,0.013-0.038,0.021-0.061,0.028
		c-0.006,0.005-0.011,0.006-0.016,0.007c-0.024,0.02-0.037,0.049-0.063,0.064c-1.385,0.978-3.029,1.483-4.578,2.133
		c-0.106,0.043-0.201,0.051-0.286,0.032c-0.09,0.16-0.228,0.284-0.463,0.284c-0.5,0-0.637-0.493-0.484-0.846
		c0-0.013-0.008-0.022-0.008-0.042c0.128-4.76,4.273-12.224,1.124-16.535c-2.104-2.876-7.086-2.576-10.261-2.24
		c-1.391,0.145-2.791,0.396-4.137,0.774c-0.063,0.097-0.146,0.182-0.271,0.232c-2.223,0.937-4.245,2.152-5.782,3.891
		c-1.325,2.382-2.752,4.594-2.458,7.47c0.156,1.525,0.522,2.982,0.967,4.422c1.136,1.986,3.026,2.893,4.851,4.14
		c1.76,1.198,3.328,2.649,5.225,3.644c0.007,0.006,0.007,0.009,0.013,0.016c-0.102-0.041-0.217-0.065-0.339-0.081
		c0.184,0.112,0.304,0.279,0.3,0.485c0.216,0.334-0.051,0.834-0.47,0.88c-3.005,0.316-5.918-0.479-8.796-1.264
		c-3.617-0.985-7.261-1.479-10.953-2.093c-3.231-0.534-6.847-1.046-10.166-2.121c-0.789-0.104-1.557-0.258-2.284-0.557
		c-0.032-0.002-0.059,0.008-0.096,0c-2.999-0.616-7.548-2.507-10.099,0.152c-1.434,1.494-2.006,3.394-2.197,5.396
		c0.012,0.052,0.024,0.102,0.041,0.149c0.037,0.116,0.053,0.237,0.096,0.348c-0.01,0.015-0.022,0.023-0.032,0.036
		c0.115,0.126,0.183,0.283,0.104,0.501c-0.065,0.178-0.131,0.31-0.25,0.458c-0.075,0.092-0.155,0.143-0.24,0.17
		c-0.039,0.029-0.07,0.06-0.121,0.082c-0.759,0.317-1.544,0.384-2.332,0.312c-1.169,0.147-2.333,0.335-3.477,0.617
		c-1.122,0.273-2.199,0.661-3.275,1.061c-0.378,0.062-0.758,0.146-1.137,0.197c-0.418,0.118-0.839,0.226-1.251,0.358
		c-3.745,1.225-7.955,1.804-11.1,3.935c-9.789,6.643-19.901,13.027-27.036,22.863c-3.095,4.271-6.354,8.423-9.37,12.743
		c-1.271,1.822-2.675,3.848-3.045,5.948c-1.323,7.52-4.134,14.618-5.032,22.345c-0.799,6.879-2.667,13.702-3.176,20.732
		c-0.667,9.196-1.677,18.364-2.532,27.553c-0.049,0.555-0.146,1.141-0.042,1.678c0.746,3.836,0.34,7.474-0.718,11.01
		c0.069,7.208-4.28,13.979-7.652,20.303c-1.541,3.886-3.112,7.832-4.737,11.925c-0.127-0.189-0.224-0.334-0.339-0.507
		c-2.201,5.706-5.898,10.379-9.854,14.867c-4.6,6.552-8.235,13.764-13.495,19.784c-0.157,2.083-1.425,3.831-2.515,5.582
		c-2.229,3.582-3.846,7.268-3.722,11.564c5.835,4.054,6.59,11.616,11.64,16.318c-2.723-0.63-5.188-1.415-7.291-2.763
		c-2.226-1.434-4.27-1.168-6.381-0.234c-5.522,2.437-7.502,7.606-7.878,12.794c-0.79,10.838,2.235,20.907,8.57,29.847
		c4.159,5.866,6.319,12.346,6.344,19.535c0.012,3.78-0.057,7.571,0.09,11.346c0.151,3.842,2.629,6.139,5.81,7.723
		c2.722,1.354,4.582-0.422,6.503-2.035c1.442-1.205,3.046-2.23,4.616-3.275c2.989-1.994,4.61-4.899,5.46-8.261
		c0.686-2.726,1.155-5.502,1.781-8.239c1.155-5.053,1.399-10.16,1.187-15.327c-0.183-4.481-0.374-8.982-0.143-13.456
		c0.094-1.83,1.288-3.606,2.109-5.742c1.937,1.594,3.193,2.72,4.547,3.713c1.523,1.117,3.13,2.118,4.71,3.161
		c1.925,1.27,8.162,6.562,8.248,6.518c3.275,1.531,6.293,2.943,9.312,4.355c-0.876,0.858-8.688,0.284-11.975,0.648
		c-2.785,0.312-5.224,1.87-6.364,4.929c-1.106,2.965-2.346,5.522-0.951,9.032c1.271,3.198,0.856,7.026,1.565,10.497
		c1.2,5.866,2.942,11.621,4.004,17.507c0.996,5.512,0.443,10.904-3.295,15.539c-0.704,0.874-1.632,1.934-1.644,2.921
		c-0.026,1.729,0.03,3.899,1.001,5.138c5.619,7.179,18.967,7.503,24.109,1.197c5.646-6.922,8.636-14.663,8.776-23.797
		c0.11-7.262-2.585-14.54,0.894-21.916c1.662-3.524,2.545-7.372,5.576-10.407c1.832,0.697,3.806,1.305,5.653,2.178
		c4.922,2.34,9.705,4.983,14.694,7.161c9.851,4.3,19.973,8.014,29.662,12.642c7.599,3.631,15.141,6.41,23.718,6.373
		c8.345-0.036,15.598-1.896,20.725-9.046c1.258-1.756,2.703-3.379,4.263-5.312c2.682,1.877,5.102,3.661,7.611,5.31
		c4.551,2.979,9.011,6.702,14.741,6.377c6.312-0.359,12.722-1.072,18.804-2.7c5.197-1.388,10-4.268,14.955-6.537
		c5.718-2.616,9.728-6.77,11.847-12.801c1.236-3.518,2.903-6.883,4.2-9.903c7.282,0.161,14.475-0.323,21.471,0.637
		c7.747,1.062,14.528-1.922,21.532-3.883c1.438-0.733,2.866-1.319,4.326-1.789c1.58-0.805,3.216-1.521,4.891-2.113
		c6.451-4.752,12.668-9.78,17.416-16.351c1.377-1.902,2.541-4.228,2.943-6.506c1.264-7.16-2.318-12.454-7.794-16.332
		c-6.604-4.679-13.556-8.866-20.402-13.197c-2.523-1.599-5.158-3.021-7.767-4.479c-4.6-2.574-9.358-4.896-13.79-7.725
		c-4.767-3.041-9.112-6.738-13.86-9.81c-10.096-6.531-18.34-14.971-24.972-24.833c-3.538-5.261-5.641-11.465-8.72-17.062
		c-1.153-2.097-2.071-4.247-2.826-6.445c-1.648-3.189-3.009-6.557-4.128-9.906c-2.229-6.679-3.216-13.743-2.679-20.615
		c-0.016-1.356,0.032-2.709,0.201-4.063c0.194-1.556,0.709-3.096,1.352-4.603c1.604-5.577,8.697-15.574,8.781-15.63
		c1.901-3.802,4.469-7.014,7.679-9.771c2.764-2.377,4.663-5.827,7.709-7.888c0.019-0.332,0.176-0.659,0.568-0.869
		c6.892-3.729,13.098-8.439,19.279-13.226c0.322-0.248,0.675-0.3,1.004-0.235c0.165-0.122,0.319-0.235,0.486-0.359
		c0.073,0.246,0.129,0.463,0.198,0.704c0.329,0.301,0.492,0.734,0.319,1.137c0.841,3.042,1.499,5.649,2.414,8.128
		c2.504,6.8,8.035,11.267,12.815,16.331c2.557,2.711,5.656,3.563,9.127,3.876c3.543,0.317,7.076,0.729,10.355,1.076
		c3.112,5.099,6.514,9.506,8.59,14.467c1.533,3.654,3.451,6.927,5.521,10.217c0.639,1.016,2.027,3.934,3.257,6.551
		c-0.215,0.073-0.428,0.149-0.651,0.208c-0.092-0.025-0.183-0.061-0.272-0.095c-0.035-0.034-0.071-0.069-0.11-0.105
		c-0.008-0.052-2.344-2.14-3.162-3.08c-5.054-5.802-11.571-5.553-17.634-3.116c-5.31,2.132-10.177,5.642-14.817,9.104
		c-7.128,5.321-11.472,12.977-15.338,20.75c-4.394,8.836-3.827,17.951,0.824,26.478c3.256,5.969,7.82,11.207,13.521,15.001
		c6.158,4.096,13.074,6.213,20.649,6.048c8.395-0.185,16.392,2.097,24.277,4.69c1.202,0.394,2.336,1.299,3.248,2.216
		c2.528,2.55,4.841,5.312,7.397,7.83c2.926,2.887,5.957,5.673,9.069,8.36c1.839,1.592,3.91,2.915,5.882,4.352
		c7.772,5.675,15.293,11.717,25.258,13.417c2.451,0.418,4.325,0.369,6.341-0.978c7.398-4.951,14.934-9.726,18.308-18.641
		c0.787-2.08,2.185-3.218,4.69-3.346c6.177-0.323,12.33-1.152,18.503-1.478c3.591-0.188,6.743-1.124,9.541-3.172
		c0.257-0.322,0.516-0.642,0.84-0.918c2.362-1.979,4.866-3.796,7.082-5.939c0.304-0.297,0.597-0.604,0.894-0.908
		c0.58-1.088,1.121-2.189,1.605-3.323c0.358-0.854,0.933-2.208,0.998-2.376c0.205-0.479,0.421-0.957,0.632-1.435
		c0.081-0.41,0.179-0.809,0.339-1.187c3.245-7.71,1.876-15.6-0.729-22.581c-2.779-7.438-7.763-14.166-12.396-20.773
		c-3.004-4.287-4.132-8.8-4.137-13.731c-0.004-4.325,0.433-8.656,0.658-12.986c0.383-7.236-3.262-11.926-9.305-15.42
		c-3.398-1.963-6.574-4.415-9.537-7.008c-2.066-1.812-3.335-4.548-5.424-6.337c-5.993-5.134-13.288-6.518-20.979-7.021
		c-5.526-0.367-10.221,1.271-13.967,4.913c-4.48,4.354-8.017,9.522-8.795,16.003c-0.535,4.421-3.146,8.343-2.805,13.029
		c0.104,1.468-1.135,3.175-2.087,4.544c-0.127,0.182-0.258,0.331-0.389,0.477c-0.347,0.697-0.855,1.255-1.726,1.229
		c-0.926-0.025-1.387-0.856-1.842-1.53c-0.596-0.883-0.931-1.568-1.121-2.584c-6.396-14.271-12.59-28.088-18.852-42.061
		c1.443-3.259,3.929-5.988,7.158-8.068c3.068-1.985,4.58-4.771,4.795-8.465c0.371-6.381-0.944-12.306-4.676-18.061
		c9.164-3.192,17.703-6.748,21.721-16.597c1.172,0.457,2.626,0.629,3.48,1.433c3.563,3.337,7.198,6.658,10.297,10.403
		c1.859,2.25,3.375,5.142,4.025,7.976c2.523,11.006,7.531,20.633,14.284,29.637c4.939,6.586,11.756,9.004,19.124,9.299
		c6.854,0.273,13.777-1.211,21.013-1.953c0.496,0.566,1.403,1.989,2.649,2.992c15.354,12.279,28.333,27.023,42.417,40.622
		c5.672,5.473,11.548,10.753,17.58,15.834c3.886,3.273,9.236,2.892,13.262-0.117c4.665-3.484,6.535-8.339,7.361-13.853
		c0.305-2.008,0.415-4.652,1.695-5.781c2.608-2.304,5.969-3.76,8.995-5.602c0.871-0.528,1.747-1.078,2.685-1.672
		c0.521-0.446,1.115-0.826,1.737-1.174c0.186-0.145,0.339-0.299,0.53-0.437c7.521-5.598,14.978-9.798,23.646-13.311
		c6.214-2.517,12.221-7.174,19.457-4.243c0.231,0.097,0.469,0.199,0.699,0.302c1.062,0.34,2.062,0.851,2.97,1.513
		c10.614,6.174,19.235,19.604,6.866,29.938c-13.885,11.604-24.831,24.291-40.688,33.576c-5.167,3.027-10.351,7.093-15.919,9.479
		c-0.422,0.219-0.833,0.445-1.26,0.646c-7.961,3.767-16.407,6.544-24.785,9.333c-3.514,1.171-7.552,2.279-11.053,1.678
		c-9.627-1.645-13.651-10.936-9.399-20.161c0.431-1.468,0.98-2.896,1.521-4.221c1.687-4.195,3.941-8.15,6.457-11.901
		c0.52-1.311,0.411-2.924,0.616-4.44c-1.02,0-1.57-0.16-1.725,0.021c-5.396,6.315-10.267,12.939-13.059,20.911
		c-2.311,6.589,0.286,12.184,3.293,17.674c0.141,0.25,0.332,0.478,0.531,0.699c0.604,0.523,1.231,1.005,1.918,1.427
		c0.042,0.026,0.039,0.066,0.068,0.095c0.314,0.183,0.626,0.355,0.926,0.519c1.281,0.688,2.772,0.972,4.905,1.672
		c-0.91,3.962-1.663,7.774-2.68,11.519c-1.38,5.056-1.734,10.089,0.158,15.031c1.663,4.353,4.68,7.287,9.627,7.498
		c3.2,0.143,6.423,0.263,9.616,0.078c1.423-0.084,3.115-0.604,4.109-1.542c0.885-0.834,0.973-2.512,1.396-3.767
		c6.871,1.206,13.611,2.568,17.58-4.674c3.23,1.562,5.957,3.31,8.949,4.218c3.31,1.008,6.48,0.369,9.564-1.832
		c3.003-2.144,3.526-4.867,3.418-7.206c3.136-1.364,6.816-1.813,8.187-3.83c2.162-3.182,4.87-4.339,8.127-5.269
		c2.685-0.763,5.386-1.526,7.985-2.53c1.379-0.531,2.838-1.339,3.752-2.445c0.844-1.019,1.017-2.598,1.467-3.87
		c7.144-0.689,8.774-5.953,9.796-11.599c7.93-0.118,13.125-5.118,13.82-13.229c9.558-4.556,9.912-12.558,7.507-21.312
		C636.602,643.413,639.141,631.438,633.246,623.035z M410.328,379.518c-3.817,2.329-7.607,3.388-12.221,3.752
		c-3.91,0.312-9.896,1.726-13.188-0.982c0.039-0.053,0.063-0.114,0.11-0.161c-0.016-0.03-0.021-0.066-0.036-0.1
		c0.028,0.062,0.085,0.044,0.14,0.021c0.037-0.036,0.081-0.059,0.12-0.09c1.351-1.36,6.79-16.33,7.343-18.194
		c2.34-7.909,3.761-16.142,4.856-24.309c1.938-14.412,4.284-32.255-1.143-46.283c5.193,1.792,10.137,1.896,15.081,1.328
		c0.192,0.154,0.369,0.347,0.524,0.585c5.908,9.029,9.428,21.521,10.407,34.026C422.935,346.772,418.25,363.207,410.328,379.518z
		 M429.011,340.583c0.041-0.179,0.097-0.356,0.136-0.535c0.052-0.237,0.086-0.495,0.129-0.745c-0.021-0.333-0.024-0.667-0.095-0.995
		c-0.085-0.418-0.053-0.795,0.039-1.138c-0.095-1.791-0.14-3.582,0.148-5.37c-0.011-4.202-0.272-8.466-0.849-12.819
		c-0.371-5.32-1.369-10.56-3.515-15.506c-1.233-2.847-2.713-6.994-4.771-10.443c0.544-0.105,1.086-0.208,1.632-0.311
		c0.165,0.116,0.325,0.247,0.463,0.397c1.702,0.047,3.465,0.104,5.326,0.104c2.409,10.378,6.188,21.05,13.01,30.191
		c6.504,8.714,11.81,18.737,22.867,23.484c-1.4,1.748-2.853,3.449-4.366,5.086c-0.702,0.564-1.401,1.129-2.104,1.693
		c-1.416,1.562-2.918,3.046-4.385,4.58c-0.092,0.108-0.177,0.221-0.266,0.33c-9.803,8.688-21.317,15.352-33.705,19.662
		C424.23,365.903,427.891,353.517,429.011,340.583z M456.753,368.592c-5.86,5.641-12.029,11.459-16.774,18.101
		c-0.171,0.238-0.341,0.481-0.512,0.724c-8.261,8.891-11.807,14.818-14.519,25.86c-0.899,2.687-1.59,5.451-2.018,8.311
		c-3.812-11.747-4.628-23.161-3.18-35.069c4.635-1.778,9.121-4.037,13.425-6.618c12.352-6.064,23.483-14.501,32.657-24.836
		C463.154,359.818,461.008,364.495,456.753,368.592z M466.969,342.326c-0.212,0.3-0.425,0.605-0.642,0.906
		c-2.711-2.521-5.376-4.481-7.331-6.991c-9.004-11.552-17.253-23.557-21.771-37.741c-0.79-2.482-2.289-4.75-4.061-8.037
		c2.009,1.546,4.542,2.384,6.86,3.409c5.326,2.363,10.386,6.065,15.176,9.351c5.39,3.695,9.616,7.92,12.673,13.72
		c2.25,4.258,2.327,9.166,3.182,13.847C469.999,334.587,468.528,338.358,466.969,342.326z M457.444,282.777
		c3.559,3.449,6.661,7.681,9.105,12.01c1.922,3.735,3.271,7.68,3.688,11.465c-0.866-0.59-1.717-1.171-2.576-1.759
		c-0.527-0.568-1.022-1.146-1.591-1.702c-4.251-4.183-9.688-7.417-14.702-10.559c-1.564-0.979-3.682-1.892-5.859-2.854
		c-2.238-1.529-4.47-3.051-6.725-4.588c2.604-2.744,5.029-5.299,7.468-7.861C449.857,277.249,453.803,279.469,457.444,282.777z
		 M320.639,343.214c-0.119,0.181-0.251,0.334-0.391,0.464c-1.739,3.329-3.396,6.689-4.503,10.309
		c-0.761,2.487-4.774,2.114-4.647-0.629c0.055-1.185-0.155-2.379-0.296-3.55c-0.014-0.114-0.005-0.216-0.005-0.324
		c-0.423-3.47-0.721-6.994-0.176-10.443c0.628-3.985,2.833-7.586,3.513-11.5c-0.078-0.065-0.149-0.131-0.228-0.196
		c-0.211-1.142-0.974-2.164-2.456-2.546c-8.883-2.28-19.562,6.415-26.76,10.401c-8.191,4.535-14.316,6.371-23.814,4.701
		c-6.357-1.116-12.449-3.766-18.507-6.354c14.493-6.367,26.177-21.507,33.058-34.438c4.292-8.063,7.572-16.594,11.179-24.974
		c1.675-3.279,3.282-6.586,4.635-9.993c0.034-0.085,0.08-0.164,0.115-0.249c0.539-1.065,1.07-2.136,1.643-3.188
		c6.37-11.69,15.692-21.412,26.341-29.273c22.783-16.817,48.301-21.094,75.443-16.168c3.426,1.09,6.817,2.425,10.32,2.804
		c6.803,0.739,12.385,4.348,18.354,7.012c3.651,2.225,7.079,4.875,10.142,8.174c8.654,9.318,15.731,23.997,11.301,36.648
		c-0.128,0.369-0.182,0.709-0.195,1.036c-0.608,0.405-1.186,0.837-1.646,1.366c-8.823,10.082-20.783,12.827-33.266,14.281
		c-2.609,0.304-5.282,0.045-8.528,0.045c-0.825-2.837-2.783-3.802-5.825-4.015c-8.258-0.583-15.795,1.82-22.7,5.782
		c-9.562,5.487-18.359,12.114-26.577,19.474c-0.094,0.393-0.27,0.776-0.655,1.121C334.768,318.673,328.443,331.292,320.639,343.214z
		 M349.339,343.786c-1.088,3.769-0.394,8.038-0.647,12.069c-0.121,1.953-0.31,3.928-0.523,6.073
		c-5.46-7.468-9.021-16.338-9.859-26.218c-0.047-0.535-0.265-0.943-0.539-1.288c0.082-1.927,0.176-3.853,0.306-5.774
		c0.098-1.437,0.663-2.984,1.45-4.204c1.418-2.218,2.828-4.643,4.832-6.249c8.896-7.142,17.944-14.104,26.988-21.067
		c-4.439,4.959-8.201,10.665-11.334,15.355c-6.449,9.652-9.019,19.067-9.996,29.065
		C349.791,342.295,349.557,343.038,349.339,343.786z M353.965,368.599c-0.062-0.062-0.136-0.117-0.199-0.181
		c0.012-0.051,0.021-0.099,0.032-0.148c0.027-0.008,0.052-0.022,0.082-0.026c-0.489-2.199-0.599-4.586-0.59-6.902
		c0.003-0.631,0.125-1.177,0.308-1.679c-0.035-0.326-0.08-0.646-0.109-0.973c-0.143-0.367-0.178-0.756-0.081-1.148
		c-0.679-11.861,3.409-25.622,7.491-34.003c1.936-3.969,7.146-17.088,13.373-22.866c3.201-4.562,7.89-8.284,13.422-8.532
		c0.689-0.034,1.191,0.208,1.564,0.564c0.217,0.109,0.413,0.243,0.553,0.426c1.584,2.03,1.971,4.234,2.041,6.553
		c0.049,0.146,0.111,0.286,0.14,0.428c0.317,1.571,0.573,3.136,0.581,4.747c0.013,1.438-0.051,2.873-0.137,4.307
		c0.983,12.435-1.359,25.974-3.213,37.183c-1.346,8.138-3.551,16.026-6.018,23.876c-1.398,3.122-2.932,6.288-4.536,9.721
		c-0.271,0.379-0.45,0.772-0.549,1.172c-0.084,0.185-0.166,0.352-0.251,0.536c-4.491-1.774-8.988-3.548-13.502-5.326
		c-0.901,0.452-1.999,0.606-3.268,0.228C356.812,375.272,354.846,372.218,353.965,368.599z M322.369,402.326
		c7.871,2.67,15.68,5.013,23.933,0.991c8.988-4.385,15.257-10.748,16.806-21.657c0.496,0.148,0.967,0.293,1.453,0.441
		c2.398,1.347,4.885,2.584,7.467,3.682c-2.791,9.509-3.623,18.807-0.85,27.794c2.852,9.25,6.387,18.414,13.68,26.594
		c-3.793,0-6.375,0.263-8.888-0.051c-7.274-0.904-14.504-2.188-21.786-3.037c-5.211-0.606-9.752-2.411-13.871-5.663
		c-3.967-3.13-8.359-5.741-12.203-9.009c-7.071-6.011-12.369-13.269-14.862-23.394C316.884,400.34,319.608,401.386,322.369,402.326z
		 M191.227,510.649c0.068-0.011,0.118-0.054,0.193-0.061c7.872-0.845,14.894,0.978,22.396,3.227
		c5.318,1.594,10.918,2.533,15.493,5.853c7.434,5.39,3.317,15.313-3.315,19.121c-9.77,5.609-21.023,6.27-29.4-2.69
		c-5.189-5.546-11.736-16.778-7.413-24.337C189.681,510.887,190.459,510.6,191.227,510.649z M180.286,505.49
		c0.44-1.574,1.86-2.476,3.97-2.066c0.036,0.008,0.068,0.029,0.104,0.037c0.075-0.014,0.134-0.062,0.219-0.048
		c1.079,0.191,2.432,1.029,3.297,2.117c0.345,0.351,0.56,0.725,0.67,1.114c0.203,0.548,0.252,1.119,0.07,1.681
		c-0.081,0.26-0.215,0.487-0.356,0.716c-0.007,0.043-0.005,0.084-0.017,0.128c-0.048,0.197-0.172,0.283-0.314,0.333
		c-0.584,0.709-1.399,1.289-2.27,1.768c-0.679,0.676-1.523,1.119-2.617,1.193c-0.192,0.013-0.33-0.096-0.432-0.234
		c-0.043-0.002-0.092,0.019-0.136,0.016c-0.699-0.384-1.285-1.044-1.798-1.695c-0.152-0.456-0.228-0.932-0.27-1.421
		c0.022-0.13,0.017-0.26-0.018-0.386c-0.005-0.172-0.029-0.342-0.023-0.516c-0.068-0.066-0.144-0.615-0.164-0.729
		c-0.005-0.035-0.007-0.275-0.007-0.457c0.014-0.017,0.022-0.038,0.037-0.051c0.003-0.006,0.003-0.008,0.007-0.015
		c-0.023-0.411,0.002-0.832,0.064-1.277c0.006-0.038,0.039-0.042,0.049-0.076C180.331,505.579,180.314,505.533,180.286,505.49z
		 M175.028,497.237c-3.75-7.755,2.719-14.388,9.63-13.954c3.048,0.015,4.821,1.283,4.384,4.393
		c-0.533,3.801-1.517,7.794-3.401,11.075C183.291,502.854,177.123,501.573,175.028,497.237z M138.188,501.617
		c-0.434-3.771,6.188-2.34,11.642-0.542c2.848,0.443,5.709,0.842,8.509,1.431c6.29,1.322,12.506,3.149,18.67,4.968
		c-1.843,3.784-4.855,3.593-8.471,3.783c-4.967,0.254-10.102-0.632-14.994-1.312c-3.247-0.451-6.384-1.113-9.438-2.155
		c-1.388-0.635-2.824-1.157-4.138-1.945c-1.573-0.941-2.1-2.612-1.758-4.183C138.208,501.643,138.19,501.637,138.188,501.617z
		 M31.625,810.354c-2.767-1.188-2.92-3.721-2.97-6.149c-0.067-3.367,0.34-6.758,0.142-10.109
		c-0.458-7.758-2.352-14.848-6.776-21.673c-4.862-7.506-8.405-15.959-7.991-25.422c0.146-3.355,1.185-6.198,3.135-8.629
		c6.546-0.324,9.618,3.848,12.058,8.53c2.6,4.986,4.748,10.205,7.181,15.275c3.954,8.241,5.946,17.248,6.787,26.031
		C44.216,798.961,42.525,804.689,31.625,810.354z M44.15,760.42c-4.835-4.494-9.601-9.051-9.535-17.164
		c4.563,2.899,8.792,5.454,11.352,9.988C46.968,755.018,46.849,755.086,44.15,760.42z M84.719,829.741
		c-1.382,3.539-2.215,7.484-5.438,10.362c-4.629,4.128-8.563,4.541-13.52,0.893c-2.153-1.588-2.672-3.21-0.946-5.11
		c6.998-7.714,2.383-27.727,1.674-28.793c-5.067-7.607-5.557-15.687-2.439-24.109c0.298-0.798,0.997-1.448,1.275-1.839
		c3.452,1.517,6.102,2.609,8.689,3.842c0.989,0.471,2.171,1.057,2.684,1.927c2.089,3.544,3.982,7.204,5.88,10.856
		c0.601,1.153,0.775,2.57,1.499,3.617C90.515,810.709,88.391,820.344,84.719,829.741z M89.067,793.771
		c-3.625-4.077-7.066-7.944-10.54-11.852c6.973-5.021,11.264,1.334,16.815,2.581C93.111,787.797,91.24,790.562,89.067,793.771z
		 M249.246,585.138c-7.461,6.863-10.937,16.1-15.463,24.73c-2.043,3.898-3.636,8.091-5.228,12.097
		c-1.693,4.263-1.044,9.576-0.919,14.423c0.248,9.646,5.008,17.895,8.814,26.402c4.399,9.847,11.098,18.168,18.637,25.642
		c5.812,5.763,11.223,12.008,18.554,16.268c8.125,4.726,15.562,10.622,23.566,15.578c8.322,5.153,16.988,9.747,25.445,14.689
		c2.441,1.425,4.809,3.042,6.979,4.852c6.411,5.334,7.178,11.377,1.52,17.354c-4.905,5.18-10.58,9.629-15.903,14.422
		c-1.269,1.141-2.684,1.798-4.195,2.215c-5.142,3.04-11.705,4.547-17.777,3.82c-5.819,0.078-11.642,0.026-17.462-0.048
		c-1.74-0.022-3.324-0.38-4.824-0.931c-1.449,1.678-3.073,3.201-4.849,4.53c-2.247,6.809-6.279,11.788-11.861,15.605
		c-5.902,4.041-11.964,7.776-18.776,10.181c-8.179,2.889-16.156,3.108-23.887-1.344c-2.776-1.597-5.494-3.291-8.255-4.917
		c-4.415-2.591-4.586-2.93-3.841-8.152c0.513-3.589,0.237-4.017-3.746-5.564c-0.163,1.345-0.275,2.639-0.485,3.916
		c-1.735,10.528-10.75,18.151-21.601,18.685c-10.061,0.494-19.376-1.922-28.467-6.003c-8.423-3.78-17.153-6.892-25.502-10.821
		c-8.112-3.822-15.873-8.38-23.858-12.477c-3.676-1.888-7.451-3.62-11.3-5.112c-6.568-2.547-12.655-5.804-17.804-10.679
		c-0.955-0.906-1.913-1.895-3.051-2.507c-4.302-2.31-7.378-5.619-9.311-10.136c-1.357-3.181-3.923-5.34-6.548-7.617
		c-4.379-3.797-8.405-8.092-12.073-12.59c-3.416-4.194-6.152-8.94-9.253-13.398c-0.4-0.576-1.198-0.876-2.145-1.534
		c5.017-9.008,10.644-17.658,17.403-25.484c9.527-11.031,16.381-23.407,20.072-37.522c0.811-3.107,1.748-6.188,2.582-9.29
		c0.537-2.008,1.368-4.026,1.409-6.056c0.167-8.23,0.15-16.438,1.463-24.629c0.856-5.354,0.453-10.906,1.232-16.28
		c1.674-11.526,3.732-23,5.665-34.489c0.99-5.882,3.461-11.057,7.198-15.74c3.153-3.948,5.664-8.434,9.006-12.194
		c2.974-3.352,6.642-6.101,10.112-8.981c1.736-1.438,3.946-2.353,5.542-3.913c2.813-2.751,10.609-7.628,17.349-11.128
		c1.413-0.479,2.807-1.021,4.228-1.521c2.883-1.021,6.041-1.202,9.074-1.261c0.195-0.006,0.361-0.047,0.506-0.115
		c3.291,2.413,8.305,3.132,12.469,3.811c2.358,0.584,4.728,1.06,7.111,1.399c6.208,1.192,12.32,1.742,18.012-0.534
		c0.587-0.133,1.175-0.303,1.764-0.462c0.844-0.43,1.66-1.174,2.586-1.023c1.213,0.202,1.905,1.642,2.902,2.23
		c0.215,0.129,0.281,0.32,0.268,0.509c0.127,0.231,0.115,0.532-0.074,0.721c-3.685,3.868-5.864,9.892-6.966,15.261
		c-0.229,0.768-0.35,1.236-0.35,1.236l0.021-0.044c-0.765,2.278-1.354,4.634-1.524,7.183c-0.259,3.881-0.529,7.819-0.369,11.714
		c0.06,1.461,0.258,5.856,0.983,10.446c0.431,1.066,0.936,2.061,1.693,2.743c1.44,1.301,3.384,1.95,5.251,2.398
		c2.59,0.621,5.497,0.806,7.542-0.659l0.148-0.109c0.655-0.507,1.217-1.184,1.637-2.091c0.026-0.056,0.075-0.056,0.106-0.092
		c0.587-2.673,0.344-5.511-1.102-8.412c-1.507-3.026-2.987-5.842-4.101-8.756c0.08,0.673,0.157,1.347,0.245,2.019
		c0.253,1.941,0.964,3.703,1.558,5.512c0.809,0.962,1.057,2.259,0.836,3.553c0.003,0.031,0.011,0.062,0.014,0.093
		c0.128,1.288-0.226,2.278-0.853,2.985c-0.229,0.544-0.586,1.022-1.058,1.401c-0.145,0.245-0.332,0.472-0.572,0.665
		c-1.902,1.533-4.625,1.378-6.359-0.218c-0.098-0.219-0.178-0.445-0.261-0.671c-0.75-0.363-1.4-0.893-1.852-1.53
		c-0.791-0.354-1.457-0.883-1.84-1.646c-1.678-3.347-1.023-7.244-0.526-10.813c0.104-0.753,0.212-1.497,0.319-2.242
		c-0.302-3.097-0.521-6.198-0.749-9.306c-0.194-2.664,1.405-4.214,3.379-4.667c0.776-4.266,2.253-8.838,4.595-12.249
		c-0.589,3.489-1.084,7.022-1.38,10.561c0.147,0.15,0.255,0.349,0.281,0.605c0.05,0.492,0.125,0.981,0.195,1.472
		c0.64,0.294,1.224,0.712,1.701,1.253c0.23-4.812,0.926-9.634,1.743-14.306c-0.023,0.418-0.065,0.831-0.118,1.233
		c0.656,6.886,2.29,13.956,7.217,19.125c3.085,3.233,6.982,5.319,10.467,8.075c0.711,0.562,1.673,1.233,2.369,2.022
		c0.061,0.048,0.132,0.056,0.175,0.14c0.001,0.004,0.006,0.005,0.007,0.009c0.067,0.027,0.135,0.015,0.197,0.066
		c1.65,1.431,3.455,2.686,4.875,4.352c0.313,0.225,0.645,0.429,0.938,0.679c0.031,0.024,0.019,0.059,0.041,0.087
		c4.534,3.388,9.084,6.795,13.616,10.258c4.579,3.499,9.775,5.525,15.251,7.127c5.214,1.528,10.31,3.466,16.104,5.44
		C253.308,579.924,251.645,582.93,249.246,585.138z M375.418,641.227c-0.074-0.215-0.064-0.398-0.025-0.569
		c-0.027-0.061-0.053-0.12-0.078-0.177c-0.065-0.05-0.131-0.099-0.205-0.147c0.033-0.043,0.06-0.075,0.09-0.111
		c-0.506-1.11-0.971-2.239-1.321-3.411c-0.013-0.045,0-0.08-0.012-0.124c-0.058-0.122-0.11-0.238-0.179-0.357
		c-0.312-0.065-0.471-0.325-0.442-0.603c-0.548-1.064-0.929-1.8-1.468-2.839c1.26-0.438,2.388-0.827,3.484-1.207
		c0.026-0.024,0.035-0.057,0.064-0.083c1.836-1.567,3.111-3.531,4.402-5.488c1.617-4.054,3.627-8.143,4.336-12.454
		c1.141-6.932,4.521-12.286,9.209-17.036c1.342-1.354,3.344-2.764,5.119-2.868c7.802-0.457,15.223,1.048,19.854,8.064
		c2.8,4.247,6.283,7.474,10.456,10.109c5.87,3.709,7.897,9.007,7.719,15.861c-0.163,5.989,0.455,12.052,1.302,18.003
		c0.409,2.88,1.735,5.831,3.343,8.298c3.077,4.729,6.812,9.023,9.967,13.706c2.086,3.099,3.8,6.479,5.352,9.886
		c0.214,0.469,0.415,0.947,0.599,1.436c0.151,0.131,0.291,0.291,0.367,0.523c0.374,1.116,0.634,2.211,0.791,3.282
		c1.405,3.151,0.439,6.882-1.643,9.865c-0.401,0.81-0.857,1.592-1.374,2.352c-1.541,3.286-3.003,6.609-5.629,9.264
		c-2.301,2.335-4.781,4.197-8.259,4.363c-3.204,0.153-6.404,0.458-9.599,0.788c-4.661,0.49-9.363,0.811-13.962,1.67
		c-4.56,0.85-7.543,3.952-9.557,8.08c-2.428,4.975-5.469,9.429-10.331,12.454c-2.075,1.289-3.731,1.312-6.224,0.747
		c-6.932-1.579-11.896-6.275-17.594-9.815c-0.473-0.293-0.769-0.902-1.258-1.136c-6.824-3.275-11.938-8.484-16.133-14.607
		c-4.534-6.608-11.133-9.123-18.645-10.44c-7.232-1.265-14.399-2.503-21.775-3.086c-8.247-0.648-15.211-5.039-20.596-11.658
		c-3.761-4.631-6.889-9.768-7.13-15.588c-0.198-4.637,0.789-9.82,2.875-13.943c3.028-5.97,7.253-11.409,11.457-16.688
		c4.108-5.154,10.047-7.904,16.144-10.077c4.809-1.708,6.551-1.055,9.77,2.992c0.797,1.001,2.731,2.913,2.901,2.823
		c0.502,0.296,1.058,0.518,1.53,0.688c1.41,0.509,2.771,0.031,4.101-0.438c0.022,0.051,0.058,0.111,0.079,0.153
		c4.26,8.148,8.379,16.366,12.586,24.541c1.755,3.414,4.079,6.016,7.913,6.556c0.071-0.025,0.114-0.075,0.194-0.095
		c7.945-1.854,13.004-9.125,17.354-15.711C375.98,645.174,376.129,643.279,375.418,641.227z M354.749,609.679
		c4.063,8.05,8.419,15.954,12.64,23.922c0.617,1.166,1.098,2.413,1.812,3.514c2.71,4.177,2.01,8.205-0.613,12.019
		c-2.171,3.164-4.5,6.236-7.01,9.135c-0.718,0.834-2.304,0.91-4.06,1.54c-3.938-7.991-7.724-15.729-11.561-23.44
		c-5.096-10.246-10.17-20.501-15.409-30.678c-1.069-2.078-2.819-3.81-4.473-5.977c4.192-1.9,7.683-3.762,12.077-3.995
		c2.723-0.146,5.339-2.315,8.377-3.754C349.23,597.822,351.802,603.846,354.749,609.679z M353.579,568.917
		c-1.158,2.119-2.683,4.175-4.472,5.793c-3.703,3.349-6.325,7.351-8.362,11.829c-0.959,2.104-1.94,3.261-4.97,3.08
		c-3.963-0.237-8.019,1.193-12.047,1.823c-0.992,0.152-2.037,0.048-3.049-0.043c-3.916-0.354-7.841-0.646-11.73-1.183
		c-1.616-0.224-3.551-0.561-4.666-1.584c-5.249-4.828-10.572-9.611-12.284-17.115c-0.646-2.83-2.314-5.43-3.528-8.166
		c8.667-5.988,18.1-9.252,28.458-9.856c0.564-0.035,1.205,0.033,1.673-0.211c8.305-4.297,17.718-2.388,26.388-4.692
		c1.91-0.514,4.07-0.077,6.906-0.077c1.134,4.853,2.529,9.673,3.276,14.599C355.45,564.942,354.527,567.175,353.579,568.917z
		 M367.516,536.9c-4.473,3.271-9.039,5.994-15.086,5.292c-3.092-0.363-6.33,0.608-9.511,0.867
		c-5.229,0.431-10.468,0.778-15.703,1.128c-0.551,0.038-1.2-0.372-1.664-0.198c-10.251,3.864-21.633,3.139-31.678,7.827
		c-8.993,4.198-17.57,9.108-25.121,15.574c-3.177,2.726-6.145,3.62-10.224,2.145c-4.608-1.668-9.272-3.188-13.93-4.725
		c-6.009-1.378-12.041-3.622-17.672-5.88c-5.72-2.289-11.112-5.205-16.317-8.478c-0.056-0.018-0.105,0.013-0.164-0.023
		c-0.562-0.329-1.105-0.646-1.598-1.077c-0.036-0.026-0.022-0.067-0.047-0.099c-0.582-0.326-1.143-0.673-1.629-1.083
		c-0.438-0.37,0.03-1.218,0.576-0.989c3.602,1.505,7.092,2.943,11.08,2.543c0.017-0.004,0.021,0.012,0.037,0.012
		c0.027-0.004,0.053-0.021,0.079-0.023c9.728-1.695,14.977-8.255,17.6-17.014c1.943-6.494-0.464-11.893-5.617-16.49
		c-6.788-6.058-15.324-6.738-23.491-8.677c-3.449-0.817-6.95-1.412-11.333-2.291c1.436-1.155,2.095-1.934,2.934-2.324
		c9.596-4.523,15.765-12.509,21.816-20.812c4.173-5.729,9.28-10.769,13.79-16.264c0.297-0.363,0.561-0.753,0.819-1.148
		c0.265-0.253,0.495-0.563,0.633-0.988c0.022-0.069,0.05-0.133,0.071-0.2c0.624-1.146,1.169-2.349,1.708-3.527
		c0.337-0.733,0.416-1.61,0.579-2.429c0.315-0.724,0.633-1.442,0.968-2.156c5.313-8.522,10.673-17.021,16.174-25.426
		c1.689-2.581,3.85-4.854,5.803-7.262c0.336-0.242,0.579-0.583,0.702-1.029c0.133-0.227,0.269-0.448,0.458-0.608
		c6.394-5.494,12.73-11.063,19.264-16.383c0.873-0.712,1.794-1.357,2.732-1.981c0.182-0.091,0.355-0.193,0.539-0.281
		c0.301-0.142,0.519-0.334,0.702-0.535c1.581-0.997,3.2-1.942,4.787-2.927c5.069-3.146,10.261-3.456,15.787-0.205
		c2.385,10.789,9.358,19.481,16.593,27.55c4.487,5.004,11.272,7.97,17.082,11.763c1.248,0.815,2.813,1.138,4.089,1.923
		c7.344,4.518,15.551,5.266,23.868,5.706c3.521,0.188,7.026,0.708,10.833,1.104c0.253,2.312-1.146,3.645-2.525,5.188
		c-3.377,3.782-6.945,7.488-9.716,11.697c-5.464,8.312-7.893,17.858-9.719,27.513c-0.771,4.057-0.976,8.217-1.37,12.342
		c-0.468,4.855,0.975,9.288,3.273,13.465c1.992,3.633,4.089,7.209,6.244,10.746c0.56,0.924,1.429,1.716,2.295,2.381
		C371.434,533.271,371.514,533.984,367.516,536.9z M451.25,582.131c-8.485,5.628-17.588,5.484-26.908,2.95
		c-4.94-1.341-7.513-5.299-9.664-9.575l0.18,0.198c-5.271-6.086-8.641-13.102-10.155-20.991
		c-2.326-12.119-9.813-19.975-20.681-24.96c-4.75-2.178-9.709-3.909-14.432-6.139c-3.509-1.66-5.062-5.091-6.402-8.533
		c-1.832-4.71-3.649-9.423-5.414-13.978c0.406-2.78,0.718-5.633,1.254-8.44c1.826-9.609,3.019-19.485,10.979-26.589
		c0.811-0.722,1.229-1.875,1.846-2.816c5.129-7.864,11.844-13.374,21.5-14.569c2.11-0.262,4.144-0.494,5.692,1.42
		c0.226,0.275,0.593,0.535,0.937,0.605c8.745,1.819,13.352,8.551,18.018,15.188c3.025,4.306,3.751,9.402,4.465,14.4
		c0.749,5.212,0.87,10.511,1.543,15.735c0.253,1.967,0.967,4.031,2.03,5.69c2.229,3.483,4.517,7.024,7.364,9.978
		c2.514,2.604,5.654,4.734,8.823,6.54c4.296,2.449,8.868,4.415,13.347,6.536c5.433,2.569,7.957,7.86,11.504,12.195
		c1.426,1.744,2.456,3.827,3.948,5.509c5.105,5.763,5.524,12.467,4.316,19.593c-0.261,1.524-0.202,3.101-0.324,5.179
		c-4.812,0.507-7.284,5.536-11.45,8.228c-2.343,1.512-4.791,2.869-7.245,4.199C454.668,580.576,452.795,581.104,451.25,582.131z
		 M515.414,647.545c-6.307-7.638-11.854-15.475-17.998-22.672c-5.966-6.99-13.349-12.963-19.919-19.594
		c-6.862-6.928-14.158-13.422-20.652-19.532c4.458-4.016,9.117-8.002,13.53-12.241c3.863-3.709,8.029-3.426,10.959,1.148
		c5.503,8.598,12.599,15.918,19.259,23.545c9.507,10.896,19.576,21.3,29.769,32.303
		C528.227,638.825,523.916,644.876,515.414,647.545z M513.843,719.067c-4.041,0.685-5.128-1.956-5.955-4.439
		c-1.1-3.3-0.292-6.179,0.454-9.471c0.88-3.869,2.678-9.04-0.163-11.405h6.013C512.92,700.85,511.346,710.401,513.843,719.067z
		 M517.617,719.754c-0.435-3.205-1.378-5.771-0.962-8.101c1.002-5.646,2.638-11.178,4.026-16.754
		c0.467-1.866,1.411-3.009,3.837-2.139c0.563,7.6-1.454,15.62,3.197,23.454C524.443,717.364,521.391,718.432,517.617,719.754z
		 M540.528,709.047c-0.091,2.938-2.564,4.371-5.253,5.003c-1.432,0.334-2.943,0.343-4.488,0.509
		c-2.829-2.442-3.213-5.83-2.855-9.152c0.604-5.576,1.644-11.105,2.545-16.956c3.334-0.909,6.738-1.836,10.139-2.766
		C540.614,693.568,540.775,701.314,540.528,709.047z M602.012,603.146c4.228-1.614,7.043-2.729,10.016-3.48
		c2.541-0.645,4.308,0.785,5.572,3.161c2.221,4.176,1.643,8.076,0.283,12.228c-0.911,2.777-1.572,5.356,1.796,7.723h-6.128
		C613.855,615.679,611.894,607.233,602.012,603.146z M546.322,710.102c0-4.881-0.299-9.741,0.086-14.553
		c0.365-4.559,1.443-9.062,2.355-14.467c0.398-0.261,1.604-1.052,3.06-2.008c3.667,10.428,5.588,21.142,10.956,31.054
		C557.236,714.194,552.802,714.144,546.322,710.102z M565.316,706.734c-2.865-3.071-4.586-6.508-4.48-10.924
		c0.052-2.148-0.672-4.331-1.181-6.465c-0.905-3.801-1.918-7.574-2.941-11.583c2.752-1.396,5.049-2.565,7.694-3.909
		c3.875,9.191,7.562,17.951,11.444,27.169C574.265,705.383,569.01,704.521,565.316,706.734z M582.354,699.219
		c-4.537-9.592-8.814-18.619-13.241-27.971c1.902-1.499,4.202-3.313,7.055-5.562c4.339,9.801,8.499,19.192,12.91,29.16
		C587.055,696.162,585.056,697.463,582.354,699.219z M593.148,690.847c-1.201-2.054-2.572-3.97-3.507-6.078
		c-2.395-5.413-4.395-11.008-6.938-16.344c-2.332-4.898-0.23-9.91,5.076-11.055c1.847-0.399,2.728,0.593,3.349,2.19
		c1.089,2.797,2.273,5.553,3.471,8.303c0.971,2.224,1.821,4.539,3.095,6.584c1.17,1.887,2.831,3.467,4.417,5.354
		C600.068,683.836,598.639,688.393,593.148,690.847z M606.604,677.189c-4.088-2.037-4.21-6.383-5.978-9.613
		c-2.129-3.887-3.561-8.163-5.229-12.297c-0.886-2.183-0.281-3.54,2.326-5.921c5.348,7.031,10.7,14.081,16.435,21.625
		C611.994,672.764,609.305,674.973,606.604,677.189z M614.784,664.071c-4.682-5.403-10.171-10.462-13.371-17.594
		c2.686-3.267,5.275-6.421,8.291-10.091c2.425,3.824,5.702,4.491,9.062,5.196c4.199,0.888,4.48,1.368,4.977,5.606
		C624.616,654.615,622.773,660.668,614.784,664.071z M628.277,636.341c-0.458,0.944-2.021,2.159-2.838,1.997
		c-4.474-0.885-8.872-2.154-13.63-3.382c0.757-3.457,1.342-6.147,1.889-8.644c5.191,1.688,10.244,3.328,15.828,5.14
		C629.194,632.867,629.041,634.753,628.277,636.341z"/>
</g>
<path d="M353.293,361.861c-1.582,0.871-2.622,2.778-1.491,4.819c1.046,1.891,1.695,3.853,2.306,5.955
	c0.574,1.991,2.293,2.658,3.886,2.418C353.979,372.194,353.314,366.904,353.293,361.861z"/>
<g id="Layer_2">
	<path d="M560.151,644.589c-3.977-0.808-9.747,0.041-13.86-1.586c2.482-0.405,5.085-0.495,7.51-0.931
		c2.491-0.449,6.509-1.07,7.567-3.794c1.204-3.108-2.711-5.163-5.156-5.411c-3.934-0.393-8.581,2.177-12.499,1.451
		c3.032-3.047,7.229-8.344,3.679-11.301c-1.96-1.635-4.372-0.062-6.156,1.087c-2.431,1.576-4.646,4.064-7.334,5.175
		c-1.743,0.717-0.699,3.457,1.054,2.731c3.784-1.56,6.376-5.259,10.229-6.725c1.388-0.53-0.94,3.83-1.196,4.179
		c-1.046,1.47-2.307,2.866-3.656,4.062c-0.894,0.792-0.528,2.045,0.224,2.523c0.135,0.242,0.332,0.457,0.665,0.601
		c2.766,1.133,5.777,0.438,8.604-0.112c1.606-0.316,3.21-0.614,4.848-0.751c0.584-0.058,5.162,0.563,3.639,1.809
		c-2.049,1.671-5.856,1.772-8.361,2.114c-2.411,0.335-4.954,0.426-7.297,1.136c-0.545,0.167-0.804,0.535-0.888,0.945
		c-0.404,0.57-0.491,1.39,0.158,1.997c2.453,2.284,6.105,2.604,9.287,2.908c1.438,0.134,12.041,0.089,11.966,2.409
		c-0.097,2.989-17.926,0.127-17.926,0.127c-1.573-0.256-2.399,0.482-2.389,1.285c-0.782,0.494-1.146,1.622-0.185,2.3
		c4.929,3.464,11.354,4.433,15.93,8.546c1.196,1.079-2.41,0.258-2.863,0.16c-2.005-0.437-3.944-1.194-5.86-1.931
		c-2.811-1.081-5.513-2.432-8.331-3.491c-0.607-0.229-1.146-0.043-1.523,0.308c-0.89,0.084-1.713,0.86-1.256,1.914
		c0.666,1.534,1.769,2.807,2.722,4.171c2.713,3.85-4.072-0.237-5.039-0.869c-5.118-3.369-10.497-6.144-9.874-13.209
		c0.162-1.872-2.728-2.358-2.891-0.474c-0.819,9.297,6.447,13.249,13.414,17.533c2.286,1.405,5.839,3.306,7.743,0.403
		c1.23-1.871-0.021-3.861-1.365-5.687c5.767,2.726,16.259,7.587,18.234,3.004c1.975-4.569-6.535-8.017-12.454-10.441
		c2.277,0.27,4.775,0.499,7.128,0.531c3.097,0.036,7.418,0.17,9.155-2.985C567.376,646.975,562.461,645.062,560.151,644.589z"/>
	<path d="M396.666,666.736c-3.704-1.652-9.523-2.072-13.184-4.554c2.509,0.14,5.068,0.616,7.531,0.716
		c2.528,0.104,6.584,0.369,8.213-2.062c1.847-2.77-1.53-5.626-3.863-6.398c-3.754-1.237-8.85,0.265-12.516-1.301
		c3.621-2.312,8.864-6.57,6.039-10.229c-1.556-2.019-4.254-1.01-6.244-0.269c-2.713,1.009-5.416,2.952-8.281,3.455
		c-1.854,0.321-1.436,3.224,0.435,2.895c4.035-0.698,7.364-3.752,11.445-4.346c1.47-0.217-1.75,3.53-2.072,3.821
		c-1.344,1.206-2.875,2.297-4.452,3.169c-1.047,0.579-0.958,1.883-0.328,2.514c0.077,0.27,0.221,0.519,0.518,0.73
		c2.451,1.705,5.548,1.68,8.426,1.752c1.639,0.043,3.27,0.099,4.896,0.316c0.582,0.076,4.911,1.677,3.157,2.559
		c-2.362,1.188-6.103,0.461-8.618,0.252c-2.429-0.195-4.933-0.655-7.375-0.473c-0.562,0.047-0.897,0.346-1.064,0.732
		c-0.521,0.466-0.783,1.248-0.28,1.979c1.9,2.764,5.392,3.868,8.435,4.852c1.373,0.447,11.735,2.698,11.159,4.951
		c-0.739,2.9-17.53-3.763-17.53-3.763c-1.479-0.591-2.446-0.047-2.609,0.733c-0.869,0.312-1.467,1.338-0.675,2.202
		c4.06,4.452,10.121,6.792,13.692,11.799c0.94,1.312-2.405-0.271-2.826-0.462c-1.86-0.859-3.594-2.024-5.301-3.154
		c-2.509-1.667-4.856-3.57-7.381-5.212c-0.544-0.358-1.107-0.294-1.553-0.037c-0.885-0.11-1.859,0.474-1.641,1.599
		c0.315,1.646,1.115,3.122,1.757,4.665c1.809,4.347-3.927-1.116-4.732-1.944c-4.27-4.399-8.917-8.271-6.776-15.037
		c0.564-1.789-2.151-2.893-2.723-1.088c-2.812,8.9,3.424,14.334,9.299,20.025c1.922,1.868,4.981,4.488,7.472,2.072
		c1.604-1.557,0.813-3.774-0.104-5.846c5.038,3.91,14.229,10.934,17.149,6.887c2.919-4.032-4.642-9.245-9.892-12.896
		c2.162,0.755,4.553,1.521,6.842,2.067c3.017,0.704,7.205,1.769,9.586-0.929C403.203,670.629,398.817,667.697,396.666,666.736z"/>
	<path stroke="#000000" stroke-width="9.4636" stroke-miterlimit="10" d="M298.085,367.256"/>
	<path d="M375.57,639.344c-0.733-2.892-2.396-6.312-4.207-8.67c-0.41-0.535-0.94-0.823-1.488-0.934
		c-0.23-0.146-0.498-0.236-0.812-0.236c-0.528,0-0.918,0.259-1.211,0.623c-0.967,0.611-1.476,1.762-0.574,2.938
		c1.306,1.693,1.904,3.623,2.886,5.506c1.483,2.854,1.112,4.947,0.353,7.897c-0.763,2.958,3.801,4.212,4.562,1.259
		C375.857,644.697,376.361,642.463,375.57,639.344z"/>
</g>
<g id="Layer_4">
	<path d="M270.665,773.089c-3.234-0.799-5.573-2.615-7.347-5.014c0.45-0.104,0.899-0.213,1.347-0.331
		c3.116-0.819,1.792-5.644-1.329-4.822c-0.85,0.225-1.698,0.415-2.547,0.58c-0.701-1.677-1.278-3.465-1.782-5.294
		c1.75-0.164,3.478-0.495,5.158-1.13c2.986-1.129,1.693-5.964-1.329-4.822c-1.643,0.621-3.336,0.915-5.052,1.039
		c-0.783-3.365-1.508-6.624-2.54-9.293c-1.149-2.975-5.985-1.683-4.821,1.33c0.945,2.447,1.684,5.171,2.405,7.978
		c-1.393-0.056-2.785-0.129-4.161-0.143c-3.226-0.032-3.223,4.968,0,5c1.805,0.019,3.632,0.117,5.457,0.162
		c0.529,1.965,1.108,3.908,1.787,5.776c-1.072,0.062-2.15,0.094-3.244,0.062c-3.226-0.097-3.217,4.904,0,5
		c1.816,0.054,3.617-0.024,5.406-0.213c2.354,4.251,5.762,7.598,11.262,8.957C272.466,778.685,273.793,773.862,270.665,773.089z"/>
</g>
<g id="Layer_3">
	<path d="M531.566,387.439c-15.993-3.452-30.31,1.267-40.367,15.604c-5.61,7.993-6.428,17.613-4.197,26.868
		c1.333,5.542,4.031,11.348,9.429,14.431c7.997,4.571,15.796,10.085,25.97,9.753c3.252-0.623,6.725-0.738,9.705-1.997
		c3.545-1.491,6.635-4.022,9.98-6.01c5.156-3.068,9.003-7.066,11.494-12.74C563.005,411.914,550.025,391.427,531.566,387.439z
		 M544.689,435.086c-2.88,2.977-6.104,5.659-9.396,8.18c-14.891,11.415-38.982,2.232-41.713-17.03
		c-0.24-1.761,0.066-7.385,0.016-8.32c-0.564-9.389,5.729-17.94,14.089-22.13c1.655-1.725,3.878-2.087,5.971-2.647
		c3.239-0.86,6.748-0.714,9.409-0.941c15.218,0.911,24.098,9.443,27.31,19.729C552.871,419.943,551.016,428.53,544.689,435.086z"/>
	<path d="M568.926,333.143c-0.218,0.127-0.462,0.224-0.774,0.224c-0.163,0-0.266-0.083-0.4-0.123
		c-0.18,0.078-0.386,0.123-0.627,0.123c-0.054,0-0.1-0.021-0.149-0.026c-0.177,0.09-0.367,0.156-0.619,0.156
		c-0.159,0-0.284-0.049-0.419-0.082c-3.306,0.77-6.478,0.988-9.495,2.861c-2.341,1.451-3.775,3.65-5.123,5.947
		c-1.052,2.55-1.655,5.406-1.667,8.318c-0.055,13.322,10.146,17.989,20.773,18.506c8.594,0.423,14.629-7.906,14.377-18.962
		C585.065,339.025,580.146,334.531,568.926,333.143z M568.277,363.467c-15.86,0-15.86-24.595,0-24.595
		C584.137,338.872,584.138,363.467,568.277,363.467z"/>
	<path d="M593.961,422.766c-2.317-1.841-5.741-3.191-8.671-3.207c-11.575-0.051-25.462,12.907-23.56,25.852
		c1.694,11.518,6.916,18.172,20.535,19.617c5.299,0.56,9.606-0.975,12.772-5.42c0.98-1.379,1.949-3.09,3.354-3.792
		c5.323-2.661,4.859-7.661,5.245-12.202C604.633,434.672,600.518,427.964,593.961,422.766z M582.275,459.872
		c-9.461-0.197-15.897-6.898-15.802-16.395c0.062-6.054,4.707-13.785,9.604-16.686c0.082-0.07,0.15-0.149,0.264-0.21
		c0.2-0.105,0.438-0.168,0.649-0.261c0.193-0.097,0.393-0.166,0.595-0.241c5.641-2.204,13.323-0.76,17.651,3.445
		c2.424,2.352,3.626,5.211,3.964,8.194c0.156,0.648,0.185,1.347,0.109,2.07c-0.012,0.615-0.037,1.223-0.121,1.833
		C599.165,451.585,592.035,460.074,582.275,459.872z"/>
	<path d="M529.895,372.71c0.475-0.573,0.938-1.154,1.429-1.693c0.6-0.674,1.089-1.342,1.516-2.022c0.93-1.834,1.4-3.983,1.236-6.409
		c-0.226-3.673-1.064-7.237-2.795-10.124c-3.312-5.52-9.396-6.681-15.458-5.234c-4.303,1.031-6.795,3.553-9.64,6.312
		c-0.212,0.41-0.427,0.832-0.634,1.23c-0.284,0.533-0.475,1.068-0.632,1.604c-1.507,8.699,2.855,16.201,10.271,18.95
		C520.303,377.052,526.079,375.957,529.895,372.71z M520.618,349.253c15.865,0,15.865,24.599,0,24.599
		C504.76,373.852,504.76,349.253,520.618,349.253z"/>
	<path d="M618.511,474.634c-1.675-2.021-3.42-4.521-5.685-5.422c-6.844-2.713-19.443,4.007-21.302,11.05
		c-0.542,2.068-0.468,4.297-0.677,6.454c-1.185,6.993,2.142,11.768,7.76,15.248c5.06,3.137,10.23,2.8,15.274-0.157
		C624.12,495.811,626.177,483.903,618.511,474.634z M618.543,488.829c-1.224,5.519-7.284,10.01-12.987,10.082
		c-6.754,0.086-11.631-4.41-11.493-10.441c0.147-6.611,2.643-11.192,6.937-13.349c1.72-1.141,3.863-1.736,5.935-1.777l0,0
		c0.138-0.037,0.259-0.088,0.423-0.081C615.75,473.382,620.427,481.708,618.543,488.829z"/>
	<path d="M615.104,326.564c-2.382-1.068-6.119-2.761-9.857-4.426c-4.986-2.219-5.521-8.507-1.16-12.905
		c4.924-4.97,16.176-4.206,20.317,1.45c0.888,1.21,1.344,3.175,1.118,4.66c-0.343,2.296-1.461,4.464-2.219,6.701
		C622.229,325.229,620.041,326.759,615.104,326.564z M617.225,322.167c0.307-3.625,1.062-5.727,0.456-7.318
		c-0.56-1.467-2.422-2.965-3.985-3.348c-1.258-0.31-3.82,0.715-4.18,1.722c-0.512,1.444-0.11,3.948,0.916,5.037
		C611.934,319.85,614.337,320.589,617.225,322.167z"/>
	<path d="M623.856,524.26c-0.732-1.137-1.618-2.256-2.562-3.447c-0.828-0.468-1.666-0.904-2.571-1.231
		c-0.139-0.047-0.237-0.138-0.353-0.21c-1.681,0.12-3.209,0.208-4.64,0.467c-3.494,0.624-7.096,1.962-7.638,5.766
		c-0.604,4.244-0.912,8.897,2.792,12.343c3.666,3.413,9.671,4.036,12.717,1.408C625.675,535.839,626.771,528.788,623.856,524.26z
		 M619.261,532.651c-2.72,2.011-5.702,2.72-8.28-0.518c-0.442-4.287,2.908-5.13,5.92-5.642c1.074-0.188,2.962,1.347,3.585,2.552
		C620.906,529.863,620.146,531.997,619.261,532.651z"/>
	<path d="M524.84,302.065c3.248-1.628,4.697-3.722,4.745-7.387c0-0.013,0.006-0.022,0.006-0.035c-0.107-0.68-0.246-1.421-0.42-2.327
		c-1.099-5.625-5.158-8.15-11.374-7.074c-4.779,0.827-6.725,4.057-6.241,9.792c0.255,2.977,1.437,5.238,3.955,6.465
		c2.94,1.172,6.356,1.55,9.208,0.656C524.765,302.127,524.786,302.089,524.84,302.065z M522.03,290.196c5.942,0,5.942,9.223,0,9.223
		C516.076,299.418,516.076,290.196,522.03,290.196z"/>
	<path d="M533.979,433.855c-4.527-0.823-8.913-2.134-12.713-4.738c-0.223,0.459-0.638,0.821-1.291,0.845
		c-0.864,0.029-1.903,0.061-3.044,0.082c5.314,7.206,12.356,9.792,20.975,8.278C538.519,435.125,536.979,434.395,533.979,433.855z"
		/>
	<path d="M601.243,453.618c0,0-2.396,5.039-7.608,8.067c-0.299,0.178-0.605,0.343-0.931,0.506c-5.854,2.933,4.999-5.933,4.999-5.933
		"/>
	<path stroke="#000000" stroke-width="3.0747" stroke-miterlimit="10" d="M668.732,497.808"/>
</g>
<line stroke="#000000" stroke-width="6" stroke-miterlimit="10" x1="182.897" y1="532.354" x2="185.224" y2="545.579"/>
</svg>
