<?xml version="1.0" encoding="utf-8"?>
<!-- Generator: Adobe Illustrator 16.0.0, SVG Export Plug-In . SVG Version: 6.00 Build 0)  -->
<!DOCTYPE svg PUBLIC "-//W3C//DTD SVG 1.0//EN" "http://www.w3.org/TR/2001/REC-SVG-20010904/DTD/svg10.dtd">
<svg version="1.0" xmlns="http://www.w3.org/2000/svg" xmlns:xlink="http://www.w3.org/1999/xlink" x="0px" y="0px" width="832px"
	 height="564.92px" viewBox="0 0 832 564.92" enable-background="new 0 0 832 564.92" xml:space="preserve">
<g id="Layer_1">
	<path d="M91.333,436.587"/>
	<path d="M53,440.077"/>
	<polyline fill="none" stroke="#000000" stroke-width="2" stroke-miterlimit="10" points="207.765,0 207.765,6.92 207.765,69.897 
		207.765,161.236 207.765,222.722 207.765,301.92 207.765,361.424 207.765,435.436 0,517.92 	"/>
</g>
<g id="Layer_2">
	<path fill="none" stroke="#000000" stroke-width="3" stroke-miterlimit="10" d="M614.667,0"/>
	<path fill="none" stroke="#000000" stroke-width="2" stroke-miterlimit="10" d="M162.452,122.44"/>
	<path stroke="#000000" stroke-width="2" stroke-miterlimit="10" d="M171.593,187.698c0.082-0.383,0.128-0.766,0.153-1.18
		c0.018-0.293-0.416-0.311-0.451-0.025c-0.043,0.369-0.093,0.737-0.144,1.104c-0.044,0.208-0.096,0.415-0.169,0.625
		c-0.032,0.092-0.003,0.166,0.049,0.218c-0.967,6.592-2.685,13.1-2.29,19.814c0.017,0.287,0.467,0.314,0.45,0.025
		C168.782,201.305,170.654,194.554,171.593,187.698z"/>
	<path stroke="#000000" stroke-width="2" stroke-miterlimit="10" d="M87.256,223.025c-3.965-4.429-7.938-8.916-10.738-14.2
		c-1.446-2.728-2.495-5.643-3.22-8.64c-0.821-3.389-0.951-6.878-2-10.227c-0.086-0.275-0.527-0.182-0.44,0.096
		c1.084,3.462,1.238,7.08,2.087,10.586c0.706,2.917,1.792,5.731,3.173,8.392c2.766,5.328,6.827,9.852,10.804,14.295
		C87.114,223.542,87.45,223.243,87.256,223.025z"/>
	<path fill="none" stroke="#000000" stroke-width="2" stroke-miterlimit="10" d="M106.523,190.342l0.406-1.229
		c2.679-5.057-1.768-20.734-5.392-35.702s9.797-33.818,10.592-33.794l1.493-0.762"/>
	<path fill="none" stroke="#000000" stroke-width="2" stroke-miterlimit="10" d="M95.139,167.737c0,0,20.464,36.396,19.913,46.915
		c0,0,10.309,40.575-24.749,32.308c0,0,0.525,12.824-23.264,8.018c0,0-4.456-2.139-10.873-12.306c0,0-0.056-0.239-0.164-0.642
		c-0.377-1.414-1.392-4.85-2.863-7.078c-6.85-10.376-7.723-16.336-7.723-16.336"/>
	<path d="M26.088,262.327"/>
	<path fill="none" stroke="#000000" stroke-width="2" stroke-miterlimit="10" d="M68.81,255.309"/>
	<path d="M17.462,231.91"/>
	<path fill="none" stroke="#000000" stroke-width="2" stroke-miterlimit="10" d="M113.099,241.109c0,0,19.688-11.402,26.169-10.983"
		/>
	<path d="M127.16,119.621"/>
	<path fill="none" stroke="#000000" stroke-width="2" stroke-miterlimit="10" d="M116.466,119.016c0,0,2.587,36.737,2.186,39.904
		c-2.517,19.861,13.349,36.5,16.418,60.512s27.904,12.843,27.904,12.843s12.276-21.605,23.552-16.963s19.432-8.716,19.432-8.716
		S190.5,196.67,195.25,183.67s-1.995-60.309-1.995-60.309L21.984,113.67c0,0-15.204,126.42,4.156,150.21
		c0,0,16.943,10.542,34.86-7.042c0,0,3.46-3.734,4.163-3.18"/>
	<g id="Layer_3">
	</g>
	<path fill="none" stroke="#000000" stroke-miterlimit="10" d="M350.706,436.587C387,436.92,424,436.92,460.271,437.651"/>
	<path d="M528.536,87.186c-0.578-2.232-1.501-4.326-2.384-6.44c4.196,17.714,2.212,33.691-10.556,47.429
		c-5.87,6.317-12.575,11.864-20.845,14.635c-3.137,1.051-6.41,1.434-9.694,1.458c1.835,0.329,3.707,0.489,5.611,0.521
		c1.259-0.114,2.513-0.269,3.757-0.515c4.927-0.974,9.434-3.246,13.526-6.126c7.539-5.306,14.836-12.295,18.523-20.922
		c-0.016-0.135-0.002-0.282,0.061-0.445c2.546-6.614,2.948-13.618,2.961-20.642c0.001-0.606,0.01-1.226,0.018-1.85
		C529.369,91.876,529.13,89.481,528.536,87.186z"/>
	<path d="M495.939,161.859c-0.535,0.506-0.559,1.124-0.308,1.625c3.23-3.86,9.181-6.301,13.787-7.019
		c4.951-0.771,10.423,1.151,14.033,4.562c4.849,4.583,7.951,10.739,9.989,17.377c3.604,8.555,4.86,19.121,5.986,28.009
		c1.136,8.969,1.718,17.859-2.177,26.008c0.407-0.034,0.796-0.251,1.044-0.745C549.872,208.601,529.949,129.72,495.939,161.859z"/>
</g>
<g id="Layer_4">
	<path fill-rule="evenodd" clip-rule="evenodd" d="M190.665,489.064c0.169-0.391,0.478-0.778,0.488-1.174
		c0.148-5.572,3.764-8.79,7.754-11.917c5.365-4.203,10.625-8.55,15.754-13.036c1.357-1.188,1.756-3.48,3.125-4.641
		c6.289-5.326,11.247-11.733,15.538-18.666c2.316-3.743,4.383-7.67,6.222-11.671c4.156-9.04,8.343-18.043,11.155-27.678
		c1.584-5.426,4.788-10.359,6.96-15.64c1.284-3.119,1.764-6.563,2.979-9.718c3.109-8.068,6.62-15.985,9.595-24.101
		c1.874-5.111,3.137-10.452,4.556-15.723c2.115-7.855,4.576-15.655,6.051-23.635c1.409-7.619,2.115-15.42,2.453-23.171
		c0.384-8.81,0.024-17.652-0.033-26.48c-0.006-0.993-0.154-1.986-0.211-2.674c-5.652-0.999-10.643-2.421-13.994-7.074
		c-4.894-6.793-5.84-14.737-5.759-22.682c0.079-7.749,0.671-15.563,1.875-23.217c2.625-16.691,9.065-31.984,19.104-45.559
		c2.419-3.272,6.251-5.7,9.828-7.865c4.55-2.754,9.286-5.617,14.334-7.034c6.858-1.925,14.215-1.622,21.074,0.207
		c5.129,1.368,9.49,4.79,13.042,8.976c4.179,4.925,9.494,7.21,16.017,6.937c1.952-0.082,4.111,0.283,5.875,1.095
		c3.598,1.656,3.963,5.108,0.988,7.673c-3.543,3.055-7.228,5.945-10.76,9.011c-1.589,1.379-2.967,2.849-1.447,5.361
		c0.545,0.901,0.236,2.628-0.214,3.769c-1.694,4.287-1.136,8.443,0.125,12.685c1.193,4.012-0.756,5.995-4.815,5.104
		c-0.41-0.09-0.834-0.114-1.697-0.228c0.255,0.925,0.378,1.625,0.641,2.269c0.609,1.488,0.774,2.734-0.798,3.879
		c-0.634,0.461-0.994,1.57-1.107,2.433c-0.556,4.233-2.484,6.579-6.385,7.859c-0.695,0.229-1.446,1.059-1.681,1.772
		c-0.778,2.366-1.311,4.812-1.977,7.215c-0.689,2.49,1.075,4.19,2.331,5.663c3.76,4.411,7.719,8.687,11.921,12.677
		c6.536,6.204,15.432,7.136,23.259,2.727c4.422-2.491,8.725-5.195,13.16-7.663c2.315-1.288,4.798-2.274,7.411-3.493
		c-0.223-0.66-0.521-1.617-0.866-2.557c-1.422-3.864-0.025-7.598,3.826-9.079c2.403-0.924,3.397-2.436,4.023-4.793
		c1.852-6.975,1.976-13.9,0.843-21.034c-0.417-2.632,0.721-5.589,1.475-8.309c1.02-3.679,2.353-7.271,3.552-10.901
		c0.35,0.088,0.699,0.177,1.048,0.265c-0.596,3.032-0.828,6.195-1.865,9.068c-1.893,5.244-1.903,10.408-0.937,15.804
		c0.443,2.475-0.003,5.121-0.144,7.684c-0.128,2.326-0.39,4.643-0.606,7.125c0.688,0.061,1.256,0.145,1.826,0.156
		c4.467,0.09,7.201,2.198,8.388,6.627c1.913,7.136-1.328,14.27-7.808,17.681c1.49,2.575,2.963,5.156,4.47,7.718
		c2.713,4.611,3.72,9.632,3.705,14.927c-0.023,8.058,0.171,16.121-0.035,24.174c-0.28,10.913-5.674,19.124-14.554,24.987
		c-3.548,2.343-7.937,2.852-12.204,2.878c-5.16,0.031-10.328,0-15.48-0.248c-6.573-0.315-12.771-2.089-18.535-5.347
		c-1.396-0.789-2.968-1.269-4.096-1.738c-0.716,11.325-1.342,22.599-2.173,33.856c-0.503,6.81-1.117,13.626-2.076,20.383
		c-0.598,4.216-2.114,8.295-2.87,12.498c-0.481,2.675-0.484,5.468-0.421,8.202c0.137,5.974,0.03,12.001,0.821,17.899
		c0.695,5.188,2.176,10.33,3.847,15.312c2.527,7.539,5.288,15.021,8.386,22.343c2.724,6.436,5.979,12.652,9.162,18.884
		c0.709,1.389,2.156,2.383,3.155,3.644c1.387,1.753,2.692,3.57,3.997,5.387c1.866,2.599,3.589,5.308,5.57,7.814
		c3.626,4.59,7.369,9.088,11.115,13.581c3.479,4.171,4.355,8.615,2.814,13.981c-2.439,8.489-7.646,14.801-14.817,19.33
		c-3.706,2.341-8.208,4.075-12.538,4.639c-9.949,1.295-20.021,1.614-30.027,2.506c-6.533,0.582-12.553-2.146-18.913-2.566
		c-1.142-0.076-2.313,0.073-3.429-0.121c-2.509-0.437-5.074-0.787-7.461-1.617c-2.329-0.81-4.465-2.173-6.886-3.394
		c-1.069,2.566-3.5,2.505-5.931,2.452c-3.031-0.065-6.083,0.079-9.087-0.232c-4.501-0.469-5.412-1.628-5.681-6.105
		c-0.049-0.82-0.283-1.63-0.506-2.854c-3.372,2.028-6.271,4.098-9.444,5.586c-2.919,1.369-6.173,2.004-9.207,3.155
		c-5.024,1.907-9.924,2.147-15.154,0.46c-4.639-1.497-9.719-1.68-14.294-3.311c-15.594-5.559-28.867-14.008-34.912-30.551
		c-0.794-2.176-1.21-4.489-1.801-6.739C190.665,490.452,190.665,489.759,190.665,489.064z M336.419,191.292
		c-3.276,3.968-6.789,7.767-9.754,11.955c-2.435,3.438-3.987,7.494-6.365,10.98c-1.777,2.605-2.709,5.017-1.661,8.106
		c0.364,1.076,0.415,2.353,0.261,3.492c-0.419,3.09,0.115,3.718,3.098,3.207c0.485-0.084,0.966-0.191,1.449-0.287
		c-0.241-0.138-0.482-0.274-0.723-0.412c1.402-3.643,2.695-7.333,4.247-10.911c0.924-2.132,1.849-2.154,3.28-0.249
		c2.391,3.185,5.665,3.334,9.121,2.755c2.118-0.354,2.776-2.043,3.243-3.921c0.445-1.791-0.604-2.402-1.878-3.158
		c-1.562-0.926-2.976-2.105-4.589-3.273c1.181-0.566,2.373-1.139,3.664-1.758c0.203,0.412,0.304,0.746,0.503,1.002
		c0.778,1,1.427,2.258,2.452,2.844c0.516,0.295,2.415-0.536,2.5-1.054c0.179-1.086-0.414-2.305-0.716-3.463
		c-0.247-0.949-0.53-1.887-0.797-2.83c0.875,0.018,1.751,0.017,2.626,0.061c0.846,0.042,1.702,0.064,2.532,0.214
		c1.909,0.344,2.834-0.423,2.528-2.35c-0.258-1.618-0.983-3.197-1.029-4.806c-0.066-2.341-0.199-4.882,0.606-6.992
		c0.808-2.122,1.567-5.546,0.367-6.766c-1.359-1.382-4.304-1.226-6.513,0.374c-2.026,1.468-4.089,2.893-6.023,4.475
		c-0.967,0.791-1.681,1.891-2.51,2.851L336.419,191.292z M306.662,246.938c0.422-0.087,0.844-0.175,1.266-0.262
		c0.605,2.271,1.377,4.515,1.788,6.821c2.313,12.979,7.523,24.97,12.536,37.028c0.293,0.705,0.737,1.382,1.239,1.96
		c2.778,3.197,5.496,6.456,8.44,9.494c1.505,1.554,3.369,2.8,5.201,3.985c1.729,1.117,3.718,1.834,5.435,2.966
		c8.192,5.401,16.658,10.217,26.783,10.455c8.447,0.199,16.92,2.744,25.376-0.611c4.097-1.626,8.043-3.402,10.488-7.05
		c3.036-4.528,5.406-9.448,5.72-15.109c0.238-4.306,0.841-8.595,0.985-12.902c0.156-4.663,0.363-9.385-0.179-13.995
		c-0.581-4.938-1.228-10.1-4.546-14.155c-2.554-3.12-5.405-6.023-8.34-8.794c-1.85-1.747-4.396-2.282-6.817-1.516
		c-2.023,0.642-3.942,1.754-5.749,2.906c-3.03,1.935-5.674,4.833-8.95,5.942c-5.272,1.786-10.896,2.642-16.434,3.473
		c-1.823,0.274-4.161-0.249-5.707-1.259c-4.536-2.963-9.062-6.056-13.07-9.675c-3.042-2.745-5.107-6.541-7.931-9.566
		c-3.116-3.339-6.65-6.154-11.805-4.582c-2.3,0.701-4.77,0.979-6.941,1.945c-4.79,2.131-9.809,4.056-14.041,7.044
		c-4.021,2.841-7.382,6.742-10.597,10.546c-1.628,1.927-2.874,4.576-3.265,7.061c-0.697,4.427-0.523,8.984-0.876,13.475
		c-0.764,9.725-1.568,19.447-2.502,29.157c-0.228,2.372-1.191,4.666-1.529,7.037c-0.977,6.857-1.085,13.928-2.855,20.562
		c-3.12,11.689-6.872,23.243-11.003,34.62c-4.221,11.62-9.143,22.99-13.913,34.405c-1.724,4.125-3.989,8.021-5.841,12.096
		c-2.113,4.65-4.083,9.368-6.038,14.089c-1.753,4.233-2.763,8.934-5.241,12.671c-4.006,6.045-7.095,12.728-12.848,17.673
		c-6.083,5.229-11.38,11.36-17.262,16.839c-2.445,2.277-5.729,3.643-8.237,5.868c-2.183,1.938-4.55,4.224-5.538,6.845
		c-2.569,6.816-0.035,13.181,3.594,18.889c2.954,4.647,6.397,9.062,11.127,12.191c4.599,3.041,8.884,6.814,13.873,8.941
		c6.123,2.612,12.801,3.971,19.305,5.615c2.217,0.561,4.646,0.583,6.949,0.427c3.278-0.223,6.562-0.676,9.78-1.342
		c1.901-0.394,3.822-1.149,5.481-2.157c4.209-2.555,8.184-5.5,12.417-8.011c12.97-7.694,22.209-18.803,29.21-31.889
		c2.36-4.412,3.678-9.387,6.099-13.757c2.504-4.521,2.672-9.425,3.307-14.225c1.002-7.576,1.169-15.264,2.239-22.827
		c0.943-6.666,4.004-12.703,7.417-18.444c4.639-7.807,9.097-15.585,12.252-24.235c4.731-12.973,6.837-26.242,7.458-39.902
		c0.314-6.91,0.85-13.814,1.438-20.708c0.182-2.133,1.668-4.463,1.128-6.277c-0.824-2.772-0.478-5.265-0.038-7.869
		c0.457-2.709-0.641-4.438-3.01-5.627c-1.845-0.927-3.735-1.843-5.382-3.064c-3.198-2.372-6.058-5.236-9.387-7.389
		c-5.636-3.643-8.381-9.449-11.194-14.964c-2.435-4.773-3.524-10.247-5.078-15.45c-1.974-6.613-3.886-13.248-5.669-19.915
		C306.712,250.682,306.819,248.774,306.662,246.938z M339.648,394.978c-0.253-0.013-0.506-0.025-0.759-0.039
		c-0.445,1.286-0.793,2.616-1.351,3.851c-1.77,3.919-3.441,7.899-5.48,11.678c-2.496,4.624-5.219,9.135-8.034,13.574
		c-4.877,7.691-6.119,16.248-6.366,25.092c-0.284,10.117-0.849,20.06-5.466,29.524c-3.162,6.479-6.183,12.856-11.008,18.316
		c-2.271,2.571-4.028,5.616-5.857,8.547c-0.556,0.893-0.877,2.147-0.785,3.19c0.544,6.178,3.358,11.511,7.412,15.927
		c2.826,3.078,6.172,5.569,11.061,5.895c5.696,0.379,11.269,2.904,16.95,3.132c8.103,0.322,16.339-0.01,24.362-1.157
		c7.554-1.08,15.13-2.921,21.958-6.669c2.083-1.144,4.24-2.588,5.64-4.44c2.269-3.005,4.403-6.283,5.747-9.772
		c1.643-4.267,2.482-8.672-1.052-12.936c-5.34-6.44-10.371-13.149-15.299-19.914c-4.828-6.627-10.053-13.104-13.845-20.309
		c-4.282-8.138-7.331-16.951-10.57-25.601c-1.501-4.009-2.256-8.31-3.216-12.509c-1.271-5.559-2.557-11.123-3.545-16.736
		C339.646,400.799,339.792,397.862,339.648,394.978z M316.417,146.375c-2.627,0.479-6.257,0.855-9.702,1.86
		c-2.793,0.815-5.358,2.403-8.036,3.621c-8.954,4.072-14.342,11.786-19.479,19.58c-2.054,3.116-2.842,7.041-4.457,10.48
		c-3.695,7.867-5.894,16.18-7.311,24.684c-0.823,4.938-1.082,9.977-1.462,14.979c-0.606,7.977-0.495,15.917,2.377,23.53
		c0.837,2.22,1.628,4.842,3.303,6.264c2.075,1.762,4.994,2.621,7.66,3.545c0.936,0.324,2.527,0.059,3.266-0.578
		c2.796-2.41,5.648-4.854,7.964-7.703c6.061-7.459,13.199-13.119,22.852-14.996c2.128-0.413,3.051-1.159,2.656-3.635
		c-0.999-6.253,0.414-12.091,3.154-17.835c3.467-7.268,7.751-13.937,13.292-19.699c2.834-2.948,6.009-6.093,9.667-7.617
		c8.523-3.548,15.917-8.564,22.663-14.689c0.472-0.429,0.625-1.603,0.435-2.295c-0.849-3.102-3.335-2.324-5.554-2.175
		c-8.573,0.573-15.476-2.419-20.533-9.512c-0.871-1.222-2.014-2.381-3.281-3.166C330.237,147.518,323.766,147.206,316.417,146.375z
		 M405.024,227.476c0.532,0.672,1.039,1.022,1.1,1.438c0.278,1.882,1.136,4.126,0.43,5.581c-0.726,1.495-2.935,2.918-4.655,3.142
		c-2.942,0.382-3.801-1.896-3.306-4.598c-0.46,0.065-0.645,0.048-0.786,0.117c-3.487,1.733-2.536,7.956,1.118,9.737
		c0.921,0.449,1.818,1.025,2.583,1.705c2.605,2.313,4.501,2.263,6.837-0.432c0.876-1.011,1.539-2.206,2.151-3.104
		c-0.901-0.529-1.985-0.811-2.127-1.343c-0.161-0.606,0.401-1.523,0.862-2.149c0.66-0.898,1.573-1.608,2.258-2.492
		c0.361-0.466,0.466-1.13,0.687-1.705c-0.175-0.084-0.351-0.169-0.526-0.253c-0.752,0.594-1.505,1.188-2.419,1.91
		C410.455,228.349,409.875,227.218,405.024,227.476z M293.034,520.404c-1.822-1.142-3.956-2.605-6.218-3.831
		c-0.822-0.445-2.354-0.8-2.866-0.369c-1.564,1.315-3.573,2.864-3.953,4.636c-0.493,2.295,0.418,4.892,0.75,7.569
		c3.974-0.126,7.832,1.333,11.411,0.071C292.464,525.663,292.726,523.25,293.034,520.404z M332.758,231.666
		c0.713-2.524,1.481-4.965,2.046-7.45c0.135-0.596-0.202-1.68-0.67-1.965c-1.688-1.024-3.526-1.803-5.524-2.781
		c-2.285,2.841-2.107,6.379-2.62,9.571C328.36,229.96,330.419,230.758,332.758,231.666z M286.362,514.224
		c3.055,1.457,5.547,2.646,8.04,3.836c0.17-0.236,0.34-0.473,0.511-0.709c-1.175-2.319-2.35-4.639-3.656-7.217
		C289.585,511.53,288.237,512.657,286.362,514.224z M401.301,234.579c3.165-1.231,3.604-2.859,1.525-4.931
		C402.323,231.274,401.864,232.758,401.301,234.579z"/>
	<path fill-rule="evenodd" clip-rule="evenodd" d="M478.87,127.158c-4.387-2.408-8.511-4.779-13.364-6.203
		c-4.923-1.444-9.862-2.526-15.017-2.745c-0.627-0.026-1.243-0.046-1.844-0.096c-12.602,0.467-24.584,5.222-33.295,12.289
		c-5.375,4.362-9.667,9.566-10.9,16.577c-1.154,6.565-0.611,13.125,1.268,19.537c0.193,0.661,0.812,1.197,1.233,1.79
		c0.111-0.056,0.221-0.113,0.332-0.169c-3.251-9.285-3.231-20.845,2.083-28.503c2.492-3.888,6.353-7.398,11.96-10.791
		c19.416-11.75,39.251-12.43,58.76,0.361c1.511,0.99,3.052,1.932,4.579,2.896v-0.476
		C482.741,130.146,480.977,128.314,478.87,127.158z"/>
	<path fill-rule="evenodd" clip-rule="evenodd" d="M456.656,174.749c-4.211-5.327-8.147-11.177-11.38-17.144
		c-1.247-2.301-3.642-5.257-4.875-8.163c0.046,0.21,0.1,0.416,0.186,0.608c4.004,8.962,8.484,17.65,14.705,25.331
		c7.61,9.396,17.395,14.921,29.374,16.562v-1.192C473.381,189.028,464.026,184.072,456.656,174.749z"/>
	<path fill-rule="evenodd" clip-rule="evenodd" d="M204.32,485.519c7.875-5.915,13.856-13.282,17.639-22.352
		c0.102-0.245,0.695-0.286,1.187-0.47C220.715,471.537,209.588,485.269,204.32,485.519z"/>
	<path fill-rule="evenodd" clip-rule="evenodd" d="M336.336,191.377c0.635,0.4,1.27,0.801,1.963,1.238
		c1.415-1.93,3.482-2.478,5.847-2.303c1.899,0.14,3.29,1.203,3.294,2.985c0.003,1.223-0.771,3.069-1.729,3.527
		c-1.391,0.666-3.398,0.775-4.89,0.311c-1.975-0.614-3.706-2.011-5.237-2.896c0.244-0.858,0.539-1.9,0.835-2.945
		C336.419,191.292,336.336,191.377,336.336,191.377z M338.473,193.799c2.437,2.38,3.919,2.193,5.188-0.225
		c0.247-0.472,0.438-1.246,0.214-1.611c-0.2-0.328-1.124-0.542-1.524-0.359C341.054,192.198,339.852,192.998,338.473,193.799z"/>
	
		<line fill-rule="evenodd" clip-rule="evenodd" fill="none" stroke="#000000" stroke-miterlimit="10" x1="207.765" y1="435.436" x2="235.127" y2="436.587"/>
	<polygon fill="none" stroke="#000000" stroke-miterlimit="10" points="494.859,97.559 491.219,102.045 494.359,106.898 
		488.969,104.819 485.328,109.308 485.638,103.536 480.249,101.457 485.829,99.968 486.139,94.196 489.278,99.047 	"/>
	<polygon fill="none" stroke="#000000" stroke-miterlimit="10" points="519.126,82.025 513.226,89.299 518.316,97.164 
		509.579,93.795 503.679,101.07 504.18,91.714 495.445,88.345 504.49,85.932 504.992,76.575 510.081,84.439 	"/>
	<polygon fill="none" stroke="#000000" stroke-miterlimit="10" points="518.541,174.055 514.9,178.542 518.041,183.395 
		512.65,181.316 509.01,185.804 509.319,180.032 503.931,177.954 509.511,176.465 509.82,170.692 512.96,175.544 	"/>
	<polygon fill="none" stroke="#000000" stroke-miterlimit="10" points="556.214,170.735 552.573,175.222 555.714,180.074 
		550.323,177.996 546.683,182.484 546.992,176.712 541.604,174.633 547.184,173.145 547.493,167.372 550.633,172.224 	"/>
	<polygon fill="none" stroke="#000000" stroke-miterlimit="10" points="524.747,190.288 521.654,194.1 524.322,198.222 
		519.743,196.456 516.65,200.269 516.913,195.366 512.336,193.6 517.076,192.335 517.339,187.432 520.006,191.553 	"/>
	<polygon fill="none" stroke="#000000" stroke-miterlimit="10" points="547.165,140.207 543.524,144.693 546.665,149.546 
		541.274,147.467 537.634,151.956 537.943,146.184 532.555,144.105 538.135,142.616 538.444,136.844 541.584,141.695 	"/>
	<polygon fill="none" stroke="#000000" stroke-miterlimit="10" points="559.005,105.969 553.104,113.242 558.195,121.107 
		549.458,117.738 543.558,125.014 544.059,115.657 535.324,112.288 544.369,109.875 544.871,100.519 549.96,108.383 	"/>
	<polygon fill="none" stroke="#000000" stroke-miterlimit="10" points="508.738,202.868 502.838,210.142 507.929,218.007 
		499.191,214.638 493.291,221.913 493.792,212.557 485.058,209.188 494.103,206.774 494.604,197.418 499.693,205.282 	"/>
</g>
</svg>
