<?xml version="1.0" encoding="utf-8"?>
<!-- Generator: Adobe Illustrator 16.0.0, SVG Export Plug-In . SVG Version: 6.00 Build 0)  -->
<!DOCTYPE svg PUBLIC "-//W3C//DTD SVG 1.0//EN" "http://www.w3.org/TR/2001/REC-SVG-20010904/DTD/svg10.dtd">
<svg version="1.0" xmlns="http://www.w3.org/2000/svg" xmlns:xlink="http://www.w3.org/1999/xlink" x="0px" y="0px" width="832px"
	 height="564.92px" viewBox="0 0 832 564.92" enable-background="new 0 0 832 564.92" xml:space="preserve">
<g id="Layer_1">
	<g>
		<path d="M680.693,361.866c-0.283,0.118-0.568,0.231-0.852,0.349c0.211,0.545,0.378,1.107,0.489,1.688
			c0.165,0.585,0.221,1.189,0.2,1.802c0.151,4.303-1.827,9.064-4.142,12.266c-0.247,0.342-0.504,0.682-0.766,1.02
			c1.027-0.847,1.796-1.559,2.107-2.018c1.564-2.308,2.232-4.906,3.179-7.426c0.088-0.233,0.117-0.504,0.106-0.753
			C680.916,366.494,680.804,364.192,680.693,361.866z"/>
		<path d="M675.018,385.042c1.583-0.471,3.056-1.212,4.48-2.179c0.325-0.222,0.743,0.075,0.752,0.432
			c0.003,0.136,0.006,0.27,0.008,0.404c0.229-0.25,0.473-0.495,0.598-0.789c0.179-0.421,0.045-0.975,0.051-1.471
			C680.568,381.471,677.306,383.438,675.018,385.042z"/>
		<path d="M698.255,340.356c-0.037-0.024-0.074-0.044-0.108-0.083c-0.313-0.363-0.67-0.707-1.035-1.051
			c-1.75-0.888-3.453-1.853-4.125-3.885c-0.864-2.612-2.294-4.832-4.141-6.771c-1.613-1.694-3.58-3.061-5.146-4.793
			c-0.778-0.861-1.622-1.577-2.513-2.195c-1.684-0.751-3.462-1.331-5.162-1.873c-5.034-1.606-9.855-3.482-15.188-1.975
			c-5.018,1.419-9.722,3.559-14.92,4.359c-2.562,0.395-6.098,1.46-8.968,1.115c-0.274,0.235-0.55,0.47-0.829,0.709
			c1.861,2.375,3.936,4.448,7.117,4.875c1.157,0.154,2.336,0.153,3.492,0.313c1.13,0.156,2.244,0.429,3.368,0.649
			c-1.341,2.462,0.766,8.315,3.613,10.075c0.42-0.965,0.42-0.965-0.442-3.031c1.657-1.25,3.651-1.636,5.599-2.114
			c0.183,0.718,0.389,1.527,0.641,2.525c1.448-1.793,1.847-3.495,0.602-5.453c2.021,0.631,5.214,5.297,5.754,6.224
			c0.995,1.71,2.122,3.38,2.836,5.207c0.779,1.995,1.147,4.15,1.709,6.232c0.084,0.31,0.222,0.612,0.38,0.893
			c0.753,1.332,1.521,2.656,2.298,4.009c-1.58,0.748-2.982,1.413-4.42,2.095c0.234-1.621,0.715-3.129,0.586-4.583
			c-0.113-1.313-0.859-2.583-1.395-3.843c-0.231-0.546-0.564-1.089-0.984-1.497c-0.213-0.208-0.883-0.285-1.053-0.119
			c-0.232,0.229-0.199,0.739-0.26,1.133c-0.026,0.181-0.001,0.369,0,0.555l0.309,0.63c1.324,1.363,1.973,2.852,1.436,4.848
			c-0.269,1.001,0.015,2.151,0.045,3.192c-2.598,1.855-5.399,3.879-8.237,5.85c-0.249,0.174-0.75,0.052-1.116-0.02
			c-1.354-0.267-2.705-0.548-4.045-0.871c-0.565-0.135-1.102-0.388-1.694-0.603c0.903-0.909,0.854-4.914,0.855-5.863
			c0.003-0.652,0-1.303,0-1.983c-1.75,0.338-5.307,3.997-5.525,5.719c-2.125-1.174-4.411-2.05-6.2-3.528
			c-1.917-1.586-3.394-3.714-4.992-5.664c-0.28-0.343-0.303-0.971-0.292-1.464c0.068-3.426,0.915-6.645,2.536-9.683
			c0.437-0.822,0.88-1.568,1.457-2.276c1.262-2.264,2.896-4.752,4.681-6.529c-1.468-0.221-2.141,0.646-2.703,1.507
			c-1.147,1.758-1.896,3.873-3.331,5.323c-0.075,0.076-0.14,0.156-0.212,0.232c-0.627,1.323-1.354,2.588-1.994,3.913
			c-0.98,2.032-1.295,3.852-1.475,6.058c-0.007,0.081-0.027,0.148-0.037,0.226c0.019,1.239-0.203,2.388-1.519,3.11
			c-0.85,0.468-1.922,0.493-2.943,0.262c-0.021,0.124-0.041,0.247-0.049,0.385c0.01,0.002,0.021,0.003,0.032,0.004
			c-0.012,0.005-0.022,0.008-0.034,0.013c0,0.006-0.001,0.012-0.001,0.018c0.01,0.016,0.022,0.026,0.033,0.041
			c0.068,0.002,0.135,0.018,0.205,0.017c0.114,0.007,0.201,0.051,0.275,0.107c1.906-0.024,4.82,0.066,5.27,1.697
			c0.02,0.071,0.013,0.15,0.015,0.227c0.015,0.011,0.028,0.022,0.043,0.033c-0.005,0.004-0.01,0.007-0.014,0.01
			c0.236,0.273,0.434,0.577,0.611,0.893c0.251,0.308,0.501,0.616,0.736,0.936c0.145,0.067,0.283,0.148,0.397,0.242
			c1.277,1.044,2.472,2.195,3.792,3.177c0.843,0.626,1.705,1.227,2.576,1.813c1.401,0.649,2.74,1.427,4.25,1.914
			c1.44,0.464,2.879,0.93,4.343,1.301c0.537,0.016,1.077,0.015,1.595,0.126c0.621-0.087,1.577,0.439,2.279,0.611
			c-1.113,1.231-2.071,2.208-2.929,3.268c-0.726,0.896-1.389,1.854-1.979,2.846c-1.062,1.786-0.691,3.517,0.003,5.237
			c1.359-2.83,4.666-4.524,7.298-5.934c3.52-1.885,7.083-3.474,10.859-4.776c2.715-0.937,5.41-1.885,8.078-2.916
			c0.121-0.09,0.239-0.132,0.406-0.157c1.435-0.561,2.864-1.141,4.277-1.774c1.212-0.544,2.496-1.077,3.717-1.696
			c1.124-0.911,2.188-1.889,3.09-3.006c1.58-1.955,2.446-4.224,3.274-6.537c0.017-0.112,0.03-0.228,0.05-0.339
			c0.423-2.453,0.793-4.913,1.218-7.575c0.529,0.57,1.088,1.165,1.639,1.768c0.153,0.169,0.248,0.453,0.432,0.523
			c2.344,0.9,2.943,2.983,3.556,5.091c0.163,0.562,0.645,1.034,0.798,1.596c0.47,1.726,0.85,3.476,1.268,5.215
			c0.529,2.189,1.014,4.391,1.606,6.562c0.643,2.351-0.017,4.594-0.47,6.84c-0.915,4.531-3.395,8.14-6.929,11.022
			c-1.752,1.429-3.633,2.707-5.488,4.006c-2.509,1.757-4.314,4.089-5.432,6.892c-0.331,0.831-0.051,1.905-0.051,3.059
			c-0.82-1.75-2.563-0.997-3.82-1.596c-0.028-0.014-0.053-0.038-0.079-0.056c0.264,0.611,0.596,1.219,1.017,1.823
			c1.205,1.733,2.328,3.352,2.42,5.51c0.188-0.256,0.384-0.674,0.568-1.161c0.828-2.495,0.089-5.215,1.503-7.566
			c1.266-2.104,2.916-3.938,4.827-5.481c0.591-0.478,1.289-0.907,2.029-1.325c1.666-1.397,3.428-2.682,4.768-4.448
			c1.028-1.356,2.158-2.63,3.027-4.097C706.468,363.74,705.896,349.6,698.255,340.356z M649.828,359.081
			c0.413-0.722,0.438-1.821,1.816-1.53C651.804,359.037,651.064,359.336,649.828,359.081z M653.482,334.501
			c-0.655-0.084-1.733-0.237-1.842-0.595c-0.358-1.176-0.415-2.458-0.448-3.704c-0.004-0.213,0.718-0.689,1.022-0.63
			c2.405,0.477,4.79,1.055,7.23,1.611C658.604,333.229,655.646,334.771,653.482,334.501z M665.8,364.263
			c-3.641,1.918-7.013,4.349-10.503,6.555c0.002-0.013,0.006-0.024,0.008-0.037c-0.374,0.321-0.783,0.551-1.186,0.441
			c-0.391,0.112-0.765-0.367-0.551-0.741c0.252-0.442,0.525-0.86,0.812-1.264c2.227-3.257,5.735-5.721,9.206-7.435
			c2.156-1.064,4.36-2.187,6.624-3.009c1.153-0.418,3.123-1.361,4.359-0.898c0.006,0.002,0.009,0.007,0.015,0.01
			c0.584,0.078,1.371,0.575,1.99,0.858c0.328,0.151,0.539,0.558,0.547,0.566C673.385,360.919,669.458,362.336,665.8,364.263z
			 M691.039,346.696c-1.128,3.231-1.871,6.747-5.001,8.87c-1.215,0.823-2.439,1.636-3.68,2.423c-0.26,0.163-0.666,0.353-0.9,0.263
			c-1.58-0.61-3.142-1.272-4.687-1.968c-0.282-0.127-0.538-0.434-0.687-0.724c-1.53-0.921-2.264-3.013-2.814-4.612
			c-0.892-2.586-2.464-5.028-3.142-7.683c-0.05-0.055-0.092-0.12-0.111-0.213c-0.362-1.69-0.934-3.414-1.705-5.066
			c-0.16-0.345-0.337-0.683-0.509-1.023c-1.707-3.235-4.202-6.098-7.401-7.738c-3.056-1.567-6.175-2.054-9.59-2.023
			c-2.444,0.021-4.367-0.357-6.695-0.924c-0.367-0.089-0.422-0.454-0.283-0.714c0.059-0.108,0.153-0.192,0.271-0.234
			c0.104-0.077,0.241-0.115,0.402-0.079c0.413,0.094,0.972-0.09,1.398-0.108c0.06-0.003,0.119-0.002,0.179-0.004
			c2.048-0.377,3.95-0.713,5.762-1.276c3.014-0.938,5.903-2.267,8.865-3.374c1.889-0.705,3.821-0.98,5.848-0.522
			c2.891,0.653,5.884,0.954,8.691,1.849c3.842,1.223,7.636,2.7,10.377,5.945c0.965,1.145,2.142,2.124,3.014,3.329
			c0.934,1.289,1.627,2.753,2.412,4.146c0.223,0.396,0.384,0.826,0.604,1.222C692.292,337.595,691.573,345.169,691.039,346.696z"/>
		<path d="M628.388,349.727c-0.358-0.176-0.695-0.389-1.019-0.64c-0.81-0.452-1.581-1.021-2.346-1.64
			c-0.984-0.797-2.071-1.498-3.219-2.044c-1.416-0.347-2.928-0.4-4.422-0.214c-6.082,0.757-12.092,4.991-16.624,8.938
			c-2.416,2.104-4.687,4.406-6.59,6.992c-1.926,2.616-3.439,5.488-5.39,8.087c-1.672,2.227-3.445,4.441-5.235,6.577
			c-0.737,1.164-1.554,2.273-2.529,3.077c0.768-0.06,1.534-0.034,2.292,0.056c0.414-0.364,0.83-0.728,1.251-1.087
			c1.093-1.393,2.245-2.813,3.229-4.347c1.294-2.015,2.112-4.356,3.538-6.255c2.138-2.848,4.609-5.444,6.965-8.124
			c1.651-1.881,3.231-3.846,5.06-5.541c1.57-1.456,3.367-2.713,5.208-3.818c1.804-1.082,3.785-1.867,5.694-2.771
			c2.022-0.957,4.112-0.176,6.17-0.202c0.694-0.01,1.39,0.216,2.088,0.307c1.062,0.141,1.919,0.495,2.622,1.429
			c0.662,0.877,1.676,1.481,2.428,2.306c0.332,0.362,0.516,0.96,0.559,1.467c0.002,0.026,0.003,0.054,0.006,0.08
			c-0.002-0.181-0.001-0.361,0-0.543c-0.021-0.048-0.034-0.097-0.056-0.145c-0.08-0.182-0.052-0.403,0.057-0.562
			c0.001-0.021-0.001-0.043,0-0.064c0.01-0.314,0.313-0.583,0.633-0.482c0.003,0.001,0.007,0.002,0.01,0.003
			C628.662,350.278,628.533,349.999,628.388,349.727z"/>
		<path d="M514.768,469.738c-0.309,0.523-0.803,1.437-0.775,2.196c0.059,0.067,0.062,0.162,0.035,0.248
			c0.032,0.147,0.081,0.29,0.17,0.415c0.06-0.342,0.131-0.728,0.264-1.097c0.329-0.908,0.792-1.768,1.129-2.673
			c0.037-0.1,0.096-0.194,0.158-0.287C515.352,468.884,515.015,469.319,514.768,469.738z"/>
		<path d="M651.254,388.178c-0.216-1.448-0.522-2.608-0.522-3.768c0-1.147,0.312-2.295,0.493-3.486
			c2.003,0.185,10.641-9.247,12.164-11.633c-0.333,0.15-0.651,0.312-0.969,0.475c-0.227,0.248-0.509,0.463-0.752,0.648
			c-0.006,0.005-0.013,0.005-0.019,0.009c-1.845,1.907-3.972,3.541-6.016,5.228c-0.639,0.527-1.426,1.064-2.255,1.548
			c-0.254,0.198-0.526,0.396-0.818,0.573c-0.083,0.102-0.19,0.164-0.321,0.175c-0.154,0.08-0.308,0.16-0.466,0.22
			c-1.8,0.903-3.758,1.011-6.017,0.324c-0.061-0.019-0.12-0.039-0.181-0.058c-1.222-0.149-2.408-0.41-3.33-0.693
			c-2.678-0.823-5.146-2.609-7.176-4.519c-2.206-2.074-3.9-4.508-5.434-7.111c-1.098-1.864-1.403-3.474-1.548-5.271
			c-0.009-0.025-0.021-0.051-0.029-0.076c-0.037-0.11-0.026-0.203,0.001-0.287c-0.01-0.151-0.021-0.304-0.031-0.458
			c-0.027-0.129-0.068-0.253-0.079-0.389c-0.685,0.547-1.499,1.854-1.499,1.854c-0.174-0.033-0.335-0.06-0.505-0.09
			c-0.025-0.003-0.05-0.006-0.074-0.013c-0.817-0.144-1.604-0.271-2.364-0.46c-2.763-0.684-5.501-0.92-8.302-0.096
			c-2.671,0.788-5.331,1.341-7.369,3.605c-2.38,2.643-3.792,5.649-4.32,9.074c-0.265,1.714-0.247,3.433,0.101,5.111
			c0.371,1.34,0.944,2.601,1.76,3.713c1.905,1.252,3.816,2.514,5.828,3.573c0.229,0.121,0.492,0.168,0.76,0.192
			c-1.94,1.587-3.814,2.64-6.562,2.973c-2.271,0.277-4.512,0.277-6.732,0.882c-3.814,1.038-7.248,4.956-8.94,8.345
			c-0.268,0.537-0.48,1.097-0.664,1.665c-0.249-0.052-0.498-0.106-0.748-0.159c-0.146,0.034-0.304,0.054-0.484,0.038
			c-4.621-0.406-8.783-2.286-12.747-4.531c-2.556-1.448-5.281-2.74-7.448-4.7c-0.115-0.097-0.226-0.197-0.33-0.306
			c-0.418-0.404-0.822-0.827-1.187-1.295c-0.31,0.172-0.672,0.393-0.999,0.613c0.046,0.305,0.011,0.606-0.239,0.849
			c-0.235,0.229-0.588,0.28-0.911,0.239c-1.904,2.593-4.004,4.991-6.511,7.033c-1.307,1.065-2.508,2.259-3.757,3.394
			c-1.665,1.51-3.468,2.897-4.954,4.565c-1.264,1.417-2.322,3.074-3.191,4.77c-0.28,0.548-0.558,1.098-0.836,1.647
			c-1.019,2.176-1.832,4.44-2.464,6.797c-0.724,2.699-1.288,5.447-1.897,8.177c0.115,0.107,0.181,0.265,0.12,0.464
			c-0.473,1.557-0.913,3.123-1.341,4.693c-0.095,0.859-0.198,1.717-0.348,2.566c-0.306,1.753-1.097,3.418-1.666,5.126
			c-0.101,0.302-0.197,0.605-0.296,0.909c-0.399,1.444-0.822,2.882-1.263,4.313c-0.164,0.717-0.394,1.408-0.648,2.091
			c-1.486,4.669-2.308,10.135-5.064,14.246c-0.891,1.328-3.862,4.762-6.281,5.881c-0.061,0.082-0.127,0.159-0.2,0.229
			c-0.399,0.572-0.89,1.015-1.691,0.995c-0.542-0.014-1.123-0.226-1.646-0.537c0.06,0.227,0.135,0.411,0.219,0.565
			c0.599,0.242,1.197,0.87,1.867,0.447c0.088-0.056,0.169-0.044,0.233-0.002c0.009-0.009,0.02-0.012,0.028-0.021
			c0.161-0.178,0.405-0.021,0.427,0.177c0.017,0.152-0.004,0.288-0.034,0.422c0.014,0.025,0.031,0.049,0.034,0.078
			c0.105,1.085-0.05,2.165-0.062,3.25c-0.001,0.063-0.031,0.104-0.063,0.144c0.003,0.111,0.001,0.224,0.006,0.335
			c0.062,1.39-0.728,1.376-1.435,1.343c-0.096,0.054-0.212,0.023-0.291-0.054c-1.312,0.104-1.694-2.692-1.883-3.608
			c-0.162-0.789-0.438-1.878,0.31-2.44c0.116-0.087,0.23-0.135,0.344-0.154c-0.025-0.12-0.052-0.24-0.077-0.358
			c0.125-0.042,0.249-0.083,0.372-0.126c-0.411-0.245-0.78-0.551-1.07-0.874c-0.342-0.175-0.686-0.343-1.046-0.464
			c-0.492-0.166-1.073-0.314-1.621-0.285c-0.237,0.087-0.469,0.172-0.691,0.252c-0.145,0.066-0.273,0.142-0.407,0.215
			c-1.502,1.2-2.406,3.21-2.472,5.198c-0.041,1.327-0.084,2.772-0.765,3.901c-0.091,0.427-0.283,0.846-0.649,1.266
			c-0.261,0.298-0.383,0.73-0.528,1.117c-0.622,1.652-0.561,3.303-0.344,5.058c0.359,2.883,0.407,5.808,0.503,8.717
			c0.018,0.534-0.278,1.133-0.576,1.607c-0.394,0.626-0.958,1.141-1.405,1.735c-1.304,1.732-0.723,3.405,0.226,5.04
			c0.531,0.916,2.763,1.682,3.938,1.467c0.565-0.104,1.197,0.078,1.735-0.082c0.743-0.221,1.813-0.467,2.061-1.011
			c0.696-1.533,1.174-3.199,1.487-4.86c0.275-1.45,0.209-2.964,0.295-4.468c0.014,0.006,0.041-0.015,0.065-0.028
			c0.006-0.033,0.008-0.071,0.017-0.102c0.029-0.271,0.102-0.516,0.192-0.75c0.112-0.717,0.537-1.464,0.833-2.025
			c0.622-1.183,1.22-2.42,1.902-3.566c0.713-1.194,1.754-2.854,3.211-3.197c0.547-0.128,1.051,0.403,1.541,0.837
			c2.027,1.165,4.075,2.337,6.118,3.524c1.335,0.775,7.418,2.901,9.043,3.403c3.719,1.146,13.56,3.625,14.729,3.882
			c3.125,0.685,6.221,1.509,9.341,2.218c2.452,0.145,4.905,0.219,7.363,0.062c5.91-0.375,12.333-2.498,14.939-7.888
			c0-0.015,0.002-0.027,0.002-0.042c-0.004-0.192,0.087-0.32,0.21-0.397c-0.032-1.745-0.08-3.488-0.096-5.238
			c-0.045-4.825,0.954-14.791,1.349-18.988c0.21-4.818,0.407-9.638,0.496-14.461c-0.27-1.454-0.421-2.976-0.408-4.428
			c-0.406,2.299-0.852,4.601-1.276,6.935c-0.051-0.393-1.78,23.743-2.323,31.799c0.316,1.878,0.07,3.9-0.757,5.313
			c-1.019,1.738-2.607,2.786-4.413,3.429c-0.101,0.112-0.259,0.174-0.466,0.162c-2.001,0.625-4.224,0.793-6.221,0.857
			c-5.102,0.164-10.255-0.459-15.293-1.25c-2.709-0.424-6.13-0.857-8.622-2.415c-1.935-0.293-3.83-0.844-5.742-1.283
			c-2.602-0.596-5.2-1.197-7.801-1.793c-0.312-0.072-0.669-0.049-0.93-0.2c-1.959-1.139-3.903-2.299-5.84-3.475
			c-1.361-0.826-2.303-2.026-2.929-3.41c-0.048-0.038-0.09-0.089-0.12-0.154c-0.019-0.04-0.031-0.079-0.05-0.119h-0.001
			c-0.004-0.01-0.008-0.021-0.012-0.031c-0.322-0.716-0.579-1.42-0.765-2.11c-0.766-2.283-1.31-4.749-0.634-7.05
			c0.324-1.102,0.815-2.122,1.404-3.089c0.07-0.241,0.146-0.454,0.229-0.6c0.387-0.671,0.787-1.36,1.308-1.924
			c0.585-0.635,1.17-1.28,1.771-1.902c0.291-0.801,0.631-1.585,0.97-2.37c0.651-1.506,1.256-3.018,1.972-4.495
			c0.746-1.54,1.446-3.092,2.112-4.668c0.352-0.832,0.7-1.678,1.161-2.457c0.275-0.467,0.581-0.903,0.826-1.377
			c1.74-5.797,2.783-11.759,4.144-17.702c1.228-5.359,2.41-10.802,4.525-15.896c1.378-3.315,3.336-7.595,6.826-9.187
			c0.265-0.292,0.516-0.595,0.791-0.878c0.072-0.074,0.147-0.111,0.223-0.134c0.266-0.283,0.526-0.57,0.777-0.866
			c0.072-0.086,0.152-0.128,0.232-0.148c2.912-2.832,6.35-5.344,8.705-8.164c0.09-0.108,0.2-0.152,0.311-0.156
			c0.292-0.104,0.668,0.058,0.668,0.447c0,0.223-0.041,0.363-0.12,0.493c-1.077,3.674-1.658,7.354-1.317,11.194
			c0.01,0.105-0.017,0.187-0.056,0.258c0.121,2.619,0.438,5.164,1.861,7.281c2.825,1.146,6.202,0.692,8.842-0.888
			c0.134-0.206,0.246-0.425,0.306-0.667c0.038-0.159,0.058-0.316,0.068-0.474c-0.125-0.372-0.348-0.736-0.47-1.093
			c-1.242-2.104-1.647-5.049-1.924-7.561c-0.133-0.645-0.233-1.182-0.299-1.394c-0.721-2.318-1.422-4.642-2.133-6.963
			c0.109-0.081,0.218-0.163,0.326-0.245c1.57,1.133,3.061,2.402,4.729,3.368c2.167,1.257,9.064,4.004,14.294,5.764
			c-0.147,1.405-0.146,2.843-0.071,4.256c0.062,1.166,0.174,2.314,0.296,3.417c0.075,0.678,0.152,1.394,0.236,2.125
			c0.365-0.189,0.743-0.344,1.135-0.464c-0.102-0.87-0.195-1.721-0.282-2.503c-0.163-1.49-0.267-3.005-0.233-4.506
			c0.014-0.646,0.053-1.289,0.122-1.928c0.017,0.006,0.033,0.011,0.052,0.017c0.021-0.548,0.122-1.098,0.27-1.659
			c0.027-0.219,0.075-0.415,0.138-0.614c0.069-0.288,0.144-0.576,0.223-0.863c0.018-0.064,0.045-0.118,0.068-0.177
			c-0.021-0.004-0.04-0.007-0.061-0.011c0.315-0.982,0.729-1.938,1.279-2.853c1.259-2.087,3.087-3.66,5.061-5.04
			c2.364-1.652,5.01-1.754,7.776-1.979c3.967-0.32,6.293-1.581,9.15-4.074c0.009,0.016,0.016,0.029,0.024,0.045
			c0.064-0.034,0.14-0.057,0.229-0.057c0.35,0,0.503,0.292,0.474,0.562c0.836,1.188,1.398,2.457,2.398,3.545
			c0.106,0.115,0.211,0.231,0.316,0.347c2.596,1.882,5.465,3.002,8.596,3.46c0.638,0.095,1.322-0.164,1.972-0.107
			c0.8,0.07,1.752,0.071,2.346,0.505c1.528,1.114,3.285,0.737,4.927,1.048c1.019,0.193,2.1,0.109,3.089,0.38
			c1.602,0.435,3.124,0.221,4.627-0.267c2.183-0.709,4.346-1.483,6.499-2.283c0.391-0.146,0.845-0.471,1.006-0.831
			c0.517-1.159,3.795-4.293,7.164-7.328c0.508-0.631,1.025-1.254,1.495-1.921c0.664-0.942,1.419-1.816,2.145-2.712
			c-1.094,0.868-2.188,1.737-3.286,2.6C655.586,384.831,653.557,386.392,651.254,388.178z M516.96,487.521
			c-0.345,1.781-0.062,3.676-0.273,5.494c-0.301,2.589,0.117,5.44-2.201,7.43c-1.096,0.94-3.556,0.599-4.593-0.577
			c-1.122-1.274-0.912-2.945,0.49-4.173c0.587-0.512,1.136-1.069,1.687-1.621c0.093-0.262,0.157-0.544,0.21-0.833
			c0.195-3.975-1.139-7.886-1.092-11.884c0.02-1.632,0.204-3.503,1.307-4.805c0.099-0.116,0.209-0.237,0.325-0.358
			c0.493-0.801,1.197-1.32,2.216-1.287c0.01-0.019,0.017-0.037,0.027-0.057c2.032-0.054,3.226,1.207,3.4,3.239
			C518.749,481.387,517.565,484.393,516.96,487.521z M518.684,474.559c0.012,0.174-0.134,0.234-0.275,0.204
			c-0.09,0.031-0.2,0.017-0.272-0.041c-0.671-0.537-1.929-0.668-2.968-0.994c-0.535,0.074-1.064,0.2-1.605,0.255
			c-0.135,0.014-0.251-0.124-0.25-0.25c0.007-0.563,0.056-1.124,0.062-1.688c0.001-0.102,0.057-0.159,0.125-0.197
			c0.005-0.104,0.007-0.207,0.027-0.323c0.315-1.828,2.132-4.775,4.352-3.971c0.01,0.004,0.011,0.014,0.021,0.019
			c0.128,0.03,0.245,0.076,0.335,0.155c-0.678,2.072,0.451,3.896,0.451,5.854c0.047,0.217,0.062,0.429,0.064,0.651
			c0,0.036-0.02,0.057-0.031,0.083C518.769,474.413,518.741,474.498,518.684,474.559z M518.816,488.211
			c0.147-3.881,0.29-7.681,0.442-11.665c1.145-0.447,2.446,1.548,3.675-0.337c0.572,1.403,1.025,2.516,1.464,3.591
			C522.625,482.471,520.778,485.254,518.816,488.211z M569.349,399.021c0.033,0.301,0.062,0.62,0.092,0.935
			c0.8,2.259,0.664,5.159,1.303,7.461c0.688,1.201,1.401,2.393,2.109,3.607c-0.099,0.064-0.201,0.113-0.303,0.169
			c0.003,0.015,0.011,0.024,0.013,0.04c0.124,1.225-1.461,1.704-2.398,1.82c-0.366,0.045-0.772,0.061-1.168,0.02
			c-1.382,0.238-2.818-0.146-3.516-1.417c-1.375-1.304-1.556-4.127-1.705-6.043c-0.197-2.531-0.061-5.164,0.598-7.63
			c0.513-1.92,0.823-4.271,1.945-5.939c0.067-0.101,0.16-0.166,0.261-0.205c0.046-0.213,0.099-0.427,0.168-0.64
			c0.053,0.212,0.107,0.423,0.161,0.635c0.031,0.011,0.062,0.014,0.094,0.03c0.278,0.149,0.388,0.227,0.521,0.395
			C569.244,393.742,569.122,396.973,569.349,399.021z M648.786,391.165c-2.26,0.896-4.501,1.907-6.846,2.501
			c-0.546,0.139-1.107,0.218-1.674,0.276c-2.165,0.812-4.878,0.915-6.648,0.691c-5.774-0.731-13.091-2.602-16.972-7.277
			c-0.231-0.279-0.102-0.623,0.126-0.782c0.033-0.149,0.136-0.275,0.345-0.304c0.901-0.123,1.957-0.246,3.074-0.404
			c0.318-0.119,0.639-0.231,0.963-0.33c2.114-0.647,4.276-1.14,6.421-1.688c0.404-0.213,0.792-0.441,1.147-0.699
			c0.027-0.137,0.007-0.3-0.085-0.501c-0.07-0.153-0.408-0.24-0.76-0.266c-0.884,0.327-1.835,0.536-2.743,0.752
			c-2.047,0.487-4.104,0.691-6.181,0.766c-0.332,0.042-0.662,0.099-0.995,0.13c-0.729,0.069-1.444,0.021-2.147-0.1
			c-4.748-0.075-9.234-1.605-10.695-6.637c-1.147-3.955-0.406-8.819,2.712-11.743c1.812-1.698,4.163-2.896,6.621-3.318
			c1.183-0.203,2.48-0.46,3.763-0.542c0.053-0.007,0.103-0.02,0.155-0.025c0.972-0.114,1.989,0.048,2.974,0.179
			c1.418,0.189,2.829,0.438,4.231,0.717c1.102,0.218,2.162,0.316,2.37,1.93c0.232,1.805,0.625,3.713,1.481,5.285
			c1.473,2.7,3.295,5.214,6.323,6.522c0.826,0.356,1.43,1.218,2.25,1.6c1.41,0.657,2.914,1.115,4.373,1.668
			c0.074,0.028,0.165,0.062,0.256,0.1c1.267,0.213,2.548,0.484,3.763,0.902c1.102,0.379,3.28,1.259,2.732,2.531
			c-0.262,2.308-1.292,4.751,0.226,7.152C649.437,390.393,649.065,391.055,648.786,391.165z"/>
	</g>
	<path fill-rule="evenodd" clip-rule="evenodd" fill="#FFFFFF" d="M641.068,345.332c0.266,0.925,0.482,1.7,0.711,2.473
		c0.349,1.181,0.687,2.365,1.079,3.531c0.062,0.185,0.412,0.42,0.58,0.386c0.217-0.044,0.52-0.318,0.544-0.521
		c0.055-0.453,0.029-0.942-0.091-1.384c-0.288-1.06-0.634-2.104-0.985-3.146c-0.267-0.79-0.578-1.565-0.918-2.478
		C641.474,344.829,641.198,345.171,641.068,345.332z"/>
	<path fill="#FFFFFF" d="M664.577,328.523c1.18,1.397,2.427,2.81,3.602,4.28c1.465,1.836,2.854,3.735,4.311,5.58
		c0.697,0.882,1.473,1.701,2.335,2.687C676.44,337.602,669.749,328.899,664.577,328.523z"/>
	<path fill="#FFFFFF" d="M684.561,336.333c-0.389-0.517-0.717-1.091-0.988-1.68c-1.435-2.291-3.122-4.424-5.174-6.38
		c-1.872-1.785-3.888-3.264-6.243-4.292c2.367,1.685,4.464,3.874,6.073,5.835c3.497,4.26,6.593,8.635,7.658,13.959
		c0.24-0.062,0.626-0.27,0.706-0.453c0.192-0.441,0.453-0.868,0.634-1.314C686.439,340.03,685.565,338.137,684.561,336.333z"/>
	<path fill-rule="evenodd" clip-rule="evenodd" d="M665.87,348.688c0.277,2.208,0.633,4.411,0.783,6.628
		c0.044,0.646-0.497,1.333-0.824,2.13c-0.412-0.505-0.702-0.856-1.053-1.285c-1.529,1.37-3.435,1.728-5.356,1.301
		c-0.166,0.785-0.317,1.5-0.501,2.368c-5.576-4.265-5.591-10.648-2.451-12.916c0,0.958,0,1.818,0,2.6
		c1.704-0.862,4.905-1.193,6.819-0.685c-0.386-0.665-0.826-1.391-1.222-2.14c-0.084-0.159-0.076-0.526,0.02-0.584
		c0.188-0.114,0.542-0.188,0.694-0.085c0.948,0.649,1.858,1.353,2.782,2.038C665.665,348.269,665.768,348.479,665.87,348.688z
		 M664.848,350.11c-0.879,0.276-3.499,0.18-4.215,0.328c-1.393,0.288-2.736,0.996-4.038-0.352c-0.128,0.088-0.256,0.174-0.384,0.261
		c0.448,1.948,0.896,3.896,1.377,5.988c0.3-0.281,0.5-0.564,0.585-0.534c2.293,0.835,3.716-0.822,5.355-1.845
		c0.406-0.253,1.066-0.497,1.127-0.832C664.847,352.061,664.809,350.954,664.848,350.11z"/>
	<path fill-rule="evenodd" clip-rule="evenodd" d="M641.068,345.332c0.13-0.161,0.405-0.503,0.92-1.14
		c0.34,0.912,0.651,1.688,0.918,2.478c0.352,1.042,0.697,2.087,0.985,3.146c0.12,0.441,0.146,0.931,0.091,1.384
		c-0.024,0.203-0.327,0.478-0.544,0.521c-0.168,0.034-0.519-0.201-0.58-0.386c-0.393-1.166-0.73-2.351-1.079-3.531
		C641.551,347.032,641.334,346.257,641.068,345.332z"/>
	
		<line fill-rule="evenodd" clip-rule="evenodd" stroke="#000000" stroke-miterlimit="10" x1="646.894" y1="343.796" x2="647.941" y2="347.289"/>
	<path fill-rule="evenodd" clip-rule="evenodd" d="M684.561,336.333c-0.389-0.517-0.717-1.091-0.988-1.68
		c-1.435-2.291-3.122-4.424-5.174-6.38c-1.872-1.785-3.888-3.264-6.243-4.292c2.367,1.685,4.464,3.874,6.073,5.835
		c3.497,4.26,6.593,8.635,7.658,13.959c0.24-0.062,0.626-0.27,0.706-0.453c0.192-0.441,0.453-0.868,0.634-1.314
		C686.439,340.03,685.565,338.137,684.561,336.333z"/>
	<path fill-rule="evenodd" clip-rule="evenodd" d="M674.824,341.07c-0.862-0.985-1.638-1.805-2.335-2.687
		c-1.457-1.845-2.846-3.744-4.311-5.58c-1.175-1.471-2.422-2.883-3.602-4.28C669.749,328.899,676.44,337.602,674.824,341.07z"/>
	<path fill-rule="evenodd" clip-rule="evenodd" d="M698.593,361.517c-0.479-3.003-2.267-5.281-3.689-7.77
		c0.022,0.081,0.046,0.163,0.069,0.244c0.112,0.371,0.227,0.741,0.349,1.109c0.225,0.676,0.38,1.398,0.518,2.124
		c0.099,0.427,0.179,0.862,0.242,1.305c0.027,0.147,0.055,0.298,0.083,0.443c0.459,2.325,0.954,4.776,0.557,7.147
		c-0.813,4.86-3.594,9.018-7.016,12.461c0.497,0.508,1.203,0.59,1.858-0.021c0.341-0.314,0.625-0.692,0.919-1.055
		c2.653-3.277,4.282-7.047,5.429-11.075C698.371,364.809,698.883,363.331,698.593,361.517z"/>
	<path fill-rule="evenodd" clip-rule="evenodd" d="M688.849,361.984c0.028,0.269-0.125,0.561-0.474,0.561
		c-0.05,0-0.088-0.016-0.13-0.026c-0.289,0.517-0.525,0.939-0.449,1.293c0.858,3.975-0.628,7.295-2.647,10.521
		c-0.314,0.502-0.424,1.133-0.741,2.021C689.894,373.548,690.612,366.572,688.849,361.984z"/>
	<g>
		<line fill-rule="evenodd" clip-rule="evenodd" x1="656.69" y1="342.854" x2="649.319" y2="345.39"/>
		<path d="M656.69,342.854c0,0-0.406,0.316-1.059,0.667c-0.65,0.357-1.544,0.753-2.465,1.073c-0.922,0.314-1.87,0.554-2.603,0.671
			c-0.729,0.126-1.245,0.125-1.245,0.125s0.406-0.317,1.059-0.668c0.649-0.357,1.544-0.753,2.465-1.072
			c0.922-0.313,1.871-0.552,2.603-0.67C656.176,342.854,656.69,342.854,656.69,342.854z"/>
	</g>
	<polygon fill-rule="evenodd" clip-rule="evenodd" fill="#FFFFFF" points="588.504,409.394 588.507,409.429 588.842,412.564 	"/>
	<path d="M626.062,393.033c-0.269,0.277-0.262,0.851,0.227,1.016c2.16,0.731,4.4,0.813,6.653,1.007
		c0.334,0.028,0.511-0.187,0.55-0.439C631.15,394.314,628.566,393.82,626.062,393.033z"/>
</g>
<g id="Layer_2">
	
		<ellipse fill="none" stroke="#000000" stroke-width="4" stroke-miterlimit="10" cx="695.354" cy="212.508" rx="49.614" ry="79.827"/>
	
		<ellipse fill="none" stroke="#000000" stroke-width="3" stroke-miterlimit="10" cx="695.354" cy="212.509" rx="42.231" ry="67.947"/>
	<path fill="none" stroke="#000000" stroke-width="3" stroke-miterlimit="10" d="M614.667,0"/>
	
		<line fill="none" stroke="#000000" stroke-width="5" stroke-miterlimit="10" x1="685.585" y1="401.047" x2="685.585" y2="497.321"/>
	<g>
		<path d="M622.977,412.564c0.223,0.837,0.413,1.674,0.576,2.51c0.182,0.837,0.322,1.674,0.459,2.511l-1.035-1.035
			c3.249-0.558,6.497-0.895,9.746-1.125c1.624-0.117,3.248-0.197,4.872-0.253c1.625-0.059,3.249-0.074,4.873-0.086
			c1.624,0.011,3.248,0.023,4.873,0.083c1.624,0.053,3.248,0.132,4.872,0.249c3.249,0.227,6.497,0.577,9.746,1.116l-1.051,1.051
			c0.14-0.837,0.293-1.674,0.471-2.511c0.165-0.836,0.356-1.673,0.58-2.51c0.224,0.837,0.415,1.674,0.58,2.51
			c0.178,0.837,0.331,1.674,0.471,2.511l0.143,0.853l-1.193,0.198c-3.249,0.539-6.497,0.89-9.746,1.116
			c-1.624,0.117-3.248,0.196-4.872,0.249c-1.625,0.06-3.249,0.072-4.873,0.083c-1.624-0.012-3.248-0.027-4.873-0.086
			c-1.624-0.056-3.248-0.136-4.872-0.253c-3.249-0.23-6.497-0.567-9.746-1.125l-1.172-0.201l0.137-0.834
			c0.137-0.837,0.277-1.674,0.459-2.511C622.563,414.238,622.754,413.401,622.977,412.564z"/>
	</g>
	<g>
		<path d="M622.977,446.674c0.223,0.837,0.413,1.674,0.576,2.51c0.182,0.837,0.322,1.674,0.459,2.511l-1.035-1.035
			c3.249-0.558,6.497-0.895,9.746-1.125c1.624-0.117,3.248-0.197,4.872-0.253c1.625-0.059,3.249-0.074,4.873-0.086
			c1.624,0.011,3.248,0.023,4.873,0.083c1.624,0.053,3.248,0.132,4.872,0.249c3.249,0.227,6.497,0.577,9.746,1.116l-1.051,1.051
			c0.14-0.837,0.293-1.674,0.471-2.511c0.165-0.836,0.356-1.673,0.58-2.51c0.224,0.837,0.415,1.674,0.58,2.51
			c0.178,0.837,0.331,1.674,0.471,2.511l0.143,0.853l-1.193,0.198c-3.249,0.539-6.497,0.89-9.746,1.116
			c-1.624,0.117-3.248,0.196-4.872,0.249c-1.625,0.06-3.249,0.072-4.873,0.083c-1.624-0.012-3.248-0.027-4.873-0.086
			c-1.624-0.056-3.248-0.136-4.872-0.253c-3.249-0.23-6.497-0.567-9.746-1.125l-1.172-0.201l0.137-0.834
			c0.137-0.837,0.277-1.674,0.459-2.511C622.563,448.348,622.754,447.511,622.977,446.674z"/>
	</g>
	<g>
		<path d="M709.802,412.564c0.223,0.837,0.413,1.674,0.576,2.51c0.182,0.837,0.322,1.674,0.459,2.511l-1.035-1.035
			c3.248-0.558,6.497-0.895,9.745-1.125c1.624-0.117,3.249-0.197,4.873-0.253c1.624-0.059,3.248-0.074,4.872-0.086
			c1.625,0.011,3.249,0.023,4.873,0.083c1.624,0.053,3.248,0.132,4.873,0.249c3.248,0.227,6.496,0.577,9.745,1.116l-1.051,1.051
			c0.14-0.837,0.293-1.674,0.471-2.511c0.165-0.836,0.356-1.673,0.58-2.51c0.224,0.837,0.415,1.674,0.58,2.51
			c0.178,0.837,0.331,1.674,0.471,2.511l0.143,0.853l-1.193,0.198c-3.249,0.539-6.497,0.89-9.745,1.116
			c-1.625,0.117-3.249,0.196-4.873,0.249c-1.624,0.06-3.248,0.072-4.873,0.083c-1.624-0.012-3.248-0.027-4.872-0.086
			c-1.624-0.056-3.249-0.136-4.873-0.253c-3.248-0.23-6.497-0.567-9.745-1.125l-1.172-0.201l0.137-0.834
			c0.137-0.837,0.277-1.674,0.459-2.511C709.389,414.238,709.579,413.401,709.802,412.564z"/>
	</g>
	<g>
		<path d="M709.802,449.185c0.223,0.837,0.413,1.674,0.576,2.51c0.182,0.837,0.322,1.674,0.459,2.511l-1.035-1.035
			c3.248-0.558,6.497-0.895,9.745-1.125c1.624-0.117,3.249-0.197,4.873-0.253c1.624-0.059,3.248-0.074,4.872-0.086
			c1.625,0.011,3.249,0.023,4.873,0.083c1.624,0.053,3.248,0.132,4.873,0.249c3.248,0.227,6.496,0.577,9.745,1.116l-1.051,1.051
			c0.14-0.837,0.293-1.674,0.471-2.511c0.165-0.836,0.356-1.673,0.58-2.51c0.224,0.837,0.415,1.674,0.58,2.51
			c0.178,0.837,0.331,1.674,0.471,2.511l0.143,0.853l-1.193,0.198c-3.249,0.539-6.497,0.89-9.745,1.116
			c-1.625,0.117-3.249,0.196-4.873,0.249c-1.624,0.06-3.248,0.072-4.873,0.083c-1.624-0.012-3.248-0.027-4.872-0.086
			c-1.624-0.056-3.249-0.136-4.873-0.253c-3.248-0.23-6.497-0.567-9.745-1.125l-1.172-0.201l0.137-0.834
			c0.137-0.837,0.277-1.674,0.459-2.511C709.389,450.858,709.579,450.021,709.802,449.185z"/>
	</g>
	<g>
		<path d="M622.977,479.012c0.223,0.837,0.413,1.674,0.576,2.51c0.182,0.837,0.322,1.674,0.459,2.511l-1.035-1.035
			c3.249-0.558,6.497-0.895,9.746-1.125c1.624-0.117,3.248-0.197,4.872-0.253c1.625-0.059,3.249-0.074,4.873-0.086
			c1.624,0.011,3.248,0.023,4.873,0.083c1.624,0.053,3.248,0.132,4.872,0.249c3.249,0.227,6.497,0.577,9.746,1.116l-1.051,1.051
			c0.14-0.837,0.293-1.674,0.471-2.511c0.165-0.836,0.356-1.673,0.58-2.51c0.224,0.837,0.415,1.674,0.58,2.51
			c0.178,0.837,0.331,1.674,0.471,2.511l0.143,0.853l-1.193,0.198c-3.249,0.539-6.497,0.89-9.746,1.116
			c-1.624,0.117-3.248,0.196-4.872,0.249c-1.625,0.06-3.249,0.072-4.873,0.083c-1.624-0.012-3.248-0.027-4.873-0.086
			c-1.624-0.056-3.248-0.136-4.872-0.253c-3.249-0.23-6.497-0.567-9.746-1.125l-1.172-0.201l0.137-0.834
			c0.137-0.837,0.277-1.674,0.459-2.511C622.563,480.686,622.754,479.849,622.977,479.012z"/>
	</g>
	<g>
		<path d="M709.802,479.012c0.223,0.837,0.413,1.674,0.576,2.51c0.182,0.837,0.322,1.674,0.459,2.511l-1.035-1.035
			c3.248-0.558,6.497-0.895,9.745-1.125c1.624-0.117,3.249-0.197,4.873-0.253c1.624-0.059,3.248-0.074,4.872-0.086
			c1.625,0.011,3.249,0.023,4.873,0.083c1.624,0.053,3.248,0.132,4.873,0.249c3.248,0.227,6.496,0.577,9.745,1.116l-1.051,1.051
			c0.14-0.837,0.293-1.674,0.471-2.511c0.165-0.836,0.356-1.673,0.58-2.51c0.224,0.837,0.415,1.674,0.58,2.51
			c0.178,0.837,0.331,1.674,0.471,2.511l0.143,0.853l-1.193,0.198c-3.249,0.539-6.497,0.89-9.745,1.116
			c-1.625,0.117-3.249,0.196-4.873,0.249c-1.624,0.06-3.248,0.072-4.873,0.083c-1.624-0.012-3.248-0.027-4.872-0.086
			c-1.624-0.056-3.249-0.136-4.873-0.253c-3.248-0.23-6.497-0.567-9.745-1.125l-1.172-0.201l0.137-0.834
			c0.137-0.837,0.277-1.674,0.459-2.511C709.389,480.686,709.579,479.849,709.802,479.012z"/>
	</g>
	<polyline fill="none" stroke="#000000" stroke-width="5" stroke-miterlimit="10" points="772.038,435.009 772.038,469.267 
		766.819,469.267 597.284,469.267 	"/>
	<polyline fill="none" stroke="#000000" stroke-width="5" stroke-miterlimit="10" points="772.038,469.267 772.038,497.321 
		766.819,497.321 597.284,497.321 597.284,401.047 764.436,401.047 766.819,401.047 772.038,401.047 772.038,435.009 
		766.993,435.009 597.284,435.009 	"/>
	<path fill="none" stroke="#000000" stroke-width="5" stroke-miterlimit="10" d="M772.038,401.047C772,386.92,772,372.92,772,358.92
		c-22,0-43,0-64.719-0.107"/>
	<path fill="none" stroke="#000000" stroke-width="5" stroke-miterlimit="10" d="M597.284,401.047c0-2.426,0-4.851,0-7.276"/>
	<path d="M600.26,391.215c0-0.012-0.006-0.021-0.007-0.033c0.004-0.038,0.004-0.076,0.007-0.114
		c0.078-0.742-1.047-0.745-1.168-0.041l-0.018,0.024c-0.046-0.013-0.089-0.029-0.143-0.033c-0.234-0.015-0.471,0.009-0.709,0.05
		c-0.088-0.006-0.173,0.015-0.255,0.058c-0.048,0.012-0.097,0.019-0.146,0.032c-0.141-0.115-0.331-0.168-0.524-0.119
		c-1.027,0.267-2.461,1.448-2.775,2.48c-0.17,0.558,0.579,1.004,0.981,0.578c0.096,0.2,0.314,0.356,0.559,0.375
		c0.011,0.065,0.02,0.133,0.034,0.198c0.059,0.259,0.283,0.39,0.52,0.409c0.211,0.526,1.139,0.456,1.134-0.223
		c0-0.082,0.011-0.163,0.013-0.245c0.072,0.447,0.599,0.657,0.922,0.445c0.066,0.048,0.144,0.079,0.225,0.102
		c0.156,0.544,1.107,0.478,1.153-0.202c0.016-0.216,0.02-0.433,0.028-0.648c0.017-0.043,0.041-0.077,0.05-0.13
		c0.06-0.373,0.086-0.744,0.101-1.117C600.311,392.42,600.288,391.762,600.26,391.215z"/>
	<g id="Layer_3">
	</g>
	<path fill="none" stroke="#000000" stroke-miterlimit="10" d="M400.666,437.072C447,436.92,492,438.92,537.786,438.404"/>
	<line fill="none" stroke="#000000" stroke-miterlimit="10" x1="589.774" y1="438.404" x2="597.284" y2="438.404"/>
	<polyline fill="none" stroke="#000000" stroke-miterlimit="10" points="772.038,438.404 830,438.404 832,438.404 	"/>
</g>
<g id="Layer_4">
	<path fill-rule="evenodd" clip-rule="evenodd" d="M589.701,441.818c-0.002-0.011-0.008-0.017-0.011-0.027
		c0.099-3.795,0.194-7.591,0.171-11.388c-0.037-5.933,1.138-12.267-0.045-18.115c-0.128-0.632-1.092-0.364-0.965,0.266
		c0.595,2.938,0.394,5.964,0.228,8.936c-0.185,3.288-0.232,6.535-0.212,9.827c0.027,4.428-0.119,8.854-0.235,13.279
		c-0.039,0.373-0.07,0.742-0.061,1.091c0.003,0.119,0.018,0.24,0.022,0.359c-0.049,2.014-0.088,4.027-0.093,6.041
		c-0.002,0.625,0.931,0.639,0.989,0.051c-0.012-0.774-0.034-1.554-0.055-2.334c0.249-0.061,0.481-0.287,0.438-0.61
		c-0.183-1.338-0.28-2.717-0.317-4.066C589.525,444.023,589.877,442.905,589.701,441.818z"/>
	<path fill-rule="evenodd" clip-rule="evenodd" d="M667.748,364.488c-2.619,1.781-4.318,4.497-6.602,6.641
		c-0.314,0.295-0.101,0.701,0.214,0.812c1.336-1.587,2.837-3.011,4.39-4.382c0.763-0.812,1.572-1.574,2.502-2.207
		C668.782,364.991,668.282,364.124,667.748,364.488z"/>
	<path fill-rule="evenodd" clip-rule="evenodd" d="M671.568,362.918c-0.884,1.237-1.391,2.72-2.069,4.074
		c-1.013,2.021-2.222,3.938-3.521,5.786c-2.929,4.169-6.344,7.921-9.832,11.601c-0.443,0.468,0.263,1.176,0.707,0.707
		c1.352-1.426,2.659-2.864,3.94-4.324c0.076-0.094,0.152-0.185,0.228-0.278c0.014-0.017,0.033-0.02,0.049-0.033
		c1.639-1.88,3.228-3.802,4.761-5.814c1.373-1.801,2.607-3.674,3.729-5.641c1.027-1.799,1.668-3.888,2.871-5.573
		C672.808,362.896,671.939,362.397,671.568,362.918z"/>
	<path fill-rule="evenodd" clip-rule="evenodd" d="M693.686,383.357c1.663-1.394,3.421-2.677,4.758-4.439
		c1.02-1.345,2.138-2.609,3.004-4.061c3.921-8.661,4.444-19.197,0.832-27.81c-0.162-0.254-0.314-0.509-0.484-0.76
		c-0.049-0.072-0.104-0.132-0.159-0.191c-1.763-3.49-4.192-6.653-7.2-9.237c-1.459-1.254-3.591,0.858-2.121,2.121
		c6.11,5.251,9.308,12.866,9.545,20.752c0.123,4.084-0.77,8.164-1.828,12.084c-0.521,1.93-1.254,3.403-2.207,4.688
		c-0.474,0.517-0.976,1.012-1.51,1.48c-5.317,4.662-11.3,7.075-12.911,13.851c-2.329-2.845-0.671-6.783,0.168-10.392
		c0.354-1.519-1.375-2.428-2.507-1.459c-0.479,0.409-0.975,0.747-1.479,1.055c-0.085,0.041-0.166,0.092-0.245,0.151
		c-2.055,1.192-4.297,1.726-6.613,2.55c-0.254,0.09-0.522,0.195-0.798,0.305c3.886-2.862,7.508-6.312,8.892-10.602
		c1.215-3.765,2.328-10.365,0.099-13.905c-1.027-1.633-3.624-0.128-2.59,1.514c0.104,0.164,0.193,0.343,0.276,0.529
		c0.073-0.014,0.155-0.023,0.256-0.034c0.045-0.02,0.091-0.039,0.136-0.059c0.289-0.124,0.644-0.043,0.734,0.299
		c0.028,0.107,0.046,0.211,0.067,0.315c0.233,0.582,0.413,1.185,0.532,1.808c0.164,0.583,0.22,1.186,0.2,1.797
		c0.15,4.301-1.828,9.062-4.143,12.264c-1.964,2.715-4.386,5.318-7.179,7.341c1.04,0.133,2.079,0.347,3.152,0.247
		c2.646-0.246,4.945-1.209,7.135-2.695c0.325-0.222,0.743,0.075,0.752,0.432c0.088,3.678-0.136,6.915,2.078,10.096
		c1.209,1.738,2.336,3.361,2.422,5.529c0,0.007-0.003,0.012-0.003,0.019c0.233-0.163,0.437-0.372,0.56-0.631
		c-0.07-0.103-0.097-0.236-0.039-0.396c0.923-2.541,0.105-5.334,1.552-7.739c1.266-2.104,2.916-3.938,4.827-5.481
		C692.241,384.211,692.941,383.777,693.686,383.357z"/>
	<path fill-rule="evenodd" clip-rule="evenodd" d="M573.494,411.043c-1.099-1.552-2.247-2.686-2.706-4.641
		c-0.449-1.911-0.473-3.922-0.846-5.854c-0.176-0.908-0.431-1.8-0.69-2.691c0.028,0.41,0.058,0.809,0.097,1.163
		c0.12,1.088,0.215,2.284,0.344,3.502c0.216,0.919,0.429,1.839,0.603,2.765c0.187,0.994,0.331,2.006,0.606,2.97
		c0.353,0.894,0.799,1.723,1.39,2.435c0.05,0.06,0.063,0.124,0.082,0.187c0.1,0.08,0.174,0.198,0.189,0.354
		c0.008,0.075-0.01,0.14-0.015,0.21c0.027,0.035,0.057,0.067,0.083,0.104C573,412.068,573.868,411.57,573.494,411.043z"/>
	<path fill-rule="evenodd" clip-rule="evenodd" d="M649.151,378.865c-0.291-0.131-0.591-0.234-0.892-0.336
		c-2.008,0.144-4.409-0.297-6.014-0.79c-2.678-0.823-5.146-2.609-7.176-4.519c-1.324-1.245-2.45-2.63-3.481-4.092
		c-1.67-2.648-3.325-5.338-1.774-8.551c1.391-2.882,4.797-4.509,7.565-5.753c0.058-0.026,0.087-0.066,0.135-0.098
		c0.876,0.686,2.104-0.614,1.275-1.514c-0.438-0.475-0.943-0.876-1.399-1.333c-0.173-0.174-0.304-0.37-0.421-0.572
		c-0.006-0.032,0.003-0.059-0.006-0.092c-0.612-2.288-0.497-4.812,0.083-7.257c0.047-0.267,0.104-0.53,0.177-0.79
		c0.541-1.912,1.243-3.736,2.157-5.502c1.439-2.781,3.601-6.308,5.971-8.412c0.143-0.127,0.337-0.147,0.507-0.096
		c0.04-0.014,0.081-0.029,0.122-0.037c0.162-0.085,0.321-0.153,0.473-0.177c1.272-0.192,0.729-2.119-0.531-1.928
		c-2.519,0.381-5.492,6.07-6.88,7.972c-2.931,4.014-4.988,9.713-4.365,14.848c-0.159,0.084-0.319,0.149-0.479,0.221
		c-0.032-0.098-0.098-0.176-0.188-0.223c-0.148,0.123-0.31,0.24-0.502,0.346c-1.104,0.607-2.584,0.473-3.84-0.017
		c-1.492-0.318-2.497-1.099-3.615-2.32c-2.211-2.417-5.489-3.052-8.669-2.655c-6.082,0.757-12.092,4.991-16.624,8.938
		c-2.416,2.104-4.687,4.406-6.59,6.992c-1.926,2.616-3.439,5.488-5.39,8.087c-0.98,1.306-1.999,2.603-3.032,3.887
		c-0.755,1.159-1.587,2.251-2.542,3.215c-0.68,1.019-1.43,1.968-2.312,2.659c-1.73,1.357-3.067,1.164-5.168,1.305
		c-3.373,0.225-7.256,1.253-9.227,4.265c-0.698,1.066-1.057,2.347-1.483,3.561c-0.148-0.034-0.302-0.058-0.455-0.067
		c-0.766-0.049-1.544,0.132-2.143,0.621c-0.581,0.477-0.723,1.36-0.404,2.02c0.367,0.759,1.177,1.094,1.986,1.062
		c0.643-0.025,0.646-1.025,0-1c-0.396,0.016-0.802-0.057-1.039-0.407c-0.051-0.076-0.083-0.156-0.101-0.238
		c-0.008-0.015-0.019-0.026-0.023-0.042c-0.023-0.043-0.055-0.079-0.069-0.126c-0.106-0.336,0.064-0.593,0.315-0.757
		c0.312-0.368,0.851-0.482,1.417-0.43c0.164,0.016,0.358,0.081,0.432,0.248c0.211,0.478,0.381,1.07-0.048,1.486
		c-0.069,0.067-0.15,0.115-0.236,0.154c0.08,0.075,0.153,0.159,0.248,0.212c0.08,0.167,0.201,0.33,0.377,0.48
		c0.268,0.229,0.55,0.431,0.832,0.628c-0.001,0.092,0.042,0.184,0.116,0.269c0.034-0.055,0.062-0.114,0.098-0.167
		c0.156-0.232,0.433-0.314,0.684-0.18c0.253,0.136,0.366,0.216,0.484,0.355c0.285,0.242,0.518,0.533,0.715,0.856
		c2.097,0.871,4.417,1.137,6.72,0.962c0.024-0.012,0.042-0.029,0.071-0.037c5.337-1.524,11.194-6.842,5.904-12.102
		c-0.196-0.195-0.188-0.511,0-0.707c2.306-2.402,5.01-4.395,7.421-6.708c0.688-1.031,1.341-2.091,1.984-3.156
		c3.263-5.394,7.059-10.141,11.503-14.603c4.309-4.325,10.544-9.111,16.854-9.597c7.418-0.57,8.545,7.755,8.044,13.186
		c-0.012-0.005-0.023-0.009-0.035-0.015v0.621c0,0.309-0.298,0.549-0.6,0.483c-0.118,0.009-0.236-0.021-0.338-0.084
		c-7.362-2.099-17.136-2.191-20.919,5.836c-2.447,5.193-2.507,12.062,1.405,16.177c0.206,0.161,0.407,0.326,0.634,0.476
		c1.952,1.29,4.283,2.101,6.749,2.505c0.066-0.035,0.142-0.06,0.234-0.06c0.16,0,0.28,0.062,0.36,0.154
		c0.831,0.113,1.674,0.185,2.521,0.209c0.018-0.016,0.038-0.024,0.057-0.038c0.032-0.15,0.135-0.278,0.346-0.308
		c3.726-0.51,10.013-0.979,12.812-4.226c-0.051-0.227-0.144-0.445-0.28-0.635c-1.246,1.004-2.943,1.35-4.514,1.724
		c-3.023,0.72-6.068,0.829-9.167,0.801c-4.806-0.044-9.375-1.555-10.852-6.642c-1.147-3.955-0.406-8.819,2.712-11.743
		c1.812-1.698,4.163-2.896,6.621-3.318c1.834-0.315,3.94-0.763,5.841-0.468c2.596,0.107,5.105,0.745,6.821,2.051
		c0.301,2.774,2.243,5.399,3.65,7.777c0.247,0.417,0.645,0.534,1.011,0.46c0.544,1.244,1.17,2.431,2.042,3.438
		c2.591,2.992,5.679,4.451,9.504,5.258c2.069,0.437,5.745,0.259,5.557,3.173c-0.239,3.71-2.046,6.702-5.114,8.736
		c-1.862,1.235-3.999,1.801-6.212,1.939c-1.436,0.188-2.857,0.174-3.931,0.038c-5.774-0.731-13.091-2.602-16.972-7.277
		c-0.099-0.119-0.131-0.252-0.119-0.377c-0.691,0.106-1.157,0.662-1.315,1.259c0.351,0.582,0.721,1.153,1.153,1.697
		c0.12,0.089,0.243,0.257,0.368,0.455c0.417,0.453,0.826,0.906,1.21,1.381c1.253,0.863,2.57,1.49,3.985,2.102
		c3.678,1.589,7.239,3.144,11.294,3.519c5.738,0.532,12.517-0.564,16.013-5.737C651.564,388.207,654.16,381.117,649.151,378.865z
		 M581.542,385.325c3.36,4.812-11.715,9.776-14.849,4.159c-0.072-0.129-0.069-0.25-0.037-0.359
		c-0.009-0.066-0.012-0.133-0.003-0.201c-0.146-0.874,0.572-2.186,0.824-2.812c0.725-1.8,2.071-2.985,3.815-3.757
		C574.646,380.869,579.481,382.375,581.542,385.325z M627.946,359.605c-0.027-0.38-0.022-0.759-0.003-1.137
		c-0.009-0.156-0.016-0.305-0.026-0.465c-0.008-0.126,0.031-0.22,0.088-0.296c0.077-0.83,0.182-1.66,0.167-2.499
		c-0.02-1.095-0.051-2.187-0.047-3.279c2.32,0.694,4.629,0.968,6.903-0.042c0.182,0.375,0.375,0.74,0.656,1.075
		c0.095,0.113,0.208,0.207,0.311,0.312c-3.245,1.496-6.248,3.405-7.999,6.576C627.977,359.771,627.953,359.691,627.946,359.605z"/>
	<path fill-rule="evenodd" clip-rule="evenodd" d="M574.343,384.777c-2.431-0.036-4.818,1.04-6.149,3.078
		c-0.104,0.158-0.095,0.311-0.033,0.437c1.084,3.726,9.566,2.896,9.566-0.921c0.007-0.026,0.021-0.047,0.023-0.076
		C577.94,385.337,575.932,384.801,574.343,384.777z M569.196,388.173c1.076-1.5,2.64-2.072,4.437-2.333
		c0.931-0.135,2.672-0.131,3.045,0.883l-0.031,0.031c-0.011,0.011-0.015,0.022-0.021,0.034c0.102,0.2,0.1,0.42,0.029,0.629
		c0.024,0.027,0.043,0.06,0.072,0.081C576.531,389.945,570.193,390.554,569.196,388.173z"/>
	<path fill-rule="evenodd" clip-rule="evenodd" d="M550.387,404.165c-2.743,4.399-5.386,8.686-7.105,13.6
		c-1.084,3.099-1.993,6.268-2.821,9.461c0.042,0.093,0.062,0.2,0.022,0.327c-0.263,0.867-0.516,1.736-0.762,2.608
		c-0.672,2.748-1.3,5.505-1.935,8.243c-0.568,2.449-1.159,4.913-1.857,7.341c-0.207,0.004-0.395,0.076-0.561,0.176
		c-0.1,0.345-0.211,0.684-0.332,1.021c0.247,0.623-1.238,3.303-1.508,3.972c-0.986,2.443-1.983,4.677-3.479,6.869
		c-2.689,3.942-6.054,7.558-7.226,12.209c0.05,0.809-0.016,1.615-0.054,2.424c0.522,0.425,1.614,0.176,1.729-0.745
		c0.004-0.029,0.012-0.057,0.016-0.086c0.037,0.374,0.257,0.62,0.549,0.729c-0.044-0.912,0.033-1.819,0.293-2.702
		c0.839-2.854,2.801-5.164,4.677-7.41c0.298-0.837,0.651-1.655,1.005-2.475c0.651-1.506,1.256-3.018,1.972-4.495
		c0.746-1.54,1.446-3.092,2.112-4.668c0.352-0.832,0.7-1.678,1.161-2.457c0.285-0.483,0.605-0.934,0.854-1.428
		c1.728-5.781,2.759-11.727,4.115-17.651c1.228-5.359,2.41-10.802,4.525-15.896c1.311-3.155,3.146-7.187,6.327-8.942
		C551.745,403.647,550.84,403.438,550.387,404.165z"/>
	<path fill-rule="evenodd" clip-rule="evenodd" d="M579.974,491.919c-1.479,0.14-2.831-2.47-3.654-4.673
		c0.383-0.09,0.776-0.147,1.181-0.139c0.646,0.014,0.644-0.986,0-1c-0.528-0.011-1.035,0.055-1.517,0.183
		c-0.25-0.767-0.413-1.405-0.466-1.737c-0.001-0.005-0.002-0.014-0.003-0.019c0.419-0.027,0.849-0.02,1.235-0.052
		c0.638-0.053,0.643-1.053,0-1c-0.462,0.038-0.935,0.054-1.395,0.096c-0.05-0.304-0.103-0.642-0.153-1.011
		c0.459,0.049,0.9,0.143,1.228,0.21c0.629,0.13,0.897-0.834,0.266-0.965c-0.461-0.096-1.031-0.205-1.613-0.246
		c-0.085-0.85-0.124-1.709-0.033-2.352c-0.523-0.032-1.063,0.28-1.049,0.955c0.01,0.471,0.057,0.942,0.102,1.415
		c-0.623,0.069-1.196,0.271-1.58,0.731c-0.41,0.491,0.294,1.203,0.707,0.707c0.23-0.275,0.587-0.405,0.987-0.457
		c0.056,0.392,0.123,0.783,0.195,1.174c-0.634,0.172-1.196,0.496-1.593,1.178c-0.325,0.558,0.539,1.062,0.863,0.504
		c0.226-0.387,0.553-0.603,0.926-0.728c0.142,0.651,0.306,1.295,0.479,1.933c-0.625,0.311-1.184,0.757-1.643,1.354
		c-0.394,0.511,0.477,1.008,0.863,0.504c0.293-0.382,0.661-0.65,1.056-0.867c0.005,0.017,0.01,0.034,0.015,0.052
		c0.544,1.814,1.462,4.751,3.607,5.215c0.673,0.146,1.121-0.338,1.214-0.862C580.112,492.001,580.032,491.971,579.974,491.919z"/>
	<path fill-rule="evenodd" clip-rule="evenodd" d="M522.996,468.081c-0.335,0.325-0.748,0.536-1.312,0.522
		c-0.677-0.017-1.414-0.342-2.022-0.786c-0.075-0.008-0.149-0.02-0.224-0.022c-0.604-0.024-0.633,0.837-0.11,0.973
		c0.023-0.021,0.04-0.047,0.066-0.066c0.623-0.47,1.211,0.165,1.837,0.416c0.198,0.037,0.396,0.062,0.596,0.072
		c0.099-0.021,0.196-0.047,0.298-0.11c0.086-0.055,0.16-0.035,0.225,0.004c0.012-0.011,0.025-0.015,0.037-0.027
		c0.109-0.121,0.253-0.082,0.343,0.015c0.052-0.016,0.103-0.022,0.154-0.043C523.326,468.852,523.293,468.265,522.996,468.081z"/>
	<path fill-rule="evenodd" clip-rule="evenodd" d="M513.568,475.356c0.132-0.098,0.272-0.181,0.423-0.248
		c0.267-0.337,0.008-0.962-0.499-0.796c-4.283,1.404-3.519,7.54-2.912,10.99c0.091,0.516,0.735,0.429,0.918,0.042
		c-0.105-0.758-0.197-1.517-0.253-2.277C510.89,480.174,510.9,476.406,513.568,475.356z"/>
</g>
</svg>
