<?xml version="1.0" encoding="utf-8"?>
<!-- Generator: Adobe Illustrator 16.0.0, SVG Export Plug-In . SVG Version: 6.00 Build 0)  -->
<!DOCTYPE svg PUBLIC "-//W3C//DTD SVG 1.0//EN" "http://www.w3.org/TR/2001/REC-SVG-20010904/DTD/svg10.dtd">
<svg version="1.0" xmlns="http://www.w3.org/2000/svg" xmlns:xlink="http://www.w3.org/1999/xlink" x="0px" y="0px" width="640px"
	 height="960px" viewBox="0 0 640 960" enable-background="new 0 0 640 960" xml:space="preserve">
<g id="scene_4_xA0_Image_1_">
	<path d="M568.302,579.338c0.402-0.831,0.829-1.642,1.293-2.436c-0.011-0.035-0.031-0.066-0.041-0.103
		c4.367-16.065,8.904-31.447,12.651-47.02c2.299-9.538,2.839-19.5,5.11-29.047c7.747-32.522,12.898-65.542,19.412-98.297
		c4.028-20.256,7.462-40.629,11.07-60.968c1.385-7.788,2.694-15.596,2.257-23.579c-0.144-2.582-0.642-4.515-3.714-4.884
		c-0.963-0.118-2.108-0.851-2.69-1.652c-2.057-2.809-3.945-5.742-5.814-8.68c-9.97-15.641-19.73-31.422-29.95-46.902
		c-5.301-8.038-10.7-16.224-17.301-23.155c-12.258-12.869-25.438-24.815-40.439-34.629c-15.375-10.062-31.036-19.612-47.392-27.993
		c-6.707-3.435-13.299-7.179-20.258-10.005c-8.755-3.555-17.849-6.268-26.762-9.433c-1.863-0.662-3.942-0.985-5.74-1.788
		c-1.172-0.062-2.337-0.408-3.335-0.983c-5.208-0.362-10.905-2.076-14.963-2.969c-4.843-1.067-9.479-2.74-14.234-3.997
		c-0.749-0.007-1.526-0.169-2.323-0.547c-1.5-0.132-3.019-0.263-4.485-0.395c-0.53-2.085-0.969-4.014-1.517-5.911
		c-0.553-1.914-0.368-3.254,0.93-5.183c3.402-5.081,8.178-8.63,12.461-12.74c5.51-5.296,6.232-13.13,1.984-19.47
		c-2.567-3.831-5.765-6.175-10.608-5.64c-3.008,0.333-6.031,0.554-9.241,0.842c-3.76-7.234-8.775-12.335-18.052-11.356
		c-8.191,0.861-14.546,4.357-19.011,11.184c-1.104-0.356-1.857-0.517-2.547-0.83c-9.606-4.367-21.857-0.461-27.119,8.606
		c-1.695,2.918-1.976,6.007-0.288,8.784c2.294,3.775,4.901,7.404,7.734,10.795c2.823,3.378,6.089,6.387,9.346,9.75
		c-3.71,3.513-4.054,7.192-0.438,10.849c-6.032,2.381-12.005,0.949-17.627,1.939c-15.416,2.709-31.198,2.177-46.513,5.682
		c-10.142,2.321-20.459,3.906-30.549,6.423c-12.66,3.159-23.934,9.674-35.401,15.683c-16.122,8.448-31.875,17.505-46.809,27.917
		c-8.874,6.187-17.446,12.807-26.285,19.046c-19.469,13.745-37.385,29.373-55.085,45.255c-6.765,6.072-13.03,12.696-19.637,18.95
		c-8.57,8.116-16.996,16.332-23.562,26.253c-2.339,3.534-4.335,8.025-7.704,9.961c-4.212,2.42-4.121,4.817-3.071,8.426
		c0.538,1.845,0.811,3.768,1.187,5.659c3.2,16.099,6.681,32.147,9.515,48.309c2.929,16.712,4.966,33.582,7.886,50.298
		c2.69,15.397,6.187,30.652,9.03,46.024c2.001,10.813,3.636,21.698,5.189,32.588c1.225,8.584,2.038,17.229,3.11,25.84
		c1.284,10.341,2.579,20.682,3.999,31.007c1.707,12.418,3.265,24.867,5.417,37.209c1.891,10.834,4.397,21.563,6.85,32.292
		c2.276,9.962,4.595,19.93,7.336,29.772c2.872,10.314,6.126,20.54,9.388,31.163c5.995,9.772,10.006,20.36,13.87,31.042
		c1.34,1.371,2.26,4.151,3.331,8.686h-0.174c0.766,2.08,1.546,4.157,2.355,6.22c0.342,0.874,0.709,1.753,1.057,2.629
		c2.761-0.142,5.521-0.298,8.278-0.501c9.188-0.669,17.331-7.183,12.083-8.079c-2.528-5.262-4.175-10.044-6.901-14.099
		c-8.219-12.228-12.335-26.177-17.193-39.791c-3.364-9.424-6.157-19.071-8.739-28.748c-2.529-9.491-4.48-19.14-6.629-28.731
		c-0.156-0.693,0.146-1.49,0.243-2.309c13.844,4.478,28.135,5.554,42.216,7.479c13.857,1.892,27.889,2.485,41.155,3.593
		c0.021,0.087,0.043,0.175,0.064,0.261c2.793,0.13,5.584,0.253,8.374,0.413l-0.005-0.058c1.697-0.088,3.395-0.296,5.085-0.261
		c10.971,0.229,21.938,0.626,32.908,0.741c11.999,0.129,24,0.17,35.998-0.027c8.885-0.146,17.759-0.812,26.642-1.077
		c3.666-0.113,7.353,0.427,11.015,0.296c5.774-0.208,11.545-1.162,17.298-1.032c11.142,0.258,22.218,0.533,33.333-1.078
		c1.786-0.261,3.635-0.235,5.492-0.075c0.066,0.004,0.116-0.029,0.186-0.017c1.156,0.133,2.307,0.229,3.454,0.306
		c0.285-0.154,0.612-0.261,0.984-0.306c1.723-0.208,3.335-0.072,4.948,0.289c3.477-0.318,6.901-1.131,10.39-1.502
		c0.76-0.078,1.324,0.197,1.719,0.634c0.568-0.115,1.14-0.224,1.708-0.337c0.932-0.272,1.91-0.476,2.955-0.589
		c6.243-1.254,12.5-2.448,18.788-3.429c11.417-1.781,22.897-3.171,35.644-4.899v1.228c2.28-0.46,4.572-0.844,6.873-1.114v-0.082
		c4.388-0.618,8.855-1.63,13.368-1.822c17.789-0.751,35.34-3.458,52.788-6.7c11.928-2.213,23.687-5.322,35.528-8.024
		c1.264-0.288,2.543-0.521,4.904-1.006c-0.904,2.922-1.736,5.656-2.538,8.295c-0.037,0.152-0.067,0.304-0.142,0.445
		c-0.749,2.459-1.486,4.831-2.249,7.199c-2.779,8.63-5.155,17.44-8.574,25.812c-1.453,3.552-2.746,7.166-4.027,10.786
		c-2.873,9.522-6.523,18.805-10.065,28.148c-2.478,6.558-4.648,13.149-6.685,19.786c-2.853,9.653-5.615,19.336-8.365,29.022
		c-0.019,0.821,0.027,1.642,0.177,2.422c0.812,4.205,13.619,5.726,14.434,3.208c-0.406,0.065-0.79,0.129-1.205,0.192
		c0.92-3.185,1.548-5.545,2.288-7.874c1.222-3.854,2.671-7.647,3.729-11.542c0.441-1.611,1.18-2.795,2.442-3.364
		c0.332-1.023,0.688-2.031,1.03-3.049c0.287-1.129,0.562-2.264,0.872-3.391c-0.38,0.054-0.749,0.099-1.127,0.156
		c2.567-9.621,4.457-18.733,9.701-26.805c0.228-0.354,0.445-0.721,0.667-1.079c4.406-13.947,9.256-27.847,16.853-40.085
		c3.12-8.399,5.995-16.896,9.03-25.326c0.96-2.674,2.104-5.28,3.427-8.574c0.037,0.03,0.072,0.058,0.107,0.082
		c0.783-3.372,2.091-6.563,3.816-9.49c-0.099-0.096-0.192-0.196-0.289-0.299c1.049-2.515,2.122-5.082,3.193-7.631
		C563.97,586.377,565.854,582.648,568.302,579.338z M323.912,120.151c-2.089-2.386-4.134-4.858-5.042-7.804
		c-1.255-2.34-1.986-4.911-2.69-7.544c-0.883-3.306,0.387-5.96,2.729-7.686c1.928-1.42,4.417-2.175,6.652-1.476
		c3.708-0.385,6.796,1.276,10.166,4.241c2.142,1.881,4.424,3.833,5.982,6.249c0.927,1.435,1.824,3.391,3.129,4.638
		c1.219-0.295,2.63-0.921,4.486-1.957c0.769-6.867-5.991-9.3-9.093-14.695c2.453-1.898,4.763-3.714,7.102-5.49
		c6.15-4.664,10.663-1.563,14.618,4.707c1.412,2.24,2.234,4.852,3.366,7.382c-1.396,2.645-2.818,5.34-4.24,8.045
		c4.628,2.209,4.856,2.234,6.951-1.55c2.021-3.659,4.768-6.521,8.349-8.619c4.08-2.393,6.262-1.716,8.276,2.566
		c2.638,5.598,1.561,11.533-2.899,16.569c-2.67,3.011-5.272,6.108-8.151,9.477c-0.285,0.596-0.811,1.118-1.632,1.477
		c-4.014,1.759-7.142,5.22-11.471,1.475c-1.644-1.418-3.4-0.821-5.188-0.144c-0.392,0.259-0.79,0.508-1.186,0.78
		c-1.448,1.521-4.014,1.426-5.343-0.239c-0.356-0.18-0.707-0.392-1.062-0.66c-0.166-0.126-0.319-0.266-0.47-0.408
		c-0.209-0.096-0.41-0.193-0.632-0.287c-0.196-0.083-0.363-0.186-0.532-0.29c-0.38-0.114-0.747-0.199-1.073-0.186
		c-1.778,0.077-3.15,0.492-4.509,1.623c-0.888,0.743-1.78,1.334-2.844,1.583c-1.218,0.6-2.726,0.579-3.996-0.637
		c-1.902-1.823-4.059-3.084-5.573-5.323c-0.079-0.115-0.155-0.23-0.232-0.345c-0.672-0.625-1.23-1.424-1.644-2.45
		C325.504,122.137,324.765,121.123,323.912,120.151z M375.795,138.714h-0.256c-0.477,0.094-0.942,0.094-1.412,0h-5.178
		c1.243-1.407-0.514-4.238,1.896-4.376c0.092-0.78,0.375-1.542,0.962-2.127c1.399-1.401,3.737-1.401,5.139,0l0.452,0.453
		c1.403,1.4,1.403,3.738,0,5.137c-0.462,0.465-1.039,0.717-1.645,0.873C375.769,138.687,375.781,138.701,375.795,138.714z
		 M356.581,138.254c-1.351-0.535-2.333-1.708-2.333-3.324c0-1.857,1.656-3.799,3.632-3.633c0.862,0.071,1.533,0.206,2.286,0.646
		C364.183,134.287,360.604,140.492,356.581,138.254z M348.357,138.747c-0.368-0.596-0.736-1.187-1.117-1.801
		c-0.097,0.128-0.146,0.283-0.263,0.399c-1.397,1.399-3.738,1.399-5.135,0c-0.053-0.051-0.102-0.101-0.152-0.151
		c-1.399-1.399-1.399-3.738,0-5.137c1.397-1.4,3.737-1.4,5.136,0c0.052,0.051,0.102,0.102,0.151,0.152
		c0.123,0.12,0.175,0.282,0.274,0.417c0.986-0.28,1.827-0.473,2.453-0.203C351.438,133.17,350.885,135.698,348.357,138.747z
		 M332,134.323v0.303c0,4.686-7.265,4.686-7.265,0v-0.303C324.735,129.639,332,129.639,332,134.323z M36.188,302.775
		c4.615-5.447,8.995-11.146,14.057-16.151c9.62-9.507,19.417-18.861,29.571-27.789c8.685-7.635,17.934-14.63,27-21.824
		c6.651-5.277,13.265-10.62,20.15-15.583c13.009-9.374,26.042-18.733,39.381-27.624c7.194-4.793,15.02-8.646,22.608-12.838
		c4.715-2.604,9.702-4.755,14.244-7.62c11.626-7.334,24.431-11.475,37.696-14.347c9.023-1.952,18.11-3.6,27.188-5.281
		c2.667-1.146,5.619-1.981,8.87-2.523c12.797-2.139,27.552-3.375,40.891-1.995c8.818-1.385,18.385-1.091,26.311-1.362
		c23.42-0.808,50.477-2.497,72.365,7.571c14.845,5.503,29.965,10.413,44.305,17.029c19.638,9.062,38.247,20.112,56.107,32.465
		c13.917,9.62,26.579,20.553,37.903,32.962c5.687,6.232,10.288,13.517,14.963,20.604c5.958,9.034,11.451,18.369,17.202,27.538
		c4.826,7.683,9.75,15.305,14.583,22.982c0.572,0.908,0.87,1.989,1.654,3.818c-21.389-3.261-41.872-1.95-62.2,2.407
		c-20.303,4.35-39.616,11.42-58.48,20.963c2.334-5.338,4.807-10.62,6.925-16.039c0.962-2.471,1.472-5.193,1.688-7.841
		c0.048-0.565-0.196-1.303-0.566-1.948c-2.627,2.961-5.772,5.544-9.081,7.066c-7.158,3.293-10.909-2.704-14.07-8.212
		c-0.024-0.034-0.028-0.069-0.049-0.104c-0.598-0.302-1.224-0.583-1.904-0.793c-0.38-0.116-0.733-0.155-1.069-0.162
		c-0.111-0.21-0.244-0.405-0.354-0.617c-0.263,0.255-0.529,0.521-0.794,0.79c-0.585,0.217-1.061,0.615-1.433,1.104l0,0
		c-0.351,0.125-0.684,0.316-1.014,0.504c-0.012,0.028-0.015,0.056-0.024,0.085c-2.178,4.824-6.604,12.205-13.03,9.269
		c-2.764-1.266-5.405-3.921-7.498-6.717c-0.389-0.007-0.776,0.005-1.181,0.054c-0.738,0.094-1.346,0.374-1.849,0.759
		c-0.298,2.606-0.561,5.281-0.484,7.915c0.078,1.04,0.162,2.084,0.334,3.097c0.15,0.871,0.696,1.675,1.076,2.504
		c3.794,8.265,10.361,13.679,18.365,18.588c-1.42,0.129-3.085,0.81-4.228,0.307c-18.587-8.168-37.844-14.51-57.194-20.469
		c-11.412-3.517-23.151-6.192-34.909-8.322c-15.358-2.783-30.819-5.361-46.354-6.687c-12.26-1.045-24.718-0.529-37.038,0.16
		c-9.987,0.558-19.994,1.938-29.827,3.808c-10.597,2.014-21.004,5.02-31.491,7.598c-0.894,0.219-1.782,0.462-4.034,1.052
		c2.613-5.213,4.656-9.344,6.75-13.446c2.034-3.988,2.352-7.29,0.889-10.196c-2.69,2.853-5.848,5.352-8.941,6.743
		c-2.27,1.021-4.645,1.622-6.86,0.832c-0.104,0.051-0.18,0.119-0.286,0.169c-0.044-0.116-0.088-0.229-0.133-0.345
		c-0.496-0.219-0.986-0.486-1.46-0.868c-1.302-1.046-1.964-2.531-2.286-4.128c-0.2-0.519-0.352-1.043-0.459-1.571
		c-0.618-1.695-1.12-3.388-1.334-5.084c-0.722-0.755-1.44-1.511-2.176-2.25c-0.926,1.255-1.832,2.521-2.712,3.805
		c-0.559,2.898-2.033,5.613-4.189,7.431c-0.045,0.109-0.105,0.211-0.15,0.321c-0.972,2.409-2.826,4.462-4.237,6.619
		c-3.558-1.193-5.685-3.824-7.729-6.539c-2.697-1.617-5.169-4.131-6.864-6.852c-0.482-0.253-0.986-0.486-1.532-0.678
		c-2.587,6.809-0.822,13.102,1.917,20.163c-2.241-0.71-3.676-0.977-4.946-1.59c-18.293-8.844-37.86-13.034-57.779-16.027
		c-21.486-3.224-42.698-1.976-63.645,3.704c-2.764,0.751-5.398,1.972-8.953,3.298C35.139,304.829,35.463,303.632,36.188,302.775z
		 M450.156,577.202h-9.692c-2.122-8.199-4.708-16.295-6.211-24.593c-1.083-5.972-0.652-12.213-1.062-18.32
		c-0.158-2.296-1.022-4.545-1.142-6.84c-0.153-3.011,0.039-6.044,0.197-9.062c0.146-2.679,0.613-5.344,0.648-8.019
		c0.082-7.3-0.114-14.604,0.041-21.9c0.119-5.538,1.291-11.128,0.815-16.591c-1.451-16.59,2.171-32.555,4.64-48.741
		c1.85-12.108,5.519-23.564,8.868-35.232c2.692-9.375,7.716-17.702,10.345-27.007c0.302-1.065,1.078-1.995,1.601-2.921
		c2.344,0.335,4.411,0.63,6.636,0.948c6.352,8.722,8.405,19.121,9.146,29.396c1.161,16.173,0.854,32.454,1.157,48.689
		c0.058,3.086-0.08,6.184,0.142,9.258c0.812,11.533-2.198,22.6-4.06,33.796c-2.523,15.212-5.352,30.372-7.857,45.585
		c-2.389,14.466-4.531,28.974-10.251,42.627C452.859,571.277,451.476,574.23,450.156,577.202z M451.392,585.741
		c-3.222,4.987-3.425,5.046-7.885,1.923c0.63-1.562,1.116-2.783,1.71-4.25C447.306,584.204,449.331,584.965,451.392,585.741z
		 M366.993,579.057c-2.399-1.469-5.15-2.357-8.048-3.646c4.708-6.933,11.204-13.137,9.244-22.989
		c-1.151-5.812-2.899-11.127-6.923-16.034c4.23-3.175,7.707-7.306,13.427-8.248c7.125-1.168,13.434-0.909,19.787,3.873
		c9.203,6.926,14.653,15.726,17.016,26.662c1.267,5.87,0.244,11.101-5.515,14.536c-3.138,1.87-5.933,4.31-9.081,6.141
		c-2.258,1.313-4.753,2.569-7.971,1.608c1.016-3.773,1.884-7,3.078-11.455c-2.26,0.898-3.466,1.006-3.973,1.654
		c-1.168,1.502-1.822,3.4-2.986,4.9C379.918,582.675,374.205,583.483,366.993,579.057z M378.184,585.635
		c-0.332,2.745-0.652,5.43-1.025,8.582c-2.485-0.144-4.505-0.259-6.508-0.378C370.636,586.004,371.09,585.468,378.184,585.635z
		 M225.896,575.925c3.163-4.74,7.73-9.873,0.414-16.182c-0.634,2.832-1.137,4.997-1.602,7.173c-0.706,3.294-6.558,9.342-9.686,9.717
		c-0.766,0.093-1.915-0.474-2.42-1.107c-5.417-6.836-6.966-14.606-5.518-23.131c1.469-8.645,6.018-15.766,11.435-22.277
		c1.445-1.736,4.637-2.249,7.144-2.824c3.542-0.811,7.254-0.904,10.78-1.765c4.922-1.2,9.55,0.065,14.242,1.045
		c3.554,0.745,6.343,2.489,8.116,5.854c1.063,2.021,2.589,3.805,3.643,5.315c-2.62,3.158-5.141,5.757-7.144,8.708
		c-3.508,5.178-3.555,11.008-1.626,16.67c1.833,5.381,0.645,9.351-3.966,12.49c-1.596,1.081-3.073,2.338-4.669,3.419
		C236.933,584.518,232.688,583.906,225.896,575.925z M235.553,595.596c-2.812-0.31-5.373-0.591-8.152-0.893v-9.048
		C231.351,586.599,232.913,588.469,235.553,595.596z M187.231,578.339c-4.21-8.607-8.267-16.843-12.266-25.107
		c-1.237-2.557-2.099-5.317-3.515-7.758c-2.501-4.312-1.287-9.003-1.672-13.497c-0.358-4.154,0.438-8.41,0.095-12.563
		c-0.364-4.413-0.656-8.641,0.249-13.112c0.867-4.289,0.389-8.863,0.395-13.311c0.018-12.347,0.004-24.691-0.047-37.036
		c-0.02-4.829-0.452-9.671-0.208-14.484c0.613-12.135,0.833-24.343,2.453-36.355c2.053-15.246,4.521-30.499,10.104-45.018
		c1.643-4.264,2.729-8.744,3.985-12.846c3.559,0.3,6.854,0.578,10.188,0.858c8.541,13.097,10.941,28.078,10.473,43.774
		c-0.855,28.585-1.614,57.171-2.441,85.758c-0.196,6.76-1.209,13.586-0.599,20.27c0.956,10.493-0.151,20.806-1.447,31.098
		c-0.886,7.039-2.85,13.938-4.274,20.917c-0.385,1.884-0.533,3.818-0.841,5.717C196.55,563.766,194.218,571.447,187.231,578.339z
		 M189.914,588.678c-0.037,3.482-1.235,4.831-4.22,4.766c-2.773-0.065-4.939-2.301-5.024-5.176c-0.08-2.703,1.847-5.513,3.863-5.64
		C187.441,582.441,189.95,585.261,189.914,588.678z M391.555,471.542c0.153,2.075,0.224,4.045-0.246,6.079
		c-0.033,0.151-0.117,0.233-0.212,0.295c0.065,0.619-0.814,0.85-1.102,0.276h-0.003c-0.002-0.005-0.002-0.007-0.006-0.014
		c-0.008-0.022-0.039-0.025-0.049-0.053c-0.002-0.005-0.002-0.009-0.002-0.015c-2.001-2.451-3.812-4.993-5.377-7.678
		c-4.226-1.24-4.987-4.437-4.883-8.35c0.021-0.756-0.117-1.569-0.397-2.271c-4.039-10.115-1.153-19.271,3.898-28.101
		c2.274-3.976,4.704-7.867,7.359-12.286c9.734,10.922,19.062,21.391,28.597,32.086c-6.929,5.696-7.156,14.926-10.834,22.674
		c-3.916,1.407-5.509-2.031-6.212-4.245c-1.898-5.983-2.908-12.242-4.275-18.41c-0.155,0.012-0.285,0.033-0.431,0.045
		c-2.733,3.336-4.104,7.576-5.053,11.788C391.708,466.127,391.348,468.701,391.555,471.542z M414.66,442.577
		c-4.925-5.342-9.808-10.774-14.201-16.554c-4.993-6.563-9.426-13.548-14.093-20.356c-0.218-0.317-0.324-0.719-0.57-1.011
		c-9.435-11.346-14.212-25.462-22.336-37.612c-3.289-4.918-5.569-10.416-7.757-16.013c-2.998-7.681-7.4-14.817-11.222-22.177
		c-0.933-1.795-2.591-3.364-1.623-6.416c10.611,2.138,21.246,3.79,31.611,6.472c19.997,5.173,39.421,12.143,58.577,19.89
		c4.194,1.698,8.975,1.967,13.493,2.843c0.942,0.183,1.927,0.111,2.888,0.206c6.998,0.708,7.527,1.52,4.9,8.088
		c-2.286,5.731-4.968,11.316-7.008,17.128c-5.299,15.084-10.733,30.137-15.328,45.439c-2.703,9.004-3.908,18.459-5.812,27.708
		c-0.108,0.523-0.41,1.012-0.95,2.289C421.515,449.048,417.85,446.034,414.66,442.577z M357.589,436.908
		c-0.659-5.239-2.444-9.981-4.747-14.63c-0.045-0.032-0.081-0.065-0.127-0.097c-1.197-0.833-2.077-2.252-2.839-3.557
		c-1.874-3.221-4.351-5.686-7.873-7c-0.006,0.008-0.012,0.014-0.02,0.021c-0.017-0.001-0.037-0.005-0.058-0.006
		c2.42,3.36,4.627,6.957,7.383,10.067c5.949,6.725,6.4,14.594,5.444,22.871c-0.087,0.766-0.473,1.53-0.415,2.273
		c0.734,9.51-4.027,15.919-11.339,21.242c-5.448,3.968-10.387,8.629-15.745,12.725c-2.11,1.607-4.702,2.637-7.172,3.695
		c-1.178,0.506-2.729,0.918-3.88,0.581c-7.721-2.251-15.932-3.104-22.843-7.742c-1.119-0.752-2.337-1.378-3.365-2.235
		c-4.864-4.06-9.523-8.38-14.571-12.189c-2.552-1.925-3.337-4.026-2.89-6.911c0.372-2.401,0.78-4.797,1.329-8.148
		c1.279,1.529,2.227,2.15,2.379,2.925c1.52,7.655,7.571,8.959,13.798,9.815c2.597,0.354,5.285,0.058,8.298,0.058
		c0.773-1.357,1.681-2.954,3.074-5.402c-1.49,0.439-2.217,0.617-2.915,0.873c-0.664,0.246-1.295,0.58-2.911,1.316
		c1.031-5.927,1.914-11.002,2.838-16.305c2.741,1.792,5.597,3.66,8.489,5.55c2.292-1.978,2.074-3.414-0.316-5.072
		c-5.024-3.482-10.514-5.942-16.544-6.309c-3.4-0.207-6.891,1.12-11.116,1.898c2.18-3.049,4.184-5.853,6.244-8.736
		c0.788,0.223,4.987-2.602,4.412-2.778c8.945-5.82,17.278-10.529,27.414-11.392c6.664-0.565,13.237-2.157,19.876-3.101
		c1.628-0.23,3.359,0.26,5.043,0.432c-0.018-0.027-0.036-0.052-0.055-0.08c0.049,0.02,0.084,0.045,0.132,0.065
		c2.604-4.196,7.677-4.02,11.316-6.386c2.966,1.516,3.58-2.072,6.237-2.901c3.083,8.005,7.509,15.47,7.422,24.416
		c-0.063,6.566-0.217,13.144-2.335,19.46c-2.611,7.781-3.215,15.836-3.474,23.953c-0.056,1.73-0.226,3.458-1.239,5.407
		c-0.579-2.562-1.119-5.137-1.738-7.688c-1.492-6.158-1.884-12.2-0.611-18.365C357.798,445.312,358.112,441.047,357.589,436.908z
		 M317.328,554.601c0.148-0.393,0.352-0.671,0.603-0.918c1.056-1.409,2.604-2.784,3.15-4.481c0.677-2.114,0.464-4.388,0.464-6.578
		c0-0.012,0.009-0.012,0.009-0.022c-0.098-0.673-0.192-1.325-0.293-2.04c3.683-3.357,9.241-5.109,14.775-5.955
		c2.825-0.433,6.028,1.705,9.076,2.639c2.165,0.661,3.024,2.25,3.181,4.335c0.444,5.982,0.26,11.864-1.359,17.748
		c-1.521,5.545-7.709,8.578-13.235,7.166c-2.579-0.657-4.809-2.813-7.102-4.431c-2.802-1.98-5.505-4.106-9.208-6.89
		c0.03-0.013,0.052-0.024,0.082-0.03C317.328,555.013,317.235,554.843,317.328,554.601z M311.839,555.025
		c-1.87,2.465-3.43,4.852-5.318,6.938c-4.715,5.213-8.855,11.158-16.719,12.265c-3.993,0.558-5.315,0.568-7.134-2.925
		c-3.012-5.771-6.079-11.564-7.229-18.093c-0.164-0.944-0.382-1.962-0.196-2.867c1.074-5.241,3.559-9.657,7.911-12.91
		c4.424-3.309,8.807-4.494,13.279-2.822c1.387,0.138,2.978,0.979,4.008,1.747c0.782,0.58,1.575,1.252,2.296,1.976
		c0.709,0.296,1.373,0.698,1.975,1.17c1.143,0.57,2.315,1.131,3.505,1.773C305.567,547.268,307.899,551.604,311.839,555.025z
		 M311.233,551.524c-0.012-0.009-0.027-0.022-0.037-0.037c-0.908-0.907-1.367-2.11-1.391-3.325
		c-0.003-0.018-0.015-0.036-0.019-0.057c-0.309-0.471-0.629-0.948-0.973-1.431c3.094-5.802,4.003-6.034,8.283-3.536
		c0.024,0.01,0.037,0.026,0.061,0.045c0.104,0.063,0.196,0.144,0.296,0.218c1.152,0.786,1.775,1.718,1.807,2.778
		c0.069,0.296,0.1,0.6,0.11,0.911c0.323,1.556-0.102,3.247-1.287,4.434c-0.481,0.479-1.048,0.837-1.654,1.069
		c-0.148,0.224-0.28,0.463-0.435,0.681c-0.103,0.142-0.921-0.049-1.753-0.39C313.139,552.794,312.062,552.354,311.233,551.524z
		 M347.509,533.29c-1.615-0.097-3.491-0.328-4.747-1.211c-3.631-2.567-7.177-2.194-10.929-0.55c-2.117,0.928-4.331,1.64-6.442,2.581
		c-1.554,0.69-3.696,1.211-4.385,2.461c-2.392,4.365-6.667,3.011-10.166,3.696c-0.997,0.195-2.743-1.356-3.521-2.524
		c-2.584-3.862-6.073-6.487-10.36-7.969c-5.736-1.982-11.438-2.219-15.413,3.307c-2.886,4.006-7.018,3.857-11.978,4.652
		c-2.673-3.432-4.86-7.561-8.222-10.171c-3.33-2.59-7.786-3.815-11.873-5.291c-1.505-0.542-3.37-0.088-5.518-0.088
		c1.163-2.798,2.087-5.073,3.062-7.325c0.222-0.515,0.572-1.325,0.94-1.373c4.581-0.566,8.116-4.695,13.088-3.844
		c1.121,0.193,2.558,0.117,3.281,0.78c3.924,3.598,8.865,3.488,13.61,3.934c3.064,0.288,6.178,0.005,9.266,0.08
		c2.97,0.076,5.733-0.215,8.17-2.245c4.027-3.355,8.532-6.218,12.182-9.937c3.16-3.214,4.984-7.404,2.041-12.386
		c4.716-0.811,9.016-1.551,13.873-2.384c0.062,1.093,0.598,2.532,0.12,3.445c-3.55,6.812-0.75,12.537,3.521,17.417
		c5.409,6.186,12.075,9.492,20.984,8.421c8.099-0.971,16.392-0.46,24.596-0.363c5.329,0.062,5.849,0.896,5.519,7.113
		c-2.677,0.677-5.47,1.297-8.211,2.104c-3.787,1.114-7.809,1.785-9.495,6.341c-0.306,0.829-2.541,1.229-3.92,1.317
		C353.568,533.475,350.525,533.475,347.509,533.29z M214.391,438.961c6.076-3.863,11.637-7.534,17.339-10.968
		c3.117-1.879,6.526-3.271,9.706-5.057c1.787-1.004,3.375-2.362,5.051-3.561c0,0,0.004-0.001,0.005-0.002
		c-0.001-0.004-0.003-0.009-0.005-0.014c0.005,0.002,0.011,0.005,0.016,0.008c3.6-2.517,7.36-4.836,10.752-7.607
		c3.121-2.557,5.915-5.531,8.706-8.462c1.285-1.351,2.229-3.032,3.294-4.585c0.417-0.61,0.601-1.438,1.125-1.906
		c5.751-5.153,11.666-10.125,17.285-15.417c3.055-2.877,5.706-6.204,8.375-9.461c1.213-1.478,2.008-3.294,3.042-4.925
		c3.385-5.327,7.738-7.394,14.214-5.447c4.719,1.414,9.677,1.627,14.502,3.398c5.962,2.188,10.501,6.351,15.955,9.047
		c6.974,3.451,9.234,10.576,13.51,16.097c1.863,2.404,0.035,8.671-2.683,10.444c-6.812,4.448-13.542,8.055-22.568,5.889
		c-4.427-1.062-9.881,0.842-14.553,2.381c-8.589,2.829-16.955,6.341-25.388,9.638c-5.102,1.991-7.949,6.608-11.157,10.527
		c-7.388,9.015-11.527,19.421-11.609,31.287c-0.033,4.328-1.517,8.295-4.528,11.726c0.293-1.346,0.465-2.735,0.902-4.034
		c2.598-7.684,1.478-14.695-3.644-21.032c-0.362-0.446-0.698-0.934-0.952-1.448c-3.158-6.366-6.344-12.718-9.413-19.124
		c-0.808-1.686-1.241-3.55-1.941-5.615c-0.792-0.336-2.006-0.854-3.227-1.371l-0.011,0.006c1.489,3.9,2.319,8.25,4.611,11.604
		c4.703,6.877,5.839,14.998,8.895,22.424c0.915,2.222,1.46,5.068,0.923,7.328c-1.851,7.806-2.723,15.991-8.104,22.619
		c-2,2.463-3.325,5.478-5.128,8.525c3.036,1.787,5,1.666,7.476,0.198c5.731-3.39,9.51-8.322,12.189-14.197
		c2.066-4.524,3.844-9.181,5.644-13.528c1.895,1.179,3.865,2.321,5.744,3.593c1.278,0.859,2.771,1.672,3.59,2.893
		c4.6,6.873,12.28,9.671,18.578,14.277c1.348,0.987,3.046,1.492,4.651,2.254c0.127,4.936-1.626,9.206-3.628,13.348
		c-1.439,2.978-3.688,5.124-6.906,6.534c-9.692,4.244-19.221,4.306-29.09,0.462c-6.837-2.664-13.745-1.93-19.872,2.316
		c-1.411,0.979-2.198,3.072-2.912,4.803c-0.297,0.72-0.636,1.368-1.004,1.976c0.007,0.107,0.029,0.21-0.037,0.327
		c-0.621,1.098-1.346,2.305-2.586,2.774c-0.296,0.112-0.601,0.203-0.907,0.283c-0.996,0.496-2.135,0.829-3.485,0.946
		c-8.167,0.71-14.906,5.053-21.523,9.335c-2.243,1.451-3.66,4.177-6.222,7.236c0.451-6.179,0.518-11.457,1.303-16.629
		c0.795-5.237,2.298-10.364,3.497-15.54c0.304-1.309,0.88-2.6,0.924-3.911c0.509-15.011,1.292-30.026,1.216-45.035
		C214.297,450.465,212.871,444.353,214.391,438.961z M278.97,449.179c1.058-1.667,0.367-4.483,3.266-5.303
		c0.826-0.233,0.992-2.808,1.652-4.924c2.91,0.128,5.395-0.932,8.144,1.512c4.055,3.61,4.659,3.956,3.11,8.893
		c-0.286,0.91-0.517,1.855-0.933,2.708c-2.689,5.503-9.192,6.91-13.631,2.608C279.318,453.455,278.267,450.28,278.97,449.179z
		 M366.369,402.954c-1.502-1.998-2.757-3.667-3.943-5.247c1.367-7.233-1.348-13.967-6.487-19.247
		c-2.792-2.871-5.048-6.245-8.703-8.151c-2.883-1.506-5.829-2.885-9.647-4.764c6.181-2.522,9.397-9.372,17.284-6.633
		c0.736,1.546,2.288,3.526,2.577,5.675c0.766,5.65,4.097,9.892,6.951,14.45c4.29,6.847,8.503,13.741,12.854,20.786
		C373.324,400.955,369.877,401.945,366.369,402.954z M348.048,346.812c1.314,2.514,2.643,5.021,4.288,8.148
		c-8.323-0.486-13.066,4.245-18.603,9.475c-6.99-4.824-15.995-4.675-25.082-6.472c7.916-12.336,15.583-24.278,23.628-36.815
		c1.702,0.142,3.91,0.327,5.427,0.451c0.966,3.862,1.358,7.296,2.685,10.318C342.63,337.018,345.461,341.861,348.048,346.812z
		 M318.27,334.652c-3.164,3.425-5.19,8.686-7.856,12.698c-1.594,2.4-3.282,4.725-5.191,6.832c0.158-0.024,0.3-0.047,0.463-0.072
		c-3.502,3.768-6.291,6.883-9.205,9.881c-8.863,9.115-17.997,17.977-26.603,27.326c-8.387,9.108-17.824,17.023-27.423,24.686
		c-8.087,6.457-17.015,11.857-25.6,17.686c-0.412,0.28-1.096,0.159-2.411,0.315c0-3.718,0.084-7.284-0.021-10.843
		c-0.142-4.805-0.452-9.603-0.647-14.403c-0.116-2.899,0.026-5.815-0.253-8.693c-1.097-11.283-1.572-22.701-3.747-33.781
		c-1.487-7.58-3.586-15.445-8.834-21.536c0.375-3.197,4.547-5.755,0.009-8.993c40.624-18.445,82.167-21.211,125.312-15.055
		c-1.883,3.433-4.051,6.45-6.38,9.257C320.066,331.515,319.633,333.178,318.27,334.652z M208.727,318.714
		c-0.146,0.449-0.382,0.89-0.738,1.312c-1.038,1.226-2.146,2.383-3.317,3.465c-1.574,2.982-4.045,5.055-7.085,6.887
		c-2.555,1.539-4.637,1.637-6.955,0.328c-8.261-4.677-14.806-10.879-17.189-20.798c1.471,1.522,2.801,3.218,4.439,4.528
		c3.237,2.586,6.247,2.86,9.405,0.078c3.091-2.721,5.517-6.198,8.188-9.288c5.836,9.364,9.229,8.258,17.882,2.193
		c-1.507,3.344-2.04,6.721-3.916,9.337C209.404,317.457,209.149,318.126,208.727,318.714z M199.554,340.861
		c-0.756,2.729-3.153,4.746-6.04,4.746c-2.886,0-5.283-2.017-6.038-4.746c-0.881-3.179,1.052-6.574,4.228-7.448
		c0.603-0.167,1.211-0.202,1.81-0.177c0.601-0.024,1.206,0.01,1.811,0.177C198.5,334.287,200.435,337.682,199.554,340.861z
		 M201.695,559.899c0.653,2.05,1.083,3.169,1.364,4.326c0.946,3.889,1.356,8.006,2.951,11.599c0.849,1.915,3.55,3.314,5.714,4.259
		c2.055,0.891,4.501,0.885,6.459,1.221c1.073,4.529,2.102,8.887,3.283,13.878c-3.226,0.302-6.429,0.248-9.604,0.032
		c-5.673,0.037-11.303,0.265-16.921-0.695c-1.05-0.177-1.777-1.336-1.78-2.333c-0.003-2.66-0.043-5.291-0.448-7.92
		c-0.271-1.049-0.545-2.112-0.814-3.152C195.058,574.271,198.154,567.566,201.695,559.899z M258.417,573.639
		c4.479,1.725,5.114,7.737,8.813,11.15c3.579,3.3,6.939,6.834,10.106,10.85c-11.744,1.213-23.166,1.228-34.637-0.215
		c-1.132-2.64-2.254-5.262-3.535-8.252C247.184,585.033,251.236,577.83,258.417,573.639z M272.052,583.757
		c-4.571-4.022-6.547-9.449-8.633-14.801c-1.465-3.764-2.48-7.708-3.563-11.605c-2.404-8.658,3.883-16.26,13.7-15.87
		c-0.25,4.708-0.528,9.098-0.705,13.487c-0.302,7.525,2.898,13.869,7.171,19.677c2.931,3.985,7.562,4.844,11.866,2.668
		c4.581-2.319,9.358-4.363,12.859-8.363c0.192-0.221,0.655-0.205,1.635-0.472c-1.602,4.517-3.845,8.233-6.466,11.719
		c-4.019,5.342-10.195,8.771-13.379,14.93c-0.171,0.328-2.59,0.106-3.32-0.562C279.394,591.066,275.937,587.172,272.052,583.757z
		 M311.461,570.222c1.58,3.2,0.547,5.396-0.859,7.53c-3.821,5.793-7.646,11.58-11.744,17.789h-8.797
		C299.067,588.717,306.115,580.407,311.461,570.222z M315.893,575.74c3.857,6.18,7.85,12.578,12.152,19.466h-22.043
		C309.464,588.395,312.732,581.961,315.893,575.74z M324.824,584.229c-2.418-3.177-3.663-7.088-4.574-11.192
		c-0.219-0.51-0.413-1.033-0.484-1.665c-0.038-0.336,0.305-0.593,0.606-0.605c0.925-0.032,1.464,0.669,1.898,1.427
		c1.239,2.165,2.761,4.047,4.544,5.789c1.24,1.211,2.148,2.588,3.03,4.017c1.644,1.769,3.15,3.667,4.777,5.457
		c2.076,2.29,4.222,4.578,6.099,7.035c0.105,0.133,0.124,0.269,0.104,0.394c0.097,0.298,0.003,0.639-0.396,0.719
		c-4.204,0.779-7.212-1.289-9.732-4.191C328.399,589.423,326.433,586.928,324.824,584.229z M323.492,569.18
		c4.188,1.092,7.488,1.962,10.793,2.815c5.556,1.435,10.236-0.474,13.389-5.379c5.093-7.93,5.524-16.522,3.692-25.454
		c-0.188-0.895-0.33-1.796-0.494-2.717c2.797-1.989,4.999-1.258,6.59,1.096c4.593,6.789,7.352,14.117,3.983,22.218
		c-1.837,4.404-4.127,8.771-6.998,12.563c-3.89,5.141-7.472,10.223-8.087,16.859c-0.029,0.32-0.439,0.609-0.93,1.248
		C336.664,586.207,329.89,578.609,323.492,569.18z M357.812,579.509c6.941,3.32,5.668,8.705,3.944,14.449h-8.917
		C351.999,588.042,354.537,583.649,357.812,579.509z M382.726,584.842c10.61,3.612,17.726-2.464,24.968-8.145
		c0.597-0.469,0.952-1.402,1.597-1.646c3.585-1.33,5.496-3.975,6.629-7.503c1.344-4.201,1.348-8.356,0.196-12.565
		c-2.799-10.268-8.656-18.398-17.208-24.651c-1.083-0.795-2.314-1.443-3.211-2.405c-3.109-3.366-6.931-4.778-11.343-4.486
		c-1.177-2.74-1.708-5.369-3.23-7.15c-1.64-1.917-4.031-3.688-6.415-4.343c-3.282-0.904-6.888-1.062-10.322-0.898
		c-4.775,0.229-9.582,0.764-14.269,1.69c-7.298,1.449-14.355-0.683-18.792-7.79c-2.965-4.749-3.263-8.57-1.777-13.355
		c0.776-2.508,1.128-5.146,1.852-8.589c6.378-4.93,13.585-10.504,20.846-16.117c3.19,8.924,3.376,19.701,11.95,26.398
		c3.077-1.083,3.09-3.013,2.478-4.934c-2.544-8.001-3.366-16.154-1.974-24.425c0.763-4.533,1.565-9.177,3.265-13.403
		c2.29-5.686,2.873-11.468,3.4-17.459c0.733-8.284-0.798-16.098-3.146-23.894c-0.208-0.685-0.126-1.457-0.242-3.039
		c2.694,0.285,5.007,0.526,7.792,0.818c0.737-1.03,1.693-2.369,3.103-4.339c3.822,3.726,5.086,8.68,8.205,12.125
		c-3.386,5.168-7.106,9.907-9.752,15.184c-2.407,4.785-3.957,10.077-5.315,15.292c-1.485,5.697,1.272,10.958,2.638,16.342
		c2.355,9.289,8.578,15.795,15.349,21.88c5.979-2.134,5.925-2.132,5.717-8.147c-0.116-3.41-0.021-6.831-0.021-11.293
		c5.082,7.102,5.705,17.259,16.31,16.984c2.769-9.392,6.94-17.538,10.263-26.06c0.68,0.122,1.353,0.242,2.03,0.362
		c0.267,1.533,0.753,3.064,0.773,4.603c0.082,6.944-0.067,13.898,0.056,20.843c0.257,14.466,0.38,28.939,1.079,43.39
		c0.32,6.711,1.494,13.44,2.927,20.021c2.372,10.899,5.319,21.674,7.903,32.532c0.019,0.078,0.021,0.162,0.037,0.24
		c0.045,0.052,0.103,0.074,0.146,0.127c2.467,3.318,2.819,7.009,3.875,10.875c0.354,1.299-0.428,2.59-1.691,2.976
		c-1.067,0.326-2.057,0.283-2.921-0.041c-18.097,2.055-36.535,2.726-55.451,2.524C381.624,590.375,382.135,587.808,382.726,584.842z
		 M459.906,352.565c-0.46-1.659-0.154-3.326,0.669-4.684c0.913-2.202,3.031-3.787,5.568-3.787c3.248,0,6.126,2.754,6.056,6.054
		c-0.065,3.152-1.72,5.715-4.846,6.646C464.191,357.733,460.769,355.696,459.906,352.565z M461.989,340.361
		c-7.952-1.822-13.405-6.532-18.021-12.719c-0.406-0.542-0.449-1.359-0.76-2.383c7.92,5.029,14.189,6.058,21.791-8.352
		c1.656,1.852,3.214,3.672,4.855,5.418c1.605,1.715,3.229,2.98,5.509,2.349c0.022,0.008,0.043,0.023,0.067,0.029
		c2.481,0.747,4.576,0.255,6.441-0.838c0.376,0.019,0.731,0.047,1.144,0.047c-3.052,4.81-5.012,9.099-8.053,12.378
		C471.68,339.816,467.508,341.626,461.989,340.361z M71.5,562.709c-2.766-22.778-5.281-45.19-8.285-67.537
		c-1.567-11.659-3.855-23.229-6.064-34.792c-3.472-18.188-7.354-36.301-10.672-54.515c-2.041-11.192-3.111-22.556-5.056-33.766
		c-2.341-13.492-5.121-26.911-7.765-40.348c-0.893-4.535-1.957-9.035-3.167-14.581c5.537-2.066,10.59-4.513,15.924-5.818
		c11.457-2.801,23.078-5.004,34.983-3.812c20.528,2.054,41.255,3.31,60.59,11.458c9.404,3.961,18.952,7.726,27.177,14.118
		c2.427,1.886,5.36,3.607,9.043,2.416c1.473-0.478,3.335,0.245,5.142,0.435c0.303,4.165-0.753,7.527-2.177,11.181
		c-3.407,8.742-6.117,17.78-8.707,26.812c-4,13.959-5.442,28.362-6.962,42.756c-1.111,10.516-2.969,20.951-4.129,31.462
		c-0.57,5.166-0.452,10.429-0.38,15.645c0.046,3.373-1.16,5.625-3.809,7.842c-7.85,6.567-15.553,13.307-21.06,22.193
		c-2.427,3.919-5.332,7.654-8.562,10.942c-4.68,4.766-8.319,10.128-11.299,16.034c-4.51,8.939-11.388,16.048-18.227,23.149
		c-6.605,6.86-14.582,11.98-22.544,17.076C74.417,561.75,73.097,562.062,71.5,562.709z M74.366,583.828
		c-0.009-0.065-0.016-0.125-0.024-0.19c-0.215-0.635-0.296-1.313-0.266-1.993c-0.409-3.074-0.801-6.027-1.192-8.936
		c-0.281-2.085,0.918-4.071,2.584-3.798c5.001,0.814,8.555-2.485,12.13-4.452c5.432-2.985,10.9-6.499,14.802-11.681
		c0.568-0.76,1.233-1.546,1.486-2.426c2.729-9.42,9.398-16.194,15.553-23.313c0.507-0.583,1.105-1.099,1.554-1.72
		c6.892-9.524,13.616-19.179,20.721-28.537c2.62-3.453,6.138-6.22,9.23-9.315c1.777-1.778,3.423-3.698,5.315-5.339
		c1.037-0.897,2.458-1.348,4.594-2.465c0,5.789-0.323,10.544,0.072,15.239c0.661,7.866,1.464,15.743,2.783,23.52
		c1.866,11.004,4.122,21.95,6.501,32.858c0.81,3.702,2.382,7.263,3.82,10.801c2.246,5.524,4.673,10.978,7.111,16.664
		c-4.021,2.715-5.52,6.504-5.001,11.257c0.008,0.018,0.001,0.039,0.009,0.06c0.321,0.55,0.424,1.204,0.299,1.836
		c0.036,0.203,0.062,0.398,0.111,0.605c-0.098-0.01-0.193-0.019-0.29-0.028c-0.338,0.743-1.013,1.325-2.077,1.325
		c-0.398,0-0.729-0.103-1.024-0.237c-0.068,0.006-0.116,0.034-0.186,0.034c-0.06,0-0.119-0.004-0.176-0.004
		c-0.011,0-0.017,0.004-0.027,0.004c-0.015,0-0.025-0.006-0.04-0.006c-0.445-0.004-0.888-0.033-1.332-0.045
		c-0.085,0.015-0.149,0.051-0.242,0.051c-0.127,0-0.223-0.039-0.33-0.065c-0.044-0.004-0.086-0.004-0.13-0.004
		c-0.114,0.024-0.216,0.069-0.348,0.069c-0.181,0-0.315-0.065-0.477-0.096c-9.345-0.263-18.655-1.17-28.008-1.302
		c-2.418,0.156-4.8-0.144-7.179-0.494c-18.555-0.518-37.09-1.016-55.426-4.54c-0.596-0.114-1.089-0.324-1.525-0.578
		c-1.675-0.329-2.802-1.396-3.325-2.759H74.366z M555.309,578.901c-0.505,2.052-0.945,4.336-2.109,6.156
		c-0.049,0.162-0.063,0.318-0.156,0.477c-0.168,0.287-0.431,0.521-0.72,0.712c-1.315,1.453-2.935,2.312-4.825,2.504
		c-1.155,0.544-2.399,0.852-3.674,1.059c-3.732,1.968-8.219,3.359-12.633,4.367c-3.555,1.004-7.093,2.05-10.672,2.964
		c-0.447,0.112-0.831,0.063-1.188-0.046c-0.388,0.074-0.782,0.14-1.178,0.188c-18.996,5.739-38.628,8.504-58.128,11.761
		c-9.309,1.556-18.838,1.753-28.247,2.738c-22.636,2.385-45.308,4.507-67.719,8.664c-0.942,0.175-2.023,0.712-2.81,0.427
		c-5.353-1.931-10.56-0.425-15.904,0.037c-5.521,0.477-11.158-0.638-16.75-0.695c-3.829-0.041-7.659,0.636-11.499,0.809
		c-3.659,0.172-7.331,0.047-10.993,0.162c-6.361,0.19-12.721,0.552-19.083,0.681c-5.007,0.101-10.015-0.019-15.022-0.101
		c-1.537-0.026-3.08-0.447-4.603-0.367c-10.791,0.561-21.572,1.552-32.366,1.727c-13.531,0.217-27.069-0.201-40.604-0.359
		c-2.126-0.024-4.25-0.166-6.376-0.232c-13.521-0.408-27.061-0.472-40.556-1.29c-19.448-1.19-38.822-3.368-58.112-6.151
		c-2.988-0.427-5.847-1.752-9.563-2.905c-0.781-3.378-1.795-7.23-2.539-11.134c-0.747-3.937-1.225-7.92-1.885-12.319
		c1.542,0.63,2.71,0.87,3.593,1.506c3.328,2.403,6.806,2.526,10.89,2.319c6.48-0.33,13.056,0.535,19.547,1.276
		c10.9,1.248,21.762,2.832,32.648,4.216c11.089,1.405,22.183,2.786,33.285,4.088c4.981,0.583,9.979,1.174,14.983,1.348
		c18.152,0.628,36.31,1.073,54.466,1.599c11.194,0.331,22.389,0.797,33.584,0.974c7.93,0.129,15.867-0.056,23.799-0.21
		c18.567-0.353,37.133-0.761,55.7-1.153c17.973-0.384,35.954-0.615,53.926-1.221c10.021-0.333,20.021-1.429,30.051-1.921
		c21.594-1.049,42.379-6.122,63.002-12.137c14.456-4.216,28.955-8.271,43.441-12.375c0.179-0.05,0.367-0.089,0.564-0.128
		c0.029-0.01,0.063-0.004,0.099-0.019c0.353-0.306,0.751-0.443,1.161-0.498c0.138-0.072,0.266-0.156,0.402-0.226
		c0.027-0.011,0.043-0.009,0.062-0.015c0.918-0.801,2.358-0.887,3.253-0.024C554.863,576.551,555.644,577.536,555.309,578.901z
		 M460.038,588.469c-0.803,0.263-1.636,0.369-2.444,0.131c-1.338-0.388-2.266-1.414-2.67-2.733c-0.686-2.196-0.179-4.55-0.432-6.799
		c-0.082-0.762,0.345-1.443,0.944-1.895c11-19.966,15.349-43.095,18.08-67.204c4.979,4.211,8.8,7.697,12.893,10.835
		c4.118,3.148,8.39,6.135,12.796,8.864c11.125,6.883,22.233,13.801,33.593,20.275c7.32,4.173,15.078,7.584,22.677,11.354
		C547.187,566.068,474.908,586.58,460.038,588.469z M558.693,555.581c-11.585-4.038-21.424-10.048-31.39-15.794
		c-7.796-4.498-15.619-8.964-23.305-13.651c-4.768-2.901-10.241-5.405-13.672-9.524c-3.545-4.259-7.186-8.466-11.095-12.326
		c-3.204-3.16-3.518-6.443-2.847-10.361c1.636-9.501,3.275-18.999,4.805-28.514c1.325-8.25,1.332-16.517,0.104-24.801
		c-0.393-2.656-0.374-5.387-0.371-8.086c0.01-8.087-0.452-16.223,0.297-24.244c1.034-11.014-1.102-21.505-3.954-31.889
		c-1.771-6.433-4.568-12.583-7.039-19.238c-0.128,0.323-0.08,0.13,0.016-0.033c2.465-4.051,5.697-6.998,9.835-9.656
		c22.343-14.333,46.604-22.933,72.846-26.436c11.236-1.501,22.35-0.165,33.512,0.312c4.383,0.185,8.75,0.735,13.553,1.155
		c0,3.612,0.429,6.714-0.063,9.664c-3.854,23.011-8.017,45.972-11.823,68.991c-2.698,16.352-4.822,32.798-7.538,49.147
		c-1.733,10.458-4.142,20.804-6.14,31.221c-3.483,18.177-6.74,36.403-10.393,54.549C562.709,542.626,560.516,549.01,558.693,555.581
		z"/>
	<path fill-rule="evenodd" clip-rule="evenodd" d="M-157.714,346.092"/>
	<path fill-rule="evenodd" clip-rule="evenodd" d="M-157.714,290.412"/>
	<path fill-rule="evenodd" clip-rule="evenodd" stroke="#000000" stroke-miterlimit="10" d="M243.228,373.925
		c7.006-4.229,13.609-8.952,20.083-13.906c-11.448,7.824-22.385,15.298-33.941,23.198
		C234.233,380.734,239.6,376.112,243.228,373.925z"/>
	<path fill-rule="evenodd" clip-rule="evenodd" d="M492.658,483.802c1.923,1.084,4.086,1.887,5.72,3.304
		c4.049,3.515,7.488,7.854,11.872,10.83c4.396,2.986,8.466,7.197,14.493,7.104c0.753-0.015,1.617,0.067,2.253,0.425
		c4.289,2.4,8.535,4.888,13.145,7.546c-0.353,1.919-0.723,3.891-1.209,6.545c-3.326-1.656-5.916-3.025-8.57-4.249
		c-3.312-1.526-6.79-2.735-10.002-4.444c-4.056-2.161-8.22-4.302-11.771-7.15c-4.179-3.335-7.692-7.495-11.62-11.16
		C494.553,490.304,493.013,487.662,492.658,483.802z"/>
	<path fill-rule="evenodd" clip-rule="evenodd" d="M243.228,373.925c7.006-4.229,13.609-8.952,20.083-13.906
		c-11.448,7.824-22.385,15.298-33.941,23.198C234.233,380.734,239.6,376.112,243.228,373.925z"/>
	<path fill-rule="evenodd" clip-rule="evenodd" d="M270.106,411.352c-3.629-1.23-3.157-3.056-1.673-4.68
		c2.732-2.989,5.892-5.604,8.487-8.699c4.008-4.787,8.503-8.958,13.878-12.086c5.966-3.476,12.042-6.811,19.57-6.068
		C293.478,385.959,280.665,397.238,270.106,411.352z"/>
	<path fill-rule="evenodd" clip-rule="evenodd" d="M272.164,423.295c1.138-2.622,1.51-4.517,2.598-5.811
		c9.209-10.96,21.023-17.156,35.236-18.777c0.304-0.035,0.643,0.284,1.377,0.633c-1.478,2.097-3.799,2.377-5.805,2.971
		c-6.668,1.972-12.906,4.733-18.368,9.126C282.566,415.163,277.866,418.804,272.164,423.295z"/>
	<path fill-rule="evenodd" clip-rule="evenodd" d="M351.366,435.018c1.241,4.027-2.132,3.864-3.795,5.571
		c1.111,0.895,2.294,1.846,3.337,2.687c-2.67,3.556-5.114,6.803-7.556,10.055c-3.308,4.409-10.517,6.104-15.477,3.598
		c-0.254-0.13-0.304-0.657-0.635-1.429c1.348-0.438,2.661-0.864,3.805-1.237c-1.205-4.452-2.384-8.81-3.624-13.39
		c-2-0.271-4.038,3.28-6.9,1.125c5.526-7.84,16.545-11.269,24.245-7.29C347.081,435.904,349.034,436.59,351.366,435.018z
		 M345.365,438.842c-3.562-3.435-7.424-1.757-11.021-2.075c-1.055,2.017-1.972,3.69-2.811,5.399
		c-1.476,2.995-1.242,5.902,0.46,8.759c1.737,2.916,3.974,3.764,6.561,1.737c3.635-2.852,8.204-5.433,6.241-11.484
		C344.601,440.586,345.122,439.766,345.365,438.842z"/>
	<path fill-rule="evenodd" clip-rule="evenodd" d="M320.413,431.397c5.646-9.018,22.013-10.478,27.181-2.227
		c-1.089-0.262-1.848-0.225-2.29-0.582c-3.92-3.175-8.309-2.382-12.557-1.285C328.689,428.35,324.767,429.928,320.413,431.397z"/>
	<path fill-rule="evenodd" clip-rule="evenodd" d="M316.361,445.979c0.061-1.563-2.363-1.557-2.421,0
		c-0.257,6.685,0.245,13.32,1.457,19.896c0.281,1.534,2.615,0.884,2.332-0.645C316.557,458.865,316.112,452.446,316.361,445.979z"/>
	<path fill-rule="evenodd" clip-rule="evenodd" d="M319.388,467.47c-2.103,0.03-4.169,0.393-6.256,0.605
		c-1.536,0.156-1.552,2.582,0,2.422c2.087-0.213,4.153-0.575,6.256-0.604C320.948,469.869,320.95,467.447,319.388,467.47z"/>
	<path fill-rule="evenodd" clip-rule="evenodd" d="M306.66,432.531c-6.295-8.578-22.725-8.833-27.271-0.224
		c1.065-0.34,1.824-0.361,2.236-0.748c3.677-3.456,8.114-2.984,12.43-2.204C298.181,430.1,302.206,431.383,306.66,432.531z"/>
	<path fill-rule="evenodd" clip-rule="evenodd" d="M321.091,544.005c-0.779-2.151-2.902-3.48-5.042-3.938
		c-1.846-0.396-3.423-0.067-4.693,0.71c-0.031-0.015-0.05-0.037-0.084-0.049c-3.457-1.101-3.842,6.491-3.545,8.366
		c0.401,2.517,2.626,5.002,5.039,5.708c2.591,0.757,5.209-1.343,6.606-3.294C320.956,549.304,322.068,546.691,321.091,544.005z
		 M318.083,551.524c-1.867,1.869-4.984,1.869-6.85,0c-0.012-0.009-0.027-0.022-0.037-0.037c-0.89-0.889-1.341-2.062-1.383-3.251
		c-0.068-0.31-0.112-0.634-0.112-0.969v-0.037c0-2.639,2.202-4.841,4.845-4.841c0.087,0,0.168,0.021,0.254,0.024
		c0.13-0.004,0.239-0.037,0.374-0.037c1.409,0.033,2.716,0.944,3.465,2.081c0.194,0.298,0.304,0.609,0.372,0.928
		c0.227,0.533,0.347,1.114,0.364,1.72C319.693,548.657,319.265,550.342,318.083,551.524z"/>
	<path fill-rule="evenodd" clip-rule="evenodd" d="M322.722,468.048c-0.362,0.526-0.391,1.322,0.293,1.779
		c0.43,0.291,0.869,0.524,1.322,0.718c-1.656,2.132-3.818,3.639-6.482,4.435c-2.082,0.626-4.441,1.03-6.593,0.482
		c-1.085-0.275-1.955-0.529-3.076-0.523c-1.56,0.004-1.562,2.426,0,2.42c1.669-0.004,3.234,0.688,4.913,0.769
		c2.144,0.104,4.341-0.494,6.365-1.103c3.105-0.929,5.707-3.242,7.48-5.899c0.604,0.034,1.215,0.024,1.844-0.066
		c0.521-0.076,0.772-0.397,0.844-0.774C327.08,470.315,324.208,469.718,322.722,468.048z"/>
	<path fill-rule="evenodd" clip-rule="evenodd" d="M272.873,460.811c-1.561,0-1.561,2.422,0,2.422
		C274.435,463.232,274.435,460.811,272.873,460.811z"/>
	<path fill-rule="evenodd" clip-rule="evenodd" d="M357.589,436.908c-0.671-5.332-2.502-10.147-4.867-14.876
		c-0.118-0.16-0.221-0.315-0.343-0.475c-2.374-3.118-4.714-6.158-6.953-9.376c-1.331-1.914-2.889-3.173-5.133-3.694
		c-0.971-0.225-1.989,0.846-1.367,1.777c0.067,0.101,0.136,0.203,0.201,0.302c0.329,0.495,0.838,0.619,1.293,0.519
		c2.538,0.995,3.854,3.625,5.165,5.84c1.597,2.698,3.964,4.885,5.853,7.366c3.841,5.042,5.486,10.575,5.486,16.944
		c0,0.653,0.427,1.018,0.92,1.125C357.857,440.531,357.816,438.706,357.589,436.908z"/>
	<path fill-rule="evenodd" clip-rule="evenodd" d="M380.87,462.489c-1.465-4.262-3.152-8.896-3.099-13.494
		c-0.078-0.477-0.17-1.066-0.151-1.612c-0.637-0.317-1.453-0.191-1.581,0.696c-0.496,3.337,0.501,6.239,1.714,9.162
		c-0.9-0.231-2.001,0.719-1.392,1.76c1.954,3.341,3.571,6.697,4.756,10.387c0.744,2.328,1.735,4.939,4.051,6.092
		c0.911,0.451,1.732-0.277,1.818-1.032c0.047,0.001,0.094-0.013,0.14-0.017C384.523,470.752,382.368,466.837,380.87,462.489z"/>
	<path fill-rule="evenodd" clip-rule="evenodd" d="M492.021,742.713c3.616-1.166,6.102-2.89,7.828-5.108
		c1.601,2.323,5.292,3.146,8.159,1.798c2.854-8.744,5.576-17.516,8.447-26.147c0.513-2.027,1.04-4.043,1.617-6.054
		c2.259-7.897,4.95-15.598,7.922-23.203c2.577-8.231,5.266-16.481,8.537-24.419c-0.831-1.353-2.315-2.118-3.963-2.28
		c5.558-12.623,11.056-25.271,17.136-37.646c3.426-6.981-7.013-13.118-10.456-6.107c-6.547,13.331-12.051,27.139-17.965,40.768
		c-2.935,10.089-6.795,19.887-10.536,29.747c-2.478,6.558-4.648,13.149-6.685,19.786c-3.491,11.812-6.842,23.67-10.206,35.524
		c-0.437,1.537-1.75,2.933-3.32,3.392C489.547,743.084,490.704,743.136,492.021,742.713z"/>
	<g>
		<path fill="none" stroke="#000000" stroke-width="4" stroke-miterlimit="10" d="M540.813,739.017
			c0.044-0.094,0.087-0.185,0.132-0.279c17.309-35.6,52.835-61.875,96.069-66.338c65.569-6.769,124.035,39.234,130.586,102.723
			c6.551,63.504-41.299,120.46-106.868,127.223c-65.562,6.768-124.031-39.225-130.576-102.726
			c-1.105-10.706-0.664-21.218,1.142-31.329c0.062-0.359,0.131-0.71,0.199-1.067c0.036-0.168,0.062-0.33,0.096-0.496
			c0.017-0.089,0.031-0.177,0.048-0.255c0.045-0.231,0.094-0.464,0.142-0.698"/>
		<path fill="none" stroke="#000000" stroke-width="6" stroke-miterlimit="10" d="M693.049,786.173
			c-2.011-19.504-20.208-33.599-40.634-31.495c-8.999,0.932-16.923,4.847-22.811,10.609c-18.083-15.451-51.12-22.886-83.692-25.928
			c-0.07-0.008-0.14-0.012-0.21-0.021c-6.994-0.652-13.965-1.106-20.761-1.383c-0.096-0.009-0.194-0.013-0.293-0.015
			c-26.747-1.112-50.719,0.343-62.589,2.141c-0.914,0.131-1.757,0.271-2.521,0.419l-9.88,31.612
			c3.83-0.675,7.655-1.289,11.486-1.775c16.617-7.436,36.137-9.003,56.006-7.3c6.407,0.54,12.854,1.425,19.244,2.569
			c0.117,0.007,0.229,0.035,0.345,0.052c0.049,0.015,0.088,0.017,0.131,0.026c0.091,0.015,0.184,0.026,0.268,0.041
			c32.505,5.874,63.576,18.076,81.761,24.916c0.015,1.043,0.056,2.102,0.158,3.163c2.018,19.507,20.21,33.604,40.641,31.495
			C680.13,823.197,695.057,805.676,693.049,786.173z"/>
		<path fill="none" stroke="#000000" stroke-width="6" stroke-miterlimit="10" d="M656.814,759.185c0,0,12.185-82.404,12.716-82.32"
			/>
		
			<line fill="none" stroke="#000000" stroke-width="6" stroke-miterlimit="10" x1="686.533" y1="777.744" x2="754.643" y2="737.658"/>
		
			<line fill="none" stroke="#000000" stroke-width="6" stroke-miterlimit="10" x1="684.292" y1="808.856" x2="746.219" y2="857.936"/>
		
			<line fill="none" stroke="#000000" stroke-width="6" stroke-miterlimit="10" x1="655.743" y1="826.75" x2="660.682" y2="906.753"/>
		<path fill="none" stroke="#000000" stroke-width="6" stroke-miterlimit="10" d="M622.395,813.985
			c-0.185-0.22-52.621,65.255-52.621,65.255"/>
		
			<line fill="none" stroke="#000000" stroke-width="6" stroke-miterlimit="10" x1="633.821" y1="761.743" x2="593.411" y2="691.138"/>
		<path fill="none" stroke="#000000" stroke-width="4" stroke-miterlimit="10" d="M524.743,737.703
			c18.689-45.293,62.051-79.389,115.504-84.903c19.712-2.033,38.878,0.021,56.597,5.457c1.094,0.339,2.182,0.684,3.259,1.045
			c10.631,3.546,20.711,8.312,30.041,14.156c34.094,21.348,58.177,56.979,62.542,99.269c3.889,37.704-8.65,73.434-31.982,100.484
			c-1.108,1.284-2.239,2.549-3.393,3.79c-0.461,0.495-0.925,0.983-1.391,1.472c-0.443,0.464-0.891,0.928-1.345,1.388
			c-0.609,0.628-1.228,1.247-1.855,1.854c-0.736,0.721-1.478,1.429-2.232,2.135c-2.126,1.99-4.322,3.924-6.579,5.785
			c-8.101,6.685-17.018,12.511-26.605,17.305c-14.99,7.492-31.621,12.474-49.365,14.3c-76.544,7.897-144.795-45.794-152.442-119.927
			c-1.336-12.954-0.729-25.688,1.589-37.907c0.019-0.125,0.045-0.242,0.067-0.358"/>
	</g>
	<path fill="none" stroke="#000000" stroke-width="4" stroke-miterlimit="10" d="M194.313,300.203c0.042,0,0.86-7.422,0.86-7.422
		c5.9-48.658,125.235-143.928,125.235-143.928s3.117-3.027,7.806-3.482"/>
	<path fill="none" stroke="#000000" stroke-width="2" stroke-miterlimit="10" d="M386.512,147.981"/>
	<path fill="none" stroke="#000000" stroke-width="4" stroke-miterlimit="10" d="M464.1,311.857l-0.023-4.332
		c1.564-61.19-80.708-159.808-80.708-159.808s-5.246-5.222-7.573-5.07"/>
	<path d="M200.682,334.257c-1.18-2.028-3.4-2.773-5.589-3.018c-0.7-0.08-1.368-0.041-2.015,0.059
		c-0.302-0.073-0.621-0.122-0.976-0.118c-2.609,0.035-5.713,0.775-6.965,3.355c-1.134,2.334-0.632,4.864,0.703,7.005
		c2.39,3.832,7.493,7.375,12.054,5.245c2.537-1.184,3.636-4.436,3.508-7.055c-0.016-0.337-0.123-0.631-0.197-0.94
		C201.613,337.279,201.481,335.633,200.682,334.257z M199.554,340.861c-0.756,2.729-3.153,4.746-6.04,4.746
		c-2.886,0-5.283-2.017-6.038-4.746c-0.881-3.179,1.052-6.574,4.228-7.448c0.603-0.167,1.211-0.202,1.81-0.177
		c0.601-0.024,1.206,0.01,1.811,0.177C198.5,334.287,200.435,337.682,199.554,340.861z"/>
	<path d="M466.144,344.094c1.133,0,2.212,0.35,3.142,0.925c-0.585-1.19-1.664-2.102-2.979-2.409
		c-1.934-0.451-3.927,0.574-4.468,2.537c-0.089,0.304-0.101,0.616-0.101,0.927C462.835,344.868,464.38,344.094,466.144,344.094z"/>
	<g>
		<path d="M198.019,298.101c-0.125,0.087-0.271,0.186-0.453,0.295c0.172-0.103,0.297-0.228,0.438-0.345
			c-0.598-2.005-0.927-4.01-0.658-6.029c-0.961-0.57-2.182-0.669-3.443,0.101c-0.458,0.278-0.856,0.632-1.234,1.009
			c0.441,6.758-4.445,14.177-11.967,13.026c-4.625-0.706-9.511-4.99-12.002-9.613c-1.673,1.568-2.059,4.358,0.582,5.482
			c6.265,2.668,8.214,13.156,16.811,10.792c3.688-1.015,5.744-3.103,7.75-6.27c1.158-1.829,2.069-3.83,3.004-5.78
			c0.368-0.777,0.739-1.553,1.119-2.324c0.038-0.077,0.067-0.105,0.104-0.17C198.052,298.216,198.036,298.159,198.019,298.101z"/>
	</g>
	<path d="M353.297,134.761c-1.456-2.734-4.418-3.424-7.252-3.219c0.27,0.154,0.553,0.287,0.781,0.516
		c0.052,0.051,0.102,0.102,0.151,0.152c1.401,1.398,1.401,3.737,0,5.136c-0.929,0.931-2.263,1.183-3.472,0.877
		c0.787,0.473,1.755,0.659,2.744,0.516c0.008,0.001,0.051,0.001,0.124-0.004c0.021-0.003,0.042,0.003,0.062,0
		c0.008,0,0.008-0.002,0.017-0.003c0.026-0.004,0.035-0.004,0.069-0.006c0.239-0.021,0.478,0.001,0.718,0.013
		c1.038,1.482,3.203,1.9,4.756,0.992C353.751,138.701,354.231,136.507,353.297,134.761z"/>
	<path d="M381.006,132.574c-1.172-2.501-4.734-3.598-6.978-1.905c-0.275,0.206-0.503,0.453-0.734,0.696
		c1.249-0.385,2.678-0.131,3.652,0.845l0.452,0.453c1.403,1.4,1.403,3.738,0,5.137c-1.398,1.4-3.737,1.4-5.135,0l-0.456-0.454
		c-1.25-1.251-1.321-3.223-0.332-4.634c-0.594-0.013-1.201,0.026-1.848,0.228c-4.358,1.369-2.622,8.104,1.665,7.06
		c0.523,1.359,1.854,2.231,3.386,2.345c2.36,0.177,4.353-1.3,5.703-3.074C381.907,137.269,382.055,134.806,381.006,132.574z"/>
	<g>
		<g>
			<path fill="none" stroke="#000000" stroke-width="4" stroke-miterlimit="10" d="M73.837,742.307
				c-0.042-0.088-0.082-0.173-0.125-0.253c-16.622-32.308-49.761-55.686-89.522-58.878c-60.301-4.852-112.998,38.562-117.69,96.949
				c-4.694,58.405,40.39,109.678,100.688,114.523c60.301,4.855,112.991-38.556,117.683-96.96c0.792-9.839,0.175-19.48-1.696-28.719
				c-0.064-0.329-0.137-0.655-0.204-0.978c-0.033-0.153-0.065-0.304-0.098-0.451c-0.015-0.078-0.034-0.162-0.049-0.238
				c-0.047-0.209-0.092-0.421-0.141-0.634"/>
			<path fill="none" stroke="#000000" stroke-width="6" stroke-miterlimit="10" d="M-64.869,788.727
				c1.443-17.939,17.844-31.252,36.632-29.743c8.276,0.673,15.626,4.103,21.148,9.264c16.271-14.551,46.431-22.062,76.257-25.524
				c0.063-0.006,0.123-0.01,0.188-0.021c6.401-0.746,12.794-1.299,19.021-1.703c0.086-0.004,0.175-0.008,0.267-0.014
				c24.52-1.574,46.545-0.737,57.475,0.667c0.837,0.106,1.615,0.219,2.322,0.334l9.716,28.801c-3.525-0.546-7.05-1.027-10.576-1.397
				c-15.397-6.469-33.342-7.507-51.538-5.532c-5.867,0.632-11.763,1.574-17.604,2.756c-0.108,0.013-0.212,0.037-0.313,0.056
				c-0.043,0.012-0.083,0.017-0.121,0.022c-0.086,0.019-0.167,0.032-0.243,0.045c-29.703,6.061-57.961,17.908-74.505,24.555
				c0.008,0.959-0.004,1.928-0.079,2.904c-1.447,17.94-17.842,31.254-36.635,29.743C-52.249,822.433-66.309,806.658-64.869,788.727z
				"/>
			<path fill="none" stroke="#000000" stroke-width="6" stroke-miterlimit="10" d="M-32.181,763.215
				c0,0-12.886-75.362-13.373-75.271"/>
			
				<line fill="none" stroke="#000000" stroke-width="6" stroke-miterlimit="10" x1="-59.066" y1="780.86" x2="-122.386" y2="745.483"/>
			
				<line fill="none" stroke="#000000" stroke-width="6" stroke-miterlimit="10" x1="-56.365" y1="809.354" x2="-112.17" y2="855.67"/>
			
				<line fill="none" stroke="#000000" stroke-width="6" stroke-miterlimit="10" x1="-29.797" y1="825.187" x2="-32.673" y2="898.691"/>
			<path fill="none" stroke="#000000" stroke-width="6" stroke-miterlimit="10" d="M0.531,812.782
				c0.169-0.205,49.64,58.785,49.64,58.785"/>
			
				<line fill="none" stroke="#000000" stroke-width="6" stroke-miterlimit="10" x1="-11.032" y1="765.082" x2="24.585" y2="699.462"/>
			<path fill="none" stroke="#000000" stroke-width="4" stroke-miterlimit="10" d="M88.557,740.773
				c-18.09-41.178-58.583-71.558-107.738-75.512c-18.13-1.457-35.673,0.82-51.817,6.175c-0.994,0.326-1.983,0.671-2.968,1.02
				c-9.682,3.479-18.83,8.062-27.271,13.615c-30.839,20.297-52.201,53.485-55.329,92.377c-2.79,34.675,9.455,67.197,31.422,91.538
				c1.046,1.153,2.11,2.297,3.195,3.409c0.434,0.445,0.869,0.885,1.303,1.321c0.417,0.417,0.839,0.831,1.263,1.25
				c0.573,0.555,1.155,1.108,1.743,1.66c0.69,0.643,1.385,1.278,2.09,1.909c1.996,1.783,4.048,3.507,6.158,5.173
				c7.574,5.967,15.873,11.124,24.772,15.326c13.905,6.565,29.269,10.789,45.589,12.101
				c70.394,5.658,131.903-45.016,137.385-113.193c0.96-11.918,0.142-23.589-2.24-34.751c-0.02-0.106-0.044-0.222-0.07-0.32"/>
		</g>
		<g>
			<path fill="none" stroke="#000000" stroke-width="4" stroke-miterlimit="10" d="M38.128,748.498
				c-0.115-0.31-0.236-0.617-0.354-0.932c-0.055-0.146-0.107-0.289-0.161-0.429c-0.03-0.078-0.06-0.156-0.091-0.228
				c-0.076-0.203-0.154-0.398-0.234-0.605"/>
			<path fill="none" stroke="#000000" stroke-width="4" stroke-miterlimit="10" d="M-57.147,890.525
				c60.327-4.482,105.714-55.48,101.367-113.903"/>
			<path fill="none" stroke="#000000" stroke-width="4" stroke-miterlimit="10" d="M-96.967,683.379
				c-47.847,14.308-81.027,59.139-77.283,109.473c2.598,34.976,22.432,64.694,50.883,81.947c1.083,0.655,2.177,1.293,3.283,1.913
				c0.556,0.31,1.109,0.611,1.666,0.911c0.69,0.374,1.385,0.734,2.084,1.09c0.349,0.185,0.698,0.361,1.052,0.535"/>
			<path fill="none" stroke="#000000" stroke-width="4" stroke-miterlimit="10" d="M24.801,723.592
				c-0.055-0.077-0.105-0.149-0.166-0.229c-13.931-19.133-34.211-33.441-57.65-40.27"/>
			<path fill="none" stroke="#000000" stroke-width="6" stroke-miterlimit="10" d="M-53.217,815.925
				c-4.53,2.682-9.775,4.41-15.443,4.831c-18.801,1.396-35.117-12.028-36.456-29.963c-1.332-17.945,12.83-33.624,31.625-35.02
				c8.28-0.613,16.071,1.647,22.319,5.896c13.842-16.878,42.486-28.931,71.426-36.949c0.06-0.019,0.122-0.024,0.181-0.049
				c1.446-0.396,2.891-0.792,4.333-1.172c3.19-0.829,6.37-1.623,9.527-2.368c1.564-0.368,3.125-0.721,4.675-1.065
				c0.085-0.019,0.171-0.033,0.26-0.056c5.594-1.241,11.074-2.333,16.327-3.281"/>
			<path fill="none" stroke="#000000" stroke-width="6" stroke-miterlimit="10" d="M71.164,737.408
				c-6.988,0.759-14.061,2.173-21.102,4.059c-4.801,1.289-9.584,2.798-14.313,4.466c-0.891,0.316-1.777,0.639-2.662,0.967
				c-0.102,0.028-0.203,0.072-0.299,0.104c-0.039,0.013-0.078,0.024-0.117,0.045c-0.081,0.029-0.157,0.054-0.234,0.08
				c-14.901,5.539-29.165,12.581-41.574,19.345"/>
			<path fill="none" stroke="#000000" stroke-width="6" stroke-miterlimit="10" d="M72.501,714.039
				c9.867-1.347,18.109-2.062,23.623-2.213c0.846-0.022,1.63-0.028,2.346-0.028l14.032,26.971
				c-3.569,0.004-7.125,0.065-10.667,0.248c-4.888-1.217-9.931-1.904-15.075-2.146"/>
			<path fill="none" stroke="#000000" stroke-width="6" stroke-miterlimit="10" d="M-101.529,688.24"/>
			<path fill="none" stroke="#000000" stroke-width="6" stroke-miterlimit="10" d="M-76.738,760.549
				c0,0-10.672-31.806-18.016-53.223"/>
			
				<line fill="none" stroke="#000000" stroke-width="6" stroke-miterlimit="10" x1="-154.158" y1="762.267" x2="-168.595" y2="756.908"/>
			
				<line fill="none" stroke="#000000" stroke-width="6" stroke-miterlimit="10" x1="-100.591" y1="782.12" x2="-132.249" y2="770.388"/>
			
				<line fill="none" stroke="#000000" stroke-width="6" stroke-miterlimit="10" x1="-135.302" y1="857.134" x2="-141.562" y2="864.214"/>
			
				<line fill="none" stroke="#000000" stroke-width="6" stroke-miterlimit="10" x1="-93.537" y1="809.864" x2="-120.076" y2="839.903"/>
			
				<line fill="none" stroke="#000000" stroke-width="6" stroke-miterlimit="10" x1="-64.854" y1="821.427" x2="-56.854" y2="890.509"/>
			<path fill="none" stroke="#000000" stroke-width="6" stroke-miterlimit="10" d="M-17.151,821.412
				c16.855,14.657,38.445,33.546,38.445,33.546"/>
			
				<line fill="none" stroke="#000000" stroke-width="6" stroke-miterlimit="10" x1="-55.552" y1="759.155" x2="-30.452" y2="688.835"/>
			<path fill="none" stroke="#000000" stroke-width="4" stroke-miterlimit="10" d="M51.456,745.297
				c-0.408-1.174-0.833-2.344-1.274-3.506c-0.038-0.11-0.077-0.213-0.119-0.315"/>
			<path fill="none" stroke="#000000" stroke-width="4" stroke-miterlimit="10" d="M-9.204,894.09
				c42.964-22.619,70.672-68.115,66.945-118.305c-0.102-1.345-0.22-2.683-0.363-4.009"/>
			<path fill="none" stroke="#000000" stroke-width="4" stroke-miterlimit="10" d="M-60.606,908.764
				c-70.428,5.228-131.629-45.814-136.696-114.026c-3.403-45.811,19.383-87.713,56.058-111.874c0.755-0.496,1.518-0.987,2.285-1.472
				c0.537-0.334,1.075-0.671,1.617-0.999c0.357-0.216,0.716-0.436,1.076-0.646c0.726-0.427,1.457-0.86,2.191-1.272
				c1.062-0.609,2.136-1.2,3.22-1.775l10.758-5.104c12.727-5.332,26.56-8.743,41.139-9.824c14.107-1.051,27.845,0.162,40.833,3.314"
				/>
			<path fill="none" stroke="#000000" stroke-width="4" stroke-miterlimit="10" d="M39.109,719.808
				c-7.675-12.018-17.409-22.615-28.695-31.374"/>
		</g>
	</g>
	<path fill-rule="evenodd" clip-rule="evenodd" fill="none" stroke="#000000" stroke-miterlimit="10" d="M835.887,796.245"/>
	<path fill-rule="evenodd" clip-rule="evenodd" fill="none" stroke="#000000" stroke-miterlimit="10" d="M692.101,786.253"/>
</g>
<g id="Layer_2">
	<path fill="#FFCB05" d="M121.119,757.702"/>
	<path fill="none" stroke="#000000" stroke-width="5" stroke-miterlimit="10" d="M121.75,763.379
		c8.47,18.238,44.197,66.993,182.142,57.079c0,0,173.683,12.654,184.646-57.26"/>
	<path fill-rule="evenodd" clip-rule="evenodd" d="M545.713,593.607c-33.29,10.659-68.925,14.493-103.417,19.373
		c-21.249,3.013-42.571,5.552-63.938,7.536c-0.971-1.012-2.354-1.695-4.181-1.695c-11.512-0.015-23.023-0.082-34.539-0.187
		c-2.132,0.274-4.265,0.529-6.407,0.729c-12.172,1.114-24.333,1.276-36.547,1.276c-23.895-0.007-47.81,0.058-71.69-0.899
		c-46.562-1.859-93.246-5.165-139.592-10.002c-0.148-0.011-0.276-0.058-0.417-0.082c-3.089-0.183-6.182-0.339-9.269-0.523
		c-7.804-0.46-7.76,11.652,0,12.108c1.401,0.086,2.804,0.153,4.207,0.239c0.925,0.842,2.139,1.439,3.662,1.576
		c79.107,7.247,158.986,16.34,238.505,13.418c38.175-1.408,76.266-5.373,114.101-10.53c37.516-5.114,76.555-9.077,112.74-20.657
		C556.335,602.918,553.168,591.225,545.713,593.607z"/>
	<path fill-rule="evenodd" clip-rule="evenodd" d="M228.88,597.026c-52.624-0.127-105.098-4.194-157.404-9.687
		c-4.656-0.49-4.61,6.778,0,7.265c52.307,5.496,104.781,9.562,157.404,9.687C233.564,604.302,233.564,597.037,228.88,597.026z"/>
</g>
<g id="Layer_3">
	<g>
		<path fill="none" stroke="#000000" stroke-width="4" stroke-miterlimit="10" d="M579.864,744.891
			c0.116-0.352,0.235-0.686,0.363-1.03c0.06-0.158,0.11-0.314,0.168-0.473c0.028-0.086,0.06-0.17,0.088-0.248
			c0.076-0.222,0.16-0.441,0.244-0.661"/>
		<path fill="none" stroke="#000000" stroke-width="4" stroke-miterlimit="10" d="M687.145,897.259
			c-65.831-3.4-116.521-57.842-113.228-121.595"/>
		<path fill="none" stroke="#000000" stroke-width="4" stroke-miterlimit="10" d="M725.426,670.63
			c52.467,14.407,89.717,62.43,86.875,117.352c-1.968,38.167-22.848,71.02-53.418,90.514c-1.155,0.743-2.333,1.464-3.523,2.165
			c-0.596,0.352-1.192,0.696-1.792,1.041c-0.74,0.416-1.487,0.827-2.247,1.235c-0.371,0.205-0.751,0.402-1.131,0.602"/>
		<path fill="none" stroke="#000000" stroke-width="4" stroke-miterlimit="10" d="M593.771,717.425
			c0.054-0.088,0.111-0.168,0.171-0.256c14.706-21.184,36.445-37.267,61.813-45.283"/>
		<path fill="none" stroke="#000000" stroke-width="6" stroke-miterlimit="10" d="M681.025,816.087
			c4.997,2.817,10.753,4.562,16.938,4.882c20.515,1.062,37.963-13.957,38.977-33.529c1.008-19.587-14.801-36.316-35.307-37.373
			c-9.036-0.464-17.471,2.184-24.172,6.971c-15.492-18.047-46.992-30.476-78.711-38.489c-0.07-0.019-0.132-0.031-0.201-0.054
			c-1.585-0.4-3.165-0.79-4.749-1.168c-3.493-0.837-6.978-1.614-10.434-2.343c-1.718-0.361-3.421-0.711-5.12-1.049
			c-0.093-0.019-0.189-0.035-0.288-0.058c-6.121-1.217-12.118-2.27-17.864-3.173"/>
		<path fill="none" stroke="#000000" stroke-width="6" stroke-miterlimit="10" d="M543.605,733.611
			c7.63,0.658,15.371,2.021,23.089,3.909c5.258,1.283,10.508,2.806,15.702,4.511c0.973,0.32,1.949,0.65,2.916,0.989
			c0.115,0.029,0.224,0.065,0.333,0.106c0.045,0.013,0.088,0.023,0.129,0.046c0.09,0.026,0.177,0.053,0.255,0.08
			c16.368,5.666,32.082,12.988,45.763,20.054"/>
		<path fill="none" stroke="#000000" stroke-width="6" stroke-miterlimit="10" d="M541.575,708.19
			c-10.784-1.222-19.779-1.805-25.786-1.829c-0.92,0-1.777,0.007-2.56,0.033l-14.618,29.714c3.881-0.08,7.758-0.098,11.622,0.013
			c5.295-1.447,10.774-2.319,16.371-2.707"/>
		<path fill="none" stroke="#000000" stroke-width="6" stroke-miterlimit="10" d="M705.287,755.188c0,0,10.848-34.908,18.315-58.421
			"/>
		
			<line fill="none" stroke="#000000" stroke-width="6" stroke-miterlimit="10" x1="789.662" y1="755.155" x2="805.258" y2="748.968"/>
		<line fill="none" stroke="#000000" stroke-width="6" stroke-miterlimit="10" x1="731.8" y1="778.105" x2="765.996" y2="764.543"/>
		
			<line fill="none" stroke="#000000" stroke-width="6" stroke-miterlimit="10" x1="771.455" y1="858.96" x2="778.447" y2="866.521"/>
		<path fill="none" stroke="#000000" stroke-width="6" stroke-miterlimit="10" d="M754.448,840.563"/>
		
			<line fill="none" stroke="#000000" stroke-width="6" stroke-miterlimit="10" x1="693.835" y1="821.79" x2="686.816" y2="897.249"/>
		<path fill="none" stroke="#000000" stroke-width="6" stroke-miterlimit="10" d="M641.874,822.949
			c-18.004,16.385-41.055,37.484-41.055,37.484"/>
		
			<line fill="none" stroke="#000000" stroke-width="6" stroke-miterlimit="10" x1="682.174" y1="754.187" x2="653.104" y2="678.211"/>
		<path fill="none" stroke="#000000" stroke-width="4" stroke-miterlimit="10" d="M565.269,741.726
			c0.41-1.293,0.848-2.575,1.301-3.85c0.041-0.121,0.076-0.236,0.123-0.345"/>
		<path fill="none" stroke="#000000" stroke-width="4" stroke-miterlimit="10" d="M634.999,902.315
			c-47.357-23.576-78.662-72.462-75.828-127.229c0.074-1.465,0.177-2.922,0.298-4.371"/>
		<path fill="none" stroke="#000000" stroke-width="4" stroke-miterlimit="10" d="M660.876,652.149
			c14.072-3.756,29.007-5.416,44.4-4.619c15.911,0.822,31.059,4.2,45.057,9.692l11.842,5.293c1.198,0.604,2.379,1.219,3.555,1.853
			c0.811,0.439,1.615,0.883,2.415,1.334c0.396,0.227,0.792,0.456,1.192,0.68c0.596,0.347,1.188,0.698,1.783,1.051
			c0.846,0.507,1.689,1.022,2.524,1.548c40.544,25.416,66.395,70.502,63.814,120.486c-3.844,74.425-69.259,131.532-146.103,127.567"
			/>
		<path fill="none" stroke="#000000" stroke-width="4" stroke-miterlimit="10" d="M578.089,713.657
			c8.067-13.28,18.41-25.066,30.49-34.88"/>
	</g>
</g>
</svg>
