<?xml version="1.0" encoding="utf-8"?>
<!-- Generator: Adobe Illustrator 16.0.0, SVG Export Plug-In . SVG Version: 6.00 Build 0)  -->
<!DOCTYPE svg PUBLIC "-//W3C//DTD SVG 1.0//EN" "http://www.w3.org/TR/2001/REC-SVG-20010904/DTD/svg10.dtd">
<svg version="1.0" xmlns="http://www.w3.org/2000/svg" xmlns:xlink="http://www.w3.org/1999/xlink" x="0px" y="0px" width="640px"
	 height="960px" viewBox="0 0 640 960" enable-background="new 0 0 640 960" xml:space="preserve">
<g id="Scene_11__x28_1_x29__xA0_Image_1_">
	<g>
		<path fill-rule="evenodd" clip-rule="evenodd" d="M542.337,623.354c-0.764,4.311-3.115,7.933-6.235,10.081
			c0.485,13.213,1.698,26.438,3.449,39.63c-0.696,0.696-1.392,1.396-2.089,2.092c-6.951-10.517-14.854-20.331-20.665-31.683
			c-15.258-29.795-19.625-63.419-20.639-97.581c-0.881-29.528-0.276-59.118-0.479-88.679c-0.192-27.293-5.408-53.393-13.927-78.558
			c-2.217-6.54-2.499-10.36,3.512-14.971c31.3-24.03,44.08-64.467,35.058-108.22c-1.551-7.518-1.928-9.371,0.784-13.009
			c-1.413-1.301-3.832-5.58-4.022-6.087c-0.259,0.353-54.388-97.351-103.015-120.239c-5.634-2.002-11.618-3.708-17.033-6.55
			c-6.398-1.299-12.736-3.543-19.409-5.465c2.855-21.476,5.841-41.86,8.09-62.361c0.526-4.792-1.45-9.979-2.276-14.984
			c-4.403,1.528-9.475,1.898-13.06,4.856c-5.455,4.504-9.879,10.803-14.743,16.335c-7.847,8.921-15.699,17.84-24.071,27.353
			c-9.132-15.492-17.515-29.366-25.568-43.505c-5.765-10.121-10.715-10.361-16.485,0.009c-7.912,14.216-15.685,28.543-23.759,43.26
			c-15.64-10.776-30.501-21.372-45.704-31.209c-3.359-2.174-9.127-3.793-11.605-1.794c-2.459,1.987-2.73,8.83-2.897,13.594
			c-0.121,3.439,1.424,6.997,2.363,10.448c5.069,18.636,10.182,37.259,15.44,56.472c-4.236,1.834-7.892,3.516-11.598,5.01
			c-34.068,13.74-64.503,33.914-88.036,67.659c-29.419,42.186-43.252,91.111-48.438,145.099
			c-5.976,62.226-0.006,124.025,2.267,185.914c2.594,70.625-10.73,134.285-50.131,188.465C21.334,723.098,15.425,731.632,9,740.708
			c8.546,4.657,16.037,4.98,22.64-0.972c12.143-10.948,24.412-21.847,35.648-34.062c27.267-29.641,51.756-61.952,64.258-104.726
			c2.513-8.597,5.394-17.042,8.145-25.535c4.151-12.833,8.336-25.647,12.558-38.619c15.904,56.301,29.837,112.03,62.108,157.937
			c16.568,23.566,38.127,39.514,58.841,56.169c21.285,17.109,46.879,13.577,70.991,9.621c9.831-1.612,19.739-7.879,28.247-14.53
			c12.932-10.104,24.739-22.3,36.885-33.814c3.56-3.373,6.886-7.211,9.91-11.274c14.049-18.883,26.132-39.296,34.163-62.933
			c11.538-33.956,26.579-66.415,30.481-103.604c0.174-1.673,1.498-3.174,2.675-5.534c0.848,32.279,3.286,63.089,11.576,92.852
			c7.095,25.475,17.808,48.061,36.628,63.705c2.366,1.968,7.335,2.435,9.57,0.728c1.913-1.46,2.841-7.397,2.142-10.736
			C542.854,658.102,541.96,640.73,542.337,623.354z M222.541,65.713c12.642,8.677,22.935,15.632,33.134,22.776
			c14.477,10.138,15.07,9.979,24.264-6.977c5.627-10.376,11.388-20.648,17.949-32.529c8.488,14.484,16.501,27.742,24.123,41.313
			c4.976,8.86,9.249,9.997,15.972,2.548c8.939-9.903,17.587-20.182,26.385-30.268c0.809-0.928,1.797-1.63,4.673-4.195
			c-1.782,15.543-3.168,28.594-4.799,41.603c-2.25,17.961-4.89,35.855-6.936,53.85c-0.719,6.334-2.997,9.516-8.128,11.138
			c-28.864,9.127-58.03,11.597-87.626,6.684c-6.54-1.086-10.44-4.459-12.658-12.791C240.888,128.786,232.044,99.026,222.541,65.713z
			 M137.805,541.087c-7.924,24.456-15.172,49.31-24.299,73.117C95.878,660.183,61.633,705.24,27.77,727.039
			c2.179-3.483,4.108-7.245,6.573-10.405c29.699-38.078,45.375-84.194,47.882-135.125c2.32-47.164,0.3-94.68-0.599-142.022
			c-1.081-56.794-1.601-113.765,14.789-167.877c23.924-78.99,67.352-118.65,129.473-137.97c4.129,13.488,7.941,27.216,12.644,40.492
			c1.301,3.666,4.848,7.221,8.048,8.727c24.137,11.357,49.309,8.483,74.03,5.024c14.896-2.084,29.417-8.467,43.932-13.617
			c2.481-0.878,5.468-5.031,5.871-8.111c2.095-16.063,3.43-32.262,5.121-49.345c62.2,15.795,102.11,61.252,127.104,126.845
			c16.914,44.39,3.525,95.562-37.34,118.295c-24.347,13.544-49.987,18.527-76.265,19.629
			c-52.28,2.191-102.461,15.566-151.571,36.718C187.274,439.911,156.541,483.267,137.805,541.087z M189.915,494.25
			c-0.954,0.568-1.91,1.141-2.865,1.709c-2.914-3.686-5.832-7.371-8.995-11.369c2.272-3.003,4.058-5.357,7.199-9.509
			C187.072,482.553,188.493,488.401,189.915,494.25z M486.746,508.985c-11.326,36.576-21.692,73.639-34.337,109.556
			c-14.663,41.652-36.439,77.074-69.476,101.285c-12.019,8.81-20.855,23.652-35.83,26.974c-29.275,6.492-57.872,9.193-82.233-17.715
			c-4.875-5.386-10.869-9.306-16.285-14.007c-21.965-19.058-40.9-41.483-52.311-71.449c-11.2-29.418-23.024-58.657-32.043-89.056
			c-9.743-32.843-7.345-33.542,9.713-62.115c1.982,10.007,14.452,8.319,14.808,21.074c-5.129-1.725-9.218-3.098-15.739-5.293
			c2.182,4.927,2.643,7.955,4.046,8.829c14.167,8.861,27.896,22.055,42.92,24.795c18.65,3.403,38.663-0.197,57.607-4.091
			c12.336-2.536,20.456-22.075,20.066-39.08c-0.304-13.271-7.076-23.165-20.459-28.713c-28.495-11.81-56.158-9.446-83.048,8.175
			c-4.689-5.921-4.313-11.302,1.021-13.896c13.101-6.367,26.349-12.475,39.871-17.367c13.823-4.996,27.537-4.373,40.164,5.873
			c2.812,2.283,6.468,3.087,10.527,4.93c-3.495-13.399-10.372-17.612-39.765-25.709c-0.223-0.985-0.441-1.976-0.663-2.961
			c24.84-7.596,49.397-17.161,74.587-22.298c33.888-6.912,68.369-9.557,102.379-15.729c16.691-3.029,32.9-9.875,51.627-15.708
			c3.247,12.93,9.082,27.731,10.36,43.075c2.386,28.601,2.123,57.516,2.929,86.302C487.225,506.107,487.157,507.66,486.746,508.985z
			 M205.689,511.328c0.795,5.814,3.192,11.317,3.649,18.142c-4.457-5.073-9.312-9.774-13.103-15.481
			c-0.991-1.493,1.332-6.133,2.56-11.044c-7.731-9.185,1.246-8.556,6.703-11.948C205.499,498.61,204.838,505.118,205.689,511.328z
			 M213.015,491.838c2.506-10.43,8.138-16.656,17.396-17.323c4.234-0.307,8.497-0.056,12.746-0.056
			c22.7-4.266,24.218,7.79,25.069,35.485c0.316,10.204-1.296,20.999-10.126,24.697c-6.883,2.883-15.18,3.421-22.441,2.009
			C218.365,533.284,208.155,512.051,213.015,491.838z M272.743,477.635c10.964,3.051,18.664,12.354,18.677,24.221
			c0.016,14.217-7.264,26.283-16.472,28.786C274.189,512.381,273.452,494.707,272.743,477.635z"/>
		<path fill-rule="evenodd" clip-rule="evenodd" fill="#FFFFFF" d="M122.601,465.378c1.048,1.072,2.098,2.146,3.146,3.222
			c2.042-2.595,4.564-4.852,6.056-7.842c47.319-94.864,114.088-153.572,208.378-161.641c3.211-0.274,6.233-3.664,9.342-5.605
			c-3.118-1.861-6.229-5.331-9.354-5.341c-36.435-0.122-70.063,12.29-101.608,33.627c-46.621,31.524-84.344,73.916-110.816,130.036
			C125.715,456.134,124.301,460.854,122.601,465.378z M137.824,347.982c0.948,0.407,1.897,0.817,2.846,1.227
			c1.423-2.94,3.199-5.72,4.201-8.853c3.031-9.467,4.804-19.688,8.766-28.519c19.673-43.797,52.442-69.881,88.255-91.506
			c5.948-3.591,12.571-5.595,18.473-9.276c2.701-1.688,4.407-5.665,6.564-8.605c-3.436-0.757-6.864-1.616-10.322-2.201
			c-0.796-0.132-1.701,0.681-2.558,1.051c-26.136,11.325-49.043,29.077-69.814,50.887c-21.665,22.753-39.436,48.686-45.304,83.739
			C138.271,339.875,138.179,343.961,137.824,347.982z"/>
		<path fill-rule="evenodd" clip-rule="evenodd" d="M122.601,465.378c1.7-4.524,3.114-9.244,5.143-13.545
			c26.473-56.12,64.195-98.511,110.816-130.036c31.545-21.337,65.174-33.749,101.608-33.627c3.125,0.011,6.235,3.48,9.354,5.341
			c-3.108,1.941-6.131,5.332-9.342,5.605c-94.29,8.069-161.059,66.777-208.378,161.641c-1.492,2.99-4.014,5.247-6.056,7.842
			C124.699,467.524,123.649,466.45,122.601,465.378z"/>
		<path fill-rule="evenodd" clip-rule="evenodd" d="M137.824,347.982c0.355-4.021,0.447-8.107,1.107-12.057
			c5.869-35.053,23.639-60.985,45.304-83.739c20.771-21.81,43.679-39.562,69.814-50.887c0.856-0.37,1.762-1.183,2.558-1.051
			c3.458,0.585,6.887,1.443,10.322,2.201c-2.157,2.94-3.863,6.917-6.564,8.605c-5.901,3.682-12.524,5.686-18.473,9.276
			c-35.813,21.625-68.583,47.709-88.255,91.506c-3.962,8.83-5.735,19.052-8.766,28.519c-1.002,3.133-2.778,5.913-4.201,8.853
			C139.721,348.8,138.771,348.39,137.824,347.982z"/>
		<path fill-rule="evenodd" clip-rule="evenodd" d="M443.472,478.119c2.692-4.259,4.782-7.566,6.874-10.874
			c1.017,0.569,2.031,1.146,3.05,1.716c-1.036,4.55-2.185,9.069-3.067,13.662c-0.774,4.021-1.252,8.119-1.858,12.188
			c0.814,0.371,1.631,0.742,2.445,1.117c1.999-2.56,3.808-5.395,6.062-7.575c1.41-1.365,3.491-1.733,5.269-2.548
			c0.341,2.589,1.736,6.184,0.816,7.583c-2.56,3.89-6.139,6.796-9.207,10.234c-2.033,2.278-3.872,4.797-5.799,7.206
			c0.515,0.779,1.027,1.558,1.541,2.337c4.257-1.334,8.511-2.668,15.162-4.755c-2.242,4.839-2.756,7.844-4.185,8.737
			c-14.179,8.849-27.917,22.036-42.948,24.756c-18.658,3.378-38.677-0.229-57.612-4.195c-12.364-2.588-20.516-22.202-19.919-39.164
			c0.559-15.899,9.249-23.888,20.553-28.59C389.144,458.104,416.805,460.561,443.472,478.119z M398.762,474.047
			c-22.177-0.811-26.484,2.308-28.552,18.88c-0.537,4.308-0.882,8.673-1.04,13.021c-0.532,14.632,4.235,28.542,11.467,29.201
			c10.487,0.959,21.176,4.508,31.502-4.115c10.762-8.991,16.19-22.387,12.761-38.5c-2.836-13.3-9.167-18.127-24.266-18.483
			C399.119,474.018,397.601,474.047,398.762,474.047z M364.963,477.745c-11.304,2.688-19.493,13.227-18.685,26.066
			c0.903,14.303,8.739,25.846,16.476,26.381C363.497,512.537,364.241,494.857,364.963,477.745z M433.688,492.554
			c-1.843,12.623-3.568,24.428-5.72,39.127c3.728-5.751,5.651-11.708,9.053-13.391c8.681-4.298,6.157-8.363,1.015-13.255
			C443.546,495.527,443.539,495.51,433.688,492.554z"/>
		<path fill-rule="evenodd" clip-rule="evenodd" d="M350.603,453.618c5.434-4.659,10.401-10.584,16.383-13.752
			c26.086-13.817,49.858-4.071,72.544,12.195c1.773,1.269,1.859,5.911,2.73,8.983c-2.737,0.23-5.809,1.538-8.153,0.497
			c-9.35-4.138-18.282-9.689-27.723-13.451c-15.616-6.22-30.967-6.344-45.272,5.623c-2.422,2.025-5.917,2.206-8.918,3.239
			C351.663,455.841,351.13,454.73,350.603,453.618z"/>
		<path fill-rule="evenodd" clip-rule="evenodd" d="M320.851,525.943c0.151,2.423,0.398,4.844,0.449,7.277
			c0.398,19.172,0.534,38.364,1.354,57.517c0.138,3.163,3.655,5.929,4.762,9.286c0.691,2.096-0.066,7.111-0.409,7.14
			c-11.154,1.02-22.341,1.645-33.524,2.08c-0.728,0.028-1.507-1.926-4.65-6.238c11.223-0.855,20.038-1.529,29.468-2.248
			c-3.938-25.213-7.411-49.988-0.865-74.61C318.573,526.079,319.713,526.01,320.851,525.943z"/>
		<path fill-rule="evenodd" clip-rule="evenodd" d="M343.528,663.259c-2.207-2.645-5.863-2.623-8.071,0
			c-0.235,0.279-0.491,0.529-0.738,0.791c-0.301,0.035-0.597,0.081-0.884,0.165c-0.897-0.703-1.961-1.126-3.096-1.137
			c-0.358-0.004-0.716-0.02-1.075-0.045c-0.134-0.033-0.269-0.057-0.403-0.096c-1.104-1.948-3.085-2.898-5.018-2.746
			c-2.36-1.096-4.849-1.293-7.367-0.296c-1.248,0.497-2.445,1.239-3.636,1.909c0.788-0.444,0.334-0.231-0.082-0.037
			c0.084-0.069-0.017-0.089-0.124-0.073c-2.415-2.165-4.567-3.629-7.868-3.311c-2.172,0.208-4.53,0.634-6.627,1.362
			c-1.09,0.38-2.422,1.174-3.229,2.146c-0.497,0.549-0.928,1.169-1.307,1.846c-0.167-0.013-0.444-0.047-0.679-0.078
			c-0.213-0.069-0.444-0.151-0.583-0.19c-0.004-0.002-0.006-0.004-0.009-0.007c-1.88-2.477-4.634-3.603-7.305-1.729
			c-2.45,1.718-3.923,6.369-2.047,9.354c1.397,2.226,2.868,3.758,4.826,4.866c-0.162,1.979,0.393,4.03,1.585,5.631
			c4.11,5.52,9.757,10.855,16.212,10.893c0.655,0.004,1.249-0.106,1.787-0.3c0.041,0.018,0.079,0.039,0.121,0.055
			c4.389,1.746,9.059,1.395,13.533,0.375c4.708-1.071,7.632-4.393,10.666-8.515c1.586-2.151,1.787-4.638,1.178-6.778
			c0.576,0.238,1.187,0.373,1.825,0.351c3.359-0.121,6.071-1.958,8.413-4.737C345.738,670.304,345.72,665.883,343.528,663.259z
			 M318.413,679.422c-2.441,0.705-5.097,0.566-7.467-0.376c-1.327-0.526-2.51-0.479-3.509-0.039
			c-0.442-0.125-0.918-0.201-1.433-0.203c-0.219-0.011-0.359-0.016-0.461-0.016c-0.365-0.106-0.729-0.226-1.086-0.382
			c-0.303-0.117-1.671-1.156-2.303-1.661c-0.578-0.463-1.136-1.026-1.681-1.619c0.854-0.761,1.564-1.546,2.219-2.562
			c0.731-0.204,1.515-0.286,2.248-0.419c0.238-0.114,0.487-0.153,0.745-0.153c0.781,0.766,1.586,1.494,2.386,2.231
			c0.783,0.725,1.713,1.033,2.661,1.026c2.779,0.57,5.211,0.007,7.812-1.393c0.201-0.108,1.24-0.648,1.584-0.849
			c0.004,0,0.008,0,0.011-0.002c0.04-0.011,0.08-0.021,0.125-0.032c0.579,0.347,1.15,0.563,1.708,0.675
			c0.525,0.496,1.102,0.913,1.702,1.275C322.043,677.168,321.013,678.671,318.413,679.422z"/>
	</g>
	<path d="M521.037,243.417c-6.913-5.333-13.277,7.85-6.415,13.143c23.812,18.364,38.606,44.191,46.01,76.733
		c3.71,16.328,5.074,33.21,6.106,50.029c1.303,21.239,3.093,43.816-1.449,64.65c-3.783,17.354-13.459,32.841-20.526,48.427
		c-6.722,14.829-10.621,30.702-12.158,47.475c-3.962,43.229,3.813,86.07,3.654,129.294c-0.035,9.815,12.675,9.813,12.707,0
		c0.171-46.16-9.2-92.416-2.395-138.398c3.036-20.521,33.123-89.58,34.011-109.321C583.654,357.011,572.03,282.745,521.037,243.417z
		"/>
</g>
<g id="Layer_2">
	<path fill-rule="evenodd" clip-rule="evenodd" d="M644.023,58.683c-16.905-10.921-37.478-12.138-56.978-10.048
		c-19.589,2.099-38.93,6.903-57.262,14.081c-37.811,14.803-70.545,40.299-93.602,73.761c-3.67,5.326,5.002,10.319,8.635,5.047
		c21.264-30.86,51.563-54.457,86.199-68.595c16.898-6.898,34.685-11.316,52.733-13.892c18.642-2.66,38.953-2.232,55.227,8.281
		C644.411,70.828,649.419,62.168,644.023,58.683z"/>
	<path fill-rule="evenodd" clip-rule="evenodd" d="M644.5,245c-17.803-1.397-35.816-1.48-53.556,0.738
		c-16.722,2.091-36.522,6.197-47.979,19.727c-4.141,4.889,2.897,11.999,7.07,7.071c10.546-12.453,29.447-15.56,44.776-17.253
		c16.458-1.818,33.2-1.577,49.688-0.283C650.934,255.505,650.885,245.501,644.5,245z"/>
	<path fill-rule="evenodd" clip-rule="evenodd" d="M641.023,132.683c-22.159-11.193-50.256-7.087-72.047,3
		c-5.848,2.707-0.764,11.325,5.047,8.635c18.308-8.475,43.277-12.434,61.953-3C641.717,144.217,646.781,135.591,641.023,132.683z"/>
</g>
</svg>
