<?xml version="1.0" encoding="utf-8"?>
<!-- Generator: Adobe Illustrator 16.0.0, SVG Export Plug-In . SVG Version: 6.00 Build 0)  -->
<!DOCTYPE svg PUBLIC "-//W3C//DTD SVG 1.0//EN" "http://www.w3.org/TR/2001/REC-SVG-20010904/DTD/svg10.dtd">
<svg version="1.0" id="Layer_1" xmlns="http://www.w3.org/2000/svg" xmlns:xlink="http://www.w3.org/1999/xlink" x="0px" y="0px"
	 width="640px" height="960px" viewBox="0 0 640 960" enable-background="new 0 0 640 960" xml:space="preserve">
<g id="C1VGiU_1_">
	<g>
		<path fill-rule="evenodd" clip-rule="evenodd" d="M620.774,857.764c-9.215,0.551-18.443,0.906-27.532,1.336v-23.543
			c3.107-3.945,6.216-6.271,6.915-9.176c0.942-3.92-0.012-8.285-0.07-12.459c-0.049-3.635-1.945-5.658-5.432-5.758
			c-10.478-0.295-20.97-0.752-31.438-0.479c-12.689,0.328-24.582-1.303-36.436-6.75c-8.026-3.688-17.538-5.225-26.479-5.617
			c-19.614-0.863-38.388,4.801-57.12,9.75c-2.673-7.041-5.295-13.949-7.949-20.938c1.022-0.223,5.985-10.084,3.417-10.248
			c12.185-18.969,23.929-37.436,10.74-59.83c15.877-6.129,18.509-10.797,13.04-26.428c-2.138-6.111-6.696-11.449-10.527-16.873
			c-2.847-4.029-6.404-7.549-9.453-11.445c-3.728-4.768-7.415-9.582-10.772-14.607c-1.075-1.609-1.903-4.201-1.4-5.924
			c5.584-19.104,9.133-38.518,9.626-58.439c0.153-6.166,0.253-12.342,0.072-18.502c-0.688-23.123-0.211-46.376-2.624-69.323
			c-2.481-23.572-7.736-46.859-11.971-70.236c-1.925-10.64-5.298-20.558-16.587-25.096c-14.856-5.972-15.184-6.099-8.476-21.111
			c1.623-3.629,5.711-7.561,9.415-8.549c6.98-1.864,12.421-5.168,16.615-10.726c7.29-9.655,12-20.592,14.44-32.357
			c0.788-3.795,1.765-5.109,5.803-5.516c8.115-0.819,9.798-5.383,5.925-12.593c-4.035-7.508-7.525-15.308-11.067-22.595
			c5.257-1.963,11.313-3.808,16.941-6.532c2.239-1.083,3.536-4.114,5.262-6.257c-2.4-1.405-4.662-3.655-7.223-4.072
			c-12.482-2.031-25.324-2.487-36.117-10.429c-9.561-7.033-20.108-11.61-31.922-13.717c-15.777-2.815-29.557,1.115-41.431,11.362
			c-10.254,8.849-12.406,21.147-13.173,33.985c-1.019,17.03-1.406,34.311-13.582,48.323c-1.115,1.284-1.517,4.421-0.711,5.797
			c0.821,1.404,3.596,2.461,5.418,2.332c4.825-0.345,9.598-1.413,14.391-2.194c0.496,0.329,0.993,0.656,1.49,0.985
			c-2.193,3.448-4.371,6.907-6.586,10.341c-1.084,1.682-3.543,4.124-3.113,4.822c1.225,1.984,3.419,3.692,5.608,4.665
			c1.929,0.857,4.364,0.577,6.971,0.837c-0.635,1.336-0.782,2.185-1.126,2.274c-1.492,0.387-3.129,0.326-4.552,0.857
			c-1.728,0.643-4.124,1.365-4.692,2.706c-0.562,1.326,0.318,3.833,1.377,5.187c7.443,9.521,16.679,14.479,29.097,10.677
			c1.892-0.58,3.883-0.859,5.842-1.201c5.884-1.03,8.248-0.696,10.434,2.776c1.293-0.608,2.575-1.241,3.84-1.903
			c-0.049-0.575-0.106-1.143-0.232-1.677c-0.481-0.845-0.968-1.696-1.472-2.578c3.697-1.56,7.04-2.969,11.785-4.971
			c-1.637,6.315-2.865,11.052-4.489,17.324c-0.01,0.075-0.022,0.148-0.054,0.21c-0.009,0.026-0.016,0.051-0.022,0.078
			c-0.007-0.012-0.012-0.022-0.018-0.033c-0.071,0.103-0.174,0.18-0.289,0.226c-0.069,0.105-0.175,0.191-0.34,0.226
			c-2.585,0.543-5.142-0.442-7.768-0.218c-2.489,0.214-4.702,0.861-6.854,1.88c-0.595,0.388-1.181,0.787-1.736,1.223
			c-19.873,15.628-27.177,37.24-29.086,61.467c-1.803,22.918-3.808,45.82-5.901,68.714c-0.753,8.246-6.39,11.559-13.016,6.773
			c-10.069-7.273-19.222-15.809-28.828-23.73c-6.968-5.748-4.193-14.615-7.236-21.578c9.955-5.885,11.045-9.635,3.08-18.354
			c-5.355-5.864-12.727-9.836-18.751-15.158c-5.087-4.494-10.815-9.012-13.964-14.775c-4.644-8.497-9.427-16.253-17.335-22.2
			c-5.897-4.433-12.254-3.737-18.682-3.761c-1.054-0.004-2.604,1.264-3.085,2.324c-2.353,5.198-5.974,10.434-6.291,15.823
			c-0.833,14.21-0.458,28.517,0.002,42.766c0.178,5.497,5.226,3.518,8.474,3.778c3.415,0.27,5.805-0.802,5.699-4.945
			c-0.143-5.599-0.037-11.203-0.037-16.806l1.883-0.924c7.401,7.317,14.802,14.636,22.189,21.94
			c-7.81,8.55-8.126,22.562-0.521,30.784c2.661,2.875,6.447,5.621,10.14,6.383c4.23,0.873,5.906,2.641,7.286,6.398
			c8.128,22.135,19.149,42.762,34.135,61.004c4.452,5.422,10.079,10.266,16.05,13.947c6.781,4.184,14.551,6.766,21.992,10.088
			c2.518,14.176-1.5,30.117,9.721,42.943c-13.573,14.104-26.785,28.023-40.23,41.715c-5.005,5.094-5.65,12.497-1.503,17.52
			c3.479,1.848,6.811,3.949,9.95,6.301c1.354,0.515,2.729,0.924,4.104,1.17c9.099,1.623,18.351,2.389,28.983,3.676
			c1.359,16.689,2.761,33.9,4.169,51.203c-2.314,0.201-1.845,12.279-1.891,13.225c-0.952,20.004-1.983,40.004-2.85,60.01
			c-0.462,10.715-0.465,21.449-1.011,32.158c-0.384,7.508-1.746,14.979-1.935,22.482c-0.258,10.332,6.605,18.615,16.469,21.49
			c17.968,5.234,36.201,3.098,54.367,2.102c7.868-0.432,15.765-1.389,23.501-2.875c8.544-1.645,16.836-4.619,25.389-6.205
			c12.244-2.27,24.619-3.865,36.955-5.643c16.616-2.396,32.627-8.465,49.735-7.949c9.06,0.27,18.134,0.047,26.897,0.047
			c0.973,2.635,2.029,5.186,2.861,7.805c4.371,13.768,9.084,27.477,6.506,42.336c-0.813,4.686,4.23,9.449,7.915,7.307
			c4.218-2.451,8.551-5.293,11.647-8.967c7.854-9.312,7.733-20.736,7.364-32.203c-0.356-11.043-0.077-22.104-0.077-33.176
			c7.659-0.174,7.823-0.293,8.313-8.764c0.219-3.773,0.12-7.562,0.358-11.334C626.564,859.324,624.969,857.516,620.774,857.764z
			 M566.617,846.375c0.943,4.824,1.859,9.727,1.971,14.619c0.11,5.037-2.911,7.461-7.83,6.129c-11.412-3.084-23-5.896-33.938-10.266
			c-14.6-5.832-29.495-6.01-44.51-4.297c-17.621,2.008-34.426,7.395-50.683,14.521c-2.725,1.195-5.942,1.268-9.352,1.941
			c-0.201-2.895-0.385-4.84-0.466-6.791c-0.529-12.795-0.499-12.576,12.03-14.016c13.56-1.559,27.067-3.592,40.601-5.389
			c2.159-0.285,4.339-0.52,6.513-0.578c15.682-0.432,31.37-1.227,47.049-1.068c11.871,0.115,23.733,1.398,35.581,2.387
			C564.705,843.662,566.396,845.248,566.617,846.375z M436.373,806.855c1.453,4.713,3.958,5.936,9.397,4.783
			c16.056-3.402,32.294-6.029,48.545-8.375c10.053-1.449,20.031,0.484,28.909,5.27c11.253,6.066,22.989,8.461,35.577,7.613
			c1.565-0.105,3.145-0.014,5.486-0.014c-0.464,6.557-0.878,12.412-1.271,17.945c-47.473-1.82-94.967-4.125-142.188,9.158
			c1.257-18.996-6.556-39.201,10.155-55.049C432.772,794.418,434.471,800.67,436.373,806.855z M357.895,256.049
			c11.17-8.352,23.267-9.517,35.962-4.149c5.471,2.311,10.788,5.025,16.015,7.85c9.339,5.047,18.555,10.317,27.469,15.297
			c-0.109,0.045-1.185,0.542-2.291,0.953c-8.377,3.106-8.613,5.129-3.009,12.084c4.36,5.414,7.798,11.571,11.314,18.396
			c-8.063-1.924-8.756,2.577-9.374,7.746c-1.531,12.797-6.032,24.703-13.258,35.233c-3.047,4.441-8.342,7.34-13.274,11.498
			c-6.067-7.35-11.188-13.556-16.535-20.034c5.327-4.83,7.385-10.645,3.715-17.057c-3.568-6.233-9.761-4.764-15.703-3.996
			c-9.36-14.837-20.992-27.016-39.226-32.063C339.889,274.306,347.057,264.154,357.895,256.049z M356.792,379.849
			c-5.253,1.639-9.365-1.712-12.896-5.577c10.591-6.564,7.596-15.167-0.533-18.094c1.165-5.413,2.832-10.651,3.291-15.994
			c0.465-5.403-2.143-7.097-7.366-5.812c-3.387,0.833-6.742,1.789-11.873,3.16c10.475-13.481,12.597-27.823,12.303-43.97
			c9.705,5.373,17.382,11.433,23.497,19.168c3.231,4.087,5.236,9.138,7.847,13.725c1.788,3.145,3.944,5.205,7.511,2.077
			c0.598-0.522,1.215-1.335,1.886-1.405c2.429-0.252,4.881-0.243,7.325-0.332c-0.631,2.458-0.86,5.125-2.008,7.312
			c-1.066,2.032-3.731,3.304-4.555,5.365c-0.851,2.123-0.766,4.917-0.143,7.152c0.188,0.67,3.556,0.451,5.816,0.674
			c3.805,5.027,7.975,10.538,13.481,17.818C385.499,370.196,371.245,375.34,356.792,379.849z M233.611,419.809
			c1.43,0.272,3.353,0.052,4.204,0.903c3.321,3.329,6.626,6.766,9.347,10.585c5.917,8.308,8.458,18.975,17.547,25.069
			c2.547,1.708,5.152,3.329,8.678,5.6c-9.522,1.879-16.306-0.245-20.882-7.51c-6.327-10.039-12.544-20.146-18.641-30.325
			C233.206,423.033,233.669,421.264,233.611,419.809z M222.492,471.941c-0.124,0.969-1.5,1.776-2.306,2.658
			c-0.731-0.807-2.083-1.606-2.095-2.422c-0.085-5.727,0.041-11.461,0.291-17.185c0.029-0.66,1.466-1.914,1.833-1.776
			c0.912,0.341,2.174,1.274,2.245,2.063c0.264,2.956,0.105,5.949,0.105,8.928h0.039C222.603,466.79,222.819,469.4,222.492,471.941z
			 M251.107,466.509c-6.049-8.512-14.387-14.093-23.789-18.237c-4.71-2.076-9.35-4.546-9.132-10.428
			c0.262-7.082,1.126-14.258,8.859-18.545c6.189,14.937,12.542,28.85,23.335,40.357c6.84,7.293,17.489,10.68,26.961,7.396
			c3.512-1.219,13.373,6.188,12.412,9.776c-0.414,1.546-3.361,3.186-5.32,3.424C270.84,481.902,259.342,478.094,251.107,466.509z
			 M268.357,510.375c-3.277,2.137-6.624,1.67-9.693-1.201c-5.296-4.953-8.505-10.856-8.525-18.135
			c-0.012-4.049,1.775-7.109,6.854-7.587c-0.265,2.662-0.498,5.002-0.843,8.482c2.176-2.74,3.505-4.412,4.835-6.086
			c1.072,1.804,2.143,3.609,3.046,5.132c0.729-0.691,1.829-1.735,2.93-2.78c1.18,1.688,2.357,3.376,3.895,5.581
			c0.361-1.738,0.649-3.117,1.286-6.182c2.356,2.23,3.999,3.786,5.618,5.317c0.969-0.815,2.404-2.026,3.84-3.238
			c1.35,1.784,3.27,3.405,3.833,5.408c0.339,1.212-1.067,3.47-2.318,4.469C278.35,503.359,273.461,507.047,268.357,510.375z
			 M344.455,605.969c15.054-1.266,21.963-10.475,27.701-21.551c9.186-17.732,14.619-36.723,20.086-55.781
			c4.07-14.193,6.727-28.517,6.954-43.268c0.041-2.548-0.262-5.209-1.026-7.622c-0.395-1.247-2.15-2.063-3.29-3.074
			c-0.889,1.279-2.413,2.488-2.558,3.847c-0.607,5.702-0.774,11.448-1.152,17.174c-1.388,20.993-8.181,40.682-14.951,60.315
			c-2.954,8.57-6.838,16.871-10.884,25.004c-6.806,13.688-16.237,23.85-37.177,13.432c-8.207-4.082-15.443-8.893-20.9-16.238
			c-14.094-18.973-27.956-38.086-35.758-61.188c4.415-2.967,8.838-5.939,13.685-9.194c2.283,2.954,4.223,6.533,7.112,8.997
			c9.331,7.961,18.5,16.287,28.692,23.016c11.843,7.82,22.667,1.119,23.504-13.021c0.784-13.233,2.559-26.407,3.52-39.635
			c0.99-13.66,0.833-27.437,2.428-41.015c2.183-18.571,11.593-33.201,26.808-44.278c12.398-9.026,38.701,2.721,40.428,17.495
			c2.36,20.181,6.358,40.205,10.444,60.135c2.278,11.114,1.831,22.515,3.677,33.321c2.555,14.948,2.206,29.67,1.997,44.434
			c-0.312,21.977-1.027,43.955-6.633,65.541c-4.907,18.893-9.804,23.637-29.563,27.209c-12.634,2.283-24.936,0.723-37.117-1.619
			c-3.384-0.65-7.556-5.119-8.584-8.646C348.732,628.893,346.916,617.637,344.455,605.969z M363.644,655.867
			c21.471,4.715,42.103,2.84,61.909-8.17c2.207,2.908,4.304,5.676,7.092,9.348c-28.457,7.225-56.244,9.182-85.073,6.1
			C353.024,653.568,353.031,653.539,363.644,655.867z M345.558,712.463c-7.827,0.16-15.85-1.074-23.507-2.85
			c-10.953-2.541-12.524-9.34-4.74-17.594c6.277-6.656,12.346-13.529,18.977-19.811c1.975-1.869,5.67-3.145,8.362-2.836
			c20.976,2.408,41.931,3.449,62.94,0.68c9.791-1.291,19.562-2.721,26.717-3.723c5.67,4.703,10.724,7.865,14.373,12.211
			c3.587,4.271,6.233,9.537,8.402,14.738c2.373,5.691-0.01,10.291-6.168,11.805c-8.046,1.979-16.259,3.982-24.482,4.418
			C399.495,710.926,372.527,711.916,345.558,712.463z M581.148,892.189c-3.307,0.506-6.384,1.582-9.35,1.332
			c-22.893-1.914-44.877,3.484-67.061,7.676c-15.934,3.008-32.276,4.188-47.969,8.076c-23.907,5.928-48.069,8.047-72.503,8.098
			c-6.687,0.012-13.471-1.135-20.046-2.525c-8.123-1.721-12.121-9.338-10.202-17.596c5.356-23.023,5.72-46.365,5.338-69.902
			c-0.304-18.807,1.894-37.641,2.037-56.471c0.132-17.105,1.381-34.498-6.013-51.639c11.004,0,21.566,0.516,32.062-0.113
			c17.799-1.066,35.576-2.635,53.312-4.49c4.585-0.48,5.555,1.672,6.247,4.992c2.741,13.113,1.506,25.576-5.812,37.174
			c-7.518,11.912-14.98,23.861-22.178,35.967c-6.641,11.17-7.143,23.832-7.341,36.289c-0.203,12.707,0.605,25.432,1.02,38.146
			c0.228,6.951,1.854,6.836,8.44,6.525c20.556-0.973,38.137-13.695,58.589-14.215c12.029-0.305,24.083,0.406,36.122,0.746
			c0.914,0.025,1.925,0.57,2.692,1.137c9.934,7.346,21.641,10.123,33.427,11.359c7.324,0.77,14.957-1.322,22.439-2.211
			c2.117-0.25,4.197-0.791,6.748-1.287V892.189z M585.31,833.953c0.41,9.432,0.112,18.893,0.112,28.207
			c-3.376,0.639-5.297,1-7.723,1.459c0.525-16.756-11.729-30.98-8.142-48.082h22.584v8.152
			C585.677,824.178,585.07,828.424,585.31,833.953z M618.789,874.309c-9.816,1.557-10.023,1.551-10.312,11.898
			c-0.296,10.514,0.166,21.051-0.25,31.555c-0.289,7.266-1.311,14.525-2.436,21.719c-0.332,2.125-2.134,4.018-3.261,6.016
			c-2.464-15.172-5.444-29.43-13.142-42.355c-0.776-1.307-1.37-2.943-1.401-4.439c-0.203-9.535-0.188-19.076-0.32-28.611
			c-0.058-4.203,1.5-5.225,5.862-4.77c5.002,0.521,10.165-0.549,15.26-0.877c3.511-0.229,7.026-0.377,10.979-0.582
			C619.395,867.852,619.09,871.104,618.789,874.309z"/>
		<path fill-rule="evenodd" clip-rule="evenodd" fill="#FFFFFF" d="M362.159,282.494c1.931-1.479,2.675-2.019,3.387-2.598
			c13.569-11.042,21.393-11.326,35.732-1.499c1.732,1.189,3.854,2.138,5.902,2.419c1.227,0.167,3.102-0.876,3.845-1.954
			c0.489-0.709-0.111-2.852-0.918-3.668c-7.77-7.861-27.037-15.065-38.285-7.83C367.244,270.311,361.792,273.869,362.159,282.494z
			 M374.854,300.479c4.606-1.997,7.299-4.266,9.721-4.005c6.877,0.737,13.767,2.077,20.412,4.003
			c5.607,1.626,10.88,4.405,16.301,6.674c0.5-0.717,1-1.434,1.501-2.152c-1.277-2.028-2.071-4.956-3.907-5.937
			c-10.475-5.599-21.281-10.775-33.621-9.441c-3.074,0.333-6.256,2.351-8.734,4.389C375.266,295.047,375.461,297.85,374.854,300.479
			z M404.894,323.781c8.195,4.348,14.822,2.243,17.006-5.161C416.17,320.359,411.187,321.871,404.894,323.781z"/>
		<path fill-rule="evenodd" clip-rule="evenodd" d="M362.159,282.494c-0.367-8.625,5.085-12.184,9.663-15.129
			c11.248-7.235,30.516-0.031,38.285,7.83c0.807,0.816,1.407,2.958,0.918,3.668c-0.743,1.078-2.618,2.122-3.845,1.954
			c-2.049-0.281-4.17-1.23-5.902-2.419c-14.34-9.828-22.163-9.543-35.732,1.499C364.834,280.475,364.09,281.016,362.159,282.494z"/>
		<path fill-rule="evenodd" clip-rule="evenodd" d="M374.854,300.479c0.607-2.629,0.412-5.433,1.672-6.47
			c2.479-2.038,5.66-4.056,8.734-4.389c12.34-1.334,23.146,3.842,33.621,9.441c1.836,0.981,2.63,3.909,3.907,5.937
			c-0.501,0.718-1.001,1.435-1.501,2.152c-5.421-2.269-10.693-5.048-16.301-6.674c-6.646-1.926-13.535-3.267-20.412-4.003
			C382.152,296.214,379.46,298.483,374.854,300.479z"/>
		<path fill-rule="evenodd" clip-rule="evenodd" d="M404.894,323.781c6.293-1.91,11.276-3.422,17.006-5.161
			C419.716,326.023,413.089,328.128,404.894,323.781z"/>
		<path fill-rule="evenodd" clip-rule="evenodd" d="M351.984,333.551c-6.078-0.018-9.926-2.984-9.922-7.649
			c0.003-5.094,3.205-8.916,7.452-8.892c4.952,0.028,11.168,5.44,11.197,9.749C360.739,330.784,357.165,333.565,351.984,333.551z
			 M356.099,327.152c-1.155-4.778-4.741-5.168-8.538-4.542c-0.428,0.071-1.092,3.861-0.449,4.347
			C349.813,329.004,352.969,331.42,356.099,327.152z"/>
		<g>
			<path fill-rule="evenodd" clip-rule="evenodd" d="M10.088,179.78C10.261,87.33,81.604,18.838,164.755,13.58
				c100.809-6.375,177.515,71.778,178.03,164.398c0.52,93.5-71.901,166.511-163.953,167.821
				C84.471,347.142,10.488,272.846,10.088,179.78z M176.372,338.07c86.944-0.27,156.24-69.868,158.542-153.776
				c2.48-90.477-69.473-163.263-157.945-163.417C88.118,20.722,18.241,91.49,17.818,178.712
				C17.382,268.243,90.007,337.803,176.372,338.07z"/>
			<path fill-rule="evenodd" clip-rule="evenodd" d="M179.213,59.115c64.734-0.671,120.75,50.875,120.455,120.751
				c-0.29,69.305-55.524,120.188-120.85,120.057c-66.902-0.134-120.303-53.806-120.195-120.709
				C58.733,112.127,112.085,58.993,179.213,59.115z M178.956,294.116c61.314,0.47,113.441-49.277,114.949-111.663
				c1.564-64.767-49.84-117.719-114.361-117.875C114.21,64.419,64.467,117.204,64.316,179.116
				C64.159,243.395,117,294.35,178.956,294.116z"/>
			<path fill-rule="evenodd" clip-rule="evenodd" d="M202.94,203.696c-0.161,10.506-7.184,19.826-16.885,22.715
				c-9.426,2.807-20.043-1.585-25.845-10.69c-5.412-8.496-4.808-18.899,2.455-26.718c3.751-4.037,4.55-8.539,5.137-13.501
				c2.54-21.503,5.225-42.99,7.743-64.496c0.93-7.94,1.544-15.918,2.309-23.879c0.263-2.743,0.444-5.416,4.403-5.226
				c3.637,0.175,4.256,2.439,4.427,5.366c1.708,29.217,3.408,58.436,5.214,87.647c0.298,4.824,0.293,9.464,4.859,13.323
				C201.234,192.021,203.325,197.79,202.94,203.696z M179.73,188.777c-6.905,0.408-14.896,6.162-14.69,14.995
				c0.195,8.319,6.489,14.852,14.855,14.914c8.371,0.063,14.646-5.984,14.774-14.235
				C194.809,195.517,188.413,188.806,179.73,188.777z M184.473,180.223c-0.992-16.207-1.971-32.184-2.95-48.164
				c-0.228-0.005-0.455-0.012-0.682-0.019c-1.879,16.023-3.759,32.046-5.651,48.183C178.86,180.223,181.305,180.223,184.473,180.223
				z"/>
		</g>
	</g>
</g>
<path d="M383.884,385.271c-0.321-2.177-1.38-4.411-3.503-4.836c-2.914-0.583-4.194,3.71-1.524,4.527
	c0.134,0.417,0.193,0.869,0.28,1.297c0.248,1.236-0.176,2.445-0.481,3.622c-0.39,1.502-1.391,2.829-1.496,4.401
	c-0.209,3.076,4.569,3.056,4.777,0c-0.056,0.789,0.236-0.349,0.269-0.428c0.25-0.626,0.516-1.247,0.764-1.874
	c0.548-1.387,0.828-2.857,0.982-4.334c0.047-0.442,0.055-0.929,0.028-1.433C383.94,385.901,383.909,385.587,383.884,385.271z"/>
<g>
</g>
<g>
</g>
<g>
</g>
<g>
</g>
<g>
</g>
<g>
</g>
</svg>
