<?xml version="1.0" encoding="utf-8"?>
<!-- Generator: Adobe Illustrator 16.0.0, SVG Export Plug-In . SVG Version: 6.00 Build 0)  -->
<!DOCTYPE svg PUBLIC "-//W3C//DTD SVG 1.0//EN" "http://www.w3.org/TR/2001/REC-SVG-20010904/DTD/svg10.dtd">
<svg version="1.0" xmlns="http://www.w3.org/2000/svg" xmlns:xlink="http://www.w3.org/1999/xlink" x="0px" y="0px" width="896px"
	 height="606.934px" viewBox="0 0 896 606.934" enable-background="new 0 0 896 606.934" xml:space="preserve">
<g id="scene_4_xA0_Image_1_">
	<path d="M351.052,402.542c-0.753,0.458-1.621,0.738-2.552,0.738h-1.987c-0.101,0.348-0.202,0.696-0.301,1.045
		c-0.007,0.339,0.009,0.679,0.072,1c0.336,1.737,5.624,2.363,5.96,1.325c-0.167,0.026-0.327,0.052-0.497,0.079
		c0.379-1.315,0.639-2.291,0.944-3.253c0.098-0.31,0.204-0.616,0.307-0.924C352.348,402.581,351.699,402.568,351.052,402.542z"/>
	<path d="M536.053,248.278c-1.384-2.796-1.529-5.712-1.477-8.808c0.05-2.907,0.693-5.739,0.647-8.641
		c-0.012-0.797,0.89-1.63,0.825-2.4c-0.185-2.195-0.408-4.443-1.073-6.525c-0.697-2.181-1.908-4.201-2.935-6.271
		c-0.241-0.488-0.627-0.909-0.972-1.34c-0.632-0.791-1.372-1.51-1.908-2.359c-1.281-2.03-2.553-4.045-4.688-5.315
		c-2.773-1.65-2.977-4.884-4.485-7.313c-0.072-0.117-0.016-0.314-0.018-0.475c-0.046-3.664,0.801-7.212,1.701-10.705
		c0.495-1.919,0.686-3.803,0.459-5.67c-0.251-2.055-0.877-3.958-3.472-4.546c-1.852-0.42-2.911-2.144-3.857-3.729
		c-0.22-0.366-0.219-0.954-0.128-1.401c0.552-2.718,1.172-5.421,1.74-8.135c0.146-0.7,0.206-1.419,0.273-2.132
		c0.118-1.256,0.188-2.517,0.324-3.771c0.119-1.09,0.411-2.17,0.441-3.26c0.111-4.027-3.881-6.526-7.645-4.646
		c-0.182,1.925-0.405,3.943-0.553,5.967c-0.147,2.041-0.188,4.089-0.336,6.129c-0.109,1.508-0.376,3.006-0.464,4.515
		c-0.345,5.969-0.668,11.939-0.96,17.912c-0.347,7.078-0.416,14.179-1.074,21.227c-0.337,3.613-0.065,7.322-1.233,10.878
		c-0.322,0.982,0.056,2.201,0.137,3.309c0.058,0.794,0.277,1.594,0.215,2.375c-0.221,2.766-0.31,5.515-0.197,8.302
		c0.134,3.329-0.21,6.678-0.362,10.018c-0.006,0.128-0.175,0.249-0.285,0.396c-1.02,0.097-2.046,0.194-2.981,0.284
		c-0.461,0.391-0.963,0.723-1.49,1.017c-2.096,2.464-3.219,5.3-3.551,8.603c-0.97-0.437-1.669-0.751-2.398-1.08
		c0.438-2.006,0.46-3.914-0.618-5.632c-0.879-1.4-1.826-2.768-2.853-4.062c-1.612-2.034-3.291-3.97-4.641-6.248
		c-1.607-2.713-3.882-5.027-5.802-7.563c-0.704-0.93-1.163-2.043-1.841-2.996c-0.83-1.166-1.695-2.265-3.376-2.368
		c-1.233-0.075-2.446-0.484-3.122-0.628c-0.706-1.546-1.063-2.665-1.688-3.604c-0.626-0.94-1.524-1.699-1.749-3.331
		c2.625,1.412,5.017,2.545,6.948-0.75c-0.353-0.83-0.666-1.814-1.162-2.696c-1.567-2.786-3.028-5.598-3.851-8.723
		c-0.586-2.229-0.956-4.307,1.498-5.75c-1.677-2.563-0.153-5.013-0.542-7.771c1.433,0.197,2.453,0.274,3.444,0.484
		c3.043,0.646,6.07,1.504,9.215,1.206c4.165-0.395,8.432-0.28,11.705-3.812c2.056-2.218,3.08-4.599,2.958-7.529
		c-0.066-1.602-0.646-2.937-2.269-3.634c-0.566-0.243-1.047-0.688-1.742-1.159c0.313-0.22,0.513-0.345,0.697-0.489
		c2.302-1.809,4.653-3.559,6.885-5.449c1.808-1.531,2.502-6.782,1.279-8.729c-0.208-0.33-0.475-0.675-0.8-0.87
		c-1.085-0.649-2.147-1.419-3.328-1.809c-3.948-1.304-7.979-1.447-12.033-0.454c-1.765,0.432-3.526,0.871-5.475,1.353
		c-0.318-1.175-0.771-2.221-0.856-3.295c-0.188-2.357-1.592-3.724-3.465-4.824c-2.185-1.281-4.511-1.978-7.235-1.606
		c-0.222-1.524-0.453-2.843-0.599-4.172c-0.277-2.54-1.973-3.865-4.186-4.318c-2.639-0.541-5.347-0.75-8.055-0.047
		c-3.787,0.983-6.765,2.9-8.021,6.781c-0.536,1.659-0.833,3.402-1.146,5.125c-0.422,2.312-0.753,4.64-1.19,7.381
		c-0.938-1.077-1.577-1.858-2.268-2.592c-4.32-4.598-9.141-8.344-15.438-9.977c-4.973-1.29-8.017,0.354-9.97,4.506
		c-0.397,0.847-0.81,1.687-1.247,2.597c-4.273-0.231-7.777,1.194-11.003,4.17c-4.104,3.784-5.302,8.191-4.223,13.392
		c0.625,3.009,2.547,5.452,4.146,7.996c0.592,0.941,0.868,1.723,0.742,2.834c-0.331,2.914-0.046,5.725,1.912,8.14
		c0.446,0.55,0.791,1.214,1.054,1.876c0.976,2.463,3.035,3.2,5.376,3.25c4.879,0.104,8.942-1.986,12.558-5.057
		c1.391-1.182,2.656-2.511,4.594-3.196c-0.074,1.894-0.099,3.572-1.619,4.897c-0.618,0.539-0.987,1.439-1.296,2.243
		c-1.32,3.432-2.292,6.938-2.634,10.637c-0.213,2.302,0.007,4.438,0.969,6.518c0.766,1.655,1.519,3.315,2.27,4.957
		c-0.164,0.267-0.262,0.491-0.416,0.666c-3.526,4.008-5.411,8.545-4.588,13.986c0.068,0.452-0.116,0.94-0.163,1.413
		c-0.103,1.032-0.205,2.064-0.285,3.098c-0.339,4.361-0.552,8.736-1.028,13.083c-0.835,7.604-1.854,15.188-2.75,22.785
		c-0.851,7.201-1.619,14.413-2.479,21.613c-0.193,1.618-0.769,3.154-0.612,4.861c0.134,1.468,0.081,3.068-0.375,4.449
		c-0.86,2.607-1.392,5.325-2.767,7.783c-1.007,1.797-1.538,3.853-2.401,5.738c-2.257,4.929-4.513,9.86-6.899,14.727
		c-1.443,2.942-2.946,5.816-3.459,9.119c-0.608,3.914,0.699,6.806,4.127,8.718c1.221,0.682,2.427,1.39,3.931,2.253
		c-0.045,0.018-0.083,0.033-0.127,0.051c3.112,1.887,4.73,5.604,6.428,8.777c0.388,0.725,0.577,1.505,0.615,2.281
		c0.144-0.042,0.282-0.083,0.427-0.125c0.443,0.805,1.488,1.127,2.704,1.305c1.951,0.287,3.867,0.799,5.811,1.147
		c0.935,0.168,1.896,0.246,2.847,0.251c5.434,0.026,10.868,0.026,16.302,0.014c0.855-0.002,1.465,0.272,2.066,0.937
		c1.214,1.341,1.832,2.58,1.863,3.896c1.107,0.167,2.21,0.361,3.3,0.615c0.052-1.756-0.253-3.505-1.099-5.286h6.369
		c1.857,2.45,1.471,4.807,0.572,7.203c0.558,0.238,1.116,0.469,1.667,0.741c1.176,0.581,2.29,1.234,3.377,1.921
		c0.55-0.536,1.113-1.063,1.679-1.588c0.487-0.686,0.954-1.37,1.379-2.075c1.212-2.011-0.125-4.139-0.206-6.037
		c3.445-0.27,6.684-0.654,9.929-0.718c1.476-0.028,2.506-0.438,3.162-1.653c0.559-1.034,1.081-2.126,1.376-3.257
		c0.75-2.876,1.364-5.787,2.128-9.097c2.701,4.391,6.257,6.153,11.102,5.196c-0.104,0.521-0.139,0.821-0.224,1.107
		c-0.453,1.514-1.163,2.996-1.336,4.539c-0.636,5.678,0.479,11.131,2.635,16.37c0.698,1.695,0.786,3.166-0.311,4.727
		c-0.585,0.833-1.024,1.83-1.285,2.817c-0.64,2.422,0.205,3.661,2.445,4.701c2.732,1.268,5.244,0.65,7.862-0.287
		c5.087-1.823,9.142-5.187,13.074-8.695c2.65-2.366,3.343-5.719,3.821-9.063c0.138-0.959-0.119-1.957-1.14-2.446
		c-1.005-0.481-1.58,0.265-2.277,0.818c-2.178,1.732-4.398,3.411-6.628,5.079c-0.892,0.667-1.854,1.23-3.156,0.957
		c-0.392-2.406-0.612-4.729,0.182-7.094c1.241-3.7,2.449-7.415,3.495-11.173c0.44-1.582,0.566-3.285,0.604-4.938
		c0.116-5.158,0.245-4.107-3.066-7.159c5.312-4.323,7.544-10.189,7.956-16.77c0.204-3.254-0.961-6.155-4.276-7.637
		c-1.658-0.742-3.326-1.462-5.06-2.223c-0.43-1.4-0.911-2.971-1.391-4.534c0.921-0.187,2.011-0.082,2.55-0.577
		c1.571-1.441,3.16-2.971,4.306-4.746c1.816-2.816,2.165-5.958,0.775-9.132c-1.774-4.055-4.906-6.877-8.648-8.994
		c-2.432-1.375-5.068-2.387-7.716-3.609c3.555-2.697,6.502-5.898,8.903-9.625c1.179-1.829,1.646-3.764,1.668-5.888
		c0.039-3.641-0.613-7.101-2.554-10.138c1.895-0.823,3.808-1.416,5.453-2.44c1.519-0.944,2.932-2.206,4.044-3.604
		c0.741-0.932,1.007-2.324,1.245-3.556c0.232-1.199,0.394-2.423,0.466-3.646c-1.025-2.574-3.527-4.729-6.153-5.224
		c-0.045-0.008-0.075-0.029-0.11-0.045c-0.129,0.005-0.256,0.009-0.377,0.01c-0.473,0.004-0.943,0.286-1.787,0.567
		c0.198-4.453,0.478-8.572,0.542-12.695c0.094-5.99,0.013-11.982,0.044-17.973c0.021-3.832,0.03-7.666,0.191-11.493
		c0.15-3.578,0.462-7.15,0.763-10.72c0.255-3.007,0.652-6.002,0.886-9.01c0.321-4.128,1.041-8.236,0.67-12.403
		c-0.154-1.738-0.469-3.485-0.402-5.215c0.15-3.921,1.253-7.79,0.378-12.005c0.604,0.246,0.909,0.312,1.149,0.477
		c2.543,1.733,3.773,6.634,2.267,9.771c-1.477,3.074-2.039,6.345-2.371,9.655c-0.377,3.754,1.827,6.858,5.459,7.566
		c1.095,0.213,1.646,0.687,1.839,1.487c0.309,1.276,0.575,2.649,0.427,3.932c-0.324,2.816-0.952,5.596-1.389,8.401
		c-0.169,1.086,0.103,2.299-0.274,3.283c-0.854,2.232-0.432,4.398,0.009,6.558c0.16,0.784,0.726,1.597,1.328,2.158
		c1.568,1.459,3.295,2.746,4.884,4.183c0.686,0.619,1.266,1.392,1.755,2.181c0.831,1.336,1.562,2.735,2.316,4.118
		c1.106,2.023,2.094,4.122,3.328,6.063c0.943,1.484,1.459,3.04,1.391,4.732c-0.162,3.966-0.18,7.966-0.751,11.879
		c-0.567,3.883-0.072,7.433,1.709,10.854c0.18,0.345,0.593,0.568,0.927,0.874c0.198-0.307,0.342-0.432,0.353-0.566
		C536.125,248.906,536.182,248.539,536.053,248.278z M504.75,245.051v1.923c0.064,0.015,0.119,0.052,0.175,0.088
		c-0.003,0.268-0.007,0.535-0.008,0.803c0,0.042,0.015,0.075,0.022,0.112c-0.083,0.047-0.167,0.091-0.25,0.139
		c-0.056,0.003-0.097-0.008-0.146-0.012c-0.157,0.063-0.313,0.099-0.462,0.088c-0.075,0.005-0.151-0.012-0.227-0.052
		c-0.383-0.131-0.686-0.508-0.783-1.062c-0.144-0.809,0.055-1.7,0.577-2.334c0.028-0.072,0.057-0.148,0.086-0.215
		c0.091-0.21,0.257-0.278,0.422-0.256c0.003-0.002,0.005-0.005,0.008-0.007C504.675,243.939,505.135,244.671,504.75,245.051z
		 M470.508,206.141c1.104,2.366,2.516,4.588,3.901,7.068c-2.516,2.066-5.167-0.217-8,0.518c0.958,1.538,1.726,2.771,2.498,4.011
		c-2.103,0.285-2.965-0.229-4.025-2.462c-0.727,0.369-1.451,0.736-2.329,1.181c2.504,1.198,4.82,2.307,7.312,3.498
		c-0.605,0.166-1.334,0.628-1.713,0.428c-2.76-1.463-5.859-1.241-8.77-1.915c-1.058-0.245-2.251-0.071-3.06-1.07
		c-0.123-0.152-0.455-0.241-0.662-0.204c-2.42,0.44-3.808-1.557-5.653-2.432c-1.373-0.651-2.438-1.73-2.729-3.417
		c-0.111-0.642-0.675-1.206-1.1-1.919c2.083-2.922,4.168-5.924,4.467-9.75c5.866,0.053,11.536,0.807,17.012-0.961
		C468.647,201.337,469.422,203.812,470.508,206.141z M449.958,193.605c-0.809-0.353-1.665-0.321-2.421-0.547
		c-3.852-1.154-7.982-1.47-11.537-3.521c0.797-3.164,3.653-5.119,6.622-4.574c1.095,0.201,2.148,0.617,3.239,0.846
		c1.786,0.376,3.582,0.918,5.384,0.958c2.811,0.062,5.182,1.193,7.658,2.278c1.487,0.651,3.208,0.895,4.849,1.037
		c1.975,0.171,3.976,0.04,5.965,0.04c0.117,0.192,0.234,0.383,0.352,0.575c-0.514,0.494-0.946,1.152-1.555,1.454
		c-2.762,1.369-5.755,1.857-8.803,1.952c-2.396,0.075-4.798,0.055-7.194-0.008C451.654,194.072,450.737,193.945,449.958,193.605z
		 M495.493,182.752c-1.546,0.479-2.498,0.895-3.491,1.062c-4.838,0.818-9.633,0.752-14.412-0.581
		c-1.445-0.403-3.042-0.26-4.667-0.375c0.233-0.574,1.014-0.897,1.739-1.236c2.535-1.185,5.164-2.1,7.96-2.391
		c2.124-0.222,4.259-0.371,6.394-0.457c1.733-0.069,3.294,0.587,4.623,1.646C494.264,180.919,494.669,181.692,495.493,182.752z
		 M491.933,162.468c2.228,0.004,4.365,0.642,6.286,1.85c-2.741,3.914-6.999,4.7-11.079,5.568c-3.604,0.766-7.076,1.777-10.425,3.287
		c-2.456,1.107-5.022,1.995-7.396,3.253c-1.442,0.766-2.634,2.021-3.892,3.111c-1.199,1.039-2.368,2.117-3.493,3.235
		c-0.83,0.825-1.515,0.548-2.255-0.017c0.073-0.244,0.082-0.423,0.17-0.545c2.639-3.688,5.338-7.335,7.914-11.067
		c1.711-2.479,4.159-3.843,6.795-5.019C480.089,163.657,485.898,162.458,491.933,162.468z M472.163,154.657
		c1.456,0.129,2.94,0.691,4.267,1.35c1.723,0.856,1.715,2.906,0.097,3.962c-0.935,0.61-1.874,1.281-2.908,1.653
		c-1.974,0.71-3.365,2.05-4.646,3.619c-2.624,3.211-5.333,6.341-7.454,9.946c-0.912,1.551-2.292,2.827-3.715,4.534
		c-0.479-0.958-0.946-1.624-1.16-2.363c-1.012-3.494-1.082-7.04-0.426-10.612c0.676-3.676,3.145-6.147,5.652-8.635
		C464.756,155.25,468.282,154.313,472.163,154.657z M450.688,159.524c0.33-2.519,0.723-5.04,1.287-7.516
		c0.589-2.587,2.355-4.277,4.754-5.307c2.612-1.121,5.31-0.946,7.986-0.341c1.347,0.304,1.487,0.562,2.266,2.065
		c-8.466,3.489-13.876,9.298-14.37,19.413c-0.655-2.151-1.222-3.802-1.646-5.488C450.735,161.439,450.567,160.442,450.688,159.524z
		 M430.774,151.338c5.763,0.905,10.273,3.538,13.68,8.558c3.203,4.72,4.857,9.917,6.429,15.256
		c-5.529-4.833-12.229-6.926-18.964-8.947c-0.839-0.252-1.681-0.543-2.543-0.663c-3.541-0.491-5.151-2.786-5.862-6.029
		C422.486,154.831,424.762,150.393,430.774,151.338z M409.316,173.76c-1.666,0.042-2.304-0.722-2.295-2.365
		c0.014-2.546,0.626-4.904,2.362-6.856c0.847-0.952,1.764-1.84,2.606-2.795c2.058-2.33,4.791-2.571,7.567-2.66
		c2.507,3.976,4.028,8.208,8.075,11.061c-0.722,0.139-1.128,0.281-1.535,0.287c-4.222,0.064-8.105,1.598-12.096,2.692
		C412.492,173.539,410.886,173.72,409.316,173.76z M426.63,183.111c-1.697,1.508-3.522,2.706-5.452,3.838
		c-2.345,1.376-4.861,1.458-7.411,1.107c-2.234-0.307-2.808-1.241-1.873-3.301c1.057-2.33,2.619-4.24,5.233-5.138
		c4.623-1.587,9.335-2.642,14.229-2.742c1.228-0.025,2.46,0.229,3.69,0.356C431.847,178.746,429.157,180.864,426.63,183.111z
		 M435.301,193.439c4.308,1.263,8.399,2.463,12.747,3.738c-0.351,1.254-0.591,2.573-1.083,3.79c-1.37,3.383-3.576,6.172-6.459,8.394
		c-0.602,0.463-1.486,0.543-2.138,0.959c-1.594,1.017-3.128,2.126-4.688,3.2C429.874,206.966,430.65,197.586,435.301,193.439z
		 M416.295,346.969c-2.484,1.498-5.63-0.461-5.92-3.405c-0.27-2.734,0.486-5.322,1.717-7.61c3.865-7.192,6.546-14.847,9.273-22.494
		c0.08-0.225,0.198-0.436,0.467-1.021c1.774,0.229,3.478,0.448,5.396,0.695c-0.542,1.87-1.093,3.514-1.492,5.193
		c-1.364,5.724-2.65,11.466-4.019,17.188c-0.592,2.474-1.368,4.903-1.957,7.378C419.288,344.872,417.799,346.062,416.295,346.969z
		 M434.984,335.316c1.154,3.036,2.083,6.168,2.925,9.309c0.356,1.33,0.252,2.785,0.383,4.516c-4.744-0.094-8.833-0.792-12.986-2.5
		c0.487-1.893,0.945-3.633,1.384-5.378c1.318-5.245,2.522-10.522,3.98-15.729c0.877-3.131,2.147-6.152,3.231-9.226
		c0.185-0.523,0.343-1.057,0.482-1.594c0.475-1.824,0.47-1.826,2.726-1.949c0.66,1.439,0.124,2.93,0.062,4.394
		c-0.067,1.583-0.116,3.175-0.33,4.742c-0.214,1.561-0.579,3.105-0.958,4.639c-0.304,1.233-0.741,2.434-1.094,3.656
		C434.292,331.92,434.313,333.553,434.984,335.316z M475.994,347.777c-0.473,2.663-1.188,5.284-1.831,7.916
		c-0.444,1.815-1.252,3.202-3.451,3.289c-1.979,0.077-3.948,0.522-5.926,0.553c-7.428,0.118-14.858,0.076-22.286,0.204
		c-5.573,0.096-11.145,0.36-16.717,0.549c-1.995-2.821-3.785-5.352-5.688-8.042c0.7-0.259,1.396-0.516,2.093-0.772
		c3.474,2.02,7.13,3.205,11.137,3.385c3.074,0.138,5.785-1.022,8.446-2.199c0.98-0.434,1.534-1.83,2.505-3.071
		c0.236,0.061,0.825,0.196,1.407,0.361c1.906,0.542,3.765,0.854,5.831,0.731c5.177-0.309,9.986-1.937,14.852-3.437
		c2.208-0.682,3.521-2.378,4.696-4.365h5.512C477.16,344.63,476.274,346.196,475.994,347.777z M441.726,312.226
		c3.011-0.753,5.909-1.479,8.968-2.243c0.874,2.376,1.691,4.691,2.58,6.978c0.433,1.113,0.811,2.323,1.535,3.233
		c3.546,4.454,5.538,9.661,7.474,14.905c0.604,1.637,1.168,3.287,1.732,4.938c0.45,1.315-0.058,2.487-0.535,3.689
		c-0.538,1.356-1.561,1.567-2.864,1.647c-2.059,0.127-4.137,0.829-6.146,0.641c-2.251-0.212-4.458-1.074-6.638-1.794
		c-0.941-0.311-1.815-0.905-2.625-1.501c-0.406-0.298-0.693-0.852-0.873-1.349c-1.248-3.443-2.665-6.839-2.757-10.597
		c-0.022-0.936-0.463-1.854-0.577-2.797c-0.092-0.764-0.033-1.557,0.051-2.326c0.195-1.813,0.568-3.616,0.646-5.432
		C441.809,317.591,441.726,314.954,441.726,312.226z M472.163,337.852c-0.637-0.3-1.229-0.988-1.532-1.642
		c-0.734-1.588-1.336-3.244-1.904-4.902c-1.431-4.175-3.484-8.011-5.783-11.778c-2.286-3.746-3.682-7.92-4.708-12.315
		c2.141-0.871,4.154-1.559,6.044-2.496c1.912-0.947,3.702-2.143,5.774-3.364c1.537,3.817,2.819,7.343,4.365,10.748
		c1.714,3.777,3.519,7.531,5.576,11.128c1.17,2.044,2.923,3.755,4.419,5.612c0.399,0.496,0.825,0.974,1.227,1.469
		c2.201,2.722,1.494,6.071-1.628,7.723c-0.282,0.149-0.562,0.33-0.865,0.408C479.425,339.395,475.723,339.53,472.163,337.852z
		 M477.52,298.057c4.544,4.152,9.134,7.939,14,11.368c2.205,1.554,4.806,2.539,6.652,4.62c0.212,0.239,0.462,0.444,0.67,0.687
		c2.725,3.16,2.538,6.111-0.742,8.661c-1.37,1.065-2.972,1.879-4.56,2.605c-1.579,0.723-2.88,0.335-4.028-1.033
		c-0.713-0.851-1.372-1.777-1.886-2.758c-3.706-7.067-7.214-14.225-9.604-21.87C477.791,299.597,477.685,298.817,477.52,298.057z
		 M508.501,355.842c-1.402,4.487-2.711,9.02-4.421,13.391c-1.27,3.247-0.881,6.421-0.519,9.653c0.132,1.179,2.268,2.142,3.992,1.895
		c2.052-0.294,3.714-1.365,5.218-2.745c1.385-1.271,2.813-2.493,4.224-3.736l0.325,0.246c-0.273,0.521-0.451,1.132-0.838,1.549
		c-4.045,4.369-8.767,7.61-14.775,8.607c-0.601,0.1-1.27,0.092-1.853-0.065c-1.431-0.386-1.816-1.311-1.241-2.69
		c0.487-1.169,0.991-2.332,1.453-3.512c0.636-1.627,0.681-3.238-0.055-4.877c-2.165-4.819-2.977-9.902-2.755-15.153
		c0.116-2.747,0.948-5.089,3.63-6.512c1.466-0.777,2.754-1.904,4.082-2.925c1.553-1.192,2.685-0.889,3.399,1.001
		C509.103,351.905,509.108,353.901,508.501,355.842z M507.746,322.31c1.895-0.049,3.468,1.033,4.947,1.977
		c0.754,0.48,1.294,1.888,1.287,2.871c-0.037,5.349-1.524,10.19-5.516,14.026c-2.869,2.759-5.496,5.823-8.995,7.813
		c-1.776,1.011-3.728,1.824-5.701,2.351c-3.231,0.862-6.028-0.57-7.521-3.556c-0.92-1.842-1.784-3.712-2.678-5.579
		c1.957-0.611,3.749-1.223,5.569-1.73c3.445-0.96,6.372-4.822,4.948-8.998c-0.171-0.502-0.109-1.084-0.172-1.82
		C499.546,328.823,504.168,326.618,507.746,322.31z M505.788,298.646c2.589,3.107,1.472,9.035-2.034,10.893
		c-0.426,0.226-1.229,0.037-1.727-0.216c-4.148-2.106-7.723-5.02-11.16-8.112c-1.361-1.224-2.733-2.437-4.048-3.71
		c-0.732-0.71-1.355-1.533-2.143-2.436c1.686-1.326,3.107-2.448,4.533-3.566c1.138-0.893,2.4-1.159,3.808-0.78
		C498.071,292.08,502.42,294.605,505.788,298.646z M504.249,267.242c-0.05,0.234-0.121,0.476-0.104,0.708
		c0.336,4.919-2.566,8.343-5.333,11.897c-1.664,2.138-4.033,3.346-6.001,5.071c-0.812,0.712-2.158,0.852-3.289,1.147
		c-0.686,0.18-1.43,0.12-2.137,0.234c-4.526,0.735-8.918-2.054-9.941-6.528c-0.228-0.99,0.161-2.17,0.451-3.212
		c0.197-0.712,0.646-1.49-0.094-1.931c-0.582-0.346-1.481-0.448-2.15-0.287c-0.824,0.199-1.602,0.718-2.318,1.215
		c-2.173,1.511-4.678,2.007-7.208,2.332c-0.821,0.106-1.763-0.172-2.557-0.498c-2.211-0.907-4.479-1.756-6.521-2.969
		c-1.467-0.872-2.748-2.172-3.866-3.49c-3.014-3.554-4.652-7.669-5.184-12.359c-0.455-4.023-1.472-7.982-2.215-11.976
		c-0.198-1.069-0.3-2.156-0.471-3.422c-1.223,0.214-2.271,0.398-3.581,0.628c-0.05,2.548-0.373,5.036-0.085,7.45
		c0.491,4.109,1.154,8.226,2.165,12.234c0.572,2.273,1.844,4.415,3.043,6.475c1.44,2.473,2.966,4.94,4.786,7.135
		c1.287,1.553,2.969,2.955,4.757,3.875c2.379,1.224,4.971,2.214,7.585,2.758c3.593,0.748,6.86-0.841,10.257-2.396
		c1.368,4.265,4.34,7.077,8.853,8.74c-5.16,2.546-9.943,4.726-14.554,7.225c-6.227,3.375-12.907,5.464-19.693,7.197
		c-3.372,0.861-6.918,1.224-10.405,1.393c-2.834,0.138-5.712,0.437-8.575-0.367c-1.382-0.388-2.984,0.077-4.435-0.163
		c-1.292-0.214-2.512-0.867-3.938-1.392c-0.116-1.816,0.085-3.66,1.175-5.383c-0.306-2.22,1.756-19.952,2.435-26.023
		c0.407-3.641,0.701-7.294,1.114-10.935c0.593-5.223,1.394-10.428,1.837-15.663c0.487-5.764,1.471-11.502,1.187-17.318
		c-0.104-2.116,0.522-3.894,2.029-5.417c1.89-1.912,3.572-4.053,5.601-5.797c1.025-0.881,2.588-1.201,3.959-1.6
		c1.138-0.331,2.349-0.529,3.531-0.546c0.716-0.01,1.609,0.243,2.13,0.708c2.466,2.198,5.3,3.772,8.349,4.897
		c1.915,0.707,3.98,1.031,5.997,1.431c1.773,0.353,3.643,0.362,5.021,1.814c0.203,0.214,0.534,0.379,0.829,0.424
		c2.976,0.455,5.957,0.88,8.536,1.256c1.159,1.35,2.113,2.396,2.99,3.504c0.729,0.922,1.344,1.936,2.057,2.873
		c0.625,0.821,1.29,1.616,1.983,2.382c2.182,2.413,4.523,4.698,6.529,7.248c1.26,1.602,2.052,3.579,3.006,5.412
		c0.427,0.818,0.735,1.697,1.156,2.687c-1.651,0.294-3.368,0.438-4.978,0.932c-1.643,0.503-3.18,1.349-4.819,2.069
		c-0.429-2.421-0.779-4.621-1.215-6.804c-0.535-2.678-1.918-4.872-3.998-6.634c-0.305-0.258-0.649-0.502-0.862-0.827
		c-1.646-2.502-4.334-3.324-6.93-4.199c-1.729-0.583-3.554-0.925-5.361-1.217c-3.85-0.624-7.715-1.15-11.577-1.7
		c-0.54-0.077-1.094-0.057-1.838-0.091v3.118c2.251,0.727,4.508,1.63,7.095,1.877c4.186,0.399,8.494,0.697,12.366,2.462
		c4.405,2.009,7.624,5.245,8.209,10.383c0.387,3.391,0.674,6.793,1.033,10.47c1.2-0.522,2.246-0.875,3.191-1.406
		c3.855-2.166,7.827-3.149,12.138-1.458c0.13,0.051,0.31-0.026,0.563-0.055c0.187-0.335,0.399-0.718,0.684-1.23
		c1.504,1.875,3.043,3.591,5.297,4.444c0.343,0.129,0.743,0.466,0.854,0.795C503.489,262.929,504.742,264.891,504.249,267.242z
		 M510.753,244.375c-0.003,0.016-0.005,0.032-0.008,0.048c0.042-0.003,0.085,0.002,0.128,0.001c0.086,1.356-0.152,2.746-0.805,3.938
		c-0.31,0.566,0.554,1.071,0.863,0.505c0.726-1.326,1.005-2.833,0.94-4.329c0.386,0.101,0.764,0.268,1.129,0.478
		c0.005,1.38,0.024,2.742-0.6,4.013c-0.283,0.577,0.579,1.083,0.863,0.505c0.602-1.226,0.712-2.486,0.73-3.799
		c0.376,0.337,0.712,0.724,1,1.139c-0.023,1.165-0.169,2.167-0.927,3.155c-0.393,0.512,0.477,1.009,0.863,0.505
		c0.475-0.62,0.741-1.261,0.89-1.937c0.179,0.656,0.209,1.32,0.035,1.934c0.041,0.129,0.081,0.25,0.05,0.341
		c-1.138,3.399-3.169,6.035-6.522,7.504c-0.505,0.221-1.053,0.352-1.589,0.494c-1.128,0.299-2.261,0.578-3.632,0.926
		c0.165,0.088-0.052,0.042-0.074-0.05c-0.382-1.589-1.064-2.938-2.649-3.668c-0.272-0.125-0.484-0.415-0.685-0.661
		c-0.882-1.08-2.392-1.785-2.402-3.399c-0.014-2.225,0.004-4.534,1.425-6.392c0.503-0.658,1.168-1.198,1.887-1.767
		c0.026-0.031,0.047-0.065,0.084-0.092c0.163-0.119,0.324-0.242,0.485-0.362c0.062-0.05,0.123-0.097,0.186-0.147
		c0.001,0.006,0,0.011,0.001,0.017c0.362-0.255,0.741-0.478,1.197-0.557c0.465-0.081,0.729,0.418,0.586,0.732
		c-0.048,0.051-0.094,0.105-0.141,0.161c-0.05,0.032-0.107,0.059-0.18,0.071c-0.58,0.102-1.023,0.485-1.479,0.833
		c-0.054,0.587-0.142,1.173-0.154,1.768c-0.002,0.075,0.014,0.139,0.036,0.196c-0.015,0.073-0.035,0.146-0.038,0.219
		c-0.026,0.693,0.039,1.474,0.342,2.078c0.719,1.429,2.618,1.276,3.711-0.268c0.688-0.974,1.46-1.936,1.905-3.021
		C508.701,244.28,509.511,244.309,510.753,244.375z"/>
	<path fill-rule="evenodd" clip-rule="evenodd" d="M178.725,607.762c-1.728-0.008-3.455-0.008-5.183-0.022
		c-4.906-0.04-9.811-0.294-14.716-0.308c-3.668-0.011-7.337,0.142-11.005,0.212c-0.057,0.372-0.115,0.743-0.171,1.115h32.273
		C179.523,608.427,179.123,608.096,178.725,607.762z"/>
	<path fill-rule="evenodd" clip-rule="evenodd" d="M41.638,606.941c-0.107,0.001-0.213-0.004-0.32-0.003
		c-3.636,0.039-7.271,0.264-10.906,0.289c-7.006,0.049-14.012,0.006-21.018,0.017c-6.787,0.01-13.575,0.094-20.361,0.041
		c-1.779-0.014-3.557-0.061-5.335-0.104c-0.125,0.529-0.261,1.057-0.417,1.577h59.172C42.171,608.157,41.9,607.551,41.638,606.941z"
		/>
	<path fill-rule="evenodd" clip-rule="evenodd" d="M-29.714,169.559"/>
	<path fill-rule="evenodd" clip-rule="evenodd" d="M-29.714,113.879"/>
	<path fill-rule="evenodd" clip-rule="evenodd" d="M456.694,522.955c0.813,0.092,1.663,0.231,2.518,0.278
		c4.219,0.229,8.441,0.387,12.657,0.658c5.325,0.344,10.644,0.795,15.968,1.159c3.423,0.234,6.848,0.463,10.276,0.572
		c3.991,0.128,7.99,0.264,11.979,0.148c8.592-0.247,17.021,0.854,25.42,2.529c6.406,1.278,12.842,2.441,19.3,3.423
		c3.932,0.599,7.938,0.681,11.896,1.129c5.619,0.636,11.227,1.383,16.837,2.103c4.664,0.6,9.351,1.081,13.981,1.878
		c7.514,1.293,15.1,1.109,22.661,1.447c0.638,0.028,1.282,0.023,1.908,0.124c1.411,0.228,2.729,0.33,4.196-0.131
		c1.943-0.61,3.96,0.052,5.859,0.683c1.966,0.653,3.899,1.409,5.834,2.154c2.52,0.972,5.027,1.977,7.705,3.032
		c-0.816,1.289-1.854,1.543-3.092,1.159c-1.521-0.471-3.089-0.863-4.523-1.531c-3.449-1.605-7.237-1.646-10.838-2.528
		c-5.626,0.765-11.21-0.505-16.841-0.338c-3.854,0.113-7.747-0.467-11.595-0.958c-6.154-0.787-12.277-1.812-18.427-2.638
		c-6.311-0.848-12.635-1.604-18.959-2.35c-3.242-0.382-6.522-0.499-9.742-1.008c-5.743-0.909-11.461-1.979-17.175-3.063
		c-7.684-1.457-15.396-2.558-23.246-2.378c-2.238,0.051-4.482,0.11-6.716-0.004c-7.322-0.375-14.64-0.843-21.96-1.245
		c-4.529-0.249-9.062-0.448-13.594-0.661c-3.583-0.169-7.169-0.304-10.752-0.495C456.165,525.993,455.802,525.264,456.694,522.955z"
		/>
	<path fill-rule="evenodd" clip-rule="evenodd" d="M473.222,255.969c0.843,2.008,0.631,3.646-0.745,5.18
		c-1.915,0.237-3.477-0.719-4.857-1.937c-4.497-3.963-7.704-8.901-10.268-14.247c-0.591-1.232-0.559-2.785-0.685-4.202
		c-0.031-0.35,0.384-0.986,0.697-1.062c0.437-0.105,1.182,0.029,1.428,0.345c1.355,1.744,2.604,3.571,3.879,5.376
		c2.332,3.303,4.433,6.811,7.915,9.104C471.443,255.093,472.392,255.52,473.222,255.969z"/>
	<path fill-rule="evenodd" clip-rule="evenodd" d="M449.438,242.671c1.894,1.6,3.495,2.744,4.264,4.59
		c2.744,6.584,6.574,12.218,13.186,15.483c1.946,0.962,1.945,3.133,3.246,4.443c-1.095,1.136-2.09,1.134-3.195,0.625
		c-2.804-1.292-5.182-3.148-7.218-5.442c-3.505-3.948-6.622-8.16-9.062-12.875C449.612,247.477,449.825,245.369,449.438,242.671z"/>
	<path fill-rule="evenodd" clip-rule="evenodd" d="M454.903,209.472c1.085,0.055,1.938,0.099,2.875,0.146c0-1.478,0-3.093,0-4.891
		c-0.511,0.077-1.105,0.29-1.658,0.211c-0.423-0.06-0.794-0.489-1.398-0.895c0.955-0.352,1.603-0.479,2.127-0.804
		c2.482-1.54,4.986-1.356,7.498-0.156c0.595,0.284,1.443,0.666,1.576,1.162c0.316,1.179,0.532,2.507,0.291,3.672
		c-0.188,0.911-1.049,1.737-1.742,2.478c-1.935,2.064-6.389,2.4-8.615,0.655C455.464,210.74,455.297,210.144,454.903,209.472z
		 M458.579,209.393c1.486,0.192,2.481,0.352,3.483,0.442c1.586,0.144,2.085-1.169,2.761-2.181c0.682-1.02,0.289-2.132-0.36-2.863
		c-0.988-1.112-2.382-1.363-3.863-0.883C459.957,205.65,459.341,207.324,458.579,209.393z"/>
	<path fill-rule="evenodd" clip-rule="evenodd" d="M353.5,402.53c-0.821,0.058-1.638,0.048-2.454,0.015
		c-0.751,0.456-1.618,0.735-2.546,0.735h-1.989c-0.354,1.242-0.708,2.485-1.061,3.729c-0.18,0.635-0.722,1.211-1.372,1.401
		c0.417,0.133,0.896,0.153,1.44-0.021c1.494-0.48,2.52-1.192,3.232-2.108c0.661,0.959,2.185,1.299,3.37,0.742
		c0.491-1.505,0.972-3.005,1.454-4.505C353.549,402.521,353.525,402.528,353.5,402.53z"/>
	<g>
		<path fill="none" stroke="#000000" stroke-width="4" stroke-miterlimit="10" d="M365.668,406.863
			c0.017-0.038,0.035-0.076,0.054-0.115c7.148-14.701,21.818-25.552,39.672-27.393c27.076-2.795,51.222,16.199,53.926,42.418
			c2.704,26.224-17.055,49.745-44.131,52.538c-27.076,2.794-51.218-16.199-53.922-42.422c-0.457-4.419-0.275-8.762,0.472-12.937
			c0.025-0.148,0.054-0.295,0.082-0.442c0.014-0.068,0.026-0.137,0.04-0.203c0.006-0.037,0.014-0.073,0.021-0.107
			c0.018-0.096,0.037-0.19,0.057-0.286"/>
		<path fill="none" stroke="#000000" stroke-width="6" stroke-miterlimit="10" d="M428.533,426.338
			c-0.831-8.055-8.345-13.876-16.78-13.007c-3.716,0.386-6.989,2.002-9.42,4.38c-7.467-6.379-21.109-9.449-34.562-10.706
			c-0.029-0.003-0.056-0.004-0.085-0.008c-2.888-0.27-5.768-0.456-8.574-0.572c-0.04-0.001-0.08-0.003-0.121-0.005
			c-6.147-0.255-11.922-0.18-16.693,0.063c-1.739,3.929-3.483,7.854-5.245,11.772c5.833-1.709,12.286-2.034,18.842-1.473
			c2.646,0.225,5.308,0.59,7.948,1.061c0.048,0.005,0.095,0.015,0.142,0.022c0.019,0.004,0.036,0.006,0.053,0.011
			c0.039,0.006,0.075,0.011,0.11,0.017c13.423,2.426,26.254,7.466,33.764,10.289c0.005,0.432,0.021,0.868,0.065,1.306
			c0.832,8.056,8.344,13.878,16.781,13.007C423.198,441.626,429.363,434.391,428.533,426.338z"/>
		<path fill="none" stroke="#000000" stroke-width="6" stroke-miterlimit="10" d="M413.569,415.191c0,0,5.032-34.029,5.252-33.993"
			/>
		
			<line fill="none" stroke="#000000" stroke-width="6" stroke-miterlimit="10" x1="425.843" y1="422.856" x2="453.968" y2="406.303"/>
		
			<line fill="none" stroke="#000000" stroke-width="6" stroke-miterlimit="10" x1="424.917" y1="435.704" x2="450.49" y2="455.971"/>
		
			<line fill="none" stroke="#000000" stroke-width="6" stroke-miterlimit="10" x1="413.127" y1="443.095" x2="415.167" y2="476.13"/>
		<path fill="none" stroke="#000000" stroke-width="6" stroke-miterlimit="10" d="M399.357,437.822
			c-0.077-0.091-21.731,26.948-21.731,26.948"/>
		
			<line fill="none" stroke="#000000" stroke-width="6" stroke-miterlimit="10" x1="404.075" y1="416.25" x2="387.388" y2="387.093"/>
		<path fill="none" stroke="#000000" stroke-width="4" stroke-miterlimit="10" d="M359.03,406.323
			c7.719-18.706,25.625-32.784,47.698-35.062c8.141-0.84,16.055,0.008,23.373,2.253c0.451,0.139,0.899,0.282,1.345,0.431
			c4.39,1.464,8.552,3.434,12.404,5.846c14.08,8.815,24.025,23.53,25.827,40.992c1.607,15.571-3.571,30.325-13.207,41.496
			c-0.457,0.53-0.925,1.053-1.402,1.566c-0.189,0.203-0.38,0.405-0.573,0.606c-0.184,0.192-0.369,0.384-0.555,0.574
			c-0.253,0.258-0.509,0.513-0.767,0.766c-0.304,0.297-0.61,0.59-0.921,0.88c-0.879,0.823-1.785,1.621-2.718,2.39
			c-3.346,2.761-7.027,5.166-10.987,7.146c-6.189,3.094-13.058,5.15-20.385,5.906c-31.609,3.26-59.793-18.912-62.951-49.524
			c-0.552-5.351-0.302-10.608,0.655-15.654c0.008-0.051,0.018-0.101,0.028-0.148"/>
	</g>
	<g>
		<path d="M595.013,335.562c0.316-0.229,0.646-0.421,0.988-0.565c0.192-0.104,0.385-0.207,0.578-0.309
			c0.201-0.156,0.398-0.315,0.613-0.455c-0.006-0.049-0.006-0.099-0.016-0.148c-11.23,3.623-17.505,11.798-22.877,22.173
			c-2.475,4.779-4.503,9.754-6.728,14.65c-1.919,4.224-3.871,8.491-4.8,13.035c0.187-0.122,0.357-0.291,0.496-0.524
			c4.654-7.824,8.391-16.132,12.594-24.197c2-3.838,4.178-7.574,6.574-11.179c2.385-3.592,6.378-9.774,11.031-11.496
			C593.972,336.199,594.487,335.874,595.013,335.562z"/>
		<path d="M851.71,292.207c-1.584-0.025-3.825-0.16-4.744-1.658c-0.933-1.104-0.801-3.141-0.31-4.572
			c-2.423-0.252-4.604-0.207-7.14,0.57c-1.502,0.461-2.851,0.432-4.266-0.245c-0.172-0.081-0.28-0.202-0.364-0.333
			c-0.281,0.18-0.514,0.432-0.634,0.714c-0.367,0.86,0.087,1.631,0.826,2.062c0.493,0.287,1.025,0.504,1.573,0.63
			c-0.008,0.075-0.001,0.151,0.001,0.228c-0.891-0.014-1.423,0.667-1.515,1.397c5.347,3.124,12.57,3.547,18.314,1.187
			C852.852,292.211,852.263,292.215,851.71,292.207z M840.044,289.52c0.23-0.365,0.455-0.734,0.651-1.12
			c0.038-0.076,0.062-0.155,0.085-0.235c1.143-0.346,2.291-0.294,3.461-0.154c-0.432,1.197-0.285,2.284,0.205,3.234
			C842.825,290.94,841.28,290.35,840.044,289.52z"/>
		<path d="M868.544,317.615c-0.257-1.525-0.629-3.038-1.098-4.534c-0.856-2.07-1.623-4.195-2.429-6.291
			c-1.22-2.737-2.567-5.403-3.798-7.981c-2.882-6.041-4.654-12.137-5.959-18.519c-2.07-5.925-4.316-14.177-3.101-18.211
			c0.571-3.354,1.938-6.647,1.793-10.112c-0.053-1.25-1.278-1.874-2.362-1.355c-2.753,1.317-5.139,3.174-7.553,5
			c-0.021-0.084-0.058-0.159-0.084-0.24c-0.664,0.673-1.396,1.266-2.226,1.82c-0.057,0.038-0.113,0.062-0.17,0.092
			c-0.737,0.59-1.516,1.083-2.362,1.429c0.555-5.091-2.497-10.545-6.166-13.848c-1.795-1.617-3.945-2.688-6.24-3.364
			c-3.948-2.146-8.454-3.579-12.755-2.686c-1.164,0.242-1.472,1.271-1.194,2.152c-0.037,0.757,0.312,1.557,1.194,1.906
			c3.805,1.508,6.742,5.9,8.188,9.981c-1.03-0.375-2.065-0.742-3.104-1.1c-1.067-0.628-2.08-1.249-2.958-1.617
			c-1.907-0.801-3.85-1.495-5.822-2.093c-0.72-0.332-1.442-0.655-2.175-0.951c-5.183-2.09-10.426-4.227-16.032-4.835
			c-6.068-0.658-16.72-2.037-21.336,3.007c-0.22,0.24-0.338,0.5-0.391,0.759c-0.231,0.179-0.396,0.403-0.49,0.654
			c-0.031,0.017-0.062,0.033-0.094,0.049c-0.01,0.005-0.021,0.007-0.03,0.012c-0.036,0.03-0.075,0.058-0.113,0.086
			c8.709-1.767,21.696,1.271,26.588,9.39l0.008,0.013c0.082,0.138,0.168,0.273,0.246,0.414c0.142,0.25,0.279,0.507,0.405,0.786
			c0.787,1.735-1.197,3.287-2.455,2.541c-0.03,0.038-0.051,0.082-0.082,0.117c-0.033-0.013-0.065-0.024-0.098-0.037
			c-6.916-4.87-15.969-7.745-24.258-6.369c-5.303,0.88-10.329,2.564-15.265,4.661c-1.13,0.479-2.507,0.906-3.853,1.427
			c-0.333,0.029-0.602,0.149-0.807,0.331c-1.402,0.603-2.705,1.349-3.566,2.441c3.61,0.152,7.792,1.704,10.266,2.293
			c5.954,1.418,16.047-0.679,20.702,4.341c0.848,0.914,0.579,2.119-0.363,2.817c-0.902,0.668-1.827,0.966-2.81,1.229
			c-0.061,0.038-0.109,0.083-0.18,0.116c-7.035,3.294-14.649,5.23-22.364,6.071c-3.13,0.341-6.995,1.65-10.547,1.708
			c-6.676,1.084-13.545,1.069-20.27,1.573c-1.312,0.098-2.146,1.662-1.11,2.679c3.529,3.466,7.8,5.552,12.473,6.721
			c0.182,0.002,0.372,0.024,0.577,0.095c0.18,0.062,0.361,0.108,0.543,0.167c1.73,0.375,3.513,0.634,5.328,0.795
			c-0.182,0.053-0.364,0.101-0.547,0.149c6.308,0.783,12.673-0.775,18.846-3c-0.913,0.906-1.757,1.84-2.517,2.551
			c-1.994,1.867-4.255,3.436-6.543,4.917c-1.765,1.144-3.807,1.804-5.561,2.921c-1.589,0.359-3.188,0.686-4.812,0.938
			c-1.156,0.18-2.44,0.401-3.787,0.612c-3.192,0.672-6.427,1.115-9.703,1.168c-4.938,0.078-9.912-0.393-14.85-0.188
			c-0.052,0.002-0.104,0.003-0.156,0.005c-1.456,0.064-2.907,0.204-4.354,0.42c-0.697,0.531-0.869,1.615-0.185,2.359
			c2.7,2.938,6.195,4.663,9.988,5.679c1.727,0.945,3.522,1.791,5.646,2.276c1.967,0.45,3.975,0.599,5.986,0.546
			c-0.413,0.162-0.827,0.324-1.244,0.475c-1.729,0.625-3.496,1.496-5.31,2.158c-1.23,0.315-2.471,0.589-3.713,0.722
			c-1.158,0.468-2.394,0.569-3.657,0.743c-0.358,0.068-0.724,0.119-1.104,0.133c-0.078,0.004-0.147-0.006-0.22-0.012
			c-7.236,1.771-14.719,2.709-22.494,2.473c-14.631-0.445-28.843-4.857-43.314-6.66c-1.99-0.248-3.894-0.158-5.741,0.137
			c-0.083,0.04-0.165,0.082-0.26,0.111c-3.201,1.018-6.43,2.041-9.578,3.252c-4.013,0.529-7.738,3.014-11.481,4.473
			c-2.175,0.848-4.155,1.854-5.847,3.274c-5.767-7.804-18.594-4.956-25.295-0.264c-9.339,6.538-14.986,17.702-19.976,27.608
			c-5.162,10.248-10.023,20.606-14.874,30.996c-0.279,0.726-0.556,1.451-0.845,2.172c-0.073,0.116-0.153,0.236-0.229,0.354
			c-0.063,0.174-0.14,0.344-0.21,0.516c-0.036,0.097-0.078,0.191-0.116,0.286c-0.046,0.104-0.091,0.21-0.138,0.313
			c-0.508,1.172-1.188,2.273-1.997,3.299c-2.163,2.849-5.166,5.17-8.329,6.47c-0.027,0.013-0.055,0.028-0.083,0.042
			c-5.427,2.602-10.451,3.766-15.356,0.283c-0.091,0.095-0.159,0.208-0.216,0.328c0.812,2.945,3.206,6.035,4.934,7.839
			c2.328,2.431,4.875,4.236,8.075,5.207c0.503,0.048,1.006,0.091,1.498,0.119c1.675,0.004,3.359-0.182,5.028-0.44
			c-0.111,0.157-0.221,0.318-0.335,0.471c-1.513,1.299-2.987,2.482-4.139,3.48c-1.432,1.243-3.041,2.445-4.749,3.463
			c-0.441,0.472-0.948,0.899-1.489,1.293c-1.565,0.878-3.15,1.716-4.764,2.534c-0.024,0.012-0.052,0.022-0.076,0.033
			c-2.572,1.091-5.136,1.838-7.785,2.044c2.833,1.195,5.499,2.681,8.556,3.435c3.483,0.86,7.135,0.499,10.592-0.26
			c8.318-1.826,15.138-8.026,21.14-13.677c3.244-3.054,6.391-6.098,9.196-9.457c2.382-3.089,4.596-6.32,6.914-9.566
			c0.666-1.062,1.251-2.151,1.579-3.158c1.683-3.424,3.227-6.91,4.459-10.514c1.39-4.063,2.066-8.398,3.435-12.443
			c0.023,6.146,0.746,12.349,1.051,18.515c0.355,7.197-0.84,13.916-4.416,20.218c-3.078,5.422-7.988,9.605-10.598,15.297
			c-1.834,4.002-1.772,8.711-2.36,12.99c-0.955,6.951-4.023,13.489-7.257,19.634c-2.022,3.844-5.498,8.363-5.597,12.901
			c-0.11,5.102,4.547,9.157,3.179,14.15c-0.927,3.384-2.764,6.428,0.119,9.299c2.455,2.443,6.798,3.118,10.057,2.555
			c5.972-1.033,5.597-11.686,0.314-13.533c0.335-0.792,0.57-1.656,0.683-2.604c0.458-3.885-0.256-7.669-0.437-11.548
			c-0.208-4.461,1.57-9.161,3.016-13.318c1.59-4.571,3.286-9.11,6.8-12.545c2.329-2.278,4.999-3.978,7.202-6.425
			c1.685-1.871,2.719-4.109,3.524-6.48c0.059-0.038,0.108-0.091,0.161-0.139c0.232-0.684,0.458-1.368,0.65-2.062
			c-0.016-0.086-0.029-0.172-0.053-0.256c1.047-3.688,1.877-7.507,3.906-10.672c7.224-11.272,19.147-18.562,28.772-27.715
			c0.146,0.118,0.32,0.22,0.531,0.286c0.584,0.186,1.158,0.436,1.729,0.716c0.066,0.026,0.131,0.064,0.196,0.102
			c0.287,0.146,0.576,0.284,0.859,0.449c0.241,0.069,0.478,0.208,0.698,0.431c0.213,0.139,0.426,0.271,0.636,0.421
			c-0.022,0.033-0.04,0.068-0.059,0.103c3.159,1.104,5.841,5.048,7.626,7.406c3.618,4.782,4.732,9.326,3.429,15.167
			c-0.009,0.745-0.064,1.496-0.184,2.257c-0.172,1.096-0.409,2.174-0.669,3.247c0.189,0.188,0.27,0.465,0.127,0.805
			c-0.482,1.148-0.919,2.326-1.332,3.517c-0.331,1.064-0.671,2.126-1.013,3.188c-0.851,3-1.45,6.084-1.755,9.18
			c0.09-0.278,0.176-0.558,0.272-0.835c-0.128,0.602-0.243,1.204-0.354,1.809c-1.072,3.228-1.734,6.584-2.466,9.905
			c-0.004,0.018-0.003,0.033-0.007,0.051c-0.479,0.476-0.673,1.28-0.096,1.931c5.711,6.44,8.809,14.631,13.368,21.853
			c-0.13,0.514,0.007,1.093,0.583,1.454c1.138,0.714,2.219,1.499,3.271,2.317c2.153,1.076,4.114,2.6,6.193,4.082
			c1.659,1.182,3.053,2.53,4.338,3.957c0.855,0.594,1.604,1.347,2.374,2.064c0.748,0.205,1.473,0.468,2.272,0.63
			c0.423,0.087,0.828,0.096,1.226,0.069c1.668-1.223,3.515-2.188,5.294-3.25c0.55-0.572,1.083-1.161,1.594-1.766
			c-0.004-0.079-0.002-0.16-0.019-0.238c0.369-0.475,0.632-1.014,0.648-1.639c0.029-1.125-1.007-1.811-1.984-2.022
			c-1.324-0.288-2.67-0.155-4.01-0.057c-0.429-0.35-0.842-0.716-1.225-1.114c-0.043,0.034-0.088,0.063-0.123,0.107
			c-0.282-0.265-0.554-0.53-0.817-0.794c-1.068-0.784-1.925-1.797-2.74-2.855c-1.214-0.97-2.976-2.336-3.538-3.64
			c-0.269-0.223-0.527-0.458-0.762-0.727c-2.239-2.573-3.777-5.597-5.831-8.301c-4.14-5.449-8.23-11.715-8.017-18.872
			c0.275-9.21,4.669-17.065,8.979-24.967c0.571-1.953,1.308-3.86,2.151-5.76c2.258-5.088,4.07-10.26,6.012-15.466
			c0.107-0.289,0.313-0.459,0.546-0.543c0.016-0.188,0.008-0.366-0.043-0.526l0.135-0.315c9.283,4.498,19.69,6.595,29.827,7.952
			c10.187,1.365,20.119,1.839,30.281,0.258c4.354-0.677,8.706-1.353,13.087-1.831c0.719-0.078,2.004-0.307,3.402-0.48
			c1.421-0.327,2.892-0.458,4.225-0.292c0.118-0.009,0.236-0.021,0.356-0.022c0.757-0.018,1.464,0.288,2.021,0.772
			c0.216,0.119,0.422,0.249,0.614,0.397c0.126-0.023,0.25-0.056,0.366-0.113c3.148,5.532,6.775,10.833,10.76,16.144
			c5.375,7.163,10.65,14.235,14.917,21.912c-0.106,0.044-0.197,0.115-0.292,0.179c0.435,0.586,0.745,1.247,0.853,1.998
			c0.239,1.683-0.079,3.162-0.793,4.477c-0.533,1.875-1.531,3.653-2.8,5.334c-2.157,2.858-5.74,5.154-7.161,8.477
			c-2.271,5.304-3.923,10.229-9.546,10.339c-0.026,0.054-0.057,0.104-0.075,0.166c0.001-0.055,0.002-0.107,0.003-0.161
			c-0.008,0-0.014,0.002-0.021,0.002c-1.047,1.031-2.182,2.055-2.229,3.665c-0.109,3.674,0.707,9.683,3.815,12.17
			c3.237,2.592,4.35,0.594,4.905-2.001c-0.125-0.733-0.004-1.479,0.354-2.115c0.111-0.799,0.211-1.555,0.34-2.157
			c0.642-2.985,3.35-5.947,6.012-8.223c4.209-5.045,9.815-9.325,13.944-14.413c1.777,6.412,2.939,13.004,4.334,19.5
			c0.169,0.788,0.382,1.556,0.617,2.312c0.143,0.243,0.285,0.486,0.426,0.718c1.513,2.494,3.816,4.832,4.775,7.614
			c0.436,1.263,0.719,2.551,0.957,3.848c1.229,2.515,2.354,5.097,3.327,7.813c0.643,1.79,1.744,4.115,3.396,4.676
			c2.626-1.968,5.61-3.737,7.522-6.461c0.073-0.104,0.161-0.179,0.253-0.238c0.059-0.36,0.109-0.721,0.156-1.081
			c-0.807-0.6-1.688-1.079-2.446-1.7c-0.398-0.085-0.784-0.252-1.132-0.526c0.036-0.215,0.052-0.44,0.055-0.672
			c-0.008-0.012-0.018-0.021-0.025-0.033c-0.177-0.293-0.154-0.57-0.036-0.802c-0.112-0.73-0.38-1.537-0.844-2.434
			c-0.769-1.483-1.545-2.755-2.251-4.029c-0.386-0.784-0.775-1.568-1.166-2.353c-0.445-1.036-0.823-2.142-1.076-3.428
			c-0.104-0.528-0.203-1.078-0.307-1.633c-0.243-0.467-0.499-0.93-0.784-1.377c-1.333-2.09-2.425-4.04-2.566-6.293
			c-0.629-2.421-1.166-4.863-1.622-7.288c-1.149-6.111-1.065-12.38-1.751-18.521c-1.101-2.449-1.976-5.021-2.855-7.522
			c-1.893-5.379-2.933-11.521-3.371-17.213c-0.206-2.691,0.169-5.464-0.104-8.125c-0.118-1.165-0.355-2.369-0.466-3.569
			c-0.74-1.466-0.675-3.148-0.032-4.62c1.009-4.673,3.39-9.001,5.857-13.044c0.123-0.2,0.19-0.397,0.23-0.59
			c1.281-2.155,2.397-4.397,3.299-6.74c-0.003-0.075,0-0.152-0.003-0.228c0.608-1.482,1.125-3.036,1.562-4.622
			c0.05-0.193,0.104-0.385,0.151-0.579c1.271-4.897,1.713-10.086,1.197-14.623c-0.103-0.901-0.271-1.787-0.468-2.667
			c0.049-0.088,0.101-0.175,0.15-0.263c-0.176-3.292,4.406-8.666,5.562-10.261c2.295-3.168,4.517-6.556,6.592-10.068
			c1.839-3.241,3.565-6.581,4.912-10.032c0.34-0.873,0.649-1.803,0.962-2.743c0.765-4.642,2.301-9.343,6.475-11.918
			c3.208-1.979,6.131-0.39,8.86,1.997c1.385,0.74,2.711,1.598,3.766,2.739c0.878,0.95,1.869,1.659,2.886,2.337
			c0.209,0.089,0.412,0.182,0.623,0.268c1.917,0.775,3.655,1.637,5.122,3.004c1.419,0.686,2.673,1.854,3.765,3.246
			c2.237,2.854,2.831,8.031,5.575,10.277c1.091,0.893,2.158,0.977,3.234,0.756c1.276-0.664,2.587-1.334,3.098-2.907
			c0.173-0.534,0.807-0.856,1.317-0.536c5.6,3.515,9.246-4.188,10.104-8.383C868.892,321.774,868.726,319.724,868.544,317.615z
			 M720.532,310.38c-1.946-0.479-3.714-1.596-5.504-2.687c0.928-0.062,1.86-0.193,2.771-0.318c1.21,0.097,2.423,0.194,3.647,0.264
			c3.853,0.221,7.736-0.292,11.525-0.938c3.431-0.584,6.835-1.49,10.164-2.637c0.021-0.012,0.035-0.026,0.058-0.038
			c2.854-1.508,5.497-3.328,7.918-5.418c0.135-0.117,0.27-0.234,0.403-0.351c1.011-0.894,1.98-1.838,2.91-2.827
			c-0.088,0.049-0.174,0.099-0.261,0.148c0.256-0.217,0.52-0.465,0.789-0.729c0.203-0.224,0.411-0.441,0.61-0.67
			c2.148-2.466,4.247-4.949,6.826-6.879c-0.167-0.086-0.363-0.125-0.59-0.082c-0.568,0.105-1.124,0.33-1.667,0.631
			c-0.936,0.095-1.869,0.199-2.804,0.307c-3.401,0.488-6.821,0.855-10.24,1.123c-4.95,0.387-9.665,0.781-14.467-0.129
			c-1.917-0.591-4.126-0.867-5.688-2.156c-0.444-0.365-0.822-0.803-1.204-1.236c1.209,0.117,2.485,0.483,3.655,0.561
			c3.107,0.204,6.351-0.004,9.457-0.193c5.524-0.336,11.054-1.792,16.484-2.795c6.8-1.255,14.913-2.496,21.786-5.456
			c2.897-2.226,5.845-4.103,6.153-8.172c-2.016-4.059-5.377-7.191-9.973-8.416c-3.067-0.818-6.7-0.642-9.835-0.598
			c-0.091,0.001-0.18-0.003-0.27-0.003c0.112-0.152,0.211-0.322,0.28-0.529c0.019-0.055,0.053-0.101,0.078-0.152
			c0.74-0.139,1.475-0.284,2.196-0.455c1.247-0.296,2.647-0.611,4.114-0.9c0.363,0.009,0.681,0.018,0.91,0.017
			c4.482-0.027,8.722-0.552,12.982,1.312c0.158,0.069,0.313,0.144,0.471,0.215c0.495,0.185,0.982,0.384,1.459,0.6
			c0.614,0.191,1.202,0.478,1.801,0.764c0.177-0.043,0.369-0.046,0.573,0.04c3.589,1.528,7.685,2.607,11.585,1.862
			c1.736-0.333,3.437-0.694,5.166-0.906c-0.03-0.233-0.108-0.459-0.231-0.665c-0.004-0.04,0.001-0.073-0.004-0.114
			c-0.061-0.479-0.292-0.841-0.602-1.091c-0.006-0.239-0.064-0.491-0.211-0.748c-1.387-2.445-2.751-4.859-4.6-6.994
			c-0.167-0.193-0.349-0.375-0.528-0.56c-1.187-1.523-2.542-2.892-4.25-4.049c-0.343-0.233-0.705-0.44-1.073-0.638
			c2.087,0.569,4.148,1.24,6.175,1.982c2.125,1.504,5.609,1.963,7.688,2.447c6.062,1.41,11.945,3.374,17.778,5.549
			c1.096,0.408,2.293-0.637,2.271-1.73c-0.077-4.047-1.934-6.698-4.157-9.936c-0.595-0.867-1.326-2.135-2.206-3.232
			c2.706,0.852,5.32,2.375,7.401,3.804c4.637,3.183,6.055,7.534,6.138,12.952c0.006,0.377,0.113,0.686,0.276,0.94
			c-2.585,0.194-5.093-0.707-7.832-0.848c-1.019,0.164-2.164,0.165-3.354,0.062c-0.141,0.008-0.283,0.012-0.424,0.022
			c-0.052,0.019-0.095,0.044-0.149,0.06c-1.962,0.552-3.923,1.099-5.882,1.655c-1.234,0.469-2.468,0.941-3.688,1.449
			c-1.043,0.415-2.075,0.858-3.089,1.307c-1.391,0.566-2.763,1.198-4.125,1.889c-5.671,2.694-10.958,6.132-16.204,9.628
			c-0.361,0.337-0.741,0.65-1.128,0.956c-3.826,3.719-7.678,7.413-11.817,10.771c-0.343,0.278-0.697,0.547-1.044,0.82
			c0.027-0.016,0.055-0.033,0.082-0.049c0.085-0.051,0.168-0.104,0.252-0.154c-0.941,0.998-1.852,2.023-2.751,3.057
			c-1.431,2.297-2.801,4.631-4.1,7.014c-1.389,2.552-2.701,4.973-4.657,6.977c0.028,0.024,0.054,0.051,0.083,0.072
			c-0.519,0.518-1.047,1.026-1.599,1.517c-0.119,0.105-0.247,0.192-0.368,0.294c-0.175,0.021-0.353,0.065-0.534,0.153
			c-4.955,2.413-10.274,2.521-15.635,2.492c-2.492,0.496-5.032,0.818-7.646,0.956c-0.06,0.013-0.119,0.024-0.179,0.037
			c-2.918-0.106-6.277,0.466-8.462,0.537C727.214,311.248,723.649,311.148,720.532,310.38z M587.131,360.667
			c-2.766,4.021-4.081,8.628-5.27,13.402c-1.508,6.061-3.807,11.659-6.505,17.189c0.061,0.081,0.101,0.176,0.13,0.277
			c-0.012,0.035-0.021,0.072-0.033,0.108c-0.303,0.559-0.618,1.112-0.934,1.662c-0.938,1.633-1.944,3.226-2.964,4.809
			c-0.324,0.397-0.644,0.792-0.946,1.183c-3.258,4.203-6.889,7.81-10.839,11.347c-6.7,5.998-17.174,14.261-26.954,12.343
			c2.465-1.329,4.88-2.722,7.296-4.314c3.454-2.278,5.536-4.823,7.491-8.104c0.389-0.661,0.767-1.332,1.13-2.014
			c0.061-0.144,0.104-0.286,0.113-0.423c0.126-0.163,0.242-0.334,0.365-0.5c0.351-0.681,0.689-1.369,1.028-2.058
			c-5.092,3.433-12.094,4.994-17.18,1.614c-0.162-0.062-0.324-0.12-0.484-0.188c-0.026-0.082-0.071-0.164-0.121-0.244
			c-0.32-0.246-0.635-0.507-0.938-0.798c-0.094-0.091-0.154-0.189-0.199-0.289c-0.99-0.953-1.827-2.048-2.512-3.235
			c1.832,0.769,3.724,0.95,5.619,0.698c5.011-1.076,8.797-3.971,12.61-7.309c2.832-2.478,4.777-5.184,6.797-8.062
			c0.028-0.046,0.059-0.094,0.088-0.141c0.007-0.005,0.015-0.01,0.021-0.015c0.09-0.127,0.181-0.256,0.27-0.384
			c0.041-0.088,0.08-0.176,0.12-0.263c0.058-0.093,0.115-0.186,0.173-0.278c0.117-0.188,0.182-0.372,0.204-0.55
			c3.549-7.749,6.942-15.567,10.787-22.983c4.709-9.084,8.865-18.426,14.993-26.688c3.355-4.525,7.533-8.467,12.637-10.917
			c4.528-2.175,13.613-2.446,16.766,2.263c0.034,0.051,0.074,0.09,0.11,0.135c-0.673,0.615-1.343,1.229-2.002,1.811
			c-3.686,3.253-7.838,5.764-11.227,9.367c-3.399,3.615-5.744,8.053-7.476,12.663C588.196,354.713,587.521,357.679,587.131,360.667z
			 M572.045,486.745c0.651,6.08-8.581,5.54-9.331,0.812c0.099-0.037,0.2-0.08,0.305-0.127c1.973-0.811,3.872-1.82,5.41-3.156
			C570.221,483.512,571.717,483.688,572.045,486.745z M671.982,476.48c0.533,0.182,0.915,0.954,0.472,1.416
			c-0.038,0.144-0.11,0.276-0.226,0.381c-1.854,1.67-4.104,3.695-6.773,3.119c-0.074,0.054-0.149,0.105-0.224,0.16
			c-0.089-0.04-0.172-0.086-0.256-0.136c0.001-0.006-0.057-0.053-0.107-0.095c-0.003-0.008-0.002-0.008-0.01-0.019
			c0.001-0.028-0.006-0.056-0.007-0.083c-0.627-0.107-0.896-0.937-0.535-1.434c0.019-0.251,0.135-0.5,0.396-0.68
			c0.383-0.264,0.744-0.548,1.104-0.829C667.134,476.323,669.712,475.701,671.982,476.48z M660.834,389.984
			c-0.042,0.1-0.104,0.242-0.171,0.396c-0.066,0.065-0.124,0.143-0.181,0.223c-0.019,0.194-0.098,0.386-0.259,0.543
			c-0.063,0.195-0.127,0.39-0.191,0.585c-0.023,0.046-0.045,0.094-0.069,0.138c-0.054,0.1-0.111,0.195-0.17,0.292
			c-0.008,0.013-0.01,0.018-0.016,0.027c-0.047,0.053-0.076,0.11-0.112,0.166c0.016,0.166-0.023,0.346-0.153,0.529
			c-0.022,0.031-0.039,0.066-0.061,0.099c-0.008,0.14-0.001,0.279,0.035,0.411c-3.277,9.994-6.485,19.715-11.476,29.082
			c-4.662,8.75-6.42,16.341-2.299,25.704c3.856,8.762,10.846,18.036,18.652,23.717c0.705,0.904,1.455,1.784,2.238,2.63
			c-1.559,0.812-3.932,2.714-4.905,4.606c-3.635-3.741-7.304-7.448-11.622-10.385c-0.016-0.027-0.025-0.054-0.043-0.081
			c-2.995-4.494-5.345-9.394-8.012-14.084c-0.537-0.738-1.081-1.475-1.67-2.182c-1.558-1.871-3.138-3.831-3.894-6.153
			c-0.089-0.106-0.175-0.214-0.263-0.32c0.026-0.069,0.053-0.139,0.07-0.218c0.007-0.029,0.013-0.058,0.019-0.086
			c-0.011-0.029-0.012-0.062-0.021-0.091c-0.02-0.081-0.048-0.159-0.065-0.241c-0.003-0.013,0.001-0.022,0-0.034
			c-0.252-1.321,0.595-3.071,0.698-4.237c0.093-1.039,0.194-2.055,0.336-3.066c0.379-5.101,1.783-10.211,3.67-14.927
			c-0.043-0.031-0.08-0.07-0.128-0.097c1.19-3.058,2.094-6.17,2.097-9.473c1.626-5.672,0.493-11.299-2.532-16.473
			c-2.01-3.438-4.803-7.219-8.189-9.9c3.546-1.125,7.056-2.391,10.683-3.193c6.137-1.357,11.629,1.742,16.75,4.728
			c0.481,0.281,0.978,0.537,1.468,0.801C660.976,389.619,660.906,389.812,660.834,389.984z M758.62,479.159
			c-0.168,0.453-0.112,0.924,0.082,1.319c-0.019-0.002-0.034-0.007-0.053-0.008c-0.363-0.019-0.697-0.08-1.013-0.167
			c-0.156-0.022-0.311-0.07-0.447-0.163c-3.757-1.524-3.814-8.133-3.732-12.362c0.283,1.489,0.774,3.224,1.846,4.358
			c0.649,0.688,1.797,1.426,2.741,2.269c0.146,0.075,0.268,0.184,0.354,0.332c0.1,0.099,0.2,0.196,0.291,0.299
			c-0.034,0.105-0.061,0.214-0.093,0.32c0.277,1.248,0.153,2.496-0.022,3.757C758.591,479.127,758.603,479.146,758.62,479.159z
			 M759.922,472.007c-1.242-1.078-4.439-4.301-3.109-4.596c1.952-0.431,3.362-0.929,4.905-2.235
			c1.682-1.426,1.827-3.745,1.865-5.784c0.073-3.93,4.479-5.45,6.839-8.272c2.72-3.25,5.028-6.981,5.304-11.094
			c1.445,2.999,2.713,6.11,3.769,9.358C773.932,457.537,764.293,463.175,759.922,472.007z M802.56,492.521
			c0.859-0.25,1.722-0.407,2.616-0.421c0.062-0.001,0.358,0.071,0.481,0.076c-0.71,1.399-2.368,2.51-3.566,3.417
			c-0.952,0.72-1.947,1.388-2.904,2.103c-0.369,0.062-0.739,0.07-1.095,0.003c-0.321-0.061-0.574-0.194-0.773-0.375
			c-0.037-0.132-0.091-0.267-0.183-0.402c-0.138-0.206-0.266-0.419-0.388-0.635c-0.101-0.399-0.134-0.839-0.136-1.263
			c0.364-0.018,0.735-0.144,1.079-0.416C799.027,493.551,800.955,492.988,802.56,492.521z M866.374,326.436
			c-0.086,0.806-0.731,1.646-1.205,2.235c-0.534,0.664-1.212,1.089-2.033,1.215c-2.215,1.45-4.896,2.003-5.889-1.073
			c-0.09-0.136-0.15-0.298-0.129-0.515c0.014-0.131-0.004-0.254-0.011-0.379c-0.156-0.401-0.336-0.787-0.571-1.128
			c-0.655-0.948-1.462-1.761-2.22-2.624c-0.527-0.602-1.088-1.234-1.504-1.932c-0.192,0.4-0.231,0.883,0.01,1.385
			c1.106,2.311,2.777,3.773,2.904,6.49c0.029,0.627-0.054,1.359-0.277,2.037c-0.022,0.048-0.042,0.096-0.058,0.145
			c-0.373,1.007-1.074,1.863-2.266,1.995c-2.428,0.267-3.083-2.114-3.541-3.709c-1.155-4.038-1.271-7.759-4.939-10.465
			c-3.032-2.238-6.609-3.406-9.933-5.091c-1.09-1.055-2.39-1.696-3.757-2.407c-0.182-0.095-0.354-0.199-0.527-0.306
			c-0.726-0.555-1.463-1.133-2.221-1.674c-0.737-0.619-1.474-1.24-2.29-1.746c-2.326-1.438-5.336-0.636-7.901,0.488
			c0.43-1.393,0.896-2.773,1.375-4.151c0.43-2.568,1.412-4.928,2.154-7.414c0.68-2.276,1.224-4.594,2.081-6.812
			c-0.001-0.001-0.002-0.003-0.003-0.004c-2.811,6.465-5.348,13.029-8.56,19.317c-1.702,7.121-5.45,13.574-8.333,20.328
			c-3.122,7.317-6.213,14.696-11.917,20.415c-0.026,0.027-0.055,0.045-0.082,0.067c-0.022,0.026-0.038,0.06-0.067,0.083
			c-0.017,0.013-0.034,0.026-0.052,0.04c-0.16,0.124-0.353,0.208-0.548,0.235c-0.262,0.612-1.085,0.848-1.557,0.141
			c-4.338-6.508-5.329-13.216-5.226-20.863c-0.718,0.081-1.417,0.573-1.5,1.486c-0.771,8.403,3.879,15.764,6.199,23.563
			c0.033,0.108,0.055,0.224,0.085,0.332c-0.043,0.079-0.086,0.157-0.129,0.235c1.415,4.101,1.488,8.317,0.825,12.53
			c0.374,6.471-1.656,13.515-6.937,17.237c-0.35,0.477-0.706,0.952-1.088,1.412c-1.274,2.267-2.426,4.598-3.328,7.016
			c0.006-0.297,0.011-0.594,0.033-0.887c-1.027-2.58-2.476-4.964-4.346-7.268c-5.099-6.277-13.787-11.537-13.74-20.535
			c0.011-2.025-3.129-2.023-3.14,0c-0.035,6.736,4.233,11.896,8.691,16.513c4.228,4.379,8.131,8.238,10.046,13.748
			c2.088,2.611,2.04,7.615,2.101,10.458c0.023,1.037,0.001,2.089-0.033,3.144c0.415,5.102,0.758,10.213,1.882,15.285
			c0.437,1.969,0.923,3.882,1.382,5.791c0.354,0.553,0.62,1.132,0.802,1.731c-0.005-0.029-0.01-0.06-0.015-0.089
			c0.883,2.619,1.423,5.308,1.793,8.032c2.212,8.793,3.417,17.897,5.745,26.621c-0.095,0.059-0.18,0.13-0.259,0.208
			c1.463,3.107,2.631,6.12,3.745,9.51c1.327,4.041,3.436,7.748,4.776,11.782c0.227,0.68-0.348,1.115-0.905,1.094
			c-1.004,1.279-3.928,1.706-4.87,1.833c-0.581-2.664-0.902-5.471-1.901-7.919c-1.21-2.963-2.295-6.228-4.346-8.727
			c-0.127-0.156-0.267-0.264-0.41-0.339c-2.899-8.968-4.162-18.432-6.233-27.659c-0.126-0.027-0.253-0.049-0.381-0.045
			c-3.71-10.285-9.189-19.5-15.878-28.537c-8.298-11.209-17.13-22.081-21.947-35.35c-1.258-3.465-2.159-7.07-3.178-10.611
			c-1.191-4.151-2.941-8.137-3.956-12.326c-2.174-8.966,1.177-18.554,2.663-27.368c0.334-1.979-2.69-2.828-3.027-0.834
			c-1.258,7.458-3.289,14.798-3.383,22.402c-0.096,7.641,3.52,14.88,5.576,22.107c1.764,6.201,4.123,11.912,6.957,17.359
			c-1.232-0.239-2.568-0.197-3.737-0.181c-4.228,0.06-8.467,0.729-12.645,1.326c-10.63,1.521-20.443,2.407-31.253,1.229
			c-7.023-0.767-13.994-1.947-20.828-3.746c-7.269-1.913-13.594-5.214-20.15-8.762c-4.25-2.299-8.854-3.56-13.679-2.926
			c-5.023,0.66-9.858,2.826-14.72,4.221c-0.283-0.136-0.567-0.267-0.856-0.384c0.596-0.618,1.186-1.243,1.756-1.884
			c8.073-9.05,9.528-21.155,9.585-32.854c0.01-2.025-3.13-2.023-3.14,0c-0.026,5.38-0.474,10.762-1.501,16.045
			c-1.366,7.029-4.979,12.499-9.94,17.554c-9.675,9.857-21.324,17.323-29.794,28.446c-2.889,3.793-3.858,8.129-5.141,12.428
			c-0.17,0.253-0.251,0.537-0.254,0.824c-0.531,1.714-1.133,3.416-1.952,5.069c-2.956,5.967-10.004,8.2-12.86,14.481
			c-2.911,6.398-5.626,13.324-6.249,20.373c-0.296,3.352,0.523,6.796,0.637,10.146c0.089,2.626-0.638,4.588-1.968,6.118
			c-1.205,0.708-2.349,1.707-3.506,2.47c0.727-2.399,1.152-4.63,0.043-7.186c-0.776-1.79-1.837-3.431-2.528-5.26
			c-1.098-2.906,0.38-5.979,1.64-8.54c4.269-8.677,9.063-16.579,10.77-26.271c0.684-3.88,0.639-7.838,1.823-11.625
			c1.588-5.077,6.207-9.11,9.215-13.4c9.829-14.016,4.957-30.277,5.656-46.037c-0.062-0.18-0.106-0.376-0.108-0.6
			c-0.02-2.399-0.169-4.646,0.844-6.885c0.04-0.087,0.093-0.162,0.148-0.235c0.254-1.284,0.564-2.561,0.952-3.829
			c2.861-9.35,9.278-14.445,16.516-20.324c2.637-2.143,5.306-4.848,8.137-7.367c0.698-0.359,1.419-0.682,2.156-0.981
			c9.007-1.983,16.712-8.235,26.46-7.481c15.154,1.17,29.679,6.244,44.976,6.709c8.551,0.26,16.841-0.971,24.854-3.244
			c3.078-0.025,6.003-1.117,8.895-2.311c2.089-0.861,4.194-1.63,6.325-2.375c1.76-0.613,3.397-1.498,5.066-2.299
			c0.26-0.009,0.553-0.033,0.867-0.064c3.038-1.363,6.855-0.646,10.055-0.5c5.064,0.232,9.616-0.393,14.5-1.545
			c6.497-3.338,10.843-9.525,14.996-15.338c5.441-7.616,12.562-15.369,20.753-21.417c1.989-1.312,4.02-2.569,6.099-3.756
			c3.636-2.074,7.438-3.842,11.312-5.443c1.968-0.633,3.967-1.121,5.988-1.479c1.617-0.598,3.317-0.932,5.058-1.136
			c0.014-0.019,0.032-0.034,0.045-0.053c0.365-0.026,0.73-0.043,1.096-0.063c5.943-0.519,12.237,0.122,17.217-3.25
			c0.022-0.042,0.046-0.081,0.068-0.124c0.086-0.063,0.177-0.122,0.265-0.184c0.054-0.007,0.102-0.028,0.153-0.041
			c0.061-0.046,0.124-0.086,0.186-0.133c0.172-0.132,0.342-0.213,0.51-0.271c0.104-0.109,0.197-0.228,0.268-0.361
			c1.961-1.458,3.875-2.978,5.94-4.271c-0.336,2.563-1.142,5.026-1.562,7.557c0.006,0.022,0.016,0.04,0.021,0.063
			c1.384,6.135,1.357,12.521,3.288,18.537c0.776,2.418,1.448,4.865,2.095,7.318c0.563,1.603,1.132,3.202,1.675,4.807
			c0.069,0.136,0.115,0.282,0.146,0.435c0.081,0.243,0.166,0.485,0.245,0.729c0.59,1.582,1.205,3.156,1.886,4.708
			c2.023,4.615,4.182,9.158,5.918,13.895c0.345,0.943,0.791,2.138,1.206,3.426c0.199,0.339,0.357,0.686,0.485,1.038
			c-0.025,0-0.049,0.007-0.074,0.008c0.289,0.362,0.327,0.882-0.026,1.225c-1.384,1.341-2.146,2.735-2.566,4.318
			c-0.025,0.004-0.047,0.021-0.072,0.026c0.057,0.706,0.229,1.539,0.362,1.954c0.094,0.298,0.285,0.95,0.489,1.497
			c0.185-0.361,0.255-0.736,0.368-1.133c0.08-0.285,0.284-0.469,0.521-0.564c-0.008-0.025-0.017-0.052-0.023-0.078
			c-0.025-0.087-0.047-0.176-0.066-0.264c-0.004-0.015-0.006-0.019-0.008-0.031c0.002-0.016,0.005-0.043,0.006-0.086
			c0.014-0.601-0.416-1.113-0.968-1.282c0.216-0.881,0.599-2.062,1.31-2.595c0.201-0.346,0.593-0.486,0.999-0.422
			c0.181,0.029,0.34,0.129,0.474,0.255c0.033,0.006,0.067,0.017,0.1,0.021c0.008,0.034,0.012,0.069,0.02,0.104
			c0.127,0.172,0.203,0.381,0.182,0.597c-0.006,0.058-0.025,0.105-0.037,0.157C867.36,322.84,867.144,324.829,866.374,326.436z"/>
	</g>
	<polyline fill="none" stroke="#000000" stroke-width="4" stroke-miterlimit="10" points="483.212,402.679 552.71,384.581 
		554,383.943 	"/>
	<line fill="none" stroke="#000000" stroke-width="4" stroke-miterlimit="10" x1="486.951" y1="413.129" x2="527.834" y2="402.28"/>
	<line fill="none" stroke="#000000" stroke-width="4" stroke-miterlimit="10" x1="577.834" y1="389.417" x2="589.5" y2="385.113"/>
	<line fill="none" stroke="#000000" stroke-width="4" stroke-miterlimit="10" x1="582.667" y1="377.447" x2="588.5" y2="375.273"/>
	<path fill="none" stroke="#000000" stroke-miterlimit="10" d="M850.672,254.722c0,0-6.339,7.975-5.422,10.725"/>
	<path fill-rule="evenodd" clip-rule="evenodd" fill="none" stroke="#000000" stroke-miterlimit="10" d="M896,456.395
		c0,0-47.773,14.034-107.637-9.29"/>
	<path fill-rule="evenodd" clip-rule="evenodd" fill="none" stroke="#000000" stroke-miterlimit="10" d="M775.726,440.025
		c0,0-87.226-3.755-132.226,0"/>
	<path fill-rule="evenodd" clip-rule="evenodd" fill="none" stroke="#000000" stroke-miterlimit="10" d="M634.975,439.19
		c0,0-31.633,1.174-50.554-1.368"/>
	<path fill-rule="evenodd" clip-rule="evenodd" fill="none" stroke="#000000" stroke-miterlimit="10" d="M570.356,435.603
		c0,0-34.344-3.839-83.405-0.046"/>
	
		<line fill-rule="evenodd" clip-rule="evenodd" fill="none" stroke="#000000" stroke-miterlimit="10" x1="476.92" y1="433.883" x2="470.133" y2="433.883"/>
	<path fill-rule="evenodd" clip-rule="evenodd" fill="none" stroke="#000000" stroke-miterlimit="10" d="M458.985,433.883
		c0,0-7.275-1.674-12.308,0c0,0-9.461,0.114-18.069-0.744"/>
	<path fill-rule="evenodd" clip-rule="evenodd" fill="none" stroke="#000000" stroke-miterlimit="10" d="M354.924,426.833
		c-0.09,1.564-3.602,0.799-4.713,0.648"/>
</g>
<g id="Layer_2">
	<path fill-rule="evenodd" clip-rule="evenodd" d="M456.286,381.834c3.082-3.024,5.98-6.171,9.116-9.123
		c0.307-0.742-0.177-1.418-0.859-1.692c0.003-0.006,0.006-0.011,0.008-0.017c0.605-1.483-1.277-2.263-2.354-1.486
		c-0.64-0.596-1.758-0.71-2.325,0.269c-2.791,4.81-6.646,9.549-11.274,12.649c-1.599,1.07-0.099,3.67,1.514,2.59
		c0.406-0.272,0.796-0.569,1.189-0.861c-0.172,0.461-0.312,0.948-0.384,1.504c-0.117,0.916,0.509,1.38,1.22,1.415
		c0.478,0.772,1.496,1.155,2.196,0.252c0.25-0.322,0.493-0.65,0.739-0.977C453.724,385.486,455.225,382.876,456.286,381.834z"/>
	<path fill-rule="evenodd" clip-rule="evenodd" d="M453.271,368.73c0.07-1.448-1.593-1.807-2.474-1.088
		c-0.496,0.188-0.867,0.631-0.817,1.338c0.044,0.619-0.023,1.28-0.177,1.958c-0.395,1.045-0.996,1.99-1.66,3.009
		c-0.951,1.459-2.137,3.378-3.629,4.363c-1.206,0.796-0.663,2.456,0.368,2.785c0.537,0.353,1.277,0.44,1.908-0.055
		c1.935-1.518,3.134-3.587,4.291-5.718c0.626-1.153,1.197-2.274,1.552-3.459C452.985,370.897,453.216,369.879,453.271,368.73z"/>
</g>
<g id="Layer_3">
	<g>
		<path fill="none" stroke="#000000" stroke-width="4" stroke-miterlimit="10" d="M381.793,409.288
			c0.048-0.143,0.098-0.282,0.149-0.424c0.024-0.065,0.046-0.131,0.07-0.194c0.012-0.036,0.025-0.07,0.038-0.103
			c0.032-0.093,0.065-0.183,0.099-0.275"/>
		<path fill="none" stroke="#000000" stroke-width="4" stroke-miterlimit="10" d="M426.094,472.21
			c-27.184-1.404-48.117-23.885-46.756-50.212"/>
		<path fill="none" stroke="#000000" stroke-width="4" stroke-miterlimit="10" d="M441.902,378.623
			c21.668,5.95,37.05,25.779,35.876,48.46c-0.814,15.762-9.435,29.329-22.058,37.379c-0.48,0.307-0.966,0.604-1.457,0.895
			c-0.246,0.145-0.492,0.287-0.74,0.428c-0.306,0.174-0.615,0.344-0.926,0.512c-0.155,0.084-0.311,0.167-0.468,0.249"/>
		<path fill="none" stroke="#000000" stroke-width="4" stroke-miterlimit="10" d="M387.536,397.948
			c0.023-0.036,0.046-0.07,0.071-0.106c6.074-8.747,15.05-15.389,25.525-18.699"/>
		<path fill="none" stroke="#000000" stroke-width="6" stroke-miterlimit="10" d="M423.568,438.69
			c2.064,1.163,4.441,1.884,6.996,2.016c8.471,0.438,15.675-5.764,16.094-13.847c0.417-8.088-6.112-14.996-14.58-15.434
			c-3.731-0.19-7.213,0.902-9.981,2.88c-6.397-7.452-19.406-12.584-32.504-15.896c-0.028-0.008-0.055-0.012-0.083-0.021
			c-0.654-0.165-1.308-0.326-1.961-0.482c-1.442-0.344-2.882-0.666-4.309-0.968c-0.708-0.149-1.413-0.294-2.114-0.434
			c-0.039-0.007-0.078-0.015-0.118-0.023c-2.528-0.502-5.005-0.938-7.378-1.311"/>
		<path fill="none" stroke="#000000" stroke-width="6" stroke-miterlimit="10" d="M366.82,404.632
			c3.151,0.271,6.348,0.835,9.534,1.614c2.172,0.529,4.339,1.158,6.484,1.863c0.403,0.133,0.805,0.269,1.206,0.407
			c0.047,0.013,0.092,0.029,0.137,0.044c0.018,0.006,0.035,0.011,0.052,0.02c0.037,0.011,0.072,0.021,0.106,0.033
			c6.759,2.34,13.248,5.364,18.898,8.281"/>
		<path fill="none" stroke="#000000" stroke-width="6" stroke-miterlimit="10" d="M348.827,404.468
			c-0.196,0.398-0.392,0.797-0.588,1.195c3.876-0.102,7.698-0.826,11.56-1.114"/>
		<path fill="none" stroke="#000000" stroke-width="6" stroke-miterlimit="10" d="M433.586,413.542c0,0,4.479-14.414,7.564-24.125"
			/>
		
			<line fill="none" stroke="#000000" stroke-width="6" stroke-miterlimit="10" x1="468.43" y1="413.528" x2="474.871" y2="410.974"/>
		
			<line fill="none" stroke="#000000" stroke-width="6" stroke-miterlimit="10" x1="444.535" y1="423.005" x2="458.657" y2="417.404"/>
		
			<line fill="none" stroke="#000000" stroke-width="6" stroke-miterlimit="10" x1="460.911" y1="456.395" x2="463.797" y2="459.516"/>
		
			<line fill="none" stroke="#000000" stroke-width="6" stroke-miterlimit="10" x1="441.645" y1="435.557" x2="453.888" y2="448.798"/>
		
			<line fill="none" stroke="#000000" stroke-width="6" stroke-miterlimit="10" x1="428.858" y1="441.047" x2="425.96" y2="472.205"/>
		<path fill="none" stroke="#000000" stroke-width="6" stroke-miterlimit="10" d="M407.4,441.524
			c-7.434,6.767-16.955,15.479-16.955,15.479"/>
		
			<line fill="none" stroke="#000000" stroke-width="6" stroke-miterlimit="10" x1="424.042" y1="413.129" x2="412.038" y2="381.753"/>
		<path fill="none" stroke="#000000" stroke-width="4" stroke-miterlimit="10" d="M375.765,407.982
			c0.171-0.533,0.351-1.063,0.538-1.59c0.016-0.049,0.032-0.097,0.05-0.143"/>
		<path fill="none" stroke="#000000" stroke-width="4" stroke-miterlimit="10" d="M404.562,474.299
			c-19.556-9.738-32.483-29.923-31.314-52.54c0.031-0.604,0.072-1.206,0.123-1.805"/>
		<path fill="none" stroke="#000000" stroke-width="4" stroke-miterlimit="10" d="M457.08,375.273
			c0.493,0.248,0.982,0.503,1.467,0.765c0.334,0.181,0.667,0.365,0.998,0.552c0.165,0.093,0.328,0.187,0.491,0.28
			c0.247,0.143,0.492,0.287,0.736,0.434c0.351,0.209,0.698,0.422,1.043,0.639c16.743,10.495,27.418,29.113,26.353,49.755
			c-1.588,30.734-28.6,54.317-60.334,52.68"/>
		<path fill="none" stroke="#000000" stroke-width="4" stroke-miterlimit="10" d="M415.248,370.991
			c5.811-1.551,11.978-2.235,18.335-1.907c6.57,0.34,12.827,1.733,18.605,4.003"/>
		<path fill="none" stroke="#000000" stroke-width="4" stroke-miterlimit="10" d="M381.06,396.393
			c3.331-5.484,7.603-10.352,12.59-14.405"/>
	</g>
</g>
</svg>
